<?xml version="1.0" encoding="UTF-8"?>
<svg xmlns="http://www.w3.org/2000/svg" xmlns:xlink="http://www.w3.org/1999/xlink" width="372" height="186.666667" viewBox="0 0 372 186.666667" version="1.1">
<g id="surface1">
<path style=" stroke:none;fill-rule:nonzero;fill:rgb(0%,0%,0%);fill-opacity:1;" d="M 14.441406 172.863281 L 14.441406 164.28125 L 15.566406 164.28125 L 15.566406 172.863281 Z M 14.441406 172.863281 "/>
<path style=" stroke:none;fill-rule:nonzero;fill:rgb(0%,0%,0%);fill-opacity:1;" d="M 17.441406 172.863281 L 17.441406 166.632812 L 18.398438 166.632812 L 18.398438 167.53125 C 18.84375 166.851562 19.503906 166.507812 20.378906 166.507812 C 20.753906 166.507812 21.09375 166.582031 21.398438 166.71875 C 21.71875 166.84375 21.953125 167.019531 22.109375 167.238281 C 22.257812 167.445312 22.367188 167.707031 22.441406 168.007812 C 22.484375 168.207031 22.503906 168.546875 22.503906 169.03125 L 22.503906 172.863281 L 21.441406 172.863281 L 21.441406 169.070312 C 21.441406 168.644531 21.398438 168.320312 21.316406 168.113281 C 21.234375 167.90625 21.085938 167.738281 20.878906 167.613281 C 20.671875 167.476562 20.425781 167.40625 20.148438 167.40625 C 19.703125 167.40625 19.316406 167.550781 18.984375 167.84375 C 18.660156 168.125 18.503906 168.664062 18.503906 169.46875 L 18.503906 172.863281 Z M 17.441406 172.863281 "/>
<path style=" stroke:none;fill-rule:nonzero;fill:rgb(0%,0%,0%);fill-opacity:1;" d="M 24.117188 175.238281 L 24.117188 166.632812 L 25.074219 166.632812 L 25.074219 167.445312 C 25.292969 167.128906 25.542969 166.894531 25.824219 166.738281 C 26.117188 166.585938 26.46875 166.507812 26.886719 166.507812 C 27.414062 166.507812 27.875 166.648438 28.28125 166.925781 C 28.683594 167.191406 28.992188 167.570312 29.199219 168.070312 C 29.40625 168.570312 29.511719 169.113281 29.511719 169.695312 C 29.511719 170.335938 29.390625 170.914062 29.15625 171.425781 C 28.933594 171.941406 28.605469 172.335938 28.179688 172.613281 C 27.746094 172.875 27.289062 173.007812 26.804688 173.007812 C 26.453125 173.007812 26.140625 172.929688 25.867188 172.78125 C 25.585938 172.628906 25.355469 172.441406 25.179688 172.21875 L 25.179688 175.238281 Z M 25.074219 169.78125 C 25.074219 170.585938 25.230469 171.1875 25.554688 171.570312 C 25.886719 171.945312 26.28125 172.132812 26.742188 172.132812 C 27.199219 172.132812 27.59375 171.941406 27.929688 171.550781 C 28.273438 171.148438 28.449219 170.53125 28.449219 169.695312 C 28.449219 168.90625 28.28125 168.316406 27.949219 167.925781 C 27.625 167.523438 27.242188 167.320312 26.78125 167.320312 C 26.335938 167.320312 25.9375 167.539062 25.59375 167.96875 C 25.246094 168.382812 25.074219 168.988281 25.074219 169.78125 Z M 25.074219 169.78125 "/>
<path style=" stroke:none;fill-rule:nonzero;fill:rgb(0%,0%,0%);fill-opacity:1;" d="M 34.875 172.863281 L 34.875 171.945312 C 34.382812 172.65625 33.726562 173.007812 32.894531 173.007812 C 32.53125 173.007812 32.191406 172.9375 31.875 172.800781 C 31.550781 172.648438 31.3125 172.46875 31.144531 172.257812 C 30.988281 172.050781 30.882812 171.796875 30.832031 171.488281 C 30.789062 171.28125 30.769531 170.945312 30.769531 170.488281 L 30.769531 166.632812 L 31.8125 166.632812 L 31.8125 170.09375 C 31.8125 170.648438 31.835938 171.019531 31.894531 171.195312 C 31.945312 171.476562 32.082031 171.695312 32.289062 171.863281 C 32.507812 172.019531 32.78125 172.09375 33.101562 172.09375 C 33.421875 172.09375 33.71875 172.019531 34 171.863281 C 34.273438 171.695312 34.46875 171.476562 34.582031 171.195312 C 34.691406 170.921875 34.75 170.507812 34.75 169.96875 L 34.75 166.632812 L 35.8125 166.632812 L 35.8125 172.863281 Z M 34.875 172.863281 "/>
<path style=" stroke:none;fill-rule:nonzero;fill:rgb(0%,0%,0%);fill-opacity:1;" d="M 39.777344 171.925781 L 39.921875 172.84375 C 39.617188 172.910156 39.351562 172.945312 39.132812 172.945312 C 38.742188 172.945312 38.445312 172.882812 38.234375 172.757812 C 38.027344 172.632812 37.871094 172.476562 37.777344 172.28125 C 37.695312 172.085938 37.652344 171.675781 37.652344 171.050781 L 37.652344 167.46875 L 36.882812 167.46875 L 36.882812 166.632812 L 37.652344 166.632812 L 37.652344 165.09375 L 38.714844 164.46875 L 38.714844 166.632812 L 39.777344 166.632812 L 39.777344 167.46875 L 38.714844 167.46875 L 38.714844 171.09375 C 38.714844 171.398438 38.726562 171.59375 38.757812 171.675781 C 38.796875 171.757812 38.859375 171.832031 38.945312 171.882812 C 39.027344 171.941406 39.140625 171.96875 39.296875 171.96875 C 39.421875 171.96875 39.578125 171.957031 39.777344 171.925781 Z M 39.777344 171.925781 "/>
<path style=" stroke:none;fill-rule:nonzero;fill:rgb(0%,0%,0%);fill-opacity:1;" d="M 44.113281 172.863281 L 44.113281 164.28125 L 45.152344 164.28125 L 45.152344 172.863281 Z M 44.113281 172.863281 "/>
<path style=" stroke:none;fill-rule:nonzero;fill:rgb(0%,0%,0%);fill-opacity:1;" d="M 50.859375 172.09375 C 50.46875 172.425781 50.09375 172.664062 49.734375 172.800781 C 49.371094 172.9375 48.984375 173.007812 48.570312 173.007812 C 47.886719 173.007812 47.359375 172.84375 46.984375 172.507812 C 46.621094 172.175781 46.445312 171.75 46.445312 171.21875 C 46.445312 170.914062 46.511719 170.632812 46.652344 170.382812 C 46.789062 170.132812 46.96875 169.9375 47.195312 169.78125 C 47.414062 169.628906 47.664062 169.507812 47.945312 169.425781 C 48.152344 169.382812 48.464844 169.335938 48.882812 169.28125 C 49.742188 169.1875 50.371094 169.0625 50.777344 168.90625 C 50.777344 168.769531 50.777344 168.675781 50.777344 168.632812 C 50.777344 168.207031 50.679688 167.90625 50.484375 167.738281 C 50.203125 167.488281 49.804688 167.363281 49.277344 167.363281 C 48.777344 167.363281 48.40625 167.457031 48.171875 167.632812 C 47.933594 167.800781 47.761719 168.109375 47.652344 168.550781 L 46.632812 168.425781 C 46.714844 167.984375 46.859375 167.628906 47.070312 167.363281 C 47.289062 167.085938 47.601562 166.878906 48.007812 166.738281 C 48.421875 166.585938 48.890625 166.507812 49.421875 166.507812 C 49.964844 166.507812 50.390625 166.570312 50.714844 166.695312 C 51.046875 166.820312 51.289062 166.984375 51.445312 167.175781 C 51.609375 167.359375 51.71875 167.59375 51.777344 167.882812 C 51.820312 168.066406 51.839844 168.382812 51.839844 168.84375 L 51.839844 170.257812 C 51.839844 171.234375 51.859375 171.851562 51.902344 172.113281 C 51.945312 172.378906 52.03125 172.628906 52.171875 172.863281 L 51.070312 172.863281 C 50.953125 172.644531 50.886719 172.382812 50.859375 172.09375 Z M 50.777344 169.738281 C 50.386719 169.894531 49.808594 170.023438 49.046875 170.132812 C 48.617188 170.207031 48.308594 170.28125 48.132812 170.363281 C 47.949219 170.4375 47.808594 170.546875 47.714844 170.695312 C 47.617188 170.851562 47.570312 171.019531 47.570312 171.195312 C 47.570312 171.476562 47.671875 171.710938 47.882812 171.90625 C 48.089844 172.085938 48.402344 172.175781 48.820312 172.175781 C 49.21875 172.175781 49.578125 172.085938 49.902344 171.90625 C 50.21875 171.726562 50.453125 171.484375 50.609375 171.175781 C 50.71875 170.941406 50.777344 170.59375 50.777344 170.132812 Z M 50.777344 169.738281 "/>
<path style=" stroke:none;fill-rule:nonzero;fill:rgb(0%,0%,0%);fill-opacity:1;" d="M 53.429688 175.257812 L 53.304688 174.28125 C 53.539062 174.332031 53.742188 174.363281 53.910156 174.363281 C 54.144531 174.363281 54.332031 174.320312 54.472656 174.238281 C 54.609375 174.164062 54.726562 174.0625 54.828125 173.925781 C 54.878906 173.8125 54.984375 173.550781 55.140625 173.132812 C 55.164062 173.078125 55.203125 172.992188 55.242188 172.882812 L 52.867188 166.632812 L 54.015625 166.632812 L 55.304688 170.238281 C 55.472656 170.695312 55.625 171.175781 55.765625 171.675781 C 55.875 171.207031 56.015625 170.734375 56.179688 170.257812 L 57.515625 166.632812 L 58.578125 166.632812 L 56.203125 172.96875 C 55.953125 173.644531 55.753906 174.117188 55.617188 174.382812 C 55.421875 174.726562 55.207031 174.976562 54.972656 175.132812 C 54.734375 175.300781 54.441406 175.382812 54.097656 175.382812 C 53.898438 175.382812 53.679688 175.34375 53.429688 175.257812 Z M 53.429688 175.257812 "/>
<path style=" stroke:none;fill-rule:nonzero;fill:rgb(0%,0%,0%);fill-opacity:1;" d="M 63.722656 170.863281 L 64.828125 170.988281 C 64.644531 171.628906 64.316406 172.128906 63.847656 172.488281 C 63.390625 172.835938 62.796875 173.007812 62.078125 173.007812 C 61.171875 173.007812 60.453125 172.734375 59.910156 172.175781 C 59.378906 171.609375 59.117188 170.816406 59.117188 169.800781 C 59.117188 168.757812 59.390625 167.957031 59.929688 167.382812 C 60.472656 166.800781 61.171875 166.507812 62.035156 166.507812 C 62.867188 166.507812 63.539062 166.796875 64.054688 167.363281 C 64.582031 167.921875 64.847656 168.710938 64.847656 169.738281 C 64.847656 169.8125 64.847656 169.90625 64.847656 170.03125 L 60.203125 170.03125 C 60.242188 170.710938 60.4375 171.234375 60.785156 171.59375 C 61.128906 171.957031 61.566406 172.132812 62.097656 172.132812 C 62.484375 172.132812 62.8125 172.039062 63.078125 171.84375 C 63.351562 171.632812 63.566406 171.3125 63.722656 170.863281 Z M 60.265625 169.15625 L 63.742188 169.15625 C 63.703125 168.628906 63.566406 168.234375 63.347656 167.96875 C 63.015625 167.566406 62.578125 167.363281 62.035156 167.363281 C 61.546875 167.363281 61.140625 167.53125 60.804688 167.863281 C 60.484375 168.1875 60.304688 168.613281 60.265625 169.15625 Z M 60.265625 169.15625 "/>
<path style=" stroke:none;fill-rule:nonzero;fill:rgb(0%,0%,0%);fill-opacity:1;" d="M 66.125 172.863281 L 66.125 166.632812 L 67.085938 166.632812 L 67.085938 167.59375 C 67.320312 167.148438 67.542969 166.859375 67.75 166.71875 C 67.960938 166.582031 68.1875 166.507812 68.4375 166.507812 C 68.78125 166.507812 69.148438 166.625 69.523438 166.84375 L 69.148438 167.820312 C 68.898438 167.671875 68.636719 167.59375 68.375 167.59375 C 68.152344 167.59375 67.945312 167.664062 67.75 167.800781 C 67.570312 167.941406 67.4375 168.132812 67.355469 168.382812 C 67.242188 168.757812 67.1875 169.171875 67.1875 169.613281 L 67.1875 172.863281 Z M 66.125 172.863281 "/>
<path style=" stroke:none;fill-rule:nonzero;fill:rgb(0%,0%,0%);fill-opacity:1;" d="M 8.605469 97.253906 L 8.605469 88.671875 L 9.75 88.671875 L 9.75 92.191406 L 14.210938 92.191406 L 14.210938 88.671875 L 15.355469 88.671875 L 15.355469 97.253906 L 14.210938 97.253906 L 14.210938 93.210938 L 9.75 93.210938 L 9.75 97.253906 Z M 8.605469 97.253906 "/>
<path style=" stroke:none;fill-rule:nonzero;fill:rgb(0%,0%,0%);fill-opacity:1;" d="M 17.105469 89.878906 L 17.105469 88.671875 L 18.167969 88.671875 L 18.167969 89.878906 Z M 17.105469 97.253906 L 17.105469 91.023438 L 18.167969 91.023438 L 18.167969 97.253906 Z M 17.105469 97.253906 "/>
<path style=" stroke:none;fill-rule:nonzero;fill:rgb(0%,0%,0%);fill-opacity:1;" d="M 23.8125 97.253906 L 23.8125 96.460938 C 23.40625 97.085938 22.824219 97.398438 22.0625 97.398438 C 21.574219 97.398438 21.125 97.257812 20.710938 96.984375 C 20.292969 96.707031 19.964844 96.328125 19.730469 95.835938 C 19.507812 95.351562 19.398438 94.789062 19.398438 94.148438 C 19.398438 93.523438 19.5 92.960938 19.710938 92.460938 C 19.917969 91.953125 20.21875 91.5625 20.625 91.296875 C 21.042969 91.035156 21.507812 90.898438 22.023438 90.898438 C 22.398438 90.898438 22.730469 90.976562 23.023438 91.128906 C 23.3125 91.285156 23.546875 91.492188 23.730469 91.753906 L 23.730469 88.671875 L 24.792969 88.671875 L 24.792969 97.253906 Z M 20.480469 94.148438 C 20.480469 94.941406 20.648438 95.539062 20.980469 95.941406 C 21.3125 96.332031 21.710938 96.523438 22.167969 96.523438 C 22.625 96.523438 23.011719 96.335938 23.335938 95.960938 C 23.667969 95.585938 23.835938 95.015625 23.835938 94.234375 C 23.835938 93.390625 23.667969 92.765625 23.335938 92.359375 C 23 91.957031 22.59375 91.753906 22.125 91.753906 C 21.652344 91.753906 21.257812 91.953125 20.9375 92.335938 C 20.632812 92.726562 20.480469 93.332031 20.480469 94.148438 Z M 20.480469 94.148438 "/>
<path style=" stroke:none;fill-rule:nonzero;fill:rgb(0%,0%,0%);fill-opacity:1;" d="M 30.488281 97.253906 L 30.488281 96.460938 C 30.082031 97.085938 29.5 97.398438 28.738281 97.398438 C 28.25 97.398438 27.800781 97.257812 27.382812 96.984375 C 26.96875 96.707031 26.640625 96.328125 26.40625 95.835938 C 26.179688 95.351562 26.070312 94.789062 26.070312 94.148438 C 26.070312 93.523438 26.175781 92.960938 26.382812 92.460938 C 26.59375 91.953125 26.894531 91.5625 27.300781 91.296875 C 27.71875 91.035156 28.179688 90.898438 28.695312 90.898438 C 29.070312 90.898438 29.40625 90.976562 29.695312 91.128906 C 29.988281 91.285156 30.222656 91.492188 30.40625 91.753906 L 30.40625 88.671875 L 31.46875 88.671875 L 31.46875 97.253906 Z M 27.15625 94.148438 C 27.15625 94.941406 27.320312 95.539062 27.65625 95.941406 C 27.988281 96.332031 28.382812 96.523438 28.84375 96.523438 C 29.300781 96.523438 29.6875 96.335938 30.007812 95.960938 C 30.34375 95.585938 30.507812 95.015625 30.507812 94.234375 C 30.507812 93.390625 30.34375 92.765625 30.007812 92.359375 C 29.675781 91.957031 29.269531 91.753906 28.800781 91.753906 C 28.328125 91.753906 27.929688 91.953125 27.613281 92.335938 C 27.304688 92.726562 27.15625 93.332031 27.15625 94.148438 Z M 27.15625 94.148438 "/>
<path style=" stroke:none;fill-rule:nonzero;fill:rgb(0%,0%,0%);fill-opacity:1;" d="M 37.371094 95.253906 L 38.476562 95.378906 C 38.292969 96.019531 37.964844 96.519531 37.496094 96.878906 C 37.039062 97.226562 36.445312 97.398438 35.726562 97.398438 C 34.820312 97.398438 34.101562 97.125 33.558594 96.566406 C 33.027344 96 32.765625 95.207031 32.765625 94.191406 C 32.765625 93.148438 33.039062 92.347656 33.578125 91.773438 C 34.121094 91.191406 34.820312 90.898438 35.683594 90.898438 C 36.515625 90.898438 37.1875 91.1875 37.703125 91.753906 C 38.230469 92.3125 38.496094 93.101562 38.496094 94.128906 C 38.496094 94.203125 38.496094 94.296875 38.496094 94.421875 L 33.851562 94.421875 C 33.890625 95.101562 34.085938 95.625 34.433594 95.984375 C 34.777344 96.347656 35.214844 96.523438 35.746094 96.523438 C 36.132812 96.523438 36.460938 96.429688 36.726562 96.234375 C 37 96.023438 37.214844 95.703125 37.371094 95.253906 Z M 33.914062 93.546875 L 37.390625 93.546875 C 37.351562 93.019531 37.214844 92.625 36.996094 92.359375 C 36.664062 91.957031 36.226562 91.753906 35.683594 91.753906 C 35.195312 91.753906 34.789062 91.921875 34.453125 92.253906 C 34.132812 92.578125 33.953125 93.003906 33.914062 93.546875 Z M 33.914062 93.546875 "/>
<path style=" stroke:none;fill-rule:nonzero;fill:rgb(0%,0%,0%);fill-opacity:1;" d="M 39.796875 97.253906 L 39.796875 91.023438 L 40.753906 91.023438 L 40.753906 91.921875 C 41.195312 91.242188 41.859375 90.898438 42.734375 90.898438 C 43.109375 90.898438 43.445312 90.972656 43.753906 91.109375 C 44.070312 91.234375 44.304688 91.410156 44.460938 91.628906 C 44.613281 91.835938 44.722656 92.097656 44.796875 92.398438 C 44.835938 92.597656 44.859375 92.9375 44.859375 93.421875 L 44.859375 97.253906 L 43.796875 97.253906 L 43.796875 93.460938 C 43.796875 93.035156 43.753906 92.710938 43.671875 92.503906 C 43.585938 92.296875 43.441406 92.128906 43.234375 92.003906 C 43.023438 91.867188 42.78125 91.796875 42.503906 91.796875 C 42.054688 91.796875 41.671875 91.941406 41.335938 92.234375 C 41.015625 92.515625 40.859375 93.054688 40.859375 93.859375 L 40.859375 97.253906 Z M 39.796875 97.253906 "/>
<path style=" stroke:none;fill-rule:nonzero;fill:rgb(0%,0%,0%);fill-opacity:1;" d="M 49.78125 97.253906 L 49.78125 88.671875 L 50.824219 88.671875 L 50.824219 97.253906 Z M 49.78125 97.253906 "/>
<path style=" stroke:none;fill-rule:nonzero;fill:rgb(0%,0%,0%);fill-opacity:1;" d="M 56.53125 96.484375 C 56.140625 96.816406 55.765625 97.054688 55.40625 97.191406 C 55.042969 97.328125 54.65625 97.398438 54.242188 97.398438 C 53.558594 97.398438 53.03125 97.234375 52.65625 96.898438 C 52.292969 96.566406 52.117188 96.140625 52.117188 95.609375 C 52.117188 95.304688 52.183594 95.023438 52.324219 94.773438 C 52.460938 94.523438 52.640625 94.328125 52.867188 94.171875 C 53.085938 94.019531 53.335938 93.898438 53.617188 93.816406 C 53.824219 93.773438 54.136719 93.726562 54.554688 93.671875 C 55.414062 93.578125 56.042969 93.453125 56.449219 93.296875 C 56.449219 93.160156 56.449219 93.066406 56.449219 93.023438 C 56.449219 92.597656 56.351562 92.296875 56.15625 92.128906 C 55.875 91.878906 55.476562 91.753906 54.949219 91.753906 C 54.449219 91.753906 54.078125 91.847656 53.84375 92.023438 C 53.605469 92.191406 53.433594 92.5 53.324219 92.941406 L 52.304688 92.816406 C 52.386719 92.375 52.53125 92.019531 52.742188 91.753906 C 52.960938 91.476562 53.273438 91.269531 53.679688 91.128906 C 54.09375 90.976562 54.5625 90.898438 55.09375 90.898438 C 55.636719 90.898438 56.0625 90.960938 56.386719 91.085938 C 56.71875 91.210938 56.960938 91.375 57.117188 91.566406 C 57.28125 91.75 57.390625 91.984375 57.449219 92.273438 C 57.492188 92.457031 57.511719 92.773438 57.511719 93.234375 L 57.511719 94.648438 C 57.511719 95.625 57.53125 96.242188 57.574219 96.503906 C 57.617188 96.769531 57.703125 97.019531 57.84375 97.253906 L 56.742188 97.253906 C 56.625 97.035156 56.558594 96.773438 56.53125 96.484375 Z M 56.449219 94.128906 C 56.058594 94.285156 55.480469 94.414062 54.71875 94.523438 C 54.289062 94.597656 53.980469 94.671875 53.804688 94.753906 C 53.621094 94.828125 53.480469 94.9375 53.386719 95.085938 C 53.289062 95.242188 53.242188 95.410156 53.242188 95.585938 C 53.242188 95.867188 53.34375 96.101562 53.554688 96.296875 C 53.761719 96.476562 54.074219 96.566406 54.492188 96.566406 C 54.890625 96.566406 55.25 96.476562 55.574219 96.296875 C 55.890625 96.117188 56.125 95.875 56.28125 95.566406 C 56.390625 95.332031 56.449219 94.984375 56.449219 94.523438 Z M 56.449219 94.128906 "/>
<path style=" stroke:none;fill-rule:nonzero;fill:rgb(0%,0%,0%);fill-opacity:1;" d="M 59.101562 99.648438 L 58.976562 98.671875 C 59.210938 98.722656 59.414062 98.753906 59.582031 98.753906 C 59.816406 98.753906 60.003906 98.710938 60.144531 98.628906 C 60.28125 98.554688 60.398438 98.453125 60.5 98.316406 C 60.550781 98.203125 60.65625 97.941406 60.8125 97.523438 C 60.835938 97.46875 60.875 97.382812 60.914062 97.273438 L 58.539062 91.023438 L 59.6875 91.023438 L 60.976562 94.628906 C 61.144531 95.085938 61.296875 95.566406 61.4375 96.066406 C 61.546875 95.597656 61.6875 95.125 61.851562 94.648438 L 63.1875 91.023438 L 64.25 91.023438 L 61.875 97.359375 C 61.625 98.035156 61.425781 98.507812 61.289062 98.773438 C 61.09375 99.117188 60.878906 99.367188 60.644531 99.523438 C 60.40625 99.691406 60.113281 99.773438 59.769531 99.773438 C 59.570312 99.773438 59.351562 99.734375 59.101562 99.648438 Z M 59.101562 99.648438 "/>
<path style=" stroke:none;fill-rule:nonzero;fill:rgb(0%,0%,0%);fill-opacity:1;" d="M 69.394531 95.253906 L 70.5 95.378906 C 70.316406 96.019531 69.988281 96.519531 69.519531 96.878906 C 69.0625 97.226562 68.46875 97.398438 67.75 97.398438 C 66.84375 97.398438 66.125 97.125 65.582031 96.566406 C 65.050781 96 64.789062 95.207031 64.789062 94.191406 C 64.789062 93.148438 65.0625 92.347656 65.601562 91.773438 C 66.144531 91.191406 66.84375 90.898438 67.707031 90.898438 C 68.539062 90.898438 69.210938 91.1875 69.726562 91.753906 C 70.253906 92.3125 70.519531 93.101562 70.519531 94.128906 C 70.519531 94.203125 70.519531 94.296875 70.519531 94.421875 L 65.875 94.421875 C 65.914062 95.101562 66.109375 95.625 66.457031 95.984375 C 66.800781 96.347656 67.238281 96.523438 67.769531 96.523438 C 68.15625 96.523438 68.484375 96.429688 68.75 96.234375 C 69.023438 96.023438 69.238281 95.703125 69.394531 95.253906 Z M 65.9375 93.546875 L 69.414062 93.546875 C 69.375 93.019531 69.238281 92.625 69.019531 92.359375 C 68.6875 91.957031 68.25 91.753906 67.707031 91.753906 C 67.21875 91.753906 66.8125 91.921875 66.476562 92.253906 C 66.15625 92.578125 65.976562 93.003906 65.9375 93.546875 Z M 65.9375 93.546875 "/>
<path style=" stroke:none;fill-rule:nonzero;fill:rgb(0%,0%,0%);fill-opacity:1;" d="M 71.796875 97.253906 L 71.796875 91.023438 L 72.757812 91.023438 L 72.757812 91.984375 C 72.992188 91.539062 73.214844 91.25 73.421875 91.109375 C 73.632812 90.972656 73.859375 90.898438 74.109375 90.898438 C 74.453125 90.898438 74.820312 91.015625 75.195312 91.234375 L 74.820312 92.210938 C 74.570312 92.0625 74.308594 91.984375 74.046875 91.984375 C 73.824219 91.984375 73.617188 92.054688 73.421875 92.191406 C 73.242188 92.332031 73.109375 92.523438 73.027344 92.773438 C 72.914062 93.148438 72.859375 93.5625 72.859375 94.003906 L 72.859375 97.253906 Z M 71.796875 97.253906 "/>
<path style=" stroke:none;fill-rule:nonzero;fill:rgb(0%,0%,0%);fill-opacity:1;" d="M 9.234375 17.457031 C 9.234375 16.039062 9.613281 14.929688 10.378906 14.121094 C 11.140625 13.304688 12.128906 12.894531 13.335938 12.894531 C 14.128906 12.894531 14.84375 13.089844 15.484375 13.476562 C 16.117188 13.851562 16.609375 14.382812 16.941406 15.058594 C 17.273438 15.742188 17.441406 16.507812 17.441406 17.351562 C 17.441406 18.226562 17.265625 19.011719 16.921875 19.707031 C 16.570312 20.386719 16.070312 20.910156 15.421875 21.269531 C 14.78125 21.617188 14.085938 21.789062 13.335938 21.789062 C 12.53125 21.789062 11.804688 21.597656 11.171875 21.207031 C 10.53125 20.820312 10.046875 20.285156 9.710938 19.601562 C 9.390625 18.925781 9.234375 18.207031 9.234375 17.457031 Z M 10.398438 17.476562 C 10.398438 18.519531 10.675781 19.339844 11.234375 19.933594 C 11.785156 20.519531 12.488281 20.808594 13.335938 20.808594 C 14.179688 20.808594 14.882812 20.511719 15.441406 19.914062 C 15.992188 19.320312 16.273438 18.464844 16.273438 17.351562 C 16.273438 16.660156 16.15625 16.054688 15.921875 15.539062 C 15.679688 15.011719 15.335938 14.601562 14.878906 14.308594 C 14.421875 14.019531 13.910156 13.871094 13.359375 13.871094 C 12.550781 13.871094 11.859375 14.152344 11.273438 14.707031 C 10.691406 15.261719 10.398438 16.183594 10.398438 17.476562 Z M 10.398438 17.476562 "/>
<path style=" stroke:none;fill-rule:nonzero;fill:rgb(0%,0%,0%);fill-opacity:1;" d="M 22.859375 21.644531 L 22.859375 20.726562 C 22.367188 21.433594 21.710938 21.789062 20.878906 21.789062 C 20.515625 21.789062 20.175781 21.714844 19.859375 21.582031 C 19.535156 21.429688 19.296875 21.246094 19.128906 21.039062 C 18.972656 20.832031 18.867188 20.574219 18.816406 20.269531 C 18.773438 20.058594 18.753906 19.726562 18.753906 19.269531 L 18.753906 15.414062 L 19.796875 15.414062 L 19.796875 18.871094 C 19.796875 19.429688 19.820312 19.800781 19.878906 19.976562 C 19.929688 20.257812 20.066406 20.476562 20.273438 20.644531 C 20.492188 20.800781 20.765625 20.871094 21.085938 20.871094 C 21.40625 20.871094 21.703125 20.800781 21.984375 20.644531 C 22.257812 20.476562 22.453125 20.257812 22.566406 19.976562 C 22.675781 19.699219 22.734375 19.289062 22.734375 18.746094 L 22.734375 15.414062 L 23.796875 15.414062 L 23.796875 21.644531 Z M 22.859375 21.644531 "/>
<path style=" stroke:none;fill-rule:nonzero;fill:rgb(0%,0%,0%);fill-opacity:1;" d="M 27.761719 20.707031 L 27.90625 21.621094 C 27.601562 21.691406 27.335938 21.726562 27.117188 21.726562 C 26.726562 21.726562 26.429688 21.664062 26.21875 21.539062 C 26.011719 21.414062 25.855469 21.257812 25.761719 21.058594 C 25.679688 20.867188 25.636719 20.457031 25.636719 19.832031 L 25.636719 16.246094 L 24.867188 16.246094 L 24.867188 15.414062 L 25.636719 15.414062 L 25.636719 13.871094 L 26.699219 13.246094 L 26.699219 15.414062 L 27.761719 15.414062 L 27.761719 16.246094 L 26.699219 16.246094 L 26.699219 19.871094 C 26.699219 20.179688 26.710938 20.371094 26.742188 20.457031 C 26.78125 20.539062 26.84375 20.613281 26.929688 20.664062 C 27.011719 20.722656 27.125 20.746094 27.28125 20.746094 C 27.40625 20.746094 27.5625 20.738281 27.761719 20.707031 Z M 27.761719 20.707031 "/>
<path style=" stroke:none;fill-rule:nonzero;fill:rgb(0%,0%,0%);fill-opacity:1;" d="M 28.78125 24.019531 L 28.78125 15.414062 L 29.742188 15.414062 L 29.742188 16.226562 C 29.960938 15.910156 30.210938 15.675781 30.492188 15.519531 C 30.78125 15.367188 31.136719 15.289062 31.554688 15.289062 C 32.078125 15.289062 32.542969 15.429688 32.949219 15.707031 C 33.351562 15.972656 33.65625 16.351562 33.867188 16.851562 C 34.074219 17.351562 34.179688 17.894531 34.179688 18.476562 C 34.179688 19.117188 34.058594 19.695312 33.824219 20.207031 C 33.601562 20.722656 33.273438 21.117188 32.84375 21.394531 C 32.414062 21.652344 31.953125 21.789062 31.46875 21.789062 C 31.121094 21.789062 30.808594 21.710938 30.53125 21.558594 C 30.25 21.410156 30.023438 21.222656 29.84375 20.996094 L 29.84375 24.019531 Z M 29.742188 18.558594 C 29.742188 19.367188 29.898438 19.964844 30.21875 20.351562 C 30.554688 20.726562 30.949219 20.914062 31.40625 20.914062 C 31.867188 20.914062 32.261719 20.722656 32.59375 20.332031 C 32.9375 19.929688 33.117188 19.308594 33.117188 18.476562 C 33.117188 17.683594 32.949219 17.097656 32.617188 16.707031 C 32.292969 16.304688 31.90625 16.101562 31.449219 16.101562 C 31 16.101562 30.605469 16.320312 30.261719 16.746094 C 29.914062 17.164062 29.742188 17.769531 29.742188 18.558594 Z M 29.742188 18.558594 "/>
<path style=" stroke:none;fill-rule:nonzero;fill:rgb(0%,0%,0%);fill-opacity:1;" d="M 39.539062 21.644531 L 39.539062 20.726562 C 39.050781 21.433594 38.394531 21.789062 37.5625 21.789062 C 37.195312 21.789062 36.859375 21.714844 36.539062 21.582031 C 36.21875 21.429688 35.976562 21.246094 35.8125 21.039062 C 35.65625 20.832031 35.550781 20.574219 35.5 20.269531 C 35.457031 20.058594 35.4375 19.726562 35.4375 19.269531 L 35.4375 15.414062 L 36.476562 15.414062 L 36.476562 18.871094 C 36.476562 19.429688 36.503906 19.800781 36.5625 19.976562 C 36.613281 20.257812 36.75 20.476562 36.957031 20.644531 C 37.175781 20.800781 37.445312 20.871094 37.769531 20.871094 C 38.085938 20.871094 38.382812 20.800781 38.664062 20.644531 C 38.941406 20.476562 39.132812 20.257812 39.25 19.976562 C 39.359375 19.699219 39.414062 19.289062 39.414062 18.746094 L 39.414062 15.414062 L 40.476562 15.414062 L 40.476562 21.644531 Z M 39.539062 21.644531 "/>
<path style=" stroke:none;fill-rule:nonzero;fill:rgb(0%,0%,0%);fill-opacity:1;" d="M 44.445312 20.707031 L 44.589844 21.621094 C 44.28125 21.691406 44.015625 21.726562 43.796875 21.726562 C 43.40625 21.726562 43.109375 21.664062 42.902344 21.539062 C 42.695312 21.414062 42.539062 21.257812 42.445312 21.058594 C 42.359375 20.867188 42.320312 20.457031 42.320312 19.832031 L 42.320312 16.246094 L 41.546875 16.246094 L 41.546875 15.414062 L 42.320312 15.414062 L 42.320312 13.871094 L 43.382812 13.246094 L 43.382812 15.414062 L 44.445312 15.414062 L 44.445312 16.246094 L 43.382812 16.246094 L 43.382812 19.871094 C 43.382812 20.179688 43.390625 20.371094 43.421875 20.457031 C 43.464844 20.539062 43.527344 20.613281 43.609375 20.664062 C 43.695312 20.722656 43.808594 20.746094 43.964844 20.746094 C 44.089844 20.746094 44.246094 20.738281 44.445312 20.707031 Z M 44.445312 20.707031 "/>
<path style=" stroke:none;fill-rule:nonzero;fill:rgb(0%,0%,0%);fill-opacity:1;" d="M 48.777344 21.644531 L 48.777344 13.058594 L 49.820312 13.058594 L 49.820312 21.644531 Z M 48.777344 21.644531 "/>
<path style=" stroke:none;fill-rule:nonzero;fill:rgb(0%,0%,0%);fill-opacity:1;" d="M 55.527344 20.871094 C 55.136719 21.207031 54.761719 21.445312 54.402344 21.582031 C 54.039062 21.714844 53.652344 21.789062 53.234375 21.789062 C 52.554688 21.789062 52.027344 21.621094 51.652344 21.289062 C 51.289062 20.957031 51.109375 20.527344 51.109375 19.996094 C 51.109375 19.695312 51.179688 19.414062 51.320312 19.164062 C 51.453125 18.914062 51.636719 18.714844 51.859375 18.558594 C 52.078125 18.410156 52.328125 18.289062 52.609375 18.207031 C 52.820312 18.164062 53.132812 18.117188 53.546875 18.058594 C 54.40625 17.964844 55.039062 17.839844 55.445312 17.683594 C 55.445312 17.550781 55.445312 17.457031 55.445312 17.414062 C 55.445312 16.988281 55.34375 16.683594 55.152344 16.519531 C 54.871094 16.269531 54.46875 16.144531 53.945312 16.144531 C 53.445312 16.144531 53.074219 16.238281 52.839844 16.414062 C 52.601562 16.582031 52.429688 16.886719 52.320312 17.332031 L 51.296875 17.207031 C 51.382812 16.761719 51.527344 16.410156 51.734375 16.144531 C 51.953125 15.867188 52.265625 15.660156 52.671875 15.519531 C 53.089844 15.367188 53.558594 15.289062 54.089844 15.289062 C 54.632812 15.289062 55.058594 15.351562 55.382812 15.476562 C 55.714844 15.601562 55.953125 15.761719 56.109375 15.957031 C 56.277344 16.136719 56.386719 16.371094 56.445312 16.664062 C 56.484375 16.847656 56.507812 17.164062 56.507812 17.621094 L 56.507812 19.039062 C 56.507812 20.011719 56.527344 20.632812 56.570312 20.894531 C 56.609375 21.160156 56.699219 21.410156 56.839844 21.644531 L 55.734375 21.644531 C 55.621094 21.425781 55.554688 21.164062 55.527344 20.871094 Z M 55.445312 18.519531 C 55.054688 18.675781 54.476562 18.804688 53.714844 18.914062 C 53.28125 18.988281 52.976562 19.058594 52.796875 19.144531 C 52.617188 19.214844 52.476562 19.324219 52.382812 19.476562 C 52.28125 19.632812 52.234375 19.800781 52.234375 19.976562 C 52.234375 20.257812 52.339844 20.492188 52.546875 20.683594 C 52.757812 20.867188 53.070312 20.957031 53.484375 20.957031 C 53.886719 20.957031 54.246094 20.867188 54.570312 20.683594 C 54.886719 20.507812 55.121094 20.261719 55.277344 19.957031 C 55.386719 19.722656 55.445312 19.371094 55.445312 18.914062 Z M 55.445312 18.519531 "/>
<path style=" stroke:none;fill-rule:nonzero;fill:rgb(0%,0%,0%);fill-opacity:1;" d="M 58.097656 24.039062 L 57.972656 23.058594 C 58.207031 23.113281 58.410156 23.144531 58.578125 23.144531 C 58.8125 23.144531 59 23.101562 59.140625 23.019531 C 59.273438 22.945312 59.394531 22.839844 59.492188 22.707031 C 59.546875 22.589844 59.648438 22.332031 59.804688 21.914062 C 59.832031 21.855469 59.867188 21.773438 59.910156 21.664062 L 57.535156 15.414062 L 58.679688 15.414062 L 59.972656 19.019531 C 60.140625 19.476562 60.289062 19.957031 60.429688 20.457031 C 60.539062 19.988281 60.679688 19.511719 60.847656 19.039062 L 62.179688 15.414062 L 63.242188 15.414062 L 60.867188 21.746094 C 60.617188 22.425781 60.421875 22.898438 60.285156 23.164062 C 60.085938 23.507812 59.875 23.757812 59.640625 23.914062 C 59.398438 24.082031 59.109375 24.164062 58.765625 24.164062 C 58.566406 24.164062 58.347656 24.121094 58.097656 24.039062 Z M 58.097656 24.039062 "/>
<path style=" stroke:none;fill-rule:nonzero;fill:rgb(0%,0%,0%);fill-opacity:1;" d="M 68.390625 19.644531 L 69.492188 19.769531 C 69.3125 20.410156 68.984375 20.910156 68.515625 21.269531 C 68.054688 21.617188 67.460938 21.789062 66.742188 21.789062 C 65.835938 21.789062 65.117188 21.511719 64.578125 20.957031 C 64.046875 20.386719 63.785156 19.597656 63.785156 18.582031 C 63.785156 17.539062 64.054688 16.738281 64.597656 16.164062 C 65.140625 15.582031 65.835938 15.289062 66.703125 15.289062 C 67.535156 15.289062 68.207031 15.574219 68.722656 16.144531 C 69.25 16.699219 69.515625 17.492188 69.515625 18.519531 C 69.515625 18.589844 69.515625 18.683594 69.515625 18.808594 L 64.867188 18.808594 C 64.910156 19.492188 65.101562 20.011719 65.453125 20.371094 C 65.796875 20.738281 66.234375 20.914062 66.765625 20.914062 C 67.148438 20.914062 67.476562 20.820312 67.742188 20.621094 C 68.019531 20.414062 68.234375 20.089844 68.390625 19.644531 Z M 64.929688 17.933594 L 68.410156 17.933594 C 68.367188 17.410156 68.234375 17.011719 68.015625 16.746094 C 67.679688 16.347656 67.242188 16.144531 66.703125 16.144531 C 66.210938 16.144531 65.804688 16.308594 65.472656 16.644531 C 65.148438 16.964844 64.972656 17.394531 64.929688 17.933594 Z M 64.929688 17.933594 "/>
<path style=" stroke:none;fill-rule:nonzero;fill:rgb(0%,0%,0%);fill-opacity:1;" d="M 70.792969 21.644531 L 70.792969 15.414062 L 71.75 15.414062 L 71.75 16.371094 C 71.984375 15.929688 72.210938 15.636719 72.417969 15.496094 C 72.625 15.363281 72.855469 15.289062 73.105469 15.289062 C 73.449219 15.289062 73.8125 15.402344 74.1875 15.621094 L 73.8125 16.601562 C 73.5625 16.449219 73.304688 16.371094 73.042969 16.371094 C 72.820312 16.371094 72.609375 16.445312 72.417969 16.582031 C 72.234375 16.722656 72.105469 16.914062 72.023438 17.164062 C 71.90625 17.539062 71.855469 17.949219 71.855469 18.394531 L 71.855469 21.644531 Z M 70.792969 21.644531 "/>
<path style="fill-rule:nonzero;fill:rgb(69.803923%,85.09804%,100%);fill-opacity:1;stroke-width:0.929626;stroke-linecap:round;stroke-linejoin:round;stroke:rgb(0%,0%,0%);stroke-opacity:1;stroke-miterlimit:10;" d="M 139.967773 137.766602 C 144.59668 142.395508 144.59668 149.898438 139.967773 154.527344 C 135.338867 159.15625 127.835938 159.15625 123.207031 154.527344 C 118.578125 149.898438 118.578125 142.395508 123.207031 137.766602 C 127.835938 133.137695 135.338867 133.137695 139.967773 137.766602 " transform="matrix(1.333333,0,0,1.333333,-30.666667,-25.333333)"/>
<path style=" stroke:none;fill-rule:nonzero;fill:rgb(0%,0%,0%);fill-opacity:1;" d="M 143.039062 167.28125 C 142.871094 166.445312 142.726562 166.238281 142.433594 166.238281 C 142.140625 166.238281 141.746094 166.320312 141.015625 166.59375 L 140.890625 166.632812 L 140.933594 166.820312 L 141.140625 166.757812 C 141.371094 166.695312 141.515625 166.675781 141.601562 166.675781 C 141.914062 166.675781 141.996094 166.78125 142.164062 167.488281 L 142.496094 168.988281 L 141.515625 170.382812 C 141.265625 170.738281 141.039062 170.96875 140.890625 170.96875 C 140.828125 170.96875 140.703125 170.925781 140.578125 170.863281 C 140.433594 170.78125 140.308594 170.71875 140.203125 170.71875 C 139.976562 170.71875 139.789062 170.925781 139.789062 171.15625 C 139.789062 171.46875 140.015625 171.65625 140.390625 171.65625 C 140.765625 171.65625 141.015625 171.550781 141.539062 170.84375 L 142.601562 169.425781 L 142.933594 170.84375 C 143.078125 171.445312 143.265625 171.65625 143.640625 171.65625 C 144.101562 171.65625 144.414062 171.382812 145.121094 170.300781 L 144.933594 170.175781 C 144.828125 170.300781 144.789062 170.382812 144.683594 170.53125 C 144.414062 170.882812 144.265625 171.007812 144.121094 171.007812 C 143.953125 171.007812 143.851562 170.84375 143.765625 170.507812 L 143.371094 168.90625 C 143.308594 168.613281 143.265625 168.445312 143.265625 168.363281 C 143.808594 167.445312 144.246094 166.90625 144.453125 166.90625 C 144.746094 166.90625 144.851562 167.113281 145.078125 167.113281 C 145.308594 167.113281 145.476562 166.925781 145.476562 166.675781 C 145.476562 166.425781 145.289062 166.238281 144.996094 166.238281 C 144.476562 166.238281 144.015625 166.675781 143.183594 167.945312 Z M 143.039062 167.28125 "/>
<path style=" stroke:none;fill-rule:nonzero;fill:rgb(0%,0%,0%);fill-opacity:1;" d="M 148.59375 175.53125 L 148.59375 175.40625 C 147.992188 175.40625 147.84375 175.257812 147.84375 174.925781 L 147.84375 170.15625 L 147.761719 170.113281 L 146.34375 170.84375 L 146.34375 170.96875 L 146.554688 170.882812 C 146.699219 170.820312 146.824219 170.78125 146.90625 170.78125 C 147.074219 170.78125 147.15625 170.90625 147.15625 171.175781 L 147.15625 174.78125 C 147.15625 175.21875 146.992188 175.382812 146.386719 175.40625 L 146.386719 175.53125 Z M 148.59375 175.53125 "/>
<path style="fill-rule:nonzero;fill:rgb(69.803923%,85.09804%,100%);fill-opacity:1;stroke-width:0.929626;stroke-linecap:round;stroke-linejoin:round;stroke:rgb(0%,0%,0%);stroke-opacity:1;stroke-miterlimit:10;" d="M 189.125 137.766602 C 193.753906 142.395508 193.753906 149.898438 189.125 154.527344 C 184.496094 159.15625 176.993164 159.15625 172.364258 154.527344 C 167.735352 149.898438 167.735352 142.395508 172.364258 137.766602 C 176.993164 133.137695 184.496094 133.137695 189.125 137.766602 " transform="matrix(1.333333,0,0,1.333333,-30.666667,-25.333333)"/>
<path style=" stroke:none;fill-rule:nonzero;fill:rgb(0%,0%,0%);fill-opacity:1;" d="M 208.578125 167.28125 C 208.410156 166.445312 208.265625 166.238281 207.972656 166.238281 C 207.679688 166.238281 207.285156 166.320312 206.554688 166.59375 L 206.429688 166.632812 L 206.472656 166.820312 L 206.679688 166.757812 C 206.910156 166.695312 207.054688 166.675781 207.140625 166.675781 C 207.453125 166.675781 207.535156 166.78125 207.703125 167.488281 L 208.035156 168.988281 L 207.054688 170.382812 C 206.804688 170.738281 206.578125 170.96875 206.429688 170.96875 C 206.367188 170.96875 206.242188 170.925781 206.117188 170.863281 C 205.972656 170.78125 205.847656 170.71875 205.742188 170.71875 C 205.515625 170.71875 205.328125 170.925781 205.328125 171.15625 C 205.328125 171.46875 205.554688 171.65625 205.929688 171.65625 C 206.304688 171.65625 206.554688 171.550781 207.078125 170.84375 L 208.140625 169.425781 L 208.472656 170.84375 C 208.617188 171.445312 208.804688 171.65625 209.179688 171.65625 C 209.640625 171.65625 209.953125 171.382812 210.660156 170.300781 L 210.472656 170.175781 C 210.367188 170.300781 210.328125 170.382812 210.222656 170.53125 C 209.953125 170.882812 209.804688 171.007812 209.660156 171.007812 C 209.492188 171.007812 209.390625 170.84375 209.304688 170.507812 L 208.910156 168.90625 C 208.847656 168.613281 208.804688 168.445312 208.804688 168.363281 C 209.347656 167.445312 209.785156 166.90625 209.992188 166.90625 C 210.285156 166.90625 210.390625 167.113281 210.617188 167.113281 C 210.847656 167.113281 211.015625 166.925781 211.015625 166.675781 C 211.015625 166.425781 210.828125 166.238281 210.535156 166.238281 C 210.015625 166.238281 209.554688 166.675781 208.722656 167.945312 Z M 208.578125 167.28125 "/>
<path style=" stroke:none;fill-rule:nonzero;fill:rgb(0%,0%,0%);fill-opacity:1;" d="M 214.78125 174.425781 L 214.675781 174.382812 C 214.40625 174.84375 214.238281 174.925781 213.90625 174.925781 L 212.03125 174.925781 L 213.34375 173.507812 C 214.050781 172.757812 214.363281 172.15625 214.363281 171.53125 C 214.363281 170.738281 213.800781 170.113281 212.882812 170.113281 C 211.90625 170.113281 211.40625 170.78125 211.238281 171.71875 L 211.40625 171.757812 C 211.71875 170.96875 211.988281 170.71875 212.570312 170.71875 C 213.257812 170.71875 213.675781 171.113281 213.675781 171.84375 C 213.675781 172.53125 213.40625 173.132812 212.632812 173.925781 L 211.21875 175.425781 L 211.21875 175.53125 L 214.34375 175.53125 Z M 214.78125 174.425781 "/>
<path style="fill-rule:nonzero;fill:rgb(40.000001%,74.901962%,100%);fill-opacity:1;stroke-width:0.929626;stroke-linecap:round;stroke-linejoin:round;stroke:rgb(0%,0%,0%);stroke-opacity:1;stroke-miterlimit:10;" d="M 170.647461 81.05957 C 175.276367 85.688477 175.276367 93.191406 170.647461 97.820312 C 166.018555 102.449219 158.515625 102.449219 153.886719 97.820312 C 149.257812 93.191406 149.257812 85.688477 153.886719 81.05957 C 158.515625 76.430664 166.018555 76.430664 170.647461 81.05957 " transform="matrix(1.333333,0,0,1.333333,-30.666667,-25.333333)"/>
<path style=" stroke:none;fill-rule:nonzero;fill:rgb(0%,0%,0%);fill-opacity:1;" d="M 186.273438 94.503906 C 185.625 95.316406 185.480469 95.460938 185.292969 95.460938 C 185.167969 95.460938 185.085938 95.378906 185.085938 95.253906 C 185.085938 95.109375 185.292969 94.378906 185.480469 93.753906 C 185.855469 92.628906 186.0625 91.734375 186.0625 91.441406 C 186.0625 90.984375 185.835938 90.628906 185.292969 90.628906 C 184.542969 90.628906 183.605469 91.398438 182.523438 93.171875 L 183.980469 87.796875 L 183.898438 87.734375 C 183.1875 87.878906 182.730469 87.960938 182 88.046875 L 182 88.234375 L 182.335938 88.234375 C 182.542969 88.234375 182.835938 88.316406 182.835938 88.523438 C 182.835938 88.691406 182.773438 88.898438 182.667969 89.273438 L 180.917969 95.921875 L 181.8125 95.921875 C 182.292969 94.066406 182.480469 93.648438 182.960938 92.921875 C 183.585938 91.960938 184.355469 91.234375 184.792969 91.234375 C 185.0625 91.234375 185.125 91.359375 185.125 91.546875 C 185.125 91.585938 185.085938 91.753906 185.042969 91.941406 L 184.375 94.421875 C 184.230469 95.003906 184.148438 95.378906 184.148438 95.523438 C 184.148438 95.835938 184.355469 96.023438 184.667969 96.023438 C 185.292969 96.023438 185.6875 95.710938 186.417969 94.671875 Z M 186.273438 94.503906 "/>
<path style=" stroke:none;fill-rule:nonzero;fill:rgb(0%,0%,0%);fill-opacity:1;" d="M 190.480469 98.816406 L 190.375 98.773438 C 190.105469 99.234375 189.9375 99.316406 189.605469 99.316406 L 187.730469 99.316406 L 189.042969 97.898438 C 189.75 97.148438 190.0625 96.546875 190.0625 95.921875 C 190.0625 95.128906 189.5 94.503906 188.585938 94.503906 C 187.605469 94.503906 187.105469 95.171875 186.9375 96.109375 L 187.105469 96.148438 C 187.417969 95.359375 187.6875 95.109375 188.273438 95.109375 C 188.960938 95.109375 189.375 95.503906 189.375 96.234375 C 189.375 96.921875 189.105469 97.523438 188.335938 98.316406 L 186.917969 99.816406 L 186.917969 99.921875 L 190.042969 99.921875 Z M 190.480469 98.816406 "/>
<path style="fill-rule:nonzero;fill:rgb(69.803923%,85.09804%,100%);fill-opacity:1;stroke-width:0.929626;stroke-linecap:round;stroke-linejoin:round;stroke:rgb(0%,0%,0%);stroke-opacity:1;stroke-miterlimit:10;" d="M 238.276367 137.766602 C 242.905273 142.395508 242.905273 149.898438 238.276367 154.527344 C 233.647461 159.15625 226.144531 159.15625 221.515625 154.527344 C 216.886719 149.898438 216.886719 142.395508 221.515625 137.766602 C 226.144531 133.137695 233.647461 133.137695 238.276367 137.766602 " transform="matrix(1.333333,0,0,1.333333,-30.666667,-25.333333)"/>
<path style=" stroke:none;fill-rule:nonzero;fill:rgb(0%,0%,0%);fill-opacity:1;" d="M 274.117188 167.28125 C 273.949219 166.445312 273.804688 166.238281 273.511719 166.238281 C 273.21875 166.238281 272.824219 166.320312 272.09375 166.59375 L 271.96875 166.632812 L 272.011719 166.820312 L 272.21875 166.757812 C 272.449219 166.695312 272.59375 166.675781 272.679688 166.675781 C 272.992188 166.675781 273.074219 166.78125 273.242188 167.488281 L 273.574219 168.988281 L 272.59375 170.382812 C 272.34375 170.738281 272.117188 170.96875 271.96875 170.96875 C 271.90625 170.96875 271.78125 170.925781 271.65625 170.863281 C 271.511719 170.78125 271.386719 170.71875 271.28125 170.71875 C 271.054688 170.71875 270.867188 170.925781 270.867188 171.15625 C 270.867188 171.46875 271.09375 171.65625 271.46875 171.65625 C 271.84375 171.65625 272.09375 171.550781 272.617188 170.84375 L 273.679688 169.425781 L 274.011719 170.84375 C 274.15625 171.445312 274.34375 171.65625 274.71875 171.65625 C 275.179688 171.65625 275.492188 171.382812 276.199219 170.300781 L 276.011719 170.175781 C 275.90625 170.300781 275.867188 170.382812 275.761719 170.53125 C 275.492188 170.882812 275.34375 171.007812 275.199219 171.007812 C 275.03125 171.007812 274.929688 170.84375 274.84375 170.507812 L 274.449219 168.90625 C 274.386719 168.613281 274.34375 168.445312 274.34375 168.363281 C 274.886719 167.445312 275.324219 166.90625 275.53125 166.90625 C 275.824219 166.90625 275.929688 167.113281 276.15625 167.113281 C 276.386719 167.113281 276.554688 166.925781 276.554688 166.675781 C 276.554688 166.425781 276.367188 166.238281 276.074219 166.238281 C 275.554688 166.238281 275.09375 166.675781 274.261719 167.945312 Z M 274.117188 167.28125 "/>
<path style=" stroke:none;fill-rule:nonzero;fill:rgb(0%,0%,0%);fill-opacity:1;" d="M 277.007812 171.445312 C 277.339844 170.863281 277.714844 170.59375 278.214844 170.59375 C 278.734375 170.59375 279.070312 170.882812 279.070312 171.425781 C 279.070312 171.90625 278.820312 172.257812 278.421875 172.488281 C 278.257812 172.59375 278.046875 172.675781 277.757812 172.78125 L 277.757812 172.882812 C 278.214844 172.882812 278.382812 172.90625 278.570312 172.96875 C 279.109375 173.132812 279.402344 173.53125 279.402344 174.132812 C 279.402344 174.800781 278.945312 175.363281 278.359375 175.363281 C 278.132812 175.363281 277.964844 175.320312 277.671875 175.113281 C 277.445312 174.945312 277.320312 174.90625 277.171875 174.90625 C 277.007812 174.90625 276.859375 175.007812 276.859375 175.175781 C 276.859375 175.46875 277.171875 175.632812 277.757812 175.632812 C 278.464844 175.632812 279.214844 175.40625 279.609375 174.90625 C 279.839844 174.59375 279.984375 174.195312 279.984375 173.78125 C 279.984375 173.363281 279.839844 172.988281 279.632812 172.738281 C 279.464844 172.570312 279.320312 172.46875 278.964844 172.320312 C 279.484375 172.007812 279.695312 171.59375 279.695312 171.21875 C 279.695312 170.570312 279.195312 170.113281 278.464844 170.113281 C 277.632812 170.113281 277.109375 170.65625 276.882812 171.425781 Z M 277.007812 171.445312 "/>
<path style="fill-rule:nonzero;fill:rgb(69.803923%,85.09804%,100%);fill-opacity:1;stroke-width:0.929626;stroke-linecap:round;stroke-linejoin:round;stroke:rgb(0%,0%,0%);stroke-opacity:1;stroke-miterlimit:10;" d="M 287.433594 137.069336 C 292.0625 141.698242 292.0625 149.204102 287.433594 153.833008 C 282.804688 158.461914 275.301758 158.461914 270.672852 153.833008 C 266.043945 149.204102 266.043945 141.698242 270.672852 137.069336 C 275.301758 132.44043 282.804688 132.44043 287.433594 137.069336 " transform="matrix(1.333333,0,0,1.333333,-30.666667,-25.333333)"/>
<path style=" stroke:none;fill-rule:nonzero;fill:rgb(0%,0%,0%);fill-opacity:1;" d="M 339.65625 166.351562 C 339.488281 165.515625 339.34375 165.308594 339.050781 165.308594 C 338.757812 165.308594 338.363281 165.390625 337.632812 165.664062 L 337.507812 165.703125 L 337.550781 165.890625 L 337.757812 165.828125 C 337.988281 165.765625 338.132812 165.746094 338.21875 165.746094 C 338.53125 165.746094 338.613281 165.851562 338.78125 166.558594 L 339.113281 168.058594 L 338.132812 169.453125 C 337.882812 169.808594 337.65625 170.039062 337.507812 170.039062 C 337.445312 170.039062 337.320312 169.996094 337.195312 169.933594 C 337.050781 169.851562 336.925781 169.789062 336.820312 169.789062 C 336.59375 169.789062 336.40625 169.996094 336.40625 170.226562 C 336.40625 170.539062 336.632812 170.726562 337.007812 170.726562 C 337.382812 170.726562 337.632812 170.621094 338.15625 169.914062 L 339.21875 168.496094 L 339.550781 169.914062 C 339.695312 170.515625 339.882812 170.726562 340.257812 170.726562 C 340.71875 170.726562 341.03125 170.453125 341.738281 169.371094 L 341.550781 169.246094 C 341.445312 169.371094 341.40625 169.453125 341.300781 169.601562 C 341.03125 169.953125 340.882812 170.078125 340.738281 170.078125 C 340.570312 170.078125 340.46875 169.914062 340.382812 169.578125 L 339.988281 167.976562 C 339.925781 167.683594 339.882812 167.515625 339.882812 167.433594 C 340.425781 166.515625 340.863281 165.976562 341.070312 165.976562 C 341.363281 165.976562 341.46875 166.183594 341.695312 166.183594 C 341.925781 166.183594 342.09375 165.996094 342.09375 165.746094 C 342.09375 165.496094 341.90625 165.308594 341.613281 165.308594 C 341.09375 165.308594 340.632812 165.746094 339.800781 167.015625 Z M 339.65625 166.351562 "/>
<path style=" stroke:none;fill-rule:nonzero;fill:rgb(0%,0%,0%);fill-opacity:1;" d="M 345.855469 173.265625 L 345.855469 172.746094 L 345.023438 172.746094 L 345.023438 169.183594 L 344.667969 169.183594 L 342.167969 172.746094 L 342.167969 173.265625 L 344.398438 173.265625 L 344.398438 174.601562 L 345.023438 174.601562 L 345.023438 173.265625 Z M 344.398438 172.746094 L 342.480469 172.746094 L 344.398438 170.015625 Z M 344.398438 172.746094 "/>
<path style="fill-rule:nonzero;fill:rgb(40.000001%,74.901962%,100%);fill-opacity:1;stroke-width:0.929626;stroke-linecap:round;stroke-linejoin:round;stroke:rgb(0%,0%,0%);stroke-opacity:1;stroke-miterlimit:10;" d="M 255.476562 81.05957 C 260.105469 85.688477 260.105469 93.191406 255.476562 97.820312 C 250.847656 102.449219 243.344727 102.449219 238.71582 97.820312 C 234.086914 93.191406 234.086914 85.688477 238.71582 81.05957 C 243.344727 76.430664 250.847656 76.430664 255.476562 81.05957 " transform="matrix(1.333333,0,0,1.333333,-30.666667,-25.333333)"/>
<path style=" stroke:none;fill-rule:nonzero;fill:rgb(0%,0%,0%);fill-opacity:1;" d="M 299.378906 94.503906 C 298.730469 95.316406 298.585938 95.460938 298.398438 95.460938 C 298.273438 95.460938 298.191406 95.378906 298.191406 95.253906 C 298.191406 95.109375 298.398438 94.378906 298.585938 93.753906 C 298.960938 92.628906 299.167969 91.734375 299.167969 91.441406 C 299.167969 90.984375 298.941406 90.628906 298.398438 90.628906 C 297.648438 90.628906 296.710938 91.398438 295.628906 93.171875 L 297.085938 87.796875 L 297.003906 87.734375 C 296.292969 87.878906 295.835938 87.960938 295.105469 88.046875 L 295.105469 88.234375 L 295.441406 88.234375 C 295.648438 88.234375 295.941406 88.316406 295.941406 88.523438 C 295.941406 88.691406 295.878906 88.898438 295.773438 89.273438 L 294.023438 95.921875 L 294.917969 95.921875 C 295.398438 94.066406 295.585938 93.648438 296.066406 92.921875 C 296.691406 91.960938 297.460938 91.234375 297.898438 91.234375 C 298.167969 91.234375 298.230469 91.359375 298.230469 91.546875 C 298.230469 91.585938 298.191406 91.753906 298.148438 91.941406 L 297.480469 94.421875 C 297.335938 95.003906 297.253906 95.378906 297.253906 95.523438 C 297.253906 95.835938 297.460938 96.023438 297.773438 96.023438 C 298.398438 96.023438 298.792969 95.710938 299.523438 94.671875 Z M 299.378906 94.503906 "/>
<path style=" stroke:none;fill-rule:nonzero;fill:rgb(0%,0%,0%);fill-opacity:1;" d="M 303.585938 98.585938 L 303.585938 98.066406 L 302.753906 98.066406 L 302.753906 94.503906 L 302.398438 94.503906 L 299.898438 98.066406 L 299.898438 98.585938 L 302.128906 98.585938 L 302.128906 99.921875 L 302.753906 99.921875 L 302.753906 98.585938 Z M 302.128906 98.066406 L 300.210938 98.066406 L 302.128906 95.335938 Z M 302.128906 98.066406 "/>
<path style="fill-rule:nonzero;fill:rgb(40.000001%,74.901962%,100%);fill-opacity:1;stroke-width:0.929626;stroke-linecap:round;stroke-linejoin:round;stroke:rgb(0%,0%,0%);stroke-opacity:1;stroke-miterlimit:10;" d="M 213.063477 81.05957 C 217.692383 85.688477 217.692383 93.191406 213.063477 97.820312 C 208.43457 102.449219 200.928711 102.449219 196.299805 97.820312 C 191.670898 93.191406 191.670898 85.688477 196.299805 81.05957 C 200.928711 76.430664 208.43457 76.430664 213.063477 81.05957 " transform="matrix(1.333333,0,0,1.333333,-30.666667,-25.333333)"/>
<path style=" stroke:none;fill-rule:nonzero;fill:rgb(0%,0%,0%);fill-opacity:1;" d="M 242.824219 94.503906 C 242.179688 95.316406 242.03125 95.460938 241.84375 95.460938 C 241.71875 95.460938 241.636719 95.378906 241.636719 95.253906 C 241.636719 95.109375 241.84375 94.378906 242.03125 93.753906 C 242.40625 92.628906 242.617188 91.734375 242.617188 91.441406 C 242.617188 90.984375 242.386719 90.628906 241.84375 90.628906 C 241.09375 90.628906 240.15625 91.398438 239.074219 93.171875 L 240.53125 87.796875 L 240.449219 87.734375 C 239.742188 87.878906 239.28125 87.960938 238.554688 88.046875 L 238.554688 88.234375 L 238.886719 88.234375 C 239.09375 88.234375 239.386719 88.316406 239.386719 88.523438 C 239.386719 88.691406 239.324219 88.898438 239.21875 89.273438 L 237.46875 95.921875 L 238.367188 95.921875 C 238.84375 94.066406 239.03125 93.648438 239.511719 92.921875 C 240.136719 91.960938 240.90625 91.234375 241.34375 91.234375 C 241.617188 91.234375 241.679688 91.359375 241.679688 91.546875 C 241.679688 91.585938 241.636719 91.753906 241.59375 91.941406 L 240.929688 94.421875 C 240.78125 95.003906 240.699219 95.378906 240.699219 95.523438 C 240.699219 95.835938 240.90625 96.023438 241.21875 96.023438 C 241.84375 96.023438 242.242188 95.710938 242.96875 94.671875 Z M 242.824219 94.503906 "/>
<path style=" stroke:none;fill-rule:nonzero;fill:rgb(0%,0%,0%);fill-opacity:1;" d="M 243.71875 95.835938 C 244.054688 95.253906 244.429688 94.984375 244.929688 94.984375 C 245.449219 94.984375 245.78125 95.273438 245.78125 95.816406 C 245.78125 96.296875 245.53125 96.648438 245.136719 96.878906 C 244.96875 96.984375 244.761719 97.066406 244.46875 97.171875 L 244.46875 97.273438 C 244.929688 97.273438 245.09375 97.296875 245.28125 97.359375 C 245.824219 97.523438 246.117188 97.921875 246.117188 98.523438 C 246.117188 99.191406 245.65625 99.753906 245.074219 99.753906 C 244.84375 99.753906 244.679688 99.710938 244.386719 99.503906 C 244.15625 99.335938 244.03125 99.296875 243.886719 99.296875 C 243.71875 99.296875 243.574219 99.398438 243.574219 99.566406 C 243.574219 99.859375 243.886719 100.023438 244.46875 100.023438 C 245.179688 100.023438 245.929688 99.796875 246.324219 99.296875 C 246.554688 98.984375 246.699219 98.585938 246.699219 98.171875 C 246.699219 97.753906 246.554688 97.378906 246.34375 97.128906 C 246.179688 96.960938 246.03125 96.859375 245.679688 96.710938 C 246.199219 96.398438 246.40625 95.984375 246.40625 95.609375 C 246.40625 94.960938 245.90625 94.503906 245.179688 94.503906 C 244.34375 94.503906 243.824219 95.046875 243.59375 95.816406 Z M 243.71875 95.835938 "/>
<path style="fill-rule:nonzero;fill:rgb(69.803923%,85.09804%,100%);fill-opacity:1;stroke-width:0.929626;stroke-linecap:round;stroke-linejoin:round;stroke:rgb(0%,0%,0%);stroke-opacity:1;stroke-miterlimit:10;" d="M 163.90918 24.352539 C 168.535156 28.981445 168.535156 36.484375 163.90918 41.113281 C 159.280273 45.742188 151.774414 45.742188 147.145508 41.113281 C 142.516602 36.484375 142.516602 28.981445 147.145508 24.352539 C 151.774414 19.723633 159.280273 19.723633 163.90918 24.352539 " transform="matrix(1.333333,0,0,1.333333,-30.666667,-25.333333)"/>
<path style=" stroke:none;fill-rule:nonzero;fill:rgb(0%,0%,0%);fill-opacity:1;" d="M 177.328125 16.707031 C 177.328125 15.644531 176.597656 15.019531 175.621094 15.019531 C 175.140625 15.019531 174.660156 15.121094 174.183594 15.371094 C 172.933594 16.058594 172.035156 17.433594 172.035156 18.769531 C 172.035156 19.808594 172.660156 20.433594 173.785156 20.433594 C 174.578125 20.433594 175.347656 20.144531 176.058594 19.457031 C 176.847656 18.664062 177.328125 17.601562 177.328125 16.707031 Z M 176.308594 16.394531 C 176.308594 17.308594 175.972656 18.433594 175.433594 19.183594 C 174.953125 19.851562 174.496094 20.183594 173.972656 20.183594 C 173.410156 20.183594 173.035156 19.808594 173.035156 19.101562 C 173.035156 18.144531 173.371094 17.207031 173.933594 16.351562 C 174.410156 15.644531 174.933594 15.269531 175.453125 15.269531 C 175.972656 15.269531 176.308594 15.664062 176.308594 16.394531 Z M 176.308594 16.394531 "/>
<path style=" stroke:none;fill-rule:nonzero;fill:rgb(0%,0%,0%);fill-opacity:1;" d="M 180.847656 24.308594 L 180.847656 24.183594 C 180.246094 24.183594 180.097656 24.039062 180.097656 23.707031 L 180.097656 18.933594 L 180.015625 18.894531 L 178.597656 19.621094 L 178.597656 19.746094 L 178.808594 19.664062 C 178.953125 19.601562 179.078125 19.558594 179.160156 19.558594 C 179.328125 19.558594 179.410156 19.683594 179.410156 19.957031 L 179.410156 23.558594 C 179.410156 23.996094 179.246094 24.164062 178.640625 24.183594 L 178.640625 24.308594 Z M 180.847656 24.308594 "/>
<path style="fill-rule:nonzero;fill:rgb(69.803923%,85.09804%,100%);fill-opacity:1;stroke-width:0.929626;stroke-linecap:round;stroke-linejoin:round;stroke:rgb(0%,0%,0%);stroke-opacity:1;stroke-miterlimit:10;" d="M 213.063477 24.352539 C 217.692383 28.981445 217.692383 36.484375 213.063477 41.113281 C 208.43457 45.742188 200.928711 45.742188 196.299805 41.113281 C 191.670898 36.484375 191.670898 28.981445 196.299805 24.352539 C 200.928711 19.723633 208.43457 19.723633 213.063477 24.352539 " transform="matrix(1.333333,0,0,1.333333,-30.666667,-25.333333)"/>
<path style=" stroke:none;fill-rule:nonzero;fill:rgb(0%,0%,0%);fill-opacity:1;" d="M 242.867188 16.707031 C 242.867188 15.644531 242.136719 15.019531 241.15625 15.019531 C 240.679688 15.019531 240.199219 15.121094 239.71875 15.371094 C 238.46875 16.058594 237.574219 17.433594 237.574219 18.769531 C 237.574219 19.808594 238.199219 20.433594 239.324219 20.433594 C 240.117188 20.433594 240.886719 20.144531 241.59375 19.457031 C 242.386719 18.664062 242.867188 17.601562 242.867188 16.707031 Z M 241.84375 16.394531 C 241.84375 17.308594 241.511719 18.433594 240.96875 19.183594 C 240.492188 19.851562 240.03125 20.183594 239.511719 20.183594 C 238.949219 20.183594 238.574219 19.808594 238.574219 19.101562 C 238.574219 18.144531 238.90625 17.207031 239.46875 16.351562 C 239.949219 15.644531 240.46875 15.269531 240.992188 15.269531 C 241.511719 15.269531 241.84375 15.664062 241.84375 16.394531 Z M 241.84375 16.394531 "/>
<path style=" stroke:none;fill-rule:nonzero;fill:rgb(0%,0%,0%);fill-opacity:1;" d="M 247.03125 23.207031 L 246.929688 23.164062 C 246.65625 23.621094 246.492188 23.707031 246.15625 23.707031 L 244.28125 23.707031 L 245.59375 22.289062 C 246.304688 21.539062 246.617188 20.933594 246.617188 20.308594 C 246.617188 19.519531 246.054688 18.894531 245.136719 18.894531 C 244.15625 18.894531 243.65625 19.558594 243.492188 20.496094 L 243.65625 20.539062 C 243.96875 19.746094 244.242188 19.496094 244.824219 19.496094 C 245.511719 19.496094 245.929688 19.894531 245.929688 20.621094 C 245.929688 21.308594 245.65625 21.914062 244.886719 22.707031 L 243.46875 24.207031 L 243.46875 24.308594 L 246.59375 24.308594 Z M 247.03125 23.207031 "/>
<path style="fill-rule:nonzero;fill:rgb(69.803923%,85.09804%,100%);fill-opacity:1;stroke-width:0.929626;stroke-linecap:round;stroke-linejoin:round;stroke:rgb(0%,0%,0%);stroke-opacity:1;stroke-miterlimit:10;" d="M 262.214844 23.655273 C 266.84375 28.28418 266.84375 35.790039 262.214844 40.418945 C 257.585938 45.047852 250.083008 45.047852 245.454102 40.418945 C 240.825195 35.790039 240.825195 28.28418 245.454102 23.655273 C 250.083008 19.026367 257.585938 19.026367 262.214844 23.655273 " transform="matrix(1.333333,0,0,1.333333,-30.666667,-25.333333)"/>
<path style=" stroke:none;fill-rule:nonzero;fill:rgb(0%,0%,0%);fill-opacity:1;" d="M 308.40625 15.777344 C 308.40625 14.714844 307.675781 14.089844 306.695312 14.089844 C 306.21875 14.089844 305.738281 14.191406 305.257812 14.441406 C 304.007812 15.128906 303.113281 16.503906 303.113281 17.839844 C 303.113281 18.878906 303.738281 19.503906 304.863281 19.503906 C 305.65625 19.503906 306.425781 19.214844 307.132812 18.527344 C 307.925781 17.734375 308.40625 16.671875 308.40625 15.777344 Z M 307.382812 15.464844 C 307.382812 16.378906 307.050781 17.503906 306.507812 18.253906 C 306.03125 18.921875 305.570312 19.253906 305.050781 19.253906 C 304.488281 19.253906 304.113281 18.878906 304.113281 18.171875 C 304.113281 17.214844 304.445312 16.277344 305.007812 15.421875 C 305.488281 14.714844 306.007812 14.339844 306.53125 14.339844 C 307.050781 14.339844 307.382812 14.734375 307.382812 15.464844 Z M 307.382812 15.464844 "/>
<path style=" stroke:none;fill-rule:nonzero;fill:rgb(0%,0%,0%);fill-opacity:1;" d="M 309.257812 19.296875 C 309.59375 18.714844 309.96875 18.441406 310.46875 18.441406 C 310.988281 18.441406 311.320312 18.734375 311.320312 19.277344 C 311.320312 19.753906 311.070312 20.109375 310.675781 20.339844 C 310.507812 20.441406 310.300781 20.527344 310.007812 20.628906 L 310.007812 20.734375 C 310.46875 20.734375 310.632812 20.753906 310.820312 20.816406 C 311.363281 20.984375 311.65625 21.378906 311.65625 21.984375 C 311.65625 22.652344 311.195312 23.214844 310.613281 23.214844 C 310.382812 23.214844 310.21875 23.171875 309.925781 22.964844 C 309.695312 22.796875 309.570312 22.753906 309.425781 22.753906 C 309.257812 22.753906 309.113281 22.859375 309.113281 23.027344 C 309.113281 23.316406 309.425781 23.484375 310.007812 23.484375 C 310.71875 23.484375 311.46875 23.253906 311.863281 22.753906 C 312.09375 22.441406 312.238281 22.046875 312.238281 21.628906 C 312.238281 21.214844 312.09375 20.839844 311.882812 20.589844 C 311.71875 20.421875 311.570312 20.316406 311.21875 20.171875 C 311.738281 19.859375 311.945312 19.441406 311.945312 19.066406 C 311.945312 18.421875 311.445312 17.964844 310.71875 17.964844 C 309.882812 17.964844 309.363281 18.503906 309.132812 19.277344 Z M 309.257812 19.296875 "/>
<path style="fill-rule:nonzero;fill:rgb(40.000001%,74.901962%,100%);fill-opacity:1;stroke-width:0.929626;stroke-linecap:round;stroke-linejoin:round;stroke:rgb(0%,0%,0%);stroke-opacity:1;stroke-miterlimit:10;" d="M 128.234375 81.05957 C 132.863281 85.688477 132.863281 93.191406 128.234375 97.820312 C 123.605469 102.449219 116.102539 102.449219 111.473633 97.820312 C 106.844727 93.191406 106.844727 85.688477 111.473633 81.05957 C 116.102539 76.430664 123.605469 76.430664 128.234375 81.05957 " transform="matrix(1.333333,0,0,1.333333,-30.666667,-25.333333)"/>
<path style=" stroke:none;fill-rule:nonzero;fill:rgb(0%,0%,0%);fill-opacity:1;" d="M 129.71875 94.503906 C 129.074219 95.316406 128.929688 95.460938 128.742188 95.460938 C 128.617188 95.460938 128.53125 95.378906 128.53125 95.253906 C 128.53125 95.109375 128.742188 94.378906 128.929688 93.753906 C 129.304688 92.628906 129.511719 91.734375 129.511719 91.441406 C 129.511719 90.984375 129.28125 90.628906 128.742188 90.628906 C 127.992188 90.628906 127.054688 91.398438 125.96875 93.171875 L 127.429688 87.796875 L 127.34375 87.734375 C 126.636719 87.878906 126.179688 87.960938 125.449219 88.046875 L 125.449219 88.234375 L 125.78125 88.234375 C 125.992188 88.234375 126.28125 88.316406 126.28125 88.523438 C 126.28125 88.691406 126.21875 88.898438 126.117188 89.273438 L 124.367188 95.921875 L 125.261719 95.921875 C 125.742188 94.066406 125.929688 93.648438 126.40625 92.921875 C 127.03125 91.960938 127.804688 91.234375 128.242188 91.234375 C 128.511719 91.234375 128.574219 91.359375 128.574219 91.546875 C 128.574219 91.585938 128.53125 91.753906 128.492188 91.941406 L 127.824219 94.421875 C 127.679688 95.003906 127.59375 95.378906 127.59375 95.523438 C 127.59375 95.835938 127.804688 96.023438 128.117188 96.023438 C 128.742188 96.023438 129.136719 95.710938 129.867188 94.671875 Z M 129.71875 94.503906 "/>
<path style=" stroke:none;fill-rule:nonzero;fill:rgb(0%,0%,0%);fill-opacity:1;" d="M 133.28125 99.921875 L 133.28125 99.796875 C 132.679688 99.796875 132.53125 99.648438 132.53125 99.316406 L 132.53125 94.546875 L 132.449219 94.503906 L 131.03125 95.234375 L 131.03125 95.359375 L 131.242188 95.273438 C 131.386719 95.210938 131.511719 95.171875 131.59375 95.171875 C 131.761719 95.171875 131.84375 95.296875 131.84375 95.566406 L 131.84375 99.171875 C 131.84375 99.609375 131.679688 99.773438 131.074219 99.796875 L 131.074219 99.921875 Z M 133.28125 99.921875 "/>
<path style="fill-rule:nonzero;fill:rgb(40.000001%,74.901962%,100%);fill-opacity:1;stroke-width:0.929626;stroke-linecap:round;stroke-linejoin:round;stroke:rgb(0%,0%,0%);stroke-opacity:1;stroke-miterlimit:10;" d="M 297.889648 81.05957 C 302.518555 85.688477 302.518555 93.191406 297.889648 97.820312 C 293.260742 102.449219 285.757812 102.449219 281.128906 97.820312 C 276.5 93.191406 276.5 85.688477 281.128906 81.05957 C 285.757812 76.430664 293.260742 76.430664 297.889648 81.05957 " transform="matrix(1.333333,0,0,1.333333,-30.666667,-25.333333)"/>
<path style=" stroke:none;fill-rule:nonzero;fill:rgb(0%,0%,0%);fill-opacity:1;" d="M 355.929688 94.503906 C 355.285156 95.316406 355.136719 95.460938 354.949219 95.460938 C 354.824219 95.460938 354.742188 95.378906 354.742188 95.253906 C 354.742188 95.109375 354.949219 94.378906 355.136719 93.753906 C 355.511719 92.628906 355.722656 91.734375 355.722656 91.441406 C 355.722656 90.984375 355.492188 90.628906 354.949219 90.628906 C 354.199219 90.628906 353.261719 91.398438 352.179688 93.171875 L 353.636719 87.796875 L 353.554688 87.734375 C 352.847656 87.878906 352.386719 87.960938 351.660156 88.046875 L 351.660156 88.234375 L 351.992188 88.234375 C 352.199219 88.234375 352.492188 88.316406 352.492188 88.523438 C 352.492188 88.691406 352.429688 88.898438 352.324219 89.273438 L 350.574219 95.921875 L 351.472656 95.921875 C 351.949219 94.066406 352.136719 93.648438 352.617188 92.921875 C 353.242188 91.960938 354.011719 91.234375 354.449219 91.234375 C 354.722656 91.234375 354.785156 91.359375 354.785156 91.546875 C 354.785156 91.585938 354.742188 91.753906 354.699219 91.941406 L 354.035156 94.421875 C 353.886719 95.003906 353.804688 95.378906 353.804688 95.523438 C 353.804688 95.835938 354.011719 96.023438 354.324219 96.023438 C 354.949219 96.023438 355.347656 95.710938 356.074219 94.671875 Z M 355.929688 94.503906 "/>
<path style=" stroke:none;fill-rule:nonzero;fill:rgb(0%,0%,0%);fill-opacity:1;" d="M 359.847656 94.460938 L 359.785156 94.421875 C 359.660156 94.585938 359.574219 94.628906 359.386719 94.628906 L 357.742188 94.628906 L 356.867188 96.523438 C 356.867188 96.523438 356.867188 96.546875 356.867188 96.566406 C 356.867188 96.609375 356.886719 96.628906 356.949219 96.628906 C 357.722656 96.628906 358.285156 96.878906 358.660156 97.191406 C 359.011719 97.460938 359.199219 97.878906 359.199219 98.378906 C 359.199219 99.066406 358.679688 99.734375 358.117188 99.734375 C 357.949219 99.734375 357.761719 99.671875 357.554688 99.484375 C 357.285156 99.273438 357.136719 99.234375 356.949219 99.234375 C 356.722656 99.234375 356.597656 99.335938 356.597656 99.546875 C 356.597656 99.835938 357.011719 100.023438 357.617188 100.023438 C 358.160156 100.023438 358.597656 99.921875 358.972656 99.648438 C 359.511719 99.234375 359.761719 98.753906 359.761719 97.984375 C 359.761719 97.546875 359.679688 97.253906 359.472656 96.960938 C 359.011719 96.335938 358.617188 96.148438 357.472656 95.941406 L 357.804688 95.253906 L 359.347656 95.253906 C 359.472656 95.253906 359.535156 95.210938 359.554688 95.148438 Z M 359.847656 94.460938 "/>
<path style="fill:none;stroke-width:0.929626;stroke-linecap:round;stroke-linejoin:round;stroke:rgb(0%,0%,0%);stroke-opacity:1;stroke-miterlimit:10;" d="M 126.163086 79.407227 L 146.272461 47.441406 " transform="matrix(1.333333,0,0,1.333333,-30.666667,-25.333333)"/>
<path style="fill:none;stroke-width:0.929626;stroke-linecap:butt;stroke-linejoin:miter;stroke:rgb(0%,0%,0%);stroke-opacity:1;stroke-miterlimit:10;" d="M 148.25293 44.291992 L 146.272461 47.441406 M 145.094727 46.700195 L 148.25293 44.291992 L 147.456055 48.182617 " transform="matrix(1.333333,0,0,1.333333,-30.666667,-25.333333)"/>
<path style="fill:none;stroke-width:0.929626;stroke-linecap:round;stroke-linejoin:round;stroke:rgb(0%,0%,0%);stroke-opacity:1;stroke-miterlimit:10;" d="M 129.708008 82.852539 L 190.238281 42.390625 " transform="matrix(1.333333,0,0,1.333333,-30.666667,-25.333333)"/>
<path style="fill:none;stroke-width:0.929626;stroke-linecap:butt;stroke-linejoin:miter;stroke:rgb(0%,0%,0%);stroke-opacity:1;stroke-miterlimit:10;" d="M 193.329102 40.325195 L 190.238281 42.390625 M 189.461914 41.230469 L 193.329102 40.325195 L 191.011719 43.547852 " transform="matrix(1.333333,0,0,1.333333,-30.666667,-25.333333)"/>
<path style="fill:none;stroke-width:0.929626;stroke-linecap:round;stroke-linejoin:round;stroke:rgb(0%,0%,0%);stroke-opacity:1;stroke-miterlimit:10;" d="M 130.750977 84.768555 L 237.863281 38.87793 " transform="matrix(1.333333,0,0,1.333333,-30.666667,-25.333333)"/>
<path style="fill:none;stroke-width:0.929626;stroke-linecap:butt;stroke-linejoin:miter;stroke:rgb(0%,0%,0%);stroke-opacity:1;stroke-miterlimit:10;" d="M 241.282227 37.413086 L 237.863281 38.87793 M 237.3125 37.597656 L 241.282227 37.413086 L 238.414062 40.161133 " transform="matrix(1.333333,0,0,1.333333,-30.666667,-25.333333)"/>
<path style="fill:none;stroke-width:0.929626;stroke-linecap:round;stroke-linejoin:round;stroke:rgb(0%,0%,0%);stroke-opacity:1;stroke-miterlimit:10;" d="M 160.868164 77.666992 L 157.578125 49.984375 " transform="matrix(1.333333,0,0,1.333333,-30.666667,-25.333333)"/>
<path style="fill:none;stroke-width:0.929626;stroke-linecap:butt;stroke-linejoin:miter;stroke:rgb(0%,0%,0%);stroke-opacity:1;stroke-miterlimit:10;" d="M 157.141602 46.292969 L 157.578125 49.984375 M 156.192383 50.148438 L 157.141602 46.292969 L 158.960938 49.820312 " transform="matrix(1.333333,0,0,1.333333,-30.666667,-25.333333)"/>
<path style="fill:none;stroke-width:0.929626;stroke-linecap:round;stroke-linejoin:round;stroke:rgb(0%,0%,0%);stroke-opacity:1;stroke-miterlimit:10;" d="M 169.367188 79.949219 L 194.272461 46.644531 " transform="matrix(1.333333,0,0,1.333333,-30.666667,-25.333333)"/>
<path style="fill:none;stroke-width:0.929626;stroke-linecap:butt;stroke-linejoin:miter;stroke:rgb(0%,0%,0%);stroke-opacity:1;stroke-miterlimit:10;" d="M 196.504883 43.667969 L 194.272461 46.644531 M 193.15625 45.8125 L 196.504883 43.667969 L 195.391602 47.479492 " transform="matrix(1.333333,0,0,1.333333,-30.666667,-25.333333)"/>
<path style="fill:none;stroke-width:0.929626;stroke-linecap:round;stroke-linejoin:round;stroke:rgb(0%,0%,0%);stroke-opacity:1;stroke-miterlimit:10;" d="M 172.311523 83.145508 L 239.114258 41.265625 " transform="matrix(1.333333,0,0,1.333333,-30.666667,-25.333333)"/>
<path style="fill:none;stroke-width:0.929626;stroke-linecap:butt;stroke-linejoin:miter;stroke:rgb(0%,0%,0%);stroke-opacity:1;stroke-miterlimit:10;" d="M 242.266602 39.288086 L 239.114258 41.265625 M 238.370117 40.082031 L 242.266602 39.288086 L 239.855469 42.446289 " transform="matrix(1.333333,0,0,1.333333,-30.666667,-25.333333)"/>
<path style="fill:none;stroke-width:0.929626;stroke-linecap:round;stroke-linejoin:round;stroke:rgb(0%,0%,0%);stroke-opacity:1;stroke-miterlimit:10;" d="M 196.917969 80.485352 L 166.90625 45.859375 " transform="matrix(1.333333,0,0,1.333333,-30.666667,-25.333333)"/>
<path style="fill:none;stroke-width:0.929626;stroke-linecap:butt;stroke-linejoin:miter;stroke:rgb(0%,0%,0%);stroke-opacity:1;stroke-miterlimit:10;" d="M 164.47168 43.049805 L 166.90625 45.859375 M 165.851562 46.773438 L 164.47168 43.049805 L 167.960938 44.948242 " transform="matrix(1.333333,0,0,1.333333,-30.666667,-25.333333)"/>
<path style="fill:none;stroke-width:0.929626;stroke-linecap:round;stroke-linejoin:round;stroke:rgb(0%,0%,0%);stroke-opacity:1;stroke-miterlimit:10;" d="M 204.678711 77.584961 L 204.678711 50.104492 " transform="matrix(1.333333,0,0,1.333333,-30.666667,-25.333333)"/>
<path style="fill:none;stroke-width:0.929626;stroke-linecap:butt;stroke-linejoin:miter;stroke:rgb(0%,0%,0%);stroke-opacity:1;stroke-miterlimit:10;" d="M 204.678711 46.386719 L 204.678711 50.104492 M 203.28418 50.104492 L 204.678711 46.386719 L 206.073242 50.104492 " transform="matrix(1.333333,0,0,1.333333,-30.666667,-25.333333)"/>
<path style="fill:none;stroke-width:0.929626;stroke-linecap:round;stroke-linejoin:round;stroke:rgb(0%,0%,0%);stroke-opacity:1;stroke-miterlimit:10;" d="M 212.389648 80.438477 L 242.536133 45.229492 " transform="matrix(1.333333,0,0,1.333333,-30.666667,-25.333333)"/>
<path style="fill:none;stroke-width:0.929626;stroke-linecap:butt;stroke-linejoin:miter;stroke:rgb(0%,0%,0%);stroke-opacity:1;stroke-miterlimit:10;" d="M 244.953125 42.405273 L 242.536133 45.229492 M 241.475586 44.324219 L 244.953125 42.405273 L 243.59375 46.140625 " transform="matrix(1.333333,0,0,1.333333,-30.666667,-25.333333)"/>
<path style="fill:none;stroke-width:0.929626;stroke-linecap:round;stroke-linejoin:round;stroke:rgb(0%,0%,0%);stroke-opacity:1;stroke-miterlimit:10;" d="M 237.016602 83.198242 L 170.301758 41.883789 " transform="matrix(1.333333,0,0,1.333333,-30.666667,-25.333333)"/>
<path style="fill:none;stroke-width:0.929626;stroke-linecap:butt;stroke-linejoin:miter;stroke:rgb(0%,0%,0%);stroke-opacity:1;stroke-miterlimit:10;" d="M 167.137695 39.920898 L 170.301758 41.883789 M 169.566406 43.067383 L 167.137695 39.920898 L 171.03418 40.694336 " transform="matrix(1.333333,0,0,1.333333,-30.666667,-25.333333)"/>
<path style="fill:none;stroke-width:0.929626;stroke-linecap:round;stroke-linejoin:round;stroke:rgb(0%,0%,0%);stroke-opacity:1;stroke-miterlimit:10;" d="M 239.996094 79.949219 L 215.084961 46.644531 " transform="matrix(1.333333,0,0,1.333333,-30.666667,-25.333333)"/>
<path style="fill:none;stroke-width:0.929626;stroke-linecap:butt;stroke-linejoin:miter;stroke:rgb(0%,0%,0%);stroke-opacity:1;stroke-miterlimit:10;" d="M 212.858398 43.667969 L 215.084961 46.644531 M 213.97168 47.479492 L 212.858398 43.667969 L 216.204102 45.8125 " transform="matrix(1.333333,0,0,1.333333,-30.666667,-25.333333)"/>
<path style="fill:none;stroke-width:0.929626;stroke-linecap:round;stroke-linejoin:round;stroke:rgb(0%,0%,0%);stroke-opacity:1;stroke-miterlimit:10;" d="M 248.477539 77.666992 L 251.808594 49.290039 " transform="matrix(1.333333,0,0,1.333333,-30.666667,-25.333333)"/>
<path style="fill:none;stroke-width:0.929626;stroke-linecap:butt;stroke-linejoin:miter;stroke:rgb(0%,0%,0%);stroke-opacity:1;stroke-miterlimit:10;" d="M 252.242188 45.598633 L 251.808594 49.290039 M 250.425781 49.128906 L 252.242188 45.598633 L 253.194336 49.454102 " transform="matrix(1.333333,0,0,1.333333,-30.666667,-25.333333)"/>
<path style="fill:none;stroke-width:0.929626;stroke-linecap:round;stroke-linejoin:round;stroke:rgb(0%,0%,0%);stroke-opacity:1;stroke-miterlimit:10;" d="M 278.588867 84.821289 L 171.526367 39.504883 " transform="matrix(1.333333,0,0,1.333333,-30.666667,-25.333333)"/>
<path style="fill:none;stroke-width:0.929626;stroke-linecap:butt;stroke-linejoin:miter;stroke:rgb(0%,0%,0%);stroke-opacity:1;stroke-miterlimit:10;" d="M 168.104492 38.054688 L 171.526367 39.504883 M 170.984375 40.788086 L 168.104492 38.054688 L 172.074219 38.22168 " transform="matrix(1.333333,0,0,1.333333,-30.666667,-25.333333)"/>
<path style="fill:none;stroke-width:0.929626;stroke-linecap:round;stroke-linejoin:round;stroke:rgb(0%,0%,0%);stroke-opacity:1;stroke-miterlimit:10;" d="M 279.652344 82.852539 L 219.125 42.390625 " transform="matrix(1.333333,0,0,1.333333,-30.666667,-25.333333)"/>
<path style="fill:none;stroke-width:0.929626;stroke-linecap:butt;stroke-linejoin:miter;stroke:rgb(0%,0%,0%);stroke-opacity:1;stroke-miterlimit:10;" d="M 216.03418 40.325195 L 219.125 42.390625 M 218.351562 43.547852 L 216.03418 40.325195 L 219.901367 41.230469 " transform="matrix(1.333333,0,0,1.333333,-30.666667,-25.333333)"/>
<path style="fill:none;stroke-width:0.929626;stroke-linecap:round;stroke-linejoin:round;stroke:rgb(0%,0%,0%);stroke-opacity:1;stroke-miterlimit:10;" d="M 283.25 79.37207 L 263.008789 46.793945 " transform="matrix(1.333333,0,0,1.333333,-30.666667,-25.333333)"/>
<path style="fill:none;stroke-width:0.929626;stroke-linecap:butt;stroke-linejoin:miter;stroke:rgb(0%,0%,0%);stroke-opacity:1;stroke-miterlimit:10;" d="M 261.042969 43.635742 L 263.008789 46.793945 M 261.819336 47.532227 L 261.042969 43.635742 L 264.192383 46.058594 " transform="matrix(1.333333,0,0,1.333333,-30.666667,-25.333333)"/>
<path style="fill:none;stroke-width:0.929626;stroke-linecap:round;stroke-linejoin:round;stroke:rgb(0%,0%,0%);stroke-opacity:1;stroke-miterlimit:10;" d="M 129.186523 134.538086 L 123.374023 106.454102 " transform="matrix(1.333333,0,0,1.333333,-30.666667,-25.333333)"/>
<path style="fill:none;stroke-width:0.929626;stroke-linecap:butt;stroke-linejoin:miter;stroke:rgb(0%,0%,0%);stroke-opacity:1;stroke-miterlimit:10;" d="M 122.621094 102.8125 L 123.374023 106.454102 M 122.008789 106.735352 L 122.621094 102.8125 L 124.739258 106.172852 " transform="matrix(1.333333,0,0,1.333333,-30.666667,-25.333333)"/>
<path style="fill:none;stroke-width:0.929626;stroke-linecap:round;stroke-linejoin:round;stroke:rgb(0%,0%,0%);stroke-opacity:1;stroke-miterlimit:10;" d="M 137.231445 135.71875 L 154.000977 104.722656 " transform="matrix(1.333333,0,0,1.333333,-30.666667,-25.333333)"/>
<path style="fill:none;stroke-width:0.929626;stroke-linecap:butt;stroke-linejoin:miter;stroke:rgb(0%,0%,0%);stroke-opacity:1;stroke-miterlimit:10;" d="M 155.770508 101.453125 L 154.000977 104.722656 M 152.773438 104.057617 L 155.770508 101.453125 L 155.225586 105.387695 " transform="matrix(1.333333,0,0,1.333333,-30.666667,-25.333333)"/>
<path style="fill:none;stroke-width:0.929626;stroke-linecap:round;stroke-linejoin:round;stroke:rgb(0%,0%,0%);stroke-opacity:1;stroke-miterlimit:10;" d="M 140.958008 138.882812 L 190.953125 100.09082 " transform="matrix(1.333333,0,0,1.333333,-30.666667,-25.333333)"/>
<path style="fill:none;stroke-width:0.929626;stroke-linecap:butt;stroke-linejoin:miter;stroke:rgb(0%,0%,0%);stroke-opacity:1;stroke-miterlimit:10;" d="M 193.891602 97.811523 L 190.953125 100.09082 M 190.097656 98.989258 L 193.891602 97.811523 L 191.808594 101.192383 " transform="matrix(1.333333,0,0,1.333333,-30.666667,-25.333333)"/>
<path style="fill:none;stroke-width:0.929626;stroke-linecap:round;stroke-linejoin:round;stroke:rgb(0%,0%,0%);stroke-opacity:1;stroke-miterlimit:10;" d="M 142.229492 140.921875 L 231.49707 97.09668 " transform="matrix(1.333333,0,0,1.333333,-30.666667,-25.333333)"/>
<path style="fill:none;stroke-width:0.929626;stroke-linecap:butt;stroke-linejoin:miter;stroke:rgb(0%,0%,0%);stroke-opacity:1;stroke-miterlimit:10;" d="M 234.836914 95.456055 L 231.49707 97.09668 M 230.881836 95.848633 L 234.836914 95.456055 L 232.112305 98.347656 " transform="matrix(1.333333,0,0,1.333333,-30.666667,-25.333333)"/>
<path style="fill:none;stroke-width:0.929626;stroke-linecap:round;stroke-linejoin:round;stroke:rgb(0%,0%,0%);stroke-opacity:1;stroke-miterlimit:10;" d="M 142.745117 142.140625 L 273.157227 95.3125 " transform="matrix(1.333333,0,0,1.333333,-30.666667,-25.333333)"/>
<path style="fill:none;stroke-width:0.929626;stroke-linecap:butt;stroke-linejoin:miter;stroke:rgb(0%,0%,0%);stroke-opacity:1;stroke-miterlimit:10;" d="M 276.655273 94.055664 L 273.157227 95.3125 M 272.682617 94 L 276.655273 94.055664 L 273.628906 96.625 " transform="matrix(1.333333,0,0,1.333333,-30.666667,-25.333333)"/>
<path style="fill:none;stroke-width:0.929626;stroke-linecap:round;stroke-linejoin:round;stroke:rgb(0%,0%,0%);stroke-opacity:1;stroke-miterlimit:10;" d="M 172.071289 138.071289 L 132.567383 101.280273 " transform="matrix(1.333333,0,0,1.333333,-30.666667,-25.333333)"/>
<path style="fill:none;stroke-width:0.929626;stroke-linecap:butt;stroke-linejoin:miter;stroke:rgb(0%,0%,0%);stroke-opacity:1;stroke-miterlimit:10;" d="M 129.842773 98.746094 L 132.567383 101.280273 M 131.618164 102.299805 L 129.842773 98.746094 L 133.516602 100.257812 " transform="matrix(1.333333,0,0,1.333333,-30.666667,-25.333333)"/>
<path style="fill:none;stroke-width:0.929626;stroke-linecap:round;stroke-linejoin:round;stroke:rgb(0%,0%,0%);stroke-opacity:1;stroke-miterlimit:10;" d="M 177.069336 134.875 L 167.647461 105.961914 " transform="matrix(1.333333,0,0,1.333333,-30.666667,-25.333333)"/>
<path style="fill:none;stroke-width:0.929626;stroke-linecap:butt;stroke-linejoin:miter;stroke:rgb(0%,0%,0%);stroke-opacity:1;stroke-miterlimit:10;" d="M 166.496094 102.425781 L 167.647461 105.961914 M 166.323242 106.389648 L 166.496094 102.425781 L 168.977539 105.52832 " transform="matrix(1.333333,0,0,1.333333,-30.666667,-25.333333)"/>
<path style="fill:none;stroke-width:0.929626;stroke-linecap:round;stroke-linejoin:round;stroke:rgb(0%,0%,0%);stroke-opacity:1;stroke-miterlimit:10;" d="M 185.354492 135.226562 L 197.922852 105.449219 " transform="matrix(1.333333,0,0,1.333333,-30.666667,-25.333333)"/>
<path style="fill:none;stroke-width:0.929626;stroke-linecap:butt;stroke-linejoin:miter;stroke:rgb(0%,0%,0%);stroke-opacity:1;stroke-miterlimit:10;" d="M 199.370117 102.024414 L 197.922852 105.449219 M 196.639648 104.907227 L 199.370117 102.024414 L 199.206055 105.991211 " transform="matrix(1.333333,0,0,1.333333,-30.666667,-25.333333)"/>
<path style="fill:none;stroke-width:0.929626;stroke-linecap:round;stroke-linejoin:round;stroke:rgb(0%,0%,0%);stroke-opacity:1;stroke-miterlimit:10;" d="M 189.754883 138.446289 L 233.887695 100.726562 " transform="matrix(1.333333,0,0,1.333333,-30.666667,-25.333333)"/>
<path style="fill:none;stroke-width:0.929626;stroke-linecap:butt;stroke-linejoin:miter;stroke:rgb(0%,0%,0%);stroke-opacity:1;stroke-miterlimit:10;" d="M 236.714844 98.3125 L 233.887695 100.726562 M 232.979492 99.668945 L 236.714844 98.3125 L 234.792969 101.790039 " transform="matrix(1.333333,0,0,1.333333,-30.666667,-25.333333)"/>
<path style="fill:none;stroke-width:0.929626;stroke-linecap:round;stroke-linejoin:round;stroke:rgb(0%,0%,0%);stroke-opacity:1;stroke-miterlimit:10;" d="M 191.257812 140.666992 L 274.100586 97.47168 " transform="matrix(1.333333,0,0,1.333333,-30.666667,-25.333333)"/>
<path style="fill:none;stroke-width:0.929626;stroke-linecap:butt;stroke-linejoin:miter;stroke:rgb(0%,0%,0%);stroke-opacity:1;stroke-miterlimit:10;" d="M 277.399414 95.754883 L 274.100586 97.47168 M 273.456055 96.238281 L 277.399414 95.754883 L 274.745117 98.710938 " transform="matrix(1.333333,0,0,1.333333,-30.666667,-25.333333)"/>
<path style="fill:none;stroke-width:0.929626;stroke-linecap:round;stroke-linejoin:round;stroke:rgb(0%,0%,0%);stroke-opacity:1;stroke-miterlimit:10;" d="M 219.359375 140.713867 L 135.297852 97.398438 " transform="matrix(1.333333,0,0,1.333333,-30.666667,-25.333333)"/>
<path style="fill:none;stroke-width:0.929626;stroke-linecap:butt;stroke-linejoin:miter;stroke:rgb(0%,0%,0%);stroke-opacity:1;stroke-miterlimit:10;" d="M 131.993164 95.696289 L 135.297852 97.398438 M 134.65918 98.640625 L 131.993164 95.696289 L 135.936523 96.15918 " transform="matrix(1.333333,0,0,1.333333,-30.666667,-25.333333)"/>
<path style="fill:none;stroke-width:0.929626;stroke-linecap:round;stroke-linejoin:round;stroke:rgb(0%,0%,0%);stroke-opacity:1;stroke-miterlimit:10;" d="M 220.8125 138.53125 L 175.578125 100.600586 " transform="matrix(1.333333,0,0,1.333333,-30.666667,-25.333333)"/>
<path style="fill:none;stroke-width:0.929626;stroke-linecap:butt;stroke-linejoin:miter;stroke:rgb(0%,0%,0%);stroke-opacity:1;stroke-miterlimit:10;" d="M 172.730469 98.21582 L 175.578125 100.600586 M 174.68457 101.672852 L 172.730469 98.21582 L 176.477539 99.53418 " transform="matrix(1.333333,0,0,1.333333,-30.666667,-25.333333)"/>
<path style="fill:none;stroke-width:0.929626;stroke-linecap:round;stroke-linejoin:round;stroke:rgb(0%,0%,0%);stroke-opacity:1;stroke-miterlimit:10;" d="M 225.081055 135.311523 L 211.742188 105.317383 " transform="matrix(1.333333,0,0,1.333333,-30.666667,-25.333333)"/>
<path style="fill:none;stroke-width:0.929626;stroke-linecap:butt;stroke-linejoin:miter;stroke:rgb(0%,0%,0%);stroke-opacity:1;stroke-miterlimit:10;" d="M 210.230469 101.918945 L 211.742188 105.317383 M 210.467773 105.882812 L 210.230469 101.918945 L 213.016602 104.749023 " transform="matrix(1.333333,0,0,1.333333,-30.666667,-25.333333)"/>
<path style="fill:none;stroke-width:0.929626;stroke-linecap:round;stroke-linejoin:round;stroke:rgb(0%,0%,0%);stroke-opacity:1;stroke-miterlimit:10;" d="M 233.339844 134.801758 L 242.049805 106.067383 " transform="matrix(1.333333,0,0,1.333333,-30.666667,-25.333333)"/>
<path style="fill:none;stroke-width:0.929626;stroke-linecap:butt;stroke-linejoin:miter;stroke:rgb(0%,0%,0%);stroke-opacity:1;stroke-miterlimit:10;" d="M 243.133789 102.507812 L 242.049805 106.067383 M 240.719727 105.663086 L 243.133789 102.507812 L 243.385742 106.47168 " transform="matrix(1.333333,0,0,1.333333,-30.666667,-25.333333)"/>
<path style="fill:none;stroke-width:0.929626;stroke-linecap:round;stroke-linejoin:round;stroke:rgb(0%,0%,0%);stroke-opacity:1;stroke-miterlimit:10;" d="M 238.484375 137.977539 L 276.921875 101.415039 " transform="matrix(1.333333,0,0,1.333333,-30.666667,-25.333333)"/>
<path style="fill:none;stroke-width:0.929626;stroke-linecap:butt;stroke-linejoin:miter;stroke:rgb(0%,0%,0%);stroke-opacity:1;stroke-miterlimit:10;" d="M 279.617188 98.851562 L 276.921875 101.415039 M 275.960938 100.401367 L 279.617188 98.851562 L 277.882812 102.425781 " transform="matrix(1.333333,0,0,1.333333,-30.666667,-25.333333)"/>
<path style="fill:none;stroke-width:0.929626;stroke-linecap:round;stroke-linejoin:round;stroke:rgb(0%,0%,0%);stroke-opacity:1;stroke-miterlimit:10;" d="M 267.866211 141.516602 L 136.241211 95.207031 " transform="matrix(1.333333,0,0,1.333333,-30.666667,-25.333333)"/>
<path style="fill:none;stroke-width:0.929626;stroke-linecap:butt;stroke-linejoin:miter;stroke:rgb(0%,0%,0%);stroke-opacity:1;stroke-miterlimit:10;" d="M 132.734375 93.973633 L 136.241211 95.207031 M 135.78125 96.522461 L 132.734375 93.973633 L 136.707031 93.891602 " transform="matrix(1.333333,0,0,1.333333,-30.666667,-25.333333)"/>
<path style="fill:none;stroke-width:0.929626;stroke-linecap:round;stroke-linejoin:round;stroke:rgb(0%,0%,0%);stroke-opacity:1;stroke-miterlimit:10;" d="M 268.358398 140.324219 L 177.933594 96.953125 " transform="matrix(1.333333,0,0,1.333333,-30.666667,-25.333333)"/>
<path style="fill:none;stroke-width:0.929626;stroke-linecap:butt;stroke-linejoin:miter;stroke:rgb(0%,0%,0%);stroke-opacity:1;stroke-miterlimit:10;" d="M 174.582031 95.347656 L 177.933594 96.953125 M 177.333008 98.209961 L 174.582031 95.347656 L 178.540039 95.696289 " transform="matrix(1.333333,0,0,1.333333,-30.666667,-25.333333)"/>
<path style="fill:none;stroke-width:0.929626;stroke-linecap:round;stroke-linejoin:round;stroke:rgb(0%,0%,0%);stroke-opacity:1;stroke-miterlimit:10;" d="M 269.583008 138.320312 L 218.55957 99.891602 " transform="matrix(1.333333,0,0,1.333333,-30.666667,-25.333333)"/>
<path style="fill:none;stroke-width:0.929626;stroke-linecap:butt;stroke-linejoin:miter;stroke:rgb(0%,0%,0%);stroke-opacity:1;stroke-miterlimit:10;" d="M 215.588867 97.65625 L 218.55957 99.891602 M 217.72168 101.007812 L 215.588867 97.65625 L 219.397461 98.77832 " transform="matrix(1.333333,0,0,1.333333,-30.666667,-25.333333)"/>
<path style="fill:none;stroke-width:0.929626;stroke-linecap:round;stroke-linejoin:round;stroke:rgb(0%,0%,0%);stroke-opacity:1;stroke-miterlimit:10;" d="M 273.174805 135.15332 L 255.708008 104.532227 " transform="matrix(1.333333,0,0,1.333333,-30.666667,-25.333333)"/>
<path style="fill:none;stroke-width:0.929626;stroke-linecap:butt;stroke-linejoin:miter;stroke:rgb(0%,0%,0%);stroke-opacity:1;stroke-miterlimit:10;" d="M 253.862305 101.300781 L 255.708008 104.532227 M 254.495117 105.223633 L 253.862305 101.300781 L 256.917969 103.84082 " transform="matrix(1.333333,0,0,1.333333,-30.666667,-25.333333)"/>
<path style="fill:none;stroke-width:0.929626;stroke-linecap:round;stroke-linejoin:round;stroke:rgb(0%,0%,0%);stroke-opacity:1;stroke-miterlimit:10;" d="M 281.225586 133.796875 L 286.320312 106.518555 " transform="matrix(1.333333,0,0,1.333333,-30.666667,-25.333333)"/>
<path style="fill:none;stroke-width:0.929626;stroke-linecap:butt;stroke-linejoin:miter;stroke:rgb(0%,0%,0%);stroke-opacity:1;stroke-miterlimit:10;" d="M 287.00293 102.862305 L 286.320312 106.518555 M 284.949219 106.260742 L 287.00293 102.862305 L 287.691406 106.773438 " transform="matrix(1.333333,0,0,1.333333,-30.666667,-25.333333)"/>
</g>
</svg>
