<?xml version="1.0" encoding="UTF-8"?>
<svg xmlns="http://www.w3.org/2000/svg" xmlns:xlink="http://www.w3.org/1999/xlink" width="380pt" height="43pt" viewBox="0 0 380 43" version="1.1">
<g id="surface1">
<path style="fill-rule:nonzero;fill:rgb(69.803922%,85.098039%,100%);fill-opacity:1;stroke-width:1;stroke-linecap:round;stroke-linejoin:round;stroke:rgb(0%,0%,0%);stroke-opacity:1;stroke-miterlimit:10;" d="M 123.75 59 L 175.15 59 L 175.15 91.2 L 123.75 91.2 Z M 123.75 59 " transform="matrix(1.25,0,0,1.25,-77.5,-72.5)"/>
<path style=" stroke:none;fill-rule:nonzero;fill:rgb(0%,0%,0%);fill-opacity:1;" d="M 89.261719 24.5 L 89.261719 16.453125 L 95.082031 16.453125 L 95.082031 17.390625 L 90.316406 17.390625 L 90.316406 19.871094 L 94.769531 19.871094 L 94.769531 20.808594 L 90.316406 20.808594 L 90.316406 23.542969 L 95.257812 23.542969 L 95.257812 24.5 Z M 89.261719 24.5 "/>
<path style=" stroke:none;fill-rule:nonzero;fill:rgb(0%,0%,0%);fill-opacity:1;" d="M 96.609375 24.5 L 96.609375 18.660156 L 97.507812 18.660156 L 97.507812 19.5 C 97.921875 18.867188 98.542969 18.542969 99.363281 18.542969 C 99.714844 18.542969 100.03125 18.609375 100.320312 18.738281 C 100.617188 18.855469 100.835938 19.023438 100.984375 19.226562 C 101.125 19.421875 101.226562 19.664062 101.296875 19.949219 C 101.335938 20.132812 101.355469 20.453125 101.355469 20.90625 L 101.355469 24.5 L 100.359375 24.5 L 100.359375 20.945312 C 100.359375 20.546875 100.320312 20.242188 100.242188 20.046875 C 100.164062 19.851562 100.027344 19.695312 99.832031 19.578125 C 99.636719 19.453125 99.40625 19.382812 99.148438 19.382812 C 98.726562 19.382812 98.367188 19.519531 98.054688 19.792969 C 97.75 20.054688 97.605469 20.5625 97.605469 21.316406 L 97.605469 24.5 Z M 96.609375 24.5 "/>
<path style=" stroke:none;fill-rule:nonzero;fill:rgb(0%,0%,0%);fill-opacity:1;" d="M 106.671875 22.371094 L 107.648438 22.488281 C 107.542969 23.167969 107.269531 23.695312 106.828125 24.070312 C 106.386719 24.453125 105.84375 24.636719 105.207031 24.636719 C 104.414062 24.636719 103.773438 24.378906 103.292969 23.855469 C 102.8125 23.335938 102.570312 22.585938 102.570312 21.609375 C 102.570312 20.976562 102.675781 20.417969 102.882812 19.949219 C 103.089844 19.480469 103.402344 19.128906 103.820312 18.894531 C 104.25 18.660156 104.71875 18.542969 105.226562 18.542969 C 105.851562 18.542969 106.367188 18.710938 106.769531 19.03125 C 107.171875 19.34375 107.433594 19.792969 107.550781 20.378906 L 106.59375 20.535156 C 106.503906 20.144531 106.339844 19.851562 106.105469 19.65625 C 105.871094 19.453125 105.589844 19.34375 105.265625 19.34375 C 104.757812 19.34375 104.347656 19.53125 104.035156 19.890625 C 103.734375 20.242188 103.585938 20.804688 103.585938 21.570312 C 103.585938 22.367188 103.734375 22.9375 104.035156 23.289062 C 104.335938 23.640625 104.726562 23.816406 105.207031 23.816406 C 105.597656 23.816406 105.921875 23.699219 106.183594 23.464844 C 106.445312 23.230469 106.605469 22.867188 106.671875 22.371094 Z M 106.671875 22.371094 "/>
<path style=" stroke:none;fill-rule:nonzero;fill:rgb(0%,0%,0%);fill-opacity:1;" d="M 108.117188 21.589844 C 108.117188 20.511719 108.417969 19.710938 109.015625 19.1875 C 109.523438 18.757812 110.136719 18.542969 110.851562 18.542969 C 111.660156 18.542969 112.316406 18.804688 112.824219 19.324219 C 113.332031 19.847656 113.585938 20.570312 113.585938 21.492188 C 113.585938 22.25 113.46875 22.839844 113.234375 23.269531 C 113.011719 23.699219 112.6875 24.039062 112.257812 24.285156 C 111.828125 24.519531 111.359375 24.636719 110.851562 24.636719 C 110.03125 24.636719 109.367188 24.378906 108.859375 23.855469 C 108.363281 23.324219 108.117188 22.566406 108.117188 21.589844 Z M 109.132812 21.589844 C 109.132812 22.332031 109.296875 22.894531 109.621094 23.269531 C 109.945312 23.636719 110.355469 23.816406 110.851562 23.816406 C 111.347656 23.816406 111.757812 23.636719 112.082031 23.269531 C 112.40625 22.894531 112.570312 22.320312 112.570312 21.550781 C 112.570312 20.835938 112.40625 20.289062 112.082031 19.910156 C 111.757812 19.535156 111.347656 19.34375 110.851562 19.34375 C 110.355469 19.34375 109.945312 19.535156 109.621094 19.910156 C 109.296875 20.277344 109.132812 20.835938 109.132812 21.589844 Z M 109.132812 21.589844 "/>
<path style=" stroke:none;fill-rule:nonzero;fill:rgb(0%,0%,0%);fill-opacity:1;" d="M 118.535156 24.5 L 118.535156 23.757812 C 118.15625 24.34375 117.609375 24.636719 116.894531 24.636719 C 116.4375 24.636719 116.015625 24.503906 115.625 24.246094 C 115.234375 23.988281 114.925781 23.632812 114.707031 23.171875 C 114.496094 22.71875 114.394531 22.191406 114.394531 21.589844 C 114.394531 21.003906 114.492188 20.476562 114.6875 20.007812 C 114.882812 19.53125 115.167969 19.164062 115.546875 18.914062 C 115.9375 18.671875 116.371094 18.542969 116.855469 18.542969 C 117.207031 18.542969 117.519531 18.617188 117.792969 18.757812 C 118.066406 18.90625 118.285156 19.101562 118.457031 19.34375 L 118.457031 16.453125 L 119.453125 16.453125 L 119.453125 24.5 Z M 115.410156 21.589844 C 115.410156 22.332031 115.566406 22.894531 115.878906 23.269531 C 116.191406 23.636719 116.5625 23.816406 116.992188 23.816406 C 117.421875 23.816406 117.785156 23.640625 118.085938 23.289062 C 118.398438 22.9375 118.554688 22.398438 118.554688 21.667969 C 118.554688 20.875 118.398438 20.289062 118.085938 19.910156 C 117.773438 19.535156 117.394531 19.34375 116.953125 19.34375 C 116.507812 19.34375 116.136719 19.53125 115.839844 19.890625 C 115.550781 20.257812 115.410156 20.824219 115.410156 21.589844 Z M 115.410156 21.589844 "/>
<path style=" stroke:none;fill-rule:nonzero;fill:rgb(0%,0%,0%);fill-opacity:1;" d="M 124.988281 22.625 L 126.023438 22.742188 C 125.851562 23.34375 125.546875 23.8125 125.105469 24.148438 C 124.675781 24.476562 124.121094 24.636719 123.445312 24.636719 C 122.597656 24.636719 121.921875 24.378906 121.414062 23.855469 C 120.917969 23.324219 120.671875 22.582031 120.671875 21.628906 C 120.671875 20.652344 120.925781 19.898438 121.433594 19.363281 C 121.941406 18.816406 122.597656 18.542969 123.40625 18.542969 C 124.1875 18.542969 124.816406 18.8125 125.300781 19.34375 C 125.792969 19.867188 126.042969 20.609375 126.042969 21.570312 C 126.042969 21.640625 126.042969 21.726562 126.042969 21.84375 L 121.6875 21.84375 C 121.726562 22.484375 121.90625 22.972656 122.234375 23.308594 C 122.558594 23.648438 122.96875 23.816406 123.464844 23.816406 C 123.828125 23.816406 124.132812 23.726562 124.382812 23.542969 C 124.640625 23.347656 124.84375 23.046875 124.988281 22.625 Z M 121.746094 21.023438 L 125.007812 21.023438 C 124.96875 20.53125 124.84375 20.160156 124.636719 19.910156 C 124.324219 19.535156 123.914062 19.34375 123.40625 19.34375 C 122.949219 19.34375 122.566406 19.5 122.253906 19.8125 C 121.953125 20.117188 121.785156 20.515625 121.746094 21.023438 Z M 121.746094 21.023438 "/>
<path style=" stroke:none;fill-rule:nonzero;fill:rgb(0%,0%,0%);fill-opacity:1;" d="M 127.242188 24.5 L 127.242188 18.660156 L 128.140625 18.660156 L 128.140625 19.558594 C 128.359375 19.144531 128.570312 18.871094 128.765625 18.738281 C 128.960938 18.609375 129.175781 18.542969 129.410156 18.542969 C 129.730469 18.542969 130.074219 18.648438 130.425781 18.855469 L 130.074219 19.773438 C 129.839844 19.632812 129.59375 19.558594 129.351562 19.558594 C 129.140625 19.558594 128.945312 19.625 128.765625 19.753906 C 128.59375 19.886719 128.472656 20.066406 128.394531 20.300781 C 128.285156 20.652344 128.238281 21.039062 128.238281 21.453125 L 128.238281 24.5 Z M 127.242188 24.5 "/>
<path style="fill-rule:nonzero;fill:rgb(69.803922%,85.098039%,100%);fill-opacity:1;stroke-width:1;stroke-linecap:round;stroke-linejoin:round;stroke:rgb(0%,0%,0%);stroke-opacity:1;stroke-miterlimit:10;" d="M 253.05 59 L 304.45 59 L 304.45 91.2 L 253.05 91.2 Z M 253.05 59 " transform="matrix(1.25,0,0,1.25,-77.5,-72.5)"/>
<path style=" stroke:none;fill-rule:nonzero;fill:rgb(0%,0%,0%);fill-opacity:1;" d="M 250.535156 24.5 L 250.535156 16.453125 L 253.308594 16.453125 C 253.945312 16.453125 254.425781 16.492188 254.753906 16.570312 C 255.207031 16.679688 255.597656 16.863281 255.925781 17.136719 C 256.355469 17.503906 256.671875 17.96875 256.882812 18.523438 C 257.089844 19.070312 257.195312 19.710938 257.195312 20.4375 C 257.195312 21.054688 257.121094 21.589844 256.980469 22.058594 C 256.835938 22.527344 256.652344 22.917969 256.433594 23.230469 C 256.210938 23.542969 255.964844 23.792969 255.691406 23.972656 C 255.429688 24.144531 255.109375 24.273438 254.734375 24.363281 C 254.367188 24.457031 253.9375 24.5 253.445312 24.5 Z M 251.609375 23.542969 L 253.328125 23.542969 C 253.859375 23.542969 254.277344 23.5 254.578125 23.40625 C 254.875 23.304688 255.117188 23.164062 255.300781 22.976562 C 255.546875 22.734375 255.742188 22.390625 255.886719 21.960938 C 256.027344 21.53125 256.101562 21.019531 256.101562 20.417969 C 256.101562 19.574219 255.964844 18.929688 255.691406 18.484375 C 255.417969 18.03125 255.078125 17.722656 254.675781 17.566406 C 254.386719 17.449219 253.933594 17.390625 253.308594 17.390625 L 251.609375 17.390625 Z M 251.609375 23.542969 "/>
<path style=" stroke:none;fill-rule:nonzero;fill:rgb(0%,0%,0%);fill-opacity:1;" d="M 262.527344 22.625 L 263.5625 22.742188 C 263.390625 23.34375 263.085938 23.8125 262.644531 24.148438 C 262.214844 24.476562 261.660156 24.636719 260.984375 24.636719 C 260.136719 24.636719 259.460938 24.378906 258.953125 23.855469 C 258.457031 23.324219 258.210938 22.582031 258.210938 21.628906 C 258.210938 20.652344 258.464844 19.898438 258.972656 19.363281 C 259.480469 18.816406 260.136719 18.542969 260.945312 18.542969 C 261.726562 18.542969 262.355469 18.8125 262.839844 19.34375 C 263.332031 19.867188 263.582031 20.609375 263.582031 21.570312 C 263.582031 21.640625 263.582031 21.726562 263.582031 21.84375 L 259.226562 21.84375 C 259.265625 22.484375 259.445312 22.972656 259.773438 23.308594 C 260.097656 23.648438 260.507812 23.816406 261.003906 23.816406 C 261.367188 23.816406 261.671875 23.726562 261.921875 23.542969 C 262.179688 23.347656 262.382812 23.046875 262.527344 22.625 Z M 259.285156 21.023438 L 262.546875 21.023438 C 262.507812 20.53125 262.382812 20.160156 262.175781 19.910156 C 261.863281 19.535156 261.453125 19.34375 260.945312 19.34375 C 260.488281 19.34375 260.105469 19.5 259.792969 19.8125 C 259.492188 20.117188 259.324219 20.515625 259.285156 21.023438 Z M 259.285156 21.023438 "/>
<path style=" stroke:none;fill-rule:nonzero;fill:rgb(0%,0%,0%);fill-opacity:1;" d="M 268.609375 22.371094 L 269.585938 22.488281 C 269.476562 23.167969 269.203125 23.695312 268.765625 24.070312 C 268.320312 24.453125 267.777344 24.636719 267.144531 24.636719 C 266.347656 24.636719 265.707031 24.378906 265.230469 23.855469 C 264.746094 23.335938 264.507812 22.585938 264.507812 21.609375 C 264.507812 20.976562 264.609375 20.417969 264.820312 19.949219 C 265.023438 19.480469 265.335938 19.128906 265.757812 18.894531 C 266.1875 18.660156 266.65625 18.542969 267.164062 18.542969 C 267.789062 18.542969 268.300781 18.710938 268.707031 19.03125 C 269.105469 19.34375 269.371094 19.792969 269.488281 20.378906 L 268.53125 20.535156 C 268.4375 20.144531 268.277344 19.851562 268.042969 19.65625 C 267.808594 19.453125 267.523438 19.34375 267.203125 19.34375 C 266.695312 19.34375 266.285156 19.53125 265.972656 19.890625 C 265.667969 20.242188 265.523438 20.804688 265.523438 21.570312 C 265.523438 22.367188 265.667969 22.9375 265.972656 23.289062 C 266.269531 23.640625 266.660156 23.816406 267.144531 23.816406 C 267.535156 23.816406 267.855469 23.699219 268.121094 23.464844 C 268.378906 23.230469 268.539062 22.867188 268.609375 22.371094 Z M 268.609375 22.371094 "/>
<path style=" stroke:none;fill-rule:nonzero;fill:rgb(0%,0%,0%);fill-opacity:1;" d="M 270.054688 21.589844 C 270.054688 20.511719 270.351562 19.710938 270.953125 19.1875 C 271.460938 18.757812 272.070312 18.542969 272.789062 18.542969 C 273.59375 18.542969 274.253906 18.804688 274.761719 19.324219 C 275.269531 19.847656 275.523438 20.570312 275.523438 21.492188 C 275.523438 22.25 275.40625 22.839844 275.171875 23.269531 C 274.945312 23.699219 274.625 24.039062 274.195312 24.285156 C 273.765625 24.519531 273.296875 24.636719 272.789062 24.636719 C 271.96875 24.636719 271.304688 24.378906 270.796875 23.855469 C 270.296875 23.324219 270.054688 22.566406 270.054688 21.589844 Z M 271.070312 21.589844 C 271.070312 22.332031 271.230469 22.894531 271.558594 23.269531 C 271.878906 23.636719 272.289062 23.816406 272.789062 23.816406 C 273.28125 23.816406 273.691406 23.636719 274.019531 23.269531 C 274.339844 22.894531 274.507812 22.320312 274.507812 21.550781 C 274.507812 20.835938 274.339844 20.289062 274.019531 19.910156 C 273.691406 19.535156 273.28125 19.34375 272.789062 19.34375 C 272.289062 19.34375 271.878906 19.535156 271.558594 19.910156 C 271.230469 20.277344 271.070312 20.835938 271.070312 21.589844 Z M 271.070312 21.589844 "/>
<path style=" stroke:none;fill-rule:nonzero;fill:rgb(0%,0%,0%);fill-opacity:1;" d="M 280.472656 24.5 L 280.472656 23.757812 C 280.089844 24.34375 279.542969 24.636719 278.832031 24.636719 C 278.371094 24.636719 277.953125 24.503906 277.5625 24.246094 C 277.171875 23.988281 276.863281 23.632812 276.644531 23.171875 C 276.433594 22.71875 276.332031 22.191406 276.332031 21.589844 C 276.332031 21.003906 276.429688 20.476562 276.625 20.007812 C 276.820312 19.53125 277.101562 19.164062 277.484375 18.914062 C 277.875 18.671875 278.308594 18.542969 278.792969 18.542969 C 279.144531 18.542969 279.457031 18.617188 279.730469 18.757812 C 280.003906 18.90625 280.222656 19.101562 280.394531 19.34375 L 280.394531 16.453125 L 281.390625 16.453125 L 281.390625 24.5 Z M 277.347656 21.589844 C 277.347656 22.332031 277.503906 22.894531 277.816406 23.269531 C 278.128906 23.636719 278.5 23.816406 278.929688 23.816406 C 279.359375 23.816406 279.71875 23.640625 280.023438 23.289062 C 280.335938 22.9375 280.492188 22.398438 280.492188 21.667969 C 280.492188 20.875 280.335938 20.289062 280.023438 19.910156 C 279.710938 19.535156 279.328125 19.34375 278.890625 19.34375 C 278.445312 19.34375 278.074219 19.53125 277.777344 19.890625 C 277.488281 20.257812 277.347656 20.824219 277.347656 21.589844 Z M 277.347656 21.589844 "/>
<path style=" stroke:none;fill-rule:nonzero;fill:rgb(0%,0%,0%);fill-opacity:1;" d="M 286.925781 22.625 L 287.960938 22.742188 C 287.789062 23.34375 287.480469 23.8125 287.042969 24.148438 C 286.613281 24.476562 286.054688 24.636719 285.382812 24.636719 C 284.53125 24.636719 283.859375 24.378906 283.351562 23.855469 C 282.851562 23.324219 282.609375 22.582031 282.609375 21.628906 C 282.609375 20.652344 282.863281 19.898438 283.371094 19.363281 C 283.878906 18.816406 284.53125 18.542969 285.34375 18.542969 C 286.125 18.542969 286.753906 18.8125 287.238281 19.34375 C 287.730469 19.867188 287.980469 20.609375 287.980469 21.570312 C 287.980469 21.640625 287.980469 21.726562 287.980469 21.84375 L 283.625 21.84375 C 283.664062 22.484375 283.84375 22.972656 284.171875 23.308594 C 284.492188 23.648438 284.902344 23.816406 285.402344 23.816406 C 285.761719 23.816406 286.070312 23.726562 286.320312 23.542969 C 286.578125 23.347656 286.777344 23.046875 286.925781 22.625 Z M 283.683594 21.023438 L 286.945312 21.023438 C 286.90625 20.53125 286.777344 20.160156 286.574219 19.910156 C 286.261719 19.535156 285.851562 19.34375 285.34375 19.34375 C 284.882812 19.34375 284.503906 19.5 284.191406 19.8125 C 283.886719 20.117188 283.722656 20.515625 283.683594 21.023438 Z M 283.683594 21.023438 "/>
<path style=" stroke:none;fill-rule:nonzero;fill:rgb(0%,0%,0%);fill-opacity:1;" d="M 289.175781 24.5 L 289.175781 18.660156 L 290.074219 18.660156 L 290.074219 19.558594 C 290.296875 19.144531 290.503906 18.871094 290.699219 18.738281 C 290.894531 18.609375 291.109375 18.542969 291.34375 18.542969 C 291.667969 18.542969 292.007812 18.648438 292.359375 18.855469 L 292.007812 19.773438 C 291.773438 19.632812 291.53125 19.558594 291.285156 19.558594 C 291.078125 19.558594 290.882812 19.625 290.699219 19.753906 C 290.53125 19.886719 290.40625 20.066406 290.328125 20.300781 C 290.222656 20.652344 290.171875 21.039062 290.171875 21.453125 L 290.171875 24.5 Z M 289.175781 24.5 "/>
<path style="fill:none;stroke-width:1;stroke-linecap:round;stroke-linejoin:round;stroke:rgb(0%,0%,0%);stroke-opacity:1;stroke-miterlimit:10;" d="M 175.15 75.1 L 186.8 75.1 " transform="matrix(1.25,0,0,1.25,-77.5,-72.5)"/>
<path style="fill:none;stroke-width:1;stroke-linecap:butt;stroke-linejoin:miter;stroke:rgb(0%,0%,0%);stroke-opacity:1;stroke-miterlimit:10;" d="M 190.8 75.1 L 186.8 75.1 M 186.8 73.6 L 190.8 75.1 L 186.8 76.6 " transform="matrix(1.25,0,0,1.25,-77.5,-72.5)"/>
<path style="fill:none;stroke-width:1;stroke-linecap:round;stroke-linejoin:round;stroke:rgb(0%,0%,0%);stroke-opacity:1;stroke-miterlimit:10;" d="M 106.2 75.1 L 117.85 75.1 " transform="matrix(1.25,0,0,1.25,-77.5,-72.5)"/>
<path style="fill:none;stroke-width:1;stroke-linecap:butt;stroke-linejoin:miter;stroke:rgb(0%,0%,0%);stroke-opacity:1;stroke-miterlimit:10;" d="M 121.85 75.1 L 117.85 75.1 M 117.85 73.6 L 121.85 75.1 L 117.85 76.6 " transform="matrix(1.25,0,0,1.25,-77.5,-72.5)"/>
<path style="fill:none;stroke-width:1;stroke-linecap:round;stroke-linejoin:round;stroke:rgb(0%,0%,0%);stroke-opacity:1;stroke-miterlimit:10;" d="M 304.45 75.1 L 316.1 75.1 " transform="matrix(1.25,0,0,1.25,-77.5,-72.5)"/>
<path style="fill:none;stroke-width:1;stroke-linecap:butt;stroke-linejoin:miter;stroke:rgb(0%,0%,0%);stroke-opacity:1;stroke-miterlimit:10;" d="M 320.1 75.1 L 316.1 75.1 M 316.1 73.6 L 320.1 75.1 L 316.1 76.6 " transform="matrix(1.25,0,0,1.25,-77.5,-72.5)"/>
<path style="fill-rule:nonzero;fill:rgb(100%,100%,100%);fill-opacity:1;stroke-width:1;stroke-linecap:round;stroke-linejoin:round;stroke:rgb(0%,0%,0%);stroke-opacity:1;stroke-miterlimit:10;" d="M 63.4 64.6 L 106.2 64.6 L 106.2 85.6 L 63.4 85.6 Z M 63.4 64.6 " transform="matrix(1.25,0,0,1.25,-77.5,-72.5)"/>
<path style=" stroke:none;fill-rule:nonzero;fill:rgb(0%,0%,0%);fill-opacity:1;" d="M 17.042969 24.5 L 17.042969 16.453125 L 18.097656 16.453125 L 18.097656 24.5 Z M 17.042969 24.5 "/>
<path style=" stroke:none;fill-rule:nonzero;fill:rgb(0%,0%,0%);fill-opacity:1;" d="M 19.855469 24.5 L 19.855469 18.660156 L 20.753906 18.660156 L 20.753906 19.5 C 21.171875 18.867188 21.789062 18.542969 22.609375 18.542969 C 22.960938 18.542969 23.28125 18.609375 23.566406 18.738281 C 23.867188 18.855469 24.085938 19.023438 24.230469 19.226562 C 24.375 19.421875 24.476562 19.664062 24.542969 19.949219 C 24.582031 20.132812 24.601562 20.453125 24.601562 20.90625 L 24.601562 24.5 L 23.605469 24.5 L 23.605469 20.945312 C 23.605469 20.546875 23.566406 20.242188 23.488281 20.046875 C 23.410156 19.851562 23.273438 19.695312 23.078125 19.578125 C 22.882812 19.453125 22.65625 19.382812 22.394531 19.382812 C 21.976562 19.382812 21.613281 19.519531 21.300781 19.792969 C 21 20.054688 20.851562 20.5625 20.851562 21.316406 L 20.851562 24.5 Z M 19.855469 24.5 "/>
<path style=" stroke:none;fill-rule:nonzero;fill:rgb(0%,0%,0%);fill-opacity:1;" d="M 26.109375 26.726562 L 26.109375 18.660156 L 27.007812 18.660156 L 27.007812 19.421875 C 27.214844 19.125 27.449219 18.90625 27.710938 18.757812 C 27.984375 18.617188 28.316406 18.542969 28.707031 18.542969 C 29.199219 18.542969 29.636719 18.675781 30.015625 18.933594 C 30.390625 19.183594 30.679688 19.539062 30.875 20.007812 C 31.070312 20.476562 31.167969 20.984375 31.167969 21.53125 C 31.167969 22.132812 31.054688 22.671875 30.835938 23.152344 C 30.625 23.636719 30.320312 24.007812 29.917969 24.265625 C 29.511719 24.507812 29.082031 24.636719 28.628906 24.636719 C 28.300781 24.636719 28.007812 24.5625 27.75 24.421875 C 27.488281 24.28125 27.273438 24.105469 27.105469 23.894531 L 27.105469 26.726562 Z M 27.007812 21.609375 C 27.007812 22.367188 27.15625 22.929688 27.457031 23.289062 C 27.769531 23.640625 28.140625 23.816406 28.570312 23.816406 C 29 23.816406 29.371094 23.636719 29.683594 23.269531 C 30.007812 22.894531 30.171875 22.3125 30.171875 21.53125 C 30.171875 20.789062 30.015625 20.238281 29.703125 19.871094 C 29.402344 19.496094 29.039062 19.304688 28.609375 19.304688 C 28.191406 19.304688 27.820312 19.507812 27.496094 19.910156 C 27.167969 20.300781 27.007812 20.867188 27.007812 21.609375 Z M 27.007812 21.609375 "/>
<path style=" stroke:none;fill-rule:nonzero;fill:rgb(0%,0%,0%);fill-opacity:1;" d="M 36.191406 24.5 L 36.191406 23.640625 C 35.730469 24.304688 35.117188 24.636719 34.335938 24.636719 C 33.992188 24.636719 33.675781 24.570312 33.378906 24.441406 C 33.074219 24.300781 32.851562 24.128906 32.695312 23.933594 C 32.546875 23.738281 32.449219 23.5 32.402344 23.210938 C 32.363281 23.015625 32.34375 22.703125 32.34375 22.273438 L 32.34375 18.660156 L 33.320312 18.660156 L 33.320312 21.902344 C 33.320312 22.425781 33.34375 22.773438 33.398438 22.9375 C 33.445312 23.203125 33.574219 23.40625 33.769531 23.5625 C 33.972656 23.710938 34.226562 23.777344 34.53125 23.777344 C 34.828125 23.777344 35.105469 23.710938 35.371094 23.5625 C 35.628906 23.40625 35.808594 23.203125 35.917969 22.9375 C 36.019531 22.679688 36.074219 22.292969 36.074219 21.785156 L 36.074219 18.660156 L 37.070312 18.660156 L 37.070312 24.5 Z M 36.191406 24.5 "/>
<path style=" stroke:none;fill-rule:nonzero;fill:rgb(0%,0%,0%);fill-opacity:1;" d="M 40.78125 23.621094 L 40.917969 24.480469 C 40.632812 24.542969 40.382812 24.578125 40.175781 24.578125 C 39.8125 24.578125 39.53125 24.519531 39.335938 24.402344 C 39.140625 24.285156 38.996094 24.140625 38.90625 23.953125 C 38.828125 23.773438 38.789062 23.386719 38.789062 22.800781 L 38.789062 19.441406 L 38.066406 19.441406 L 38.066406 18.660156 L 38.789062 18.660156 L 38.789062 17.214844 L 39.785156 16.628906 L 39.785156 18.660156 L 40.78125 18.660156 L 40.78125 19.441406 L 39.785156 19.441406 L 39.785156 22.839844 C 39.785156 23.128906 39.796875 23.308594 39.824219 23.386719 C 39.863281 23.464844 39.921875 23.53125 40 23.582031 C 40.078125 23.636719 40.1875 23.660156 40.332031 23.660156 C 40.449219 23.660156 40.597656 23.648438 40.78125 23.621094 Z M 40.78125 23.621094 "/>
<path style="fill-rule:nonzero;fill:rgb(100%,100%,100%);fill-opacity:1;stroke-width:1;stroke-linecap:round;stroke-linejoin:round;stroke:rgb(0%,0%,0%);stroke-opacity:1;stroke-miterlimit:10;" d="M 192.7 64.6 L 235.5 64.6 L 235.5 85.6 L 192.7 85.6 Z M 192.7 64.6 " transform="matrix(1.25,0,0,1.25,-77.5,-72.5)"/>
<path style=" stroke:none;fill-rule:nonzero;fill:rgb(0%,0%,0%);fill-opacity:1;" d="M 177.5 21.921875 L 178.496094 21.824219 C 178.542969 22.230469 178.65625 22.5625 178.828125 22.820312 C 179.007812 23.085938 179.28125 23.289062 179.648438 23.445312 C 180.007812 23.601562 180.417969 23.679688 180.878906 23.679688 C 181.277344 23.679688 181.640625 23.621094 181.953125 23.503906 C 182.265625 23.386719 182.5 23.226562 182.65625 23.015625 C 182.8125 22.796875 182.890625 22.5625 182.890625 22.3125 C 182.890625 22.070312 182.8125 21.851562 182.65625 21.667969 C 182.507812 21.472656 182.269531 21.3125 181.933594 21.179688 C 181.722656 21.09375 181.25 20.960938 180.507812 20.789062 C 179.765625 20.609375 179.242188 20.4375 178.945312 20.28125 C 178.5625 20.085938 178.28125 19.84375 178.085938 19.539062 C 177.898438 19.242188 177.8125 18.90625 177.8125 18.523438 C 177.8125 18.125 177.917969 17.742188 178.144531 17.390625 C 178.378906 17.039062 178.714844 16.773438 179.160156 16.589844 C 179.597656 16.410156 180.097656 16.316406 180.644531 16.316406 C 181.238281 16.316406 181.765625 16.414062 182.226562 16.609375 C 182.679688 16.796875 183.027344 17.074219 183.261719 17.449219 C 183.503906 17.828125 183.640625 18.25 183.671875 18.71875 L 182.636719 18.796875 C 182.582031 18.289062 182.402344 17.90625 182.089844 17.644531 C 181.777344 17.386719 181.308594 17.253906 180.683594 17.253906 C 180.042969 17.253906 179.574219 17.371094 179.277344 17.605469 C 178.972656 17.839844 178.828125 18.128906 178.828125 18.464844 C 178.828125 18.753906 178.929688 18.988281 179.140625 19.167969 C 179.34375 19.363281 179.882812 19.558594 180.742188 19.753906 C 181.609375 19.949219 182.210938 20.121094 182.539062 20.261719 C 183.007812 20.472656 183.347656 20.746094 183.574219 21.082031 C 183.792969 21.410156 183.90625 21.796875 183.90625 22.234375 C 183.90625 22.65625 183.777344 23.054688 183.535156 23.445312 C 183.285156 23.828125 182.933594 24.117188 182.480469 24.324219 C 182.019531 24.53125 181.507812 24.636719 180.9375 24.636719 C 180.203125 24.636719 179.59375 24.53125 179.101562 24.324219 C 178.601562 24.105469 178.210938 23.789062 177.929688 23.367188 C 177.65625 22.9375 177.507812 22.460938 177.5 21.921875 Z M 177.5 21.921875 "/>
<path style=" stroke:none;fill-rule:nonzero;fill:rgb(0%,0%,0%);fill-opacity:1;" d="M 187.40625 23.621094 L 187.542969 24.480469 C 187.253906 24.542969 187.003906 24.578125 186.800781 24.578125 C 186.433594 24.578125 186.15625 24.519531 185.960938 24.402344 C 185.765625 24.285156 185.617188 24.140625 185.53125 23.953125 C 185.453125 23.773438 185.414062 23.386719 185.414062 22.800781 L 185.414062 19.441406 L 184.691406 19.441406 L 184.691406 18.660156 L 185.414062 18.660156 L 185.414062 17.214844 L 186.410156 16.628906 L 186.410156 18.660156 L 187.40625 18.660156 L 187.40625 19.441406 L 186.410156 19.441406 L 186.410156 22.839844 C 186.410156 23.128906 186.417969 23.308594 186.449219 23.386719 C 186.488281 23.464844 186.546875 23.53125 186.625 23.582031 C 186.703125 23.636719 186.808594 23.660156 186.957031 23.660156 C 187.074219 23.660156 187.21875 23.648438 187.40625 23.621094 Z M 187.40625 23.621094 "/>
<path style=" stroke:none;fill-rule:nonzero;fill:rgb(0%,0%,0%);fill-opacity:1;" d="M 192.171875 23.777344 C 191.804688 24.089844 191.453125 24.3125 191.117188 24.441406 C 190.773438 24.570312 190.414062 24.636719 190.023438 24.636719 C 189.382812 24.636719 188.890625 24.480469 188.539062 24.167969 C 188.195312 23.855469 188.03125 23.453125 188.03125 22.957031 C 188.03125 22.671875 188.09375 22.410156 188.226562 22.175781 C 188.351562 21.941406 188.523438 21.757812 188.734375 21.609375 C 188.9375 21.46875 189.171875 21.355469 189.4375 21.277344 C 189.632812 21.238281 189.925781 21.195312 190.316406 21.140625 C 191.121094 21.054688 191.710938 20.9375 192.09375 20.789062 C 192.09375 20.664062 192.09375 20.574219 192.09375 20.535156 C 192.09375 20.132812 192 19.851562 191.820312 19.695312 C 191.554688 19.460938 191.179688 19.34375 190.6875 19.34375 C 190.21875 19.34375 189.871094 19.429688 189.652344 19.597656 C 189.425781 19.753906 189.265625 20.042969 189.164062 20.457031 L 188.207031 20.339844 C 188.285156 19.925781 188.421875 19.59375 188.617188 19.34375 C 188.820312 19.085938 189.113281 18.890625 189.496094 18.757812 C 189.886719 18.617188 190.324219 18.542969 190.824219 18.542969 C 191.332031 18.542969 191.730469 18.601562 192.035156 18.71875 C 192.347656 18.835938 192.570312 18.988281 192.71875 19.167969 C 192.875 19.339844 192.976562 19.558594 193.03125 19.832031 C 193.070312 20.003906 193.089844 20.300781 193.089844 20.730469 L 193.089844 22.058594 C 193.089844 22.972656 193.109375 23.554688 193.148438 23.796875 C 193.1875 24.046875 193.269531 24.28125 193.402344 24.5 L 192.367188 24.5 C 192.257812 24.296875 192.195312 24.050781 192.171875 23.777344 Z M 192.09375 21.570312 C 191.726562 21.71875 191.183594 21.839844 190.472656 21.941406 C 190.066406 22.007812 189.777344 22.078125 189.613281 22.15625 C 189.441406 22.226562 189.308594 22.328125 189.222656 22.46875 C 189.128906 22.617188 189.085938 22.773438 189.085938 22.9375 C 189.085938 23.203125 189.183594 23.421875 189.378906 23.601562 C 189.574219 23.773438 189.867188 23.855469 190.257812 23.855469 C 190.632812 23.855469 190.96875 23.773438 191.273438 23.601562 C 191.570312 23.4375 191.789062 23.207031 191.9375 22.917969 C 192.039062 22.699219 192.09375 22.371094 192.09375 21.941406 Z M 192.09375 21.570312 "/>
<path style=" stroke:none;fill-rule:nonzero;fill:rgb(0%,0%,0%);fill-opacity:1;" d="M 196.789062 23.621094 L 196.925781 24.480469 C 196.636719 24.542969 196.386719 24.578125 196.183594 24.578125 C 195.816406 24.578125 195.539062 24.519531 195.34375 24.402344 C 195.148438 24.285156 195 24.140625 194.914062 23.953125 C 194.835938 23.773438 194.796875 23.386719 194.796875 22.800781 L 194.796875 19.441406 L 194.074219 19.441406 L 194.074219 18.660156 L 194.796875 18.660156 L 194.796875 17.214844 L 195.792969 16.628906 L 195.792969 18.660156 L 196.789062 18.660156 L 196.789062 19.441406 L 195.792969 19.441406 L 195.792969 22.839844 C 195.792969 23.128906 195.800781 23.308594 195.832031 23.386719 C 195.871094 23.464844 195.929688 23.53125 196.007812 23.582031 C 196.085938 23.636719 196.191406 23.660156 196.339844 23.660156 C 196.457031 23.660156 196.601562 23.648438 196.789062 23.621094 Z M 196.789062 23.621094 "/>
<path style=" stroke:none;fill-rule:nonzero;fill:rgb(0%,0%,0%);fill-opacity:1;" d="M 201.730469 22.625 L 202.765625 22.742188 C 202.59375 23.34375 202.285156 23.8125 201.847656 24.148438 C 201.417969 24.476562 200.859375 24.636719 200.1875 24.636719 C 199.335938 24.636719 198.664062 24.378906 198.15625 23.855469 C 197.65625 23.324219 197.414062 22.582031 197.414062 21.628906 C 197.414062 20.652344 197.667969 19.898438 198.175781 19.363281 C 198.683594 18.816406 199.335938 18.542969 200.148438 18.542969 C 200.929688 18.542969 201.558594 18.8125 202.042969 19.34375 C 202.535156 19.867188 202.785156 20.609375 202.785156 21.570312 C 202.785156 21.640625 202.785156 21.726562 202.785156 21.84375 L 198.429688 21.84375 C 198.46875 22.484375 198.648438 22.972656 198.976562 23.308594 C 199.296875 23.648438 199.707031 23.816406 200.207031 23.816406 C 200.566406 23.816406 200.875 23.726562 201.125 23.542969 C 201.382812 23.347656 201.582031 23.046875 201.730469 22.625 Z M 198.488281 21.023438 L 201.75 21.023438 C 201.710938 20.53125 201.582031 20.160156 201.378906 19.910156 C 201.066406 19.535156 200.65625 19.34375 200.148438 19.34375 C 199.6875 19.34375 199.308594 19.5 198.996094 19.8125 C 198.691406 20.117188 198.527344 20.515625 198.488281 21.023438 Z M 198.488281 21.023438 "/>
<path style="fill-rule:nonzero;fill:rgb(100%,100%,100%);fill-opacity:1;stroke-width:1;stroke-linecap:round;stroke-linejoin:round;stroke:rgb(0%,0%,0%);stroke-opacity:1;stroke-miterlimit:10;" d="M 322 64.6 L 364.8 64.6 L 364.8 85.6 L 322 85.6 Z M 322 64.6 " transform="matrix(1.25,0,0,1.25,-77.5,-72.5)"/>
<path style=" stroke:none;fill-rule:nonzero;fill:rgb(0%,0%,0%);fill-opacity:1;" d="M 335.410156 20.574219 C 335.410156 19.246094 335.765625 18.207031 336.484375 17.449219 C 337.199219 16.683594 338.125 16.296875 339.257812 16.296875 C 340 16.296875 340.667969 16.484375 341.269531 16.84375 C 341.867188 17.195312 342.324219 17.695312 342.636719 18.328125 C 342.949219 18.96875 343.105469 19.6875 343.105469 20.476562 C 343.105469 21.296875 342.941406 22.035156 342.617188 22.683594 C 342.289062 23.324219 341.820312 23.8125 341.210938 24.148438 C 340.609375 24.476562 339.960938 24.636719 339.257812 24.636719 C 338.5 24.636719 337.824219 24.457031 337.226562 24.089844 C 336.625 23.726562 336.171875 23.226562 335.859375 22.585938 C 335.558594 21.953125 335.410156 21.277344 335.410156 20.574219 Z M 336.503906 20.59375 C 336.503906 21.570312 336.761719 22.34375 337.285156 22.898438 C 337.804688 23.445312 338.460938 23.71875 339.257812 23.71875 C 340.050781 23.71875 340.707031 23.441406 341.230469 22.878906 C 341.75 22.320312 342.011719 21.523438 342.011719 20.476562 C 342.011719 19.828125 341.898438 19.261719 341.679688 18.777344 C 341.457031 18.285156 341.132812 17.898438 340.703125 17.625 C 340.273438 17.351562 339.796875 17.214844 339.277344 17.214844 C 338.519531 17.214844 337.871094 17.476562 337.324219 17.996094 C 336.777344 18.519531 336.503906 19.382812 336.503906 20.59375 Z M 336.503906 20.59375 "/>
<path style=" stroke:none;fill-rule:nonzero;fill:rgb(0%,0%,0%);fill-opacity:1;" d="M 348.183594 24.5 L 348.183594 23.640625 C 347.726562 24.304688 347.109375 24.636719 346.328125 24.636719 C 345.988281 24.636719 345.667969 24.570312 345.371094 24.441406 C 345.070312 24.300781 344.84375 24.128906 344.6875 23.933594 C 344.542969 23.738281 344.445312 23.5 344.394531 23.210938 C 344.355469 23.015625 344.335938 22.703125 344.335938 22.273438 L 344.335938 18.660156 L 345.3125 18.660156 L 345.3125 21.902344 C 345.3125 22.425781 345.335938 22.773438 345.390625 22.9375 C 345.441406 23.203125 345.566406 23.40625 345.761719 23.5625 C 345.96875 23.710938 346.222656 23.777344 346.523438 23.777344 C 346.820312 23.777344 347.101562 23.710938 347.363281 23.5625 C 347.621094 23.40625 347.804688 23.203125 347.910156 22.9375 C 348.011719 22.679688 348.066406 22.292969 348.066406 21.785156 L 348.066406 18.660156 L 349.0625 18.660156 L 349.0625 24.5 Z M 348.183594 24.5 "/>
<path style=" stroke:none;fill-rule:nonzero;fill:rgb(0%,0%,0%);fill-opacity:1;" d="M 352.777344 23.621094 L 352.914062 24.480469 C 352.625 24.542969 352.375 24.578125 352.171875 24.578125 C 351.804688 24.578125 351.527344 24.519531 351.332031 24.402344 C 351.136719 24.285156 350.988281 24.140625 350.902344 23.953125 C 350.824219 23.773438 350.785156 23.386719 350.785156 22.800781 L 350.785156 19.441406 L 350.0625 19.441406 L 350.0625 18.660156 L 350.785156 18.660156 L 350.785156 17.214844 L 351.78125 16.628906 L 351.78125 18.660156 L 352.777344 18.660156 L 352.777344 19.441406 L 351.78125 19.441406 L 351.78125 22.839844 C 351.78125 23.128906 351.789062 23.308594 351.820312 23.386719 C 351.859375 23.464844 351.917969 23.53125 351.996094 23.582031 C 352.074219 23.636719 352.179688 23.660156 352.328125 23.660156 C 352.445312 23.660156 352.589844 23.648438 352.777344 23.621094 Z M 352.777344 23.621094 "/>
<path style=" stroke:none;fill-rule:nonzero;fill:rgb(0%,0%,0%);fill-opacity:1;" d="M 353.734375 26.726562 L 353.734375 18.660156 L 354.632812 18.660156 L 354.632812 19.421875 C 354.839844 19.125 355.074219 18.90625 355.335938 18.757812 C 355.609375 18.617188 355.941406 18.542969 356.332031 18.542969 C 356.824219 18.542969 357.261719 18.675781 357.640625 18.933594 C 358.015625 19.183594 358.304688 19.539062 358.5 20.007812 C 358.695312 20.476562 358.792969 20.984375 358.792969 21.53125 C 358.792969 22.132812 358.679688 22.671875 358.460938 23.152344 C 358.25 23.636719 357.945312 24.007812 357.542969 24.265625 C 357.136719 24.507812 356.707031 24.636719 356.253906 24.636719 C 355.925781 24.636719 355.632812 24.5625 355.375 24.421875 C 355.113281 24.28125 354.898438 24.105469 354.730469 23.894531 L 354.730469 26.726562 Z M 354.632812 21.609375 C 354.632812 22.367188 354.78125 22.929688 355.082031 23.289062 C 355.394531 23.640625 355.765625 23.816406 356.195312 23.816406 C 356.625 23.816406 356.996094 23.636719 357.308594 23.269531 C 357.632812 22.894531 357.796875 22.3125 357.796875 21.53125 C 357.796875 20.789062 357.640625 20.238281 357.328125 19.871094 C 357.027344 19.496094 356.664062 19.304688 356.234375 19.304688 C 355.816406 19.304688 355.445312 19.507812 355.121094 19.910156 C 354.792969 20.300781 354.632812 20.867188 354.632812 21.609375 Z M 354.632812 21.609375 "/>
<path style=" stroke:none;fill-rule:nonzero;fill:rgb(0%,0%,0%);fill-opacity:1;" d="M 363.816406 24.5 L 363.816406 23.640625 C 363.355469 24.304688 362.742188 24.636719 361.960938 24.636719 C 361.617188 24.636719 361.300781 24.570312 361.003906 24.441406 C 360.699219 24.300781 360.476562 24.128906 360.320312 23.933594 C 360.171875 23.738281 360.074219 23.5 360.027344 23.210938 C 359.988281 23.015625 359.96875 22.703125 359.96875 22.273438 L 359.96875 18.660156 L 360.945312 18.660156 L 360.945312 21.902344 C 360.945312 22.425781 360.96875 22.773438 361.023438 22.9375 C 361.070312 23.203125 361.199219 23.40625 361.394531 23.5625 C 361.597656 23.710938 361.851562 23.777344 362.15625 23.777344 C 362.453125 23.777344 362.730469 23.710938 362.996094 23.5625 C 363.253906 23.40625 363.433594 23.203125 363.542969 22.9375 C 363.644531 22.679688 363.699219 22.292969 363.699219 21.785156 L 363.699219 18.660156 L 364.695312 18.660156 L 364.695312 24.5 Z M 363.816406 24.5 "/>
<path style=" stroke:none;fill-rule:nonzero;fill:rgb(0%,0%,0%);fill-opacity:1;" d="M 368.40625 23.621094 L 368.542969 24.480469 C 368.257812 24.542969 368.007812 24.578125 367.800781 24.578125 C 367.4375 24.578125 367.15625 24.519531 366.960938 24.402344 C 366.765625 24.285156 366.621094 24.140625 366.53125 23.953125 C 366.453125 23.773438 366.414062 23.386719 366.414062 22.800781 L 366.414062 19.441406 L 365.691406 19.441406 L 365.691406 18.660156 L 366.414062 18.660156 L 366.414062 17.214844 L 367.410156 16.628906 L 367.410156 18.660156 L 368.40625 18.660156 L 368.40625 19.441406 L 367.410156 19.441406 L 367.410156 22.839844 C 367.410156 23.128906 367.421875 23.308594 367.449219 23.386719 C 367.488281 23.464844 367.546875 23.53125 367.625 23.582031 C 367.703125 23.636719 367.8125 23.660156 367.957031 23.660156 C 368.074219 23.660156 368.222656 23.648438 368.40625 23.621094 Z M 368.40625 23.621094 "/>
<path style="fill:none;stroke-width:1;stroke-linecap:round;stroke-linejoin:round;stroke:rgb(0%,0%,0%);stroke-opacity:1;stroke-miterlimit:10;" d="M 235.5 75.1 L 247.15 75.1 " transform="matrix(1.25,0,0,1.25,-77.5,-72.5)"/>
<path style="fill:none;stroke-width:1;stroke-linecap:butt;stroke-linejoin:miter;stroke:rgb(0%,0%,0%);stroke-opacity:1;stroke-miterlimit:10;" d="M 251.15 75.1 L 247.15 75.1 M 247.15 73.6 L 251.15 75.1 L 247.15 76.6 " transform="matrix(1.25,0,0,1.25,-77.5,-72.5)"/>
</g>
</svg>
