<?xml version="1.0" encoding="UTF-8"?>
<svg xmlns="http://www.w3.org/2000/svg" xmlns:xlink="http://www.w3.org/1999/xlink" width="355pt" height="184pt" viewBox="0 0 355 184" version="1.1">
<g id="surface1">
<path style="fill:none;stroke-width:1;stroke-linecap:round;stroke-linejoin:round;stroke:rgb(0%,0%,0%);stroke-opacity:1;stroke-miterlimit:10;" d="M 673.8 397.8 L 708.703125 397.8 L 708.703125 413.15 L 673.8 413.15 Z M 673.8 397.8 " transform="matrix(1.25,0,0,1.25,-837.5,-385)"/>
<path style=" stroke:none;fill-rule:nonzero;fill:rgb(0%,0%,0%);fill-opacity:1;" d="M 19.984375 125.40625 L 19.984375 117.359375 L 25.414062 117.359375 L 25.414062 118.296875 L 21.058594 118.296875 L 21.058594 120.796875 L 24.828125 120.796875 L 24.828125 121.753906 L 21.058594 121.753906 L 21.058594 125.40625 Z M 19.984375 125.40625 "/>
<path style=" stroke:none;fill-rule:nonzero;fill:rgb(0%,0%,0%);fill-opacity:1;" d="M 32.558594 122.574219 L 33.613281 122.847656 C 33.390625 123.722656 32.988281 124.390625 32.402344 124.859375 C 31.828125 125.320312 31.121094 125.542969 30.273438 125.542969 C 29.414062 125.542969 28.710938 125.367188 28.164062 125.015625 C 27.617188 124.664062 27.199219 124.15625 26.914062 123.492188 C 26.640625 122.820312 26.503906 122.097656 26.503906 121.324219 C 26.503906 120.480469 26.660156 119.742188 26.972656 119.117188 C 27.296875 118.492188 27.753906 118.023438 28.339844 117.710938 C 28.9375 117.390625 29.589844 117.222656 30.292969 117.222656 C 31.101562 117.222656 31.777344 117.433594 32.324219 117.847656 C 32.882812 118.253906 33.269531 118.824219 33.476562 119.566406 L 32.421875 119.800781 C 32.238281 119.214844 31.972656 118.796875 31.621094 118.53125 C 31.269531 118.257812 30.820312 118.121094 30.273438 118.121094 C 29.660156 118.121094 29.148438 118.273438 28.730469 118.570312 C 28.3125 118.875 28.019531 119.273438 27.851562 119.78125 C 27.683594 120.28125 27.597656 120.789062 27.597656 121.304688 C 27.597656 122 27.695312 122.605469 27.890625 123.121094 C 28.097656 123.628906 28.410156 124.011719 28.828125 124.253906 C 29.246094 124.503906 29.699219 124.625 30.195312 124.625 C 30.792969 124.625 31.296875 124.460938 31.699219 124.117188 C 32.117188 123.765625 32.402344 123.253906 32.558594 122.574219 Z M 32.558594 122.574219 "/>
<path style="fill-rule:nonzero;fill:rgb(40%,74.901961%,100%);fill-opacity:1;stroke-width:1;stroke-linecap:round;stroke-linejoin:round;stroke:rgb(0%,0%,0%);stroke-opacity:1;stroke-miterlimit:10;" d="M 673.8 366.4 L 787.8 366.4 L 787.8 383.9 L 673.8 383.9 Z M 673.8 366.4 " transform="matrix(1.25,0,0,1.25,-837.5,-385)"/>
<path style=" stroke:none;fill-rule:nonzero;fill:rgb(0%,0%,0%);fill-opacity:1;" d="M 53.777344 87.503906 L 56.882812 79.457031 L 58.015625 79.457031 L 61.316406 87.503906 L 60.105469 87.503906 L 59.167969 85.0625 L 55.789062 85.0625 L 54.910156 87.503906 Z M 56.101562 84.203125 L 58.835938 84.203125 L 57.996094 81.957031 C 57.730469 81.28125 57.546875 80.726562 57.429688 80.296875 C 57.320312 80.820312 57.175781 81.332031 56.980469 81.839844 Z M 56.101562 84.203125 "/>
<path style=" stroke:none;fill-rule:nonzero;fill:rgb(0%,0%,0%);fill-opacity:1;" d="M 64.210938 86.625 L 64.347656 87.484375 C 64.058594 87.546875 63.808594 87.582031 63.605469 87.582031 C 63.238281 87.582031 62.960938 87.523438 62.765625 87.40625 C 62.570312 87.289062 62.421875 87.140625 62.335938 86.957031 C 62.257812 86.777344 62.21875 86.390625 62.21875 85.804688 L 62.21875 82.445312 L 61.496094 82.445312 L 61.496094 81.664062 L 62.21875 81.664062 L 62.21875 80.21875 L 63.214844 79.632812 L 63.214844 81.664062 L 64.210938 81.664062 L 64.210938 82.445312 L 63.214844 82.445312 L 63.214844 85.84375 C 63.214844 86.132812 63.222656 86.3125 63.253906 86.390625 C 63.292969 86.46875 63.351562 86.535156 63.429688 86.585938 C 63.507812 86.640625 63.613281 86.664062 63.761719 86.664062 C 63.878906 86.664062 64.023438 86.652344 64.210938 86.625 Z M 64.210938 86.625 "/>
<path style=" stroke:none;fill-rule:nonzero;fill:rgb(0%,0%,0%);fill-opacity:1;" d="M 67.335938 86.625 L 67.472656 87.484375 C 67.183594 87.546875 66.933594 87.582031 66.730469 87.582031 C 66.363281 87.582031 66.085938 87.523438 65.890625 87.40625 C 65.695312 87.289062 65.546875 87.140625 65.460938 86.957031 C 65.382812 86.777344 65.34375 86.390625 65.34375 85.804688 L 65.34375 82.445312 L 64.621094 82.445312 L 64.621094 81.664062 L 65.34375 81.664062 L 65.34375 80.21875 L 66.339844 79.632812 L 66.339844 81.664062 L 67.335938 81.664062 L 67.335938 82.445312 L 66.339844 82.445312 L 66.339844 85.84375 C 66.339844 86.132812 66.347656 86.3125 66.378906 86.390625 C 66.417969 86.46875 66.476562 86.535156 66.554688 86.585938 C 66.632812 86.640625 66.738281 86.664062 66.886719 86.664062 C 67.003906 86.664062 67.148438 86.652344 67.335938 86.625 Z M 67.335938 86.625 "/>
<path style=" stroke:none;fill-rule:nonzero;fill:rgb(0%,0%,0%);fill-opacity:1;" d="M 72.277344 85.628906 L 73.3125 85.746094 C 73.140625 86.347656 72.835938 86.816406 72.394531 87.152344 C 71.964844 87.480469 71.410156 87.640625 70.734375 87.640625 C 69.886719 87.640625 69.210938 87.382812 68.703125 86.859375 C 68.207031 86.328125 67.960938 85.585938 67.960938 84.632812 C 67.960938 83.65625 68.214844 82.902344 68.722656 82.367188 C 69.230469 81.820312 69.886719 81.546875 70.695312 81.546875 C 71.476562 81.546875 72.105469 81.816406 72.589844 82.347656 C 73.082031 82.871094 73.332031 83.613281 73.332031 84.574219 C 73.332031 84.640625 73.332031 84.730469 73.332031 84.847656 L 68.976562 84.847656 C 69.015625 85.488281 69.195312 85.976562 69.523438 86.3125 C 69.847656 86.652344 70.257812 86.820312 70.753906 86.820312 C 71.117188 86.820312 71.421875 86.730469 71.671875 86.546875 C 71.929688 86.351562 72.132812 86.046875 72.277344 85.628906 Z M 69.035156 84.027344 L 72.296875 84.027344 C 72.257812 83.535156 72.132812 83.164062 71.925781 82.914062 C 71.613281 82.539062 71.203125 82.347656 70.695312 82.347656 C 70.238281 82.347656 69.855469 82.503906 69.542969 82.816406 C 69.242188 83.117188 69.074219 83.519531 69.035156 84.027344 Z M 69.035156 84.027344 "/>
<path style=" stroke:none;fill-rule:nonzero;fill:rgb(0%,0%,0%);fill-opacity:1;" d="M 74.550781 87.503906 L 74.550781 81.664062 L 75.449219 81.664062 L 75.449219 82.503906 C 75.863281 81.867188 76.484375 81.546875 77.304688 81.546875 C 77.65625 81.546875 77.972656 81.613281 78.261719 81.742188 C 78.558594 81.859375 78.777344 82.023438 78.925781 82.230469 C 79.066406 82.425781 79.167969 82.667969 79.238281 82.953125 C 79.277344 83.136719 79.296875 83.457031 79.296875 83.910156 L 79.296875 87.503906 L 78.300781 87.503906 L 78.300781 83.949219 C 78.300781 83.546875 78.261719 83.246094 78.183594 83.050781 C 78.105469 82.855469 77.96875 82.699219 77.773438 82.582031 C 77.578125 82.453125 77.347656 82.386719 77.089844 82.386719 C 76.667969 82.386719 76.308594 82.523438 75.996094 82.796875 C 75.691406 83.058594 75.546875 83.566406 75.546875 84.320312 L 75.546875 87.503906 Z M 74.550781 87.503906 "/>
<path style=" stroke:none;fill-rule:nonzero;fill:rgb(0%,0%,0%);fill-opacity:1;" d="M 82.976562 86.625 L 83.113281 87.484375 C 82.824219 87.546875 82.574219 87.582031 82.371094 87.582031 C 82.003906 87.582031 81.726562 87.523438 81.53125 87.40625 C 81.335938 87.289062 81.1875 87.140625 81.101562 86.957031 C 81.023438 86.777344 80.984375 86.390625 80.984375 85.804688 L 80.984375 82.445312 L 80.261719 82.445312 L 80.261719 81.664062 L 80.984375 81.664062 L 80.984375 80.21875 L 81.980469 79.632812 L 81.980469 81.664062 L 82.976562 81.664062 L 82.976562 82.445312 L 81.980469 82.445312 L 81.980469 85.84375 C 81.980469 86.132812 81.988281 86.3125 82.019531 86.390625 C 82.058594 86.46875 82.117188 86.535156 82.195312 86.585938 C 82.273438 86.640625 82.378906 86.664062 82.527344 86.664062 C 82.644531 86.664062 82.789062 86.652344 82.976562 86.625 Z M 82.976562 86.625 "/>
<path style=" stroke:none;fill-rule:nonzero;fill:rgb(0%,0%,0%);fill-opacity:1;" d="M 83.933594 80.589844 L 83.933594 79.457031 L 84.929688 79.457031 L 84.929688 80.589844 Z M 83.933594 87.503906 L 83.933594 81.664062 L 84.929688 81.664062 L 84.929688 87.503906 Z M 83.933594 87.503906 "/>
<path style=" stroke:none;fill-rule:nonzero;fill:rgb(0%,0%,0%);fill-opacity:1;" d="M 86.0625 84.59375 C 86.0625 83.515625 86.359375 82.714844 86.960938 82.191406 C 87.46875 81.761719 88.078125 81.546875 88.796875 81.546875 C 89.601562 81.546875 90.261719 81.808594 90.769531 82.328125 C 91.277344 82.851562 91.53125 83.574219 91.53125 84.496094 C 91.53125 85.253906 91.414062 85.84375 91.179688 86.273438 C 90.953125 86.703125 90.632812 87.042969 90.203125 87.289062 C 89.773438 87.523438 89.304688 87.640625 88.796875 87.640625 C 87.976562 87.640625 87.3125 87.382812 86.804688 86.859375 C 86.304688 86.328125 86.0625 85.570312 86.0625 84.59375 Z M 87.078125 84.59375 C 87.078125 85.335938 87.238281 85.898438 87.566406 86.273438 C 87.886719 86.640625 88.296875 86.820312 88.796875 86.820312 C 89.289062 86.820312 89.699219 86.640625 90.027344 86.273438 C 90.347656 85.898438 90.515625 85.324219 90.515625 84.554688 C 90.515625 83.839844 90.347656 83.292969 90.027344 82.914062 C 89.699219 82.539062 89.289062 82.347656 88.796875 82.347656 C 88.296875 82.347656 87.886719 82.539062 87.566406 82.914062 C 87.238281 83.28125 87.078125 83.839844 87.078125 84.59375 Z M 87.078125 84.59375 "/>
<path style=" stroke:none;fill-rule:nonzero;fill:rgb(0%,0%,0%);fill-opacity:1;" d="M 92.691406 87.503906 L 92.691406 81.664062 L 93.589844 81.664062 L 93.589844 82.503906 C 94.003906 81.867188 94.625 81.546875 95.445312 81.546875 C 95.796875 81.546875 96.113281 81.613281 96.402344 81.742188 C 96.699219 81.859375 96.917969 82.023438 97.066406 82.230469 C 97.207031 82.425781 97.308594 82.667969 97.378906 82.953125 C 97.417969 83.136719 97.4375 83.457031 97.4375 83.910156 L 97.4375 87.503906 L 96.441406 87.503906 L 96.441406 83.949219 C 96.441406 83.546875 96.402344 83.246094 96.324219 83.050781 C 96.246094 82.855469 96.109375 82.699219 95.914062 82.582031 C 95.71875 82.453125 95.488281 82.386719 95.230469 82.386719 C 94.808594 82.386719 94.449219 82.523438 94.136719 82.796875 C 93.832031 83.058594 93.6875 83.566406 93.6875 84.320312 L 93.6875 87.503906 Z M 92.691406 87.503906 "/>
<path style=" stroke:none;fill-rule:nonzero;fill:rgb(0%,0%,0%);fill-opacity:1;" d="M 13.84375 176.140625 C 14.335938 176.484375 14.789062 176.726562 15.210938 176.882812 L 14.898438 177.625 C 14.3125 177.414062 13.730469 177.082031 13.160156 176.628906 C 12.558594 176.96875 11.898438 177.136719 11.1875 177.136719 C 10.453125 177.136719 9.789062 176.960938 9.195312 176.609375 C 8.609375 176.257812 8.148438 175.765625 7.828125 175.125 C 7.515625 174.492188 7.359375 173.773438 7.359375 172.976562 C 7.359375 172.1875 7.515625 171.460938 7.828125 170.808594 C 8.148438 170.160156 8.613281 169.664062 9.214844 169.324219 C 9.808594 168.972656 10.472656 168.796875 11.207031 168.796875 C 11.949219 168.796875 12.617188 168.984375 13.21875 169.34375 C 13.8125 169.695312 14.273438 170.195312 14.585938 170.828125 C 14.898438 171.453125 15.054688 172.171875 15.054688 172.976562 C 15.054688 173.632812 14.945312 174.222656 14.742188 174.753906 C 14.546875 175.289062 14.242188 175.75 13.84375 176.140625 Z M 11.5 174.773438 C 12.109375 174.945312 12.617188 175.199219 13.023438 175.535156 C 13.648438 174.976562 13.960938 174.125 13.960938 172.976562 C 13.960938 172.3125 13.847656 171.742188 13.628906 171.257812 C 13.402344 170.78125 13.082031 170.398438 12.652344 170.125 C 12.222656 169.851562 11.738281 169.714844 11.207031 169.714844 C 10.410156 169.714844 9.75 169.988281 9.234375 170.535156 C 8.710938 171.082031 8.453125 171.898438 8.453125 172.976562 C 8.453125 174.023438 8.710938 174.820312 9.234375 175.378906 C 9.75 175.941406 10.410156 176.21875 11.207031 176.21875 C 11.597656 176.21875 11.957031 176.148438 12.300781 176.003906 C 11.957031 175.796875 11.605469 175.648438 11.246094 175.554688 Z M 11.5 174.773438 "/>
<path style=" stroke:none;fill-rule:nonzero;fill:rgb(0%,0%,0%);fill-opacity:1;" d="M 20.191406 177 L 20.191406 176.140625 C 19.730469 176.804688 19.117188 177.136719 18.335938 177.136719 C 17.992188 177.136719 17.675781 177.070312 17.378906 176.941406 C 17.074219 176.800781 16.851562 176.628906 16.695312 176.433594 C 16.546875 176.238281 16.449219 176 16.402344 175.710938 C 16.363281 175.515625 16.34375 175.203125 16.34375 174.773438 L 16.34375 171.160156 L 17.320312 171.160156 L 17.320312 174.402344 C 17.320312 174.925781 17.34375 175.273438 17.398438 175.4375 C 17.445312 175.703125 17.574219 175.90625 17.769531 176.0625 C 17.972656 176.210938 18.226562 176.277344 18.53125 176.277344 C 18.828125 176.277344 19.105469 176.210938 19.371094 176.0625 C 19.628906 175.90625 19.808594 175.703125 19.917969 175.4375 C 20.019531 175.179688 20.074219 174.792969 20.074219 174.285156 L 20.074219 171.160156 L 21.070312 171.160156 L 21.070312 177 Z M 20.191406 177 "/>
<path style=" stroke:none;fill-rule:nonzero;fill:rgb(0%,0%,0%);fill-opacity:1;" d="M 26.601562 175.125 L 27.636719 175.242188 C 27.46875 175.84375 27.160156 176.3125 26.71875 176.648438 C 26.289062 176.976562 25.734375 177.136719 25.058594 177.136719 C 24.210938 177.136719 23.535156 176.878906 23.027344 176.355469 C 22.53125 175.824219 22.285156 175.082031 22.285156 174.128906 C 22.285156 173.152344 22.539062 172.398438 23.046875 171.863281 C 23.554688 171.316406 24.210938 171.042969 25.019531 171.042969 C 25.800781 171.042969 26.433594 171.3125 26.914062 171.84375 C 27.410156 172.367188 27.65625 173.109375 27.65625 174.070312 C 27.65625 174.140625 27.65625 174.226562 27.65625 174.34375 L 23.300781 174.34375 C 23.339844 174.984375 23.523438 175.472656 23.847656 175.808594 C 24.171875 176.148438 24.582031 176.316406 25.078125 176.316406 C 25.441406 176.316406 25.75 176.226562 25.996094 176.042969 C 26.257812 175.847656 26.457031 175.546875 26.601562 175.125 Z M 23.359375 173.523438 L 26.621094 173.523438 C 26.582031 173.03125 26.457031 172.660156 26.25 172.410156 C 25.9375 172.035156 25.527344 171.84375 25.019531 171.84375 C 24.5625 171.84375 24.179688 172 23.867188 172.3125 C 23.566406 172.617188 23.398438 173.015625 23.359375 173.523438 Z M 23.359375 173.523438 "/>
<path style=" stroke:none;fill-rule:nonzero;fill:rgb(0%,0%,0%);fill-opacity:1;" d="M 28.855469 177 L 28.855469 171.160156 L 29.753906 171.160156 L 29.753906 172.058594 C 29.976562 171.644531 30.183594 171.371094 30.378906 171.238281 C 30.574219 171.109375 30.789062 171.042969 31.023438 171.042969 C 31.347656 171.042969 31.6875 171.148438 32.039062 171.355469 L 31.6875 172.273438 C 31.453125 172.132812 31.210938 172.058594 30.964844 172.058594 C 30.757812 172.058594 30.5625 172.125 30.378906 172.253906 C 30.210938 172.386719 30.085938 172.566406 30.007812 172.800781 C 29.902344 173.152344 29.851562 173.539062 29.851562 173.953125 L 29.851562 177 Z M 28.855469 177 "/>
<path style=" stroke:none;fill-rule:nonzero;fill:rgb(0%,0%,0%);fill-opacity:1;" d="M 32.621094 170.085938 L 32.621094 168.953125 L 33.617188 168.953125 L 33.617188 170.085938 Z M 32.621094 177 L 32.621094 171.160156 L 33.617188 171.160156 L 33.617188 177 Z M 32.621094 177 "/>
<path style=" stroke:none;fill-rule:nonzero;fill:rgb(0%,0%,0%);fill-opacity:1;" d="M 39.105469 175.125 L 40.140625 175.242188 C 39.972656 175.84375 39.664062 176.3125 39.222656 176.648438 C 38.792969 176.976562 38.238281 177.136719 37.5625 177.136719 C 36.714844 177.136719 36.039062 176.878906 35.53125 176.355469 C 35.035156 175.824219 34.789062 175.082031 34.789062 174.128906 C 34.789062 173.152344 35.042969 172.398438 35.550781 171.863281 C 36.058594 171.316406 36.714844 171.042969 37.523438 171.042969 C 38.304688 171.042969 38.9375 171.3125 39.417969 171.84375 C 39.914062 172.367188 40.160156 173.109375 40.160156 174.070312 C 40.160156 174.140625 40.160156 174.226562 40.160156 174.34375 L 35.804688 174.34375 C 35.84375 174.984375 36.027344 175.472656 36.351562 175.808594 C 36.675781 176.148438 37.085938 176.316406 37.582031 176.316406 C 37.945312 176.316406 38.253906 176.226562 38.5 176.042969 C 38.761719 175.847656 38.960938 175.546875 39.105469 175.125 Z M 35.863281 173.523438 L 39.125 173.523438 C 39.085938 173.03125 38.960938 172.660156 38.753906 172.410156 C 38.441406 172.035156 38.03125 171.84375 37.523438 171.84375 C 37.066406 171.84375 36.683594 172 36.371094 172.3125 C 36.070312 172.617188 35.902344 173.015625 35.863281 173.523438 Z M 35.863281 173.523438 "/>
<path style=" stroke:none;fill-rule:nonzero;fill:rgb(0%,0%,0%);fill-opacity:1;" d="M 40.988281 175.261719 L 41.964844 175.105469 C 42.015625 175.496094 42.164062 175.796875 42.414062 176.003906 C 42.671875 176.214844 43.023438 176.316406 43.46875 176.316406 C 43.921875 176.316406 44.261719 176.226562 44.484375 176.042969 C 44.703125 175.863281 44.816406 175.648438 44.816406 175.398438 C 44.816406 175.164062 44.71875 174.988281 44.523438 174.871094 C 44.378906 174.78125 44.039062 174.664062 43.507812 174.519531 C 42.777344 174.339844 42.269531 174.183594 41.984375 174.050781 C 41.710938 173.921875 41.5 173.738281 41.359375 173.503906 C 41.214844 173.269531 41.144531 173.011719 41.144531 172.722656 C 41.144531 172.464844 41.203125 172.226562 41.320312 172 C 41.4375 171.78125 41.597656 171.589844 41.808594 171.433594 C 41.964844 171.332031 42.171875 171.238281 42.433594 171.160156 C 42.707031 171.082031 42.992188 171.042969 43.292969 171.042969 C 43.746094 171.042969 44.144531 171.109375 44.484375 171.238281 C 44.835938 171.371094 45.09375 171.546875 45.265625 171.765625 C 45.433594 171.992188 45.550781 172.289062 45.617188 172.664062 L 44.640625 172.800781 C 44.601562 172.503906 44.46875 172.269531 44.25 172.097656 C 44.039062 171.929688 43.746094 171.84375 43.371094 171.84375 C 42.914062 171.84375 42.589844 171.921875 42.394531 172.078125 C 42.199219 172.226562 42.101562 172.398438 42.101562 172.605469 C 42.101562 172.738281 42.140625 172.851562 42.21875 172.9375 C 42.296875 173.054688 42.425781 173.148438 42.609375 173.210938 C 42.699219 173.25 42.984375 173.335938 43.46875 173.464844 C 44.171875 173.648438 44.660156 173.796875 44.933594 173.914062 C 45.21875 174.03125 45.441406 174.207031 45.597656 174.441406 C 45.753906 174.664062 45.832031 174.945312 45.832031 175.28125 C 45.832031 175.625 45.734375 175.9375 45.539062 176.21875 C 45.34375 176.507812 45.0625 176.734375 44.699219 176.902344 C 44.347656 177.058594 43.9375 177.136719 43.46875 177.136719 C 42.710938 177.136719 42.132812 176.980469 41.730469 176.667969 C 41.339844 176.34375 41.089844 175.875 40.988281 175.261719 Z M 40.988281 175.261719 "/>
<path style=" stroke:none;fill-rule:nonzero;fill:rgb(0%,0%,0%);fill-opacity:1;" d="M 64.316406 177 L 64.316406 168.953125 L 65.390625 168.953125 L 65.390625 172.9375 L 69.394531 168.953125 L 70.820312 168.953125 L 67.460938 172.214844 L 70.976562 177 L 69.570312 177 L 66.699219 172.917969 L 65.390625 174.207031 L 65.390625 177 Z M 64.316406 177 "/>
<path style=" stroke:none;fill-rule:nonzero;fill:rgb(0%,0%,0%);fill-opacity:1;" d="M 75.726562 175.125 L 76.761719 175.242188 C 76.589844 175.84375 76.28125 176.3125 75.84375 176.648438 C 75.414062 176.976562 74.855469 177.136719 74.183594 177.136719 C 73.332031 177.136719 72.660156 176.878906 72.152344 176.355469 C 71.652344 175.824219 71.410156 175.082031 71.410156 174.128906 C 71.410156 173.152344 71.664062 172.398438 72.171875 171.863281 C 72.679688 171.316406 73.332031 171.042969 74.144531 171.042969 C 74.925781 171.042969 75.554688 171.3125 76.039062 171.84375 C 76.53125 172.367188 76.78125 173.109375 76.78125 174.070312 C 76.78125 174.140625 76.78125 174.226562 76.78125 174.34375 L 72.425781 174.34375 C 72.464844 174.984375 72.644531 175.472656 72.972656 175.808594 C 73.292969 176.148438 73.703125 176.316406 74.203125 176.316406 C 74.5625 176.316406 74.871094 176.226562 75.121094 176.042969 C 75.378906 175.847656 75.578125 175.546875 75.726562 175.125 Z M 72.484375 173.523438 L 75.746094 173.523438 C 75.707031 173.03125 75.578125 172.660156 75.375 172.410156 C 75.0625 172.035156 74.652344 171.84375 74.144531 171.84375 C 73.683594 171.84375 73.304688 172 72.992188 172.3125 C 72.6875 172.617188 72.523438 173.015625 72.484375 173.523438 Z M 72.484375 173.523438 "/>
<path style=" stroke:none;fill-rule:nonzero;fill:rgb(0%,0%,0%);fill-opacity:1;" d="M 77.960938 179.246094 L 77.84375 178.328125 C 78.0625 178.375 78.253906 178.40625 78.410156 178.40625 C 78.628906 178.40625 78.804688 178.367188 78.9375 178.289062 C 79.0625 178.21875 79.175781 178.125 79.269531 177.996094 C 79.316406 177.890625 79.414062 177.644531 79.5625 177.253906 C 79.585938 177.199219 79.621094 177.121094 79.660156 177.019531 L 77.433594 171.160156 L 78.507812 171.160156 L 79.71875 174.539062 C 79.875 174.96875 80.015625 175.417969 80.148438 175.886719 C 80.25 175.445312 80.382812 175.003906 80.539062 174.558594 L 81.789062 171.160156 L 82.785156 171.160156 L 80.558594 177.097656 C 80.324219 177.734375 80.136719 178.175781 80.011719 178.425781 C 79.824219 178.75 79.625 178.984375 79.40625 179.128906 C 79.179688 179.285156 78.90625 179.363281 78.585938 179.363281 C 78.398438 179.363281 78.195312 179.324219 77.960938 179.246094 Z M 77.960938 179.246094 "/>
<path style=" stroke:none;fill-rule:nonzero;fill:rgb(0%,0%,0%);fill-opacity:1;" d="M 83.234375 175.261719 L 84.210938 175.105469 C 84.257812 175.496094 84.410156 175.796875 84.660156 176.003906 C 84.917969 176.214844 85.269531 176.316406 85.714844 176.316406 C 86.167969 176.316406 86.503906 176.226562 86.730469 176.042969 C 86.949219 175.863281 87.0625 175.648438 87.0625 175.398438 C 87.0625 175.164062 86.964844 174.988281 86.769531 174.871094 C 86.621094 174.78125 86.285156 174.664062 85.753906 174.519531 C 85.019531 174.339844 84.511719 174.183594 84.230469 174.050781 C 83.957031 173.921875 83.746094 173.738281 83.605469 173.503906 C 83.457031 173.269531 83.390625 173.011719 83.390625 172.722656 C 83.390625 172.464844 83.449219 172.226562 83.566406 172 C 83.683594 171.78125 83.84375 171.589844 84.054688 171.433594 C 84.210938 171.332031 84.414062 171.238281 84.679688 171.160156 C 84.953125 171.082031 85.234375 171.042969 85.539062 171.042969 C 85.992188 171.042969 86.386719 171.109375 86.730469 171.238281 C 87.082031 171.371094 87.339844 171.546875 87.511719 171.765625 C 87.675781 171.992188 87.792969 172.289062 87.863281 172.664062 L 86.886719 172.800781 C 86.847656 172.503906 86.714844 172.269531 86.496094 172.097656 C 86.285156 171.929688 85.992188 171.84375 85.617188 171.84375 C 85.15625 171.84375 84.835938 171.921875 84.640625 172.078125 C 84.445312 172.226562 84.347656 172.398438 84.347656 172.605469 C 84.347656 172.738281 84.386719 172.851562 84.464844 172.9375 C 84.542969 173.054688 84.667969 173.148438 84.855469 173.210938 C 84.941406 173.25 85.230469 173.335938 85.714844 173.464844 C 86.417969 173.648438 86.90625 173.796875 87.179688 173.914062 C 87.460938 174.03125 87.6875 174.207031 87.84375 174.441406 C 88 174.664062 88.078125 174.945312 88.078125 175.28125 C 88.078125 175.625 87.980469 175.9375 87.785156 176.21875 C 87.589844 176.507812 87.304688 176.734375 86.945312 176.902344 C 86.59375 177.058594 86.183594 177.136719 85.714844 177.136719 C 84.957031 177.136719 84.375 176.980469 83.976562 176.667969 C 83.585938 176.34375 83.335938 175.875 83.234375 175.261719 Z M 83.234375 175.261719 "/>
<path style=" stroke:none;fill-rule:nonzero;fill:rgb(0%,0%,0%);fill-opacity:1;" d="M 111.816406 177 L 108.710938 168.953125 L 109.863281 168.953125 L 111.953125 174.792969 C 112.121094 175.261719 112.257812 175.707031 112.363281 176.121094 C 112.492188 175.679688 112.640625 175.238281 112.8125 174.792969 L 114.980469 168.953125 L 116.074219 168.953125 L 112.910156 177 Z M 111.816406 177 "/>
<path style=" stroke:none;fill-rule:nonzero;fill:rgb(0%,0%,0%);fill-opacity:1;" d="M 119.871094 176.277344 C 119.507812 176.589844 119.15625 176.8125 118.816406 176.941406 C 118.476562 177.070312 118.113281 177.136719 117.722656 177.136719 C 117.085938 177.136719 116.589844 176.980469 116.238281 176.667969 C 115.898438 176.355469 115.730469 175.953125 115.730469 175.457031 C 115.730469 175.171875 115.796875 174.910156 115.925781 174.675781 C 116.054688 174.441406 116.226562 174.257812 116.433594 174.109375 C 116.640625 173.96875 116.875 173.855469 117.136719 173.777344 C 117.332031 173.738281 117.625 173.695312 118.015625 173.640625 C 118.824219 173.554688 119.414062 173.4375 119.792969 173.289062 C 119.792969 173.164062 119.792969 173.074219 119.792969 173.035156 C 119.792969 172.632812 119.703125 172.351562 119.519531 172.195312 C 119.257812 171.960938 118.882812 171.84375 118.386719 171.84375 C 117.917969 171.84375 117.574219 171.929688 117.351562 172.097656 C 117.128906 172.253906 116.96875 172.542969 116.863281 172.957031 L 115.90625 172.839844 C 115.984375 172.425781 116.121094 172.09375 116.316406 171.84375 C 116.523438 171.585938 116.816406 171.390625 117.195312 171.257812 C 117.585938 171.117188 118.027344 171.042969 118.523438 171.042969 C 119.03125 171.042969 119.433594 171.101562 119.734375 171.21875 C 120.046875 171.335938 120.273438 171.488281 120.417969 171.667969 C 120.574219 171.839844 120.679688 172.058594 120.730469 172.332031 C 120.769531 172.503906 120.789062 172.800781 120.789062 173.230469 L 120.789062 174.558594 C 120.789062 175.472656 120.808594 176.054688 120.847656 176.296875 C 120.886719 176.546875 120.972656 176.78125 121.101562 177 L 120.066406 177 C 119.960938 176.796875 119.898438 176.550781 119.871094 176.277344 Z M 119.792969 174.070312 C 119.429688 174.21875 118.886719 174.339844 118.171875 174.441406 C 117.769531 174.507812 117.480469 174.578125 117.3125 174.65625 C 117.144531 174.726562 117.011719 174.828125 116.921875 174.96875 C 116.832031 175.117188 116.785156 175.273438 116.785156 175.4375 C 116.785156 175.703125 116.882812 175.921875 117.078125 176.101562 C 117.273438 176.273438 117.566406 176.355469 117.957031 176.355469 C 118.335938 176.355469 118.671875 176.273438 118.972656 176.101562 C 119.273438 175.9375 119.492188 175.707031 119.636719 175.417969 C 119.742188 175.199219 119.792969 174.871094 119.792969 174.441406 Z M 119.792969 174.070312 "/>
<path style=" stroke:none;fill-rule:nonzero;fill:rgb(0%,0%,0%);fill-opacity:1;" d="M 122.296875 177 L 122.296875 168.953125 L 123.273438 168.953125 L 123.273438 177 Z M 122.296875 177 "/>
<path style=" stroke:none;fill-rule:nonzero;fill:rgb(0%,0%,0%);fill-opacity:1;" d="M 128.640625 177 L 128.640625 176.140625 C 128.179688 176.804688 127.566406 177.136719 126.785156 177.136719 C 126.441406 177.136719 126.125 177.070312 125.828125 176.941406 C 125.523438 176.800781 125.300781 176.628906 125.144531 176.433594 C 124.996094 176.238281 124.898438 176 124.851562 175.710938 C 124.8125 175.515625 124.792969 175.203125 124.792969 174.773438 L 124.792969 171.160156 L 125.769531 171.160156 L 125.769531 174.402344 C 125.769531 174.925781 125.792969 175.273438 125.847656 175.4375 C 125.894531 175.703125 126.023438 175.90625 126.21875 176.0625 C 126.421875 176.210938 126.675781 176.277344 126.980469 176.277344 C 127.277344 176.277344 127.554688 176.210938 127.820312 176.0625 C 128.078125 175.90625 128.257812 175.703125 128.367188 175.4375 C 128.46875 175.179688 128.523438 174.792969 128.523438 174.285156 L 128.523438 171.160156 L 129.519531 171.160156 L 129.519531 177 Z M 128.640625 177 "/>
<path style=" stroke:none;fill-rule:nonzero;fill:rgb(0%,0%,0%);fill-opacity:1;" d="M 135.050781 175.125 L 136.085938 175.242188 C 135.914062 175.84375 135.605469 176.3125 135.167969 176.648438 C 134.738281 176.976562 134.179688 177.136719 133.507812 177.136719 C 132.65625 177.136719 131.984375 176.878906 131.476562 176.355469 C 130.976562 175.824219 130.734375 175.082031 130.734375 174.128906 C 130.734375 173.152344 130.988281 172.398438 131.496094 171.863281 C 132.003906 171.316406 132.65625 171.042969 133.46875 171.042969 C 134.25 171.042969 134.878906 171.3125 135.363281 171.84375 C 135.855469 172.367188 136.105469 173.109375 136.105469 174.070312 C 136.105469 174.140625 136.105469 174.226562 136.105469 174.34375 L 131.75 174.34375 C 131.789062 174.984375 131.96875 175.472656 132.296875 175.808594 C 132.617188 176.148438 133.027344 176.316406 133.527344 176.316406 C 133.886719 176.316406 134.195312 176.226562 134.445312 176.042969 C 134.703125 175.847656 134.902344 175.546875 135.050781 175.125 Z M 131.808594 173.523438 L 135.070312 173.523438 C 135.03125 173.03125 134.902344 172.660156 134.699219 172.410156 C 134.386719 172.035156 133.976562 171.84375 133.46875 171.84375 C 133.007812 171.84375 132.628906 172 132.316406 172.3125 C 132.011719 172.617188 131.847656 173.015625 131.808594 173.523438 Z M 131.808594 173.523438 "/>
<path style=" stroke:none;fill-rule:nonzero;fill:rgb(0%,0%,0%);fill-opacity:1;" d="M 136.925781 175.261719 L 137.902344 175.105469 C 137.953125 175.496094 138.105469 175.796875 138.351562 176.003906 C 138.613281 176.214844 138.964844 176.316406 139.40625 176.316406 C 139.863281 176.316406 140.199219 176.226562 140.421875 176.042969 C 140.644531 175.863281 140.753906 175.648438 140.753906 175.398438 C 140.753906 175.164062 140.65625 174.988281 140.460938 174.871094 C 140.316406 174.78125 139.980469 174.664062 139.445312 174.519531 C 138.714844 174.339844 138.207031 174.183594 137.921875 174.050781 C 137.648438 173.921875 137.441406 173.738281 137.296875 173.503906 C 137.152344 173.269531 137.082031 173.011719 137.082031 172.722656 C 137.082031 172.464844 137.140625 172.226562 137.257812 172 C 137.375 171.78125 137.539062 171.589844 137.746094 171.433594 C 137.902344 171.332031 138.109375 171.238281 138.371094 171.160156 C 138.644531 171.082031 138.929688 171.042969 139.230469 171.042969 C 139.6875 171.042969 140.082031 171.109375 140.421875 171.238281 C 140.773438 171.371094 141.035156 171.546875 141.203125 171.765625 C 141.371094 171.992188 141.488281 172.289062 141.554688 172.664062 L 140.578125 172.800781 C 140.539062 172.503906 140.410156 172.269531 140.1875 172.097656 C 139.980469 171.929688 139.6875 171.84375 139.308594 171.84375 C 138.851562 171.84375 138.527344 171.921875 138.332031 172.078125 C 138.136719 172.226562 138.039062 172.398438 138.039062 172.605469 C 138.039062 172.738281 138.078125 172.851562 138.15625 172.9375 C 138.234375 173.054688 138.363281 173.148438 138.546875 173.210938 C 138.636719 173.25 138.925781 173.335938 139.40625 173.464844 C 140.109375 173.648438 140.597656 173.796875 140.871094 173.914062 C 141.15625 174.03125 141.378906 174.207031 141.535156 174.441406 C 141.691406 174.664062 141.769531 174.945312 141.769531 175.28125 C 141.769531 175.625 141.671875 175.9375 141.476562 176.21875 C 141.28125 176.507812 141 176.734375 140.636719 176.902344 C 140.285156 177.058594 139.875 177.136719 139.40625 177.136719 C 138.652344 177.136719 138.070312 176.980469 137.667969 176.667969 C 137.277344 176.34375 137.03125 175.875 136.925781 175.261719 Z M 136.925781 175.261719 "/>
<path style="fill:none;stroke-width:1;stroke-linecap:round;stroke-linejoin:round;stroke:rgb(0%,0%,0%);stroke-opacity:1;stroke-miterlimit:10;" d="M 713.346875 397.8 L 748.253125 397.8 L 748.253125 413.15 L 713.346875 413.15 Z M 713.346875 397.8 " transform="matrix(1.25,0,0,1.25,-837.5,-385)"/>
<path style=" stroke:none;fill-rule:nonzero;fill:rgb(0%,0%,0%);fill-opacity:1;" d="M 69.417969 125.40625 L 69.417969 117.359375 L 74.847656 117.359375 L 74.847656 118.296875 L 70.492188 118.296875 L 70.492188 120.796875 L 74.261719 120.796875 L 74.261719 121.753906 L 70.492188 121.753906 L 70.492188 125.40625 Z M 69.417969 125.40625 "/>
<path style=" stroke:none;fill-rule:nonzero;fill:rgb(0%,0%,0%);fill-opacity:1;" d="M 81.996094 122.574219 L 83.050781 122.847656 C 82.824219 123.722656 82.425781 124.390625 81.839844 124.859375 C 81.261719 125.320312 80.554688 125.542969 79.710938 125.542969 C 78.851562 125.542969 78.148438 125.367188 77.601562 125.015625 C 77.054688 124.664062 76.632812 124.15625 76.351562 123.492188 C 76.078125 122.820312 75.941406 122.097656 75.941406 121.324219 C 75.941406 120.480469 76.097656 119.742188 76.410156 119.117188 C 76.730469 118.492188 77.191406 118.023438 77.777344 117.710938 C 78.371094 117.390625 79.027344 117.222656 79.730469 117.222656 C 80.535156 117.222656 81.214844 117.433594 81.761719 117.847656 C 82.316406 118.253906 82.703125 118.824219 82.914062 119.566406 L 81.859375 119.800781 C 81.671875 119.214844 81.410156 118.796875 81.058594 118.53125 C 80.707031 118.257812 80.257812 118.121094 79.710938 118.121094 C 79.09375 118.121094 78.582031 118.273438 78.167969 118.570312 C 77.746094 118.875 77.453125 119.273438 77.289062 119.78125 C 77.117188 120.28125 77.035156 120.789062 77.035156 121.304688 C 77.035156 122 77.132812 122.605469 77.328125 123.121094 C 77.53125 123.628906 77.84375 124.011719 78.265625 124.253906 C 78.679688 124.503906 79.132812 124.625 79.632812 124.625 C 80.226562 124.625 80.730469 124.460938 81.136719 124.117188 C 81.550781 123.765625 81.839844 123.253906 81.996094 122.574219 Z M 81.996094 122.574219 "/>
<path style="fill:none;stroke-width:1;stroke-linecap:round;stroke-linejoin:round;stroke:rgb(0%,0%,0%);stroke-opacity:1;stroke-miterlimit:10;" d="M 752.89375 397.8 L 787.8 397.8 L 787.8 413.15 L 752.89375 413.15 Z M 752.89375 397.8 " transform="matrix(1.25,0,0,1.25,-837.5,-385)"/>
<path style=" stroke:none;fill-rule:nonzero;fill:rgb(0%,0%,0%);fill-opacity:1;" d="M 118.855469 125.40625 L 118.855469 117.359375 L 124.285156 117.359375 L 124.285156 118.296875 L 119.929688 118.296875 L 119.929688 120.796875 L 123.699219 120.796875 L 123.699219 121.753906 L 119.929688 121.753906 L 119.929688 125.40625 Z M 118.855469 125.40625 "/>
<path style=" stroke:none;fill-rule:nonzero;fill:rgb(0%,0%,0%);fill-opacity:1;" d="M 131.429688 122.574219 L 132.484375 122.847656 C 132.257812 123.722656 131.859375 124.390625 131.273438 124.859375 C 130.695312 125.320312 129.988281 125.542969 129.144531 125.542969 C 128.285156 125.542969 127.582031 125.367188 127.035156 125.015625 C 126.488281 124.664062 126.066406 124.15625 125.785156 123.492188 C 125.511719 122.820312 125.375 122.097656 125.375 121.324219 C 125.375 120.480469 125.53125 119.742188 125.84375 119.117188 C 126.164062 118.492188 126.625 118.023438 127.210938 117.710938 C 127.804688 117.390625 128.460938 117.222656 129.164062 117.222656 C 129.96875 117.222656 130.648438 117.433594 131.195312 117.847656 C 131.75 118.253906 132.136719 118.824219 132.347656 119.566406 L 131.292969 119.800781 C 131.105469 119.214844 130.84375 118.796875 130.492188 118.53125 C 130.140625 118.257812 129.691406 118.121094 129.144531 118.121094 C 128.527344 118.121094 128.015625 118.273438 127.601562 118.570312 C 127.179688 118.875 126.886719 119.273438 126.722656 119.78125 C 126.550781 120.28125 126.46875 120.789062 126.46875 121.304688 C 126.46875 122 126.566406 122.605469 126.761719 123.121094 C 126.964844 123.628906 127.277344 124.011719 127.699219 124.253906 C 128.113281 124.503906 128.566406 124.625 129.066406 124.625 C 129.660156 124.625 130.164062 124.460938 130.570312 124.117188 C 130.984375 123.765625 131.273438 123.253906 131.429688 122.574219 Z M 131.429688 122.574219 "/>
<path style="fill:none;stroke-width:1;stroke-linecap:round;stroke-linejoin:round;stroke:rgb(0%,0%,0%);stroke-opacity:1;stroke-miterlimit:10;" d="M 691.253125 439.6 L 691.253125 419.046875 " transform="matrix(1.25,0,0,1.25,-837.5,-385)"/>
<path style="fill:none;stroke-width:1;stroke-linecap:butt;stroke-linejoin:miter;stroke:rgb(0%,0%,0%);stroke-opacity:1;stroke-miterlimit:10;" d="M 691.253125 415.046875 L 691.253125 419.046875 M 689.753125 419.046875 L 691.253125 415.046875 L 692.753125 419.046875 " transform="matrix(1.25,0,0,1.25,-837.5,-385)"/>
<path style="fill:none;stroke-width:1;stroke-linecap:round;stroke-linejoin:round;stroke:rgb(0%,0%,0%);stroke-opacity:1;stroke-miterlimit:10;" d="M 691.253125 397.8 L 691.253125 389.8 " transform="matrix(1.25,0,0,1.25,-837.5,-385)"/>
<path style="fill:none;stroke-width:1;stroke-linecap:butt;stroke-linejoin:miter;stroke:rgb(0%,0%,0%);stroke-opacity:1;stroke-miterlimit:10;" d="M 691.253125 385.8 L 691.253125 389.8 M 689.753125 389.8 L 691.253125 385.8 L 692.753125 389.8 " transform="matrix(1.25,0,0,1.25,-837.5,-385)"/>
<path style="fill:none;stroke-width:1;stroke-linecap:round;stroke-linejoin:round;stroke:rgb(0%,0%,0%);stroke-opacity:1;stroke-miterlimit:10;" d="M 730.8 397.8 L 730.8 389.8 " transform="matrix(1.25,0,0,1.25,-837.5,-385)"/>
<path style="fill:none;stroke-width:1;stroke-linecap:butt;stroke-linejoin:miter;stroke:rgb(0%,0%,0%);stroke-opacity:1;stroke-miterlimit:10;" d="M 730.8 385.8 L 730.8 389.8 M 729.3 389.8 L 730.8 385.8 L 732.3 389.8 " transform="matrix(1.25,0,0,1.25,-837.5,-385)"/>
<path style="fill:none;stroke-width:1;stroke-linecap:round;stroke-linejoin:round;stroke:rgb(0%,0%,0%);stroke-opacity:1;stroke-miterlimit:10;" d="M 770.346875 397.8 L 770.346875 389.8 " transform="matrix(1.25,0,0,1.25,-837.5,-385)"/>
<path style="fill:none;stroke-width:1;stroke-linecap:butt;stroke-linejoin:miter;stroke:rgb(0%,0%,0%);stroke-opacity:1;stroke-miterlimit:10;" d="M 770.346875 385.8 L 770.346875 389.8 M 768.846875 389.8 L 770.346875 385.8 L 771.846875 389.8 " transform="matrix(1.25,0,0,1.25,-837.5,-385)"/>
<path style=" stroke:none;fill-rule:nonzero;fill:rgb(0%,0%,0%);fill-opacity:1;" d="M 173.757812 103.75 L 173.757812 102.246094 L 175.261719 102.246094 L 175.261719 103.75 Z M 178.757812 103.75 L 178.757812 102.246094 L 180.261719 102.246094 L 180.261719 103.75 Z M 183.757812 103.75 L 183.757812 102.246094 L 185.261719 102.246094 L 185.261719 103.75 Z M 183.757812 103.75 "/>
<path style="fill:none;stroke-width:1;stroke-linecap:round;stroke-linejoin:round;stroke:rgb(0%,0%,0%);stroke-opacity:1;stroke-miterlimit:10;" d="M 839.4 397.8 L 874.30625 397.8 L 874.30625 413.15 L 839.4 413.15 Z M 839.4 397.8 " transform="matrix(1.25,0,0,1.25,-837.5,-385)"/>
<path style=" stroke:none;fill-rule:nonzero;fill:rgb(0%,0%,0%);fill-opacity:1;" d="M 226.984375 125.40625 L 226.984375 117.359375 L 232.414062 117.359375 L 232.414062 118.296875 L 228.058594 118.296875 L 228.058594 120.796875 L 231.828125 120.796875 L 231.828125 121.753906 L 228.058594 121.753906 L 228.058594 125.40625 Z M 226.984375 125.40625 "/>
<path style=" stroke:none;fill-rule:nonzero;fill:rgb(0%,0%,0%);fill-opacity:1;" d="M 239.558594 122.574219 L 240.613281 122.847656 C 240.390625 123.722656 239.988281 124.390625 239.402344 124.859375 C 238.828125 125.320312 238.121094 125.542969 237.273438 125.542969 C 236.414062 125.542969 235.710938 125.367188 235.164062 125.015625 C 234.617188 124.664062 234.199219 124.15625 233.914062 123.492188 C 233.640625 122.820312 233.503906 122.097656 233.503906 121.324219 C 233.503906 120.480469 233.660156 119.742188 233.972656 119.117188 C 234.296875 118.492188 234.753906 118.023438 235.339844 117.710938 C 235.9375 117.390625 236.589844 117.222656 237.292969 117.222656 C 238.101562 117.222656 238.777344 117.433594 239.324219 117.847656 C 239.882812 118.253906 240.269531 118.824219 240.476562 119.566406 L 239.421875 119.800781 C 239.238281 119.214844 238.972656 118.796875 238.621094 118.53125 C 238.269531 118.257812 237.820312 118.121094 237.273438 118.121094 C 236.660156 118.121094 236.148438 118.273438 235.730469 118.570312 C 235.3125 118.875 235.019531 119.273438 234.851562 119.78125 C 234.683594 120.28125 234.597656 120.789062 234.597656 121.304688 C 234.597656 122 234.695312 122.605469 234.890625 123.121094 C 235.097656 123.628906 235.410156 124.011719 235.828125 124.253906 C 236.246094 124.503906 236.699219 124.625 237.195312 124.625 C 237.792969 124.625 238.296875 124.460938 238.699219 124.117188 C 239.117188 123.765625 239.402344 123.253906 239.558594 122.574219 Z M 239.558594 122.574219 "/>
<path style="fill-rule:nonzero;fill:rgb(40%,74.901961%,100%);fill-opacity:1;stroke-width:1;stroke-linecap:round;stroke-linejoin:round;stroke:rgb(0%,0%,0%);stroke-opacity:1;stroke-miterlimit:10;" d="M 839.4 366.4 L 953.4 366.4 L 953.4 383.9 L 839.4 383.9 Z M 839.4 366.4 " transform="matrix(1.25,0,0,1.25,-837.5,-385)"/>
<path style=" stroke:none;fill-rule:nonzero;fill:rgb(0%,0%,0%);fill-opacity:1;" d="M 260.777344 87.503906 L 263.882812 79.457031 L 265.015625 79.457031 L 268.316406 87.503906 L 267.105469 87.503906 L 266.167969 85.0625 L 262.789062 85.0625 L 261.910156 87.503906 Z M 263.101562 84.203125 L 265.835938 84.203125 L 264.996094 81.957031 C 264.730469 81.28125 264.546875 80.726562 264.429688 80.296875 C 264.320312 80.820312 264.175781 81.332031 263.980469 81.839844 Z M 263.101562 84.203125 "/>
<path style=" stroke:none;fill-rule:nonzero;fill:rgb(0%,0%,0%);fill-opacity:1;" d="M 271.210938 86.625 L 271.347656 87.484375 C 271.058594 87.546875 270.808594 87.582031 270.605469 87.582031 C 270.238281 87.582031 269.960938 87.523438 269.765625 87.40625 C 269.570312 87.289062 269.421875 87.140625 269.335938 86.957031 C 269.257812 86.777344 269.21875 86.390625 269.21875 85.804688 L 269.21875 82.445312 L 268.496094 82.445312 L 268.496094 81.664062 L 269.21875 81.664062 L 269.21875 80.21875 L 270.214844 79.632812 L 270.214844 81.664062 L 271.210938 81.664062 L 271.210938 82.445312 L 270.214844 82.445312 L 270.214844 85.84375 C 270.214844 86.132812 270.222656 86.3125 270.253906 86.390625 C 270.292969 86.46875 270.351562 86.535156 270.429688 86.585938 C 270.507812 86.640625 270.613281 86.664062 270.761719 86.664062 C 270.878906 86.664062 271.023438 86.652344 271.210938 86.625 Z M 271.210938 86.625 "/>
<path style=" stroke:none;fill-rule:nonzero;fill:rgb(0%,0%,0%);fill-opacity:1;" d="M 274.335938 86.625 L 274.472656 87.484375 C 274.183594 87.546875 273.933594 87.582031 273.730469 87.582031 C 273.363281 87.582031 273.085938 87.523438 272.890625 87.40625 C 272.695312 87.289062 272.546875 87.140625 272.460938 86.957031 C 272.382812 86.777344 272.34375 86.390625 272.34375 85.804688 L 272.34375 82.445312 L 271.621094 82.445312 L 271.621094 81.664062 L 272.34375 81.664062 L 272.34375 80.21875 L 273.339844 79.632812 L 273.339844 81.664062 L 274.335938 81.664062 L 274.335938 82.445312 L 273.339844 82.445312 L 273.339844 85.84375 C 273.339844 86.132812 273.347656 86.3125 273.378906 86.390625 C 273.417969 86.46875 273.476562 86.535156 273.554688 86.585938 C 273.632812 86.640625 273.738281 86.664062 273.886719 86.664062 C 274.003906 86.664062 274.148438 86.652344 274.335938 86.625 Z M 274.335938 86.625 "/>
<path style=" stroke:none;fill-rule:nonzero;fill:rgb(0%,0%,0%);fill-opacity:1;" d="M 279.277344 85.628906 L 280.3125 85.746094 C 280.140625 86.347656 279.835938 86.816406 279.394531 87.152344 C 278.964844 87.480469 278.410156 87.640625 277.734375 87.640625 C 276.886719 87.640625 276.210938 87.382812 275.703125 86.859375 C 275.207031 86.328125 274.960938 85.585938 274.960938 84.632812 C 274.960938 83.65625 275.214844 82.902344 275.722656 82.367188 C 276.230469 81.820312 276.886719 81.546875 277.695312 81.546875 C 278.476562 81.546875 279.105469 81.816406 279.589844 82.347656 C 280.082031 82.871094 280.332031 83.613281 280.332031 84.574219 C 280.332031 84.640625 280.332031 84.730469 280.332031 84.847656 L 275.976562 84.847656 C 276.015625 85.488281 276.195312 85.976562 276.523438 86.3125 C 276.847656 86.652344 277.257812 86.820312 277.753906 86.820312 C 278.117188 86.820312 278.421875 86.730469 278.671875 86.546875 C 278.929688 86.351562 279.132812 86.046875 279.277344 85.628906 Z M 276.035156 84.027344 L 279.296875 84.027344 C 279.257812 83.535156 279.132812 83.164062 278.925781 82.914062 C 278.613281 82.539062 278.203125 82.347656 277.695312 82.347656 C 277.238281 82.347656 276.855469 82.503906 276.542969 82.816406 C 276.242188 83.117188 276.074219 83.519531 276.035156 84.027344 Z M 276.035156 84.027344 "/>
<path style=" stroke:none;fill-rule:nonzero;fill:rgb(0%,0%,0%);fill-opacity:1;" d="M 281.550781 87.503906 L 281.550781 81.664062 L 282.449219 81.664062 L 282.449219 82.503906 C 282.863281 81.867188 283.484375 81.546875 284.304688 81.546875 C 284.65625 81.546875 284.972656 81.613281 285.261719 81.742188 C 285.558594 81.859375 285.777344 82.023438 285.925781 82.230469 C 286.066406 82.425781 286.167969 82.667969 286.238281 82.953125 C 286.277344 83.136719 286.296875 83.457031 286.296875 83.910156 L 286.296875 87.503906 L 285.300781 87.503906 L 285.300781 83.949219 C 285.300781 83.546875 285.261719 83.246094 285.183594 83.050781 C 285.105469 82.855469 284.96875 82.699219 284.773438 82.582031 C 284.578125 82.453125 284.347656 82.386719 284.089844 82.386719 C 283.667969 82.386719 283.308594 82.523438 282.996094 82.796875 C 282.691406 83.058594 282.546875 83.566406 282.546875 84.320312 L 282.546875 87.503906 Z M 281.550781 87.503906 "/>
<path style=" stroke:none;fill-rule:nonzero;fill:rgb(0%,0%,0%);fill-opacity:1;" d="M 289.976562 86.625 L 290.113281 87.484375 C 289.824219 87.546875 289.574219 87.582031 289.371094 87.582031 C 289.003906 87.582031 288.726562 87.523438 288.53125 87.40625 C 288.335938 87.289062 288.1875 87.140625 288.101562 86.957031 C 288.023438 86.777344 287.984375 86.390625 287.984375 85.804688 L 287.984375 82.445312 L 287.261719 82.445312 L 287.261719 81.664062 L 287.984375 81.664062 L 287.984375 80.21875 L 288.980469 79.632812 L 288.980469 81.664062 L 289.976562 81.664062 L 289.976562 82.445312 L 288.980469 82.445312 L 288.980469 85.84375 C 288.980469 86.132812 288.988281 86.3125 289.019531 86.390625 C 289.058594 86.46875 289.117188 86.535156 289.195312 86.585938 C 289.273438 86.640625 289.378906 86.664062 289.527344 86.664062 C 289.644531 86.664062 289.789062 86.652344 289.976562 86.625 Z M 289.976562 86.625 "/>
<path style=" stroke:none;fill-rule:nonzero;fill:rgb(0%,0%,0%);fill-opacity:1;" d="M 290.933594 80.589844 L 290.933594 79.457031 L 291.929688 79.457031 L 291.929688 80.589844 Z M 290.933594 87.503906 L 290.933594 81.664062 L 291.929688 81.664062 L 291.929688 87.503906 Z M 290.933594 87.503906 "/>
<path style=" stroke:none;fill-rule:nonzero;fill:rgb(0%,0%,0%);fill-opacity:1;" d="M 293.0625 84.59375 C 293.0625 83.515625 293.359375 82.714844 293.960938 82.191406 C 294.46875 81.761719 295.078125 81.546875 295.796875 81.546875 C 296.601562 81.546875 297.261719 81.808594 297.769531 82.328125 C 298.277344 82.851562 298.53125 83.574219 298.53125 84.496094 C 298.53125 85.253906 298.414062 85.84375 298.179688 86.273438 C 297.953125 86.703125 297.632812 87.042969 297.203125 87.289062 C 296.773438 87.523438 296.304688 87.640625 295.796875 87.640625 C 294.976562 87.640625 294.3125 87.382812 293.804688 86.859375 C 293.304688 86.328125 293.0625 85.570312 293.0625 84.59375 Z M 294.078125 84.59375 C 294.078125 85.335938 294.238281 85.898438 294.566406 86.273438 C 294.886719 86.640625 295.296875 86.820312 295.796875 86.820312 C 296.289062 86.820312 296.699219 86.640625 297.027344 86.273438 C 297.347656 85.898438 297.515625 85.324219 297.515625 84.554688 C 297.515625 83.839844 297.347656 83.292969 297.027344 82.914062 C 296.699219 82.539062 296.289062 82.347656 295.796875 82.347656 C 295.296875 82.347656 294.886719 82.539062 294.566406 82.914062 C 294.238281 83.28125 294.078125 83.839844 294.078125 84.59375 Z M 294.078125 84.59375 "/>
<path style=" stroke:none;fill-rule:nonzero;fill:rgb(0%,0%,0%);fill-opacity:1;" d="M 299.691406 87.503906 L 299.691406 81.664062 L 300.589844 81.664062 L 300.589844 82.503906 C 301.003906 81.867188 301.625 81.546875 302.445312 81.546875 C 302.796875 81.546875 303.113281 81.613281 303.402344 81.742188 C 303.699219 81.859375 303.917969 82.023438 304.066406 82.230469 C 304.207031 82.425781 304.308594 82.667969 304.378906 82.953125 C 304.417969 83.136719 304.4375 83.457031 304.4375 83.910156 L 304.4375 87.503906 L 303.441406 87.503906 L 303.441406 83.949219 C 303.441406 83.546875 303.402344 83.246094 303.324219 83.050781 C 303.246094 82.855469 303.109375 82.699219 302.914062 82.582031 C 302.71875 82.453125 302.488281 82.386719 302.230469 82.386719 C 301.808594 82.386719 301.449219 82.523438 301.136719 82.796875 C 300.832031 83.058594 300.6875 83.566406 300.6875 84.320312 L 300.6875 87.503906 Z M 299.691406 87.503906 "/>
<path style="fill:none;stroke-width:1;stroke-linecap:round;stroke-linejoin:round;stroke:rgb(0%,0%,0%);stroke-opacity:1;stroke-miterlimit:10;" d="M 878.95 397.8 L 913.85 397.8 L 913.85 413.15 L 878.95 413.15 Z M 878.95 397.8 " transform="matrix(1.25,0,0,1.25,-837.5,-385)"/>
<path style=" stroke:none;fill-rule:nonzero;fill:rgb(0%,0%,0%);fill-opacity:1;" d="M 276.417969 125.40625 L 276.417969 117.359375 L 281.847656 117.359375 L 281.847656 118.296875 L 277.492188 118.296875 L 277.492188 120.796875 L 281.261719 120.796875 L 281.261719 121.753906 L 277.492188 121.753906 L 277.492188 125.40625 Z M 276.417969 125.40625 "/>
<path style=" stroke:none;fill-rule:nonzero;fill:rgb(0%,0%,0%);fill-opacity:1;" d="M 288.996094 122.574219 L 290.050781 122.847656 C 289.824219 123.722656 289.425781 124.390625 288.839844 124.859375 C 288.261719 125.320312 287.554688 125.542969 286.710938 125.542969 C 285.851562 125.542969 285.148438 125.367188 284.601562 125.015625 C 284.054688 124.664062 283.632812 124.15625 283.351562 123.492188 C 283.078125 122.820312 282.941406 122.097656 282.941406 121.324219 C 282.941406 120.480469 283.097656 119.742188 283.410156 119.117188 C 283.730469 118.492188 284.191406 118.023438 284.777344 117.710938 C 285.371094 117.390625 286.027344 117.222656 286.730469 117.222656 C 287.535156 117.222656 288.214844 117.433594 288.761719 117.847656 C 289.316406 118.253906 289.703125 118.824219 289.914062 119.566406 L 288.859375 119.800781 C 288.671875 119.214844 288.410156 118.796875 288.058594 118.53125 C 287.707031 118.257812 287.257812 118.121094 286.710938 118.121094 C 286.09375 118.121094 285.582031 118.273438 285.167969 118.570312 C 284.746094 118.875 284.453125 119.273438 284.289062 119.78125 C 284.117188 120.28125 284.035156 120.789062 284.035156 121.304688 C 284.035156 122 284.132812 122.605469 284.328125 123.121094 C 284.53125 123.628906 284.84375 124.011719 285.265625 124.253906 C 285.679688 124.503906 286.132812 124.625 286.632812 124.625 C 287.226562 124.625 287.730469 124.460938 288.136719 124.117188 C 288.550781 123.765625 288.839844 123.253906 288.996094 122.574219 Z M 288.996094 122.574219 "/>
<path style="fill:none;stroke-width:1;stroke-linecap:round;stroke-linejoin:round;stroke:rgb(0%,0%,0%);stroke-opacity:1;stroke-miterlimit:10;" d="M 918.496875 397.8 L 953.4 397.8 L 953.4 413.15 L 918.496875 413.15 Z M 918.496875 397.8 " transform="matrix(1.25,0,0,1.25,-837.5,-385)"/>
<path style=" stroke:none;fill-rule:nonzero;fill:rgb(0%,0%,0%);fill-opacity:1;" d="M 325.855469 125.40625 L 325.855469 117.359375 L 331.285156 117.359375 L 331.285156 118.296875 L 326.929688 118.296875 L 326.929688 120.796875 L 330.699219 120.796875 L 330.699219 121.753906 L 326.929688 121.753906 L 326.929688 125.40625 Z M 325.855469 125.40625 "/>
<path style=" stroke:none;fill-rule:nonzero;fill:rgb(0%,0%,0%);fill-opacity:1;" d="M 338.429688 122.574219 L 339.484375 122.847656 C 339.257812 123.722656 338.859375 124.390625 338.273438 124.859375 C 337.695312 125.320312 336.988281 125.542969 336.144531 125.542969 C 335.285156 125.542969 334.582031 125.367188 334.035156 125.015625 C 333.488281 124.664062 333.066406 124.15625 332.785156 123.492188 C 332.511719 122.820312 332.375 122.097656 332.375 121.324219 C 332.375 120.480469 332.53125 119.742188 332.84375 119.117188 C 333.164062 118.492188 333.625 118.023438 334.210938 117.710938 C 334.804688 117.390625 335.460938 117.222656 336.164062 117.222656 C 336.96875 117.222656 337.648438 117.433594 338.195312 117.847656 C 338.75 118.253906 339.136719 118.824219 339.347656 119.566406 L 338.292969 119.800781 C 338.105469 119.214844 337.84375 118.796875 337.492188 118.53125 C 337.140625 118.257812 336.691406 118.121094 336.144531 118.121094 C 335.527344 118.121094 335.015625 118.273438 334.601562 118.570312 C 334.179688 118.875 333.886719 119.273438 333.722656 119.78125 C 333.550781 120.28125 333.46875 120.789062 333.46875 121.304688 C 333.46875 122 333.566406 122.605469 333.761719 123.121094 C 333.964844 123.628906 334.277344 124.011719 334.699219 124.253906 C 335.113281 124.503906 335.566406 124.625 336.066406 124.625 C 336.660156 124.625 337.164062 124.460938 337.570312 124.117188 C 337.984375 123.765625 338.273438 123.253906 338.429688 122.574219 Z M 338.429688 122.574219 "/>
<path style="fill:none;stroke-width:1;stroke-linecap:round;stroke-linejoin:round;stroke:rgb(0%,0%,0%);stroke-opacity:1;stroke-miterlimit:10;" d="M 856.85 397.8 L 856.85 389.8 " transform="matrix(1.25,0,0,1.25,-837.5,-385)"/>
<path style="fill:none;stroke-width:1;stroke-linecap:butt;stroke-linejoin:miter;stroke:rgb(0%,0%,0%);stroke-opacity:1;stroke-miterlimit:10;" d="M 856.85 385.8 L 856.85 389.8 M 855.35 389.8 L 856.85 385.8 L 858.35 389.8 " transform="matrix(1.25,0,0,1.25,-837.5,-385)"/>
<path style="fill:none;stroke-width:1;stroke-linecap:round;stroke-linejoin:round;stroke:rgb(0%,0%,0%);stroke-opacity:1;stroke-miterlimit:10;" d="M 896.4 397.8 L 896.4 389.8 " transform="matrix(1.25,0,0,1.25,-837.5,-385)"/>
<path style="fill:none;stroke-width:1;stroke-linecap:butt;stroke-linejoin:miter;stroke:rgb(0%,0%,0%);stroke-opacity:1;stroke-miterlimit:10;" d="M 896.4 385.8 L 896.4 389.8 M 894.9 389.8 L 896.4 385.8 L 897.9 389.8 " transform="matrix(1.25,0,0,1.25,-837.5,-385)"/>
<path style="fill:none;stroke-width:1;stroke-linecap:round;stroke-linejoin:round;stroke:rgb(0%,0%,0%);stroke-opacity:1;stroke-miterlimit:10;" d="M 935.95 397.8 L 935.95 389.8 " transform="matrix(1.25,0,0,1.25,-837.5,-385)"/>
<path style="fill:none;stroke-width:1;stroke-linecap:butt;stroke-linejoin:miter;stroke:rgb(0%,0%,0%);stroke-opacity:1;stroke-miterlimit:10;" d="M 935.95 385.8 L 935.95 389.8 M 934.45 389.8 L 935.95 385.8 L 937.45 389.8 " transform="matrix(1.25,0,0,1.25,-837.5,-385)"/>
<path style="fill-rule:nonzero;fill:rgb(69.803922%,85.098039%,100%);fill-opacity:1;stroke-width:1;stroke-linecap:round;stroke-linejoin:round;stroke:rgb(0%,0%,0%);stroke-opacity:1;stroke-miterlimit:10;" d="M 780.2 337.6 L 847 337.6 L 847 355.1 L 780.2 355.1 Z M 780.2 337.6 " transform="matrix(1.25,0,0,1.25,-837.5,-385)"/>
<path style=" stroke:none;fill-rule:nonzero;fill:rgb(0%,0%,0%);fill-opacity:1;" d="M 168.296875 48.671875 L 169.351562 48.945312 C 169.128906 49.820312 168.726562 50.488281 168.140625 50.957031 C 167.566406 51.414062 166.859375 51.640625 166.011719 51.640625 C 165.152344 51.640625 164.449219 51.464844 163.902344 51.113281 C 163.355469 50.761719 162.9375 50.253906 162.652344 49.589844 C 162.378906 48.914062 162.242188 48.191406 162.242188 47.421875 C 162.242188 46.578125 162.398438 45.839844 162.710938 45.214844 C 163.035156 44.589844 163.492188 44.121094 164.078125 43.808594 C 164.675781 43.484375 165.328125 43.320312 166.03125 43.320312 C 166.839844 43.320312 167.515625 43.53125 168.0625 43.945312 C 168.621094 44.351562 169.007812 44.921875 169.214844 45.664062 L 168.160156 45.898438 C 167.976562 45.3125 167.710938 44.890625 167.359375 44.628906 C 167.007812 44.355469 166.558594 44.21875 166.011719 44.21875 C 165.398438 44.21875 164.886719 44.371094 164.46875 44.667969 C 164.050781 44.96875 163.757812 45.371094 163.589844 45.878906 C 163.421875 46.375 163.335938 46.882812 163.335938 47.402344 C 163.335938 48.09375 163.433594 48.699219 163.628906 49.21875 C 163.835938 49.726562 164.148438 50.105469 164.566406 50.351562 C 164.984375 50.601562 165.4375 50.722656 165.933594 50.722656 C 166.53125 50.722656 167.035156 50.554688 167.4375 50.214844 C 167.855469 49.863281 168.140625 49.351562 168.296875 48.671875 Z M 168.296875 48.671875 "/>
<path style=" stroke:none;fill-rule:nonzero;fill:rgb(0%,0%,0%);fill-opacity:1;" d="M 170.171875 48.59375 C 170.171875 47.515625 170.472656 46.714844 171.070312 46.191406 C 171.578125 45.761719 172.191406 45.546875 172.90625 45.546875 C 173.714844 45.546875 174.371094 45.808594 174.878906 46.328125 C 175.386719 46.851562 175.640625 47.574219 175.640625 48.496094 C 175.640625 49.253906 175.523438 49.84375 175.289062 50.273438 C 175.066406 50.703125 174.742188 51.042969 174.3125 51.289062 C 173.882812 51.523438 173.414062 51.640625 172.90625 51.640625 C 172.085938 51.640625 171.421875 51.382812 170.914062 50.859375 C 170.417969 50.328125 170.171875 49.570312 170.171875 48.59375 Z M 171.1875 48.59375 C 171.1875 49.335938 171.351562 49.898438 171.675781 50.273438 C 172 50.640625 172.410156 50.820312 172.90625 50.820312 C 173.402344 50.820312 173.8125 50.640625 174.136719 50.273438 C 174.460938 49.898438 174.625 49.324219 174.625 48.554688 C 174.625 47.839844 174.460938 47.292969 174.136719 46.914062 C 173.8125 46.539062 173.402344 46.347656 172.90625 46.347656 C 172.410156 46.347656 172 46.539062 171.675781 46.914062 C 171.351562 47.28125 171.1875 47.839844 171.1875 48.59375 Z M 171.1875 48.59375 "/>
<path style=" stroke:none;fill-rule:nonzero;fill:rgb(0%,0%,0%);fill-opacity:1;" d="M 176.800781 51.503906 L 176.800781 45.664062 L 177.699219 45.664062 L 177.699219 46.503906 C 178.113281 45.867188 178.734375 45.546875 179.554688 45.546875 C 179.90625 45.546875 180.222656 45.613281 180.511719 45.742188 C 180.808594 45.859375 181.03125 46.023438 181.175781 46.230469 C 181.316406 46.425781 181.421875 46.667969 181.488281 46.953125 C 181.527344 47.136719 181.546875 47.457031 181.546875 47.910156 L 181.546875 51.503906 L 180.550781 51.503906 L 180.550781 47.949219 C 180.550781 47.546875 180.511719 47.246094 180.433594 47.050781 C 180.355469 46.855469 180.21875 46.699219 180.023438 46.582031 C 179.828125 46.453125 179.597656 46.386719 179.339844 46.386719 C 178.921875 46.386719 178.558594 46.523438 178.246094 46.796875 C 177.945312 47.058594 177.796875 47.566406 177.796875 48.320312 L 177.796875 51.503906 Z M 176.800781 51.503906 "/>
<path style=" stroke:none;fill-rule:nonzero;fill:rgb(0%,0%,0%);fill-opacity:1;" d="M 186.867188 49.375 L 187.84375 49.492188 C 187.738281 50.171875 187.464844 50.699219 187.023438 51.074219 C 186.578125 51.453125 186.039062 51.640625 185.402344 51.640625 C 184.605469 51.640625 183.96875 51.382812 183.488281 50.859375 C 183.003906 50.339844 182.765625 49.589844 182.765625 48.613281 C 182.765625 47.976562 182.867188 47.421875 183.078125 46.953125 C 183.285156 46.484375 183.597656 46.132812 184.015625 45.898438 C 184.445312 45.664062 184.914062 45.546875 185.421875 45.546875 C 186.046875 45.546875 186.558594 45.710938 186.964844 46.035156 C 187.367188 46.347656 187.628906 46.796875 187.746094 47.382812 L 186.789062 47.539062 C 186.695312 47.148438 186.535156 46.855469 186.300781 46.660156 C 186.066406 46.453125 185.785156 46.347656 185.460938 46.347656 C 184.953125 46.347656 184.542969 46.53125 184.230469 46.894531 C 183.929688 47.246094 183.78125 47.808594 183.78125 48.574219 C 183.78125 49.371094 183.929688 49.941406 184.230469 50.292969 C 184.527344 50.644531 184.917969 50.820312 185.402344 50.820312 C 185.792969 50.820312 186.117188 50.703125 186.378906 50.46875 C 186.636719 50.234375 186.800781 49.871094 186.867188 49.375 Z M 186.867188 49.375 "/>
<path style=" stroke:none;fill-rule:nonzero;fill:rgb(0%,0%,0%);fill-opacity:1;" d="M 192.492188 50.78125 C 192.125 51.09375 191.773438 51.316406 191.4375 51.445312 C 191.097656 51.570312 190.734375 51.640625 190.34375 51.640625 C 189.703125 51.640625 189.210938 51.484375 188.859375 51.171875 C 188.519531 50.859375 188.351562 50.457031 188.351562 49.960938 C 188.351562 49.675781 188.414062 49.414062 188.546875 49.179688 C 188.675781 48.945312 188.84375 48.757812 189.054688 48.613281 C 189.261719 48.472656 189.496094 48.359375 189.757812 48.28125 C 189.953125 48.242188 190.246094 48.199219 190.636719 48.144531 C 191.441406 48.054688 192.035156 47.9375 192.414062 47.792969 C 192.414062 47.664062 192.414062 47.578125 192.414062 47.539062 C 192.414062 47.136719 192.320312 46.855469 192.140625 46.699219 C 191.878906 46.464844 191.5 46.347656 191.007812 46.347656 C 190.539062 46.347656 190.191406 46.433594 189.972656 46.601562 C 189.75 46.757812 189.585938 47.046875 189.484375 47.460938 L 188.527344 47.34375 C 188.605469 46.929688 188.742188 46.597656 188.9375 46.347656 C 189.144531 46.089844 189.4375 45.894531 189.816406 45.761719 C 190.207031 45.621094 190.648438 45.546875 191.144531 45.546875 C 191.652344 45.546875 192.054688 45.605469 192.355469 45.722656 C 192.667969 45.839844 192.894531 45.992188 193.039062 46.171875 C 193.195312 46.34375 193.296875 46.5625 193.351562 46.835938 C 193.390625 47.007812 193.410156 47.304688 193.410156 47.734375 L 193.410156 49.0625 C 193.410156 49.976562 193.429688 50.554688 193.46875 50.800781 C 193.507812 51.050781 193.589844 51.285156 193.722656 51.503906 L 192.6875 51.503906 C 192.582031 51.296875 192.515625 51.054688 192.492188 50.78125 Z M 192.414062 48.574219 C 192.046875 48.71875 191.507812 48.84375 190.792969 48.945312 C 190.386719 49.011719 190.101562 49.082031 189.933594 49.160156 C 189.761719 49.226562 189.632812 49.332031 189.542969 49.472656 C 189.449219 49.617188 189.40625 49.773438 189.40625 49.941406 C 189.40625 50.203125 189.503906 50.425781 189.699219 50.605469 C 189.894531 50.777344 190.1875 50.859375 190.578125 50.859375 C 190.953125 50.859375 191.292969 50.777344 191.59375 50.605469 C 191.890625 50.4375 192.113281 50.210938 192.257812 49.921875 C 192.359375 49.703125 192.414062 49.375 192.414062 48.945312 Z M 192.414062 48.574219 "/>
<path style=" stroke:none;fill-rule:nonzero;fill:rgb(0%,0%,0%);fill-opacity:1;" d="M 197.109375 50.625 L 197.246094 51.484375 C 196.957031 51.546875 196.707031 51.582031 196.503906 51.582031 C 196.136719 51.582031 195.859375 51.523438 195.664062 51.40625 C 195.46875 51.289062 195.320312 51.140625 195.234375 50.957031 C 195.15625 50.777344 195.117188 50.390625 195.117188 49.804688 L 195.117188 46.445312 L 194.394531 46.445312 L 194.394531 45.664062 L 195.117188 45.664062 L 195.117188 44.21875 L 196.113281 43.632812 L 196.113281 45.664062 L 197.109375 45.664062 L 197.109375 46.445312 L 196.113281 46.445312 L 196.113281 49.84375 C 196.113281 50.132812 196.121094 50.3125 196.152344 50.390625 C 196.191406 50.46875 196.25 50.535156 196.328125 50.585938 C 196.40625 50.640625 196.511719 50.664062 196.660156 50.664062 C 196.777344 50.664062 196.921875 50.652344 197.109375 50.625 Z M 197.109375 50.625 "/>
<path style="fill:none;stroke-width:1;stroke-linecap:round;stroke-linejoin:round;stroke:rgb(0%,0%,0%);stroke-opacity:1;stroke-miterlimit:10;" d="M 730.8 366.4 L 730.8 349.54375 C 730.8 347.33125 732.590625 345.54375 734.8 345.54375 C 734.8125 345.54375 734.828125 345.54375 734.840625 345.54375 L 774.3 345.94375 " transform="matrix(1.25,0,0,1.25,-837.5,-385)"/>
<path style="fill:none;stroke-width:1;stroke-linecap:butt;stroke-linejoin:miter;stroke:rgb(0%,0%,0%);stroke-opacity:1;stroke-miterlimit:10;" d="M 778.3 345.9875 L 774.3 345.94375 M 774.315625 344.44375 L 778.3 345.9875 L 774.284375 347.44375 " transform="matrix(1.25,0,0,1.25,-837.5,-385)"/>
<path style="fill:none;stroke-width:1;stroke-linecap:round;stroke-linejoin:round;stroke:rgb(0%,0%,0%);stroke-opacity:1;stroke-miterlimit:10;" d="M 896.4 366.4 L 896.4 350.015625 C 896.4 347.809375 894.609375 346.015625 892.4 346.015625 C 892.39375 346.015625 892.390625 346.015625 892.38125 346.015625 L 852.9 346.184375 " transform="matrix(1.25,0,0,1.25,-837.5,-385)"/>
<path style="fill:none;stroke-width:1;stroke-linecap:butt;stroke-linejoin:miter;stroke:rgb(0%,0%,0%);stroke-opacity:1;stroke-miterlimit:10;" d="M 848.9 346.2 L 852.9 346.184375 M 852.90625 347.684375 L 848.9 346.2 L 852.89375 344.684375 " transform="matrix(1.25,0,0,1.25,-837.5,-385)"/>
<path style="fill:none;stroke-width:1;stroke-linecap:round;stroke-linejoin:round;stroke:rgb(0%,0%,0%);stroke-opacity:1;stroke-miterlimit:10;" d="M 780.2 308.8 L 847 308.8 L 847 326.3 L 780.2 326.3 Z M 780.2 308.8 " transform="matrix(1.25,0,0,1.25,-837.5,-385)"/>
<path style=" stroke:none;fill-rule:nonzero;fill:rgb(0%,0%,0%);fill-opacity:1;" d="M 172.917969 15.503906 L 172.917969 7.457031 L 178.347656 7.457031 L 178.347656 8.394531 L 173.992188 8.394531 L 173.992188 10.894531 L 177.761719 10.894531 L 177.761719 11.851562 L 173.992188 11.851562 L 173.992188 15.503906 Z M 172.917969 15.503906 "/>
<path style=" stroke:none;fill-rule:nonzero;fill:rgb(0%,0%,0%);fill-opacity:1;" d="M 185.496094 12.671875 L 186.550781 12.945312 C 186.324219 13.820312 185.925781 14.488281 185.339844 14.957031 C 184.761719 15.414062 184.054688 15.640625 183.210938 15.640625 C 182.351562 15.640625 181.648438 15.464844 181.101562 15.113281 C 180.554688 14.761719 180.132812 14.253906 179.851562 13.589844 C 179.578125 12.914062 179.441406 12.191406 179.441406 11.421875 C 179.441406 10.578125 179.597656 9.839844 179.910156 9.214844 C 180.230469 8.589844 180.691406 8.121094 181.277344 7.808594 C 181.871094 7.484375 182.527344 7.320312 183.230469 7.320312 C 184.035156 7.320312 184.714844 7.53125 185.261719 7.945312 C 185.816406 8.351562 186.203125 8.921875 186.414062 9.664062 L 185.359375 9.898438 C 185.171875 9.3125 184.910156 8.890625 184.558594 8.628906 C 184.207031 8.355469 183.757812 8.21875 183.210938 8.21875 C 182.59375 8.21875 182.082031 8.371094 181.667969 8.667969 C 181.246094 8.96875 180.953125 9.371094 180.789062 9.878906 C 180.617188 10.375 180.535156 10.882812 180.535156 11.402344 C 180.535156 12.09375 180.632812 12.699219 180.828125 13.21875 C 181.03125 13.726562 181.34375 14.105469 181.765625 14.351562 C 182.179688 14.601562 182.632812 14.722656 183.132812 14.722656 C 183.726562 14.722656 184.230469 14.554688 184.636719 14.214844 C 185.050781 13.863281 185.339844 13.351562 185.496094 12.671875 Z M 185.496094 12.671875 "/>
<path style="fill:none;stroke-width:1;stroke-linecap:round;stroke-linejoin:round;stroke:rgb(0%,0%,0%);stroke-opacity:1;stroke-miterlimit:10;" d="M 813.6 337.6 L 813.6 332.2 " transform="matrix(1.25,0,0,1.25,-837.5,-385)"/>
<path style="fill:none;stroke-width:1;stroke-linecap:butt;stroke-linejoin:miter;stroke:rgb(0%,0%,0%);stroke-opacity:1;stroke-miterlimit:10;" d="M 813.6 328.2 L 813.6 332.2 M 812.1 332.2 L 813.6 328.2 L 815.1 332.2 " transform="matrix(1.25,0,0,1.25,-837.5,-385)"/>
<path style="fill:none;stroke-width:1;stroke-linecap:round;stroke-linejoin:round;stroke:rgb(0%,0%,0%);stroke-opacity:1;stroke-miterlimit:10;" d="M 691.253125 426.01875 L 725.3 426.01875 M 736.3 426.01875 L 764.846875 426.01875 M 775.846875 426.01875 L 853.171875 426.01875 C 855.38125 426.01875 857.171875 424.23125 857.171875 422.01875 C 857.171875 421.99375 857.171875 421.96875 857.171875 421.940625 L 857.1125 419.046875 " transform="matrix(1.25,0,0,1.25,-837.5,-385)"/>
<path style="fill:none;stroke-width:1;stroke-linecap:butt;stroke-linejoin:miter;stroke:rgb(0%,0%,0%);stroke-opacity:1;stroke-miterlimit:10;" d="M 857.0375 415.046875 L 857.1125 419.046875 M 855.6125 419.075 L 857.0375 415.046875 L 858.6125 419.015625 " transform="matrix(1.25,0,0,1.25,-837.5,-385)"/>
<path style="fill:none;stroke-width:1;stroke-linecap:round;stroke-linejoin:round;stroke:rgb(0%,0%,0%);stroke-opacity:1;stroke-miterlimit:10;" d="M 730.8 431.190625 L 764.846875 431.190625 M 775.846875 431.190625 L 892.275 431.190625 C 894.471875 431.190625 896.2625 429.4125 896.275 427.215625 L 896.31875 419.046875 " transform="matrix(1.25,0,0,1.25,-837.5,-385)"/>
<path style="fill:none;stroke-width:1;stroke-linecap:butt;stroke-linejoin:miter;stroke:rgb(0%,0%,0%);stroke-opacity:1;stroke-miterlimit:10;" d="M 896.34375 415.046875 L 896.31875 419.046875 M 894.81875 419.0375 L 896.34375 415.046875 L 897.81875 419.05625 " transform="matrix(1.25,0,0,1.25,-837.5,-385)"/>
<path style="fill:none;stroke-width:1;stroke-linecap:round;stroke-linejoin:round;stroke:rgb(0%,0%,0%);stroke-opacity:1;stroke-miterlimit:10;" d="M 770.346875 436.25 L 932.2125 436.25 C 934.41875 436.25 936.2125 434.4625 936.2125 432.25 C 936.2125 432.2375 936.2125 432.221875 936.2125 432.2125 L 936.08125 419.046875 " transform="matrix(1.25,0,0,1.25,-837.5,-385)"/>
<path style="fill:none;stroke-width:1;stroke-linecap:butt;stroke-linejoin:miter;stroke:rgb(0%,0%,0%);stroke-opacity:1;stroke-miterlimit:10;" d="M 936.04375 415.046875 L 936.08125 419.046875 M 934.58125 419.0625 L 936.04375 415.046875 L 937.58125 419.03125 " transform="matrix(1.25,0,0,1.25,-837.5,-385)"/>
<path style="fill:none;stroke-width:1;stroke-linecap:round;stroke-linejoin:round;stroke:rgb(0%,0%,0%);stroke-opacity:1;stroke-miterlimit:10;" d="M 770.346875 439.6 L 770.346875 419.046875 " transform="matrix(1.25,0,0,1.25,-837.5,-385)"/>
<path style="fill:none;stroke-width:1;stroke-linecap:butt;stroke-linejoin:miter;stroke:rgb(0%,0%,0%);stroke-opacity:1;stroke-miterlimit:10;" d="M 770.346875 415.046875 L 770.346875 419.046875 M 768.846875 419.046875 L 770.346875 415.046875 L 771.846875 419.046875 " transform="matrix(1.25,0,0,1.25,-837.5,-385)"/>
<path style="fill:none;stroke-width:1;stroke-linecap:round;stroke-linejoin:round;stroke:rgb(0%,0%,0%);stroke-opacity:1;stroke-miterlimit:10;" d="M 730.8 439.6 L 730.8 419.046875 " transform="matrix(1.25,0,0,1.25,-837.5,-385)"/>
<path style="fill:none;stroke-width:1;stroke-linecap:butt;stroke-linejoin:miter;stroke:rgb(0%,0%,0%);stroke-opacity:1;stroke-miterlimit:10;" d="M 730.8 415.046875 L 730.8 419.046875 M 729.3 419.046875 L 730.8 415.046875 L 732.3 419.046875 " transform="matrix(1.25,0,0,1.25,-837.5,-385)"/>
</g>
</svg>
