<?xml version="1.0" encoding="UTF-8"?>
<svg xmlns="http://www.w3.org/2000/svg" xmlns:xlink="http://www.w3.org/1999/xlink" width="380pt" height="170pt" viewBox="0 0 380 170" version="1.1">
<defs>
<clipPath id="clip1">
  <path d="M 15 81.460938 L 20.9375 81.460938 L 20.9375 87.398438 L 15 87.398438 Z M 15 81.460938 "/>
</clipPath>
<clipPath id="clip2">
  <path d="M 358.375 81.460938 L 364.3125 81.460938 L 364.3125 87.398438 L 358.375 87.398438 Z M 358.375 81.460938 "/>
</clipPath>
</defs>
<g id="surface1">
<path style="fill:none;stroke-width:1;stroke-linecap:round;stroke-linejoin:round;stroke:rgb(0%,0%,0%);stroke-opacity:1;stroke-miterlimit:10;" d="M 397.6 544.45625 L 475.203125 544.45625 L 475.203125 562.45625 L 397.6 562.45625 Z M 397.6 544.45625 " transform="matrix(1.25,0,0,1.25,-465,-567.5)"/>
<path style=" stroke:none;fill-rule:nonzero;fill:rgb(0%,0%,0%);fill-opacity:1;" d="M 52.941406 127.886719 L 52.941406 119.839844 L 58.761719 119.839844 L 58.761719 120.777344 L 53.996094 120.777344 L 53.996094 123.257812 L 58.449219 123.257812 L 58.449219 124.195312 L 53.996094 124.195312 L 53.996094 126.929688 L 58.9375 126.929688 L 58.9375 127.886719 Z M 52.941406 127.886719 "/>
<path style=" stroke:none;fill-rule:nonzero;fill:rgb(0%,0%,0%);fill-opacity:1;" d="M 60.289062 127.886719 L 60.289062 122.046875 L 61.167969 122.046875 L 61.167969 122.867188 C 61.347656 122.582031 61.589844 122.351562 61.890625 122.183594 C 62.203125 122.015625 62.554688 121.929688 62.945312 121.929688 C 63.375 121.929688 63.726562 122.019531 64 122.203125 C 64.273438 122.371094 64.46875 122.621094 64.585938 122.945312 C 65.054688 122.269531 65.652344 121.929688 66.382812 121.929688 C 66.96875 121.929688 67.417969 122.09375 67.730469 122.417969 C 68.042969 122.730469 68.199219 123.21875 68.199219 123.882812 L 68.199219 127.886719 L 67.203125 127.886719 L 67.203125 124.214844 C 67.203125 123.8125 67.167969 123.523438 67.105469 123.355469 C 67.050781 123.1875 66.941406 123.050781 66.773438 122.945312 C 66.601562 122.828125 66.402344 122.769531 66.167969 122.769531 C 65.761719 122.769531 65.425781 122.90625 65.152344 123.179688 C 64.878906 123.453125 64.742188 123.890625 64.742188 124.488281 L 64.742188 127.886719 L 63.746094 127.886719 L 63.746094 124.097656 C 63.746094 123.65625 63.667969 123.324219 63.511719 123.101562 C 63.355469 122.878906 63.09375 122.769531 62.730469 122.769531 C 62.441406 122.769531 62.183594 122.847656 61.949219 123.003906 C 61.714844 123.148438 61.542969 123.363281 61.441406 123.648438 C 61.335938 123.921875 61.285156 124.324219 61.285156 124.859375 L 61.285156 127.886719 Z M 60.289062 127.886719 "/>
<path style=" stroke:none;fill-rule:nonzero;fill:rgb(0%,0%,0%);fill-opacity:1;" d="M 70.578125 127.886719 L 69.660156 127.886719 L 69.660156 119.839844 L 70.636719 119.839844 L 70.636719 122.710938 C 71.050781 122.191406 71.585938 121.929688 72.238281 121.929688 C 72.601562 121.929688 72.941406 122 73.253906 122.144531 C 73.578125 122.289062 73.84375 122.488281 74.054688 122.75 C 74.261719 123.011719 74.425781 123.328125 74.542969 123.707031 C 74.660156 124.070312 74.71875 124.460938 74.71875 124.878906 C 74.71875 125.882812 74.46875 126.65625 73.976562 127.203125 C 73.480469 127.75 72.886719 128.023438 72.199219 128.023438 C 71.507812 128.023438 70.96875 127.738281 70.578125 127.164062 Z M 70.558594 124.917969 C 70.558594 125.621094 70.65625 126.128906 70.851562 126.441406 C 71.164062 126.949219 71.578125 127.203125 72.101562 127.203125 C 72.542969 127.203125 72.921875 127.015625 73.234375 126.636719 C 73.546875 126.257812 73.703125 125.699219 73.703125 124.957031 C 73.703125 124.203125 73.550781 123.640625 73.253906 123.277344 C 72.953125 122.914062 72.589844 122.730469 72.160156 122.730469 C 71.714844 122.730469 71.339844 122.917969 71.027344 123.296875 C 70.714844 123.675781 70.558594 124.214844 70.558594 124.917969 Z M 70.558594 124.917969 "/>
<path style=" stroke:none;fill-rule:nonzero;fill:rgb(0%,0%,0%);fill-opacity:1;" d="M 79.902344 126.011719 L 80.9375 126.128906 C 80.765625 126.726562 80.457031 127.195312 80.019531 127.535156 C 79.589844 127.859375 79.03125 128.023438 78.359375 128.023438 C 77.507812 128.023438 76.835938 127.761719 76.328125 127.242188 C 75.828125 126.707031 75.585938 125.964844 75.585938 125.015625 C 75.585938 124.039062 75.839844 123.285156 76.347656 122.75 C 76.855469 122.203125 77.507812 121.929688 78.320312 121.929688 C 79.101562 121.929688 79.730469 122.195312 80.214844 122.730469 C 80.707031 123.25 80.957031 123.992188 80.957031 124.957031 C 80.957031 125.023438 80.957031 125.113281 80.957031 125.230469 L 76.601562 125.230469 C 76.640625 125.867188 76.820312 126.355469 77.148438 126.695312 C 77.46875 127.035156 77.878906 127.203125 78.378906 127.203125 C 78.738281 127.203125 79.046875 127.113281 79.296875 126.929688 C 79.554688 126.734375 79.753906 126.429688 79.902344 126.011719 Z M 76.660156 124.410156 L 79.921875 124.410156 C 79.882812 123.914062 79.753906 123.542969 79.550781 123.296875 C 79.238281 122.917969 78.828125 122.730469 78.320312 122.730469 C 77.859375 122.730469 77.480469 122.886719 77.167969 123.199219 C 76.863281 123.5 76.699219 123.902344 76.660156 124.410156 Z M 76.660156 124.410156 "/>
<path style=" stroke:none;fill-rule:nonzero;fill:rgb(0%,0%,0%);fill-opacity:1;" d="M 85.964844 127.886719 L 85.964844 127.144531 C 85.582031 127.730469 85.035156 128.023438 84.324219 128.023438 C 83.863281 128.023438 83.445312 127.890625 83.054688 127.632812 C 82.664062 127.371094 82.355469 127.015625 82.136719 126.558594 C 81.925781 126.101562 81.824219 125.574219 81.824219 124.976562 C 81.824219 124.390625 81.921875 123.863281 82.117188 123.394531 C 82.3125 122.914062 82.59375 122.546875 82.976562 122.300781 C 83.367188 122.054688 83.800781 121.929688 84.285156 121.929688 C 84.636719 121.929688 84.949219 122 85.222656 122.144531 C 85.496094 122.289062 85.714844 122.484375 85.886719 122.730469 L 85.886719 119.839844 L 86.882812 119.839844 L 86.882812 127.886719 Z M 82.839844 124.976562 C 82.839844 125.71875 82.996094 126.277344 83.308594 126.65625 C 83.621094 127.019531 83.992188 127.203125 84.421875 127.203125 C 84.851562 127.203125 85.210938 127.027344 85.515625 126.675781 C 85.828125 126.324219 85.984375 125.785156 85.984375 125.054688 C 85.984375 124.261719 85.828125 123.675781 85.515625 123.296875 C 85.203125 122.917969 84.820312 122.730469 84.382812 122.730469 C 83.9375 122.730469 83.566406 122.914062 83.269531 123.277344 C 82.980469 123.640625 82.839844 124.207031 82.839844 124.976562 Z M 82.839844 124.976562 "/>
<path style=" stroke:none;fill-rule:nonzero;fill:rgb(0%,0%,0%);fill-opacity:1;" d="M 92.222656 127.886719 L 92.222656 127.144531 C 91.839844 127.730469 91.292969 128.023438 90.582031 128.023438 C 90.121094 128.023438 89.703125 127.890625 89.3125 127.632812 C 88.921875 127.371094 88.613281 127.015625 88.394531 126.558594 C 88.183594 126.101562 88.082031 125.574219 88.082031 124.976562 C 88.082031 124.390625 88.179688 123.863281 88.375 123.394531 C 88.570312 122.914062 88.851562 122.546875 89.234375 122.300781 C 89.625 122.054688 90.058594 121.929688 90.542969 121.929688 C 90.894531 121.929688 91.207031 122 91.480469 122.144531 C 91.753906 122.289062 91.972656 122.484375 92.144531 122.730469 L 92.144531 119.839844 L 93.140625 119.839844 L 93.140625 127.886719 Z M 89.097656 124.976562 C 89.097656 125.71875 89.253906 126.277344 89.566406 126.65625 C 89.878906 127.019531 90.25 127.203125 90.679688 127.203125 C 91.109375 127.203125 91.46875 127.027344 91.773438 126.675781 C 92.085938 126.324219 92.242188 125.785156 92.242188 125.054688 C 92.242188 124.261719 92.085938 123.675781 91.773438 123.296875 C 91.460938 122.917969 91.078125 122.730469 90.640625 122.730469 C 90.195312 122.730469 89.824219 122.914062 89.527344 123.277344 C 89.238281 123.640625 89.097656 124.207031 89.097656 124.976562 Z M 89.097656 124.976562 "/>
<path style=" stroke:none;fill-rule:nonzero;fill:rgb(0%,0%,0%);fill-opacity:1;" d="M 94.691406 120.972656 L 94.691406 119.839844 L 95.6875 119.839844 L 95.6875 120.972656 Z M 94.691406 127.886719 L 94.691406 122.046875 L 95.6875 122.046875 L 95.6875 127.886719 Z M 94.691406 127.886719 "/>
<path style=" stroke:none;fill-rule:nonzero;fill:rgb(0%,0%,0%);fill-opacity:1;" d="M 97.1875 127.886719 L 97.1875 122.046875 L 98.085938 122.046875 L 98.085938 122.886719 C 98.503906 122.25 99.121094 121.929688 99.941406 121.929688 C 100.292969 121.929688 100.613281 121.996094 100.898438 122.125 C 101.199219 122.242188 101.417969 122.40625 101.5625 122.613281 C 101.707031 122.808594 101.808594 123.050781 101.875 123.335938 C 101.914062 123.519531 101.933594 123.835938 101.933594 124.292969 L 101.933594 127.886719 L 100.9375 127.886719 L 100.9375 124.332031 C 100.9375 123.929688 100.898438 123.628906 100.820312 123.433594 C 100.742188 123.238281 100.605469 123.082031 100.410156 122.964844 C 100.214844 122.835938 99.988281 122.769531 99.726562 122.769531 C 99.308594 122.769531 98.945312 122.90625 98.632812 123.179688 C 98.332031 123.441406 98.183594 123.949219 98.183594 124.703125 L 98.183594 127.886719 Z M 97.1875 127.886719 "/>
<path style=" stroke:none;fill-rule:nonzero;fill:rgb(0%,0%,0%);fill-opacity:1;" d="M 103.269531 128.375 L 104.226562 128.511719 C 104.265625 128.808594 104.375 129.023438 104.558594 129.15625 C 104.804688 129.335938 105.144531 129.429688 105.574219 129.429688 C 106.03125 129.429688 106.382812 129.335938 106.628906 129.15625 C 106.875 128.96875 107.046875 128.714844 107.136719 128.394531 C 107.1875 128.183594 107.207031 127.761719 107.195312 127.125 C 106.765625 127.632812 106.230469 127.886719 105.59375 127.886719 C 104.785156 127.886719 104.160156 127.601562 103.71875 127.027344 C 103.289062 126.441406 103.074219 125.746094 103.074219 124.9375 C 103.074219 124.378906 103.171875 123.863281 103.367188 123.394531 C 103.574219 122.925781 103.867188 122.566406 104.246094 122.320312 C 104.625 122.058594 105.074219 121.929688 105.59375 121.929688 C 106.285156 121.929688 106.851562 122.203125 107.292969 122.75 L 107.292969 122.046875 L 108.210938 122.046875 L 108.210938 127.085938 C 108.210938 127.992188 108.113281 128.636719 107.917969 129.019531 C 107.734375 129.394531 107.441406 129.691406 107.039062 129.917969 C 106.648438 130.136719 106.160156 130.25 105.574219 130.25 C 104.871094 130.25 104.304688 130.09375 103.875 129.78125 C 103.457031 129.46875 103.257812 129 103.269531 128.375 Z M 104.089844 124.859375 C 104.089844 125.628906 104.238281 126.1875 104.539062 126.539062 C 104.839844 126.890625 105.214844 127.066406 105.671875 127.066406 C 106.128906 127.066406 106.511719 126.890625 106.824219 126.539062 C 107.136719 126.1875 107.292969 125.640625 107.292969 124.898438 C 107.292969 124.183594 107.128906 123.640625 106.804688 123.277344 C 106.492188 122.914062 106.113281 122.730469 105.671875 122.730469 C 105.230469 122.730469 104.851562 122.914062 104.539062 123.277344 C 104.238281 123.628906 104.089844 124.15625 104.089844 124.859375 Z M 104.089844 124.859375 "/>
<path style=" stroke:none;fill-rule:nonzero;fill:rgb(0%,0%,0%);fill-opacity:1;" d="M 60.375 160.921875 L 61.371094 160.824219 C 61.417969 161.230469 61.53125 161.5625 61.703125 161.820312 C 61.882812 162.085938 62.15625 162.289062 62.523438 162.445312 C 62.882812 162.601562 63.292969 162.679688 63.753906 162.679688 C 64.152344 162.679688 64.515625 162.621094 64.828125 162.503906 C 65.140625 162.386719 65.375 162.226562 65.53125 162.015625 C 65.6875 161.796875 65.765625 161.5625 65.765625 161.3125 C 65.765625 161.070312 65.6875 160.851562 65.53125 160.667969 C 65.382812 160.472656 65.144531 160.3125 64.808594 160.179688 C 64.597656 160.09375 64.125 159.960938 63.382812 159.789062 C 62.640625 159.609375 62.117188 159.4375 61.820312 159.28125 C 61.4375 159.085938 61.15625 158.84375 60.960938 158.539062 C 60.773438 158.242188 60.6875 157.90625 60.6875 157.523438 C 60.6875 157.125 60.792969 156.742188 61.019531 156.390625 C 61.253906 156.039062 61.589844 155.773438 62.035156 155.589844 C 62.472656 155.410156 62.972656 155.316406 63.519531 155.316406 C 64.113281 155.316406 64.640625 155.414062 65.101562 155.609375 C 65.554688 155.796875 65.902344 156.074219 66.136719 156.449219 C 66.378906 156.828125 66.515625 157.25 66.546875 157.71875 L 65.511719 157.796875 C 65.457031 157.289062 65.277344 156.90625 64.964844 156.644531 C 64.652344 156.386719 64.183594 156.253906 63.558594 156.253906 C 62.917969 156.253906 62.449219 156.371094 62.152344 156.605469 C 61.847656 156.839844 61.703125 157.128906 61.703125 157.464844 C 61.703125 157.753906 61.804688 157.988281 62.015625 158.167969 C 62.21875 158.363281 62.757812 158.558594 63.617188 158.753906 C 64.484375 158.949219 65.085938 159.121094 65.414062 159.261719 C 65.882812 159.472656 66.222656 159.746094 66.449219 160.082031 C 66.667969 160.410156 66.78125 160.796875 66.78125 161.234375 C 66.78125 161.65625 66.652344 162.054688 66.410156 162.445312 C 66.160156 162.828125 65.808594 163.117188 65.355469 163.324219 C 64.894531 163.53125 64.382812 163.636719 63.8125 163.636719 C 63.078125 163.636719 62.46875 163.53125 61.976562 163.324219 C 61.476562 163.105469 61.085938 162.789062 60.804688 162.367188 C 60.53125 161.9375 60.382812 161.460938 60.375 160.921875 Z M 60.375 160.921875 "/>
<path style=" stroke:none;fill-rule:nonzero;fill:rgb(0%,0%,0%);fill-opacity:1;" d="M 67.742188 160.589844 C 67.742188 159.511719 68.039062 158.710938 68.640625 158.1875 C 69.148438 157.757812 69.757812 157.542969 70.476562 157.542969 C 71.28125 157.542969 71.941406 157.804688 72.449219 158.324219 C 72.957031 158.847656 73.210938 159.570312 73.210938 160.492188 C 73.210938 161.25 73.09375 161.839844 72.859375 162.269531 C 72.632812 162.699219 72.3125 163.039062 71.882812 163.285156 C 71.453125 163.519531 70.984375 163.636719 70.476562 163.636719 C 69.65625 163.636719 68.992188 163.378906 68.484375 162.855469 C 67.984375 162.324219 67.742188 161.566406 67.742188 160.589844 Z M 68.757812 160.589844 C 68.757812 161.332031 68.917969 161.894531 69.246094 162.269531 C 69.566406 162.636719 69.976562 162.816406 70.476562 162.816406 C 70.96875 162.816406 71.378906 162.636719 71.707031 162.269531 C 72.027344 161.894531 72.195312 161.320312 72.195312 160.550781 C 72.195312 159.835938 72.027344 159.289062 71.707031 158.910156 C 71.378906 158.535156 70.96875 158.34375 70.476562 158.34375 C 69.976562 158.34375 69.566406 158.535156 69.246094 158.910156 C 68.917969 159.277344 68.757812 159.835938 68.757812 160.589844 Z M 68.757812 160.589844 "/>
<path style=" stroke:none;fill-rule:nonzero;fill:rgb(0%,0%,0%);fill-opacity:1;" d="M 78.195312 163.5 L 78.195312 162.640625 C 77.738281 163.304688 77.121094 163.636719 76.339844 163.636719 C 76 163.636719 75.683594 163.570312 75.382812 163.441406 C 75.082031 163.300781 74.855469 163.128906 74.699219 162.933594 C 74.554688 162.738281 74.457031 162.5 74.40625 162.210938 C 74.367188 162.015625 74.347656 161.703125 74.347656 161.273438 L 74.347656 157.660156 L 75.324219 157.660156 L 75.324219 160.902344 C 75.324219 161.425781 75.351562 161.773438 75.402344 161.9375 C 75.453125 162.203125 75.578125 162.40625 75.773438 162.5625 C 75.980469 162.710938 76.234375 162.777344 76.535156 162.777344 C 76.835938 162.777344 77.113281 162.710938 77.375 162.5625 C 77.636719 162.40625 77.816406 162.203125 77.921875 161.9375 C 78.027344 161.679688 78.078125 161.292969 78.078125 160.785156 L 78.078125 157.660156 L 79.074219 157.660156 L 79.074219 163.5 Z M 78.195312 163.5 "/>
<path style=" stroke:none;fill-rule:nonzero;fill:rgb(0%,0%,0%);fill-opacity:1;" d="M 80.605469 163.5 L 80.605469 157.660156 L 81.503906 157.660156 L 81.503906 158.558594 C 81.726562 158.144531 81.933594 157.871094 82.128906 157.738281 C 82.324219 157.609375 82.539062 157.542969 82.773438 157.542969 C 83.097656 157.542969 83.4375 157.648438 83.789062 157.855469 L 83.4375 158.773438 C 83.203125 158.632812 82.960938 158.558594 82.714844 158.558594 C 82.507812 158.558594 82.3125 158.625 82.128906 158.753906 C 81.960938 158.886719 81.835938 159.066406 81.757812 159.300781 C 81.652344 159.652344 81.601562 160.039062 81.601562 160.453125 L 81.601562 163.5 Z M 80.605469 163.5 "/>
<path style=" stroke:none;fill-rule:nonzero;fill:rgb(0%,0%,0%);fill-opacity:1;" d="M 88.179688 161.371094 L 89.15625 161.488281 C 89.050781 162.167969 88.777344 162.695312 88.335938 163.070312 C 87.894531 163.453125 87.351562 163.636719 86.714844 163.636719 C 85.921875 163.636719 85.28125 163.378906 84.800781 162.855469 C 84.320312 162.335938 84.078125 161.585938 84.078125 160.609375 C 84.078125 159.976562 84.183594 159.417969 84.390625 158.949219 C 84.597656 158.480469 84.910156 158.128906 85.328125 157.894531 C 85.757812 157.660156 86.226562 157.542969 86.734375 157.542969 C 87.359375 157.542969 87.875 157.710938 88.277344 158.03125 C 88.679688 158.34375 88.941406 158.792969 89.058594 159.378906 L 88.101562 159.535156 C 88.011719 159.144531 87.847656 158.851562 87.613281 158.65625 C 87.378906 158.453125 87.097656 158.34375 86.773438 158.34375 C 86.265625 158.34375 85.855469 158.53125 85.542969 158.890625 C 85.242188 159.242188 85.09375 159.804688 85.09375 160.570312 C 85.09375 161.367188 85.242188 161.9375 85.542969 162.289062 C 85.84375 162.640625 86.234375 162.816406 86.714844 162.816406 C 87.105469 162.816406 87.429688 162.699219 87.691406 162.464844 C 87.953125 162.230469 88.113281 161.867188 88.179688 161.371094 Z M 88.179688 161.371094 "/>
<path style=" stroke:none;fill-rule:nonzero;fill:rgb(0%,0%,0%);fill-opacity:1;" d="M 93.980469 161.625 L 95.015625 161.742188 C 94.847656 162.34375 94.539062 162.8125 94.097656 163.148438 C 93.667969 163.476562 93.113281 163.636719 92.4375 163.636719 C 91.589844 163.636719 90.914062 163.378906 90.40625 162.855469 C 89.910156 162.324219 89.664062 161.582031 89.664062 160.628906 C 89.664062 159.652344 89.917969 158.898438 90.425781 158.363281 C 90.933594 157.816406 91.589844 157.542969 92.398438 157.542969 C 93.179688 157.542969 93.8125 157.8125 94.292969 158.34375 C 94.789062 158.867188 95.035156 159.609375 95.035156 160.570312 C 95.035156 160.640625 95.035156 160.726562 95.035156 160.84375 L 90.679688 160.84375 C 90.71875 161.484375 90.902344 161.972656 91.226562 162.308594 C 91.550781 162.648438 91.960938 162.816406 92.457031 162.816406 C 92.820312 162.816406 93.128906 162.726562 93.375 162.542969 C 93.636719 162.347656 93.835938 162.046875 93.980469 161.625 Z M 90.738281 160.023438 L 94 160.023438 C 93.960938 159.53125 93.835938 159.160156 93.628906 158.910156 C 93.316406 158.535156 92.90625 158.34375 92.398438 158.34375 C 91.941406 158.34375 91.558594 158.5 91.246094 158.8125 C 90.945312 159.117188 90.777344 159.515625 90.738281 160.023438 Z M 90.738281 160.023438 "/>
<path style=" stroke:none;fill-rule:nonzero;fill:rgb(0%,0%,0%);fill-opacity:1;" d="M 95.863281 161.761719 L 96.839844 161.605469 C 96.890625 161.996094 97.039062 162.296875 97.289062 162.503906 C 97.546875 162.714844 97.898438 162.816406 98.34375 162.816406 C 98.796875 162.816406 99.136719 162.726562 99.359375 162.542969 C 99.578125 162.363281 99.691406 162.148438 99.691406 161.898438 C 99.691406 161.664062 99.59375 161.488281 99.398438 161.371094 C 99.253906 161.28125 98.914062 161.164062 98.382812 161.019531 C 97.652344 160.839844 97.144531 160.683594 96.859375 160.550781 C 96.585938 160.421875 96.375 160.238281 96.234375 160.003906 C 96.089844 159.769531 96.019531 159.511719 96.019531 159.222656 C 96.019531 158.964844 96.078125 158.726562 96.195312 158.5 C 96.3125 158.28125 96.472656 158.089844 96.683594 157.933594 C 96.839844 157.832031 97.046875 157.738281 97.308594 157.660156 C 97.582031 157.582031 97.867188 157.542969 98.167969 157.542969 C 98.621094 157.542969 99.019531 157.609375 99.359375 157.738281 C 99.710938 157.871094 99.96875 158.046875 100.140625 158.265625 C 100.308594 158.492188 100.425781 158.789062 100.492188 159.164062 L 99.515625 159.300781 C 99.476562 159.003906 99.34375 158.769531 99.125 158.597656 C 98.914062 158.429688 98.621094 158.34375 98.246094 158.34375 C 97.789062 158.34375 97.464844 158.421875 97.269531 158.578125 C 97.074219 158.726562 96.976562 158.898438 96.976562 159.105469 C 96.976562 159.238281 97.015625 159.351562 97.09375 159.4375 C 97.171875 159.554688 97.300781 159.648438 97.484375 159.710938 C 97.574219 159.75 97.859375 159.835938 98.34375 159.964844 C 99.046875 160.148438 99.535156 160.296875 99.808594 160.414062 C 100.09375 160.53125 100.316406 160.707031 100.472656 160.941406 C 100.628906 161.164062 100.707031 161.445312 100.707031 161.78125 C 100.707031 162.125 100.609375 162.4375 100.414062 162.71875 C 100.21875 163.007812 99.9375 163.234375 99.574219 163.402344 C 99.222656 163.558594 98.8125 163.636719 98.34375 163.636719 C 97.585938 163.636719 97.007812 163.480469 96.605469 163.167969 C 96.214844 162.84375 95.964844 162.375 95.863281 161.761719 Z M 95.863281 161.761719 "/>
<path style="fill:none;stroke-width:1;stroke-linecap:round;stroke-linejoin:round;stroke:rgb(0%,0%,0%);stroke-opacity:1;stroke-miterlimit:10;" d="M 475.203125 521.54375 L 566.8 521.54375 " transform="matrix(1.25,0,0,1.25,-465,-567.5)"/>
<path style="fill:none;stroke-width:1;stroke-linecap:butt;stroke-linejoin:miter;stroke:rgb(0%,0%,0%);stroke-opacity:1;stroke-miterlimit:10;" d="M 570.8 521.54375 L 566.8 521.54375 M 566.8 520.04375 L 570.8 521.54375 L 566.8 523.04375 " transform="matrix(1.25,0,0,1.25,-465,-567.5)"/>
<path style="fill:none;stroke-width:1;stroke-linecap:round;stroke-linejoin:round;stroke:rgb(0%,0%,0%);stroke-opacity:1;stroke-miterlimit:10;" d="M 436.403125 574.8 L 436.403125 568.35625 " transform="matrix(1.25,0,0,1.25,-465,-567.5)"/>
<path style="fill:none;stroke-width:1;stroke-linecap:butt;stroke-linejoin:miter;stroke:rgb(0%,0%,0%);stroke-opacity:1;stroke-miterlimit:10;" d="M 436.403125 564.35625 L 436.403125 568.35625 M 434.903125 568.35625 L 436.403125 564.35625 L 437.903125 568.35625 " transform="matrix(1.25,0,0,1.25,-465,-567.5)"/>
<path style=" stroke:none;fill-rule:nonzero;fill:rgb(0%,0%,0%);fill-opacity:1;" d="M 61.0625 16.5 L 61.0625 8.453125 L 66.882812 8.453125 L 66.882812 9.390625 L 62.117188 9.390625 L 62.117188 11.871094 L 66.570312 11.871094 L 66.570312 12.808594 L 62.117188 12.808594 L 62.117188 15.542969 L 67.058594 15.542969 L 67.058594 16.5 Z M 61.0625 16.5 "/>
<path style=" stroke:none;fill-rule:nonzero;fill:rgb(0%,0%,0%);fill-opacity:1;" d="M 68.410156 16.5 L 68.410156 10.660156 L 69.308594 10.660156 L 69.308594 11.5 C 69.722656 10.867188 70.34375 10.542969 71.164062 10.542969 C 71.515625 10.542969 71.832031 10.609375 72.121094 10.738281 C 72.417969 10.855469 72.640625 11.023438 72.785156 11.226562 C 72.925781 11.421875 73.03125 11.664062 73.097656 11.949219 C 73.136719 12.132812 73.15625 12.453125 73.15625 12.90625 L 73.15625 16.5 L 72.160156 16.5 L 72.160156 12.945312 C 72.160156 12.546875 72.121094 12.242188 72.042969 12.046875 C 71.964844 11.851562 71.828125 11.695312 71.632812 11.578125 C 71.4375 11.453125 71.207031 11.382812 70.949219 11.382812 C 70.53125 11.382812 70.167969 11.519531 69.855469 11.792969 C 69.554688 12.054688 69.40625 12.5625 69.40625 13.316406 L 69.40625 16.5 Z M 68.410156 16.5 "/>
<path style=" stroke:none;fill-rule:nonzero;fill:rgb(0%,0%,0%);fill-opacity:1;" d="M 78.476562 14.371094 L 79.453125 14.488281 C 79.34375 15.167969 79.070312 15.695312 78.632812 16.070312 C 78.1875 16.453125 77.644531 16.636719 77.011719 16.636719 C 76.214844 16.636719 75.574219 16.378906 75.097656 15.855469 C 74.613281 15.335938 74.375 14.585938 74.375 13.609375 C 74.375 12.976562 74.476562 12.417969 74.6875 11.949219 C 74.890625 11.480469 75.203125 11.128906 75.625 10.894531 C 76.054688 10.660156 76.523438 10.542969 77.03125 10.542969 C 77.65625 10.542969 78.167969 10.710938 78.574219 11.03125 C 78.972656 11.34375 79.238281 11.792969 79.355469 12.378906 L 78.398438 12.535156 C 78.304688 12.144531 78.144531 11.851562 77.910156 11.65625 C 77.675781 11.453125 77.390625 11.34375 77.070312 11.34375 C 76.5625 11.34375 76.152344 11.53125 75.839844 11.890625 C 75.535156 12.242188 75.390625 12.804688 75.390625 13.570312 C 75.390625 14.367188 75.535156 14.9375 75.839844 15.289062 C 76.136719 15.640625 76.527344 15.816406 77.011719 15.816406 C 77.402344 15.816406 77.722656 15.699219 77.988281 15.464844 C 78.246094 15.230469 78.40625 14.867188 78.476562 14.371094 Z M 78.476562 14.371094 "/>
<path style=" stroke:none;fill-rule:nonzero;fill:rgb(0%,0%,0%);fill-opacity:1;" d="M 79.921875 13.589844 C 79.921875 12.511719 80.21875 11.710938 80.820312 11.1875 C 81.328125 10.757812 81.9375 10.542969 82.65625 10.542969 C 83.460938 10.542969 84.121094 10.804688 84.628906 11.324219 C 85.136719 11.847656 85.390625 12.570312 85.390625 13.492188 C 85.390625 14.25 85.273438 14.839844 85.039062 15.269531 C 84.8125 15.699219 84.492188 16.039062 84.0625 16.285156 C 83.632812 16.519531 83.164062 16.636719 82.65625 16.636719 C 81.835938 16.636719 81.171875 16.378906 80.664062 15.855469 C 80.164062 15.324219 79.921875 14.566406 79.921875 13.589844 Z M 80.9375 13.589844 C 80.9375 14.332031 81.097656 14.894531 81.425781 15.269531 C 81.746094 15.636719 82.15625 15.816406 82.65625 15.816406 C 83.148438 15.816406 83.558594 15.636719 83.886719 15.269531 C 84.207031 14.894531 84.375 14.320312 84.375 13.550781 C 84.375 12.835938 84.207031 12.289062 83.886719 11.910156 C 83.558594 11.535156 83.148438 11.34375 82.65625 11.34375 C 82.15625 11.34375 81.746094 11.535156 81.425781 11.910156 C 81.097656 12.277344 80.9375 12.835938 80.9375 13.589844 Z M 80.9375 13.589844 "/>
<path style=" stroke:none;fill-rule:nonzero;fill:rgb(0%,0%,0%);fill-opacity:1;" d="M 90.339844 16.5 L 90.339844 15.757812 C 89.957031 16.34375 89.410156 16.636719 88.699219 16.636719 C 88.238281 16.636719 87.820312 16.503906 87.429688 16.246094 C 87.039062 15.988281 86.730469 15.632812 86.511719 15.171875 C 86.300781 14.71875 86.199219 14.191406 86.199219 13.589844 C 86.199219 13.003906 86.296875 12.476562 86.492188 12.007812 C 86.6875 11.53125 86.96875 11.164062 87.351562 10.914062 C 87.742188 10.671875 88.175781 10.542969 88.660156 10.542969 C 89.011719 10.542969 89.324219 10.617188 89.597656 10.757812 C 89.871094 10.90625 90.089844 11.101562 90.261719 11.34375 L 90.261719 8.453125 L 91.257812 8.453125 L 91.257812 16.5 Z M 87.214844 13.589844 C 87.214844 14.332031 87.371094 14.894531 87.683594 15.269531 C 87.996094 15.636719 88.367188 15.816406 88.796875 15.816406 C 89.226562 15.816406 89.585938 15.640625 89.890625 15.289062 C 90.203125 14.9375 90.359375 14.398438 90.359375 13.667969 C 90.359375 12.875 90.203125 12.289062 89.890625 11.910156 C 89.578125 11.535156 89.195312 11.34375 88.757812 11.34375 C 88.3125 11.34375 87.941406 11.53125 87.644531 11.890625 C 87.355469 12.257812 87.214844 12.824219 87.214844 13.589844 Z M 87.214844 13.589844 "/>
<path style=" stroke:none;fill-rule:nonzero;fill:rgb(0%,0%,0%);fill-opacity:1;" d="M 96.792969 14.625 L 97.828125 14.742188 C 97.65625 15.34375 97.347656 15.8125 96.910156 16.148438 C 96.480469 16.476562 95.921875 16.636719 95.25 16.636719 C 94.398438 16.636719 93.726562 16.378906 93.21875 15.855469 C 92.71875 15.324219 92.476562 14.582031 92.476562 13.628906 C 92.476562 12.652344 92.730469 11.898438 93.238281 11.363281 C 93.746094 10.816406 94.398438 10.542969 95.210938 10.542969 C 95.992188 10.542969 96.621094 10.8125 97.105469 11.34375 C 97.597656 11.867188 97.847656 12.609375 97.847656 13.570312 C 97.847656 13.640625 97.847656 13.726562 97.847656 13.84375 L 93.492188 13.84375 C 93.53125 14.484375 93.710938 14.972656 94.039062 15.308594 C 94.359375 15.648438 94.769531 15.816406 95.269531 15.816406 C 95.628906 15.816406 95.9375 15.726562 96.1875 15.542969 C 96.445312 15.347656 96.644531 15.046875 96.792969 14.625 Z M 93.550781 13.023438 L 96.8125 13.023438 C 96.773438 12.53125 96.644531 12.160156 96.441406 11.910156 C 96.128906 11.535156 95.71875 11.34375 95.210938 11.34375 C 94.75 11.34375 94.371094 11.5 94.058594 11.8125 C 93.753906 12.117188 93.589844 12.515625 93.550781 13.023438 Z M 93.550781 13.023438 "/>
<path style=" stroke:none;fill-rule:nonzero;fill:rgb(0%,0%,0%);fill-opacity:1;" d="M 99.046875 16.5 L 99.046875 10.660156 L 99.945312 10.660156 L 99.945312 11.558594 C 100.164062 11.144531 100.375 10.871094 100.570312 10.738281 C 100.765625 10.609375 100.980469 10.542969 101.214844 10.542969 C 101.535156 10.542969 101.878906 10.648438 102.230469 10.855469 L 101.878906 11.773438 C 101.644531 11.632812 101.398438 11.558594 101.15625 11.558594 C 100.945312 11.558594 100.75 11.625 100.570312 11.753906 C 100.398438 11.886719 100.277344 12.066406 100.199219 12.300781 C 100.089844 12.652344 100.042969 13.039062 100.042969 13.453125 L 100.042969 16.5 Z M 99.046875 16.5 "/>
<path style=" stroke:none;fill-rule:nonzero;fill:rgb(0%,0%,0%);fill-opacity:1;" d="M 277.597656 16.5 L 277.597656 8.453125 L 280.371094 8.453125 C 281.007812 8.453125 281.488281 8.492188 281.816406 8.570312 C 282.269531 8.679688 282.660156 8.863281 282.988281 9.136719 C 283.417969 9.503906 283.734375 9.96875 283.945312 10.523438 C 284.152344 11.070312 284.257812 11.710938 284.257812 12.4375 C 284.257812 13.054688 284.183594 13.589844 284.042969 14.058594 C 283.898438 14.527344 283.714844 14.917969 283.496094 15.230469 C 283.273438 15.542969 283.027344 15.792969 282.753906 15.972656 C 282.492188 16.144531 282.171875 16.273438 281.796875 16.363281 C 281.429688 16.457031 281 16.5 280.507812 16.5 Z M 278.671875 15.542969 L 280.390625 15.542969 C 280.921875 15.542969 281.339844 15.5 281.640625 15.40625 C 281.9375 15.304688 282.179688 15.164062 282.363281 14.976562 C 282.609375 14.734375 282.804688 14.390625 282.949219 13.960938 C 283.089844 13.53125 283.164062 13.019531 283.164062 12.417969 C 283.164062 11.574219 283.027344 10.929688 282.753906 10.484375 C 282.480469 10.03125 282.140625 9.722656 281.738281 9.566406 C 281.449219 9.449219 280.996094 9.390625 280.371094 9.390625 L 278.671875 9.390625 Z M 278.671875 15.542969 "/>
<path style=" stroke:none;fill-rule:nonzero;fill:rgb(0%,0%,0%);fill-opacity:1;" d="M 289.589844 14.625 L 290.625 14.742188 C 290.453125 15.34375 290.148438 15.8125 289.707031 16.148438 C 289.277344 16.476562 288.722656 16.636719 288.046875 16.636719 C 287.199219 16.636719 286.523438 16.378906 286.015625 15.855469 C 285.519531 15.324219 285.273438 14.582031 285.273438 13.628906 C 285.273438 12.652344 285.527344 11.898438 286.035156 11.363281 C 286.542969 10.816406 287.199219 10.542969 288.007812 10.542969 C 288.789062 10.542969 289.417969 10.8125 289.902344 11.34375 C 290.394531 11.867188 290.644531 12.609375 290.644531 13.570312 C 290.644531 13.640625 290.644531 13.726562 290.644531 13.84375 L 286.289062 13.84375 C 286.328125 14.484375 286.507812 14.972656 286.835938 15.308594 C 287.160156 15.648438 287.570312 15.816406 288.066406 15.816406 C 288.429688 15.816406 288.734375 15.726562 288.984375 15.542969 C 289.242188 15.347656 289.445312 15.046875 289.589844 14.625 Z M 286.347656 13.023438 L 289.609375 13.023438 C 289.570312 12.53125 289.445312 12.160156 289.238281 11.910156 C 288.925781 11.535156 288.515625 11.34375 288.007812 11.34375 C 287.550781 11.34375 287.167969 11.5 286.855469 11.8125 C 286.554688 12.117188 286.386719 12.515625 286.347656 13.023438 Z M 286.347656 13.023438 "/>
<path style=" stroke:none;fill-rule:nonzero;fill:rgb(0%,0%,0%);fill-opacity:1;" d="M 295.671875 14.371094 L 296.648438 14.488281 C 296.542969 15.167969 296.269531 15.695312 295.828125 16.070312 C 295.382812 16.453125 294.84375 16.636719 294.207031 16.636719 C 293.410156 16.636719 292.773438 16.378906 292.292969 15.855469 C 291.808594 15.335938 291.570312 14.585938 291.570312 13.609375 C 291.570312 12.976562 291.671875 12.417969 291.882812 11.949219 C 292.089844 11.480469 292.402344 11.128906 292.820312 10.894531 C 293.25 10.660156 293.71875 10.542969 294.226562 10.542969 C 294.851562 10.542969 295.363281 10.710938 295.769531 11.03125 C 296.171875 11.34375 296.433594 11.792969 296.550781 12.378906 L 295.59375 12.535156 C 295.5 12.144531 295.339844 11.851562 295.105469 11.65625 C 294.871094 11.453125 294.589844 11.34375 294.265625 11.34375 C 293.757812 11.34375 293.347656 11.53125 293.035156 11.890625 C 292.734375 12.242188 292.585938 12.804688 292.585938 13.570312 C 292.585938 14.367188 292.734375 14.9375 293.035156 15.289062 C 293.332031 15.640625 293.722656 15.816406 294.207031 15.816406 C 294.597656 15.816406 294.921875 15.699219 295.183594 15.464844 C 295.441406 15.230469 295.605469 14.867188 295.671875 14.371094 Z M 295.671875 14.371094 "/>
<path style=" stroke:none;fill-rule:nonzero;fill:rgb(0%,0%,0%);fill-opacity:1;" d="M 297.117188 13.589844 C 297.117188 12.511719 297.414062 11.710938 298.015625 11.1875 C 298.523438 10.757812 299.132812 10.542969 299.851562 10.542969 C 300.65625 10.542969 301.316406 10.804688 301.824219 11.324219 C 302.332031 11.847656 302.585938 12.570312 302.585938 13.492188 C 302.585938 14.25 302.46875 14.839844 302.234375 15.269531 C 302.011719 15.699219 301.6875 16.039062 301.257812 16.285156 C 300.828125 16.519531 300.359375 16.636719 299.851562 16.636719 C 299.03125 16.636719 298.367188 16.378906 297.859375 15.855469 C 297.363281 15.324219 297.117188 14.566406 297.117188 13.589844 Z M 298.132812 13.589844 C 298.132812 14.332031 298.292969 14.894531 298.621094 15.269531 C 298.945312 15.636719 299.355469 15.816406 299.851562 15.816406 C 300.34375 15.816406 300.753906 15.636719 301.082031 15.269531 C 301.40625 14.894531 301.570312 14.320312 301.570312 13.550781 C 301.570312 12.835938 301.40625 12.289062 301.082031 11.910156 C 300.753906 11.535156 300.34375 11.34375 299.851562 11.34375 C 299.355469 11.34375 298.945312 11.535156 298.621094 11.910156 C 298.292969 12.277344 298.132812 12.835938 298.132812 13.589844 Z M 298.132812 13.589844 "/>
<path style=" stroke:none;fill-rule:nonzero;fill:rgb(0%,0%,0%);fill-opacity:1;" d="M 307.535156 16.5 L 307.535156 15.757812 C 307.152344 16.34375 306.605469 16.636719 305.894531 16.636719 C 305.433594 16.636719 305.015625 16.503906 304.625 16.246094 C 304.234375 15.988281 303.925781 15.632812 303.707031 15.171875 C 303.496094 14.71875 303.394531 14.191406 303.394531 13.589844 C 303.394531 13.003906 303.492188 12.476562 303.6875 12.007812 C 303.882812 11.53125 304.164062 11.164062 304.546875 10.914062 C 304.9375 10.671875 305.371094 10.542969 305.855469 10.542969 C 306.207031 10.542969 306.519531 10.617188 306.792969 10.757812 C 307.066406 10.90625 307.285156 11.101562 307.457031 11.34375 L 307.457031 8.453125 L 308.453125 8.453125 L 308.453125 16.5 Z M 304.410156 13.589844 C 304.410156 14.332031 304.566406 14.894531 304.878906 15.269531 C 305.191406 15.636719 305.5625 15.816406 305.992188 15.816406 C 306.421875 15.816406 306.78125 15.640625 307.085938 15.289062 C 307.398438 14.9375 307.554688 14.398438 307.554688 13.667969 C 307.554688 12.875 307.398438 12.289062 307.085938 11.910156 C 306.773438 11.535156 306.390625 11.34375 305.953125 11.34375 C 305.507812 11.34375 305.136719 11.53125 304.839844 11.890625 C 304.550781 12.257812 304.410156 12.824219 304.410156 13.589844 Z M 304.410156 13.589844 "/>
<path style=" stroke:none;fill-rule:nonzero;fill:rgb(0%,0%,0%);fill-opacity:1;" d="M 313.988281 14.625 L 315.023438 14.742188 C 314.851562 15.34375 314.542969 15.8125 314.105469 16.148438 C 313.675781 16.476562 313.117188 16.636719 312.445312 16.636719 C 311.59375 16.636719 310.921875 16.378906 310.414062 15.855469 C 309.914062 15.324219 309.671875 14.582031 309.671875 13.628906 C 309.671875 12.652344 309.925781 11.898438 310.433594 11.363281 C 310.941406 10.816406 311.59375 10.542969 312.40625 10.542969 C 313.1875 10.542969 313.816406 10.8125 314.300781 11.34375 C 314.792969 11.867188 315.042969 12.609375 315.042969 13.570312 C 315.042969 13.640625 315.042969 13.726562 315.042969 13.84375 L 310.6875 13.84375 C 310.726562 14.484375 310.90625 14.972656 311.234375 15.308594 C 311.554688 15.648438 311.964844 15.816406 312.464844 15.816406 C 312.824219 15.816406 313.132812 15.726562 313.382812 15.542969 C 313.640625 15.347656 313.839844 15.046875 313.988281 14.625 Z M 310.746094 13.023438 L 314.007812 13.023438 C 313.96875 12.53125 313.839844 12.160156 313.636719 11.910156 C 313.324219 11.535156 312.914062 11.34375 312.40625 11.34375 C 311.945312 11.34375 311.566406 11.5 311.253906 11.8125 C 310.949219 12.117188 310.785156 12.515625 310.746094 13.023438 Z M 310.746094 13.023438 "/>
<path style=" stroke:none;fill-rule:nonzero;fill:rgb(0%,0%,0%);fill-opacity:1;" d="M 316.242188 16.5 L 316.242188 10.660156 L 317.140625 10.660156 L 317.140625 11.558594 C 317.359375 11.144531 317.570312 10.871094 317.765625 10.738281 C 317.960938 10.609375 318.175781 10.542969 318.410156 10.542969 C 318.730469 10.542969 319.074219 10.648438 319.425781 10.855469 L 319.074219 11.773438 C 318.839844 11.632812 318.59375 11.558594 318.351562 11.558594 C 318.140625 11.558594 317.945312 11.625 317.765625 11.753906 C 317.59375 11.886719 317.472656 12.066406 317.394531 12.300781 C 317.285156 12.652344 317.238281 13.039062 317.238281 13.453125 L 317.238281 16.5 Z M 316.242188 16.5 "/>
<path style=" stroke:none;fill-rule:nonzero;fill:rgb(69.803922%,85.098039%,100%);fill-opacity:1;" d="M 32 95.679688 L 129.003906 95.679688 L 129.003906 73.179688 L 32 73.179688 Z M 32 95.679688 "/>
<path style="fill:none;stroke-width:1;stroke-linecap:round;stroke-linejoin:round;stroke:rgb(0%,0%,0%);stroke-opacity:1;stroke-miterlimit:10;" d="M 397.6 512.54375 L 475.203125 512.54375 L 475.203125 530.54375 L 397.6 530.54375 Z M 397.6 512.54375 " transform="matrix(1.25,0,0,1.25,-465,-567.5)"/>
<path style=" stroke:none;fill-rule:nonzero;fill:rgb(0%,0%,0%);fill-opacity:1;" d="M 56.683594 87.996094 L 56.683594 79.949219 L 60.257812 79.949219 C 60.96875 79.949219 61.515625 80.023438 61.898438 80.164062 C 62.273438 80.3125 62.570312 80.566406 62.796875 80.925781 C 63.015625 81.292969 63.128906 81.699219 63.128906 82.136719 C 63.128906 82.714844 62.9375 83.191406 62.5625 83.582031 C 62.195312 83.972656 61.628906 84.222656 60.863281 84.324219 C 61.136719 84.472656 61.351562 84.609375 61.507812 84.734375 C 61.820312 85.023438 62.113281 85.378906 62.386719 85.808594 L 63.792969 87.996094 L 62.445312 87.996094 L 61.371094 86.316406 C 61.066406 85.839844 60.8125 85.472656 60.609375 85.222656 C 60.414062 84.964844 60.226562 84.785156 60.0625 84.675781 C 59.90625 84.574219 59.75 84.5 59.59375 84.460938 C 59.460938 84.4375 59.261719 84.421875 58.988281 84.421875 L 57.757812 84.421875 L 57.757812 87.996094 Z M 57.757812 83.503906 L 60.042969 83.503906 C 60.535156 83.503906 60.921875 83.457031 61.195312 83.347656 C 61.46875 83.246094 61.671875 83.085938 61.820312 82.859375 C 61.960938 82.640625 62.035156 82.402344 62.035156 82.136719 C 62.035156 81.761719 61.886719 81.449219 61.605469 81.199219 C 61.332031 80.957031 60.890625 80.828125 60.296875 80.828125 L 57.757812 80.828125 Z M 57.757812 83.503906 "/>
<path style=" stroke:none;fill-rule:nonzero;fill:rgb(0%,0%,0%);fill-opacity:1;" d="M 68.65625 86.121094 L 69.691406 86.238281 C 69.519531 86.839844 69.210938 87.308594 68.773438 87.644531 C 68.34375 87.972656 67.785156 88.132812 67.113281 88.132812 C 66.261719 88.132812 65.589844 87.875 65.082031 87.351562 C 64.582031 86.820312 64.339844 86.078125 64.339844 85.125 C 64.339844 84.148438 64.59375 83.398438 65.101562 82.859375 C 65.609375 82.3125 66.261719 82.039062 67.074219 82.039062 C 67.855469 82.039062 68.484375 82.308594 68.96875 82.839844 C 69.460938 83.363281 69.710938 84.105469 69.710938 85.066406 C 69.710938 85.136719 69.710938 85.222656 69.710938 85.339844 L 65.355469 85.339844 C 65.394531 85.980469 65.574219 86.46875 65.902344 86.804688 C 66.222656 87.148438 66.632812 87.3125 67.132812 87.3125 C 67.492188 87.3125 67.800781 87.226562 68.050781 87.039062 C 68.308594 86.84375 68.507812 86.542969 68.65625 86.121094 Z M 65.414062 84.519531 L 68.675781 84.519531 C 68.636719 84.027344 68.507812 83.65625 68.304688 83.40625 C 67.992188 83.03125 67.582031 82.839844 67.074219 82.839844 C 66.613281 82.839844 66.234375 82.996094 65.921875 83.308594 C 65.617188 83.613281 65.453125 84.011719 65.414062 84.519531 Z M 65.414062 84.519531 "/>
<path style=" stroke:none;fill-rule:nonzero;fill:rgb(0%,0%,0%);fill-opacity:1;" d="M 74.734375 85.867188 L 75.710938 85.984375 C 75.605469 86.664062 75.332031 87.191406 74.890625 87.566406 C 74.449219 87.949219 73.90625 88.132812 73.269531 88.132812 C 72.476562 88.132812 71.835938 87.875 71.355469 87.351562 C 70.875 86.835938 70.632812 86.082031 70.632812 85.105469 C 70.632812 84.472656 70.738281 83.914062 70.945312 83.445312 C 71.152344 82.976562 71.464844 82.625 71.882812 82.390625 C 72.3125 82.15625 72.78125 82.039062 73.289062 82.039062 C 73.914062 82.039062 74.429688 82.207031 74.832031 82.527344 C 75.234375 82.839844 75.496094 83.289062 75.613281 83.875 L 74.65625 84.03125 C 74.566406 83.640625 74.402344 83.347656 74.167969 83.152344 C 73.933594 82.949219 73.652344 82.839844 73.328125 82.839844 C 72.820312 82.839844 72.410156 83.027344 72.097656 83.386719 C 71.796875 83.738281 71.648438 84.300781 71.648438 85.066406 C 71.648438 85.863281 71.796875 86.433594 72.097656 86.785156 C 72.398438 87.136719 72.789062 87.3125 73.269531 87.3125 C 73.660156 87.3125 73.984375 87.195312 74.246094 86.960938 C 74.507812 86.726562 74.667969 86.367188 74.734375 85.867188 Z M 74.734375 85.867188 "/>
<path style=" stroke:none;fill-rule:nonzero;fill:rgb(0%,0%,0%);fill-opacity:1;" d="M 80.378906 87.996094 L 80.378906 87.136719 C 79.921875 87.800781 79.304688 88.132812 78.523438 88.132812 C 78.183594 88.132812 77.867188 88.066406 77.566406 87.9375 C 77.265625 87.796875 77.039062 87.625 76.882812 87.429688 C 76.738281 87.234375 76.640625 86.996094 76.589844 86.707031 C 76.550781 86.511719 76.53125 86.199219 76.53125 85.769531 L 76.53125 82.15625 L 77.507812 82.15625 L 77.507812 85.398438 C 77.507812 85.921875 77.535156 86.269531 77.585938 86.433594 C 77.636719 86.699219 77.761719 86.902344 77.957031 87.058594 C 78.164062 87.207031 78.417969 87.273438 78.71875 87.273438 C 79.019531 87.273438 79.296875 87.207031 79.558594 87.058594 C 79.820312 86.902344 80 86.699219 80.105469 86.433594 C 80.210938 86.175781 80.261719 85.789062 80.261719 85.28125 L 80.261719 82.15625 L 81.257812 82.15625 L 81.257812 87.996094 Z M 80.378906 87.996094 "/>
<path style=" stroke:none;fill-rule:nonzero;fill:rgb(0%,0%,0%);fill-opacity:1;" d="M 82.789062 87.996094 L 82.789062 82.15625 L 83.6875 82.15625 L 83.6875 83.054688 C 83.910156 82.640625 84.117188 82.367188 84.3125 82.234375 C 84.507812 82.109375 84.722656 82.039062 84.957031 82.039062 C 85.28125 82.039062 85.621094 82.148438 85.972656 82.351562 L 85.621094 83.269531 C 85.386719 83.128906 85.144531 83.054688 84.898438 83.054688 C 84.691406 83.054688 84.496094 83.125 84.3125 83.25 C 84.144531 83.382812 84.019531 83.5625 83.941406 83.796875 C 83.835938 84.148438 83.785156 84.535156 83.785156 84.949219 L 83.785156 87.996094 Z M 82.789062 87.996094 "/>
<path style=" stroke:none;fill-rule:nonzero;fill:rgb(0%,0%,0%);fill-opacity:1;" d="M 86.535156 87.996094 L 86.535156 82.15625 L 87.433594 82.15625 L 87.433594 83.054688 C 87.65625 82.640625 87.863281 82.367188 88.058594 82.234375 C 88.253906 82.109375 88.46875 82.039062 88.703125 82.039062 C 89.027344 82.039062 89.367188 82.148438 89.71875 82.351562 L 89.367188 83.269531 C 89.132812 83.128906 88.890625 83.054688 88.644531 83.054688 C 88.4375 83.054688 88.242188 83.125 88.058594 83.25 C 87.890625 83.382812 87.765625 83.5625 87.6875 83.796875 C 87.582031 84.148438 87.53125 84.535156 87.53125 84.949219 L 87.53125 87.996094 Z M 86.535156 87.996094 "/>
<path style=" stroke:none;fill-rule:nonzero;fill:rgb(0%,0%,0%);fill-opacity:1;" d="M 94.285156 86.121094 L 95.320312 86.238281 C 95.152344 86.839844 94.84375 87.308594 94.402344 87.644531 C 93.972656 87.972656 93.417969 88.132812 92.742188 88.132812 C 91.894531 88.132812 91.21875 87.875 90.710938 87.351562 C 90.214844 86.820312 89.96875 86.078125 89.96875 85.125 C 89.96875 84.148438 90.222656 83.398438 90.730469 82.859375 C 91.238281 82.3125 91.894531 82.039062 92.703125 82.039062 C 93.484375 82.039062 94.117188 82.308594 94.597656 82.839844 C 95.09375 83.363281 95.339844 84.105469 95.339844 85.066406 C 95.339844 85.136719 95.339844 85.222656 95.339844 85.339844 L 90.984375 85.339844 C 91.023438 85.980469 91.207031 86.46875 91.53125 86.804688 C 91.855469 87.148438 92.265625 87.3125 92.761719 87.3125 C 93.125 87.3125 93.433594 87.226562 93.679688 87.039062 C 93.941406 86.84375 94.140625 86.542969 94.285156 86.121094 Z M 91.042969 84.519531 L 94.304688 84.519531 C 94.265625 84.027344 94.140625 83.65625 93.933594 83.40625 C 93.621094 83.03125 93.210938 82.839844 92.703125 82.839844 C 92.246094 82.839844 91.863281 82.996094 91.550781 83.308594 C 91.25 83.613281 91.082031 84.011719 91.042969 84.519531 Z M 91.042969 84.519531 "/>
<path style=" stroke:none;fill-rule:nonzero;fill:rgb(0%,0%,0%);fill-opacity:1;" d="M 96.558594 87.996094 L 96.558594 82.15625 L 97.457031 82.15625 L 97.457031 82.996094 C 97.875 82.363281 98.492188 82.039062 99.3125 82.039062 C 99.664062 82.039062 99.984375 82.109375 100.269531 82.234375 C 100.570312 82.351562 100.789062 82.519531 100.933594 82.722656 C 101.078125 82.917969 101.179688 83.164062 101.246094 83.445312 C 101.285156 83.632812 101.304688 83.949219 101.304688 84.402344 L 101.304688 87.996094 L 100.308594 87.996094 L 100.308594 84.441406 C 100.308594 84.042969 100.269531 83.738281 100.191406 83.542969 C 100.113281 83.347656 99.976562 83.191406 99.78125 83.074219 C 99.585938 82.949219 99.359375 82.878906 99.097656 82.878906 C 98.679688 82.878906 98.316406 83.015625 98.003906 83.289062 C 97.703125 83.554688 97.554688 84.0625 97.554688 84.8125 L 97.554688 87.996094 Z M 96.558594 87.996094 "/>
<path style=" stroke:none;fill-rule:nonzero;fill:rgb(0%,0%,0%);fill-opacity:1;" d="M 104.984375 87.117188 L 105.121094 87.976562 C 104.832031 88.039062 104.585938 88.074219 104.378906 88.074219 C 104.011719 88.074219 103.734375 88.015625 103.539062 87.898438 C 103.34375 87.78125 103.199219 87.636719 103.109375 87.449219 C 103.03125 87.269531 102.992188 86.882812 102.992188 86.296875 L 102.992188 82.9375 L 102.269531 82.9375 L 102.269531 82.15625 L 102.992188 82.15625 L 102.992188 80.710938 L 103.988281 80.125 L 103.988281 82.15625 L 104.984375 82.15625 L 104.984375 82.9375 L 103.988281 82.9375 L 103.988281 86.335938 C 103.988281 86.625 104 86.804688 104.027344 86.882812 C 104.066406 86.960938 104.125 87.03125 104.203125 87.078125 C 104.28125 87.132812 104.390625 87.15625 104.535156 87.15625 C 104.652344 87.15625 104.800781 87.148438 104.984375 87.117188 Z M 104.984375 87.117188 "/>
<path style=" stroke:none;fill-rule:nonzero;fill:rgb(0%,0%,0%);fill-opacity:1;" d="M 11.425781 86.246094 C 11.347656 86.34375 11.269531 86.441406 11.191406 86.539062 C 10.859375 86.949219 10.664062 87.125 10.507812 87.125 C 10.371094 87.125 10.332031 87.027344 10.332031 86.929688 C 10.332031 86.832031 10.371094 86.636719 10.488281 86.246094 L 11.113281 83.960938 C 11.171875 83.726562 11.230469 83.472656 11.230469 83.277344 C 11.230469 82.867188 10.976562 82.59375 10.488281 82.59375 C 9.765625 82.59375 9.023438 83.277344 7.890625 85.074219 L 8.652344 82.613281 L 8.59375 82.59375 C 8.007812 82.710938 7.695312 82.769531 6.777344 82.945312 L 6.777344 83.121094 C 7.34375 83.140625 7.519531 83.199219 7.519531 83.433594 C 7.519531 83.492188 7.5 83.570312 7.480469 83.609375 L 6.40625 87.554688 L 7.246094 87.554688 C 7.773438 85.777344 7.871094 85.523438 8.378906 84.761719 C 9.082031 83.726562 9.589844 83.160156 10.039062 83.160156 C 10.214844 83.160156 10.3125 83.296875 10.3125 83.492188 C 10.3125 83.628906 10.234375 84.039062 10.15625 84.390625 L 9.667969 86.207031 C 9.492188 86.792969 9.472656 86.929688 9.472656 87.046875 C 9.472656 87.476562 9.726562 87.652344 10 87.652344 C 10.527344 87.652344 10.820312 87.4375 11.582031 86.382812 Z M 11.425781 86.246094 "/>
<g clip-path="url(#clip1)" clip-rule="nonzero">
<path style=" stroke:none;fill-rule:nonzero;fill:rgb(0%,0%,0%);fill-opacity:1;" d="M 18.265625 84.414062 L 20.492188 82.1875 C 20.609375 82.050781 20.648438 82.03125 20.648438 81.953125 C 20.648438 81.816406 20.53125 81.71875 20.414062 81.71875 C 20.335938 81.71875 20.277344 81.757812 20.179688 81.875 L 17.933594 84.101562 L 15.6875 81.875 C 15.570312 81.738281 15.53125 81.71875 15.453125 81.71875 C 15.335938 81.71875 15.21875 81.816406 15.21875 81.953125 C 15.21875 82.03125 15.277344 82.089844 15.375 82.1875 L 17.601562 84.414062 L 15.375 86.660156 C 15.257812 86.757812 15.21875 86.835938 15.21875 86.894531 C 15.21875 87.03125 15.335938 87.128906 15.453125 87.128906 C 15.53125 87.128906 15.570312 87.109375 15.6875 86.972656 L 17.933594 84.746094 L 20.179688 86.972656 C 20.277344 87.089844 20.355469 87.128906 20.414062 87.128906 C 20.550781 87.128906 20.648438 87.03125 20.648438 86.894531 C 20.648438 86.816406 20.609375 86.796875 20.492188 86.660156 Z M 18.265625 84.414062 "/>
<path style=" stroke:none;fill-rule:nonzero;fill:rgb(0%,0%,0%);fill-opacity:1;" d="M 18.265625 84.414062 L 20.492188 82.1875 C 20.609375 82.050781 20.648438 82.03125 20.648438 81.953125 C 20.648438 81.816406 20.53125 81.71875 20.414062 81.71875 C 20.335938 81.71875 20.277344 81.757812 20.179688 81.875 L 17.933594 84.101562 L 15.6875 81.875 C 15.570312 81.738281 15.53125 81.71875 15.453125 81.71875 C 15.335938 81.71875 15.21875 81.816406 15.21875 81.953125 C 15.21875 82.03125 15.277344 82.089844 15.375 82.1875 L 17.601562 84.414062 L 15.375 86.660156 C 15.257812 86.757812 15.21875 86.835938 15.21875 86.894531 C 15.21875 87.03125 15.335938 87.128906 15.453125 87.128906 C 15.53125 87.128906 15.570312 87.109375 15.6875 86.972656 L 17.933594 84.746094 L 20.179688 86.972656 C 20.277344 87.089844 20.355469 87.128906 20.414062 87.128906 C 20.550781 87.128906 20.648438 87.03125 20.648438 86.894531 C 20.648438 86.816406 20.609375 86.796875 20.492188 86.660156 Z M 18.265625 84.414062 "/>
</g>
<path style="fill:none;stroke-width:1;stroke-linecap:round;stroke-linejoin:round;stroke:rgb(0%,0%,0%);stroke-opacity:1;stroke-miterlimit:10;" d="M 436.403125 544.45625 L 436.403125 536.44375 " transform="matrix(1.25,0,0,1.25,-465,-567.5)"/>
<path style="fill:none;stroke-width:1;stroke-linecap:butt;stroke-linejoin:miter;stroke:rgb(0%,0%,0%);stroke-opacity:1;stroke-miterlimit:10;" d="M 436.403125 532.44375 L 436.403125 536.44375 M 434.903125 536.44375 L 436.403125 532.44375 L 437.903125 536.44375 " transform="matrix(1.25,0,0,1.25,-465,-567.5)"/>
<path style="fill:none;stroke-width:1;stroke-linecap:round;stroke-linejoin:round;stroke:rgb(0%,0%,0%);stroke-opacity:1;stroke-miterlimit:10;" d="M 572.7 544.45625 L 650.3 544.45625 L 650.3 562.45625 L 572.7 562.45625 Z M 572.7 544.45625 " transform="matrix(1.25,0,0,1.25,-465,-567.5)"/>
<path style=" stroke:none;fill-rule:nonzero;fill:rgb(0%,0%,0%);fill-opacity:1;" d="M 271.816406 127.886719 L 271.816406 119.839844 L 277.636719 119.839844 L 277.636719 120.777344 L 272.871094 120.777344 L 272.871094 123.257812 L 277.324219 123.257812 L 277.324219 124.195312 L 272.871094 124.195312 L 272.871094 126.929688 L 277.8125 126.929688 L 277.8125 127.886719 Z M 271.816406 127.886719 "/>
<path style=" stroke:none;fill-rule:nonzero;fill:rgb(0%,0%,0%);fill-opacity:1;" d="M 279.164062 127.886719 L 279.164062 122.046875 L 280.042969 122.046875 L 280.042969 122.867188 C 280.222656 122.582031 280.464844 122.351562 280.765625 122.183594 C 281.078125 122.015625 281.429688 121.929688 281.820312 121.929688 C 282.25 121.929688 282.601562 122.019531 282.875 122.203125 C 283.148438 122.371094 283.34375 122.621094 283.460938 122.945312 C 283.929688 122.269531 284.527344 121.929688 285.257812 121.929688 C 285.84375 121.929688 286.292969 122.09375 286.605469 122.417969 C 286.917969 122.730469 287.074219 123.21875 287.074219 123.882812 L 287.074219 127.886719 L 286.078125 127.886719 L 286.078125 124.214844 C 286.078125 123.8125 286.042969 123.523438 285.980469 123.355469 C 285.925781 123.1875 285.816406 123.050781 285.648438 122.945312 C 285.476562 122.828125 285.277344 122.769531 285.042969 122.769531 C 284.636719 122.769531 284.300781 122.90625 284.027344 123.179688 C 283.753906 123.453125 283.617188 123.890625 283.617188 124.488281 L 283.617188 127.886719 L 282.621094 127.886719 L 282.621094 124.097656 C 282.621094 123.65625 282.542969 123.324219 282.386719 123.101562 C 282.230469 122.878906 281.96875 122.769531 281.605469 122.769531 C 281.316406 122.769531 281.058594 122.847656 280.824219 123.003906 C 280.589844 123.148438 280.417969 123.363281 280.316406 123.648438 C 280.210938 123.921875 280.160156 124.324219 280.160156 124.859375 L 280.160156 127.886719 Z M 279.164062 127.886719 "/>
<path style=" stroke:none;fill-rule:nonzero;fill:rgb(0%,0%,0%);fill-opacity:1;" d="M 289.453125 127.886719 L 288.535156 127.886719 L 288.535156 119.839844 L 289.511719 119.839844 L 289.511719 122.710938 C 289.925781 122.191406 290.460938 121.929688 291.113281 121.929688 C 291.476562 121.929688 291.816406 122 292.128906 122.144531 C 292.453125 122.289062 292.71875 122.488281 292.929688 122.75 C 293.136719 123.011719 293.300781 123.328125 293.417969 123.707031 C 293.535156 124.070312 293.59375 124.460938 293.59375 124.878906 C 293.59375 125.882812 293.34375 126.65625 292.851562 127.203125 C 292.355469 127.75 291.761719 128.023438 291.074219 128.023438 C 290.382812 128.023438 289.84375 127.738281 289.453125 127.164062 Z M 289.433594 124.917969 C 289.433594 125.621094 289.53125 126.128906 289.726562 126.441406 C 290.039062 126.949219 290.453125 127.203125 290.976562 127.203125 C 291.417969 127.203125 291.796875 127.015625 292.109375 126.636719 C 292.421875 126.257812 292.578125 125.699219 292.578125 124.957031 C 292.578125 124.203125 292.425781 123.640625 292.128906 123.277344 C 291.828125 122.914062 291.464844 122.730469 291.035156 122.730469 C 290.589844 122.730469 290.214844 122.917969 289.902344 123.296875 C 289.589844 123.675781 289.433594 124.214844 289.433594 124.917969 Z M 289.433594 124.917969 "/>
<path style=" stroke:none;fill-rule:nonzero;fill:rgb(0%,0%,0%);fill-opacity:1;" d="M 298.777344 126.011719 L 299.8125 126.128906 C 299.640625 126.726562 299.335938 127.195312 298.894531 127.535156 C 298.464844 127.859375 297.910156 128.023438 297.234375 128.023438 C 296.386719 128.023438 295.710938 127.761719 295.203125 127.242188 C 294.707031 126.707031 294.460938 125.964844 294.460938 125.015625 C 294.460938 124.039062 294.714844 123.285156 295.222656 122.75 C 295.730469 122.203125 296.386719 121.929688 297.195312 121.929688 C 297.976562 121.929688 298.605469 122.195312 299.089844 122.730469 C 299.582031 123.25 299.832031 123.992188 299.832031 124.957031 C 299.832031 125.023438 299.832031 125.113281 299.832031 125.230469 L 295.476562 125.230469 C 295.515625 125.867188 295.695312 126.355469 296.023438 126.695312 C 296.347656 127.035156 296.757812 127.203125 297.253906 127.203125 C 297.617188 127.203125 297.921875 127.113281 298.171875 126.929688 C 298.429688 126.734375 298.632812 126.429688 298.777344 126.011719 Z M 295.535156 124.410156 L 298.796875 124.410156 C 298.757812 123.914062 298.632812 123.542969 298.425781 123.296875 C 298.113281 122.917969 297.703125 122.730469 297.195312 122.730469 C 296.738281 122.730469 296.355469 122.886719 296.042969 123.199219 C 295.742188 123.5 295.574219 123.902344 295.535156 124.410156 Z M 295.535156 124.410156 "/>
<path style=" stroke:none;fill-rule:nonzero;fill:rgb(0%,0%,0%);fill-opacity:1;" d="M 304.839844 127.886719 L 304.839844 127.144531 C 304.457031 127.730469 303.910156 128.023438 303.199219 128.023438 C 302.738281 128.023438 302.320312 127.890625 301.929688 127.632812 C 301.539062 127.371094 301.230469 127.015625 301.011719 126.558594 C 300.800781 126.101562 300.699219 125.574219 300.699219 124.976562 C 300.699219 124.390625 300.796875 123.863281 300.992188 123.394531 C 301.1875 122.914062 301.46875 122.546875 301.851562 122.300781 C 302.242188 122.054688 302.675781 121.929688 303.160156 121.929688 C 303.511719 121.929688 303.824219 122 304.097656 122.144531 C 304.371094 122.289062 304.589844 122.484375 304.761719 122.730469 L 304.761719 119.839844 L 305.757812 119.839844 L 305.757812 127.886719 Z M 301.714844 124.976562 C 301.714844 125.71875 301.871094 126.277344 302.183594 126.65625 C 302.496094 127.019531 302.867188 127.203125 303.296875 127.203125 C 303.726562 127.203125 304.085938 127.027344 304.390625 126.675781 C 304.703125 126.324219 304.859375 125.785156 304.859375 125.054688 C 304.859375 124.261719 304.703125 123.675781 304.390625 123.296875 C 304.078125 122.917969 303.695312 122.730469 303.257812 122.730469 C 302.8125 122.730469 302.441406 122.914062 302.144531 123.277344 C 301.855469 123.640625 301.714844 124.207031 301.714844 124.976562 Z M 301.714844 124.976562 "/>
<path style=" stroke:none;fill-rule:nonzero;fill:rgb(0%,0%,0%);fill-opacity:1;" d="M 311.097656 127.886719 L 311.097656 127.144531 C 310.714844 127.730469 310.167969 128.023438 309.457031 128.023438 C 308.996094 128.023438 308.578125 127.890625 308.1875 127.632812 C 307.796875 127.371094 307.488281 127.015625 307.269531 126.558594 C 307.058594 126.101562 306.957031 125.574219 306.957031 124.976562 C 306.957031 124.390625 307.054688 123.863281 307.25 123.394531 C 307.445312 122.914062 307.726562 122.546875 308.109375 122.300781 C 308.5 122.054688 308.933594 121.929688 309.417969 121.929688 C 309.769531 121.929688 310.082031 122 310.355469 122.144531 C 310.628906 122.289062 310.847656 122.484375 311.019531 122.730469 L 311.019531 119.839844 L 312.015625 119.839844 L 312.015625 127.886719 Z M 307.972656 124.976562 C 307.972656 125.71875 308.128906 126.277344 308.441406 126.65625 C 308.753906 127.019531 309.125 127.203125 309.554688 127.203125 C 309.984375 127.203125 310.34375 127.027344 310.648438 126.675781 C 310.960938 126.324219 311.117188 125.785156 311.117188 125.054688 C 311.117188 124.261719 310.960938 123.675781 310.648438 123.296875 C 310.335938 122.917969 309.953125 122.730469 309.515625 122.730469 C 309.070312 122.730469 308.699219 122.914062 308.402344 123.277344 C 308.113281 123.640625 307.972656 124.207031 307.972656 124.976562 Z M 307.972656 124.976562 "/>
<path style=" stroke:none;fill-rule:nonzero;fill:rgb(0%,0%,0%);fill-opacity:1;" d="M 313.566406 120.972656 L 313.566406 119.839844 L 314.5625 119.839844 L 314.5625 120.972656 Z M 313.566406 127.886719 L 313.566406 122.046875 L 314.5625 122.046875 L 314.5625 127.886719 Z M 313.566406 127.886719 "/>
<path style=" stroke:none;fill-rule:nonzero;fill:rgb(0%,0%,0%);fill-opacity:1;" d="M 316.066406 127.886719 L 316.066406 122.046875 L 316.964844 122.046875 L 316.964844 122.886719 C 317.378906 122.25 318 121.929688 318.820312 121.929688 C 319.171875 121.929688 319.488281 121.996094 319.777344 122.125 C 320.074219 122.242188 320.292969 122.40625 320.441406 122.613281 C 320.582031 122.808594 320.683594 123.050781 320.753906 123.335938 C 320.792969 123.519531 320.8125 123.835938 320.8125 124.292969 L 320.8125 127.886719 L 319.816406 127.886719 L 319.816406 124.332031 C 319.816406 123.929688 319.777344 123.628906 319.699219 123.433594 C 319.621094 123.238281 319.484375 123.082031 319.289062 122.964844 C 319.09375 122.835938 318.863281 122.769531 318.605469 122.769531 C 318.183594 122.769531 317.824219 122.90625 317.511719 123.179688 C 317.207031 123.441406 317.0625 123.949219 317.0625 124.703125 L 317.0625 127.886719 Z M 316.066406 127.886719 "/>
<path style=" stroke:none;fill-rule:nonzero;fill:rgb(0%,0%,0%);fill-opacity:1;" d="M 322.144531 128.375 L 323.101562 128.511719 C 323.140625 128.808594 323.25 129.023438 323.433594 129.15625 C 323.679688 129.335938 324.019531 129.429688 324.449219 129.429688 C 324.90625 129.429688 325.257812 129.335938 325.503906 129.15625 C 325.75 128.96875 325.921875 128.714844 326.011719 128.394531 C 326.0625 128.183594 326.082031 127.761719 326.070312 127.125 C 325.640625 127.632812 325.105469 127.886719 324.46875 127.886719 C 323.660156 127.886719 323.035156 127.601562 322.59375 127.027344 C 322.164062 126.441406 321.949219 125.746094 321.949219 124.9375 C 321.949219 124.378906 322.046875 123.863281 322.242188 123.394531 C 322.449219 122.925781 322.742188 122.566406 323.121094 122.320312 C 323.5 122.058594 323.949219 121.929688 324.46875 121.929688 C 325.160156 121.929688 325.726562 122.203125 326.167969 122.75 L 326.167969 122.046875 L 327.085938 122.046875 L 327.085938 127.085938 C 327.085938 127.992188 326.988281 128.636719 326.792969 129.019531 C 326.609375 129.394531 326.316406 129.691406 325.914062 129.917969 C 325.523438 130.136719 325.035156 130.25 324.449219 130.25 C 323.746094 130.25 323.179688 130.09375 322.75 129.78125 C 322.332031 129.46875 322.132812 129 322.144531 128.375 Z M 322.964844 124.859375 C 322.964844 125.628906 323.113281 126.1875 323.414062 126.539062 C 323.714844 126.890625 324.089844 127.066406 324.546875 127.066406 C 325.003906 127.066406 325.386719 126.890625 325.699219 126.539062 C 326.011719 126.1875 326.167969 125.640625 326.167969 124.898438 C 326.167969 124.183594 326.003906 123.640625 325.679688 123.277344 C 325.367188 122.914062 324.988281 122.730469 324.546875 122.730469 C 324.105469 122.730469 323.726562 122.914062 323.414062 123.277344 C 323.113281 123.628906 322.964844 124.15625 322.964844 124.859375 Z M 322.964844 124.859375 "/>
<path style=" stroke:none;fill-rule:nonzero;fill:rgb(0%,0%,0%);fill-opacity:1;" d="M 283.839844 163.5 L 283.839844 156.390625 L 281.203125 156.390625 L 281.203125 155.453125 L 287.570312 155.453125 L 287.570312 156.390625 L 284.914062 156.390625 L 284.914062 163.5 Z M 283.839844 163.5 "/>
<path style=" stroke:none;fill-rule:nonzero;fill:rgb(0%,0%,0%);fill-opacity:1;" d="M 291.105469 162.777344 C 290.738281 163.089844 290.386719 163.3125 290.050781 163.441406 C 289.710938 163.570312 289.347656 163.636719 288.957031 163.636719 C 288.316406 163.636719 287.824219 163.480469 287.472656 163.167969 C 287.132812 162.855469 286.964844 162.453125 286.964844 161.957031 C 286.964844 161.671875 287.027344 161.410156 287.160156 161.175781 C 287.289062 160.941406 287.457031 160.757812 287.667969 160.609375 C 287.875 160.46875 288.109375 160.355469 288.371094 160.277344 C 288.566406 160.238281 288.859375 160.195312 289.25 160.140625 C 290.054688 160.054688 290.648438 159.9375 291.027344 159.789062 C 291.027344 159.664062 291.027344 159.574219 291.027344 159.535156 C 291.027344 159.132812 290.933594 158.851562 290.753906 158.695312 C 290.492188 158.460938 290.113281 158.34375 289.621094 158.34375 C 289.152344 158.34375 288.804688 158.429688 288.585938 158.597656 C 288.363281 158.753906 288.199219 159.042969 288.097656 159.457031 L 287.140625 159.339844 C 287.21875 158.925781 287.355469 158.59375 287.550781 158.34375 C 287.757812 158.085938 288.050781 157.890625 288.429688 157.757812 C 288.820312 157.617188 289.261719 157.542969 289.757812 157.542969 C 290.265625 157.542969 290.667969 157.601562 290.96875 157.71875 C 291.28125 157.835938 291.507812 157.988281 291.652344 158.167969 C 291.808594 158.339844 291.910156 158.558594 291.964844 158.832031 C 292.003906 159.003906 292.023438 159.300781 292.023438 159.730469 L 292.023438 161.058594 C 292.023438 161.972656 292.042969 162.554688 292.082031 162.796875 C 292.121094 163.046875 292.203125 163.28125 292.335938 163.5 L 291.300781 163.5 C 291.195312 163.296875 291.128906 163.050781 291.105469 162.777344 Z M 291.027344 160.570312 C 290.660156 160.71875 290.121094 160.839844 289.40625 160.941406 C 289 161.007812 288.714844 161.078125 288.546875 161.15625 C 288.375 161.226562 288.246094 161.328125 288.15625 161.46875 C 288.0625 161.617188 288.019531 161.773438 288.019531 161.9375 C 288.019531 162.203125 288.117188 162.421875 288.3125 162.601562 C 288.507812 162.773438 288.800781 162.855469 289.191406 162.855469 C 289.566406 162.855469 289.90625 162.773438 290.207031 162.601562 C 290.503906 162.4375 290.726562 162.207031 290.871094 161.917969 C 290.972656 161.699219 291.027344 161.371094 291.027344 160.941406 Z M 291.027344 160.570312 "/>
<path style=" stroke:none;fill-rule:nonzero;fill:rgb(0%,0%,0%);fill-opacity:1;" d="M 293.535156 163.5 L 293.535156 157.660156 L 294.433594 157.660156 L 294.433594 158.558594 C 294.652344 158.144531 294.863281 157.871094 295.058594 157.738281 C 295.253906 157.609375 295.46875 157.542969 295.703125 157.542969 C 296.023438 157.542969 296.367188 157.648438 296.71875 157.855469 L 296.367188 158.773438 C 296.132812 158.632812 295.886719 158.558594 295.644531 158.558594 C 295.433594 158.558594 295.238281 158.625 295.058594 158.753906 C 294.886719 158.886719 294.765625 159.066406 294.6875 159.300781 C 294.578125 159.652344 294.53125 160.039062 294.53125 160.453125 L 294.53125 163.5 Z M 293.535156 163.5 "/>
<path style=" stroke:none;fill-rule:nonzero;fill:rgb(0%,0%,0%);fill-opacity:1;" d="M 297.125 163.988281 L 298.082031 164.125 C 298.121094 164.421875 298.230469 164.636719 298.414062 164.769531 C 298.660156 164.949219 299 165.042969 299.429688 165.042969 C 299.882812 165.042969 300.234375 164.949219 300.484375 164.769531 C 300.730469 164.585938 300.898438 164.328125 300.992188 164.007812 C 301.042969 163.796875 301.0625 163.378906 301.050781 162.738281 C 300.621094 163.246094 300.085938 163.5 299.449219 163.5 C 298.640625 163.5 298.015625 163.21875 297.574219 162.640625 C 297.144531 162.054688 296.929688 161.359375 296.929688 160.550781 C 296.929688 159.992188 297.027344 159.476562 297.222656 159.007812 C 297.429688 158.539062 297.722656 158.183594 298.101562 157.933594 C 298.476562 157.675781 298.925781 157.542969 299.449219 157.542969 C 300.136719 157.542969 300.703125 157.816406 301.148438 158.363281 L 301.148438 157.660156 L 302.066406 157.660156 L 302.066406 162.699219 C 302.066406 163.609375 301.96875 164.25 301.773438 164.632812 C 301.589844 165.007812 301.296875 165.304688 300.894531 165.53125 C 300.503906 165.75 300.015625 165.863281 299.429688 165.863281 C 298.726562 165.863281 298.160156 165.707031 297.730469 165.394531 C 297.3125 165.082031 297.109375 164.613281 297.125 163.988281 Z M 297.945312 160.472656 C 297.945312 161.242188 298.09375 161.800781 298.394531 162.152344 C 298.691406 162.503906 299.070312 162.679688 299.527344 162.679688 C 299.980469 162.679688 300.367188 162.503906 300.679688 162.152344 C 300.992188 161.800781 301.148438 161.253906 301.148438 160.511719 C 301.148438 159.796875 300.984375 159.257812 300.660156 158.890625 C 300.347656 158.53125 299.96875 158.34375 299.527344 158.34375 C 299.082031 158.34375 298.707031 158.53125 298.394531 158.890625 C 298.09375 159.242188 297.945312 159.769531 297.945312 160.472656 Z M 297.945312 160.472656 "/>
<path style=" stroke:none;fill-rule:nonzero;fill:rgb(0%,0%,0%);fill-opacity:1;" d="M 307.542969 161.625 L 308.578125 161.742188 C 308.40625 162.34375 308.097656 162.8125 307.660156 163.148438 C 307.230469 163.476562 306.671875 163.636719 306 163.636719 C 305.148438 163.636719 304.476562 163.378906 303.96875 162.855469 C 303.46875 162.324219 303.226562 161.582031 303.226562 160.628906 C 303.226562 159.652344 303.480469 158.898438 303.988281 158.363281 C 304.496094 157.816406 305.148438 157.542969 305.960938 157.542969 C 306.742188 157.542969 307.371094 157.8125 307.855469 158.34375 C 308.347656 158.867188 308.597656 159.609375 308.597656 160.570312 C 308.597656 160.640625 308.597656 160.726562 308.597656 160.84375 L 304.242188 160.84375 C 304.28125 161.484375 304.460938 161.972656 304.789062 162.308594 C 305.109375 162.648438 305.519531 162.816406 306.019531 162.816406 C 306.378906 162.816406 306.6875 162.726562 306.9375 162.542969 C 307.195312 162.347656 307.394531 162.046875 307.542969 161.625 Z M 304.300781 160.023438 L 307.5625 160.023438 C 307.523438 159.53125 307.394531 159.160156 307.191406 158.910156 C 306.878906 158.535156 306.46875 158.34375 305.960938 158.34375 C 305.5 158.34375 305.121094 158.5 304.808594 158.8125 C 304.503906 159.117188 304.339844 159.515625 304.300781 160.023438 Z M 304.300781 160.023438 "/>
<path style=" stroke:none;fill-rule:nonzero;fill:rgb(0%,0%,0%);fill-opacity:1;" d="M 311.984375 162.621094 L 312.121094 163.480469 C 311.832031 163.542969 311.582031 163.578125 311.378906 163.578125 C 311.011719 163.578125 310.734375 163.519531 310.539062 163.402344 C 310.34375 163.285156 310.195312 163.140625 310.109375 162.953125 C 310.03125 162.773438 309.992188 162.386719 309.992188 161.800781 L 309.992188 158.441406 L 309.269531 158.441406 L 309.269531 157.660156 L 309.992188 157.660156 L 309.992188 156.214844 L 310.988281 155.628906 L 310.988281 157.660156 L 311.984375 157.660156 L 311.984375 158.441406 L 310.988281 158.441406 L 310.988281 161.839844 C 310.988281 162.128906 310.996094 162.308594 311.027344 162.386719 C 311.066406 162.464844 311.125 162.53125 311.203125 162.582031 C 311.28125 162.636719 311.386719 162.660156 311.535156 162.660156 C 311.652344 162.660156 311.796875 162.648438 311.984375 162.621094 Z M 311.984375 162.621094 "/>
<path style=" stroke:none;fill-rule:nonzero;fill:rgb(0%,0%,0%);fill-opacity:1;" d="M 312.550781 161.761719 L 313.527344 161.605469 C 313.574219 161.996094 313.726562 162.296875 313.976562 162.503906 C 314.234375 162.714844 314.585938 162.816406 315.03125 162.816406 C 315.484375 162.816406 315.820312 162.726562 316.046875 162.542969 C 316.265625 162.363281 316.378906 162.148438 316.378906 161.898438 C 316.378906 161.664062 316.28125 161.488281 316.085938 161.371094 C 315.9375 161.28125 315.601562 161.164062 315.070312 161.019531 C 314.335938 160.839844 313.828125 160.683594 313.546875 160.550781 C 313.273438 160.421875 313.0625 160.238281 312.921875 160.003906 C 312.773438 159.769531 312.707031 159.511719 312.707031 159.222656 C 312.707031 158.964844 312.765625 158.726562 312.882812 158.5 C 313 158.28125 313.160156 158.089844 313.371094 157.933594 C 313.527344 157.832031 313.730469 157.738281 313.996094 157.660156 C 314.269531 157.582031 314.550781 157.542969 314.855469 157.542969 C 315.308594 157.542969 315.703125 157.609375 316.046875 157.738281 C 316.398438 157.871094 316.65625 158.046875 316.828125 158.265625 C 316.992188 158.492188 317.109375 158.789062 317.179688 159.164062 L 316.203125 159.300781 C 316.164062 159.003906 316.03125 158.769531 315.8125 158.597656 C 315.601562 158.429688 315.308594 158.34375 314.933594 158.34375 C 314.472656 158.34375 314.152344 158.421875 313.957031 158.578125 C 313.761719 158.726562 313.664062 158.898438 313.664062 159.105469 C 313.664062 159.238281 313.703125 159.351562 313.78125 159.4375 C 313.859375 159.554688 313.984375 159.648438 314.171875 159.710938 C 314.257812 159.75 314.546875 159.835938 315.03125 159.964844 C 315.734375 160.148438 316.222656 160.296875 316.496094 160.414062 C 316.777344 160.53125 317.003906 160.707031 317.160156 160.941406 C 317.316406 161.164062 317.394531 161.445312 317.394531 161.78125 C 317.394531 162.125 317.296875 162.4375 317.101562 162.71875 C 316.90625 163.007812 316.621094 163.234375 316.261719 163.402344 C 315.910156 163.558594 315.5 163.636719 315.03125 163.636719 C 314.273438 163.636719 313.691406 163.480469 313.292969 163.167969 C 312.902344 162.84375 312.652344 162.375 312.550781 161.761719 Z M 312.550781 161.761719 "/>
<path style="fill:none;stroke-width:1;stroke-linecap:round;stroke-linejoin:round;stroke:rgb(0%,0%,0%);stroke-opacity:1;stroke-miterlimit:10;" d="M 611.5 574.8 L 611.5 568.35625 " transform="matrix(1.25,0,0,1.25,-465,-567.5)"/>
<path style="fill:none;stroke-width:1;stroke-linecap:butt;stroke-linejoin:miter;stroke:rgb(0%,0%,0%);stroke-opacity:1;stroke-miterlimit:10;" d="M 611.5 564.35625 L 611.5 568.35625 M 610 568.35625 L 611.5 564.35625 L 613 568.35625 " transform="matrix(1.25,0,0,1.25,-465,-567.5)"/>
<path style="fill:none;stroke-width:1;stroke-linecap:round;stroke-linejoin:round;stroke:rgb(0%,0%,0%);stroke-opacity:1;stroke-miterlimit:10;" d="M 611.5 544.45625 L 611.5 536.44375 " transform="matrix(1.25,0,0,1.25,-465,-567.5)"/>
<path style="fill:none;stroke-width:1;stroke-linecap:butt;stroke-linejoin:miter;stroke:rgb(0%,0%,0%);stroke-opacity:1;stroke-miterlimit:10;" d="M 611.5 532.44375 L 611.5 536.44375 M 610 536.44375 L 611.5 532.44375 L 613 536.44375 " transform="matrix(1.25,0,0,1.25,-465,-567.5)"/>
<path style=" stroke:none;fill-rule:nonzero;fill:rgb(69.803922%,85.098039%,100%);fill-opacity:1;" d="M 250.875 95.679688 L 347.875 95.679688 L 347.875 73.179688 L 250.875 73.179688 Z M 250.875 95.679688 "/>
<path style="fill:none;stroke-width:1;stroke-linecap:round;stroke-linejoin:round;stroke:rgb(0%,0%,0%);stroke-opacity:1;stroke-miterlimit:10;" d="M 572.7 512.54375 L 650.3 512.54375 L 650.3 530.54375 L 572.7 530.54375 Z M 572.7 512.54375 " transform="matrix(1.25,0,0,1.25,-465,-567.5)"/>
<path style=" stroke:none;fill-rule:nonzero;fill:rgb(0%,0%,0%);fill-opacity:1;" d="M 275.558594 87.996094 L 275.558594 79.949219 L 279.132812 79.949219 C 279.84375 79.949219 280.390625 80.023438 280.773438 80.164062 C 281.148438 80.3125 281.445312 80.566406 281.671875 80.925781 C 281.890625 81.292969 282.003906 81.699219 282.003906 82.136719 C 282.003906 82.714844 281.8125 83.191406 281.4375 83.582031 C 281.070312 83.972656 280.503906 84.222656 279.738281 84.324219 C 280.011719 84.472656 280.226562 84.609375 280.382812 84.734375 C 280.695312 85.023438 280.988281 85.378906 281.261719 85.808594 L 282.667969 87.996094 L 281.320312 87.996094 L 280.246094 86.316406 C 279.941406 85.839844 279.6875 85.472656 279.484375 85.222656 C 279.289062 84.964844 279.101562 84.785156 278.9375 84.675781 C 278.78125 84.574219 278.625 84.5 278.46875 84.460938 C 278.335938 84.4375 278.136719 84.421875 277.863281 84.421875 L 276.632812 84.421875 L 276.632812 87.996094 Z M 276.632812 83.503906 L 278.917969 83.503906 C 279.410156 83.503906 279.796875 83.457031 280.070312 83.347656 C 280.34375 83.246094 280.546875 83.085938 280.695312 82.859375 C 280.835938 82.640625 280.910156 82.402344 280.910156 82.136719 C 280.910156 81.761719 280.761719 81.449219 280.480469 81.199219 C 280.207031 80.957031 279.765625 80.828125 279.171875 80.828125 L 276.632812 80.828125 Z M 276.632812 83.503906 "/>
<path style=" stroke:none;fill-rule:nonzero;fill:rgb(0%,0%,0%);fill-opacity:1;" d="M 287.53125 86.121094 L 288.566406 86.238281 C 288.394531 86.839844 288.085938 87.308594 287.648438 87.644531 C 287.21875 87.972656 286.660156 88.132812 285.988281 88.132812 C 285.136719 88.132812 284.464844 87.875 283.957031 87.351562 C 283.457031 86.820312 283.214844 86.078125 283.214844 85.125 C 283.214844 84.148438 283.46875 83.398438 283.976562 82.859375 C 284.484375 82.3125 285.136719 82.039062 285.949219 82.039062 C 286.730469 82.039062 287.359375 82.308594 287.84375 82.839844 C 288.335938 83.363281 288.585938 84.105469 288.585938 85.066406 C 288.585938 85.136719 288.585938 85.222656 288.585938 85.339844 L 284.230469 85.339844 C 284.269531 85.980469 284.449219 86.46875 284.777344 86.804688 C 285.097656 87.148438 285.507812 87.3125 286.007812 87.3125 C 286.367188 87.3125 286.675781 87.226562 286.925781 87.039062 C 287.183594 86.84375 287.382812 86.542969 287.53125 86.121094 Z M 284.289062 84.519531 L 287.550781 84.519531 C 287.511719 84.027344 287.382812 83.65625 287.179688 83.40625 C 286.867188 83.03125 286.457031 82.839844 285.949219 82.839844 C 285.488281 82.839844 285.109375 82.996094 284.796875 83.308594 C 284.492188 83.613281 284.328125 84.011719 284.289062 84.519531 Z M 284.289062 84.519531 "/>
<path style=" stroke:none;fill-rule:nonzero;fill:rgb(0%,0%,0%);fill-opacity:1;" d="M 293.613281 85.867188 L 294.589844 85.984375 C 294.480469 86.664062 294.207031 87.191406 293.769531 87.566406 C 293.324219 87.949219 292.78125 88.132812 292.148438 88.132812 C 291.351562 88.132812 290.710938 87.875 290.234375 87.351562 C 289.75 86.835938 289.511719 86.082031 289.511719 85.105469 C 289.511719 84.472656 289.613281 83.914062 289.824219 83.445312 C 290.027344 82.976562 290.339844 82.625 290.761719 82.390625 C 291.191406 82.15625 291.660156 82.039062 292.167969 82.039062 C 292.792969 82.039062 293.304688 82.207031 293.710938 82.527344 C 294.109375 82.839844 294.375 83.289062 294.492188 83.875 L 293.535156 84.03125 C 293.441406 83.640625 293.28125 83.347656 293.046875 83.152344 C 292.8125 82.949219 292.527344 82.839844 292.207031 82.839844 C 291.699219 82.839844 291.289062 83.027344 290.976562 83.386719 C 290.671875 83.738281 290.527344 84.300781 290.527344 85.066406 C 290.527344 85.863281 290.671875 86.433594 290.976562 86.785156 C 291.273438 87.136719 291.664062 87.3125 292.148438 87.3125 C 292.539062 87.3125 292.859375 87.195312 293.125 86.960938 C 293.382812 86.726562 293.542969 86.367188 293.613281 85.867188 Z M 293.613281 85.867188 "/>
<path style=" stroke:none;fill-rule:nonzero;fill:rgb(0%,0%,0%);fill-opacity:1;" d="M 299.257812 87.996094 L 299.257812 87.136719 C 298.796875 87.800781 298.183594 88.132812 297.402344 88.132812 C 297.058594 88.132812 296.742188 88.066406 296.445312 87.9375 C 296.140625 87.796875 295.917969 87.625 295.761719 87.429688 C 295.613281 87.234375 295.515625 86.996094 295.46875 86.707031 C 295.429688 86.511719 295.410156 86.199219 295.410156 85.769531 L 295.410156 82.15625 L 296.386719 82.15625 L 296.386719 85.398438 C 296.386719 85.921875 296.410156 86.269531 296.464844 86.433594 C 296.511719 86.699219 296.640625 86.902344 296.835938 87.058594 C 297.039062 87.207031 297.292969 87.273438 297.597656 87.273438 C 297.894531 87.273438 298.171875 87.207031 298.4375 87.058594 C 298.695312 86.902344 298.875 86.699219 298.984375 86.433594 C 299.085938 86.175781 299.140625 85.789062 299.140625 85.28125 L 299.140625 82.15625 L 300.136719 82.15625 L 300.136719 87.996094 Z M 299.257812 87.996094 "/>
<path style=" stroke:none;fill-rule:nonzero;fill:rgb(0%,0%,0%);fill-opacity:1;" d="M 301.664062 87.996094 L 301.664062 82.15625 L 302.5625 82.15625 L 302.5625 83.054688 C 302.785156 82.640625 302.992188 82.367188 303.1875 82.234375 C 303.382812 82.109375 303.597656 82.039062 303.832031 82.039062 C 304.15625 82.039062 304.496094 82.148438 304.847656 82.351562 L 304.496094 83.269531 C 304.261719 83.128906 304.019531 83.054688 303.773438 83.054688 C 303.566406 83.054688 303.371094 83.125 303.1875 83.25 C 303.019531 83.382812 302.894531 83.5625 302.816406 83.796875 C 302.710938 84.148438 302.660156 84.535156 302.660156 84.949219 L 302.660156 87.996094 Z M 301.664062 87.996094 "/>
<path style=" stroke:none;fill-rule:nonzero;fill:rgb(0%,0%,0%);fill-opacity:1;" d="M 305.410156 87.996094 L 305.410156 82.15625 L 306.308594 82.15625 L 306.308594 83.054688 C 306.53125 82.640625 306.738281 82.367188 306.933594 82.234375 C 307.128906 82.109375 307.34375 82.039062 307.578125 82.039062 C 307.902344 82.039062 308.242188 82.148438 308.59375 82.351562 L 308.242188 83.269531 C 308.007812 83.128906 307.765625 83.054688 307.519531 83.054688 C 307.3125 83.054688 307.117188 83.125 306.933594 83.25 C 306.765625 83.382812 306.640625 83.5625 306.5625 83.796875 C 306.457031 84.148438 306.40625 84.535156 306.40625 84.949219 L 306.40625 87.996094 Z M 305.410156 87.996094 "/>
<path style=" stroke:none;fill-rule:nonzero;fill:rgb(0%,0%,0%);fill-opacity:1;" d="M 313.164062 86.121094 L 314.199219 86.238281 C 314.027344 86.839844 313.71875 87.308594 313.28125 87.644531 C 312.851562 87.972656 312.292969 88.132812 311.621094 88.132812 C 310.769531 88.132812 310.097656 87.875 309.589844 87.351562 C 309.089844 86.820312 308.847656 86.078125 308.847656 85.125 C 308.847656 84.148438 309.101562 83.398438 309.609375 82.859375 C 310.117188 82.3125 310.769531 82.039062 311.582031 82.039062 C 312.363281 82.039062 312.992188 82.308594 313.476562 82.839844 C 313.96875 83.363281 314.21875 84.105469 314.21875 85.066406 C 314.21875 85.136719 314.21875 85.222656 314.21875 85.339844 L 309.863281 85.339844 C 309.902344 85.980469 310.082031 86.46875 310.410156 86.804688 C 310.730469 87.148438 311.140625 87.3125 311.640625 87.3125 C 312 87.3125 312.308594 87.226562 312.558594 87.039062 C 312.816406 86.84375 313.015625 86.542969 313.164062 86.121094 Z M 309.921875 84.519531 L 313.183594 84.519531 C 313.144531 84.027344 313.015625 83.65625 312.8125 83.40625 C 312.5 83.03125 312.089844 82.839844 311.582031 82.839844 C 311.121094 82.839844 310.742188 82.996094 310.429688 83.308594 C 310.125 83.613281 309.960938 84.011719 309.921875 84.519531 Z M 309.921875 84.519531 "/>
<path style=" stroke:none;fill-rule:nonzero;fill:rgb(0%,0%,0%);fill-opacity:1;" d="M 315.433594 87.996094 L 315.433594 82.15625 L 316.332031 82.15625 L 316.332031 82.996094 C 316.75 82.363281 317.367188 82.039062 318.1875 82.039062 C 318.539062 82.039062 318.859375 82.109375 319.144531 82.234375 C 319.445312 82.351562 319.664062 82.519531 319.808594 82.722656 C 319.953125 82.917969 320.054688 83.164062 320.121094 83.445312 C 320.160156 83.632812 320.179688 83.949219 320.179688 84.402344 L 320.179688 87.996094 L 319.183594 87.996094 L 319.183594 84.441406 C 319.183594 84.042969 319.144531 83.738281 319.066406 83.542969 C 318.988281 83.347656 318.851562 83.191406 318.65625 83.074219 C 318.460938 82.949219 318.234375 82.878906 317.972656 82.878906 C 317.554688 82.878906 317.191406 83.015625 316.878906 83.289062 C 316.578125 83.554688 316.429688 84.0625 316.429688 84.8125 L 316.429688 87.996094 Z M 315.433594 87.996094 "/>
<path style=" stroke:none;fill-rule:nonzero;fill:rgb(0%,0%,0%);fill-opacity:1;" d="M 323.859375 87.117188 L 323.996094 87.976562 C 323.707031 88.039062 323.460938 88.074219 323.253906 88.074219 C 322.886719 88.074219 322.609375 88.015625 322.414062 87.898438 C 322.21875 87.78125 322.074219 87.636719 321.984375 87.449219 C 321.90625 87.269531 321.867188 86.882812 321.867188 86.296875 L 321.867188 82.9375 L 321.144531 82.9375 L 321.144531 82.15625 L 321.867188 82.15625 L 321.867188 80.710938 L 322.863281 80.125 L 322.863281 82.15625 L 323.859375 82.15625 L 323.859375 82.9375 L 322.863281 82.9375 L 322.863281 86.335938 C 322.863281 86.625 322.875 86.804688 322.902344 86.882812 C 322.941406 86.960938 323 87.03125 323.078125 87.078125 C 323.15625 87.132812 323.265625 87.15625 323.410156 87.15625 C 323.527344 87.15625 323.675781 87.148438 323.859375 87.117188 Z M 323.859375 87.117188 "/>
<g clip-path="url(#clip2)" clip-rule="nonzero">
<path style=" stroke:none;fill-rule:nonzero;fill:rgb(0%,0%,0%);fill-opacity:1;" d="M 361.640625 84.414062 L 363.867188 82.1875 C 363.984375 82.050781 364.023438 82.03125 364.023438 81.953125 C 364.023438 81.816406 363.90625 81.71875 363.789062 81.71875 C 363.710938 81.71875 363.652344 81.757812 363.554688 81.875 L 361.308594 84.101562 L 359.0625 81.875 C 358.945312 81.738281 358.90625 81.71875 358.828125 81.71875 C 358.710938 81.71875 358.59375 81.816406 358.59375 81.953125 C 358.59375 82.03125 358.652344 82.089844 358.75 82.1875 L 360.976562 84.414062 L 358.75 86.660156 C 358.632812 86.757812 358.59375 86.835938 358.59375 86.894531 C 358.59375 87.03125 358.710938 87.128906 358.828125 87.128906 C 358.90625 87.128906 358.945312 87.109375 359.0625 86.972656 L 361.308594 84.746094 L 363.554688 86.972656 C 363.652344 87.089844 363.730469 87.128906 363.789062 87.128906 C 363.925781 87.128906 364.023438 87.03125 364.023438 86.894531 C 364.023438 86.816406 363.984375 86.796875 363.867188 86.660156 Z M 361.640625 84.414062 "/>
<path style=" stroke:none;fill-rule:nonzero;fill:rgb(0%,0%,0%);fill-opacity:1;" d="M 361.640625 84.414062 L 363.867188 82.1875 C 363.984375 82.050781 364.023438 82.03125 364.023438 81.953125 C 364.023438 81.816406 363.90625 81.71875 363.789062 81.71875 C 363.710938 81.71875 363.652344 81.757812 363.554688 81.875 L 361.308594 84.101562 L 359.0625 81.875 C 358.945312 81.738281 358.90625 81.71875 358.828125 81.71875 C 358.710938 81.71875 358.59375 81.816406 358.59375 81.953125 C 358.59375 82.03125 358.652344 82.089844 358.75 82.1875 L 360.976562 84.414062 L 358.75 86.660156 C 358.632812 86.757812 358.59375 86.835938 358.59375 86.894531 C 358.59375 87.03125 358.710938 87.128906 358.828125 87.128906 C 358.90625 87.128906 358.945312 87.109375 359.0625 86.972656 L 361.308594 84.746094 L 363.554688 86.972656 C 363.652344 87.089844 363.730469 87.128906 363.789062 87.128906 C 363.925781 87.128906 364.023438 87.03125 364.023438 86.894531 C 364.023438 86.816406 363.984375 86.796875 363.867188 86.660156 Z M 361.640625 84.414062 "/>
</g>
<path style=" stroke:none;fill-rule:nonzero;fill:rgb(0%,0%,0%);fill-opacity:1;" d="M 372.925781 86.246094 C 372.847656 86.34375 372.769531 86.441406 372.691406 86.539062 C 372.359375 86.949219 372.164062 87.125 372.007812 87.125 C 371.871094 87.125 371.832031 87.027344 371.832031 86.929688 C 371.832031 86.832031 371.871094 86.636719 371.988281 86.246094 L 372.613281 83.960938 C 372.671875 83.726562 372.730469 83.472656 372.730469 83.277344 C 372.730469 82.867188 372.476562 82.59375 371.988281 82.59375 C 371.265625 82.59375 370.523438 83.277344 369.390625 85.074219 L 370.152344 82.613281 L 370.09375 82.59375 C 369.507812 82.710938 369.195312 82.769531 368.277344 82.945312 L 368.277344 83.121094 C 368.84375 83.140625 369.019531 83.199219 369.019531 83.433594 C 369.019531 83.492188 369 83.570312 368.980469 83.609375 L 367.90625 87.554688 L 368.746094 87.554688 C 369.273438 85.777344 369.371094 85.523438 369.878906 84.761719 C 370.582031 83.726562 371.089844 83.160156 371.539062 83.160156 C 371.714844 83.160156 371.8125 83.296875 371.8125 83.492188 C 371.8125 83.628906 371.734375 84.039062 371.65625 84.390625 L 371.167969 86.207031 C 370.992188 86.792969 370.972656 86.929688 370.972656 87.046875 C 370.972656 87.476562 371.226562 87.652344 371.5 87.652344 C 372.027344 87.652344 372.320312 87.4375 373.082031 86.382812 Z M 372.925781 86.246094 "/>
<path style="fill:none;stroke-width:1;stroke-linecap:round;stroke-linejoin:round;stroke:rgb(0%,0%,0%);stroke-opacity:1;stroke-miterlimit:10;" d="M 572.7 480.63125 L 650.3 480.63125 L 650.3 498.63125 L 572.7 498.63125 Z M 572.7 480.63125 " transform="matrix(1.25,0,0,1.25,-465,-567.5)"/>
<path style=" stroke:none;fill-rule:nonzero;fill:rgb(0%,0%,0%);fill-opacity:1;" d="M 292.796875 48.109375 L 292.796875 40.0625 L 298.226562 40.0625 L 298.226562 41 L 293.871094 41 L 293.871094 43.5 L 297.640625 43.5 L 297.640625 44.457031 L 293.871094 44.457031 L 293.871094 48.109375 Z M 292.796875 48.109375 "/>
<path style=" stroke:none;fill-rule:nonzero;fill:rgb(0%,0%,0%);fill-opacity:1;" d="M 305.371094 45.277344 L 306.425781 45.550781 C 306.199219 46.421875 305.800781 47.09375 305.214844 47.5625 C 304.636719 48.019531 303.929688 48.246094 303.085938 48.246094 C 302.226562 48.246094 301.523438 48.070312 300.976562 47.71875 C 300.429688 47.367188 300.007812 46.859375 299.726562 46.195312 C 299.453125 45.519531 299.316406 44.796875 299.316406 44.027344 C 299.316406 43.179688 299.472656 42.445312 299.785156 41.820312 C 300.105469 41.195312 300.566406 40.726562 301.152344 40.414062 C 301.746094 40.089844 302.402344 39.925781 303.105469 39.925781 C 303.910156 39.925781 304.589844 40.132812 305.136719 40.550781 C 305.691406 40.953125 306.078125 41.527344 306.289062 42.269531 L 305.234375 42.503906 C 305.046875 41.917969 304.785156 41.496094 304.433594 41.234375 C 304.082031 40.960938 303.632812 40.824219 303.085938 40.824219 C 302.46875 40.824219 301.957031 40.972656 301.542969 41.273438 C 301.121094 41.574219 300.828125 41.976562 300.664062 42.484375 C 300.492188 42.980469 300.410156 43.488281 300.410156 44.007812 C 300.410156 44.699219 300.507812 45.304688 300.703125 45.824219 C 300.90625 46.332031 301.21875 46.710938 301.640625 46.957031 C 302.054688 47.203125 302.507812 47.328125 303.007812 47.328125 C 303.601562 47.328125 304.105469 47.160156 304.511719 46.820312 C 304.925781 46.46875 305.214844 45.953125 305.371094 45.277344 Z M 305.371094 45.277344 "/>
<path style="fill:none;stroke-width:1;stroke-linecap:round;stroke-linejoin:round;stroke:rgb(0%,0%,0%);stroke-opacity:1;stroke-miterlimit:10;" d="M 611.5 512.54375 L 611.5 504.53125 " transform="matrix(1.25,0,0,1.25,-465,-567.5)"/>
<path style="fill:none;stroke-width:1;stroke-linecap:butt;stroke-linejoin:miter;stroke:rgb(0%,0%,0%);stroke-opacity:1;stroke-miterlimit:10;" d="M 611.5 500.53125 L 611.5 504.53125 M 610 504.53125 L 611.5 500.53125 L 613 504.53125 " transform="matrix(1.25,0,0,1.25,-465,-567.5)"/>
<path style=" stroke:none;fill-rule:nonzero;fill:rgb(23.529412%,76.078431%,100%);fill-opacity:1;" d="M 141.4375 95.679688 L 238.4375 95.679688 L 238.4375 73.179688 L 141.4375 73.179688 Z M 141.4375 95.679688 "/>
<path style="fill:none;stroke-width:1;stroke-linecap:round;stroke-linejoin:round;stroke:rgb(0%,0%,0%);stroke-opacity:1;stroke-miterlimit:10;" d="M 485.15 512.54375 L 562.75 512.54375 L 562.75 530.54375 L 485.15 530.54375 Z M 485.15 512.54375 " transform="matrix(1.25,0,0,1.25,-465,-567.5)"/>
<path style=" stroke:none;fill-rule:nonzero;fill:rgb(0%,0%,0%);fill-opacity:1;" d="M 177.3125 85.417969 L 178.308594 85.320312 C 178.355469 85.726562 178.46875 86.058594 178.640625 86.316406 C 178.820312 86.582031 179.09375 86.785156 179.460938 86.941406 C 179.820312 87.097656 180.230469 87.175781 180.691406 87.175781 C 181.089844 87.175781 181.453125 87.117188 181.765625 87 C 182.078125 86.882812 182.3125 86.722656 182.46875 86.511719 C 182.625 86.292969 182.703125 86.058594 182.703125 85.808594 C 182.703125 85.566406 182.625 85.351562 182.46875 85.164062 C 182.320312 84.96875 182.082031 84.808594 181.746094 84.675781 C 181.535156 84.589844 181.0625 84.457031 180.320312 84.285156 C 179.578125 84.105469 179.054688 83.933594 178.757812 83.777344 C 178.375 83.582031 178.09375 83.339844 177.898438 83.035156 C 177.710938 82.738281 177.625 82.402344 177.625 82.019531 C 177.625 81.621094 177.730469 81.238281 177.957031 80.886719 C 178.191406 80.535156 178.527344 80.273438 178.972656 80.085938 C 179.410156 79.90625 179.910156 79.8125 180.457031 79.8125 C 181.050781 79.8125 181.578125 79.910156 182.039062 80.105469 C 182.492188 80.292969 182.839844 80.570312 183.074219 80.945312 C 183.316406 81.328125 183.453125 81.746094 183.484375 82.214844 L 182.449219 82.292969 C 182.394531 81.785156 182.214844 81.40625 181.902344 81.140625 C 181.589844 80.882812 181.121094 80.75 180.496094 80.75 C 179.855469 80.75 179.386719 80.867188 179.089844 81.101562 C 178.785156 81.335938 178.640625 81.625 178.640625 81.960938 C 178.640625 82.25 178.742188 82.484375 178.953125 82.664062 C 179.15625 82.859375 179.695312 83.054688 180.554688 83.25 C 181.421875 83.445312 182.023438 83.617188 182.351562 83.757812 C 182.820312 83.96875 183.160156 84.242188 183.386719 84.578125 C 183.605469 84.90625 183.71875 85.292969 183.71875 85.730469 C 183.71875 86.152344 183.589844 86.550781 183.347656 86.941406 C 183.097656 87.324219 182.746094 87.617188 182.292969 87.820312 C 181.832031 88.027344 181.320312 88.132812 180.75 88.132812 C 180.015625 88.132812 179.40625 88.027344 178.914062 87.820312 C 178.414062 87.601562 178.023438 87.285156 177.742188 86.863281 C 177.46875 86.433594 177.320312 85.957031 177.3125 85.417969 Z M 177.3125 85.417969 "/>
<path style=" stroke:none;fill-rule:nonzero;fill:rgb(0%,0%,0%);fill-opacity:1;" d="M 187.21875 87.117188 L 187.355469 87.976562 C 187.066406 88.039062 186.816406 88.074219 186.613281 88.074219 C 186.246094 88.074219 185.96875 88.015625 185.773438 87.898438 C 185.578125 87.78125 185.429688 87.636719 185.34375 87.449219 C 185.265625 87.269531 185.226562 86.882812 185.226562 86.296875 L 185.226562 82.9375 L 184.503906 82.9375 L 184.503906 82.15625 L 185.226562 82.15625 L 185.226562 80.710938 L 186.222656 80.125 L 186.222656 82.15625 L 187.21875 82.15625 L 187.21875 82.9375 L 186.222656 82.9375 L 186.222656 86.335938 C 186.222656 86.625 186.230469 86.804688 186.261719 86.882812 C 186.300781 86.960938 186.359375 87.03125 186.4375 87.078125 C 186.515625 87.132812 186.621094 87.15625 186.769531 87.15625 C 186.886719 87.15625 187.03125 87.148438 187.21875 87.117188 Z M 187.21875 87.117188 "/>
<path style=" stroke:none;fill-rule:nonzero;fill:rgb(0%,0%,0%);fill-opacity:1;" d="M 191.984375 87.273438 C 191.617188 87.585938 191.265625 87.8125 190.929688 87.9375 C 190.585938 88.066406 190.226562 88.132812 189.835938 88.132812 C 189.195312 88.132812 188.703125 87.976562 188.351562 87.664062 C 188.007812 87.351562 187.84375 86.953125 187.84375 86.453125 C 187.84375 86.171875 187.90625 85.90625 188.039062 85.671875 C 188.164062 85.4375 188.335938 85.253906 188.546875 85.105469 C 188.75 84.964844 188.984375 84.851562 189.25 84.773438 C 189.445312 84.734375 189.738281 84.691406 190.128906 84.636719 C 190.933594 84.550781 191.523438 84.433594 191.90625 84.285156 C 191.90625 84.160156 191.90625 84.070312 191.90625 84.03125 C 191.90625 83.632812 191.8125 83.347656 191.632812 83.191406 C 191.367188 82.957031 190.992188 82.839844 190.5 82.839844 C 190.03125 82.839844 189.683594 82.929688 189.464844 83.09375 C 189.238281 83.25 189.078125 83.539062 188.976562 83.953125 L 188.019531 83.835938 C 188.097656 83.421875 188.234375 83.089844 188.429688 82.839844 C 188.632812 82.582031 188.925781 82.386719 189.308594 82.253906 C 189.699219 82.113281 190.136719 82.039062 190.636719 82.039062 C 191.144531 82.039062 191.542969 82.097656 191.847656 82.214844 C 192.160156 82.332031 192.382812 82.484375 192.53125 82.664062 C 192.6875 82.835938 192.789062 83.054688 192.84375 83.328125 C 192.882812 83.5 192.902344 83.796875 192.902344 84.226562 L 192.902344 85.554688 C 192.902344 86.46875 192.921875 87.050781 192.960938 87.292969 C 193 87.542969 193.082031 87.777344 193.214844 87.996094 L 192.179688 87.996094 C 192.070312 87.792969 192.007812 87.546875 191.984375 87.273438 Z M 191.90625 85.066406 C 191.539062 85.214844 190.996094 85.335938 190.285156 85.4375 C 189.878906 85.507812 189.589844 85.574219 189.425781 85.652344 C 189.253906 85.722656 189.121094 85.824219 189.035156 85.964844 C 188.941406 86.113281 188.898438 86.269531 188.898438 86.433594 C 188.898438 86.699219 188.996094 86.917969 189.191406 87.097656 C 189.386719 87.269531 189.679688 87.351562 190.070312 87.351562 C 190.445312 87.351562 190.78125 87.269531 191.085938 87.097656 C 191.382812 86.933594 191.601562 86.703125 191.75 86.414062 C 191.851562 86.195312 191.90625 85.867188 191.90625 85.4375 Z M 191.90625 85.066406 "/>
<path style=" stroke:none;fill-rule:nonzero;fill:rgb(0%,0%,0%);fill-opacity:1;" d="M 196.601562 87.117188 L 196.738281 87.976562 C 196.449219 88.039062 196.199219 88.074219 195.996094 88.074219 C 195.628906 88.074219 195.351562 88.015625 195.15625 87.898438 C 194.960938 87.78125 194.8125 87.636719 194.726562 87.449219 C 194.648438 87.269531 194.609375 86.882812 194.609375 86.296875 L 194.609375 82.9375 L 193.886719 82.9375 L 193.886719 82.15625 L 194.609375 82.15625 L 194.609375 80.710938 L 195.605469 80.125 L 195.605469 82.15625 L 196.601562 82.15625 L 196.601562 82.9375 L 195.605469 82.9375 L 195.605469 86.335938 C 195.605469 86.625 195.613281 86.804688 195.644531 86.882812 C 195.683594 86.960938 195.742188 87.03125 195.820312 87.078125 C 195.898438 87.132812 196.003906 87.15625 196.152344 87.15625 C 196.269531 87.15625 196.414062 87.148438 196.601562 87.117188 Z M 196.601562 87.117188 "/>
<path style=" stroke:none;fill-rule:nonzero;fill:rgb(0%,0%,0%);fill-opacity:1;" d="M 201.542969 86.121094 L 202.578125 86.238281 C 202.40625 86.839844 202.097656 87.308594 201.660156 87.644531 C 201.230469 87.972656 200.671875 88.132812 200 88.132812 C 199.148438 88.132812 198.476562 87.875 197.96875 87.351562 C 197.46875 86.820312 197.226562 86.078125 197.226562 85.125 C 197.226562 84.148438 197.480469 83.398438 197.988281 82.859375 C 198.496094 82.3125 199.148438 82.039062 199.960938 82.039062 C 200.742188 82.039062 201.371094 82.308594 201.855469 82.839844 C 202.347656 83.363281 202.597656 84.105469 202.597656 85.066406 C 202.597656 85.136719 202.597656 85.222656 202.597656 85.339844 L 198.242188 85.339844 C 198.28125 85.980469 198.460938 86.46875 198.789062 86.804688 C 199.109375 87.148438 199.519531 87.3125 200.019531 87.3125 C 200.378906 87.3125 200.6875 87.226562 200.9375 87.039062 C 201.195312 86.84375 201.394531 86.542969 201.542969 86.121094 Z M 198.300781 84.519531 L 201.5625 84.519531 C 201.523438 84.027344 201.394531 83.65625 201.191406 83.40625 C 200.878906 83.03125 200.46875 82.839844 199.960938 82.839844 C 199.5 82.839844 199.121094 82.996094 198.808594 83.308594 C 198.503906 83.613281 198.339844 84.011719 198.300781 84.519531 Z M 198.300781 84.519531 "/>
</g>
</svg>
