<?xml version="1.0" encoding="UTF-8" standalone="no"?>
<svg
   id="arxiv"
   width="17.712"
   height="24.272272"
   version="1.1"
   xmlns="http://www.w3.org/2000/svg"
   xmlns:svg="http://www.w3.org/2000/svg">
  <path
     d="m 6.5651057,9.3652931 2.266063,2.7379999 6.6741853,-7.8399999 c 0.35301,-0.47 0.520015,-0.717 0.35301,-1.117 a 1.2180339,1.218 0 0 0 -1.061029,-0.748 v 0 a 0.95302649,0.953 0 0 0 -0.71202,0.262 z"
     fill="#bdb9b4"
     id="path2" />
  <path
     d="M 12.541272,10.674293 1.9349769,0.50029309 A 1.4130393,1.413 0 0 0 1.1009538,2.9309148e-4 1.0900303,1.09 0 0 0 0.07392522,0.66029309 C -0.09307941,1.0602931 0.02692422,1.3412931 0.39293412,1.8662931 L 8.8331687,12.108293 v 0 l -6.2821746,7.716 a 1.3360371,1.336 0 0 0 -0.323009,1.3 1.114031,1.114 0 0 0 1.0400289,0.69 0.99202758,0.992 0 0 0 0.7480208,-0.365 l 8.5192372,-7.92 a 1.9240535,1.924 0 0 0 0.006,-2.855 z"
     fill="#b31b1b"
     id="path4" />
  <path
     d="m 17.336405,22.361293 -8.5252369,-10.275 v 0 L 6.5461051,9.3492931 5.1570665,10.603293 a 2.0630574,2.063 0 0 0 0,2.965 l 10.8123005,10.419 a 0.92502572,0.925 0 0 0 0.742021,0.282 1.0390289,1.039 0 0 0 0.953026,-0.667 1.2610351,1.261 0 0 0 -0.328009,-1.241 z"
     fill="#bdb9b4"
     id="path6" />
</svg>
