<?xml version="1.0" encoding="UTF-8" standalone="no"?>
<svg
   width="100%"
   height="100%"
   viewBox="0 0 4417 3259"
   version="1.1"
   xml:space="preserve"
   style="fill-rule:evenodd;clip-rule:evenodd;stroke-linejoin:round;stroke-miterlimit:1.41421;"
   id="svg34"
   xmlns="http://www.w3.org/2000/svg"
   xmlns:svg="http://www.w3.org/2000/svg"><defs
   id="defs38">
        
        
        
        
        
        
        
        
        
        
        
        
        
        
        
    </defs>
    <path
   d="m 2189.1809,1221.0426 c -548.4713,0 -1046.7842,65.9376 -1415.70945,173.396 v 917.9091 c 368.92525,107.4584 867.23815,173.3918 1415.70945,173.3918 627.738,0 1189.7301,-86.3709 1567.2263,-222.5085 V 1443.572 C 3378.911,1307.4219 2816.9189,1221.0426 2189.1809,1221.0426 Z"
   style="fill:#8f1e1c;fill-rule:nonzero;stroke-width:4.16667"
   id="path2" /><path
   d="m 3780.9322,2051.8433 c -16.0709,-44.4292 -19.2875,-100.6417 -5.6708,-154.8418 24.375,-97.0376 93.4209,-150.8251 154.2209,-120.1376 15.075,7.6125 28.225,19.7125 39.1125,35.075 0.9959,0 1.9917,0 2.9792,0.067 0,0 185.6335,221.2752 13.8042,483.3462 -3.7292,14.8709 -318.8919,382.1587 -391.8462,393.8504 -47.75,7.65 62.0459,-374.992 187.4002,-637.3589 z"
   style="fill:#8f1e1c;fill-rule:nonzero;stroke-width:4.16667"
   id="path4" /><path
   d="m 735.32975,2008.4224 c 22.08336,-40.125 29.82503,-94.95 17.57085,-151.7709 -21.94168,-101.7334 -99.62508,-171.2918 -173.50847,-155.3543 -18.32501,3.95 -34.68753,12.8 -48.60837,25.4083 -1.175,-0.2416 -2.35,-0.4708 -3.52084,-0.6375 0,0 -234.55019,174.8002 -50.23754,474.6838 3.35417,15.5875 349.37945,453.492 434.62952,482.3462 55.79587,18.8833 -46.86254,-385.5212 -176.32515,-674.6756 z"
   style="fill:#8f1e1c;fill-rule:nonzero;stroke-width:4.16667"
   id="path6" /><path
   d="m 406.11282,2033.61 0.0292,0.062 c 0.77084,0.6041 1.4875,1.15 -0.0292,-0.062 z"
   style="fill:#e33a25;fill-rule:nonzero;stroke-width:4.16667"
   id="path8" /><path
   d="m 4137.9991,1720.4305 c -3.6666,-12.7666 -7.3166,-25.525 -11.0916,-38.175 l 127.8459,-185.2126 c 13.0417,-18.8417 15.7083,-43.3251 7.2083,-64.8126 -8.5,-21.375 -27.0416,-36.7084 -49,-40.4584 l -216.1918,-36.6875 c -8.3667,-17.0917 -17.15,-33.925 -25.9584,-50.625 l 90.8209,-207.9294 c 9.3459,-21.1958 7.3709,-45.8125 -5.0125,-65.0333 -12.3375,-19.3167 -33.2917,-30.6001 -55.6209,-29.7209 l -219.4001,7.9708 c -11.3626,-14.79164 -22.9001,-29.44998 -34.6751,-43.83749 l 50.4209,-222.87518 c 5.1042,-22.63752 -1.3417,-46.32504 -17.0958,-62.76672 -15.6751,-16.38335 -38.4542,-23.16252 -60.1084,-17.84585 l -213.7044,52.53338 c -13.8375,-12.22918 -27.9125,-24.30419 -42.1417,-36.13753 l 7.7,-228.80852 c 0.825,-23.16252 -9.9708,-45.17087 -28.5166,-58.02088 -18.5251,-12.93334 -42.0542,-14.88751 -62.3168,-5.275 l -199.3626,94.77924 c -16.0584,-9.20834 -32.2,-18.33335 -48.5167,-27.15419 l -35.2292,-225.47934 c -3.5709,-22.84169 -18.2709,-42.2417 -38.8584,-51.10421 -20.5125,-8.90834 -44.0334,-6.03334 -62.0459,7.53334 l -177.7459,133.3626 c -17.5001,-5.81667 -35.0792,-11.3875 -52.8834,-16.71251 L 2689.9105,88.116737 c -7.7917,-21.787517 -25.7542,-37.795863 -47.6584,-42.295867 -21.8292,-4.462504 -44.2917,3.095836 -59.4292,20.008349 L 2433.2103,233.21269 c -18.0917,-2.08334 -36.1875,-3.98334 -54.3459,-5.55001 L 2263.3518,33.025026 c -11.7083,-19.716682 -32.375,-31.7166916 -54.65,-31.7166916 -22.2251,0 -42.9334,12.0000096 -54.5417,31.7166916 L 2038.6058,227.66268 c -18.1584,1.56667 -36.3417,3.46667 -54.4,5.55001 L 1834.5806,65.829219 c -15.15,-16.912513 -37.6958,-24.470853 -59.45,-20.008349 -21.8959,4.550004 -39.8875,20.50835 -47.6376,42.295867 l -76.675,213.821003 c -17.75,5.32501 -35.3375,10.94584 -52.8792,16.71251 l -177.6835,-133.3626 c -18.0667,-13.60835 -41.5834,-16.47918 -62.15,-7.53334 -20.4959,8.86251 -35.2542,28.26252 -38.8042,51.10421 l -35.2542,225.47934 c -16.3084,8.82084 -32.4542,17.89168 -48.5542,27.15419 l -199.3419,-94.77924 c -20.2417,-9.64584 -43.87084,-7.65834 -62.30835,5.275 -18.52085,12.85001 -29.34169,34.85836 -28.50003,58.02088 l 7.64584,228.80852 c -14.18751,11.83334 -28.22502,23.90835 -42.13336,36.13753 L 697.19222,662.42136 c -21.71251,-5.27083 -44.45836,1.4625 -60.17088,17.84585 -15.81251,16.44168 -22.21668,40.1292 -17.13751,62.76672 l 50.32921,222.87518 c -11.67501,14.44584 -23.22919,29.04585 -34.5542,43.83749 l -219.39601,-7.9708 c -22.14585,-0.6542 -43.2792,10.4042 -55.65004,29.7209 -12.39584,19.2208 -14.27085,43.8375 -5.04584,65.0333 l 90.89174,207.9294 c -8.82917,16.7 -17.60001,33.5333 -26.03752,50.625 l -216.17934,36.6875 c -21.96252,3.7 -40.47503,19.0251 -49.01671,40.4584 -8.4875,21.4875 -5.73333,45.9709 7.22918,64.8126 l 127.8751,185.2126 c -0.9875,3.2667 -1.89584,6.5667 -2.875,9.85 l -70.26256,74.6334 188.92098,266.8711 c 0,0 1813.13478,836.384 3494.99028,14.15 192.1168,-34.4709 236.896,-327.3295 236.896,-327.3295 z"
   style="fill:#e43a25;fill-rule:nonzero;stroke-width:4.16667"
   id="path10" /><path
   d="m 2534.5979,1569.8304 c 0,0 200.6543,-219.7043 401.3128,0 0,0 157.6668,292.9669 0,439.4295 0,0 -257.9877,205.071 -401.3128,0 0,0 -171.996,-161.1334 0,-439.4295 z"
   style="fill:#030404;fill-rule:nonzero;stroke-width:4.16667"
   id="path12" /><path
   d="m 2766.9064,1651.3347 c 0,85.5542 -50.4292,154.9126 -112.6251,154.9126 -62.1834,0 -112.6126,-69.3584 -112.6126,-154.9126 0,-85.5501 50.4292,-154.9168 112.6126,-154.9168 62.1959,0 112.6251,69.3667 112.6251,154.9168 z"
   style="fill:#ffffff;fill-rule:nonzero;stroke-width:4.16667"
   id="path14" /><path
   d="m 1639.0221,1509.8387 c 0,0 344.2003,-152.4001 438.1421,187.7585 0,0 98.4084,396.4753 -282.6544,418.8545 0,0 -485.9254,-93.5917 -155.4877,-606.613 z"
   style="fill:#030404;fill-rule:nonzero;stroke-width:4.16667"
   id="path16" /><path
   d="m 1811.8973,1656.9513 c 0,88.2209 -52.0001,159.7752 -116.1543,159.7752 -64.1292,0 -116.1417,-71.5543 -116.1417,-159.7752 0,-88.2417 52.0125,-159.7751 116.1417,-159.7751 64.1542,0 116.1543,71.5334 116.1543,159.7751 z"
   style="fill:#ffffff;fill-rule:nonzero;stroke-width:4.16667"
   id="path18" /><path
   d="m 465.00871,2080.0683 c 45.69587,-51.9292 156.71262,-114.8209 148.20845,-192.8418 -15.22085,-139.6959 -131.06677,-241.6627 -258.74604,-227.746 -31.6667,3.45 -61.07505,13.7167 -87.18341,29.3167 -1.925,-0.4458 -3.85417,-0.8792 -5.78333,-1.225 0,0 -431.79618,211.971 -185.683486,636.0713 2.320835,21.4042 491.033726,648.6172 628.283836,696.3797 89.82924,31.2584 -82.96257,-536.0004 -239.09602,-939.9549 z"
   style="fill:#e43a25;fill-rule:nonzero;stroke-width:4.16667"
   id="path20" /><path
   d="m 3973.124,2061.1391 c -52.8875,-44.5833 -192.3418,-85.075 -195.5001,-163.4917 -5.65,-140.4085 93.8,-258.4211 222.1335,-263.5836 31.825,-1.2833 62.4333,4.5125 90.5625,16.0709 1.8417,-0.725 3.6834,-1.4417 5.5375,-2.0709 0,0 458.4379,145.6293 277.8961,601.5255 0.875,21.5125 -389.4503,714.2339 -518.1046,781.8131 -84.2042,44.2292 22.9417,-547.6296 117.4751,-970.2633 z"
   style="fill:#e43a25;fill-rule:nonzero;stroke-width:4.16667"
   id="path22" /><path
   d="m 796.42564,2064.8267 c 0,0 -5.76251,572.0671 554.85876,699.7172 l 116.8918,-234.846 c 0,0 -406.2295,39.2958 -437.4795,-464.8712 z"
   style="fill:#e43a25;fill-rule:nonzero;stroke-width:4.16667"
   id="path24" /><path
   d="m 3651.5113,2064.8267 c 0,0 5.7583,572.0671 -554.863,699.7172 l -116.8917,-234.846 c 0,0 406.2294,39.2958 437.4795,-464.8712 z"
   style="fill:#e43a25;fill-rule:nonzero;stroke-width:4.16667"
   id="path26" /><path
   d="m 3245.3037,2633.868 c -81.7778,-198.1287 -345.6675,-276.79 -589.4095,-175.6934 -214.5444,88.9842 -341.7986,287.5542 -313.4773,468.9678 169.395,-2.6395 351.0991,-13.6467 527.9651,-39.3408 0,0 -104.3403,169.0664 -257.8805,316.6165 103.2459,26.7142 223.659,19.302 339.5331,-28.7587 243.7461,-101.0966 375.0468,-343.6668 293.2691,-541.7914 z"
   style="fill:#e43a25;fill-rule:nonzero;stroke-width:4.04332"
   id="path28" /><path
   d="m 1686.443,2899.9357 c 0,0 230.0127,30.3958 544.4588,38.15 27.5417,-197.9627 -122.4168,-407.467 -361.6711,-488.5129 -264.3252,-89.5334 -537.4546,11.6333 -610.0589,225.9668 -72.6042,214.3335 82.8168,460.6671 347.142,550.2046 117.1709,39.6917 236.0543,41.8709 338.4544,13.3626 -153.7959,-152.1043 -258.3252,-339.1711 -258.3252,-339.1711 z"
   style="fill:#e43a25;fill-rule:nonzero;stroke-width:4.16667"
   id="path30" />
</svg>
