<?xml version="1.0" encoding="UTF-8" standalone="no"?>
<svg
   id="github"
   width="96"
   height="96"
   version="1.1"
   xmlns="http://www.w3.org/2000/svg"
   xmlns:svg="http://www.w3.org/2000/svg">
  <path
     d="M 48.039718,0 C 21.474995,0 0,22 0,49.217 c 0,21.756 13.759769,40.172 32.848216,46.69 2.386548,0.49 3.26073,-1.059 3.26073,-2.362 0,-1.141 -0.07867,-5.052 -0.07867,-9.127 -13.363486,2.934 -16.146317,-5.867 -16.146317,-5.867 -2.147598,-5.704 -5.329661,-7.17 -5.329661,-7.17 -4.373862,-3.015 0.318599,-3.015 0.318599,-3.015 4.851762,0.326 7.39761,5.052 7.39761,5.052 4.294212,7.496 11.213921,5.378 13.997735,4.074 0.397267,-3.178 1.670682,-5.378 3.022764,-6.6 -10.658339,-1.141 -21.872261,-5.378 -21.872261,-24.283 0,-5.378 1.907665,-9.778 4.930428,-13.2 -0.476916,-1.222 -2.147598,-6.275 0.4779,-13.038 0,0 4.056246,-1.304 13.20222,5.052 a 46.18712,46.97 0 0 1 12.010421,-1.63 c 4.056245,0 8.191158,0.571 12.009437,1.63 9.146958,-6.356 13.203204,-5.052 13.203204,-5.052 2.625497,6.763 0.953832,11.816 0.476916,13.038 3.102413,3.422 4.931411,7.822 4.931411,13.2 0,18.905 -11.213922,23.06 -21.951911,24.283 1.750332,1.548 3.26073,4.481 3.26073,9.126 0,6.6 -0.07867,11.897 -0.07867,13.526 0,1.304 0.875166,2.853 3.26073,2.364 C 82.240016,89.388 95.999785,70.973 95.999785,49.217 96.078452,22 74.524791,0 48.039718,0 Z"
     fill="#000000"
     id="path2" />
</svg>
