<?xml version="1.0" encoding="UTF-8" standalone="no"?>
<svg
   id="rust"
   width="105"
   height="105"
   version="1.1"
   xmlns="http://www.w3.org/2000/svg"
   xmlns:svg="http://www.w3.org/2000/svg">
  <path
     id="path2"
     fill="#000000"
     d="m 52.328128,0.0099391 a 1.50012,1.5001325 0 0 0 -1.115211,0.7187416 l -2.669869,4.4491669 c -0.467817,0.03885 -0.934488,0.080427 -1.398411,0.132811 L 43.662285,1.4728126 A 1.50012,1.5001325 0 0 0 41.136946,1.97476 l -1.749965,4.8827556 c -0.451295,0.1299851 -0.901906,0.2613555 -1.34763,0.4042921 L 33.877326,4.1778593 a 1.50012,1.5001325 0 0 0 -2.378859,0.9843636 l -0.765609,5.1464251 c -0.410265,0.212651 -0.819419,0.426223 -1.222632,0.650383 L 24.807194,8.738353 a 1.50012,1.5001325 0 0 0 -2.138629,1.429671 l 0.253901,5.21283 c -0.356324,0.284588 -0.708735,0.572677 -1.056619,0.867178 l -5.062399,-1.265611 a 1.50012,1.5001325 0 0 0 -1.820276,1.820291 l 1.2656,5.062441 c -0.294498,0.347888 -0.582585,0.700302 -0.86717,1.056629 l -5.212786,-0.253903 a 1.50012,1.5001325 0 0 0 -1.4296596,2.138647 l 2.2206586,4.70307 c -0.224158,0.403217 -0.437728,0.812374 -0.650377,1.222642 l -5.1463819,0.765616 a 1.50012,1.5001325 0 0 0 -0.9843553,2.378878 l 3.0839227,4.16206 c -0.1429354,0.445729 -0.2743048,0.896343 -0.4042888,1.347642 l -4.8827148,1.749979 a 1.50012,1.5001325 0 0 0 -0.5019432,2.525361 l 3.8378139,3.482382 c -0.052383,0.463926 -0.093959,0.9306 -0.1328098,1.398422 l -4.44912985,2.66989 a 1.50012,1.5001325 0 0 0 0,2.574188 l 4.44912985,2.669891 c 0.038849,0.467821 0.080425,0.934495 0.1328098,1.398422 L 1.4736767,61.33735 a 1.50012,1.5001325 0 0 0 0.5019432,2.525361 l 4.8827148,1.74998 c 0.129984,0.451298 0.2613534,0.901913 0.4042888,1.34764 l -3.0839227,4.162061 a 1.50012,1.5001325 0 0 0 0.9843553,2.378879 l 5.1463819,0.765616 c 0.212649,0.410266 0.426219,0.819425 0.650377,1.222641 l -2.2206586,4.70307 a 1.50012,1.5001325 0 0 0 1.4296596,2.138648 l 5.212786,-0.253903 c 0.284585,0.356326 0.572672,0.70874 0.86717,1.056628 l -1.2656,5.062441 a 1.50012,1.5001325 0 0 0 1.820276,1.820291 l 5.062399,-1.26561 c 0.347884,0.2945 0.700295,0.582588 1.056619,0.867177 l -0.253901,5.21283 a 1.50012,1.5001325 0 0 0 2.138629,1.429671 l 4.703032,-2.220677 c 0.403213,0.224159 0.812367,0.43773 1.222632,0.650383 l 0.765609,5.146417 a 1.50012,1.5001325 0 0 0 2.378859,0.984366 l 4.162025,-3.083944 c 0.445724,0.142937 0.896335,0.274307 1.34763,0.404293 l 1.749965,4.882751 a 1.50012,1.5001325 0 0 0 2.525339,0.50194 l 3.482352,-3.837836 c 0.463923,0.0524 0.930594,0.094 1.398411,0.13282 l 2.669869,4.449156 a 1.50012,1.5001325 0 0 0 2.574166,0 l 2.669869,-4.449156 c 0.467816,-0.0388 0.934487,-0.0804 1.39841,-0.13282 l 3.482352,3.837836 a 1.50012,1.5001325 0 0 0 2.525339,-0.50194 l 1.749966,-4.882751 c 0.451295,-0.129986 0.901905,-0.261356 1.34763,-0.404293 l 4.162025,3.083944 a 1.50012,1.5001325 0 0 0 2.378858,-0.984366 l 0.76561,-5.146417 c 0.410264,-0.212653 0.819419,-0.426224 1.222632,-0.650383 l 4.703031,2.220677 A 1.50012,1.5001325 0 0 0 82.331434,94.8311 l -0.253901,-5.21283 c 0.356324,-0.284589 0.708735,-0.572677 1.05662,-0.867177 l 5.062398,1.26561 a 1.50012,1.5001325 0 0 0 1.820276,-1.820291 l -1.265599,-5.062441 c 0.294498,-0.347888 0.582584,-0.700302 0.86717,-1.056628 l 5.212786,0.253903 a 1.50012,1.5001325 0 0 0 1.429659,-2.138648 l -2.220658,-4.70307 c 0.224158,-0.403216 0.437727,-0.812375 0.650377,-1.222641 l 5.146378,-0.765616 a 1.50012,1.5001325 0 0 0 0.98436,-2.378879 l -3.083924,-4.162061 c 0.142936,-0.445727 0.274304,-0.896342 0.404289,-1.34764 l 4.882715,-1.74998 a 1.50012,1.5001325 0 0 0 0.50194,-2.525361 l -3.83781,-3.482381 c 0.0524,-0.463927 0.0939,-0.930601 0.13282,-1.398422 l 4.44912,-2.669891 a 1.50012,1.5001325 0 0 0 0,-2.574188 l -4.44912,-2.66989 c -0.0388,-0.467822 -0.0804,-0.934496 -0.13282,-1.398422 l 3.83781,-3.482382 a 1.50012,1.5001325 0 0 0 -0.50194,-2.525361 L 98.141665,39.386434 C 98.01168,38.935135 97.880312,38.484521 97.737376,38.038792 l 3.083924,-4.16206 a 1.50012,1.5001325 0 0 0 -0.98436,-2.378878 l -5.146378,-0.765616 c -0.21265,-0.410268 -0.426219,-0.819425 -0.650377,-1.222642 l 2.220658,-4.70307 a 1.50012,1.5001325 0 0 0 -1.429659,-2.138647 l -5.212786,0.253903 c -0.284586,-0.356327 -0.572672,-0.708741 -0.86717,-1.056629 l 1.265599,-5.062441 a 1.50012,1.5001325 0 0 0 -1.820276,-1.820291 l -5.062398,1.265611 c -0.347885,-0.294501 -0.700296,-0.58259 -1.05662,-0.867178 l 0.253901,-5.21283 A 1.50012,1.5001325 0 0 0 80.192805,8.738353 l -4.703031,2.220678 c -0.403213,-0.22416 -0.812368,-0.437732 -1.222632,-0.650383 L 73.501532,5.1622229 A 1.50012,1.5001325 0 0 0 71.122674,4.1778593 L 66.960649,7.2618077 C 66.514924,7.1188711 66.064314,6.9875007 65.613019,6.8575156 L 63.863053,1.97476 A 1.50012,1.5001325 0 0 0 61.337714,1.4728126 l -3.482352,3.837846 c -0.463923,-0.052384 -0.930594,-0.093961 -1.39841,-0.132811 L 53.787083,0.7286807 A 1.50012,1.5001325 0 0 0 52.328128,0.0099391 Z M 52.5,9.5000628 A 2.99994,2.999965 0 0 1 55.49994,12.500028 2.99994,2.999965 0 0 1 52.5,15.499994 2.99994,2.999965 0 0 1 49.50006,12.500028 2.99994,2.999965 0 0 1 52.5,9.5000628 Z m -7.085796,5.1561912 4.964744,4.964786 a 3.00024,3.000265 0 0 0 4.242103,0 l 4.964745,-4.964786 c 11.562478,2.138957 21.287714,9.410302 26.72798,19.384539 l -3.201108,6.281177 a 3.00024,3.000265 0 0 0 1.312475,4.035109 l 6.247921,3.183557 c 0.207619,1.624304 0.326166,3.276733 0.326166,4.958926 0,1.010817 -0.05106,2.009125 -0.12695,2.999965 h -3.872971 a 0.50003999,0.50004417 0 0 0 -0.49999,0.499994 v 1.999977 c 0,1.906222 -0.52835,3.208581 -1.292943,4.056594 -0.764592,0.84801 -1.783911,1.261845 -2.857364,1.318343 -2.146904,0.112997 -4.414602,-1.249222 -4.859278,-3.472615 -0.520102,-2.600536 -1.805941,-4.907869 -3.093688,-6.581956 -0.643872,-0.837041 -1.288207,-1.515876 -1.853478,-1.998022 -0.206155,-0.17584 -0.390454,-0.294978 -0.576161,-0.417965 3.315981,-1.9585 5.534053,-4.307482 6.574088,-6.839763 1.128592,-2.747903 1.028693,-5.637566 0.05273,-8.240139 -1.951906,-5.205147 -7.371395,-9.32411 -13.593475,-9.32411 H 24.070881 c 5.520615,-6.03599 12.94876,-10.290691 21.343323,-11.843611 z M 14.543728,37.140366 a 2.99994,2.999965 0 0 1 0.84178,0.146483 2.99994,2.999965 0 0 1 1.925743,3.779252 2.99994,2.999965 0 0 1 -3.779222,1.92576 2.99994,2.999965 0 0 1 -1.925743,-3.779253 2.99994,2.999965 0 0 1 2.937442,-2.072242 z m 75.912544,0 a 2.99994,2.999965 0 0 1 2.937441,2.072242 2.99994,2.999965 0 0 1 -1.925743,3.779253 2.99994,2.999965 0 0 1 -3.779222,-1.92576 2.99994,2.999965 0 0 1 1.925743,-3.779252 2.99994,2.999965 0 0 1 0.841781,-0.146483 z m -69.49861,1.359359 H 27.5005 V 63.499434 H 15.594488 C 14.562723,60.015088 14.00077,56.325661 14.00077,52.499562 c 0,-1.682193 0.118546,-3.334622 0.326166,-4.958926 l 6.247922,-3.183557 a 3.00024,3.000265 0 0 0 1.312474,-4.035109 z m 23.542497,0 H 56.99991 c 1.916622,0 3.305822,0.480386 4.199135,1.150378 0.893312,0.669989 1.300755,1.51626 1.300755,2.349582 0,0.833319 -0.407443,1.679591 -1.300755,2.349581 -0.893313,0.669993 -2.282513,1.150378 -4.199135,1.150378 H 44.500159 Z m 0,17.99979 h 9.499811 c 2.606,0 4.082515,1.061107 5.140522,2.736297 1.058007,1.67519 1.620839,4.000366 2.119099,6.367113 0.498257,2.366745 0.930032,4.768473 1.853478,6.64836 0.923445,1.879887 2.460751,3.248009 4.886621,3.248009 h 15.407894 c -0.901103,1.210804 -1.877535,2.360322 -2.91205,3.455037 l -6.954939,-1.101548 a 3.00024,3.000265 0 0 0 -3.431573,2.492157 l -1.103493,6.960857 C 64.006728,89.672215 58.413578,90.999114 52.5,90.999114 c -5.913579,0 -11.506728,-1.326899 -16.505529,-3.693317 L 34.890977,80.34494 a 3.00024,3.000265 0 0 0 -3.431572,-2.492157 l -6.954939,1.101548 C 23.46995,77.859616 22.493518,76.710098 21.592415,75.499294 H 52.99999 A 0.50003999,0.50004417 0 0 0 53.49998,74.9993 V 63.999428 A 0.50003999,0.50004417 0 0 0 52.99999,63.499434 H 44.500159 Z M 29.160623,81.864454 a 2.99994,2.999965 0 0 1 1.591765,0.568353 2.99994,2.999965 0 0 1 0.664049,4.191357 2.99994,2.999965 0 0 1 -4.191323,0.662101 2.99994,2.999965 0 0 1 -0.662096,-4.189403 2.99994,2.999965 0 0 1 2.597605,-1.232408 z m 46.678754,0 a 2.99994,2.999965 0 0 1 2.597604,1.232408 2.99994,2.999965 0 0 1 -0.662096,4.189403 2.99994,2.999965 0 0 1 -4.191323,-0.662101 2.99994,2.999965 0 0 1 0.664049,-4.191357 2.99994,2.999965 0 0 1 1.591766,-0.568353 z" />
</svg>
