<?xml version="1.0" encoding="UTF-8"?>
<svg xmlns="http://www.w3.org/2000/svg" xmlns:xlink="http://www.w3.org/1999/xlink" width="308pt" height="229pt" viewBox="0 0 308 229" version="1.1">
<defs>
<clipPath id="clip1">
  <path d="M 70 15 L 291.25 15 L 291.25 19 L 70 19 Z M 70 15 "/>
</clipPath>
<filter id="alpha" filterUnits="objectBoundingBox" x="0%" y="0%" width="100%" height="100%">
  <feColorMatrix type="matrix" in="SourceGraphic" values="0 0 0 0 1 0 0 0 0 1 0 0 0 0 1 0 0 0 1 0"/>
</filter>
<mask id="mask0">
  <g filter="url(#alpha)">
<rect x="0" y="0" width="308" height="229" style="fill:rgb(0%,0%,0%);fill-opacity:0.8;stroke:none;"/>
  </g>
</mask>
<clipPath id="clip2">
  <rect x="0" y="0" width="308" height="229"/>
</clipPath>
<g id="surface5" clip-path="url(#clip2)">
<path style="fill-rule:nonzero;fill:rgb(100%,100%,100%);fill-opacity:1;stroke-width:1;stroke-linecap:butt;stroke-linejoin:miter;stroke:rgb(80%,80%,80%);stroke-opacity:1;stroke-miterlimit:4;" d="M 44.7 140.8 L 124.290625 140.8 C 125.625 140.8 126.290625 140.134375 126.290625 138.8 L 126.290625 109.8875 C 126.290625 108.553125 125.625 107.8875 124.290625 107.8875 L 44.7 107.8875 C 43.365625 107.8875 42.7 108.553125 42.7 109.8875 L 42.7 138.8 C 42.7 140.134375 43.365625 140.8 44.7 140.8 Z M 44.7 140.8 " transform="matrix(1.25,0,0,1.25,0,0)"/>
</g>
</defs>
<g id="surface1">
<rect x="0" y="0" width="308" height="229" style="fill:rgb(100%,100%,100%);fill-opacity:1;stroke:none;"/>
<path style=" stroke:none;fill-rule:nonzero;fill:rgb(100%,100%,100%);fill-opacity:1;" d="M 47.125 182.25 L 291.25 182.25 L 291.25 9 L 47.125 9 Z M 47.125 182.25 "/>
<path style="fill:none;stroke-width:0.8;stroke-linecap:butt;stroke-linejoin:round;stroke:rgb(0%,0%,0%);stroke-opacity:1;stroke-miterlimit:4;" d="M 0 0 L 0 3.5 " transform="matrix(1.25,0,0,1.25,47.125,182.25)"/>
<path style=" stroke:none;fill-rule:nonzero;fill:rgb(0%,0%,0%);fill-opacity:1;" d="M 47.121094 192.199219 C 46.488281 192.199219 46.007812 192.511719 45.6875 193.136719 C 45.371094 193.757812 45.210938 194.699219 45.210938 195.953125 C 45.210938 197.199219 45.371094 198.136719 45.6875 198.761719 C 46.007812 199.386719 46.488281 199.699219 47.121094 199.699219 C 47.761719 199.699219 48.238281 199.386719 48.558594 198.761719 C 48.878906 198.136719 49.039062 197.199219 49.039062 195.953125 C 49.039062 194.699219 48.878906 193.757812 48.558594 193.136719 C 48.238281 192.511719 47.761719 192.199219 47.121094 192.199219 Z M 47.121094 191.222656 C 48.144531 191.222656 48.921875 191.625 49.460938 192.433594 C 50 193.242188 50.273438 194.414062 50.273438 195.953125 C 50.273438 197.484375 50 198.65625 49.460938 199.464844 C 48.921875 200.273438 48.144531 200.675781 47.121094 200.675781 C 46.101562 200.675781 45.320312 200.273438 44.78125 199.464844 C 44.242188 198.65625 43.972656 197.484375 43.972656 195.953125 C 43.972656 194.414062 44.242188 193.242188 44.78125 192.433594 C 45.320312 191.625 46.101562 191.222656 47.121094 191.222656 Z M 47.121094 191.222656 "/>
<path style="fill:none;stroke-width:0.8;stroke-linecap:butt;stroke-linejoin:round;stroke:rgb(0%,0%,0%);stroke-opacity:1;stroke-miterlimit:4;" d="M -0.000625 0 L -0.000625 3.5 " transform="matrix(1.25,0,0,1.25,95.95,182.25)"/>
<path style=" stroke:none;fill-rule:nonzero;fill:rgb(0%,0%,0%);fill-opacity:1;" d="M 94.371094 199.460938 L 98.675781 199.460938 L 98.675781 200.5 L 92.890625 200.5 L 92.890625 199.460938 C 93.355469 198.976562 93.996094 198.328125 94.800781 197.511719 C 95.609375 196.695312 96.117188 196.167969 96.324219 195.933594 C 96.71875 195.488281 96.996094 195.113281 97.152344 194.808594 C 97.308594 194.5 97.386719 194.199219 97.386719 193.902344 C 97.386719 193.417969 97.21875 193.023438 96.878906 192.71875 C 96.539062 192.410156 96.09375 192.257812 95.550781 192.257812 C 95.164062 192.257812 94.753906 192.324219 94.324219 192.460938 C 93.898438 192.59375 93.4375 192.796875 92.949219 193.070312 L 92.949219 191.824219 C 93.445312 191.625 93.910156 191.476562 94.339844 191.375 C 94.773438 191.273438 95.167969 191.222656 95.527344 191.222656 C 96.46875 191.222656 97.222656 191.457031 97.785156 191.929688 C 98.34375 192.402344 98.625 193.03125 98.625 193.820312 C 98.625 194.195312 98.554688 194.550781 98.414062 194.886719 C 98.277344 195.222656 98.019531 195.617188 97.648438 196.074219 C 97.546875 196.191406 97.222656 196.53125 96.679688 197.097656 C 96.132812 197.660156 95.367188 198.449219 94.371094 199.460938 Z M 94.371094 199.460938 "/>
<path style="fill:none;stroke-width:0.8;stroke-linecap:butt;stroke-linejoin:round;stroke:rgb(0%,0%,0%);stroke-opacity:1;stroke-miterlimit:4;" d="M -0.00125 0 L -0.00125 3.5 " transform="matrix(1.25,0,0,1.25,144.775,182.25)"/>
<path style=" stroke:none;fill-rule:nonzero;fill:rgb(0%,0%,0%);fill-opacity:1;" d="M 145.523438 192.460938 L 142.410156 197.324219 L 145.523438 197.324219 Z M 145.199219 191.386719 L 146.75 191.386719 L 146.75 197.324219 L 148.050781 197.324219 L 148.050781 198.351562 L 146.75 198.351562 L 146.75 200.5 L 145.523438 200.5 L 145.523438 198.351562 L 141.410156 198.351562 L 141.410156 197.160156 Z M 145.199219 191.386719 "/>
<path style="fill:none;stroke-width:0.8;stroke-linecap:butt;stroke-linejoin:round;stroke:rgb(0%,0%,0%);stroke-opacity:1;stroke-miterlimit:4;" d="M 0.00125 0 L 0.00125 3.5 " transform="matrix(1.25,0,0,1.25,193.6,182.25)"/>
<path style=" stroke:none;fill-rule:nonzero;fill:rgb(0%,0%,0%);fill-opacity:1;" d="M 193.75 195.453125 C 193.195312 195.453125 192.757812 195.640625 192.433594 196.019531 C 192.109375 196.398438 191.949219 196.914062 191.949219 197.574219 C 191.949219 198.230469 192.109375 198.746094 192.433594 199.128906 C 192.757812 199.507812 193.195312 199.699219 193.75 199.699219 C 194.304688 199.699219 194.742188 199.507812 195.066406 199.128906 C 195.386719 198.746094 195.550781 198.230469 195.550781 197.574219 C 195.550781 196.914062 195.386719 196.398438 195.066406 196.019531 C 194.742188 195.640625 194.304688 195.453125 193.75 195.453125 Z M 196.199219 191.585938 L 196.199219 192.710938 C 195.886719 192.5625 195.574219 192.453125 195.261719 192.375 C 194.945312 192.296875 194.632812 192.257812 194.324219 192.257812 C 193.507812 192.257812 192.886719 192.53125 192.457031 193.082031 C 192.027344 193.632812 191.785156 194.460938 191.722656 195.574219 C 191.960938 195.21875 192.261719 194.945312 192.625 194.757812 C 192.988281 194.570312 193.386719 194.476562 193.824219 194.476562 C 194.738281 194.476562 195.460938 194.753906 195.992188 195.308594 C 196.523438 195.863281 196.789062 196.617188 196.789062 197.574219 C 196.789062 198.511719 196.511719 199.261719 195.960938 199.828125 C 195.40625 200.394531 194.667969 200.675781 193.75 200.675781 C 192.695312 200.675781 191.890625 200.273438 191.332031 199.464844 C 190.773438 198.65625 190.496094 197.484375 190.496094 195.953125 C 190.496094 194.511719 190.839844 193.363281 191.523438 192.507812 C 192.207031 191.648438 193.121094 191.222656 194.273438 191.222656 C 194.582031 191.222656 194.894531 191.25 195.210938 191.3125 C 195.527344 191.375 195.855469 191.464844 196.199219 191.585938 Z M 196.199219 191.585938 "/>
<path style="fill:none;stroke-width:0.8;stroke-linecap:butt;stroke-linejoin:round;stroke:rgb(0%,0%,0%);stroke-opacity:1;stroke-miterlimit:4;" d="M 0.000625 0 L 0.000625 3.5 " transform="matrix(1.25,0,0,1.25,242.425,182.25)"/>
<path style=" stroke:none;fill-rule:nonzero;fill:rgb(0%,0%,0%);fill-opacity:1;" d="M 242.421875 196.171875 C 241.835938 196.171875 241.375 196.328125 241.039062 196.640625 C 240.703125 196.953125 240.535156 197.386719 240.535156 197.933594 C 240.535156 198.484375 240.703125 198.914062 241.039062 199.230469 C 241.375 199.542969 241.835938 199.699219 242.421875 199.699219 C 243.007812 199.699219 243.46875 199.542969 243.804688 199.226562 C 244.144531 198.910156 244.3125 198.480469 244.3125 197.933594 C 244.3125 197.386719 244.144531 196.953125 243.808594 196.640625 C 243.476562 196.328125 243.011719 196.171875 242.421875 196.171875 Z M 241.1875 195.648438 C 240.660156 195.515625 240.246094 195.269531 239.953125 194.910156 C 239.65625 194.546875 239.511719 194.101562 239.511719 193.582031 C 239.511719 192.855469 239.769531 192.277344 240.289062 191.855469 C 240.808594 191.433594 241.519531 191.222656 242.421875 191.222656 C 243.328125 191.222656 244.039062 191.433594 244.558594 191.855469 C 245.074219 192.277344 245.332031 192.855469 245.332031 193.582031 C 245.332031 194.101562 245.183594 194.546875 244.890625 194.910156 C 244.59375 195.269531 244.1875 195.515625 243.660156 195.648438 C 244.253906 195.785156 244.71875 196.054688 245.046875 196.460938 C 245.378906 196.863281 245.546875 197.351562 245.546875 197.933594 C 245.546875 198.816406 245.277344 199.496094 244.738281 199.96875 C 244.199219 200.441406 243.425781 200.675781 242.421875 200.675781 C 241.417969 200.675781 240.644531 200.441406 240.105469 199.96875 C 239.566406 199.496094 239.296875 198.816406 239.296875 197.933594 C 239.296875 197.351562 239.460938 196.863281 239.796875 196.460938 C 240.128906 196.054688 240.59375 195.785156 241.1875 195.648438 Z M 240.738281 193.699219 C 240.738281 194.171875 240.882812 194.539062 241.179688 194.804688 C 241.472656 195.066406 241.886719 195.199219 242.421875 195.199219 C 242.949219 195.199219 243.363281 195.066406 243.664062 194.804688 C 243.960938 194.539062 244.113281 194.171875 244.113281 193.699219 C 244.113281 193.226562 243.960938 192.859375 243.664062 192.59375 C 243.363281 192.328125 242.949219 192.199219 242.421875 192.199219 C 241.886719 192.199219 241.472656 192.328125 241.179688 192.59375 C 240.882812 192.859375 240.738281 193.226562 240.738281 193.699219 Z M 240.738281 193.699219 "/>
<path style="fill:none;stroke-width:0.8;stroke-linecap:butt;stroke-linejoin:round;stroke:rgb(0%,0%,0%);stroke-opacity:1;stroke-miterlimit:4;" d="M 0 0 L 0 3.5 " transform="matrix(1.25,0,0,1.25,291.25,182.25)"/>
<path style=" stroke:none;fill-rule:nonzero;fill:rgb(0%,0%,0%);fill-opacity:1;" d="M 284.847656 199.460938 L 286.859375 199.460938 L 286.859375 192.507812 L 284.671875 192.949219 L 284.671875 191.824219 L 286.851562 191.386719 L 288.082031 191.386719 L 288.082031 199.460938 L 290.09375 199.460938 L 290.09375 200.5 L 284.847656 200.5 Z M 284.847656 199.460938 "/>
<path style=" stroke:none;fill-rule:nonzero;fill:rgb(0%,0%,0%);fill-opacity:1;" d="M 295.222656 192.199219 C 294.589844 192.199219 294.109375 192.511719 293.789062 193.136719 C 293.472656 193.757812 293.3125 194.699219 293.3125 195.953125 C 293.3125 197.199219 293.472656 198.136719 293.789062 198.761719 C 294.109375 199.386719 294.589844 199.699219 295.222656 199.699219 C 295.863281 199.699219 296.339844 199.386719 296.660156 198.761719 C 296.980469 198.136719 297.140625 197.199219 297.140625 195.953125 C 297.140625 194.699219 296.980469 193.757812 296.660156 193.136719 C 296.339844 192.511719 295.863281 192.199219 295.222656 192.199219 Z M 295.222656 191.222656 C 296.246094 191.222656 297.023438 191.625 297.5625 192.433594 C 298.101562 193.242188 298.371094 194.414062 298.371094 195.953125 C 298.371094 197.484375 298.101562 198.65625 297.5625 199.464844 C 297.023438 200.273438 296.246094 200.675781 295.222656 200.675781 C 294.203125 200.675781 293.421875 200.273438 292.882812 199.464844 C 292.34375 198.65625 292.074219 197.484375 292.074219 195.953125 C 292.074219 194.414062 292.34375 193.242188 292.882812 192.433594 C 293.421875 191.625 294.203125 191.222656 295.222656 191.222656 Z M 295.222656 191.222656 "/>
<path style=" stroke:none;fill-rule:nonzero;fill:rgb(0%,0%,0%);fill-opacity:1;" d="M 157.179688 213.898438 L 157.179688 214.445312 L 152.015625 214.445312 C 152.0625 215.21875 152.296875 215.808594 152.710938 216.214844 C 153.128906 216.617188 153.710938 216.820312 154.453125 216.820312 C 154.886719 216.820312 155.304688 216.769531 155.710938 216.664062 C 156.113281 216.558594 156.515625 216.398438 156.914062 216.1875 L 156.914062 217.25 C 156.511719 217.417969 156.097656 217.550781 155.675781 217.640625 C 155.253906 217.730469 154.824219 217.773438 154.390625 217.773438 C 153.296875 217.773438 152.433594 217.457031 151.796875 216.824219 C 151.160156 216.1875 150.84375 215.328125 150.84375 214.246094 C 150.84375 213.125 151.144531 212.238281 151.75 211.582031 C 152.351562 210.925781 153.167969 210.597656 154.195312 210.597656 C 155.113281 210.597656 155.839844 210.890625 156.375 211.484375 C 156.910156 212.074219 157.179688 212.878906 157.179688 213.898438 Z M 156.054688 213.566406 C 156.046875 212.953125 155.875 212.464844 155.539062 212.097656 C 155.203125 211.730469 154.757812 211.546875 154.203125 211.546875 C 153.578125 211.546875 153.078125 211.722656 152.703125 212.078125 C 152.324219 212.433594 152.109375 212.929688 152.050781 213.574219 Z M 156.054688 213.566406 "/>
<path style=" stroke:none;fill-rule:nonzero;fill:rgb(0%,0%,0%);fill-opacity:1;" d="M 160.105469 216.570312 L 160.105469 220.195312 L 158.976562 220.195312 L 158.976562 210.761719 L 160.105469 210.761719 L 160.105469 211.796875 C 160.34375 211.390625 160.640625 211.089844 161 210.894531 C 161.363281 210.695312 161.792969 210.597656 162.292969 210.597656 C 163.121094 210.597656 163.796875 210.925781 164.316406 211.585938 C 164.835938 212.242188 165.09375 213.109375 165.09375 214.183594 C 165.09375 215.257812 164.835938 216.125 164.316406 216.785156 C 163.796875 217.445312 163.121094 217.773438 162.292969 217.773438 C 161.792969 217.773438 161.363281 217.675781 161 217.476562 C 160.640625 217.277344 160.34375 216.976562 160.105469 216.570312 Z M 163.929688 214.183594 C 163.929688 213.359375 163.757812 212.710938 163.417969 212.242188 C 163.078125 211.769531 162.613281 211.535156 162.019531 211.535156 C 161.421875 211.535156 160.957031 211.769531 160.617188 212.242188 C 160.277344 212.710938 160.105469 213.359375 160.105469 214.183594 C 160.105469 215.007812 160.277344 215.65625 160.617188 216.128906 C 160.957031 216.597656 161.421875 216.832031 162.019531 216.832031 C 162.613281 216.832031 163.078125 216.597656 163.417969 216.128906 C 163.757812 215.65625 163.929688 215.007812 163.929688 214.183594 Z M 163.929688 214.183594 "/>
<path style=" stroke:none;fill-rule:nonzero;fill:rgb(0%,0%,0%);fill-opacity:1;" d="M 169.601562 211.546875 C 169 211.546875 168.527344 211.78125 168.175781 212.253906 C 167.824219 212.722656 167.648438 213.367188 167.648438 214.183594 C 167.648438 215 167.824219 215.644531 168.171875 216.117188 C 168.519531 216.585938 169 216.820312 169.601562 216.820312 C 170.203125 216.820312 170.675781 216.585938 171.023438 216.113281 C 171.375 215.640625 171.550781 214.996094 171.550781 214.183594 C 171.550781 213.375 171.375 212.730469 171.023438 212.257812 C 170.675781 211.785156 170.203125 211.546875 169.601562 211.546875 Z M 169.601562 210.597656 C 170.578125 210.597656 171.347656 210.914062 171.90625 211.550781 C 172.460938 212.183594 172.742188 213.0625 172.742188 214.183594 C 172.742188 215.300781 172.460938 216.179688 171.90625 216.820312 C 171.347656 217.457031 170.578125 217.773438 169.601562 217.773438 C 168.625 217.773438 167.855469 217.457031 167.296875 216.820312 C 166.742188 216.179688 166.46875 215.300781 166.46875 214.183594 C 166.46875 213.0625 166.742188 212.183594 167.296875 211.550781 C 167.855469 210.914062 168.625 210.597656 169.601562 210.597656 Z M 169.601562 210.597656 "/>
<path style=" stroke:none;fill-rule:nonzero;fill:rgb(0%,0%,0%);fill-opacity:1;" d="M 179.523438 211.023438 L 179.523438 212.074219 C 179.203125 211.898438 178.886719 211.765625 178.566406 211.679688 C 178.25 211.589844 177.925781 211.546875 177.601562 211.546875 C 176.871094 211.546875 176.304688 211.777344 175.902344 212.242188 C 175.5 212.703125 175.296875 213.347656 175.296875 214.183594 C 175.296875 215.019531 175.5 215.667969 175.902344 216.128906 C 176.304688 216.589844 176.871094 216.820312 177.601562 216.820312 C 177.925781 216.820312 178.25 216.777344 178.566406 216.691406 C 178.886719 216.601562 179.203125 216.472656 179.523438 216.296875 L 179.523438 217.335938 C 179.207031 217.480469 178.882812 217.589844 178.546875 217.664062 C 178.214844 217.738281 177.855469 217.773438 177.476562 217.773438 C 176.449219 217.773438 175.628906 217.449219 175.023438 216.804688 C 174.417969 216.15625 174.113281 215.28125 174.113281 214.183594 C 174.113281 213.070312 174.421875 212.191406 175.03125 211.554688 C 175.644531 210.914062 176.484375 210.597656 177.550781 210.597656 C 177.898438 210.597656 178.234375 210.632812 178.5625 210.703125 C 178.894531 210.773438 179.210938 210.878906 179.523438 211.023438 Z M 179.523438 211.023438 "/>
<path style=" stroke:none;fill-rule:nonzero;fill:rgb(0%,0%,0%);fill-opacity:1;" d="M 187.160156 213.46875 L 187.160156 217.597656 L 186.035156 217.597656 L 186.035156 213.507812 C 186.035156 212.859375 185.910156 212.375 185.65625 212.054688 C 185.40625 211.734375 185.027344 211.574219 184.523438 211.574219 C 183.914062 211.574219 183.4375 211.765625 183.085938 212.152344 C 182.738281 212.539062 182.5625 213.066406 182.5625 213.734375 L 182.5625 217.597656 L 181.433594 217.597656 L 181.433594 208.097656 L 182.5625 208.097656 L 182.5625 211.824219 C 182.832031 211.410156 183.148438 211.105469 183.511719 210.902344 C 183.875 210.699219 184.296875 210.597656 184.773438 210.597656 C 185.558594 210.597656 186.152344 210.839844 186.554688 211.324219 C 186.957031 211.808594 187.160156 212.523438 187.160156 213.46875 Z M 187.160156 213.46875 "/>
<path style="fill:none;stroke-width:0.8;stroke-linecap:butt;stroke-linejoin:round;stroke:rgb(0%,0%,0%);stroke-opacity:1;stroke-miterlimit:4;" d="M 0 0.000976 L -3.5 0.000976 " transform="matrix(1.25,0,0,1.25,47.125,177.115967)"/>
<path style=" stroke:none;fill-rule:nonzero;fill:rgb(0%,0%,0%);fill-opacity:1;" d="M 10.550781 180.742188 L 12.5625 180.742188 L 12.5625 173.789062 L 10.375 174.230469 L 10.375 173.105469 L 12.554688 172.667969 L 13.785156 172.667969 L 13.785156 180.742188 L 15.796875 180.742188 L 15.796875 181.78125 L 10.550781 181.78125 Z M 10.550781 180.742188 "/>
<path style=" stroke:none;fill-rule:nonzero;fill:rgb(0%,0%,0%);fill-opacity:1;" d="M 20.925781 173.480469 C 20.292969 173.480469 19.8125 173.792969 19.492188 174.417969 C 19.175781 175.039062 19.015625 175.980469 19.015625 177.234375 C 19.015625 178.480469 19.175781 179.417969 19.492188 180.042969 C 19.8125 180.667969 20.292969 180.980469 20.925781 180.980469 C 21.566406 180.980469 22.042969 180.667969 22.363281 180.042969 C 22.683594 179.417969 22.84375 178.480469 22.84375 177.234375 C 22.84375 175.980469 22.683594 175.039062 22.363281 174.417969 C 22.042969 173.792969 21.566406 173.480469 20.925781 173.480469 Z M 20.925781 172.503906 C 21.949219 172.503906 22.726562 172.90625 23.265625 173.714844 C 23.804688 174.523438 24.074219 175.695312 24.074219 177.234375 C 24.074219 178.765625 23.804688 179.9375 23.265625 180.746094 C 22.726562 181.554688 21.949219 181.957031 20.925781 181.957031 C 19.90625 181.957031 19.125 181.554688 18.585938 180.746094 C 18.046875 179.9375 17.777344 178.765625 17.777344 177.234375 C 17.777344 175.695312 18.046875 174.523438 18.585938 173.714844 C 19.125 172.90625 19.90625 172.503906 20.925781 172.503906 Z M 20.925781 172.503906 "/>
<path style=" stroke:none;fill-rule:nonzero;fill:rgb(0%,0%,0%);fill-opacity:1;" d="M 25.953125 173.886719 L 31.429688 173.886719 L 31.429688 174.613281 L 25.953125 174.613281 Z M 25.953125 173.886719 "/>
<path style=" stroke:none;fill-rule:nonzero;fill:rgb(0%,0%,0%);fill-opacity:1;" d="M 33.300781 170.613281 L 36.691406 170.613281 L 36.691406 171.34375 L 34.09375 171.34375 L 34.09375 172.90625 C 34.214844 172.863281 34.339844 172.832031 34.464844 172.808594 C 34.59375 172.789062 34.71875 172.777344 34.84375 172.777344 C 35.554688 172.777344 36.121094 172.972656 36.535156 173.363281 C 36.953125 173.753906 37.160156 174.28125 37.160156 174.949219 C 37.160156 175.632812 36.945312 176.167969 36.519531 176.546875 C 36.089844 176.929688 35.488281 177.117188 34.710938 177.117188 C 34.441406 177.117188 34.171875 177.097656 33.890625 177.050781 C 33.613281 177.003906 33.328125 176.9375 33.03125 176.84375 L 33.03125 175.976562 C 33.289062 176.117188 33.554688 176.21875 33.828125 176.289062 C 34.101562 176.355469 34.390625 176.390625 34.695312 176.390625 C 35.1875 176.390625 35.578125 176.261719 35.863281 176.003906 C 36.152344 175.746094 36.296875 175.390625 36.296875 174.949219 C 36.296875 174.503906 36.152344 174.152344 35.863281 173.894531 C 35.578125 173.632812 35.1875 173.503906 34.695312 173.503906 C 34.460938 173.503906 34.234375 173.53125 34.003906 173.582031 C 33.773438 173.632812 33.539062 173.710938 33.300781 173.820312 Z M 33.300781 170.613281 "/>
<path style="fill:none;stroke-width:0.8;stroke-linecap:butt;stroke-linejoin:round;stroke:rgb(0%,0%,0%);stroke-opacity:1;stroke-miterlimit:4;" d="M 0 0.001373 L -3.5 0.001373 " transform="matrix(1.25,0,0,1.25,47.125,129.631096)"/>
<path style=" stroke:none;fill-rule:nonzero;fill:rgb(0%,0%,0%);fill-opacity:1;" d="M 10.550781 133.257812 L 12.5625 133.257812 L 12.5625 126.304688 L 10.375 126.742188 L 10.375 125.621094 L 12.554688 125.179688 L 13.785156 125.179688 L 13.785156 133.257812 L 15.796875 133.257812 L 15.796875 134.292969 L 10.550781 134.292969 Z M 10.550781 133.257812 "/>
<path style=" stroke:none;fill-rule:nonzero;fill:rgb(0%,0%,0%);fill-opacity:1;" d="M 20.925781 125.992188 C 20.292969 125.992188 19.8125 126.304688 19.492188 126.929688 C 19.175781 127.554688 19.015625 128.492188 19.015625 129.746094 C 19.015625 130.996094 19.175781 131.933594 19.492188 132.558594 C 19.8125 133.183594 20.292969 133.496094 20.925781 133.496094 C 21.566406 133.496094 22.042969 133.183594 22.363281 132.558594 C 22.683594 131.933594 22.84375 130.996094 22.84375 129.746094 C 22.84375 128.492188 22.683594 127.554688 22.363281 126.929688 C 22.042969 126.304688 21.566406 125.992188 20.925781 125.992188 Z M 20.925781 125.015625 C 21.949219 125.015625 22.726562 125.421875 23.265625 126.230469 C 23.804688 127.039062 24.074219 128.210938 24.074219 129.746094 C 24.074219 131.28125 23.804688 132.453125 23.265625 133.261719 C 22.726562 134.070312 21.949219 134.472656 20.925781 134.472656 C 19.90625 134.472656 19.125 134.070312 18.585938 133.261719 C 18.046875 132.453125 17.777344 131.28125 17.777344 129.746094 C 17.777344 128.210938 18.046875 127.039062 18.585938 126.230469 C 19.125 125.421875 19.90625 125.015625 20.925781 125.015625 Z M 20.925781 125.015625 "/>
<path style=" stroke:none;fill-rule:nonzero;fill:rgb(0%,0%,0%);fill-opacity:1;" d="M 25.953125 126.402344 L 31.429688 126.402344 L 31.429688 127.128906 L 25.953125 127.128906 Z M 25.953125 126.402344 "/>
<path style=" stroke:none;fill-rule:nonzero;fill:rgb(0%,0%,0%);fill-opacity:1;" d="M 35.664062 123.882812 L 33.484375 127.289062 L 35.664062 127.289062 Z M 35.4375 123.128906 L 36.523438 123.128906 L 36.523438 127.289062 L 37.433594 127.289062 L 37.433594 128.003906 L 36.523438 128.003906 L 36.523438 129.507812 L 35.664062 129.507812 L 35.664062 128.003906 L 32.785156 128.003906 L 32.785156 127.171875 Z M 35.4375 123.128906 "/>
<path style="fill:none;stroke-width:0.8;stroke-linecap:butt;stroke-linejoin:round;stroke:rgb(0%,0%,0%);stroke-opacity:1;stroke-miterlimit:4;" d="M 0 -0.001355 L -3.5 -0.001355 " transform="matrix(1.25,0,0,1.25,47.125,82.146225)"/>
<path style=" stroke:none;fill-rule:nonzero;fill:rgb(0%,0%,0%);fill-opacity:1;" d="M 10.550781 85.761719 L 12.5625 85.761719 L 12.5625 78.808594 L 10.375 79.25 L 10.375 78.125 L 12.554688 77.6875 L 13.785156 77.6875 L 13.785156 85.761719 L 15.796875 85.761719 L 15.796875 86.800781 L 10.550781 86.800781 Z M 10.550781 85.761719 "/>
<path style=" stroke:none;fill-rule:nonzero;fill:rgb(0%,0%,0%);fill-opacity:1;" d="M 20.925781 78.5 C 20.292969 78.5 19.8125 78.8125 19.492188 79.4375 C 19.175781 80.058594 19.015625 81 19.015625 82.253906 C 19.015625 83.5 19.175781 84.4375 19.492188 85.0625 C 19.8125 85.6875 20.292969 86 20.925781 86 C 21.566406 86 22.042969 85.6875 22.363281 85.0625 C 22.683594 84.4375 22.84375 83.5 22.84375 82.253906 C 22.84375 81 22.683594 80.058594 22.363281 79.4375 C 22.042969 78.8125 21.566406 78.5 20.925781 78.5 Z M 20.925781 77.523438 C 21.949219 77.523438 22.726562 77.925781 23.265625 78.734375 C 23.804688 79.542969 24.074219 80.714844 24.074219 82.253906 C 24.074219 83.785156 23.804688 84.957031 23.265625 85.765625 C 22.726562 86.574219 21.949219 86.976562 20.925781 86.976562 C 19.90625 86.976562 19.125 86.574219 18.585938 85.765625 C 18.046875 84.957031 17.777344 83.785156 17.777344 82.253906 C 17.777344 80.714844 18.046875 79.542969 18.585938 78.734375 C 19.125 77.925781 19.90625 77.523438 20.925781 77.523438 Z M 20.925781 77.523438 "/>
<path style=" stroke:none;fill-rule:nonzero;fill:rgb(0%,0%,0%);fill-opacity:1;" d="M 25.953125 78.90625 L 31.429688 78.90625 L 31.429688 79.632812 L 25.953125 79.632812 Z M 25.953125 78.90625 "/>
<path style=" stroke:none;fill-rule:nonzero;fill:rgb(0%,0%,0%);fill-opacity:1;" d="M 35.90625 78.574219 C 36.320312 78.664062 36.644531 78.847656 36.875 79.125 C 37.105469 79.40625 37.222656 79.75 37.222656 80.160156 C 37.222656 80.789062 37.007812 81.277344 36.574219 81.621094 C 36.140625 81.964844 35.523438 82.140625 34.726562 82.140625 C 34.460938 82.140625 34.183594 82.113281 33.902344 82.058594 C 33.617188 82.007812 33.324219 81.925781 33.023438 81.820312 L 33.023438 80.988281 C 33.261719 81.128906 33.523438 81.234375 33.808594 81.304688 C 34.09375 81.375 34.390625 81.410156 34.703125 81.410156 C 35.242188 81.410156 35.65625 81.304688 35.9375 81.089844 C 36.222656 80.878906 36.363281 80.566406 36.363281 80.160156 C 36.363281 79.785156 36.234375 79.488281 35.96875 79.277344 C 35.707031 79.066406 35.339844 78.960938 34.871094 78.960938 L 34.125 78.960938 L 34.125 78.25 L 34.902344 78.25 C 35.328125 78.25 35.652344 78.164062 35.878906 77.996094 C 36.101562 77.828125 36.214844 77.582031 36.214844 77.261719 C 36.214844 76.9375 36.097656 76.683594 35.867188 76.511719 C 35.636719 76.335938 35.304688 76.246094 34.871094 76.246094 C 34.632812 76.246094 34.378906 76.273438 34.109375 76.324219 C 33.835938 76.375 33.539062 76.453125 33.214844 76.5625 L 33.214844 75.792969 C 33.542969 75.703125 33.851562 75.632812 34.136719 75.589844 C 34.421875 75.542969 34.691406 75.519531 34.945312 75.519531 C 35.601562 75.519531 36.121094 75.667969 36.5 75.96875 C 36.882812 76.265625 37.074219 76.667969 37.074219 77.171875 C 37.074219 77.527344 36.972656 77.824219 36.769531 78.070312 C 36.566406 78.3125 36.28125 78.480469 35.90625 78.574219 Z M 35.90625 78.574219 "/>
<path style="fill:none;stroke-width:0.8;stroke-linecap:butt;stroke-linejoin:round;stroke:rgb(0%,0%,0%);stroke-opacity:1;stroke-miterlimit:4;" d="M 0 -0.000958 L -3.5 -0.000958 " transform="matrix(1.25,0,0,1.25,47.125,34.661354)"/>
<path style=" stroke:none;fill-rule:nonzero;fill:rgb(0%,0%,0%);fill-opacity:1;" d="M 10.550781 38.277344 L 12.5625 38.277344 L 12.5625 31.324219 L 10.375 31.765625 L 10.375 30.640625 L 12.554688 30.203125 L 13.785156 30.203125 L 13.785156 38.277344 L 15.796875 38.277344 L 15.796875 39.316406 L 10.550781 39.316406 Z M 10.550781 38.277344 "/>
<path style=" stroke:none;fill-rule:nonzero;fill:rgb(0%,0%,0%);fill-opacity:1;" d="M 20.925781 31.015625 C 20.292969 31.015625 19.8125 31.328125 19.492188 31.953125 C 19.175781 32.574219 19.015625 33.515625 19.015625 34.769531 C 19.015625 36.015625 19.175781 36.953125 19.492188 37.578125 C 19.8125 38.203125 20.292969 38.515625 20.925781 38.515625 C 21.566406 38.515625 22.042969 38.203125 22.363281 37.578125 C 22.683594 36.953125 22.84375 36.015625 22.84375 34.769531 C 22.84375 33.515625 22.683594 32.574219 22.363281 31.953125 C 22.042969 31.328125 21.566406 31.015625 20.925781 31.015625 Z M 20.925781 30.039062 C 21.949219 30.039062 22.726562 30.441406 23.265625 31.25 C 23.804688 32.058594 24.074219 33.230469 24.074219 34.769531 C 24.074219 36.300781 23.804688 37.472656 23.265625 38.28125 C 22.726562 39.089844 21.949219 39.492188 20.925781 39.492188 C 19.90625 39.492188 19.125 39.089844 18.585938 38.28125 C 18.046875 37.472656 17.777344 36.300781 17.777344 34.769531 C 17.777344 33.230469 18.046875 32.058594 18.585938 31.25 C 19.125 30.441406 19.90625 30.039062 20.925781 30.039062 Z M 20.925781 30.039062 "/>
<path style=" stroke:none;fill-rule:nonzero;fill:rgb(0%,0%,0%);fill-opacity:1;" d="M 25.953125 31.421875 L 31.429688 31.421875 L 31.429688 32.148438 L 25.953125 32.148438 Z M 25.953125 31.421875 "/>
<path style=" stroke:none;fill-rule:nonzero;fill:rgb(0%,0%,0%);fill-opacity:1;" d="M 34.035156 33.804688 L 37.046875 33.804688 L 37.046875 34.53125 L 33 34.53125 L 33 33.804688 C 33.324219 33.464844 33.773438 33.007812 34.335938 32.4375 C 34.902344 31.867188 35.257812 31.5 35.402344 31.332031 C 35.679688 31.023438 35.871094 30.761719 35.980469 30.546875 C 36.089844 30.332031 36.148438 30.117188 36.148438 29.910156 C 36.148438 29.570312 36.027344 29.296875 35.789062 29.082031 C 35.550781 28.867188 35.242188 28.761719 34.859375 28.761719 C 34.589844 28.761719 34.304688 28.808594 34.003906 28.902344 C 33.703125 28.996094 33.382812 29.140625 33.039062 29.332031 L 33.039062 28.457031 C 33.386719 28.320312 33.710938 28.214844 34.015625 28.140625 C 34.316406 28.070312 34.59375 28.035156 34.84375 28.035156 C 35.503906 28.035156 36.03125 28.199219 36.425781 28.53125 C 36.816406 28.863281 37.011719 29.304688 37.011719 29.855469 C 37.011719 30.117188 36.964844 30.367188 36.867188 30.601562 C 36.769531 30.835938 36.589844 31.113281 36.328125 31.429688 C 36.257812 31.515625 36.03125 31.753906 35.652344 32.148438 C 35.269531 32.542969 34.730469 33.09375 34.035156 33.804688 Z M 34.035156 33.804688 "/>
<path style="fill:none;stroke-width:0.6;stroke-linecap:butt;stroke-linejoin:round;stroke:rgb(0%,0%,0%);stroke-opacity:1;stroke-miterlimit:4;" d="M 0 0.000818 L -2 0.000818 " transform="matrix(1.25,0,0,1.25,47.125,181.717727)"/>
<path style="fill:none;stroke-width:0.6;stroke-linecap:butt;stroke-linejoin:round;stroke:rgb(0%,0%,0%);stroke-opacity:1;stroke-miterlimit:4;" d="M 0 0.000245 L -2 0.000245 " transform="matrix(1.25,0,0,1.25,47.125,179.288756)"/>
<path style="fill:none;stroke-width:0.6;stroke-linecap:butt;stroke-linejoin:round;stroke:rgb(0%,0%,0%);stroke-opacity:1;stroke-miterlimit:4;" d="M 0 -0.001028 L -2 -0.001028 " transform="matrix(1.25,0,0,1.25,47.125,162.821598)"/>
<path style="fill:none;stroke-width:0.6;stroke-linecap:butt;stroke-linejoin:round;stroke:rgb(0%,0%,0%);stroke-opacity:1;stroke-miterlimit:4;" d="M 0 0.000809 L -2 0.000809 " transform="matrix(1.25,0,0,1.25,47.125,154.459926)"/>
<path style="fill:none;stroke-width:0.6;stroke-linecap:butt;stroke-linejoin:round;stroke:rgb(0%,0%,0%);stroke-opacity:1;stroke-miterlimit:4;" d="M 0 0.000094 L -2 0.000094 " transform="matrix(1.25,0,0,1.25,47.125,148.527226)"/>
<path style="fill:none;stroke-width:0.6;stroke-linecap:butt;stroke-linejoin:round;stroke:rgb(0%,0%,0%);stroke-opacity:1;stroke-miterlimit:4;" d="M 0 0.000251 L -2 0.000251 " transform="matrix(1.25,0,0,1.25,47.125,143.925467)"/>
<path style="fill:none;stroke-width:0.6;stroke-linecap:butt;stroke-linejoin:round;stroke:rgb(0%,0%,0%);stroke-opacity:1;stroke-miterlimit:4;" d="M 0 -0.001195 L -2 -0.001195 " transform="matrix(1.25,0,0,1.25,47.125,140.165556)"/>
<path style="fill:none;stroke-width:0.6;stroke-linecap:butt;stroke-linejoin:round;stroke:rgb(0%,0%,0%);stroke-opacity:1;stroke-miterlimit:4;" d="M 0 0.001348 L -2 0.001348 " transform="matrix(1.25,0,0,1.25,47.125,136.986596)"/>
<path style="fill:none;stroke-width:0.6;stroke-linecap:butt;stroke-linejoin:round;stroke:rgb(0%,0%,0%);stroke-opacity:1;stroke-miterlimit:4;" d="M 0 0.001215 L -2 0.001215 " transform="matrix(1.25,0,0,1.25,47.125,134.232856)"/>
<path style="fill:none;stroke-width:0.6;stroke-linecap:butt;stroke-linejoin:round;stroke:rgb(0%,0%,0%);stroke-opacity:1;stroke-miterlimit:4;" d="M 0 0.000642 L -2 0.000642 " transform="matrix(1.25,0,0,1.25,47.125,131.803885)"/>
<path style="fill:none;stroke-width:0.6;stroke-linecap:butt;stroke-linejoin:round;stroke:rgb(0%,0%,0%);stroke-opacity:1;stroke-miterlimit:4;" d="M 0 -0.000631 L -2 -0.000631 " transform="matrix(1.25,0,0,1.25,47.125,115.336726)"/>
<path style="fill:none;stroke-width:0.6;stroke-linecap:butt;stroke-linejoin:round;stroke:rgb(0%,0%,0%);stroke-opacity:1;stroke-miterlimit:4;" d="M 0 0.001206 L -2 0.001206 " transform="matrix(1.25,0,0,1.25,47.125,106.975055)"/>
<path style="fill:none;stroke-width:0.6;stroke-linecap:butt;stroke-linejoin:round;stroke:rgb(0%,0%,0%);stroke-opacity:1;stroke-miterlimit:4;" d="M 0 0.000491 L -2 0.000491 " transform="matrix(1.25,0,0,1.25,47.125,101.042355)"/>
<path style="fill:none;stroke-width:0.6;stroke-linecap:butt;stroke-linejoin:round;stroke:rgb(0%,0%,0%);stroke-opacity:1;stroke-miterlimit:4;" d="M 0 0.000648 L -2 0.000648 " transform="matrix(1.25,0,0,1.25,47.125,96.440596)"/>
<path style="fill:none;stroke-width:0.6;stroke-linecap:butt;stroke-linejoin:round;stroke:rgb(0%,0%,0%);stroke-opacity:1;stroke-miterlimit:4;" d="M 0 -0.000798 L -2 -0.000798 " transform="matrix(1.25,0,0,1.25,47.125,92.680685)"/>
<path style="fill:none;stroke-width:0.6;stroke-linecap:butt;stroke-linejoin:round;stroke:rgb(0%,0%,0%);stroke-opacity:1;stroke-miterlimit:4;" d="M 0 -0.00138 L -2 -0.00138 " transform="matrix(1.25,0,0,1.25,47.125,89.501725)"/>
<path style="fill:none;stroke-width:0.6;stroke-linecap:butt;stroke-linejoin:round;stroke:rgb(0%,0%,0%);stroke-opacity:1;stroke-miterlimit:4;" d="M 0 -0.001513 L -2 -0.001513 " transform="matrix(1.25,0,0,1.25,47.125,86.747985)"/>
<path style="fill:none;stroke-width:0.6;stroke-linecap:butt;stroke-linejoin:round;stroke:rgb(0%,0%,0%);stroke-opacity:1;stroke-miterlimit:4;" d="M 0 0.001039 L -2 0.001039 " transform="matrix(1.25,0,0,1.25,47.125,84.319014)"/>
<path style="fill:none;stroke-width:0.6;stroke-linecap:butt;stroke-linejoin:round;stroke:rgb(0%,0%,0%);stroke-opacity:1;stroke-miterlimit:4;" d="M 0 -0.000234 L -2 -0.000234 " transform="matrix(1.25,0,0,1.25,47.125,67.851855)"/>
<path style="fill:none;stroke-width:0.6;stroke-linecap:butt;stroke-linejoin:round;stroke:rgb(0%,0%,0%);stroke-opacity:1;stroke-miterlimit:4;" d="M 0 -0.001522 L -2 -0.001522 " transform="matrix(1.25,0,0,1.25,47.125,59.490184)"/>
<path style="fill:none;stroke-width:0.6;stroke-linecap:butt;stroke-linejoin:round;stroke:rgb(0%,0%,0%);stroke-opacity:1;stroke-miterlimit:4;" d="M 0 0.000888 L -2 0.000888 " transform="matrix(1.25,0,0,1.25,47.125,53.557484)"/>
<path style="fill:none;stroke-width:0.6;stroke-linecap:butt;stroke-linejoin:round;stroke:rgb(0%,0%,0%);stroke-opacity:1;stroke-miterlimit:4;" d="M 0 0.001045 L -2 0.001045 " transform="matrix(1.25,0,0,1.25,47.125,48.955725)"/>
<path style="fill:none;stroke-width:0.6;stroke-linecap:butt;stroke-linejoin:round;stroke:rgb(0%,0%,0%);stroke-opacity:1;stroke-miterlimit:4;" d="M 0 -0.000401 L -2 -0.000401 " transform="matrix(1.25,0,0,1.25,47.125,45.195814)"/>
<path style="fill:none;stroke-width:0.6;stroke-linecap:butt;stroke-linejoin:round;stroke:rgb(0%,0%,0%);stroke-opacity:1;stroke-miterlimit:4;" d="M 0 -0.000983 L -2 -0.000983 " transform="matrix(1.25,0,0,1.25,47.125,42.016854)"/>
<path style="fill:none;stroke-width:0.6;stroke-linecap:butt;stroke-linejoin:round;stroke:rgb(0%,0%,0%);stroke-opacity:1;stroke-miterlimit:4;" d="M 0 -0.001116 L -2 -0.001116 " transform="matrix(1.25,0,0,1.25,47.125,39.263114)"/>
<path style="fill:none;stroke-width:0.6;stroke-linecap:butt;stroke-linejoin:round;stroke:rgb(0%,0%,0%);stroke-opacity:1;stroke-miterlimit:4;" d="M 0 0.001436 L -2 0.001436 " transform="matrix(1.25,0,0,1.25,47.125,36.834142)"/>
<path style="fill:none;stroke-width:0.6;stroke-linecap:butt;stroke-linejoin:round;stroke:rgb(0%,0%,0%);stroke-opacity:1;stroke-miterlimit:4;" d="M 0 0.000163 L -2 0.000163 " transform="matrix(1.25,0,0,1.25,47.125,20.366984)"/>
<path style="fill:none;stroke-width:0.6;stroke-linecap:butt;stroke-linejoin:round;stroke:rgb(0%,0%,0%);stroke-opacity:1;stroke-miterlimit:4;" d="M 0 -0.001125 L -2 -0.001125 " transform="matrix(1.25,0,0,1.25,47.125,12.005313)"/>
<path style="fill:none;stroke-width:1.5;stroke-linecap:square;stroke-linejoin:round;stroke:rgb(12.156863%,46.666667%,70.588235%);stroke-opacity:1;stroke-miterlimit:4;" d="M 40.140625 19.35625 L 49.90625 14.63125 " transform="matrix(1.25,0,0,1.25,0,0)"/>
<path style="fill:none;stroke-width:1.5;stroke-linecap:square;stroke-linejoin:round;stroke:rgb(12.156863%,46.666667%,70.588235%);stroke-opacity:1;stroke-miterlimit:4;" d="M 40.140625 19.35625 L 49.90625 14.63125 " transform="matrix(1.25,0,0,1.25,0,0)"/>
<path style="fill:none;stroke-width:1.5;stroke-linecap:square;stroke-linejoin:round;stroke:rgb(12.156863%,46.666667%,70.588235%);stroke-opacity:1;stroke-miterlimit:4;" d="M 40.140625 19.35625 L 49.90625 14.63125 L 59.671875 37.146875 " transform="matrix(1.25,0,0,1.25,0,0)"/>
<path style="fill:none;stroke-width:1.5;stroke-linecap:square;stroke-linejoin:round;stroke:rgb(12.156863%,46.666667%,70.588235%);stroke-opacity:1;stroke-miterlimit:4;" d="M 40.140625 19.35625 L 49.90625 14.63125 L 59.671875 37.146875 L 69.4375 28.996875 " transform="matrix(1.25,0,0,1.25,0,0)"/>
<path style="fill:none;stroke-width:1.5;stroke-linecap:square;stroke-linejoin:round;stroke:rgb(12.156863%,46.666667%,70.588235%);stroke-opacity:1;stroke-miterlimit:4;" d="M 40.140625 19.35625 L 49.90625 14.63125 L 59.671875 37.146875 L 69.4375 28.996875 " transform="matrix(1.25,0,0,1.25,0,0)"/>
<path style="fill:none;stroke-width:1.5;stroke-linecap:butt;stroke-linejoin:round;stroke:rgb(100%,49.803922%,5.490196%);stroke-opacity:1;stroke-dasharray:5.55,2.4;stroke-miterlimit:4;" d="M 57.23125 13.5 L 76.759375 13.78125 " transform="matrix(1.25,0,0,1.25,0,0)"/>
<path style="fill:none;stroke-width:1.5;stroke-linecap:square;stroke-linejoin:round;stroke:rgb(12.156863%,46.666667%,70.588235%);stroke-opacity:1;stroke-miterlimit:4;" d="M 40.140625 19.35625 L 49.90625 14.63125 L 59.671875 37.146875 L 69.4375 28.996875 L 79.2 38.609375 " transform="matrix(1.25,0,0,1.25,0,0)"/>
<path style="fill:none;stroke-width:1.5;stroke-linecap:butt;stroke-linejoin:round;stroke:rgb(100%,49.803922%,5.490196%);stroke-opacity:1;stroke-dasharray:5.55,2.4;stroke-miterlimit:4;" d="M 57.23125 13.5 L 76.759375 13.78125 " transform="matrix(1.25,0,0,1.25,0,0)"/>
<path style="fill:none;stroke-width:1.5;stroke-linecap:square;stroke-linejoin:round;stroke:rgb(12.156863%,46.666667%,70.588235%);stroke-opacity:1;stroke-miterlimit:4;" d="M 40.140625 19.35625 L 49.90625 14.63125 L 59.671875 37.146875 L 69.4375 28.996875 L 79.2 38.609375 L 88.965625 62 " transform="matrix(1.25,0,0,1.25,0,0)"/>
<path style="fill:none;stroke-width:1.5;stroke-linecap:butt;stroke-linejoin:round;stroke:rgb(100%,49.803922%,5.490196%);stroke-opacity:1;stroke-dasharray:5.55,2.4;stroke-miterlimit:4;" d="M 57.23125 13.5 L 76.759375 13.78125 " transform="matrix(1.25,0,0,1.25,0,0)"/>
<path style="fill:none;stroke-width:1.5;stroke-linecap:square;stroke-linejoin:round;stroke:rgb(12.156863%,46.666667%,70.588235%);stroke-opacity:1;stroke-miterlimit:4;" d="M 40.140625 19.35625 L 49.90625 14.63125 L 59.671875 37.146875 L 69.4375 28.996875 L 79.2 38.609375 L 88.965625 62 " transform="matrix(1.25,0,0,1.25,0,0)"/>
<path style="fill:none;stroke-width:1.5;stroke-linecap:butt;stroke-linejoin:round;stroke:rgb(100%,49.803922%,5.490196%);stroke-opacity:1;stroke-dasharray:5.55,2.4;stroke-miterlimit:4;" d="M 57.23125 13.5 L 76.759375 13.78125 L 96.290625 13.903125 " transform="matrix(1.25,0,0,1.25,0,0)"/>
<path style="fill:none;stroke-width:1.5;stroke-linecap:square;stroke-linejoin:round;stroke:rgb(12.156863%,46.666667%,70.588235%);stroke-opacity:1;stroke-miterlimit:4;" d="M 40.140625 19.35625 L 49.90625 14.63125 L 59.671875 37.146875 L 69.4375 28.996875 L 79.2 38.609375 L 88.965625 62 L 98.73125 67.0125 " transform="matrix(1.25,0,0,1.25,0,0)"/>
<path style="fill:none;stroke-width:1.5;stroke-linecap:butt;stroke-linejoin:round;stroke:rgb(100%,49.803922%,5.490196%);stroke-opacity:1;stroke-dasharray:5.55,2.4;stroke-miterlimit:4;" d="M 57.23125 13.5 L 76.759375 13.78125 L 96.290625 13.903125 " transform="matrix(1.25,0,0,1.25,0,0)"/>
<path style="fill:none;stroke-width:1.5;stroke-linecap:square;stroke-linejoin:round;stroke:rgb(12.156863%,46.666667%,70.588235%);stroke-opacity:1;stroke-miterlimit:4;" d="M 40.140625 19.35625 L 49.90625 14.63125 L 59.671875 37.146875 L 69.4375 28.996875 L 79.2 38.609375 L 88.965625 62 L 98.73125 67.0125 L 108.496875 54.709375 " transform="matrix(1.25,0,0,1.25,0,0)"/>
<path style="fill:none;stroke-width:1.5;stroke-linecap:butt;stroke-linejoin:round;stroke:rgb(100%,49.803922%,5.490196%);stroke-opacity:1;stroke-dasharray:5.55,2.4;stroke-miterlimit:4;" d="M 57.23125 13.5 L 76.759375 13.78125 L 96.290625 13.903125 " transform="matrix(1.25,0,0,1.25,0,0)"/>
<path style="fill:none;stroke-width:1.5;stroke-linecap:square;stroke-linejoin:round;stroke:rgb(12.156863%,46.666667%,70.588235%);stroke-opacity:1;stroke-miterlimit:4;" d="M 40.140625 19.35625 L 49.90625 14.63125 L 59.671875 37.146875 L 69.4375 28.996875 L 79.2 38.609375 L 88.965625 62 L 98.73125 67.0125 L 108.496875 54.709375 " transform="matrix(1.25,0,0,1.25,0,0)"/>
<path style="fill:none;stroke-width:1.5;stroke-linecap:butt;stroke-linejoin:round;stroke:rgb(100%,49.803922%,5.490196%);stroke-opacity:1;stroke-dasharray:5.55,2.4;stroke-miterlimit:4;" d="M 57.23125 13.5 L 76.759375 13.78125 L 96.290625 13.903125 L 115.81875 13.9625 " transform="matrix(1.25,0,0,1.25,0,0)"/>
<path style="fill:none;stroke-width:1.5;stroke-linecap:square;stroke-linejoin:round;stroke:rgb(12.156863%,46.666667%,70.588235%);stroke-opacity:1;stroke-miterlimit:4;" d="M 40.140625 19.35625 L 49.90625 14.63125 L 59.671875 37.146875 L 69.4375 28.996875 L 79.2 38.609375 L 88.965625 62 L 98.73125 67.0125 L 108.496875 54.709375 L 118.2625 84.25 " transform="matrix(1.25,0,0,1.25,0,0)"/>
<path style="fill:none;stroke-width:1.5;stroke-linecap:butt;stroke-linejoin:round;stroke:rgb(100%,49.803922%,5.490196%);stroke-opacity:1;stroke-dasharray:5.55,2.4;stroke-miterlimit:4;" d="M 57.23125 13.5 L 76.759375 13.78125 L 96.290625 13.903125 L 115.81875 13.9625 " transform="matrix(1.25,0,0,1.25,0,0)"/>
<path style="fill:none;stroke-width:1.5;stroke-linecap:square;stroke-linejoin:round;stroke:rgb(12.156863%,46.666667%,70.588235%);stroke-opacity:1;stroke-miterlimit:4;" d="M 40.140625 19.35625 L 49.90625 14.63125 L 59.671875 37.146875 L 69.4375 28.996875 L 79.2 38.609375 L 88.965625 62 L 98.73125 67.0125 L 108.496875 54.709375 L 118.2625 84.25 L 128.025 64.76875 " transform="matrix(1.25,0,0,1.25,0,0)"/>
<path style="fill:none;stroke-width:1.5;stroke-linecap:butt;stroke-linejoin:round;stroke:rgb(100%,49.803922%,5.490196%);stroke-opacity:1;stroke-dasharray:5.55,2.4;stroke-miterlimit:4;" d="M 57.23125 13.5 L 76.759375 13.78125 L 96.290625 13.903125 L 115.81875 13.9625 " transform="matrix(1.25,0,0,1.25,0,0)"/>
<path style="fill:none;stroke-width:1.5;stroke-linecap:square;stroke-linejoin:round;stroke:rgb(12.156863%,46.666667%,70.588235%);stroke-opacity:1;stroke-miterlimit:4;" d="M 40.140625 19.35625 L 49.90625 14.63125 L 59.671875 37.146875 L 69.4375 28.996875 L 79.2 38.609375 L 88.965625 62 L 98.73125 67.0125 L 108.496875 54.709375 L 118.2625 84.25 L 128.025 64.76875 " transform="matrix(1.25,0,0,1.25,0,0)"/>
<path style="fill:none;stroke-width:1.5;stroke-linecap:butt;stroke-linejoin:round;stroke:rgb(100%,49.803922%,5.490196%);stroke-opacity:1;stroke-dasharray:5.55,2.4;stroke-miterlimit:4;" d="M 57.23125 13.5 L 76.759375 13.78125 L 96.290625 13.903125 L 115.81875 13.9625 L 135.35 13.996875 " transform="matrix(1.25,0,0,1.25,0,0)"/>
<path style="fill:none;stroke-width:1.5;stroke-linecap:square;stroke-linejoin:round;stroke:rgb(12.156863%,46.666667%,70.588235%);stroke-opacity:1;stroke-miterlimit:4;" d="M 40.140625 19.35625 L 49.90625 14.63125 L 59.671875 37.146875 L 69.4375 28.996875 L 79.2 38.609375 L 88.965625 62 L 98.73125 67.0125 L 108.496875 54.709375 L 118.2625 84.25 L 128.025 64.76875 L 137.790625 89.175 " transform="matrix(1.25,0,0,1.25,0,0)"/>
<path style="fill:none;stroke-width:1.5;stroke-linecap:butt;stroke-linejoin:round;stroke:rgb(100%,49.803922%,5.490196%);stroke-opacity:1;stroke-dasharray:5.55,2.4;stroke-miterlimit:4;" d="M 57.23125 13.5 L 76.759375 13.78125 L 96.290625 13.903125 L 115.81875 13.9625 L 135.35 13.996875 " transform="matrix(1.25,0,0,1.25,0,0)"/>
<path style="fill:none;stroke-width:1.5;stroke-linecap:square;stroke-linejoin:round;stroke:rgb(12.156863%,46.666667%,70.588235%);stroke-opacity:1;stroke-miterlimit:4;" d="M 40.140625 19.35625 L 49.90625 14.63125 L 59.671875 37.146875 L 69.4375 28.996875 L 79.2 38.609375 L 88.965625 62 L 98.73125 67.0125 L 108.496875 54.709375 L 118.2625 84.25 L 128.025 64.76875 L 137.790625 89.175 L 147.55625 78.965625 " transform="matrix(1.25,0,0,1.25,0,0)"/>
<path style="fill:none;stroke-width:1.5;stroke-linecap:butt;stroke-linejoin:round;stroke:rgb(100%,49.803922%,5.490196%);stroke-opacity:1;stroke-dasharray:5.55,2.4;stroke-miterlimit:4;" d="M 57.23125 13.5 L 76.759375 13.78125 L 96.290625 13.903125 L 115.81875 13.9625 L 135.35 13.996875 " transform="matrix(1.25,0,0,1.25,0,0)"/>
<path style="fill:none;stroke-width:1.5;stroke-linecap:square;stroke-linejoin:round;stroke:rgb(12.156863%,46.666667%,70.588235%);stroke-opacity:1;stroke-miterlimit:4;" d="M 40.140625 19.35625 L 49.90625 14.63125 L 59.671875 37.146875 L 69.4375 28.996875 L 79.2 38.609375 L 88.965625 62 L 98.73125 67.0125 L 108.496875 54.709375 L 118.2625 84.25 L 128.025 64.76875 L 137.790625 89.175 L 147.55625 78.965625 " transform="matrix(1.25,0,0,1.25,0,0)"/>
<path style="fill:none;stroke-width:1.5;stroke-linecap:butt;stroke-linejoin:round;stroke:rgb(100%,49.803922%,5.490196%);stroke-opacity:1;stroke-dasharray:5.55,2.4;stroke-miterlimit:4;" d="M 57.23125 13.5 L 76.759375 13.78125 L 96.290625 13.903125 L 115.81875 13.9625 L 135.35 13.996875 L 154.88125 14.0125 " transform="matrix(1.25,0,0,1.25,0,0)"/>
<path style="fill:none;stroke-width:1.5;stroke-linecap:square;stroke-linejoin:round;stroke:rgb(12.156863%,46.666667%,70.588235%);stroke-opacity:1;stroke-miterlimit:4;" d="M 40.140625 19.35625 L 49.90625 14.63125 L 59.671875 37.146875 L 69.4375 28.996875 L 79.2 38.609375 L 88.965625 62 L 98.73125 67.0125 L 108.496875 54.709375 L 118.2625 84.25 L 128.025 64.76875 L 137.790625 89.175 L 147.55625 78.965625 L 157.321875 93.721875 " transform="matrix(1.25,0,0,1.25,0,0)"/>
<path style="fill:none;stroke-width:1.5;stroke-linecap:butt;stroke-linejoin:round;stroke:rgb(100%,49.803922%,5.490196%);stroke-opacity:1;stroke-dasharray:5.55,2.4;stroke-miterlimit:4;" d="M 57.23125 13.5 L 76.759375 13.78125 L 96.290625 13.903125 L 115.81875 13.9625 L 135.35 13.996875 L 154.88125 14.0125 " transform="matrix(1.25,0,0,1.25,0,0)"/>
<path style="fill:none;stroke-width:1.5;stroke-linecap:square;stroke-linejoin:round;stroke:rgb(12.156863%,46.666667%,70.588235%);stroke-opacity:1;stroke-miterlimit:4;" d="M 40.140625 19.35625 L 49.90625 14.63125 L 59.671875 37.146875 L 69.4375 28.996875 L 79.2 38.609375 L 88.965625 62 L 98.73125 67.0125 L 108.496875 54.709375 L 118.2625 84.25 L 128.025 64.76875 L 137.790625 89.175 L 147.55625 78.965625 L 157.321875 93.721875 L 167.0875 95.73125 " transform="matrix(1.25,0,0,1.25,0,0)"/>
<path style="fill:none;stroke-width:1.5;stroke-linecap:butt;stroke-linejoin:round;stroke:rgb(100%,49.803922%,5.490196%);stroke-opacity:1;stroke-dasharray:5.55,2.4;stroke-miterlimit:4;" d="M 57.23125 13.5 L 76.759375 13.78125 L 96.290625 13.903125 L 115.81875 13.9625 L 135.35 13.996875 L 154.88125 14.0125 " transform="matrix(1.25,0,0,1.25,0,0)"/>
<path style="fill:none;stroke-width:1.5;stroke-linecap:square;stroke-linejoin:round;stroke:rgb(12.156863%,46.666667%,70.588235%);stroke-opacity:1;stroke-miterlimit:4;" d="M 40.140625 19.35625 L 49.90625 14.63125 L 59.671875 37.146875 L 69.4375 28.996875 L 79.2 38.609375 L 88.965625 62 L 98.73125 67.0125 L 108.496875 54.709375 L 118.2625 84.25 L 128.025 64.76875 L 137.790625 89.175 L 147.55625 78.965625 L 157.321875 93.721875 L 167.0875 95.73125 " transform="matrix(1.25,0,0,1.25,0,0)"/>
<path style="fill:none;stroke-width:1.5;stroke-linecap:butt;stroke-linejoin:round;stroke:rgb(100%,49.803922%,5.490196%);stroke-opacity:1;stroke-dasharray:5.55,2.4;stroke-miterlimit:4;" d="M 57.23125 13.5 L 76.759375 13.78125 L 96.290625 13.903125 L 115.81875 13.9625 L 135.35 13.996875 L 154.88125 14.0125 L 174.409375 14.025 " transform="matrix(1.25,0,0,1.25,0,0)"/>
<path style="fill:none;stroke-width:1.5;stroke-linecap:square;stroke-linejoin:round;stroke:rgb(12.156863%,46.666667%,70.588235%);stroke-opacity:1;stroke-miterlimit:4;" d="M 40.140625 19.35625 L 49.90625 14.63125 L 59.671875 37.146875 L 69.4375 28.996875 L 79.2 38.609375 L 88.965625 62 L 98.73125 67.0125 L 108.496875 54.709375 L 118.2625 84.25 L 128.025 64.76875 L 137.790625 89.175 L 147.55625 78.965625 L 157.321875 93.721875 L 167.0875 95.73125 L 176.85 102.3625 " transform="matrix(1.25,0,0,1.25,0,0)"/>
<path style="fill:none;stroke-width:1.5;stroke-linecap:butt;stroke-linejoin:round;stroke:rgb(100%,49.803922%,5.490196%);stroke-opacity:1;stroke-dasharray:5.55,2.4;stroke-miterlimit:4;" d="M 57.23125 13.5 L 76.759375 13.78125 L 96.290625 13.903125 L 115.81875 13.9625 L 135.35 13.996875 L 154.88125 14.0125 L 174.409375 14.025 " transform="matrix(1.25,0,0,1.25,0,0)"/>
<path style="fill:none;stroke-width:1.5;stroke-linecap:square;stroke-linejoin:round;stroke:rgb(12.156863%,46.666667%,70.588235%);stroke-opacity:1;stroke-miterlimit:4;" d="M 40.140625 19.35625 L 49.90625 14.63125 L 59.671875 37.146875 L 69.4375 28.996875 L 79.2 38.609375 L 88.965625 62 L 98.73125 67.0125 L 108.496875 54.709375 L 118.2625 84.25 L 128.025 64.76875 L 137.790625 89.175 L 147.55625 78.965625 L 157.321875 93.721875 L 167.0875 95.73125 L 176.85 102.3625 L 186.615625 110.221875 " transform="matrix(1.25,0,0,1.25,0,0)"/>
<path style="fill:none;stroke-width:1.5;stroke-linecap:butt;stroke-linejoin:round;stroke:rgb(100%,49.803922%,5.490196%);stroke-opacity:1;stroke-dasharray:5.55,2.4;stroke-miterlimit:4;" d="M 57.23125 13.5 L 76.759375 13.78125 L 96.290625 13.903125 L 115.81875 13.9625 L 135.35 13.996875 L 154.88125 14.0125 L 174.409375 14.025 " transform="matrix(1.25,0,0,1.25,0,0)"/>
<path style="fill:none;stroke-width:1.5;stroke-linecap:square;stroke-linejoin:round;stroke:rgb(12.156863%,46.666667%,70.588235%);stroke-opacity:1;stroke-miterlimit:4;" d="M 40.140625 19.35625 L 49.90625 14.63125 L 59.671875 37.146875 L 69.4375 28.996875 L 79.2 38.609375 L 88.965625 62 L 98.73125 67.0125 L 108.496875 54.709375 L 118.2625 84.25 L 128.025 64.76875 L 137.790625 89.175 L 147.55625 78.965625 L 157.321875 93.721875 L 167.0875 95.73125 L 176.85 102.3625 L 186.615625 110.221875 " transform="matrix(1.25,0,0,1.25,0,0)"/>
<path style="fill:none;stroke-width:1.5;stroke-linecap:butt;stroke-linejoin:round;stroke:rgb(100%,49.803922%,5.490196%);stroke-opacity:1;stroke-dasharray:5.55,2.4;stroke-miterlimit:4;" d="M 57.23125 13.5 L 76.759375 13.78125 L 96.290625 13.903125 L 115.81875 13.9625 L 135.35 13.996875 L 154.88125 14.0125 L 174.409375 14.025 L 193.940625 14.028125 " transform="matrix(1.25,0,0,1.25,0,0)"/>
<path style="fill:none;stroke-width:1.5;stroke-linecap:square;stroke-linejoin:round;stroke:rgb(12.156863%,46.666667%,70.588235%);stroke-opacity:1;stroke-miterlimit:4;" d="M 40.140625 19.35625 L 49.90625 14.63125 L 59.671875 37.146875 L 69.4375 28.996875 L 79.2 38.609375 L 88.965625 62 L 98.73125 67.0125 L 108.496875 54.709375 L 118.2625 84.25 L 128.025 64.76875 L 137.790625 89.175 L 147.55625 78.965625 L 157.321875 93.721875 L 167.0875 95.73125 L 176.85 102.3625 L 186.615625 110.221875 L 196.38125 116.184375 " transform="matrix(1.25,0,0,1.25,0,0)"/>
<path style="fill:none;stroke-width:1.5;stroke-linecap:butt;stroke-linejoin:round;stroke:rgb(100%,49.803922%,5.490196%);stroke-opacity:1;stroke-dasharray:5.55,2.4;stroke-miterlimit:4;" d="M 57.23125 13.5 L 76.759375 13.78125 L 96.290625 13.903125 L 115.81875 13.9625 L 135.35 13.996875 L 154.88125 14.0125 L 174.409375 14.025 L 193.940625 14.028125 " transform="matrix(1.25,0,0,1.25,0,0)"/>
<path style="fill:none;stroke-width:1.5;stroke-linecap:square;stroke-linejoin:round;stroke:rgb(12.156863%,46.666667%,70.588235%);stroke-opacity:1;stroke-miterlimit:4;" d="M 40.140625 19.35625 L 49.90625 14.63125 L 59.671875 37.146875 L 69.4375 28.996875 L 79.2 38.609375 L 88.965625 62 L 98.73125 67.0125 L 108.496875 54.709375 L 118.2625 84.25 L 128.025 64.76875 L 137.790625 89.175 L 147.55625 78.965625 L 157.321875 93.721875 L 167.0875 95.73125 L 176.85 102.3625 L 186.615625 110.221875 L 196.38125 116.184375 L 206.146875 117.196875 " transform="matrix(1.25,0,0,1.25,0,0)"/>
<path style="fill:none;stroke-width:1.5;stroke-linecap:butt;stroke-linejoin:round;stroke:rgb(100%,49.803922%,5.490196%);stroke-opacity:1;stroke-dasharray:5.55,2.4;stroke-miterlimit:4;" d="M 57.23125 13.5 L 76.759375 13.78125 L 96.290625 13.903125 L 115.81875 13.9625 L 135.35 13.996875 L 154.88125 14.0125 L 174.409375 14.025 L 193.940625 14.028125 " transform="matrix(1.25,0,0,1.25,0,0)"/>
<path style="fill:none;stroke-width:1.5;stroke-linecap:square;stroke-linejoin:round;stroke:rgb(12.156863%,46.666667%,70.588235%);stroke-opacity:1;stroke-miterlimit:4;" d="M 40.140625 19.35625 L 49.90625 14.63125 L 59.671875 37.146875 L 69.4375 28.996875 L 79.2 38.609375 L 88.965625 62 L 98.73125 67.0125 L 108.496875 54.709375 L 118.2625 84.25 L 128.025 64.76875 L 137.790625 89.175 L 147.55625 78.965625 L 157.321875 93.721875 L 167.0875 95.73125 L 176.85 102.3625 L 186.615625 110.221875 L 196.38125 116.184375 L 206.146875 117.196875 " transform="matrix(1.25,0,0,1.25,0,0)"/>
<path style="fill:none;stroke-width:1.5;stroke-linecap:butt;stroke-linejoin:round;stroke:rgb(100%,49.803922%,5.490196%);stroke-opacity:1;stroke-dasharray:5.55,2.4;stroke-miterlimit:4;" d="M 57.23125 13.5 L 76.759375 13.78125 L 96.290625 13.903125 L 115.81875 13.9625 L 135.35 13.996875 L 154.88125 14.0125 L 174.409375 14.025 L 193.940625 14.028125 L 213.46875 14.03125 " transform="matrix(1.25,0,0,1.25,0,0)"/>
<path style="fill:none;stroke-width:1.5;stroke-linecap:square;stroke-linejoin:round;stroke:rgb(12.156863%,46.666667%,70.588235%);stroke-opacity:1;stroke-miterlimit:4;" d="M 40.140625 19.35625 L 49.90625 14.63125 L 59.671875 37.146875 L 69.4375 28.996875 L 79.2 38.609375 L 88.965625 62 L 98.73125 67.0125 L 108.496875 54.709375 L 118.2625 84.25 L 128.025 64.76875 L 137.790625 89.175 L 147.55625 78.965625 L 157.321875 93.721875 L 167.0875 95.73125 L 176.85 102.3625 L 186.615625 110.221875 L 196.38125 116.184375 L 206.146875 117.196875 L 215.9125 139.5 " transform="matrix(1.25,0,0,1.25,0,0)"/>
<path style="fill:none;stroke-width:1.5;stroke-linecap:butt;stroke-linejoin:round;stroke:rgb(100%,49.803922%,5.490196%);stroke-opacity:1;stroke-dasharray:5.55,2.4;stroke-miterlimit:4;" d="M 57.23125 13.5 L 76.759375 13.78125 L 96.290625 13.903125 L 115.81875 13.9625 L 135.35 13.996875 L 154.88125 14.0125 L 174.409375 14.025 L 193.940625 14.028125 L 213.46875 14.03125 " transform="matrix(1.25,0,0,1.25,0,0)"/>
<path style="fill:none;stroke-width:1.5;stroke-linecap:square;stroke-linejoin:round;stroke:rgb(12.156863%,46.666667%,70.588235%);stroke-opacity:1;stroke-miterlimit:4;" d="M 40.140625 19.35625 L 49.90625 14.63125 L 59.671875 37.146875 L 69.4375 28.996875 L 79.2 38.609375 L 88.965625 62 L 98.73125 67.0125 L 108.496875 54.709375 L 118.2625 84.25 L 128.025 64.76875 L 137.790625 89.175 L 147.55625 78.965625 L 157.321875 93.721875 L 167.0875 95.73125 L 176.85 102.3625 L 186.615625 110.221875 L 196.38125 116.184375 L 206.146875 117.196875 L 215.9125 139.5 L 225.675 121.10625 " transform="matrix(1.25,0,0,1.25,0,0)"/>
<path style="fill:none;stroke-width:1.5;stroke-linecap:butt;stroke-linejoin:round;stroke:rgb(100%,49.803922%,5.490196%);stroke-opacity:1;stroke-dasharray:5.55,2.4;stroke-miterlimit:4;" d="M 57.23125 13.5 L 76.759375 13.78125 L 96.290625 13.903125 L 115.81875 13.9625 L 135.35 13.996875 L 154.88125 14.0125 L 174.409375 14.025 L 193.940625 14.028125 L 213.46875 14.03125 " transform="matrix(1.25,0,0,1.25,0,0)"/>
<path style="fill:none;stroke-width:1.5;stroke-linecap:square;stroke-linejoin:round;stroke:rgb(12.156863%,46.666667%,70.588235%);stroke-opacity:1;stroke-miterlimit:4;" d="M 40.140625 19.35625 L 49.90625 14.63125 L 59.671875 37.146875 L 69.4375 28.996875 L 79.2 38.609375 L 88.965625 62 L 98.73125 67.0125 L 108.496875 54.709375 L 118.2625 84.25 L 128.025 64.76875 L 137.790625 89.175 L 147.55625 78.965625 L 157.321875 93.721875 L 167.0875 95.73125 L 176.85 102.3625 L 186.615625 110.221875 L 196.38125 116.184375 L 206.146875 117.196875 L 215.9125 139.5 L 225.675 121.10625 " transform="matrix(1.25,0,0,1.25,0,0)"/>
<g clip-path="url(#clip1)" clip-rule="nonzero">
<path style="fill:none;stroke-width:1.5;stroke-linecap:butt;stroke-linejoin:round;stroke:rgb(100%,49.803922%,5.490196%);stroke-opacity:1;stroke-dasharray:5.55,2.4;stroke-miterlimit:4;" d="M 57.23125 13.5 L 76.759375 13.78125 L 96.290625 13.903125 L 115.81875 13.9625 L 135.35 13.996875 L 154.88125 14.0125 L 174.409375 14.025 L 193.940625 14.028125 L 213.46875 14.03125 L 233 14.03125 " transform="matrix(1.25,0,0,1.25,0,0)"/>
</g>
<path style="fill:none;stroke-width:0.8;stroke-linecap:square;stroke-linejoin:miter;stroke:rgb(0%,0%,0%);stroke-opacity:1;stroke-miterlimit:4;" d="M 37.7 145.8 L 37.7 7.2 " transform="matrix(1.25,0,0,1.25,0,0)"/>
<path style="fill:none;stroke-width:0.8;stroke-linecap:square;stroke-linejoin:miter;stroke:rgb(0%,0%,0%);stroke-opacity:1;stroke-miterlimit:4;" d="M 233 145.8 L 233 7.2 " transform="matrix(1.25,0,0,1.25,0,0)"/>
<path style="fill:none;stroke-width:0.8;stroke-linecap:square;stroke-linejoin:miter;stroke:rgb(0%,0%,0%);stroke-opacity:1;stroke-miterlimit:4;" d="M 37.7 145.8 L 233 145.8 " transform="matrix(1.25,0,0,1.25,0,0)"/>
<path style="fill:none;stroke-width:0.8;stroke-linecap:square;stroke-linejoin:miter;stroke:rgb(0%,0%,0%);stroke-opacity:1;stroke-miterlimit:4;" d="M 37.7 7.2 L 233 7.2 " transform="matrix(1.25,0,0,1.25,0,0)"/>
<use xlink:href="#surface5" mask="url(#mask0)"/>
<path style="fill:none;stroke-width:1.5;stroke-linecap:square;stroke-linejoin:round;stroke:rgb(12.156863%,46.666667%,70.588235%);stroke-opacity:1;stroke-miterlimit:4;" d="M 46.7 115.9875 L 66.7 115.9875 " transform="matrix(1.25,0,0,1.25,0,0)"/>
<path style=" stroke:none;fill-rule:nonzero;fill:rgb(0%,0%,0%);fill-opacity:1;" d="M 95.664062 140.582031 L 95.664062 142.523438 L 97.976562 142.523438 L 97.976562 143.394531 L 95.664062 143.394531 L 95.664062 147.105469 C 95.664062 147.664062 95.742188 148.019531 95.890625 148.179688 C 96.046875 148.339844 96.355469 148.417969 96.824219 148.417969 L 97.976562 148.417969 L 97.976562 149.359375 L 96.824219 149.359375 C 95.957031 149.359375 95.359375 149.195312 95.03125 148.875 C 94.699219 148.550781 94.535156 147.960938 94.535156 147.105469 L 94.535156 143.394531 L 93.710938 143.394531 L 93.710938 142.523438 L 94.535156 142.523438 L 94.535156 140.582031 Z M 95.664062 140.582031 "/>
<path style=" stroke:none;fill-rule:nonzero;fill:rgb(0%,0%,0%);fill-opacity:1;" d="M 103.414062 143.570312 C 103.289062 143.496094 103.152344 143.445312 103.003906 143.410156 C 102.855469 143.375 102.691406 143.359375 102.511719 143.359375 C 101.878906 143.359375 101.390625 143.5625 101.050781 143.976562 C 100.710938 144.390625 100.539062 144.984375 100.539062 145.757812 L 100.539062 149.359375 L 99.410156 149.359375 L 99.410156 142.523438 L 100.539062 142.523438 L 100.539062 143.585938 C 100.777344 143.167969 101.085938 142.859375 101.460938 142.660156 C 101.839844 142.457031 102.300781 142.359375 102.84375 142.359375 C 102.917969 142.359375 103.003906 142.363281 103.097656 142.375 C 103.191406 142.382812 103.296875 142.398438 103.410156 142.417969 Z M 103.414062 143.570312 "/>
<path style=" stroke:none;fill-rule:nonzero;fill:rgb(0%,0%,0%);fill-opacity:1;" d="M 107.699219 145.921875 C 106.792969 145.921875 106.164062 146.027344 105.8125 146.234375 C 105.464844 146.441406 105.289062 146.792969 105.289062 147.296875 C 105.289062 147.695312 105.417969 148.011719 105.683594 148.246094 C 105.945312 148.476562 106.300781 148.59375 106.753906 148.59375 C 107.375 148.59375 107.875 148.375 108.253906 147.933594 C 108.628906 147.492188 108.816406 146.902344 108.816406 146.171875 L 108.816406 145.921875 Z M 109.941406 145.457031 L 109.941406 149.359375 L 108.816406 149.359375 L 108.816406 148.320312 C 108.5625 148.734375 108.242188 149.039062 107.859375 149.238281 C 107.476562 149.4375 107.007812 149.535156 106.453125 149.535156 C 105.753906 149.535156 105.199219 149.339844 104.785156 148.945312 C 104.371094 148.550781 104.164062 148.027344 104.164062 147.367188 C 104.164062 146.597656 104.421875 146.019531 104.9375 145.628906 C 105.453125 145.238281 106.21875 145.042969 107.242188 145.042969 L 108.816406 145.042969 L 108.816406 144.933594 C 108.816406 144.414062 108.648438 144.015625 108.308594 143.734375 C 107.96875 143.449219 107.492188 143.308594 106.875 143.308594 C 106.484375 143.308594 106.105469 143.355469 105.734375 143.449219 C 105.363281 143.542969 105.007812 143.683594 104.667969 143.871094 L 104.667969 142.832031 C 105.078125 142.671875 105.476562 142.554688 105.863281 142.476562 C 106.25 142.398438 106.625 142.359375 106.992188 142.359375 C 107.980469 142.359375 108.71875 142.613281 109.207031 143.128906 C 109.695312 143.640625 109.941406 144.414062 109.941406 145.457031 Z M 109.941406 145.457031 "/>
<path style=" stroke:none;fill-rule:nonzero;fill:rgb(0%,0%,0%);fill-opacity:1;" d="M 112.253906 142.523438 L 113.375 142.523438 L 113.375 149.359375 L 112.253906 149.359375 Z M 112.253906 139.859375 L 113.375 139.859375 L 113.375 141.285156 L 112.253906 141.285156 Z M 112.253906 139.859375 "/>
<path style=" stroke:none;fill-rule:nonzero;fill:rgb(0%,0%,0%);fill-opacity:1;" d="M 121.410156 145.230469 L 121.410156 149.359375 L 120.285156 149.359375 L 120.285156 145.269531 C 120.285156 144.621094 120.160156 144.136719 119.90625 143.816406 C 119.65625 143.496094 119.277344 143.335938 118.773438 143.335938 C 118.164062 143.335938 117.6875 143.527344 117.335938 143.914062 C 116.988281 144.300781 116.8125 144.828125 116.8125 145.496094 L 116.8125 149.359375 L 115.683594 149.359375 L 115.683594 142.523438 L 116.8125 142.523438 L 116.8125 143.585938 C 117.082031 143.171875 117.398438 142.867188 117.761719 142.664062 C 118.125 142.460938 118.546875 142.359375 119.023438 142.359375 C 119.808594 142.359375 120.402344 142.601562 120.804688 143.085938 C 121.207031 143.570312 121.410156 144.285156 121.410156 145.230469 Z M 121.410156 145.230469 "/>
<path style=" stroke:none;fill-rule:nonzero;fill:rgb(0%,0%,0%);fill-opacity:1;" d="M 128.84375 151.433594 L 128.84375 152.304688 L 122.347656 152.304688 L 122.347656 151.433594 Z M 128.84375 151.433594 "/>
<path style=" stroke:none;fill-rule:nonzero;fill:rgb(0%,0%,0%);fill-opacity:1;" d="M 129.898438 139.859375 L 131.019531 139.859375 L 131.019531 149.359375 L 129.898438 149.359375 Z M 129.898438 139.859375 "/>
<path style=" stroke:none;fill-rule:nonzero;fill:rgb(0%,0%,0%);fill-opacity:1;" d="M 136.019531 143.308594 C 135.417969 143.308594 134.941406 143.542969 134.59375 144.015625 C 134.242188 144.484375 134.066406 145.128906 134.066406 145.945312 C 134.066406 146.761719 134.242188 147.40625 134.585938 147.878906 C 134.9375 148.347656 135.414062 148.582031 136.019531 148.582031 C 136.617188 148.582031 137.09375 148.347656 137.441406 147.875 C 137.792969 147.402344 137.96875 146.757812 137.96875 145.945312 C 137.96875 145.136719 137.792969 144.492188 137.441406 144.019531 C 137.09375 143.546875 136.617188 143.308594 136.019531 143.308594 Z M 136.019531 142.359375 C 136.996094 142.359375 137.761719 142.675781 138.320312 143.3125 C 138.878906 143.945312 139.15625 144.824219 139.15625 145.945312 C 139.15625 147.0625 138.878906 147.941406 138.320312 148.582031 C 137.761719 149.21875 136.996094 149.535156 136.019531 149.535156 C 135.039062 149.535156 134.269531 149.21875 133.714844 148.582031 C 133.160156 147.941406 132.882812 147.0625 132.882812 145.945312 C 132.882812 144.824219 133.160156 143.945312 133.714844 143.3125 C 134.269531 142.675781 135.039062 142.359375 136.019531 142.359375 Z M 136.019531 142.359375 "/>
<path style=" stroke:none;fill-rule:nonzero;fill:rgb(0%,0%,0%);fill-opacity:1;" d="M 145.375 142.722656 L 145.375 143.785156 C 145.058594 143.621094 144.730469 143.5 144.386719 143.421875 C 144.046875 143.339844 143.691406 143.296875 143.324219 143.296875 C 142.769531 143.296875 142.351562 143.382812 142.070312 143.554688 C 141.792969 143.722656 141.652344 143.980469 141.652344 144.324219 C 141.652344 144.582031 141.753906 144.789062 141.953125 144.9375 C 142.152344 145.085938 142.550781 145.226562 143.15625 145.359375 L 143.539062 145.445312 C 144.335938 145.617188 144.902344 145.855469 145.238281 146.167969 C 145.574219 146.480469 145.742188 146.914062 145.742188 147.472656 C 145.742188 148.105469 145.492188 148.609375 144.988281 148.980469 C 144.488281 149.351562 143.796875 149.535156 142.917969 149.535156 C 142.550781 149.535156 142.167969 149.5 141.773438 149.429688 C 141.375 149.355469 140.957031 149.25 140.519531 149.109375 L 140.519531 147.949219 C 140.933594 148.164062 141.34375 148.324219 141.746094 148.433594 C 142.148438 148.539062 142.546875 148.59375 142.941406 148.59375 C 143.472656 148.59375 143.878906 148.503906 144.160156 148.324219 C 144.445312 148.140625 144.589844 147.886719 144.589844 147.558594 C 144.589844 147.253906 144.484375 147.019531 144.28125 146.855469 C 144.074219 146.691406 143.625 146.535156 142.929688 146.386719 L 142.539062 146.292969 C 141.84375 146.148438 141.339844 145.921875 141.03125 145.621094 C 140.722656 145.316406 140.566406 144.898438 140.566406 144.371094 C 140.566406 143.726562 140.796875 143.230469 141.25 142.882812 C 141.707031 142.53125 142.355469 142.359375 143.191406 142.359375 C 143.605469 142.359375 143.996094 142.386719 144.363281 142.449219 C 144.730469 142.507812 145.066406 142.601562 145.375 142.722656 Z M 145.375 142.722656 "/>
<path style=" stroke:none;fill-rule:nonzero;fill:rgb(0%,0%,0%);fill-opacity:1;" d="M 151.890625 142.722656 L 151.890625 143.785156 C 151.570312 143.621094 151.242188 143.5 150.898438 143.421875 C 150.558594 143.339844 150.203125 143.296875 149.835938 143.296875 C 149.28125 143.296875 148.863281 143.382812 148.585938 143.554688 C 148.304688 143.722656 148.164062 143.980469 148.164062 144.324219 C 148.164062 144.582031 148.265625 144.789062 148.464844 144.9375 C 148.664062 145.085938 149.066406 145.226562 149.667969 145.359375 L 150.054688 145.445312 C 150.851562 145.617188 151.414062 145.855469 151.75 146.167969 C 152.085938 146.480469 152.257812 146.914062 152.257812 147.472656 C 152.257812 148.105469 152.003906 148.609375 151.5 148.980469 C 151 149.351562 150.308594 149.535156 149.429688 149.535156 C 149.0625 149.535156 148.683594 149.5 148.285156 149.429688 C 147.886719 149.355469 147.46875 149.25 147.03125 149.109375 L 147.03125 147.949219 C 147.445312 148.164062 147.855469 148.324219 148.257812 148.433594 C 148.660156 148.539062 149.058594 148.59375 149.453125 148.59375 C 149.984375 148.59375 150.390625 148.503906 150.671875 148.324219 C 150.960938 148.140625 151.101562 147.886719 151.101562 147.558594 C 151.101562 147.253906 151 147.019531 150.792969 146.855469 C 150.589844 146.691406 150.136719 146.535156 149.441406 146.386719 L 149.050781 146.292969 C 148.355469 146.148438 147.851562 145.921875 147.542969 145.621094 C 147.234375 145.316406 147.078125 144.898438 147.078125 144.371094 C 147.078125 143.726562 147.308594 143.230469 147.765625 142.882812 C 148.21875 142.53125 148.867188 142.359375 149.703125 142.359375 C 150.117188 142.359375 150.507812 142.386719 150.875 142.449219 C 151.242188 142.507812 151.578125 142.601562 151.890625 142.722656 Z M 151.890625 142.722656 "/>
<path style="fill:none;stroke-width:1.5;stroke-linecap:butt;stroke-linejoin:round;stroke:rgb(100%,49.803922%,5.490196%);stroke-opacity:1;stroke-dasharray:5.55,2.4;stroke-miterlimit:4;" d="M 46.7 130.94375 L 66.7 130.94375 " transform="matrix(1.25,0,0,1.25,0,0)"/>
<path style=" stroke:none;fill-rule:nonzero;fill:rgb(0%,0%,0%);fill-opacity:1;" d="M 93.75 161.21875 L 94.9375 161.21875 L 97.074219 166.953125 L 99.210938 161.21875 L 100.398438 161.21875 L 97.835938 168.054688 L 96.3125 168.054688 Z M 93.75 161.21875 "/>
<path style=" stroke:none;fill-rule:nonzero;fill:rgb(0%,0%,0%);fill-opacity:1;" d="M 105.058594 164.617188 C 104.148438 164.617188 103.519531 164.722656 103.171875 164.929688 C 102.820312 165.136719 102.644531 165.488281 102.644531 165.992188 C 102.644531 166.390625 102.777344 166.707031 103.039062 166.941406 C 103.304688 167.171875 103.660156 167.289062 104.109375 167.289062 C 104.734375 167.289062 105.234375 167.070312 105.609375 166.628906 C 105.988281 166.1875 106.175781 165.597656 106.175781 164.867188 L 106.175781 164.617188 Z M 107.296875 164.152344 L 107.296875 168.054688 L 106.175781 168.054688 L 106.175781 167.015625 C 105.917969 167.429688 105.597656 167.734375 105.214844 167.933594 C 104.832031 168.132812 104.363281 168.230469 103.8125 168.230469 C 103.113281 168.230469 102.554688 168.035156 102.140625 167.640625 C 101.730469 167.246094 101.523438 166.722656 101.523438 166.0625 C 101.523438 165.292969 101.78125 164.714844 102.292969 164.324219 C 102.808594 163.933594 103.578125 163.738281 104.597656 163.738281 L 106.175781 163.738281 L 106.175781 163.628906 C 106.175781 163.109375 106.003906 162.710938 105.664062 162.429688 C 105.324219 162.144531 104.847656 162.003906 104.234375 162.003906 C 103.84375 162.003906 103.460938 162.050781 103.089844 162.144531 C 102.722656 162.238281 102.367188 162.378906 102.023438 162.566406 L 102.023438 161.527344 C 102.433594 161.367188 102.832031 161.25 103.21875 161.171875 C 103.605469 161.09375 103.984375 161.054688 104.347656 161.054688 C 105.339844 161.054688 106.078125 161.308594 106.566406 161.824219 C 107.054688 162.335938 107.296875 163.109375 107.296875 164.152344 Z M 107.296875 164.152344 "/>
<path style=" stroke:none;fill-rule:nonzero;fill:rgb(0%,0%,0%);fill-opacity:1;" d="M 109.609375 158.554688 L 110.734375 158.554688 L 110.734375 168.054688 L 109.609375 168.054688 Z M 109.609375 158.554688 "/>
<path style=" stroke:none;fill-rule:nonzero;fill:rgb(0%,0%,0%);fill-opacity:1;" d="M 118.277344 170.128906 L 118.277344 171 L 111.78125 171 L 111.78125 170.128906 Z M 118.277344 170.128906 "/>
<path style=" stroke:none;fill-rule:nonzero;fill:rgb(0%,0%,0%);fill-opacity:1;" d="M 119.332031 158.554688 L 120.457031 158.554688 L 120.457031 168.054688 L 119.332031 168.054688 Z M 119.332031 158.554688 "/>
<path style=" stroke:none;fill-rule:nonzero;fill:rgb(0%,0%,0%);fill-opacity:1;" d="M 125.453125 162.003906 C 124.851562 162.003906 124.375 162.238281 124.027344 162.710938 C 123.675781 163.179688 123.5 163.824219 123.5 164.640625 C 123.5 165.457031 123.675781 166.101562 124.023438 166.574219 C 124.371094 167.042969 124.847656 167.277344 125.453125 167.277344 C 126.054688 167.277344 126.527344 167.042969 126.875 166.570312 C 127.226562 166.097656 127.402344 165.453125 127.402344 164.640625 C 127.402344 163.832031 127.226562 163.1875 126.875 162.714844 C 126.527344 162.242188 126.054688 162.003906 125.453125 162.003906 Z M 125.453125 161.054688 C 126.429688 161.054688 127.199219 161.371094 127.753906 162.007812 C 128.3125 162.640625 128.59375 163.519531 128.59375 164.640625 C 128.59375 165.757812 128.3125 166.636719 127.753906 167.277344 C 127.199219 167.914062 126.429688 168.230469 125.453125 168.230469 C 124.472656 168.230469 123.707031 167.914062 123.148438 167.277344 C 122.59375 166.636719 122.316406 165.757812 122.316406 164.640625 C 122.316406 163.519531 122.59375 162.640625 123.148438 162.007812 C 123.707031 161.371094 124.472656 161.054688 125.453125 161.054688 Z M 125.453125 161.054688 "/>
<path style=" stroke:none;fill-rule:nonzero;fill:rgb(0%,0%,0%);fill-opacity:1;" d="M 134.8125 161.417969 L 134.8125 162.480469 C 134.496094 162.316406 134.164062 162.195312 133.824219 162.117188 C 133.480469 162.035156 133.128906 161.992188 132.761719 161.992188 C 132.203125 161.992188 131.785156 162.078125 131.507812 162.25 C 131.226562 162.417969 131.089844 162.675781 131.089844 163.019531 C 131.089844 163.277344 131.1875 163.484375 131.386719 163.632812 C 131.585938 163.78125 131.988281 163.921875 132.589844 164.054688 L 132.976562 164.140625 C 133.773438 164.3125 134.339844 164.550781 134.675781 164.863281 C 135.011719 165.175781 135.179688 165.609375 135.179688 166.167969 C 135.179688 166.800781 134.925781 167.304688 134.425781 167.675781 C 133.921875 168.046875 133.230469 168.230469 132.351562 168.230469 C 131.984375 168.230469 131.605469 168.195312 131.207031 168.125 C 130.808594 168.050781 130.390625 167.945312 129.953125 167.804688 L 129.953125 166.644531 C 130.367188 166.859375 130.777344 167.019531 131.179688 167.128906 C 131.582031 167.234375 131.980469 167.289062 132.378906 167.289062 C 132.90625 167.289062 133.3125 167.199219 133.597656 167.019531 C 133.882812 166.835938 134.023438 166.582031 134.023438 166.253906 C 134.023438 165.949219 133.921875 165.714844 133.714844 165.550781 C 133.511719 165.386719 133.058594 165.230469 132.363281 165.082031 L 131.972656 164.988281 C 131.277344 164.84375 130.773438 164.617188 130.464844 164.316406 C 130.15625 164.011719 130.003906 163.59375 130.003906 163.066406 C 130.003906 162.421875 130.230469 161.925781 130.6875 161.578125 C 131.140625 161.226562 131.789062 161.054688 132.628906 161.054688 C 133.042969 161.054688 133.429688 161.082031 133.796875 161.144531 C 134.164062 161.203125 134.503906 161.296875 134.8125 161.417969 Z M 134.8125 161.417969 "/>
<path style=" stroke:none;fill-rule:nonzero;fill:rgb(0%,0%,0%);fill-opacity:1;" d="M 141.324219 161.417969 L 141.324219 162.480469 C 141.007812 162.316406 140.675781 162.195312 140.335938 162.117188 C 139.992188 162.035156 139.640625 161.992188 139.273438 161.992188 C 138.714844 161.992188 138.296875 162.078125 138.019531 162.25 C 137.738281 162.417969 137.601562 162.675781 137.601562 163.019531 C 137.601562 163.277344 137.699219 163.484375 137.898438 163.632812 C 138.097656 163.78125 138.5 163.921875 139.101562 164.054688 L 139.488281 164.140625 C 140.285156 164.3125 140.851562 164.550781 141.1875 164.863281 C 141.523438 165.175781 141.691406 165.609375 141.691406 166.167969 C 141.691406 166.800781 141.4375 167.304688 140.9375 167.675781 C 140.433594 168.046875 139.742188 168.230469 138.863281 168.230469 C 138.5 168.230469 138.117188 168.195312 137.71875 168.125 C 137.324219 168.050781 136.90625 167.945312 136.464844 167.804688 L 136.464844 166.644531 C 136.882812 166.859375 137.289062 167.019531 137.691406 167.128906 C 138.09375 167.234375 138.492188 167.289062 138.890625 167.289062 C 139.417969 167.289062 139.824219 167.199219 140.109375 167.019531 C 140.394531 166.835938 140.535156 166.582031 140.535156 166.253906 C 140.535156 165.949219 140.433594 165.714844 140.226562 165.550781 C 140.023438 165.386719 139.574219 165.230469 138.875 165.082031 L 138.484375 164.988281 C 137.789062 164.84375 137.289062 164.617188 136.976562 164.316406 C 136.667969 164.011719 136.515625 163.59375 136.515625 163.066406 C 136.515625 162.421875 136.742188 161.925781 137.199219 161.578125 C 137.652344 161.226562 138.300781 161.054688 139.140625 161.054688 C 139.554688 161.054688 139.945312 161.082031 140.308594 161.144531 C 140.675781 161.203125 141.015625 161.296875 141.324219 161.417969 Z M 141.324219 161.417969 "/>
</g>
</svg>
