<?xml version="1.0" encoding="UTF-8"?>
<svg xmlns="http://www.w3.org/2000/svg" xmlns:xlink="http://www.w3.org/1999/xlink" width="308pt" height="229pt" viewBox="0 0 308 229" version="1.1">
<defs>
<clipPath id="clip1">
  <path d="M 70 20 L 291.25 20 L 291.25 97 L 70 97 Z M 70 20 "/>
</clipPath>
<filter id="alpha" filterUnits="objectBoundingBox" x="0%" y="0%" width="100%" height="100%">
  <feColorMatrix type="matrix" in="SourceGraphic" values="0 0 0 0 1 0 0 0 0 1 0 0 0 0 1 0 0 0 1 0"/>
</filter>
<mask id="mask0">
  <g filter="url(#alpha)">
<rect x="0" y="0" width="308" height="229" style="fill:rgb(0%,0%,0%);fill-opacity:0.8;stroke:none;"/>
  </g>
</mask>
<clipPath id="clip2">
  <rect x="0" y="0" width="308" height="229"/>
</clipPath>
<g id="surface5" clip-path="url(#clip2)">
<path style="fill-rule:nonzero;fill:rgb(100%,100%,100%);fill-opacity:1;stroke-width:1;stroke-linecap:butt;stroke-linejoin:miter;stroke:rgb(80%,80%,80%);stroke-opacity:1;stroke-miterlimit:4;" d="M 146.409375 45.1125 L 226 45.1125 C 227.334375 45.1125 228 44.446875 228 43.1125 L 228 14.2 C 228 12.865625 227.334375 12.2 226 12.2 L 146.409375 12.2 C 145.075 12.2 144.409375 12.865625 144.409375 14.2 L 144.409375 43.1125 C 144.409375 44.446875 145.075 45.1125 146.409375 45.1125 Z M 146.409375 45.1125 " transform="matrix(1.25,0,0,1.25,0,0)"/>
</g>
</defs>
<g id="surface1">
<rect x="0" y="0" width="308" height="229" style="fill:rgb(100%,100%,100%);fill-opacity:1;stroke:none;"/>
<path style=" stroke:none;fill-rule:nonzero;fill:rgb(100%,100%,100%);fill-opacity:1;" d="M 47.125 182.25 L 291.25 182.25 L 291.25 9 L 47.125 9 Z M 47.125 182.25 "/>
<path style="fill:none;stroke-width:0.8;stroke-linecap:butt;stroke-linejoin:round;stroke:rgb(0%,0%,0%);stroke-opacity:1;stroke-miterlimit:4;" d="M 0 0 L 0 3.5 " transform="matrix(1.25,0,0,1.25,47.125,182.25)"/>
<path style=" stroke:none;fill-rule:nonzero;fill:rgb(0%,0%,0%);fill-opacity:1;" d="M 47.121094 192.199219 C 46.488281 192.199219 46.007812 192.511719 45.6875 193.136719 C 45.371094 193.757812 45.210938 194.699219 45.210938 195.953125 C 45.210938 197.199219 45.371094 198.136719 45.6875 198.761719 C 46.007812 199.386719 46.488281 199.699219 47.121094 199.699219 C 47.761719 199.699219 48.238281 199.386719 48.558594 198.761719 C 48.878906 198.136719 49.039062 197.199219 49.039062 195.953125 C 49.039062 194.699219 48.878906 193.757812 48.558594 193.136719 C 48.238281 192.511719 47.761719 192.199219 47.121094 192.199219 Z M 47.121094 191.222656 C 48.144531 191.222656 48.921875 191.625 49.460938 192.433594 C 50 193.242188 50.273438 194.414062 50.273438 195.953125 C 50.273438 197.484375 50 198.65625 49.460938 199.464844 C 48.921875 200.273438 48.144531 200.675781 47.121094 200.675781 C 46.101562 200.675781 45.320312 200.273438 44.78125 199.464844 C 44.242188 198.65625 43.972656 197.484375 43.972656 195.953125 C 43.972656 194.414062 44.242188 193.242188 44.78125 192.433594 C 45.320312 191.625 46.101562 191.222656 47.121094 191.222656 Z M 47.121094 191.222656 "/>
<path style="fill:none;stroke-width:0.8;stroke-linecap:butt;stroke-linejoin:round;stroke:rgb(0%,0%,0%);stroke-opacity:1;stroke-miterlimit:4;" d="M -0.000625 0 L -0.000625 3.5 " transform="matrix(1.25,0,0,1.25,95.95,182.25)"/>
<path style=" stroke:none;fill-rule:nonzero;fill:rgb(0%,0%,0%);fill-opacity:1;" d="M 94.371094 199.460938 L 98.675781 199.460938 L 98.675781 200.5 L 92.890625 200.5 L 92.890625 199.460938 C 93.355469 198.976562 93.996094 198.328125 94.800781 197.511719 C 95.609375 196.695312 96.117188 196.167969 96.324219 195.933594 C 96.71875 195.488281 96.996094 195.113281 97.152344 194.808594 C 97.308594 194.5 97.386719 194.199219 97.386719 193.902344 C 97.386719 193.417969 97.21875 193.023438 96.878906 192.71875 C 96.539062 192.410156 96.09375 192.257812 95.550781 192.257812 C 95.164062 192.257812 94.753906 192.324219 94.324219 192.460938 C 93.898438 192.59375 93.4375 192.796875 92.949219 193.070312 L 92.949219 191.824219 C 93.445312 191.625 93.910156 191.476562 94.339844 191.375 C 94.773438 191.273438 95.167969 191.222656 95.527344 191.222656 C 96.46875 191.222656 97.222656 191.457031 97.785156 191.929688 C 98.34375 192.402344 98.625 193.03125 98.625 193.820312 C 98.625 194.195312 98.554688 194.550781 98.414062 194.886719 C 98.277344 195.222656 98.019531 195.617188 97.648438 196.074219 C 97.546875 196.191406 97.222656 196.53125 96.679688 197.097656 C 96.132812 197.660156 95.367188 198.449219 94.371094 199.460938 Z M 94.371094 199.460938 "/>
<path style="fill:none;stroke-width:0.8;stroke-linecap:butt;stroke-linejoin:round;stroke:rgb(0%,0%,0%);stroke-opacity:1;stroke-miterlimit:4;" d="M -0.00125 0 L -0.00125 3.5 " transform="matrix(1.25,0,0,1.25,144.775,182.25)"/>
<path style=" stroke:none;fill-rule:nonzero;fill:rgb(0%,0%,0%);fill-opacity:1;" d="M 145.523438 192.460938 L 142.410156 197.324219 L 145.523438 197.324219 Z M 145.199219 191.386719 L 146.75 191.386719 L 146.75 197.324219 L 148.050781 197.324219 L 148.050781 198.351562 L 146.75 198.351562 L 146.75 200.5 L 145.523438 200.5 L 145.523438 198.351562 L 141.410156 198.351562 L 141.410156 197.160156 Z M 145.199219 191.386719 "/>
<path style="fill:none;stroke-width:0.8;stroke-linecap:butt;stroke-linejoin:round;stroke:rgb(0%,0%,0%);stroke-opacity:1;stroke-miterlimit:4;" d="M 0.00125 0 L 0.00125 3.5 " transform="matrix(1.25,0,0,1.25,193.6,182.25)"/>
<path style=" stroke:none;fill-rule:nonzero;fill:rgb(0%,0%,0%);fill-opacity:1;" d="M 193.75 195.453125 C 193.195312 195.453125 192.757812 195.640625 192.433594 196.019531 C 192.109375 196.398438 191.949219 196.914062 191.949219 197.574219 C 191.949219 198.230469 192.109375 198.746094 192.433594 199.128906 C 192.757812 199.507812 193.195312 199.699219 193.75 199.699219 C 194.304688 199.699219 194.742188 199.507812 195.066406 199.128906 C 195.386719 198.746094 195.550781 198.230469 195.550781 197.574219 C 195.550781 196.914062 195.386719 196.398438 195.066406 196.019531 C 194.742188 195.640625 194.304688 195.453125 193.75 195.453125 Z M 196.199219 191.585938 L 196.199219 192.710938 C 195.886719 192.5625 195.574219 192.453125 195.261719 192.375 C 194.945312 192.296875 194.632812 192.257812 194.324219 192.257812 C 193.507812 192.257812 192.886719 192.53125 192.457031 193.082031 C 192.027344 193.632812 191.785156 194.460938 191.722656 195.574219 C 191.960938 195.21875 192.261719 194.945312 192.625 194.757812 C 192.988281 194.570312 193.386719 194.476562 193.824219 194.476562 C 194.738281 194.476562 195.460938 194.753906 195.992188 195.308594 C 196.523438 195.863281 196.789062 196.617188 196.789062 197.574219 C 196.789062 198.511719 196.511719 199.261719 195.960938 199.828125 C 195.40625 200.394531 194.667969 200.675781 193.75 200.675781 C 192.695312 200.675781 191.890625 200.273438 191.332031 199.464844 C 190.773438 198.65625 190.496094 197.484375 190.496094 195.953125 C 190.496094 194.511719 190.839844 193.363281 191.523438 192.507812 C 192.207031 191.648438 193.121094 191.222656 194.273438 191.222656 C 194.582031 191.222656 194.894531 191.25 195.210938 191.3125 C 195.527344 191.375 195.855469 191.464844 196.199219 191.585938 Z M 196.199219 191.585938 "/>
<path style="fill:none;stroke-width:0.8;stroke-linecap:butt;stroke-linejoin:round;stroke:rgb(0%,0%,0%);stroke-opacity:1;stroke-miterlimit:4;" d="M 0.000625 0 L 0.000625 3.5 " transform="matrix(1.25,0,0,1.25,242.425,182.25)"/>
<path style=" stroke:none;fill-rule:nonzero;fill:rgb(0%,0%,0%);fill-opacity:1;" d="M 242.421875 196.171875 C 241.835938 196.171875 241.375 196.328125 241.039062 196.640625 C 240.703125 196.953125 240.535156 197.386719 240.535156 197.933594 C 240.535156 198.484375 240.703125 198.914062 241.039062 199.230469 C 241.375 199.542969 241.835938 199.699219 242.421875 199.699219 C 243.007812 199.699219 243.46875 199.542969 243.804688 199.226562 C 244.144531 198.910156 244.3125 198.480469 244.3125 197.933594 C 244.3125 197.386719 244.144531 196.953125 243.808594 196.640625 C 243.476562 196.328125 243.011719 196.171875 242.421875 196.171875 Z M 241.1875 195.648438 C 240.660156 195.515625 240.246094 195.269531 239.953125 194.910156 C 239.65625 194.546875 239.511719 194.101562 239.511719 193.582031 C 239.511719 192.855469 239.769531 192.277344 240.289062 191.855469 C 240.808594 191.433594 241.519531 191.222656 242.421875 191.222656 C 243.328125 191.222656 244.039062 191.433594 244.558594 191.855469 C 245.074219 192.277344 245.332031 192.855469 245.332031 193.582031 C 245.332031 194.101562 245.183594 194.546875 244.890625 194.910156 C 244.59375 195.269531 244.1875 195.515625 243.660156 195.648438 C 244.253906 195.785156 244.71875 196.054688 245.046875 196.460938 C 245.378906 196.863281 245.546875 197.351562 245.546875 197.933594 C 245.546875 198.816406 245.277344 199.496094 244.738281 199.96875 C 244.199219 200.441406 243.425781 200.675781 242.421875 200.675781 C 241.417969 200.675781 240.644531 200.441406 240.105469 199.96875 C 239.566406 199.496094 239.296875 198.816406 239.296875 197.933594 C 239.296875 197.351562 239.460938 196.863281 239.796875 196.460938 C 240.128906 196.054688 240.59375 195.785156 241.1875 195.648438 Z M 240.738281 193.699219 C 240.738281 194.171875 240.882812 194.539062 241.179688 194.804688 C 241.472656 195.066406 241.886719 195.199219 242.421875 195.199219 C 242.949219 195.199219 243.363281 195.066406 243.664062 194.804688 C 243.960938 194.539062 244.113281 194.171875 244.113281 193.699219 C 244.113281 193.226562 243.960938 192.859375 243.664062 192.59375 C 243.363281 192.328125 242.949219 192.199219 242.421875 192.199219 C 241.886719 192.199219 241.472656 192.328125 241.179688 192.59375 C 240.882812 192.859375 240.738281 193.226562 240.738281 193.699219 Z M 240.738281 193.699219 "/>
<path style="fill:none;stroke-width:0.8;stroke-linecap:butt;stroke-linejoin:round;stroke:rgb(0%,0%,0%);stroke-opacity:1;stroke-miterlimit:4;" d="M 0 0 L 0 3.5 " transform="matrix(1.25,0,0,1.25,291.25,182.25)"/>
<path style=" stroke:none;fill-rule:nonzero;fill:rgb(0%,0%,0%);fill-opacity:1;" d="M 284.847656 199.460938 L 286.859375 199.460938 L 286.859375 192.507812 L 284.671875 192.949219 L 284.671875 191.824219 L 286.851562 191.386719 L 288.082031 191.386719 L 288.082031 199.460938 L 290.09375 199.460938 L 290.09375 200.5 L 284.847656 200.5 Z M 284.847656 199.460938 "/>
<path style=" stroke:none;fill-rule:nonzero;fill:rgb(0%,0%,0%);fill-opacity:1;" d="M 295.222656 192.199219 C 294.589844 192.199219 294.109375 192.511719 293.789062 193.136719 C 293.472656 193.757812 293.3125 194.699219 293.3125 195.953125 C 293.3125 197.199219 293.472656 198.136719 293.789062 198.761719 C 294.109375 199.386719 294.589844 199.699219 295.222656 199.699219 C 295.863281 199.699219 296.339844 199.386719 296.660156 198.761719 C 296.980469 198.136719 297.140625 197.199219 297.140625 195.953125 C 297.140625 194.699219 296.980469 193.757812 296.660156 193.136719 C 296.339844 192.511719 295.863281 192.199219 295.222656 192.199219 Z M 295.222656 191.222656 C 296.246094 191.222656 297.023438 191.625 297.5625 192.433594 C 298.101562 193.242188 298.371094 194.414062 298.371094 195.953125 C 298.371094 197.484375 298.101562 198.65625 297.5625 199.464844 C 297.023438 200.273438 296.246094 200.675781 295.222656 200.675781 C 294.203125 200.675781 293.421875 200.273438 292.882812 199.464844 C 292.34375 198.65625 292.074219 197.484375 292.074219 195.953125 C 292.074219 194.414062 292.34375 193.242188 292.882812 192.433594 C 293.421875 191.625 294.203125 191.222656 295.222656 191.222656 Z M 295.222656 191.222656 "/>
<path style=" stroke:none;fill-rule:nonzero;fill:rgb(0%,0%,0%);fill-opacity:1;" d="M 157.179688 213.898438 L 157.179688 214.445312 L 152.015625 214.445312 C 152.0625 215.21875 152.296875 215.808594 152.710938 216.214844 C 153.128906 216.617188 153.710938 216.820312 154.453125 216.820312 C 154.886719 216.820312 155.304688 216.769531 155.710938 216.664062 C 156.113281 216.558594 156.515625 216.398438 156.914062 216.1875 L 156.914062 217.25 C 156.511719 217.417969 156.097656 217.550781 155.675781 217.640625 C 155.253906 217.730469 154.824219 217.773438 154.390625 217.773438 C 153.296875 217.773438 152.433594 217.457031 151.796875 216.824219 C 151.160156 216.1875 150.84375 215.328125 150.84375 214.246094 C 150.84375 213.125 151.144531 212.238281 151.75 211.582031 C 152.351562 210.925781 153.167969 210.597656 154.195312 210.597656 C 155.113281 210.597656 155.839844 210.890625 156.375 211.484375 C 156.910156 212.074219 157.179688 212.878906 157.179688 213.898438 Z M 156.054688 213.566406 C 156.046875 212.953125 155.875 212.464844 155.539062 212.097656 C 155.203125 211.730469 154.757812 211.546875 154.203125 211.546875 C 153.578125 211.546875 153.078125 211.722656 152.703125 212.078125 C 152.324219 212.433594 152.109375 212.929688 152.050781 213.574219 Z M 156.054688 213.566406 "/>
<path style=" stroke:none;fill-rule:nonzero;fill:rgb(0%,0%,0%);fill-opacity:1;" d="M 160.105469 216.570312 L 160.105469 220.195312 L 158.976562 220.195312 L 158.976562 210.761719 L 160.105469 210.761719 L 160.105469 211.796875 C 160.34375 211.390625 160.640625 211.089844 161 210.894531 C 161.363281 210.695312 161.792969 210.597656 162.292969 210.597656 C 163.121094 210.597656 163.796875 210.925781 164.316406 211.585938 C 164.835938 212.242188 165.09375 213.109375 165.09375 214.183594 C 165.09375 215.257812 164.835938 216.125 164.316406 216.785156 C 163.796875 217.445312 163.121094 217.773438 162.292969 217.773438 C 161.792969 217.773438 161.363281 217.675781 161 217.476562 C 160.640625 217.277344 160.34375 216.976562 160.105469 216.570312 Z M 163.929688 214.183594 C 163.929688 213.359375 163.757812 212.710938 163.417969 212.242188 C 163.078125 211.769531 162.613281 211.535156 162.019531 211.535156 C 161.421875 211.535156 160.957031 211.769531 160.617188 212.242188 C 160.277344 212.710938 160.105469 213.359375 160.105469 214.183594 C 160.105469 215.007812 160.277344 215.65625 160.617188 216.128906 C 160.957031 216.597656 161.421875 216.832031 162.019531 216.832031 C 162.613281 216.832031 163.078125 216.597656 163.417969 216.128906 C 163.757812 215.65625 163.929688 215.007812 163.929688 214.183594 Z M 163.929688 214.183594 "/>
<path style=" stroke:none;fill-rule:nonzero;fill:rgb(0%,0%,0%);fill-opacity:1;" d="M 169.601562 211.546875 C 169 211.546875 168.527344 211.78125 168.175781 212.253906 C 167.824219 212.722656 167.648438 213.367188 167.648438 214.183594 C 167.648438 215 167.824219 215.644531 168.171875 216.117188 C 168.519531 216.585938 169 216.820312 169.601562 216.820312 C 170.203125 216.820312 170.675781 216.585938 171.023438 216.113281 C 171.375 215.640625 171.550781 214.996094 171.550781 214.183594 C 171.550781 213.375 171.375 212.730469 171.023438 212.257812 C 170.675781 211.785156 170.203125 211.546875 169.601562 211.546875 Z M 169.601562 210.597656 C 170.578125 210.597656 171.347656 210.914062 171.90625 211.550781 C 172.460938 212.183594 172.742188 213.0625 172.742188 214.183594 C 172.742188 215.300781 172.460938 216.179688 171.90625 216.820312 C 171.347656 217.457031 170.578125 217.773438 169.601562 217.773438 C 168.625 217.773438 167.855469 217.457031 167.296875 216.820312 C 166.742188 216.179688 166.46875 215.300781 166.46875 214.183594 C 166.46875 213.0625 166.742188 212.183594 167.296875 211.550781 C 167.855469 210.914062 168.625 210.597656 169.601562 210.597656 Z M 169.601562 210.597656 "/>
<path style=" stroke:none;fill-rule:nonzero;fill:rgb(0%,0%,0%);fill-opacity:1;" d="M 179.523438 211.023438 L 179.523438 212.074219 C 179.203125 211.898438 178.886719 211.765625 178.566406 211.679688 C 178.25 211.589844 177.925781 211.546875 177.601562 211.546875 C 176.871094 211.546875 176.304688 211.777344 175.902344 212.242188 C 175.5 212.703125 175.296875 213.347656 175.296875 214.183594 C 175.296875 215.019531 175.5 215.667969 175.902344 216.128906 C 176.304688 216.589844 176.871094 216.820312 177.601562 216.820312 C 177.925781 216.820312 178.25 216.777344 178.566406 216.691406 C 178.886719 216.601562 179.203125 216.472656 179.523438 216.296875 L 179.523438 217.335938 C 179.207031 217.480469 178.882812 217.589844 178.546875 217.664062 C 178.214844 217.738281 177.855469 217.773438 177.476562 217.773438 C 176.449219 217.773438 175.628906 217.449219 175.023438 216.804688 C 174.417969 216.15625 174.113281 215.28125 174.113281 214.183594 C 174.113281 213.070312 174.421875 212.191406 175.03125 211.554688 C 175.644531 210.914062 176.484375 210.597656 177.550781 210.597656 C 177.898438 210.597656 178.234375 210.632812 178.5625 210.703125 C 178.894531 210.773438 179.210938 210.878906 179.523438 211.023438 Z M 179.523438 211.023438 "/>
<path style=" stroke:none;fill-rule:nonzero;fill:rgb(0%,0%,0%);fill-opacity:1;" d="M 187.160156 213.46875 L 187.160156 217.597656 L 186.035156 217.597656 L 186.035156 213.507812 C 186.035156 212.859375 185.910156 212.375 185.65625 212.054688 C 185.40625 211.734375 185.027344 211.574219 184.523438 211.574219 C 183.914062 211.574219 183.4375 211.765625 183.085938 212.152344 C 182.738281 212.539062 182.5625 213.066406 182.5625 213.734375 L 182.5625 217.597656 L 181.433594 217.597656 L 181.433594 208.097656 L 182.5625 208.097656 L 182.5625 211.824219 C 182.832031 211.410156 183.148438 211.105469 183.511719 210.902344 C 183.875 210.699219 184.296875 210.597656 184.773438 210.597656 C 185.558594 210.597656 186.152344 210.839844 186.554688 211.324219 C 186.957031 211.808594 187.160156 212.523438 187.160156 213.46875 Z M 187.160156 213.46875 "/>
<path style="fill:none;stroke-width:0.8;stroke-linecap:butt;stroke-linejoin:round;stroke:rgb(0%,0%,0%);stroke-opacity:1;stroke-miterlimit:4;" d="M 0 -0.000972 L -3.5 -0.000972 " transform="matrix(1.25,0,0,1.25,47.125,120.747309)"/>
<path style=" stroke:none;fill-rule:nonzero;fill:rgb(0%,0%,0%);fill-opacity:1;" d="M 10.550781 124.363281 L 12.5625 124.363281 L 12.5625 117.410156 L 10.375 117.851562 L 10.375 116.726562 L 12.554688 116.289062 L 13.785156 116.289062 L 13.785156 124.363281 L 15.796875 124.363281 L 15.796875 125.402344 L 10.550781 125.402344 Z M 10.550781 124.363281 "/>
<path style=" stroke:none;fill-rule:nonzero;fill:rgb(0%,0%,0%);fill-opacity:1;" d="M 20.925781 117.101562 C 20.292969 117.101562 19.8125 117.414062 19.492188 118.039062 C 19.175781 118.660156 19.015625 119.601562 19.015625 120.855469 C 19.015625 122.101562 19.175781 123.039062 19.492188 123.664062 C 19.8125 124.289062 20.292969 124.601562 20.925781 124.601562 C 21.566406 124.601562 22.042969 124.289062 22.363281 123.664062 C 22.683594 123.039062 22.84375 122.101562 22.84375 120.855469 C 22.84375 119.601562 22.683594 118.660156 22.363281 118.039062 C 22.042969 117.414062 21.566406 117.101562 20.925781 117.101562 Z M 20.925781 116.125 C 21.949219 116.125 22.726562 116.527344 23.265625 117.335938 C 23.804688 118.144531 24.074219 119.316406 24.074219 120.855469 C 24.074219 122.386719 23.804688 123.558594 23.265625 124.367188 C 22.726562 125.175781 21.949219 125.578125 20.925781 125.578125 C 19.90625 125.578125 19.125 125.175781 18.585938 124.367188 C 18.046875 123.558594 17.777344 122.386719 17.777344 120.855469 C 17.777344 119.316406 18.046875 118.144531 18.585938 117.335938 C 19.125 116.527344 19.90625 116.125 20.925781 116.125 Z M 20.925781 116.125 "/>
<path style=" stroke:none;fill-rule:nonzero;fill:rgb(0%,0%,0%);fill-opacity:1;" d="M 25.953125 117.507812 L 31.429688 117.507812 L 31.429688 118.234375 L 25.953125 118.234375 Z M 25.953125 117.507812 "/>
<path style=" stroke:none;fill-rule:nonzero;fill:rgb(0%,0%,0%);fill-opacity:1;" d="M 34.035156 119.890625 L 37.046875 119.890625 L 37.046875 120.617188 L 33 120.617188 L 33 119.890625 C 33.324219 119.550781 33.773438 119.09375 34.335938 118.523438 C 34.902344 117.953125 35.257812 117.585938 35.402344 117.417969 C 35.679688 117.109375 35.871094 116.847656 35.980469 116.632812 C 36.089844 116.417969 36.148438 116.203125 36.148438 115.996094 C 36.148438 115.65625 36.027344 115.382812 35.789062 115.167969 C 35.550781 114.953125 35.242188 114.847656 34.859375 114.847656 C 34.589844 114.847656 34.304688 114.894531 34.003906 114.988281 C 33.703125 115.082031 33.382812 115.226562 33.039062 115.417969 L 33.039062 114.542969 C 33.386719 114.40625 33.710938 114.300781 34.015625 114.226562 C 34.316406 114.15625 34.59375 114.121094 34.84375 114.121094 C 35.503906 114.121094 36.03125 114.285156 36.425781 114.617188 C 36.816406 114.949219 37.011719 115.390625 37.011719 115.941406 C 37.011719 116.203125 36.964844 116.453125 36.867188 116.6875 C 36.769531 116.921875 36.589844 117.199219 36.328125 117.515625 C 36.257812 117.601562 36.03125 117.839844 35.652344 118.234375 C 35.269531 118.628906 34.730469 119.179688 34.035156 119.890625 Z M 34.035156 119.890625 "/>
<path style="fill:none;stroke-width:0.6;stroke-linecap:butt;stroke-linejoin:round;stroke:rgb(0%,0%,0%);stroke-opacity:1;stroke-miterlimit:4;" d="M 0 0.00001 L -2 0.00001 " transform="matrix(1.25,0,0,1.25,47.125,170.121081)"/>
<path style="fill:none;stroke-width:0.6;stroke-linecap:butt;stroke-linejoin:round;stroke:rgb(0%,0%,0%);stroke-opacity:1;stroke-miterlimit:4;" d="M 0 -0.001014 L -2 -0.001014 " transform="matrix(1.25,0,0,1.25,47.125,157.13408)"/>
<path style="fill:none;stroke-width:0.6;stroke-linecap:butt;stroke-linejoin:round;stroke:rgb(0%,0%,0%);stroke-opacity:1;stroke-miterlimit:4;" d="M 0 -0.001107 L -2 -0.001107 " transform="matrix(1.25,0,0,1.25,47.125,146.153728)"/>
<path style="fill:none;stroke-width:0.6;stroke-linecap:butt;stroke-linejoin:round;stroke:rgb(0%,0%,0%);stroke-opacity:1;stroke-miterlimit:4;" d="M 0 -0.001191 L -2 -0.001191 " transform="matrix(1.25,0,0,1.25,47.125,136.642114)"/>
<path style="fill:none;stroke-width:0.6;stroke-linecap:butt;stroke-linejoin:round;stroke:rgb(0%,0%,0%);stroke-opacity:1;stroke-miterlimit:4;" d="M 0 0.001305 L -2 0.001305 " transform="matrix(1.25,0,0,1.25,47.125,128.252275)"/>
<path style="fill:none;stroke-width:0.6;stroke-linecap:butt;stroke-linejoin:round;stroke:rgb(0%,0%,0%);stroke-opacity:1;stroke-miterlimit:4;" d="M 0 0.00117 L -2 0.00117 " transform="matrix(1.25,0,0,1.25,47.125,71.373537)"/>
<path style="fill:none;stroke-width:0.6;stroke-linecap:butt;stroke-linejoin:round;stroke:rgb(0%,0%,0%);stroke-opacity:1;stroke-miterlimit:4;" d="M 0 0.000365 L -2 0.000365 " transform="matrix(1.25,0,0,1.25,47.125,42.491731)"/>
<path style="fill:none;stroke-width:0.6;stroke-linecap:butt;stroke-linejoin:round;stroke:rgb(0%,0%,0%);stroke-opacity:1;stroke-miterlimit:4;" d="M 0 0.000188 L -2 0.000188 " transform="matrix(1.25,0,0,1.25,47.125,21.999765)"/>
<path style="fill:none;stroke-width:1.5;stroke-linecap:square;stroke-linejoin:round;stroke:rgb(12.156863%,46.666667%,70.588235%);stroke-opacity:1;stroke-miterlimit:4;" d="M 40.140625 22.20625 L 49.90625 13.5 " transform="matrix(1.25,0,0,1.25,0,0)"/>
<path style="fill:none;stroke-width:1.5;stroke-linecap:square;stroke-linejoin:round;stroke:rgb(12.156863%,46.666667%,70.588235%);stroke-opacity:1;stroke-miterlimit:4;" d="M 40.140625 22.20625 L 49.90625 13.5 " transform="matrix(1.25,0,0,1.25,0,0)"/>
<path style="fill:none;stroke-width:1.5;stroke-linecap:square;stroke-linejoin:round;stroke:rgb(12.156863%,46.666667%,70.588235%);stroke-opacity:1;stroke-miterlimit:4;" d="M 40.140625 22.20625 L 49.90625 13.5 L 59.671875 35.99375 " transform="matrix(1.25,0,0,1.25,0,0)"/>
<path style="fill:none;stroke-width:1.5;stroke-linecap:square;stroke-linejoin:round;stroke:rgb(12.156863%,46.666667%,70.588235%);stroke-opacity:1;stroke-miterlimit:4;" d="M 40.140625 22.20625 L 49.90625 13.5 L 59.671875 35.99375 L 69.4375 51.115625 " transform="matrix(1.25,0,0,1.25,0,0)"/>
<path style="fill:none;stroke-width:1.5;stroke-linecap:square;stroke-linejoin:round;stroke:rgb(12.156863%,46.666667%,70.588235%);stroke-opacity:1;stroke-miterlimit:4;" d="M 40.140625 22.20625 L 49.90625 13.5 L 59.671875 35.99375 L 69.4375 51.115625 " transform="matrix(1.25,0,0,1.25,0,0)"/>
<path style="fill:none;stroke-width:1.5;stroke-linecap:butt;stroke-linejoin:round;stroke:rgb(100%,49.803922%,5.490196%);stroke-opacity:1;stroke-dasharray:5.55,2.4;stroke-miterlimit:4;" d="M 57.23125 17.3125 L 76.759375 27.734375 " transform="matrix(1.25,0,0,1.25,0,0)"/>
<path style="fill:none;stroke-width:1.5;stroke-linecap:square;stroke-linejoin:round;stroke:rgb(12.156863%,46.666667%,70.588235%);stroke-opacity:1;stroke-miterlimit:4;" d="M 40.140625 22.20625 L 49.90625 13.5 L 59.671875 35.99375 L 69.4375 51.115625 L 79.2 59.41875 " transform="matrix(1.25,0,0,1.25,0,0)"/>
<path style="fill:none;stroke-width:1.5;stroke-linecap:butt;stroke-linejoin:round;stroke:rgb(100%,49.803922%,5.490196%);stroke-opacity:1;stroke-dasharray:5.55,2.4;stroke-miterlimit:4;" d="M 57.23125 17.3125 L 76.759375 27.734375 " transform="matrix(1.25,0,0,1.25,0,0)"/>
<path style="fill:none;stroke-width:1.5;stroke-linecap:square;stroke-linejoin:round;stroke:rgb(12.156863%,46.666667%,70.588235%);stroke-opacity:1;stroke-miterlimit:4;" d="M 40.140625 22.20625 L 49.90625 13.5 L 59.671875 35.99375 L 69.4375 51.115625 L 79.2 59.41875 L 88.965625 62.140625 " transform="matrix(1.25,0,0,1.25,0,0)"/>
<path style="fill:none;stroke-width:1.5;stroke-linecap:butt;stroke-linejoin:round;stroke:rgb(100%,49.803922%,5.490196%);stroke-opacity:1;stroke-dasharray:5.55,2.4;stroke-miterlimit:4;" d="M 57.23125 17.3125 L 76.759375 27.734375 " transform="matrix(1.25,0,0,1.25,0,0)"/>
<path style="fill:none;stroke-width:1.5;stroke-linecap:square;stroke-linejoin:round;stroke:rgb(12.156863%,46.666667%,70.588235%);stroke-opacity:1;stroke-miterlimit:4;" d="M 40.140625 22.20625 L 49.90625 13.5 L 59.671875 35.99375 L 69.4375 51.115625 L 79.2 59.41875 L 88.965625 62.140625 " transform="matrix(1.25,0,0,1.25,0,0)"/>
<path style="fill:none;stroke-width:1.5;stroke-linecap:butt;stroke-linejoin:round;stroke:rgb(100%,49.803922%,5.490196%);stroke-opacity:1;stroke-dasharray:5.55,2.4;stroke-miterlimit:4;" d="M 57.23125 17.3125 L 76.759375 27.734375 L 96.290625 36.75625 " transform="matrix(1.25,0,0,1.25,0,0)"/>
<path style="fill:none;stroke-width:1.5;stroke-linecap:square;stroke-linejoin:round;stroke:rgb(12.156863%,46.666667%,70.588235%);stroke-opacity:1;stroke-miterlimit:4;" d="M 40.140625 22.20625 L 49.90625 13.5 L 59.671875 35.99375 L 69.4375 51.115625 L 79.2 59.41875 L 88.965625 62.140625 L 98.73125 74.653125 " transform="matrix(1.25,0,0,1.25,0,0)"/>
<path style="fill:none;stroke-width:1.5;stroke-linecap:butt;stroke-linejoin:round;stroke:rgb(100%,49.803922%,5.490196%);stroke-opacity:1;stroke-dasharray:5.55,2.4;stroke-miterlimit:4;" d="M 57.23125 17.3125 L 76.759375 27.734375 L 96.290625 36.75625 " transform="matrix(1.25,0,0,1.25,0,0)"/>
<path style="fill:none;stroke-width:1.5;stroke-linecap:square;stroke-linejoin:round;stroke:rgb(12.156863%,46.666667%,70.588235%);stroke-opacity:1;stroke-miterlimit:4;" d="M 40.140625 22.20625 L 49.90625 13.5 L 59.671875 35.99375 L 69.4375 51.115625 L 79.2 59.41875 L 88.965625 62.140625 L 98.73125 74.653125 L 108.496875 74.621875 " transform="matrix(1.25,0,0,1.25,0,0)"/>
<path style="fill:none;stroke-width:1.5;stroke-linecap:butt;stroke-linejoin:round;stroke:rgb(100%,49.803922%,5.490196%);stroke-opacity:1;stroke-dasharray:5.55,2.4;stroke-miterlimit:4;" d="M 57.23125 17.3125 L 76.759375 27.734375 L 96.290625 36.75625 " transform="matrix(1.25,0,0,1.25,0,0)"/>
<path style="fill:none;stroke-width:1.5;stroke-linecap:square;stroke-linejoin:round;stroke:rgb(12.156863%,46.666667%,70.588235%);stroke-opacity:1;stroke-miterlimit:4;" d="M 40.140625 22.20625 L 49.90625 13.5 L 59.671875 35.99375 L 69.4375 51.115625 L 79.2 59.41875 L 88.965625 62.140625 L 98.73125 74.653125 L 108.496875 74.621875 " transform="matrix(1.25,0,0,1.25,0,0)"/>
<path style="fill:none;stroke-width:1.5;stroke-linecap:butt;stroke-linejoin:round;stroke:rgb(100%,49.803922%,5.490196%);stroke-opacity:1;stroke-dasharray:5.55,2.4;stroke-miterlimit:4;" d="M 57.23125 17.3125 L 76.759375 27.734375 L 96.290625 36.75625 L 115.81875 44.771875 " transform="matrix(1.25,0,0,1.25,0,0)"/>
<path style="fill:none;stroke-width:1.5;stroke-linecap:square;stroke-linejoin:round;stroke:rgb(12.156863%,46.666667%,70.588235%);stroke-opacity:1;stroke-miterlimit:4;" d="M 40.140625 22.20625 L 49.90625 13.5 L 59.671875 35.99375 L 69.4375 51.115625 L 79.2 59.41875 L 88.965625 62.140625 L 98.73125 74.653125 L 108.496875 74.621875 L 118.2625 83.446875 " transform="matrix(1.25,0,0,1.25,0,0)"/>
<path style="fill:none;stroke-width:1.5;stroke-linecap:butt;stroke-linejoin:round;stroke:rgb(100%,49.803922%,5.490196%);stroke-opacity:1;stroke-dasharray:5.55,2.4;stroke-miterlimit:4;" d="M 57.23125 17.3125 L 76.759375 27.734375 L 96.290625 36.75625 L 115.81875 44.771875 " transform="matrix(1.25,0,0,1.25,0,0)"/>
<path style="fill:none;stroke-width:1.5;stroke-linecap:square;stroke-linejoin:round;stroke:rgb(12.156863%,46.666667%,70.588235%);stroke-opacity:1;stroke-miterlimit:4;" d="M 40.140625 22.20625 L 49.90625 13.5 L 59.671875 35.99375 L 69.4375 51.115625 L 79.2 59.41875 L 88.965625 62.140625 L 98.73125 74.653125 L 108.496875 74.621875 L 118.2625 83.446875 L 128.025 91.38125 " transform="matrix(1.25,0,0,1.25,0,0)"/>
<path style="fill:none;stroke-width:1.5;stroke-linecap:butt;stroke-linejoin:round;stroke:rgb(100%,49.803922%,5.490196%);stroke-opacity:1;stroke-dasharray:5.55,2.4;stroke-miterlimit:4;" d="M 57.23125 17.3125 L 76.759375 27.734375 L 96.290625 36.75625 L 115.81875 44.771875 " transform="matrix(1.25,0,0,1.25,0,0)"/>
<path style="fill:none;stroke-width:1.5;stroke-linecap:square;stroke-linejoin:round;stroke:rgb(12.156863%,46.666667%,70.588235%);stroke-opacity:1;stroke-miterlimit:4;" d="M 40.140625 22.20625 L 49.90625 13.5 L 59.671875 35.99375 L 69.4375 51.115625 L 79.2 59.41875 L 88.965625 62.140625 L 98.73125 74.653125 L 108.496875 74.621875 L 118.2625 83.446875 L 128.025 91.38125 " transform="matrix(1.25,0,0,1.25,0,0)"/>
<path style="fill:none;stroke-width:1.5;stroke-linecap:butt;stroke-linejoin:round;stroke:rgb(100%,49.803922%,5.490196%);stroke-opacity:1;stroke-dasharray:5.55,2.4;stroke-miterlimit:4;" d="M 57.23125 17.3125 L 76.759375 27.734375 L 96.290625 36.75625 L 115.81875 44.771875 L 135.35 52.05 " transform="matrix(1.25,0,0,1.25,0,0)"/>
<path style="fill:none;stroke-width:1.5;stroke-linecap:square;stroke-linejoin:round;stroke:rgb(12.156863%,46.666667%,70.588235%);stroke-opacity:1;stroke-miterlimit:4;" d="M 40.140625 22.20625 L 49.90625 13.5 L 59.671875 35.99375 L 69.4375 51.115625 L 79.2 59.41875 L 88.965625 62.140625 L 98.73125 74.653125 L 108.496875 74.621875 L 118.2625 83.446875 L 128.025 91.38125 L 137.790625 98.671875 " transform="matrix(1.25,0,0,1.25,0,0)"/>
<path style="fill:none;stroke-width:1.5;stroke-linecap:butt;stroke-linejoin:round;stroke:rgb(100%,49.803922%,5.490196%);stroke-opacity:1;stroke-dasharray:5.55,2.4;stroke-miterlimit:4;" d="M 57.23125 17.3125 L 76.759375 27.734375 L 96.290625 36.75625 L 115.81875 44.771875 L 135.35 52.05 " transform="matrix(1.25,0,0,1.25,0,0)"/>
<path style="fill:none;stroke-width:1.5;stroke-linecap:square;stroke-linejoin:round;stroke:rgb(12.156863%,46.666667%,70.588235%);stroke-opacity:1;stroke-miterlimit:4;" d="M 40.140625 22.20625 L 49.90625 13.5 L 59.671875 35.99375 L 69.4375 51.115625 L 79.2 59.41875 L 88.965625 62.140625 L 98.73125 74.653125 L 108.496875 74.621875 L 118.2625 83.446875 L 128.025 91.38125 L 137.790625 98.671875 L 147.55625 99.296875 " transform="matrix(1.25,0,0,1.25,0,0)"/>
<path style="fill:none;stroke-width:1.5;stroke-linecap:butt;stroke-linejoin:round;stroke:rgb(100%,49.803922%,5.490196%);stroke-opacity:1;stroke-dasharray:5.55,2.4;stroke-miterlimit:4;" d="M 57.23125 17.3125 L 76.759375 27.734375 L 96.290625 36.75625 L 115.81875 44.771875 L 135.35 52.05 " transform="matrix(1.25,0,0,1.25,0,0)"/>
<path style="fill:none;stroke-width:1.5;stroke-linecap:square;stroke-linejoin:round;stroke:rgb(12.156863%,46.666667%,70.588235%);stroke-opacity:1;stroke-miterlimit:4;" d="M 40.140625 22.20625 L 49.90625 13.5 L 59.671875 35.99375 L 69.4375 51.115625 L 79.2 59.41875 L 88.965625 62.140625 L 98.73125 74.653125 L 108.496875 74.621875 L 118.2625 83.446875 L 128.025 91.38125 L 137.790625 98.671875 L 147.55625 99.296875 " transform="matrix(1.25,0,0,1.25,0,0)"/>
<path style="fill:none;stroke-width:1.5;stroke-linecap:butt;stroke-linejoin:round;stroke:rgb(100%,49.803922%,5.490196%);stroke-opacity:1;stroke-dasharray:5.55,2.4;stroke-miterlimit:4;" d="M 57.23125 17.3125 L 76.759375 27.734375 L 96.290625 36.75625 L 115.81875 44.771875 L 135.35 52.05 L 154.88125 58.396875 " transform="matrix(1.25,0,0,1.25,0,0)"/>
<path style="fill:none;stroke-width:1.5;stroke-linecap:square;stroke-linejoin:round;stroke:rgb(12.156863%,46.666667%,70.588235%);stroke-opacity:1;stroke-miterlimit:4;" d="M 40.140625 22.20625 L 49.90625 13.5 L 59.671875 35.99375 L 69.4375 51.115625 L 79.2 59.41875 L 88.965625 62.140625 L 98.73125 74.653125 L 108.496875 74.621875 L 118.2625 83.446875 L 128.025 91.38125 L 137.790625 98.671875 L 147.55625 99.296875 L 157.321875 107.3 " transform="matrix(1.25,0,0,1.25,0,0)"/>
<path style="fill:none;stroke-width:1.5;stroke-linecap:butt;stroke-linejoin:round;stroke:rgb(100%,49.803922%,5.490196%);stroke-opacity:1;stroke-dasharray:5.55,2.4;stroke-miterlimit:4;" d="M 57.23125 17.3125 L 76.759375 27.734375 L 96.290625 36.75625 L 115.81875 44.771875 L 135.35 52.05 L 154.88125 58.396875 " transform="matrix(1.25,0,0,1.25,0,0)"/>
<path style="fill:none;stroke-width:1.5;stroke-linecap:square;stroke-linejoin:round;stroke:rgb(12.156863%,46.666667%,70.588235%);stroke-opacity:1;stroke-miterlimit:4;" d="M 40.140625 22.20625 L 49.90625 13.5 L 59.671875 35.99375 L 69.4375 51.115625 L 79.2 59.41875 L 88.965625 62.140625 L 98.73125 74.653125 L 108.496875 74.621875 L 118.2625 83.446875 L 128.025 91.38125 L 137.790625 98.671875 L 147.55625 99.296875 L 157.321875 107.3 L 167.0875 112.41875 " transform="matrix(1.25,0,0,1.25,0,0)"/>
<path style="fill:none;stroke-width:1.5;stroke-linecap:butt;stroke-linejoin:round;stroke:rgb(100%,49.803922%,5.490196%);stroke-opacity:1;stroke-dasharray:5.55,2.4;stroke-miterlimit:4;" d="M 57.23125 17.3125 L 76.759375 27.734375 L 96.290625 36.75625 L 115.81875 44.771875 L 135.35 52.05 L 154.88125 58.396875 " transform="matrix(1.25,0,0,1.25,0,0)"/>
<path style="fill:none;stroke-width:1.5;stroke-linecap:square;stroke-linejoin:round;stroke:rgb(12.156863%,46.666667%,70.588235%);stroke-opacity:1;stroke-miterlimit:4;" d="M 40.140625 22.20625 L 49.90625 13.5 L 59.671875 35.99375 L 69.4375 51.115625 L 79.2 59.41875 L 88.965625 62.140625 L 98.73125 74.653125 L 108.496875 74.621875 L 118.2625 83.446875 L 128.025 91.38125 L 137.790625 98.671875 L 147.55625 99.296875 L 157.321875 107.3 L 167.0875 112.41875 " transform="matrix(1.25,0,0,1.25,0,0)"/>
<path style="fill:none;stroke-width:1.5;stroke-linecap:butt;stroke-linejoin:round;stroke:rgb(100%,49.803922%,5.490196%);stroke-opacity:1;stroke-dasharray:5.55,2.4;stroke-miterlimit:4;" d="M 57.23125 17.3125 L 76.759375 27.734375 L 96.290625 36.75625 L 115.81875 44.771875 L 135.35 52.05 L 154.88125 58.396875 L 174.409375 64.00625 " transform="matrix(1.25,0,0,1.25,0,0)"/>
<path style="fill:none;stroke-width:1.5;stroke-linecap:square;stroke-linejoin:round;stroke:rgb(12.156863%,46.666667%,70.588235%);stroke-opacity:1;stroke-miterlimit:4;" d="M 40.140625 22.20625 L 49.90625 13.5 L 59.671875 35.99375 L 69.4375 51.115625 L 79.2 59.41875 L 88.965625 62.140625 L 98.73125 74.653125 L 108.496875 74.621875 L 118.2625 83.446875 L 128.025 91.38125 L 137.790625 98.671875 L 147.55625 99.296875 L 157.321875 107.3 L 167.0875 112.41875 L 176.85 116.984375 " transform="matrix(1.25,0,0,1.25,0,0)"/>
<path style="fill:none;stroke-width:1.5;stroke-linecap:butt;stroke-linejoin:round;stroke:rgb(100%,49.803922%,5.490196%);stroke-opacity:1;stroke-dasharray:5.55,2.4;stroke-miterlimit:4;" d="M 57.23125 17.3125 L 76.759375 27.734375 L 96.290625 36.75625 L 115.81875 44.771875 L 135.35 52.05 L 154.88125 58.396875 L 174.409375 64.00625 " transform="matrix(1.25,0,0,1.25,0,0)"/>
<path style="fill:none;stroke-width:1.5;stroke-linecap:square;stroke-linejoin:round;stroke:rgb(12.156863%,46.666667%,70.588235%);stroke-opacity:1;stroke-miterlimit:4;" d="M 40.140625 22.20625 L 49.90625 13.5 L 59.671875 35.99375 L 69.4375 51.115625 L 79.2 59.41875 L 88.965625 62.140625 L 98.73125 74.653125 L 108.496875 74.621875 L 118.2625 83.446875 L 128.025 91.38125 L 137.790625 98.671875 L 147.55625 99.296875 L 157.321875 107.3 L 167.0875 112.41875 L 176.85 116.984375 L 186.615625 122.96875 " transform="matrix(1.25,0,0,1.25,0,0)"/>
<path style="fill:none;stroke-width:1.5;stroke-linecap:butt;stroke-linejoin:round;stroke:rgb(100%,49.803922%,5.490196%);stroke-opacity:1;stroke-dasharray:5.55,2.4;stroke-miterlimit:4;" d="M 57.23125 17.3125 L 76.759375 27.734375 L 96.290625 36.75625 L 115.81875 44.771875 L 135.35 52.05 L 154.88125 58.396875 L 174.409375 64.00625 " transform="matrix(1.25,0,0,1.25,0,0)"/>
<path style="fill:none;stroke-width:1.5;stroke-linecap:square;stroke-linejoin:round;stroke:rgb(12.156863%,46.666667%,70.588235%);stroke-opacity:1;stroke-miterlimit:4;" d="M 40.140625 22.20625 L 49.90625 13.5 L 59.671875 35.99375 L 69.4375 51.115625 L 79.2 59.41875 L 88.965625 62.140625 L 98.73125 74.653125 L 108.496875 74.621875 L 118.2625 83.446875 L 128.025 91.38125 L 137.790625 98.671875 L 147.55625 99.296875 L 157.321875 107.3 L 167.0875 112.41875 L 176.85 116.984375 L 186.615625 122.96875 " transform="matrix(1.25,0,0,1.25,0,0)"/>
<path style="fill:none;stroke-width:1.5;stroke-linecap:butt;stroke-linejoin:round;stroke:rgb(100%,49.803922%,5.490196%);stroke-opacity:1;stroke-dasharray:5.55,2.4;stroke-miterlimit:4;" d="M 57.23125 17.3125 L 76.759375 27.734375 L 96.290625 36.75625 L 115.81875 44.771875 L 135.35 52.05 L 154.88125 58.396875 L 174.409375 64.00625 L 193.940625 68.7 " transform="matrix(1.25,0,0,1.25,0,0)"/>
<path style="fill:none;stroke-width:1.5;stroke-linecap:square;stroke-linejoin:round;stroke:rgb(12.156863%,46.666667%,70.588235%);stroke-opacity:1;stroke-miterlimit:4;" d="M 40.140625 22.20625 L 49.90625 13.5 L 59.671875 35.99375 L 69.4375 51.115625 L 79.2 59.41875 L 88.965625 62.140625 L 98.73125 74.653125 L 108.496875 74.621875 L 118.2625 83.446875 L 128.025 91.38125 L 137.790625 98.671875 L 147.55625 99.296875 L 157.321875 107.3 L 167.0875 112.41875 L 176.85 116.984375 L 186.615625 122.96875 L 196.38125 125.890625 " transform="matrix(1.25,0,0,1.25,0,0)"/>
<path style="fill:none;stroke-width:1.5;stroke-linecap:butt;stroke-linejoin:round;stroke:rgb(100%,49.803922%,5.490196%);stroke-opacity:1;stroke-dasharray:5.55,2.4;stroke-miterlimit:4;" d="M 57.23125 17.3125 L 76.759375 27.734375 L 96.290625 36.75625 L 115.81875 44.771875 L 135.35 52.05 L 154.88125 58.396875 L 174.409375 64.00625 L 193.940625 68.7 " transform="matrix(1.25,0,0,1.25,0,0)"/>
<path style="fill:none;stroke-width:1.5;stroke-linecap:square;stroke-linejoin:round;stroke:rgb(12.156863%,46.666667%,70.588235%);stroke-opacity:1;stroke-miterlimit:4;" d="M 40.140625 22.20625 L 49.90625 13.5 L 59.671875 35.99375 L 69.4375 51.115625 L 79.2 59.41875 L 88.965625 62.140625 L 98.73125 74.653125 L 108.496875 74.621875 L 118.2625 83.446875 L 128.025 91.38125 L 137.790625 98.671875 L 147.55625 99.296875 L 157.321875 107.3 L 167.0875 112.41875 L 176.85 116.984375 L 186.615625 122.96875 L 196.38125 125.890625 L 206.146875 132.903125 " transform="matrix(1.25,0,0,1.25,0,0)"/>
<path style="fill:none;stroke-width:1.5;stroke-linecap:butt;stroke-linejoin:round;stroke:rgb(100%,49.803922%,5.490196%);stroke-opacity:1;stroke-dasharray:5.55,2.4;stroke-miterlimit:4;" d="M 57.23125 17.3125 L 76.759375 27.734375 L 96.290625 36.75625 L 115.81875 44.771875 L 135.35 52.05 L 154.88125 58.396875 L 174.409375 64.00625 L 193.940625 68.7 " transform="matrix(1.25,0,0,1.25,0,0)"/>
<path style="fill:none;stroke-width:1.5;stroke-linecap:square;stroke-linejoin:round;stroke:rgb(12.156863%,46.666667%,70.588235%);stroke-opacity:1;stroke-miterlimit:4;" d="M 40.140625 22.20625 L 49.90625 13.5 L 59.671875 35.99375 L 69.4375 51.115625 L 79.2 59.41875 L 88.965625 62.140625 L 98.73125 74.653125 L 108.496875 74.621875 L 118.2625 83.446875 L 128.025 91.38125 L 137.790625 98.671875 L 147.55625 99.296875 L 157.321875 107.3 L 167.0875 112.41875 L 176.85 116.984375 L 186.615625 122.96875 L 196.38125 125.890625 L 206.146875 132.903125 " transform="matrix(1.25,0,0,1.25,0,0)"/>
<path style="fill:none;stroke-width:1.5;stroke-linecap:butt;stroke-linejoin:round;stroke:rgb(100%,49.803922%,5.490196%);stroke-opacity:1;stroke-dasharray:5.55,2.4;stroke-miterlimit:4;" d="M 57.23125 17.3125 L 76.759375 27.734375 L 96.290625 36.75625 L 115.81875 44.771875 L 135.35 52.05 L 154.88125 58.396875 L 174.409375 64.00625 L 193.940625 68.7 L 213.46875 72.75 " transform="matrix(1.25,0,0,1.25,0,0)"/>
<path style="fill:none;stroke-width:1.5;stroke-linecap:square;stroke-linejoin:round;stroke:rgb(12.156863%,46.666667%,70.588235%);stroke-opacity:1;stroke-miterlimit:4;" d="M 40.140625 22.20625 L 49.90625 13.5 L 59.671875 35.99375 L 69.4375 51.115625 L 79.2 59.41875 L 88.965625 62.140625 L 98.73125 74.653125 L 108.496875 74.621875 L 118.2625 83.446875 L 128.025 91.38125 L 137.790625 98.671875 L 147.55625 99.296875 L 157.321875 107.3 L 167.0875 112.41875 L 176.85 116.984375 L 186.615625 122.96875 L 196.38125 125.890625 L 206.146875 132.903125 L 215.9125 136.18125 " transform="matrix(1.25,0,0,1.25,0,0)"/>
<path style="fill:none;stroke-width:1.5;stroke-linecap:butt;stroke-linejoin:round;stroke:rgb(100%,49.803922%,5.490196%);stroke-opacity:1;stroke-dasharray:5.55,2.4;stroke-miterlimit:4;" d="M 57.23125 17.3125 L 76.759375 27.734375 L 96.290625 36.75625 L 115.81875 44.771875 L 135.35 52.05 L 154.88125 58.396875 L 174.409375 64.00625 L 193.940625 68.7 L 213.46875 72.75 " transform="matrix(1.25,0,0,1.25,0,0)"/>
<path style="fill:none;stroke-width:1.5;stroke-linecap:square;stroke-linejoin:round;stroke:rgb(12.156863%,46.666667%,70.588235%);stroke-opacity:1;stroke-miterlimit:4;" d="M 40.140625 22.20625 L 49.90625 13.5 L 59.671875 35.99375 L 69.4375 51.115625 L 79.2 59.41875 L 88.965625 62.140625 L 98.73125 74.653125 L 108.496875 74.621875 L 118.2625 83.446875 L 128.025 91.38125 L 137.790625 98.671875 L 147.55625 99.296875 L 157.321875 107.3 L 167.0875 112.41875 L 176.85 116.984375 L 186.615625 122.96875 L 196.38125 125.890625 L 206.146875 132.903125 L 215.9125 136.18125 L 225.675 139.5 " transform="matrix(1.25,0,0,1.25,0,0)"/>
<path style="fill:none;stroke-width:1.5;stroke-linecap:butt;stroke-linejoin:round;stroke:rgb(100%,49.803922%,5.490196%);stroke-opacity:1;stroke-dasharray:5.55,2.4;stroke-miterlimit:4;" d="M 57.23125 17.3125 L 76.759375 27.734375 L 96.290625 36.75625 L 115.81875 44.771875 L 135.35 52.05 L 154.88125 58.396875 L 174.409375 64.00625 L 193.940625 68.7 L 213.46875 72.75 " transform="matrix(1.25,0,0,1.25,0,0)"/>
<path style="fill:none;stroke-width:1.5;stroke-linecap:square;stroke-linejoin:round;stroke:rgb(12.156863%,46.666667%,70.588235%);stroke-opacity:1;stroke-miterlimit:4;" d="M 40.140625 22.20625 L 49.90625 13.5 L 59.671875 35.99375 L 69.4375 51.115625 L 79.2 59.41875 L 88.965625 62.140625 L 98.73125 74.653125 L 108.496875 74.621875 L 118.2625 83.446875 L 128.025 91.38125 L 137.790625 98.671875 L 147.55625 99.296875 L 157.321875 107.3 L 167.0875 112.41875 L 176.85 116.984375 L 186.615625 122.96875 L 196.38125 125.890625 L 206.146875 132.903125 L 215.9125 136.18125 L 225.675 139.5 " transform="matrix(1.25,0,0,1.25,0,0)"/>
<g clip-path="url(#clip1)" clip-rule="nonzero">
<path style="fill:none;stroke-width:1.5;stroke-linecap:butt;stroke-linejoin:round;stroke:rgb(100%,49.803922%,5.490196%);stroke-opacity:1;stroke-dasharray:5.55,2.4;stroke-miterlimit:4;" d="M 57.23125 17.3125 L 76.759375 27.734375 L 96.290625 36.75625 L 115.81875 44.771875 L 135.35 52.05 L 154.88125 58.396875 L 174.409375 64.00625 L 193.940625 68.7 L 213.46875 72.75 L 233 76.1 " transform="matrix(1.25,0,0,1.25,0,0)"/>
</g>
<path style="fill:none;stroke-width:0.8;stroke-linecap:square;stroke-linejoin:miter;stroke:rgb(0%,0%,0%);stroke-opacity:1;stroke-miterlimit:4;" d="M 37.7 145.8 L 37.7 7.2 " transform="matrix(1.25,0,0,1.25,0,0)"/>
<path style="fill:none;stroke-width:0.8;stroke-linecap:square;stroke-linejoin:miter;stroke:rgb(0%,0%,0%);stroke-opacity:1;stroke-miterlimit:4;" d="M 233 145.8 L 233 7.2 " transform="matrix(1.25,0,0,1.25,0,0)"/>
<path style="fill:none;stroke-width:0.8;stroke-linecap:square;stroke-linejoin:miter;stroke:rgb(0%,0%,0%);stroke-opacity:1;stroke-miterlimit:4;" d="M 37.7 145.8 L 233 145.8 " transform="matrix(1.25,0,0,1.25,0,0)"/>
<path style="fill:none;stroke-width:0.8;stroke-linecap:square;stroke-linejoin:miter;stroke:rgb(0%,0%,0%);stroke-opacity:1;stroke-miterlimit:4;" d="M 37.7 7.2 L 233 7.2 " transform="matrix(1.25,0,0,1.25,0,0)"/>
<use xlink:href="#surface5" mask="url(#mask0)"/>
<path style="fill:none;stroke-width:1.5;stroke-linecap:square;stroke-linejoin:round;stroke:rgb(12.156863%,46.666667%,70.588235%);stroke-opacity:1;stroke-miterlimit:4;" d="M 148.409375 20.3 L 168.409375 20.3 " transform="matrix(1.25,0,0,1.25,0,0)"/>
<path style=" stroke:none;fill-rule:nonzero;fill:rgb(0%,0%,0%);fill-opacity:1;" d="M 222.800781 20.972656 L 222.800781 22.914062 L 225.113281 22.914062 L 225.113281 23.785156 L 222.800781 23.785156 L 222.800781 27.496094 C 222.800781 28.054688 222.875 28.410156 223.03125 28.570312 C 223.179688 28.730469 223.492188 28.808594 223.960938 28.808594 L 225.113281 28.808594 L 225.113281 29.75 L 223.960938 29.75 C 223.09375 29.75 222.496094 29.585938 222.164062 29.265625 C 221.835938 28.941406 221.671875 28.351562 221.671875 27.496094 L 221.671875 23.785156 L 220.847656 23.785156 L 220.847656 22.914062 L 221.671875 22.914062 L 221.671875 20.972656 Z M 222.800781 20.972656 "/>
<path style=" stroke:none;fill-rule:nonzero;fill:rgb(0%,0%,0%);fill-opacity:1;" d="M 230.550781 23.960938 C 230.425781 23.886719 230.289062 23.835938 230.140625 23.800781 C 229.992188 23.765625 229.828125 23.75 229.648438 23.75 C 229.015625 23.75 228.527344 23.953125 228.1875 24.367188 C 227.847656 24.78125 227.675781 25.375 227.675781 26.148438 L 227.675781 29.75 L 226.546875 29.75 L 226.546875 22.914062 L 227.675781 22.914062 L 227.675781 23.976562 C 227.914062 23.558594 228.222656 23.25 228.597656 23.050781 C 228.976562 22.847656 229.4375 22.75 229.980469 22.75 C 230.054688 22.75 230.140625 22.753906 230.234375 22.765625 C 230.328125 22.773438 230.433594 22.789062 230.546875 22.808594 Z M 230.550781 23.960938 "/>
<path style=" stroke:none;fill-rule:nonzero;fill:rgb(0%,0%,0%);fill-opacity:1;" d="M 234.835938 26.3125 C 233.929688 26.3125 233.300781 26.417969 232.949219 26.625 C 232.601562 26.832031 232.425781 27.183594 232.425781 27.6875 C 232.425781 28.085938 232.554688 28.402344 232.820312 28.636719 C 233.082031 28.867188 233.4375 28.984375 233.890625 28.984375 C 234.511719 28.984375 235.011719 28.765625 235.390625 28.324219 C 235.765625 27.882812 235.953125 27.292969 235.953125 26.5625 L 235.953125 26.3125 Z M 237.078125 25.847656 L 237.078125 29.75 L 235.953125 29.75 L 235.953125 28.710938 C 235.699219 29.125 235.378906 29.429688 234.996094 29.628906 C 234.613281 29.828125 234.144531 29.925781 233.589844 29.925781 C 232.890625 29.925781 232.335938 29.730469 231.921875 29.335938 C 231.507812 28.941406 231.300781 28.417969 231.300781 27.757812 C 231.300781 26.988281 231.558594 26.410156 232.074219 26.019531 C 232.589844 25.628906 233.355469 25.433594 234.378906 25.433594 L 235.953125 25.433594 L 235.953125 25.324219 C 235.953125 24.804688 235.785156 24.40625 235.445312 24.125 C 235.105469 23.839844 234.628906 23.699219 234.011719 23.699219 C 233.621094 23.699219 233.242188 23.746094 232.871094 23.839844 C 232.5 23.933594 232.144531 24.074219 231.804688 24.261719 L 231.804688 23.222656 C 232.214844 23.0625 232.613281 22.945312 233 22.867188 C 233.386719 22.789062 233.761719 22.75 234.128906 22.75 C 235.117188 22.75 235.855469 23.003906 236.34375 23.519531 C 236.832031 24.03125 237.078125 24.804688 237.078125 25.847656 Z M 237.078125 25.847656 "/>
<path style=" stroke:none;fill-rule:nonzero;fill:rgb(0%,0%,0%);fill-opacity:1;" d="M 239.390625 22.914062 L 240.511719 22.914062 L 240.511719 29.75 L 239.390625 29.75 Z M 239.390625 20.25 L 240.511719 20.25 L 240.511719 21.675781 L 239.390625 21.675781 Z M 239.390625 20.25 "/>
<path style=" stroke:none;fill-rule:nonzero;fill:rgb(0%,0%,0%);fill-opacity:1;" d="M 248.546875 25.621094 L 248.546875 29.75 L 247.421875 29.75 L 247.421875 25.660156 C 247.421875 25.011719 247.296875 24.527344 247.042969 24.207031 C 246.792969 23.886719 246.414062 23.726562 245.910156 23.726562 C 245.300781 23.726562 244.824219 23.917969 244.472656 24.304688 C 244.125 24.691406 243.949219 25.21875 243.949219 25.886719 L 243.949219 29.75 L 242.820312 29.75 L 242.820312 22.914062 L 243.949219 22.914062 L 243.949219 23.976562 C 244.21875 23.5625 244.535156 23.257812 244.898438 23.054688 C 245.261719 22.851562 245.683594 22.75 246.160156 22.75 C 246.945312 22.75 247.539062 22.992188 247.941406 23.476562 C 248.34375 23.960938 248.546875 24.675781 248.546875 25.621094 Z M 248.546875 25.621094 "/>
<path style=" stroke:none;fill-rule:nonzero;fill:rgb(0%,0%,0%);fill-opacity:1;" d="M 255.980469 31.824219 L 255.980469 32.695312 L 249.484375 32.695312 L 249.484375 31.824219 Z M 255.980469 31.824219 "/>
<path style=" stroke:none;fill-rule:nonzero;fill:rgb(0%,0%,0%);fill-opacity:1;" d="M 257.035156 20.25 L 258.15625 20.25 L 258.15625 29.75 L 257.035156 29.75 Z M 257.035156 20.25 "/>
<path style=" stroke:none;fill-rule:nonzero;fill:rgb(0%,0%,0%);fill-opacity:1;" d="M 263.15625 23.699219 C 262.554688 23.699219 262.078125 23.933594 261.726562 24.40625 C 261.378906 24.875 261.203125 25.519531 261.203125 26.335938 C 261.203125 27.152344 261.375 27.796875 261.726562 28.269531 C 262.074219 28.738281 262.550781 28.972656 263.15625 28.972656 C 263.753906 28.972656 264.230469 28.738281 264.578125 28.265625 C 264.929688 27.792969 265.101562 27.148438 265.101562 26.335938 C 265.101562 25.527344 264.929688 24.882812 264.578125 24.410156 C 264.230469 23.9375 263.753906 23.699219 263.15625 23.699219 Z M 263.15625 22.75 C 264.132812 22.75 264.898438 23.066406 265.457031 23.703125 C 266.015625 24.335938 266.296875 25.214844 266.296875 26.335938 C 266.296875 27.453125 266.015625 28.332031 265.457031 28.972656 C 264.898438 29.609375 264.132812 29.925781 263.15625 29.925781 C 262.175781 29.925781 261.40625 29.609375 260.851562 28.972656 C 260.296875 28.332031 260.019531 27.453125 260.019531 26.335938 C 260.019531 25.214844 260.296875 24.335938 260.851562 23.703125 C 261.40625 23.066406 262.175781 22.75 263.15625 22.75 Z M 263.15625 22.75 "/>
<path style=" stroke:none;fill-rule:nonzero;fill:rgb(0%,0%,0%);fill-opacity:1;" d="M 272.511719 23.113281 L 272.511719 24.175781 C 272.195312 24.011719 271.867188 23.890625 271.523438 23.8125 C 271.183594 23.730469 270.828125 23.6875 270.460938 23.6875 C 269.90625 23.6875 269.488281 23.773438 269.207031 23.945312 C 268.929688 24.113281 268.789062 24.371094 268.789062 24.714844 C 268.789062 24.972656 268.890625 25.179688 269.089844 25.328125 C 269.289062 25.476562 269.6875 25.617188 270.292969 25.75 L 270.675781 25.835938 C 271.472656 26.007812 272.039062 26.246094 272.375 26.558594 C 272.710938 26.871094 272.878906 27.304688 272.878906 27.863281 C 272.878906 28.496094 272.628906 29 272.125 29.371094 C 271.625 29.742188 270.933594 29.925781 270.054688 29.925781 C 269.6875 29.925781 269.304688 29.890625 268.910156 29.820312 C 268.511719 29.746094 268.09375 29.640625 267.65625 29.5 L 267.65625 28.339844 C 268.070312 28.554688 268.480469 28.714844 268.882812 28.824219 C 269.285156 28.929688 269.683594 28.984375 270.078125 28.984375 C 270.609375 28.984375 271.015625 28.894531 271.296875 28.714844 C 271.582031 28.53125 271.726562 28.277344 271.726562 27.949219 C 271.726562 27.644531 271.621094 27.410156 271.417969 27.246094 C 271.210938 27.082031 270.761719 26.925781 270.066406 26.777344 L 269.675781 26.683594 C 268.980469 26.539062 268.476562 26.3125 268.167969 26.011719 C 267.859375 25.707031 267.703125 25.289062 267.703125 24.761719 C 267.703125 24.117188 267.933594 23.621094 268.386719 23.273438 C 268.84375 22.921875 269.492188 22.75 270.328125 22.75 C 270.742188 22.75 271.132812 22.777344 271.5 22.839844 C 271.867188 22.898438 272.203125 22.992188 272.511719 23.113281 Z M 272.511719 23.113281 "/>
<path style=" stroke:none;fill-rule:nonzero;fill:rgb(0%,0%,0%);fill-opacity:1;" d="M 279.023438 23.113281 L 279.023438 24.175781 C 278.710938 24.011719 278.378906 23.890625 278.039062 23.8125 C 277.695312 23.730469 277.34375 23.6875 276.976562 23.6875 C 276.417969 23.6875 276 23.773438 275.71875 23.945312 C 275.441406 24.113281 275.304688 24.371094 275.304688 24.714844 C 275.304688 24.972656 275.402344 25.179688 275.601562 25.328125 C 275.800781 25.476562 276.203125 25.617188 276.804688 25.75 L 277.1875 25.835938 C 277.984375 26.007812 278.554688 26.246094 278.890625 26.558594 C 279.226562 26.871094 279.390625 27.304688 279.390625 27.863281 C 279.390625 28.496094 279.140625 29 278.640625 29.371094 C 278.136719 29.742188 277.445312 29.925781 276.566406 29.925781 C 276.199219 29.925781 275.820312 29.890625 275.421875 29.820312 C 275.023438 29.746094 274.605469 29.640625 274.167969 29.5 L 274.167969 28.339844 C 274.582031 28.554688 274.992188 28.714844 275.394531 28.824219 C 275.796875 28.929688 276.195312 28.984375 276.59375 28.984375 C 277.121094 28.984375 277.527344 28.894531 277.8125 28.714844 C 278.09375 28.53125 278.238281 28.277344 278.238281 27.949219 C 278.238281 27.644531 278.136719 27.410156 277.929688 27.246094 C 277.726562 27.082031 277.273438 26.925781 276.578125 26.777344 L 276.1875 26.683594 C 275.492188 26.539062 274.988281 26.3125 274.679688 26.011719 C 274.371094 25.707031 274.21875 25.289062 274.21875 24.761719 C 274.21875 24.117188 274.445312 23.621094 274.898438 23.273438 C 275.355469 22.921875 276.003906 22.75 276.84375 22.75 C 277.257812 22.75 277.644531 22.777344 278.011719 22.839844 C 278.378906 22.898438 278.71875 22.992188 279.023438 23.113281 Z M 279.023438 23.113281 "/>
<path style="fill:none;stroke-width:1.5;stroke-linecap:butt;stroke-linejoin:round;stroke:rgb(100%,49.803922%,5.490196%);stroke-opacity:1;stroke-dasharray:5.55,2.4;stroke-miterlimit:4;" d="M 148.409375 35.25625 L 168.409375 35.25625 " transform="matrix(1.25,0,0,1.25,0,0)"/>
<path style=" stroke:none;fill-rule:nonzero;fill:rgb(0%,0%,0%);fill-opacity:1;" d="M 220.882812 41.609375 L 222.074219 41.609375 L 224.210938 47.34375 L 226.347656 41.609375 L 227.539062 41.609375 L 224.972656 48.445312 L 223.445312 48.445312 Z M 220.882812 41.609375 "/>
<path style=" stroke:none;fill-rule:nonzero;fill:rgb(0%,0%,0%);fill-opacity:1;" d="M 232.195312 45.007812 C 231.285156 45.007812 230.65625 45.113281 230.308594 45.320312 C 229.957031 45.527344 229.78125 45.878906 229.78125 46.382812 C 229.78125 46.78125 229.914062 47.097656 230.175781 47.332031 C 230.441406 47.5625 230.796875 47.679688 231.246094 47.679688 C 231.871094 47.679688 232.371094 47.460938 232.746094 47.019531 C 233.125 46.578125 233.3125 45.988281 233.3125 45.257812 L 233.3125 45.007812 Z M 234.433594 44.542969 L 234.433594 48.445312 L 233.3125 48.445312 L 233.3125 47.40625 C 233.054688 47.820312 232.734375 48.125 232.351562 48.324219 C 231.96875 48.523438 231.5 48.621094 230.949219 48.621094 C 230.25 48.621094 229.691406 48.425781 229.277344 48.03125 C 228.867188 47.636719 228.660156 47.113281 228.660156 46.453125 C 228.660156 45.683594 228.917969 45.105469 229.429688 44.714844 C 229.945312 44.324219 230.714844 44.128906 231.734375 44.128906 L 233.3125 44.128906 L 233.3125 44.019531 C 233.3125 43.5 233.140625 43.101562 232.800781 42.820312 C 232.460938 42.535156 231.984375 42.394531 231.371094 42.394531 C 230.980469 42.394531 230.597656 42.441406 230.226562 42.535156 C 229.859375 42.628906 229.503906 42.769531 229.160156 42.957031 L 229.160156 41.917969 C 229.570312 41.757812 229.96875 41.640625 230.355469 41.5625 C 230.742188 41.484375 231.121094 41.445312 231.484375 41.445312 C 232.476562 41.445312 233.214844 41.699219 233.703125 42.214844 C 234.191406 42.726562 234.433594 43.5 234.433594 44.542969 Z M 234.433594 44.542969 "/>
<path style=" stroke:none;fill-rule:nonzero;fill:rgb(0%,0%,0%);fill-opacity:1;" d="M 236.746094 38.945312 L 237.871094 38.945312 L 237.871094 48.445312 L 236.746094 48.445312 Z M 236.746094 38.945312 "/>
<path style=" stroke:none;fill-rule:nonzero;fill:rgb(0%,0%,0%);fill-opacity:1;" d="M 245.414062 50.519531 L 245.414062 51.390625 L 238.917969 51.390625 L 238.917969 50.519531 Z M 245.414062 50.519531 "/>
<path style=" stroke:none;fill-rule:nonzero;fill:rgb(0%,0%,0%);fill-opacity:1;" d="M 246.46875 38.945312 L 247.59375 38.945312 L 247.59375 48.445312 L 246.46875 48.445312 Z M 246.46875 38.945312 "/>
<path style=" stroke:none;fill-rule:nonzero;fill:rgb(0%,0%,0%);fill-opacity:1;" d="M 252.589844 42.394531 C 251.988281 42.394531 251.511719 42.628906 251.164062 43.101562 C 250.8125 43.570312 250.636719 44.214844 250.636719 45.03125 C 250.636719 45.847656 250.8125 46.492188 251.160156 46.964844 C 251.507812 47.433594 251.984375 47.667969 252.589844 47.667969 C 253.191406 47.667969 253.664062 47.433594 254.011719 46.960938 C 254.363281 46.488281 254.539062 45.84375 254.539062 45.03125 C 254.539062 44.222656 254.363281 43.578125 254.011719 43.105469 C 253.664062 42.632812 253.191406 42.394531 252.589844 42.394531 Z M 252.589844 41.445312 C 253.566406 41.445312 254.335938 41.761719 254.890625 42.398438 C 255.449219 43.03125 255.730469 43.910156 255.730469 45.03125 C 255.730469 46.148438 255.449219 47.027344 254.890625 47.667969 C 254.335938 48.304688 253.566406 48.621094 252.589844 48.621094 C 251.609375 48.621094 250.84375 48.304688 250.285156 47.667969 C 249.730469 47.027344 249.453125 46.148438 249.453125 45.03125 C 249.453125 43.910156 249.730469 43.03125 250.285156 42.398438 C 250.84375 41.761719 251.609375 41.445312 252.589844 41.445312 Z M 252.589844 41.445312 "/>
<path style=" stroke:none;fill-rule:nonzero;fill:rgb(0%,0%,0%);fill-opacity:1;" d="M 261.949219 41.808594 L 261.949219 42.871094 C 261.632812 42.707031 261.300781 42.585938 260.960938 42.507812 C 260.617188 42.425781 260.265625 42.382812 259.898438 42.382812 C 259.339844 42.382812 258.921875 42.46875 258.644531 42.640625 C 258.363281 42.808594 258.226562 43.066406 258.226562 43.410156 C 258.226562 43.667969 258.324219 43.875 258.523438 44.023438 C 258.722656 44.171875 259.125 44.3125 259.726562 44.445312 L 260.113281 44.53125 C 260.910156 44.703125 261.476562 44.941406 261.8125 45.253906 C 262.148438 45.566406 262.316406 46 262.316406 46.558594 C 262.316406 47.191406 262.0625 47.695312 261.5625 48.066406 C 261.058594 48.4375 260.367188 48.621094 259.488281 48.621094 C 259.121094 48.621094 258.742188 48.585938 258.34375 48.515625 C 257.945312 48.441406 257.527344 48.335938 257.089844 48.195312 L 257.089844 47.035156 C 257.503906 47.25 257.914062 47.410156 258.316406 47.519531 C 258.71875 47.625 259.117188 47.679688 259.515625 47.679688 C 260.042969 47.679688 260.449219 47.589844 260.734375 47.410156 C 261.019531 47.226562 261.160156 46.972656 261.160156 46.644531 C 261.160156 46.339844 261.058594 46.105469 260.851562 45.941406 C 260.648438 45.777344 260.195312 45.621094 259.5 45.472656 L 259.109375 45.378906 C 258.414062 45.234375 257.910156 45.007812 257.601562 44.707031 C 257.292969 44.402344 257.140625 43.984375 257.140625 43.457031 C 257.140625 42.8125 257.367188 42.316406 257.824219 41.96875 C 258.277344 41.617188 258.925781 41.445312 259.765625 41.445312 C 260.179688 41.445312 260.566406 41.472656 260.933594 41.535156 C 261.300781 41.59375 261.640625 41.6875 261.949219 41.808594 Z M 261.949219 41.808594 "/>
<path style=" stroke:none;fill-rule:nonzero;fill:rgb(0%,0%,0%);fill-opacity:1;" d="M 268.460938 41.808594 L 268.460938 42.871094 C 268.144531 42.707031 267.8125 42.585938 267.472656 42.507812 C 267.128906 42.425781 266.777344 42.382812 266.410156 42.382812 C 265.851562 42.382812 265.433594 42.46875 265.15625 42.640625 C 264.875 42.808594 264.738281 43.066406 264.738281 43.410156 C 264.738281 43.667969 264.835938 43.875 265.035156 44.023438 C 265.234375 44.171875 265.636719 44.3125 266.238281 44.445312 L 266.625 44.53125 C 267.421875 44.703125 267.988281 44.941406 268.324219 45.253906 C 268.660156 45.566406 268.828125 46 268.828125 46.558594 C 268.828125 47.191406 268.574219 47.695312 268.074219 48.066406 C 267.570312 48.4375 266.878906 48.621094 266 48.621094 C 265.636719 48.621094 265.253906 48.585938 264.855469 48.515625 C 264.460938 48.441406 264.042969 48.335938 263.601562 48.195312 L 263.601562 47.035156 C 264.019531 47.25 264.425781 47.410156 264.828125 47.519531 C 265.230469 47.625 265.628906 47.679688 266.027344 47.679688 C 266.554688 47.679688 266.960938 47.589844 267.246094 47.410156 C 267.53125 47.226562 267.671875 46.972656 267.671875 46.644531 C 267.671875 46.339844 267.570312 46.105469 267.363281 45.941406 C 267.160156 45.777344 266.710938 45.621094 266.011719 45.472656 L 265.621094 45.378906 C 264.925781 45.234375 264.425781 45.007812 264.113281 44.707031 C 263.804688 44.402344 263.652344 43.984375 263.652344 43.457031 C 263.652344 42.8125 263.878906 42.316406 264.335938 41.96875 C 264.789062 41.617188 265.4375 41.445312 266.277344 41.445312 C 266.691406 41.445312 267.082031 41.472656 267.445312 41.535156 C 267.8125 41.59375 268.152344 41.6875 268.460938 41.808594 Z M 268.460938 41.808594 "/>
</g>
</svg>
