<?xml version="1.0" encoding="UTF-8"?>
<svg xmlns="http://www.w3.org/2000/svg" xmlns:xlink="http://www.w3.org/1999/xlink" width="444pt" height="140pt" viewBox="0 0 444 140" version="1.1">
<g id="surface1">
<path style="fill:none;stroke-width:1;stroke-linecap:round;stroke-linejoin:round;stroke:rgb(0%,0%,0%);stroke-opacity:1;stroke-miterlimit:10;" d="M 894.903125 632.828125 L 894.903125 629.21875 M 894.903125 618.21875 L 894.903125 615.9 " transform="matrix(1.25,0,0,1.25,-705,-670)"/>
<path style="fill:none;stroke-width:1;stroke-linecap:butt;stroke-linejoin:miter;stroke:rgb(0%,0%,0%);stroke-opacity:1;stroke-miterlimit:10;" d="M 894.903125 611.9 L 894.903125 615.9 M 893.403125 615.9 L 894.903125 611.9 L 896.403125 615.9 " transform="matrix(1.25,0,0,1.25,-705,-670)"/>
<path style="fill:none;stroke-width:1;stroke-linecap:round;stroke-linejoin:round;stroke:rgb(0%,0%,0%);stroke-opacity:1;stroke-miterlimit:10;" d="M 851.7625 632.828125 L 851.7625 629.434375 M 851.7625 618.39375 L 851.7625 615.9 " transform="matrix(1.25,0,0,1.25,-705,-670)"/>
<path style="fill:none;stroke-width:1;stroke-linecap:butt;stroke-linejoin:miter;stroke:rgb(0%,0%,0%);stroke-opacity:1;stroke-miterlimit:10;" d="M 851.7625 611.9 L 851.7625 615.9 M 850.2625 615.9 L 851.7625 611.9 L 853.2625 615.9 " transform="matrix(1.25,0,0,1.25,-705,-670)"/>
<path style="fill:none;stroke-width:1;stroke-linecap:round;stroke-linejoin:round;stroke:rgb(0%,0%,0%);stroke-opacity:1;stroke-miterlimit:10;" d="M 810.190625 632.828125 L 810.190625 629.6 M 810.190625 618.6 L 810.190625 615.9 " transform="matrix(1.25,0,0,1.25,-705,-670)"/>
<path style="fill:none;stroke-width:1;stroke-linecap:butt;stroke-linejoin:miter;stroke:rgb(0%,0%,0%);stroke-opacity:1;stroke-miterlimit:10;" d="M 810.190625 611.9 L 810.190625 615.9 M 808.690625 615.9 L 810.190625 611.9 L 811.690625 615.9 " transform="matrix(1.25,0,0,1.25,-705,-670)"/>
<path style="fill:none;stroke-width:1;stroke-linecap:round;stroke-linejoin:round;stroke:rgb(0%,0%,0%);stroke-opacity:1;stroke-miterlimit:10;" d="M 767.5625 632.828125 L 767.534375 629.840625 M 767.44375 618.8375 L 767.425 616.50625 " transform="matrix(1.25,0,0,1.25,-705,-670)"/>
<path style="fill:none;stroke-width:1;stroke-linecap:butt;stroke-linejoin:miter;stroke:rgb(0%,0%,0%);stroke-opacity:1;stroke-miterlimit:10;" d="M 767.39375 612.50625 L 767.425 616.50625 M 765.925 616.51875 L 767.39375 612.50625 L 768.925 616.496875 " transform="matrix(1.25,0,0,1.25,-705,-670)"/>
<path style="fill:none;stroke-width:1;stroke-linecap:round;stroke-linejoin:round;stroke:rgb(0%,0%,0%);stroke-opacity:1;stroke-miterlimit:10;" d="M 738.08125 601.075 L 745.4125 601.11875 C 748.715625 601.1375 751.378125 603.815625 751.378125 607.11875 L 751.378125 618.31875 C 751.378125 621.628125 754.059375 624.3125 757.36875 624.31875 L 773.36875 624.35625 C 776.68125 624.3625 779.371875 621.684375 779.378125 618.36875 C 779.378125 618.3625 779.378125 618.359375 779.378125 618.35625 L 779.378125 616.26875 " transform="matrix(1.25,0,0,1.25,-705,-670)"/>
<path style="fill:none;stroke-width:1;stroke-linecap:butt;stroke-linejoin:miter;stroke:rgb(0%,0%,0%);stroke-opacity:1;stroke-miterlimit:10;" d="M 779.378125 612.26875 L 779.378125 616.26875 M 777.878125 616.26875 L 779.378125 612.26875 L 780.878125 616.26875 " transform="matrix(1.25,0,0,1.25,-705,-670)"/>
<path style="fill-rule:nonzero;fill:rgb(69.803922%,85.098039%,100%);fill-opacity:1;stroke-width:1;stroke-linecap:round;stroke-linejoin:round;stroke:rgb(0%,0%,0%);stroke-opacity:1;stroke-miterlimit:10;" d="M 566.878125 592 L 590.878125 592 L 590.878125 610 L 566.878125 610 Z M 566.878125 592 " transform="matrix(1.25,0,0,1.25,-705,-670)"/>
<path style=" stroke:none;fill-rule:nonzero;fill:rgb(0%,0%,0%);fill-opacity:1;" d="M 9.160156 117.695312 L 9.160156 110.585938 L 6.523438 110.585938 L 6.523438 109.648438 L 12.890625 109.648438 L 12.890625 110.585938 L 10.234375 110.585938 L 10.234375 117.695312 Z M 9.160156 117.695312 "/>
<path style=" stroke:none;fill-rule:nonzero;fill:rgb(0%,0%,0%);fill-opacity:1;" d="M 13.863281 117.695312 L 13.863281 109.648438 L 14.859375 109.648438 L 14.859375 112.539062 C 15.3125 112.007812 15.894531 111.738281 16.597656 111.738281 C 17.027344 111.738281 17.398438 111.824219 17.710938 111.992188 C 18.035156 112.164062 18.261719 112.398438 18.394531 112.695312 C 18.535156 112.996094 18.609375 113.433594 18.609375 114.003906 L 18.609375 117.695312 L 17.632812 117.695312 L 17.632812 114.003906 C 17.632812 113.511719 17.519531 113.152344 17.300781 112.929688 C 17.089844 112.695312 16.792969 112.578125 16.402344 112.578125 C 16.101562 112.578125 15.820312 112.65625 15.5625 112.8125 C 15.300781 112.957031 15.117188 113.160156 15.015625 113.417969 C 14.910156 113.679688 14.859375 114.042969 14.859375 114.511719 L 14.859375 117.695312 Z M 13.863281 117.695312 "/>
<path style=" stroke:none;fill-rule:nonzero;fill:rgb(0%,0%,0%);fill-opacity:1;" d="M 24.101562 115.820312 L 25.136719 115.9375 C 24.964844 116.539062 24.65625 117.007812 24.21875 117.34375 C 23.789062 117.671875 23.230469 117.832031 22.558594 117.832031 C 21.707031 117.832031 21.035156 117.574219 20.527344 117.050781 C 20.027344 116.519531 19.785156 115.777344 19.785156 114.824219 C 19.785156 113.847656 20.039062 113.09375 20.546875 112.558594 C 21.054688 112.011719 21.707031 111.738281 22.519531 111.738281 C 23.300781 111.738281 23.929688 112.007812 24.414062 112.539062 C 24.90625 113.0625 25.15625 113.804688 25.15625 114.765625 C 25.15625 114.832031 25.15625 114.921875 25.15625 115.039062 L 20.800781 115.039062 C 20.839844 115.679688 21.019531 116.167969 21.347656 116.503906 C 21.667969 116.84375 22.078125 117.011719 22.578125 117.011719 C 22.9375 117.011719 23.246094 116.921875 23.496094 116.738281 C 23.753906 116.542969 23.953125 116.238281 24.101562 115.820312 Z M 20.859375 114.21875 L 24.121094 114.21875 C 24.082031 113.726562 23.953125 113.355469 23.75 113.105469 C 23.4375 112.730469 23.027344 112.539062 22.519531 112.539062 C 22.058594 112.539062 21.679688 112.695312 21.367188 113.007812 C 21.0625 113.308594 20.898438 113.710938 20.859375 114.21875 Z M 20.859375 114.21875 "/>
<path style=" stroke:none;fill-rule:nonzero;fill:rgb(0%,0%,0%);fill-opacity:1;" d="M 26.332031 119.941406 L 26.214844 119.023438 C 26.433594 119.070312 26.625 119.101562 26.78125 119.101562 C 27 119.101562 27.175781 119.0625 27.308594 118.984375 C 27.433594 118.914062 27.546875 118.816406 27.640625 118.691406 C 27.6875 118.582031 27.785156 118.339844 27.933594 117.949219 C 27.957031 117.894531 27.992188 117.816406 28.03125 117.714844 L 25.804688 111.855469 L 26.878906 111.855469 L 28.089844 115.234375 C 28.246094 115.664062 28.386719 116.113281 28.519531 116.582031 C 28.621094 116.140625 28.753906 115.699219 28.910156 115.253906 L 30.160156 111.855469 L 31.15625 111.855469 L 28.929688 117.792969 C 28.695312 118.425781 28.507812 118.871094 28.382812 119.121094 C 28.195312 119.441406 27.996094 119.675781 27.777344 119.824219 C 27.550781 119.980469 27.277344 120.058594 26.957031 120.058594 C 26.769531 120.058594 26.566406 120.019531 26.332031 119.941406 Z M 26.332031 119.941406 "/>
<path style="fill-rule:nonzero;fill:rgb(69.803922%,85.098039%,100%);fill-opacity:1;stroke-width:1;stroke-linecap:round;stroke-linejoin:round;stroke:rgb(0%,0%,0%);stroke-opacity:1;stroke-miterlimit:10;" d="M 603.7375 592 L 627.7375 592 L 627.7375 610 L 603.7375 610 Z M 603.7375 592 " transform="matrix(1.25,0,0,1.25,-705,-670)"/>
<path style="fill:none;stroke-width:1;stroke-linecap:round;stroke-linejoin:round;stroke:rgb(0%,0%,0%);stroke-opacity:1;stroke-miterlimit:10;" d="M 590.878125 601 L 597.8375 601 " transform="matrix(1.25,0,0,1.25,-705,-670)"/>
<path style="fill:none;stroke-width:1;stroke-linecap:butt;stroke-linejoin:miter;stroke:rgb(0%,0%,0%);stroke-opacity:1;stroke-miterlimit:10;" d="M 601.8375 601 L 597.8375 601 M 597.8375 599.5 L 601.8375 601 L 597.8375 602.5 " transform="matrix(1.25,0,0,1.25,-705,-670)"/>
<path style="fill:none;stroke-width:1;stroke-linecap:round;stroke-linejoin:round;stroke:rgb(0%,0%,0%);stroke-opacity:1;stroke-miterlimit:10;" d="M 578.96875 620.15625 L 578.95 615.9 " transform="matrix(1.25,0,0,1.25,-705,-670)"/>
<path style="fill:none;stroke-width:1;stroke-linecap:butt;stroke-linejoin:miter;stroke:rgb(0%,0%,0%);stroke-opacity:1;stroke-miterlimit:10;" d="M 578.93125 611.9 L 578.95 615.9 M 577.45 615.90625 L 578.93125 611.9 L 580.45 615.89375 " transform="matrix(1.25,0,0,1.25,-705,-670)"/>
<path style="fill-rule:nonzero;fill:rgb(69.803922%,85.098039%,100%);fill-opacity:1;stroke-width:1;stroke-linecap:round;stroke-linejoin:round;stroke:rgb(0%,0%,0%);stroke-opacity:1;stroke-miterlimit:10;" d="M 640.13125 592 L 664.13125 592 L 664.13125 610 L 640.13125 610 Z M 640.13125 592 " transform="matrix(1.25,0,0,1.25,-705,-670)"/>
<path style="fill-rule:nonzero;fill:rgb(69.803922%,85.098039%,100%);fill-opacity:1;stroke-width:1;stroke-linecap:round;stroke-linejoin:round;stroke:rgb(0%,0%,0%);stroke-opacity:1;stroke-miterlimit:10;" d="M 676.278125 592 L 700.278125 592 L 700.278125 610 L 676.278125 610 Z M 676.278125 592 " transform="matrix(1.25,0,0,1.25,-705,-670)"/>
<path style="fill-rule:nonzero;fill:rgb(69.803922%,85.098039%,100%);fill-opacity:1;stroke-width:1;stroke-linecap:round;stroke-linejoin:round;stroke:rgb(0%,0%,0%);stroke-opacity:1;stroke-miterlimit:10;" d="M 714.08125 592 L 738.08125 592 L 738.08125 610 L 714.08125 610 Z M 714.08125 592 " transform="matrix(1.25,0,0,1.25,-705,-670)"/>
<path style=" stroke:none;fill-rule:nonzero;fill:rgb(0%,0%,0%);fill-opacity:1;" d="M 61.25 116.972656 C 60.882812 117.285156 60.53125 117.507812 60.195312 117.636719 C 59.851562 117.761719 59.492188 117.832031 59.101562 117.832031 C 58.460938 117.832031 57.96875 117.675781 57.617188 117.363281 C 57.273438 117.050781 57.109375 116.648438 57.109375 116.152344 C 57.109375 115.867188 57.171875 115.605469 57.304688 115.371094 C 57.429688 115.136719 57.601562 114.949219 57.8125 114.804688 C 58.015625 114.664062 58.25 114.550781 58.515625 114.472656 C 58.710938 114.433594 59.003906 114.390625 59.394531 114.335938 C 60.199219 114.246094 60.789062 114.128906 61.171875 113.984375 C 61.171875 113.855469 61.171875 113.769531 61.171875 113.730469 C 61.171875 113.328125 61.078125 113.046875 60.898438 112.890625 C 60.632812 112.65625 60.257812 112.539062 59.765625 112.539062 C 59.296875 112.539062 58.949219 112.625 58.730469 112.792969 C 58.503906 112.949219 58.34375 113.238281 58.242188 113.652344 L 57.285156 113.535156 C 57.363281 113.121094 57.5 112.789062 57.695312 112.539062 C 57.898438 112.28125 58.191406 112.085938 58.574219 111.953125 C 58.964844 111.8125 59.402344 111.738281 59.902344 111.738281 C 60.410156 111.738281 60.808594 111.796875 61.113281 111.914062 C 61.425781 112.03125 61.648438 112.183594 61.796875 112.363281 C 61.953125 112.535156 62.054688 112.753906 62.109375 113.027344 C 62.148438 113.199219 62.167969 113.496094 62.167969 113.925781 L 62.167969 115.253906 C 62.167969 116.167969 62.1875 116.746094 62.226562 116.992188 C 62.265625 117.242188 62.347656 117.476562 62.480469 117.695312 L 61.445312 117.695312 C 61.335938 117.488281 61.273438 117.246094 61.25 116.972656 Z M 61.171875 114.765625 C 60.804688 114.910156 60.261719 115.035156 59.550781 115.136719 C 59.144531 115.203125 58.855469 115.273438 58.691406 115.351562 C 58.519531 115.417969 58.386719 115.523438 58.300781 115.664062 C 58.207031 115.808594 58.164062 115.964844 58.164062 116.132812 C 58.164062 116.394531 58.261719 116.617188 58.457031 116.796875 C 58.652344 116.96875 58.945312 117.050781 59.335938 117.050781 C 59.710938 117.050781 60.046875 116.96875 60.351562 116.796875 C 60.648438 116.628906 60.867188 116.402344 61.015625 116.113281 C 61.117188 115.894531 61.171875 115.566406 61.171875 115.136719 Z M 61.171875 114.765625 "/>
<path style=" stroke:none;fill-rule:nonzero;fill:rgb(0%,0%,0%);fill-opacity:1;" d="M 63.679688 117.695312 L 63.679688 111.855469 L 64.578125 111.855469 L 64.578125 112.753906 C 64.796875 112.339844 65.007812 112.066406 65.203125 111.933594 C 65.398438 111.804688 65.613281 111.738281 65.847656 111.738281 C 66.167969 111.738281 66.511719 111.84375 66.863281 112.050781 L 66.511719 112.96875 C 66.277344 112.828125 66.03125 112.753906 65.789062 112.753906 C 65.578125 112.753906 65.382812 112.820312 65.203125 112.949219 C 65.03125 113.082031 64.910156 113.261719 64.832031 113.496094 C 64.722656 113.847656 64.675781 114.234375 64.675781 114.648438 L 64.675781 117.695312 Z M 63.679688 117.695312 "/>
<path style=" stroke:none;fill-rule:nonzero;fill:rgb(0%,0%,0%);fill-opacity:1;" d="M 71.429688 115.820312 L 72.464844 115.9375 C 72.292969 116.539062 71.984375 117.007812 71.546875 117.34375 C 71.117188 117.671875 70.558594 117.832031 69.886719 117.832031 C 69.035156 117.832031 68.363281 117.574219 67.855469 117.050781 C 67.355469 116.519531 67.113281 115.777344 67.113281 114.824219 C 67.113281 113.847656 67.367188 113.09375 67.875 112.558594 C 68.382812 112.011719 69.035156 111.738281 69.847656 111.738281 C 70.628906 111.738281 71.257812 112.007812 71.742188 112.539062 C 72.234375 113.0625 72.484375 113.804688 72.484375 114.765625 C 72.484375 114.832031 72.484375 114.921875 72.484375 115.039062 L 68.128906 115.039062 C 68.167969 115.679688 68.347656 116.167969 68.675781 116.503906 C 68.996094 116.84375 69.40625 117.011719 69.90625 117.011719 C 70.265625 117.011719 70.574219 116.921875 70.824219 116.738281 C 71.082031 116.542969 71.28125 116.238281 71.429688 115.820312 Z M 68.1875 114.21875 L 71.449219 114.21875 C 71.410156 113.726562 71.28125 113.355469 71.078125 113.105469 C 70.765625 112.730469 70.355469 112.539062 69.847656 112.539062 C 69.386719 112.539062 69.007812 112.695312 68.695312 113.007812 C 68.390625 113.308594 68.226562 113.710938 68.1875 114.21875 Z M 68.1875 114.21875 "/>
<path style=" stroke:none;fill-rule:nonzero;fill:rgb(0%,0%,0%);fill-opacity:1;" d="M 89.9375 117.695312 L 88.160156 111.855469 L 89.175781 111.855469 L 90.113281 115.234375 L 90.445312 116.484375 C 90.453125 116.421875 90.5625 116.015625 90.757812 115.273438 L 91.675781 111.855469 L 92.691406 111.855469 L 93.570312 115.253906 L 93.863281 116.367188 L 94.195312 115.234375 L 95.191406 111.855469 L 96.148438 111.855469 L 94.332031 117.695312 L 93.316406 117.695312 L 92.378906 114.199219 L 92.144531 113.203125 L 90.972656 117.695312 Z M 89.9375 117.695312 "/>
<path style=" stroke:none;fill-rule:nonzero;fill:rgb(0%,0%,0%);fill-opacity:1;" d="M 100.792969 116.972656 C 100.429688 117.285156 100.078125 117.507812 99.738281 117.636719 C 99.398438 117.761719 99.035156 117.832031 98.644531 117.832031 C 98.007812 117.832031 97.511719 117.675781 97.160156 117.363281 C 96.820312 117.050781 96.652344 116.648438 96.652344 116.152344 C 96.652344 115.867188 96.71875 115.605469 96.847656 115.371094 C 96.976562 115.136719 97.148438 114.949219 97.355469 114.804688 C 97.5625 114.664062 97.796875 114.550781 98.058594 114.472656 C 98.253906 114.433594 98.546875 114.390625 98.9375 114.335938 C 99.746094 114.246094 100.335938 114.128906 100.714844 113.984375 C 100.714844 113.855469 100.714844 113.769531 100.714844 113.730469 C 100.714844 113.328125 100.625 113.046875 100.441406 112.890625 C 100.179688 112.65625 99.804688 112.539062 99.308594 112.539062 C 98.839844 112.539062 98.496094 112.625 98.273438 112.792969 C 98.050781 112.949219 97.890625 113.238281 97.785156 113.652344 L 96.828125 113.535156 C 96.90625 113.121094 97.042969 112.789062 97.238281 112.539062 C 97.445312 112.28125 97.738281 112.085938 98.117188 111.953125 C 98.507812 111.8125 98.949219 111.738281 99.445312 111.738281 C 99.953125 111.738281 100.355469 111.796875 100.65625 111.914062 C 100.96875 112.03125 101.195312 112.183594 101.339844 112.363281 C 101.496094 112.535156 101.601562 112.753906 101.652344 113.027344 C 101.691406 113.199219 101.710938 113.496094 101.710938 113.925781 L 101.710938 115.253906 C 101.710938 116.167969 101.730469 116.746094 101.769531 116.992188 C 101.808594 117.242188 101.894531 117.476562 102.023438 117.695312 L 100.988281 117.695312 C 100.882812 117.488281 100.820312 117.246094 100.792969 116.972656 Z M 100.714844 114.765625 C 100.351562 114.910156 99.808594 115.035156 99.09375 115.136719 C 98.691406 115.203125 98.402344 115.273438 98.234375 115.351562 C 98.066406 115.417969 97.933594 115.523438 97.84375 115.664062 C 97.753906 115.808594 97.707031 115.964844 97.707031 116.132812 C 97.707031 116.394531 97.804688 116.617188 98 116.796875 C 98.195312 116.96875 98.488281 117.050781 98.878906 117.050781 C 99.257812 117.050781 99.59375 116.96875 99.894531 116.796875 C 100.195312 116.628906 100.414062 116.402344 100.558594 116.113281 C 100.664062 115.894531 100.714844 115.566406 100.714844 115.136719 Z M 100.714844 114.765625 "/>
<path style=" stroke:none;fill-rule:nonzero;fill:rgb(0%,0%,0%);fill-opacity:1;" d="M 105.410156 116.816406 L 105.546875 117.675781 C 105.261719 117.738281 105.011719 117.773438 104.804688 117.773438 C 104.441406 117.773438 104.160156 117.714844 103.964844 117.597656 C 103.769531 117.480469 103.625 117.332031 103.535156 117.148438 C 103.457031 116.96875 103.417969 116.582031 103.417969 115.996094 L 103.417969 112.636719 L 102.695312 112.636719 L 102.695312 111.855469 L 103.417969 111.855469 L 103.417969 110.410156 L 104.414062 109.824219 L 104.414062 111.855469 L 105.410156 111.855469 L 105.410156 112.636719 L 104.414062 112.636719 L 104.414062 116.035156 C 104.414062 116.324219 104.425781 116.503906 104.453125 116.582031 C 104.492188 116.660156 104.550781 116.726562 104.628906 116.777344 C 104.707031 116.832031 104.816406 116.855469 104.960938 116.855469 C 105.078125 116.855469 105.226562 116.84375 105.410156 116.816406 Z M 105.410156 116.816406 "/>
<path style=" stroke:none;fill-rule:nonzero;fill:rgb(0%,0%,0%);fill-opacity:1;" d="M 110.175781 115.566406 L 111.152344 115.683594 C 111.046875 116.363281 110.773438 116.890625 110.332031 117.265625 C 109.890625 117.644531 109.347656 117.832031 108.710938 117.832031 C 107.917969 117.832031 107.277344 117.574219 106.796875 117.050781 C 106.316406 116.53125 106.074219 115.78125 106.074219 114.804688 C 106.074219 114.167969 106.179688 113.613281 106.386719 113.144531 C 106.59375 112.675781 106.90625 112.324219 107.324219 112.089844 C 107.753906 111.855469 108.222656 111.738281 108.730469 111.738281 C 109.355469 111.738281 109.871094 111.902344 110.273438 112.226562 C 110.675781 112.539062 110.9375 112.988281 111.054688 113.574219 L 110.097656 113.730469 C 110.007812 113.339844 109.84375 113.046875 109.609375 112.851562 C 109.375 112.644531 109.09375 112.539062 108.769531 112.539062 C 108.261719 112.539062 107.851562 112.722656 107.539062 113.085938 C 107.238281 113.4375 107.089844 114 107.089844 114.765625 C 107.089844 115.5625 107.238281 116.132812 107.539062 116.484375 C 107.839844 116.835938 108.230469 117.011719 108.710938 117.011719 C 109.101562 117.011719 109.425781 116.894531 109.6875 116.660156 C 109.949219 116.425781 110.109375 116.0625 110.175781 115.566406 Z M 110.175781 115.566406 "/>
<path style=" stroke:none;fill-rule:nonzero;fill:rgb(0%,0%,0%);fill-opacity:1;" d="M 111.992188 117.695312 L 111.992188 109.648438 L 112.988281 109.648438 L 112.988281 112.539062 C 113.445312 112.007812 114.023438 111.738281 114.726562 111.738281 C 115.15625 111.738281 115.527344 111.824219 115.839844 111.992188 C 116.164062 112.164062 116.394531 112.398438 116.523438 112.695312 C 116.667969 112.996094 116.738281 113.433594 116.738281 114.003906 L 116.738281 117.695312 L 115.761719 117.695312 L 115.761719 114.003906 C 115.761719 113.511719 115.652344 113.152344 115.429688 112.929688 C 115.222656 112.695312 114.921875 112.578125 114.53125 112.578125 C 114.230469 112.578125 113.953125 112.65625 113.691406 112.8125 C 113.429688 112.957031 113.25 113.160156 113.144531 113.417969 C 113.039062 113.679688 112.988281 114.042969 112.988281 114.511719 L 112.988281 117.695312 Z M 111.992188 117.695312 "/>
<path style=" stroke:none;fill-rule:nonzero;fill:rgb(0%,0%,0%);fill-opacity:1;" d="M 118.25 110.78125 L 118.25 109.648438 L 119.246094 109.648438 L 119.246094 110.78125 Z M 118.25 117.695312 L 118.25 111.855469 L 119.246094 111.855469 L 119.246094 117.695312 Z M 118.25 117.695312 "/>
<path style=" stroke:none;fill-rule:nonzero;fill:rgb(0%,0%,0%);fill-opacity:1;" d="M 120.75 117.695312 L 120.75 111.855469 L 121.648438 111.855469 L 121.648438 112.695312 C 122.0625 112.058594 122.683594 111.738281 123.503906 111.738281 C 123.855469 111.738281 124.171875 111.804688 124.460938 111.933594 C 124.757812 112.050781 124.980469 112.214844 125.125 112.421875 C 125.265625 112.617188 125.371094 112.859375 125.4375 113.144531 C 125.476562 113.328125 125.496094 113.648438 125.496094 114.101562 L 125.496094 117.695312 L 124.5 117.695312 L 124.5 114.140625 C 124.5 113.738281 124.460938 113.4375 124.382812 113.242188 C 124.304688 113.046875 124.167969 112.890625 123.972656 112.773438 C 123.777344 112.644531 123.546875 112.578125 123.289062 112.578125 C 122.871094 112.578125 122.507812 112.714844 122.195312 112.988281 C 121.894531 113.25 121.746094 113.757812 121.746094 114.511719 L 121.746094 117.695312 Z M 120.75 117.695312 "/>
<path style=" stroke:none;fill-rule:nonzero;fill:rgb(0%,0%,0%);fill-opacity:1;" d="M 126.832031 118.183594 L 127.789062 118.320312 C 127.828125 118.617188 127.9375 118.832031 128.121094 118.964844 C 128.367188 119.144531 128.707031 119.238281 129.136719 119.238281 C 129.589844 119.238281 129.941406 119.144531 130.191406 118.964844 C 130.4375 118.777344 130.605469 118.523438 130.699219 118.203125 C 130.75 117.992188 130.769531 117.574219 130.757812 116.933594 C 130.328125 117.441406 129.792969 117.695312 129.15625 117.695312 C 128.347656 117.695312 127.722656 117.410156 127.28125 116.835938 C 126.851562 116.25 126.636719 115.554688 126.636719 114.746094 C 126.636719 114.1875 126.734375 113.671875 126.929688 113.203125 C 127.136719 112.734375 127.429688 112.378906 127.808594 112.128906 C 128.183594 111.871094 128.632812 111.738281 129.15625 111.738281 C 129.84375 111.738281 130.410156 112.011719 130.855469 112.558594 L 130.855469 111.855469 L 131.773438 111.855469 L 131.773438 116.894531 C 131.773438 117.800781 131.675781 118.445312 131.480469 118.828125 C 131.296875 119.203125 131.003906 119.5 130.601562 119.726562 C 130.210938 119.945312 129.722656 120.058594 129.136719 120.058594 C 128.433594 120.058594 127.867188 119.902344 127.4375 119.589844 C 127.019531 119.277344 126.816406 118.808594 126.832031 118.183594 Z M 127.652344 114.667969 C 127.652344 115.4375 127.800781 115.996094 128.101562 116.347656 C 128.398438 116.699219 128.777344 116.875 129.234375 116.875 C 129.6875 116.875 130.074219 116.699219 130.386719 116.347656 C 130.699219 115.996094 130.855469 115.449219 130.855469 114.707031 C 130.855469 113.992188 130.691406 113.453125 130.367188 113.085938 C 130.054688 112.722656 129.675781 112.539062 129.234375 112.539062 C 128.789062 112.539062 128.414062 112.722656 128.101562 113.085938 C 127.800781 113.4375 127.652344 113.964844 127.652344 114.667969 Z M 127.652344 114.667969 "/>
<path style=" stroke:none;fill-rule:nonzero;fill:rgb(0%,0%,0%);fill-opacity:1;" d="M 154.957031 117.695312 L 154.957031 116.5625 L 156.089844 116.5625 L 156.089844 117.695312 Z M 154.957031 117.695312 "/>
<path style=" stroke:none;fill-rule:nonzero;fill:rgb(0%,0%,0%);fill-opacity:1;" d="M 187.746094 114.179688 L 187.746094 113.242188 L 193.078125 110.996094 L 193.078125 111.972656 L 188.839844 113.710938 L 193.078125 115.46875 L 193.078125 116.445312 Z M 187.746094 114.179688 "/>
<path style=" stroke:none;fill-rule:nonzero;fill:rgb(0%,0%,0%);fill-opacity:1;" d="M 198.417969 115.820312 L 199.453125 115.9375 C 199.28125 116.539062 198.972656 117.007812 198.535156 117.34375 C 198.105469 117.671875 197.546875 117.832031 196.875 117.832031 C 196.023438 117.832031 195.351562 117.574219 194.84375 117.050781 C 194.34375 116.519531 194.101562 115.777344 194.101562 114.824219 C 194.101562 113.847656 194.355469 113.09375 194.863281 112.558594 C 195.371094 112.011719 196.023438 111.738281 196.835938 111.738281 C 197.617188 111.738281 198.246094 112.007812 198.730469 112.539062 C 199.222656 113.0625 199.472656 113.804688 199.472656 114.765625 C 199.472656 114.832031 199.472656 114.921875 199.472656 115.039062 L 195.117188 115.039062 C 195.15625 115.679688 195.335938 116.167969 195.664062 116.503906 C 195.984375 116.84375 196.394531 117.011719 196.894531 117.011719 C 197.253906 117.011719 197.5625 116.921875 197.8125 116.738281 C 198.070312 116.542969 198.269531 116.238281 198.417969 115.820312 Z M 195.175781 114.21875 L 198.4375 114.21875 C 198.398438 113.726562 198.269531 113.355469 198.066406 113.105469 C 197.753906 112.730469 197.34375 112.539062 196.835938 112.539062 C 196.375 112.539062 195.996094 112.695312 195.683594 113.007812 C 195.378906 113.308594 195.214844 113.710938 195.175781 114.21875 Z M 195.175781 114.21875 "/>
<path style=" stroke:none;fill-rule:nonzero;fill:rgb(0%,0%,0%);fill-opacity:1;" d="M 200.320312 114.785156 C 200.320312 113.707031 200.617188 112.90625 201.21875 112.382812 C 201.726562 111.953125 202.335938 111.738281 203.054688 111.738281 C 203.859375 111.738281 204.519531 112 205.027344 112.519531 C 205.535156 113.042969 205.789062 113.765625 205.789062 114.6875 C 205.789062 115.445312 205.671875 116.035156 205.4375 116.464844 C 205.210938 116.894531 204.890625 117.234375 204.460938 117.480469 C 204.03125 117.714844 203.5625 117.832031 203.054688 117.832031 C 202.234375 117.832031 201.570312 117.574219 201.0625 117.050781 C 200.5625 116.519531 200.320312 115.761719 200.320312 114.785156 Z M 201.335938 114.785156 C 201.335938 115.527344 201.496094 116.089844 201.824219 116.464844 C 202.144531 116.832031 202.554688 117.011719 203.054688 117.011719 C 203.546875 117.011719 203.957031 116.832031 204.285156 116.464844 C 204.605469 116.089844 204.773438 115.515625 204.773438 114.746094 C 204.773438 114.03125 204.605469 113.484375 204.285156 113.105469 C 203.957031 112.730469 203.546875 112.539062 203.054688 112.539062 C 202.554688 112.539062 202.144531 112.730469 201.824219 113.105469 C 201.496094 113.472656 201.335938 114.03125 201.335938 114.785156 Z M 201.335938 114.785156 "/>
<path style=" stroke:none;fill-rule:nonzero;fill:rgb(0%,0%,0%);fill-opacity:1;" d="M 206.554688 115.957031 L 207.53125 115.800781 C 207.582031 116.191406 207.734375 116.492188 207.980469 116.699219 C 208.242188 116.910156 208.59375 117.011719 209.035156 117.011719 C 209.492188 117.011719 209.828125 116.921875 210.050781 116.738281 C 210.273438 116.558594 210.382812 116.34375 210.382812 116.09375 C 210.382812 115.859375 210.285156 115.683594 210.089844 115.566406 C 209.945312 115.476562 209.609375 115.359375 209.074219 115.214844 C 208.34375 115.035156 207.835938 114.878906 207.550781 114.746094 C 207.277344 114.617188 207.070312 114.433594 206.925781 114.199219 C 206.78125 113.964844 206.710938 113.707031 206.710938 113.417969 C 206.710938 113.160156 206.769531 112.917969 206.886719 112.695312 C 207.003906 112.476562 207.167969 112.285156 207.375 112.128906 C 207.53125 112.027344 207.738281 111.933594 208 111.855469 C 208.273438 111.777344 208.558594 111.738281 208.859375 111.738281 C 209.316406 111.738281 209.710938 111.804688 210.050781 111.933594 C 210.402344 112.066406 210.664062 112.242188 210.832031 112.460938 C 211 112.683594 211.117188 112.984375 211.183594 113.359375 L 210.207031 113.496094 C 210.167969 113.199219 210.039062 112.964844 209.816406 112.792969 C 209.609375 112.625 209.316406 112.539062 208.9375 112.539062 C 208.480469 112.539062 208.15625 112.617188 207.960938 112.773438 C 207.765625 112.917969 207.667969 113.09375 207.667969 113.300781 C 207.667969 113.433594 207.707031 113.542969 207.785156 113.632812 C 207.863281 113.75 207.992188 113.84375 208.175781 113.90625 C 208.265625 113.945312 208.554688 114.03125 209.035156 114.160156 C 209.738281 114.34375 210.226562 114.492188 210.5 114.609375 C 210.785156 114.726562 211.007812 114.902344 211.164062 115.136719 C 211.320312 115.359375 211.398438 115.640625 211.398438 115.976562 C 211.398438 116.316406 211.300781 116.628906 211.105469 116.914062 C 210.910156 117.203125 210.628906 117.429688 210.265625 117.597656 C 209.914062 117.753906 209.503906 117.832031 209.035156 117.832031 C 208.28125 117.832031 207.699219 117.675781 207.296875 117.363281 C 206.90625 117.039062 206.660156 116.570312 206.554688 115.957031 Z M 206.554688 115.957031 "/>
<path style=" stroke:none;fill-rule:nonzero;fill:rgb(0%,0%,0%);fill-opacity:1;" d="M 217.785156 114.179688 L 212.453125 116.445312 L 212.453125 115.46875 L 216.671875 113.710938 L 212.453125 111.972656 L 212.453125 110.996094 L 217.785156 113.242188 Z M 217.785156 114.179688 "/>
<path style="fill:none;stroke-width:1;stroke-linecap:round;stroke-linejoin:round;stroke:rgb(0%,0%,0%);stroke-opacity:1;stroke-miterlimit:10;" d="M 759.378125 592 L 783.378125 592 L 783.378125 610 L 759.378125 610 Z M 759.378125 592 " transform="matrix(1.25,0,0,1.25,-705,-670)"/>
<path style="fill:none;stroke-width:1;stroke-linecap:round;stroke-linejoin:round;stroke:rgb(0%,0%,0%);stroke-opacity:1;stroke-miterlimit:10;" d="M 802.378125 592 L 826.378125 592 L 826.378125 610 L 802.378125 610 Z M 802.378125 592 " transform="matrix(1.25,0,0,1.25,-705,-670)"/>
<path style="fill:none;stroke-width:1;stroke-linecap:round;stroke-linejoin:round;stroke:rgb(0%,0%,0%);stroke-opacity:1;stroke-miterlimit:10;" d="M 845.80625 592 L 869.80625 592 L 869.80625 610 L 845.80625 610 Z M 845.80625 592 " transform="matrix(1.25,0,0,1.25,-705,-670)"/>
<path style="fill:none;stroke-width:1;stroke-linecap:round;stroke-linejoin:round;stroke:rgb(0%,0%,0%);stroke-opacity:1;stroke-miterlimit:10;" d="M 888.653125 592 L 912.653125 592 L 912.653125 610 L 888.653125 610 Z M 888.653125 592 " transform="matrix(1.25,0,0,1.25,-705,-670)"/>
<path style="fill:none;stroke-width:1;stroke-linecap:round;stroke-linejoin:round;stroke:rgb(0%,0%,0%);stroke-opacity:1;stroke-miterlimit:10;" d="M 615.828125 620.15625 L 615.809375 615.9 " transform="matrix(1.25,0,0,1.25,-705,-670)"/>
<path style="fill:none;stroke-width:1;stroke-linecap:butt;stroke-linejoin:miter;stroke:rgb(0%,0%,0%);stroke-opacity:1;stroke-miterlimit:10;" d="M 615.7875 611.9 L 615.809375 615.9 M 614.309375 615.90625 L 615.7875 611.9 L 617.309375 615.89375 " transform="matrix(1.25,0,0,1.25,-705,-670)"/>
<path style="fill:none;stroke-width:1;stroke-linecap:round;stroke-linejoin:round;stroke:rgb(0%,0%,0%);stroke-opacity:1;stroke-miterlimit:10;" d="M 627.7375 601 L 634.23125 601 " transform="matrix(1.25,0,0,1.25,-705,-670)"/>
<path style="fill:none;stroke-width:1;stroke-linecap:butt;stroke-linejoin:miter;stroke:rgb(0%,0%,0%);stroke-opacity:1;stroke-miterlimit:10;" d="M 638.23125 601 L 634.23125 601 M 634.23125 599.5 L 638.23125 601 L 634.23125 602.5 " transform="matrix(1.25,0,0,1.25,-705,-670)"/>
<path style="fill:none;stroke-width:1;stroke-linecap:round;stroke-linejoin:round;stroke:rgb(0%,0%,0%);stroke-opacity:1;stroke-miterlimit:10;" d="M 664.13125 601 L 670.378125 601 " transform="matrix(1.25,0,0,1.25,-705,-670)"/>
<path style="fill:none;stroke-width:1;stroke-linecap:butt;stroke-linejoin:miter;stroke:rgb(0%,0%,0%);stroke-opacity:1;stroke-miterlimit:10;" d="M 674.378125 601 L 670.378125 601 M 670.378125 599.5 L 674.378125 601 L 670.378125 602.5 " transform="matrix(1.25,0,0,1.25,-705,-670)"/>
<path style="fill:none;stroke-width:1;stroke-linecap:round;stroke-linejoin:round;stroke:rgb(0%,0%,0%);stroke-opacity:1;stroke-miterlimit:10;" d="M 700.278125 601 L 708.184375 601 " transform="matrix(1.25,0,0,1.25,-705,-670)"/>
<path style="fill:none;stroke-width:1;stroke-linecap:butt;stroke-linejoin:miter;stroke:rgb(0%,0%,0%);stroke-opacity:1;stroke-miterlimit:10;" d="M 712.184375 601 L 708.184375 601 M 708.184375 599.5 L 712.184375 601 L 708.184375 602.5 " transform="matrix(1.25,0,0,1.25,-705,-670)"/>
<path style="fill:none;stroke-width:1;stroke-linecap:round;stroke-linejoin:round;stroke:rgb(0%,0%,0%);stroke-opacity:1;stroke-miterlimit:10;" d="M 652.221875 620.15625 L 652.203125 615.9 " transform="matrix(1.25,0,0,1.25,-705,-670)"/>
<path style="fill:none;stroke-width:1;stroke-linecap:butt;stroke-linejoin:miter;stroke:rgb(0%,0%,0%);stroke-opacity:1;stroke-miterlimit:10;" d="M 652.184375 611.9 L 652.203125 615.9 M 650.703125 615.90625 L 652.184375 611.9 L 653.703125 615.89375 " transform="matrix(1.25,0,0,1.25,-705,-670)"/>
<path style="fill:none;stroke-width:1;stroke-linecap:round;stroke-linejoin:round;stroke:rgb(0%,0%,0%);stroke-opacity:1;stroke-miterlimit:10;" d="M 688.36875 620.15625 L 688.346875 615.9 " transform="matrix(1.25,0,0,1.25,-705,-670)"/>
<path style="fill:none;stroke-width:1;stroke-linecap:butt;stroke-linejoin:miter;stroke:rgb(0%,0%,0%);stroke-opacity:1;stroke-miterlimit:10;" d="M 688.328125 611.9 L 688.346875 615.9 M 686.846875 615.90625 L 688.328125 611.9 L 689.846875 615.89375 " transform="matrix(1.25,0,0,1.25,-705,-670)"/>
<path style="fill:none;stroke-width:1;stroke-linecap:round;stroke-linejoin:round;stroke:rgb(0%,0%,0%);stroke-opacity:1;stroke-miterlimit:10;" d="M 726.171875 620.15625 L 726.153125 615.9 " transform="matrix(1.25,0,0,1.25,-705,-670)"/>
<path style="fill:none;stroke-width:1;stroke-linecap:butt;stroke-linejoin:miter;stroke:rgb(0%,0%,0%);stroke-opacity:1;stroke-miterlimit:10;" d="M 726.13125 611.9 L 726.153125 615.9 M 724.653125 615.90625 L 726.13125 611.9 L 727.653125 615.89375 " transform="matrix(1.25,0,0,1.25,-705,-670)"/>
<path style="fill:none;stroke-width:1;stroke-linecap:round;stroke-linejoin:round;stroke:rgb(0%,0%,0%);stroke-opacity:1;stroke-miterlimit:10;" d="M 826.378125 601 L 839.90625 601 " transform="matrix(1.25,0,0,1.25,-705,-670)"/>
<path style="fill:none;stroke-width:1;stroke-linecap:butt;stroke-linejoin:miter;stroke:rgb(0%,0%,0%);stroke-opacity:1;stroke-miterlimit:10;" d="M 843.90625 601 L 839.90625 601 M 839.90625 599.5 L 843.90625 601 L 839.90625 602.5 " transform="matrix(1.25,0,0,1.25,-705,-670)"/>
<path style=" stroke:none;fill-rule:nonzero;fill:rgb(0%,0%,0%);fill-opacity:1;" d="M 254.753906 42.5 L 254.753906 34.453125 L 255.808594 34.453125 L 255.808594 42.5 Z M 254.753906 42.5 "/>
<path style=" stroke:none;fill-rule:nonzero;fill:rgb(0%,0%,0%);fill-opacity:1;" d="M 257.546875 42.5 L 257.546875 34.453125 L 258.523438 34.453125 L 258.523438 42.5 Z M 257.546875 42.5 "/>
<path style=" stroke:none;fill-rule:nonzero;fill:rgb(0%,0%,0%);fill-opacity:1;" d="M 259.667969 40.761719 L 260.644531 40.605469 C 260.695312 40.996094 260.847656 41.296875 261.09375 41.503906 C 261.355469 41.714844 261.707031 41.816406 262.148438 41.816406 C 262.605469 41.816406 262.941406 41.726562 263.164062 41.542969 C 263.386719 41.363281 263.496094 41.148438 263.496094 40.898438 C 263.496094 40.664062 263.398438 40.488281 263.203125 40.371094 C 263.058594 40.28125 262.722656 40.164062 262.1875 40.019531 C 261.457031 39.839844 260.949219 39.683594 260.664062 39.550781 C 260.390625 39.421875 260.183594 39.238281 260.039062 39.003906 C 259.894531 38.769531 259.824219 38.511719 259.824219 38.222656 C 259.824219 37.964844 259.882812 37.726562 260 37.5 C 260.117188 37.28125 260.28125 37.089844 260.488281 36.933594 C 260.644531 36.832031 260.851562 36.738281 261.113281 36.660156 C 261.386719 36.582031 261.671875 36.542969 261.972656 36.542969 C 262.429688 36.542969 262.824219 36.609375 263.164062 36.738281 C 263.515625 36.871094 263.777344 37.046875 263.945312 37.265625 C 264.113281 37.492188 264.230469 37.789062 264.296875 38.164062 L 263.320312 38.300781 C 263.28125 38.003906 263.152344 37.769531 262.929688 37.597656 C 262.722656 37.429688 262.429688 37.34375 262.050781 37.34375 C 261.59375 37.34375 261.269531 37.421875 261.074219 37.578125 C 260.878906 37.726562 260.78125 37.898438 260.78125 38.105469 C 260.78125 38.238281 260.820312 38.351562 260.898438 38.4375 C 260.976562 38.554688 261.105469 38.648438 261.289062 38.710938 C 261.378906 38.75 261.667969 38.835938 262.148438 38.964844 C 262.851562 39.148438 263.339844 39.296875 263.613281 39.414062 C 263.898438 39.53125 264.121094 39.707031 264.277344 39.941406 C 264.433594 40.164062 264.511719 40.445312 264.511719 40.78125 C 264.511719 41.125 264.414062 41.4375 264.21875 41.71875 C 264.023438 42.007812 263.742188 42.234375 263.378906 42.402344 C 263.027344 42.558594 262.617188 42.636719 262.148438 42.636719 C 261.394531 42.636719 260.8125 42.480469 260.410156 42.167969 C 260.019531 41.84375 259.773438 41.375 259.667969 40.761719 Z M 259.667969 40.761719 "/>
<path style=" stroke:none;fill-rule:nonzero;fill:rgb(0%,0%,0%);fill-opacity:1;" d="M 289.519531 42.5 L 289.519531 36.660156 L 290.417969 36.660156 L 290.417969 37.558594 C 290.636719 37.144531 290.847656 36.871094 291.042969 36.738281 C 291.238281 36.609375 291.453125 36.542969 291.6875 36.542969 C 292.007812 36.542969 292.351562 36.648438 292.703125 36.855469 L 292.351562 37.773438 C 292.117188 37.632812 291.871094 37.558594 291.628906 37.558594 C 291.417969 37.558594 291.222656 37.625 291.042969 37.753906 C 290.871094 37.886719 290.75 38.066406 290.671875 38.300781 C 290.5625 38.652344 290.515625 39.039062 290.515625 39.453125 L 290.515625 42.5 Z M 289.519531 42.5 "/>
<path style=" stroke:none;fill-rule:nonzero;fill:rgb(0%,0%,0%);fill-opacity:1;" d="M 297.269531 40.625 L 298.304688 40.742188 C 298.132812 41.34375 297.824219 41.8125 297.386719 42.148438 C 296.957031 42.476562 296.398438 42.636719 295.726562 42.636719 C 294.875 42.636719 294.203125 42.378906 293.695312 41.855469 C 293.195312 41.324219 292.953125 40.582031 292.953125 39.628906 C 292.953125 38.652344 293.207031 37.898438 293.714844 37.363281 C 294.222656 36.816406 294.875 36.542969 295.6875 36.542969 C 296.46875 36.542969 297.097656 36.8125 297.582031 37.34375 C 298.074219 37.867188 298.324219 38.609375 298.324219 39.570312 C 298.324219 39.640625 298.324219 39.726562 298.324219 39.84375 L 293.96875 39.84375 C 294.007812 40.484375 294.1875 40.972656 294.515625 41.308594 C 294.835938 41.648438 295.246094 41.816406 295.746094 41.816406 C 296.105469 41.816406 296.414062 41.726562 296.664062 41.542969 C 296.921875 41.347656 297.121094 41.046875 297.269531 40.625 Z M 294.027344 39.023438 L 297.289062 39.023438 C 297.25 38.53125 297.121094 38.160156 296.917969 37.910156 C 296.605469 37.535156 296.195312 37.34375 295.6875 37.34375 C 295.226562 37.34375 294.847656 37.5 294.535156 37.8125 C 294.230469 38.117188 294.066406 38.515625 294.027344 39.023438 Z M 294.027344 39.023438 "/>
<path style=" stroke:none;fill-rule:nonzero;fill:rgb(0%,0%,0%);fill-opacity:1;" d="M 299.367188 42.988281 L 300.324219 43.125 C 300.363281 43.421875 300.46875 43.636719 300.65625 43.769531 C 300.898438 43.949219 301.242188 44.042969 301.671875 44.042969 C 302.125 44.042969 302.476562 43.949219 302.726562 43.769531 C 302.96875 43.585938 303.140625 43.328125 303.234375 43.007812 C 303.28125 42.796875 303.300781 42.378906 303.292969 41.738281 C 302.863281 42.246094 302.324219 42.5 301.691406 42.5 C 300.878906 42.5 300.253906 42.21875 299.816406 41.640625 C 299.386719 41.054688 299.171875 40.359375 299.171875 39.550781 C 299.171875 38.992188 299.269531 38.476562 299.464844 38.007812 C 299.667969 37.539062 299.960938 37.183594 300.34375 36.933594 C 300.71875 36.675781 301.167969 36.542969 301.691406 36.542969 C 302.378906 36.542969 302.945312 36.816406 303.390625 37.363281 L 303.390625 36.660156 L 304.308594 36.660156 L 304.308594 41.699219 C 304.308594 42.609375 304.210938 43.25 304.015625 43.632812 C 303.828125 44.007812 303.535156 44.304688 303.136719 44.53125 C 302.746094 44.75 302.257812 44.863281 301.671875 44.863281 C 300.96875 44.863281 300.402344 44.707031 299.972656 44.394531 C 299.550781 44.082031 299.351562 43.613281 299.367188 42.988281 Z M 300.1875 39.472656 C 300.1875 40.242188 300.332031 40.800781 300.636719 41.152344 C 300.933594 41.503906 301.308594 41.679688 301.769531 41.679688 C 302.222656 41.679688 302.609375 41.503906 302.921875 41.152344 C 303.234375 40.800781 303.390625 40.253906 303.390625 39.511719 C 303.390625 38.796875 303.222656 38.257812 302.902344 37.890625 C 302.589844 37.53125 302.207031 37.34375 301.769531 37.34375 C 301.324219 37.34375 300.949219 37.53125 300.636719 37.890625 C 300.332031 38.242188 300.1875 38.769531 300.1875 39.472656 Z M 300.1875 39.472656 "/>
<path style=" stroke:none;fill-rule:nonzero;fill:rgb(0%,0%,0%);fill-opacity:1;" d="M 309.605469 41.777344 C 309.242188 42.089844 308.890625 42.3125 308.550781 42.441406 C 308.210938 42.570312 307.847656 42.636719 307.457031 42.636719 C 306.820312 42.636719 306.324219 42.480469 305.972656 42.167969 C 305.632812 41.855469 305.464844 41.453125 305.464844 40.957031 C 305.464844 40.671875 305.53125 40.410156 305.660156 40.175781 C 305.789062 39.941406 305.960938 39.757812 306.167969 39.609375 C 306.375 39.46875 306.609375 39.355469 306.871094 39.277344 C 307.066406 39.238281 307.359375 39.195312 307.75 39.140625 C 308.558594 39.054688 309.148438 38.9375 309.527344 38.789062 C 309.527344 38.664062 309.527344 38.574219 309.527344 38.535156 C 309.527344 38.132812 309.4375 37.851562 309.253906 37.695312 C 308.992188 37.460938 308.617188 37.34375 308.121094 37.34375 C 307.652344 37.34375 307.308594 37.429688 307.085938 37.597656 C 306.863281 37.753906 306.703125 38.042969 306.597656 38.457031 L 305.640625 38.339844 C 305.71875 37.925781 305.855469 37.59375 306.050781 37.34375 C 306.257812 37.085938 306.550781 36.890625 306.929688 36.757812 C 307.320312 36.617188 307.761719 36.542969 308.257812 36.542969 C 308.765625 36.542969 309.167969 36.601562 309.46875 36.71875 C 309.78125 36.835938 310.007812 36.988281 310.152344 37.167969 C 310.308594 37.339844 310.414062 37.558594 310.464844 37.832031 C 310.503906 38.003906 310.523438 38.300781 310.523438 38.730469 L 310.523438 40.058594 C 310.523438 40.972656 310.542969 41.554688 310.582031 41.796875 C 310.621094 42.046875 310.707031 42.28125 310.835938 42.5 L 309.800781 42.5 C 309.695312 42.296875 309.632812 42.050781 309.605469 41.777344 Z M 309.527344 39.570312 C 309.164062 39.71875 308.621094 39.839844 307.90625 39.941406 C 307.503906 40.007812 307.214844 40.078125 307.046875 40.15625 C 306.878906 40.226562 306.746094 40.328125 306.65625 40.46875 C 306.566406 40.617188 306.519531 40.773438 306.519531 40.9375 C 306.519531 41.203125 306.617188 41.421875 306.8125 41.601562 C 307.007812 41.773438 307.300781 41.855469 307.691406 41.855469 C 308.070312 41.855469 308.40625 41.773438 308.707031 41.601562 C 309.007812 41.4375 309.226562 41.207031 309.371094 40.917969 C 309.476562 40.699219 309.527344 40.371094 309.527344 39.941406 Z M 309.527344 39.570312 "/>
<path style=" stroke:none;fill-rule:nonzero;fill:rgb(0%,0%,0%);fill-opacity:1;" d="M 312.035156 42.5 L 312.035156 36.660156 L 312.933594 36.660156 L 312.933594 37.558594 C 313.15625 37.144531 313.363281 36.871094 313.558594 36.738281 C 313.753906 36.609375 313.96875 36.542969 314.203125 36.542969 C 314.527344 36.542969 314.867188 36.648438 315.21875 36.855469 L 314.867188 37.773438 C 314.632812 37.632812 314.390625 37.558594 314.144531 37.558594 C 313.9375 37.558594 313.742188 37.625 313.558594 37.753906 C 313.390625 37.886719 313.265625 38.066406 313.1875 38.300781 C 313.082031 38.652344 313.03125 39.039062 313.03125 39.453125 L 313.03125 42.5 Z M 312.035156 42.5 "/>
<path style=" stroke:none;fill-rule:nonzero;fill:rgb(0%,0%,0%);fill-opacity:1;" d="M 319.589844 42.5 L 319.589844 41.757812 C 319.210938 42.34375 318.664062 42.636719 317.949219 42.636719 C 317.492188 42.636719 317.070312 42.503906 316.679688 42.246094 C 316.289062 41.988281 315.984375 41.632812 315.761719 41.171875 C 315.554688 40.71875 315.449219 40.191406 315.449219 39.589844 C 315.449219 39.003906 315.546875 38.476562 315.742188 38.007812 C 315.9375 37.53125 316.222656 37.164062 316.601562 36.914062 C 316.992188 36.671875 317.429688 36.542969 317.910156 36.542969 C 318.261719 36.542969 318.574219 36.617188 318.847656 36.757812 C 319.121094 36.90625 319.34375 37.101562 319.511719 37.34375 L 319.511719 34.453125 L 320.507812 34.453125 L 320.507812 42.5 Z M 316.464844 39.589844 C 316.464844 40.332031 316.621094 40.894531 316.933594 41.269531 C 317.246094 41.636719 317.617188 41.816406 318.046875 41.816406 C 318.476562 41.816406 318.839844 41.640625 319.140625 41.289062 C 319.453125 40.9375 319.609375 40.398438 319.609375 39.667969 C 319.609375 38.875 319.453125 38.289062 319.140625 37.910156 C 318.828125 37.535156 318.449219 37.34375 318.007812 37.34375 C 317.566406 37.34375 317.195312 37.53125 316.894531 37.890625 C 316.609375 38.257812 316.464844 38.824219 316.464844 39.589844 Z M 316.464844 39.589844 "/>
<path style=" stroke:none;fill-rule:nonzero;fill:rgb(0%,0%,0%);fill-opacity:1;" d="M 326.042969 40.625 L 327.078125 40.742188 C 326.90625 41.34375 326.601562 41.8125 326.160156 42.148438 C 325.730469 42.476562 325.175781 42.636719 324.5 42.636719 C 323.652344 42.636719 322.976562 42.378906 322.46875 41.855469 C 321.972656 41.324219 321.726562 40.582031 321.726562 39.628906 C 321.726562 38.652344 321.980469 37.898438 322.488281 37.363281 C 322.996094 36.816406 323.652344 36.542969 324.460938 36.542969 C 325.242188 36.542969 325.871094 36.8125 326.355469 37.34375 C 326.847656 37.867188 327.097656 38.609375 327.097656 39.570312 C 327.097656 39.640625 327.097656 39.726562 327.097656 39.84375 L 322.742188 39.84375 C 322.78125 40.484375 322.960938 40.972656 323.289062 41.308594 C 323.613281 41.648438 324.023438 41.816406 324.519531 41.816406 C 324.882812 41.816406 325.1875 41.726562 325.4375 41.542969 C 325.695312 41.347656 325.898438 41.046875 326.042969 40.625 Z M 322.800781 39.023438 L 326.0625 39.023438 C 326.023438 38.53125 325.898438 38.160156 325.691406 37.910156 C 325.378906 37.535156 324.96875 37.34375 324.460938 37.34375 C 324.003906 37.34375 323.621094 37.5 323.308594 37.8125 C 323.007812 38.117188 322.839844 38.515625 322.800781 39.023438 Z M 322.800781 39.023438 "/>
<path style=" stroke:none;fill-rule:nonzero;fill:rgb(0%,0%,0%);fill-opacity:1;" d="M 328.316406 42.5 L 328.316406 36.660156 L 329.214844 36.660156 L 329.214844 37.5 C 329.628906 36.867188 330.25 36.542969 331.070312 36.542969 C 331.421875 36.542969 331.738281 36.609375 332.027344 36.738281 C 332.324219 36.855469 332.546875 37.023438 332.691406 37.226562 C 332.832031 37.421875 332.9375 37.664062 333.003906 37.949219 C 333.042969 38.132812 333.0625 38.453125 333.0625 38.90625 L 333.0625 42.5 L 332.066406 42.5 L 332.066406 38.945312 C 332.066406 38.546875 332.027344 38.242188 331.949219 38.046875 C 331.871094 37.851562 331.734375 37.695312 331.539062 37.578125 C 331.34375 37.453125 331.113281 37.382812 330.855469 37.382812 C 330.4375 37.382812 330.074219 37.519531 329.761719 37.792969 C 329.460938 38.054688 329.3125 38.5625 329.3125 39.316406 L 329.3125 42.5 Z M 328.316406 42.5 "/>
<path style=" stroke:none;fill-rule:nonzero;fill:rgb(0%,0%,0%);fill-opacity:1;" d="M 336.742188 41.621094 L 336.878906 42.480469 C 336.589844 42.542969 336.339844 42.578125 336.136719 42.578125 C 335.769531 42.578125 335.492188 42.519531 335.296875 42.402344 C 335.101562 42.285156 334.953125 42.140625 334.867188 41.953125 C 334.789062 41.773438 334.75 41.386719 334.75 40.800781 L 334.75 37.441406 L 334.027344 37.441406 L 334.027344 36.660156 L 334.75 36.660156 L 334.75 35.214844 L 335.746094 34.628906 L 335.746094 36.660156 L 336.742188 36.660156 L 336.742188 37.441406 L 335.746094 37.441406 L 335.746094 40.839844 C 335.746094 41.128906 335.753906 41.308594 335.785156 41.386719 C 335.824219 41.464844 335.882812 41.53125 335.960938 41.582031 C 336.039062 41.636719 336.144531 41.660156 336.292969 41.660156 C 336.410156 41.660156 336.554688 41.648438 336.742188 41.621094 Z M 336.742188 41.621094 "/>
<path style=" stroke:none;fill-rule:nonzero;fill:rgb(0%,0%,0%);fill-opacity:1;" d="M 366.597656 42.5 L 366.597656 41.367188 L 367.730469 41.367188 L 367.730469 42.5 Z M 366.597656 42.5 "/>
<path style=" stroke:none;fill-rule:nonzero;fill:rgb(0%,0%,0%);fill-opacity:1;" d="M 406 38.984375 L 406 38.046875 L 411.332031 35.800781 L 411.332031 36.777344 L 407.09375 38.515625 L 411.332031 40.273438 L 411.332031 41.25 Z M 406 38.984375 "/>
<path style=" stroke:none;fill-rule:nonzero;fill:rgb(0%,0%,0%);fill-opacity:1;" d="M 416.671875 40.625 L 417.707031 40.742188 C 417.535156 41.34375 417.226562 41.8125 416.789062 42.148438 C 416.359375 42.476562 415.800781 42.636719 415.128906 42.636719 C 414.277344 42.636719 413.605469 42.378906 413.097656 41.855469 C 412.597656 41.324219 412.355469 40.582031 412.355469 39.628906 C 412.355469 38.652344 412.609375 37.898438 413.117188 37.363281 C 413.625 36.816406 414.277344 36.542969 415.089844 36.542969 C 415.871094 36.542969 416.5 36.8125 416.984375 37.34375 C 417.476562 37.867188 417.726562 38.609375 417.726562 39.570312 C 417.726562 39.640625 417.726562 39.726562 417.726562 39.84375 L 413.371094 39.84375 C 413.410156 40.484375 413.589844 40.972656 413.917969 41.308594 C 414.238281 41.648438 414.648438 41.816406 415.148438 41.816406 C 415.507812 41.816406 415.816406 41.726562 416.066406 41.542969 C 416.324219 41.347656 416.523438 41.046875 416.671875 40.625 Z M 413.429688 39.023438 L 416.691406 39.023438 C 416.652344 38.53125 416.523438 38.160156 416.320312 37.910156 C 416.007812 37.535156 415.597656 37.34375 415.089844 37.34375 C 414.628906 37.34375 414.25 37.5 413.9375 37.8125 C 413.632812 38.117188 413.46875 38.515625 413.429688 39.023438 Z M 413.429688 39.023438 "/>
<path style=" stroke:none;fill-rule:nonzero;fill:rgb(0%,0%,0%);fill-opacity:1;" d="M 418.574219 39.589844 C 418.574219 38.511719 418.871094 37.710938 419.472656 37.1875 C 419.980469 36.757812 420.589844 36.542969 421.308594 36.542969 C 422.113281 36.542969 422.773438 36.804688 423.28125 37.324219 C 423.789062 37.847656 424.042969 38.570312 424.042969 39.492188 C 424.042969 40.25 423.925781 40.839844 423.691406 41.269531 C 423.464844 41.699219 423.144531 42.039062 422.714844 42.285156 C 422.285156 42.519531 421.816406 42.636719 421.308594 42.636719 C 420.488281 42.636719 419.824219 42.378906 419.316406 41.855469 C 418.816406 41.324219 418.574219 40.566406 418.574219 39.589844 Z M 419.589844 39.589844 C 419.589844 40.332031 419.75 40.894531 420.078125 41.269531 C 420.398438 41.636719 420.808594 41.816406 421.308594 41.816406 C 421.800781 41.816406 422.210938 41.636719 422.539062 41.269531 C 422.859375 40.894531 423.027344 40.320312 423.027344 39.550781 C 423.027344 38.835938 422.859375 38.289062 422.539062 37.910156 C 422.210938 37.535156 421.800781 37.34375 421.308594 37.34375 C 420.808594 37.34375 420.398438 37.535156 420.078125 37.910156 C 419.75 38.277344 419.589844 38.835938 419.589844 39.589844 Z M 419.589844 39.589844 "/>
<path style=" stroke:none;fill-rule:nonzero;fill:rgb(0%,0%,0%);fill-opacity:1;" d="M 424.8125 40.761719 L 425.789062 40.605469 C 425.835938 40.996094 425.988281 41.296875 426.238281 41.503906 C 426.496094 41.714844 426.847656 41.816406 427.292969 41.816406 C 427.746094 41.816406 428.082031 41.726562 428.308594 41.542969 C 428.527344 41.363281 428.640625 41.148438 428.640625 40.898438 C 428.640625 40.664062 428.542969 40.488281 428.347656 40.371094 C 428.199219 40.28125 427.863281 40.164062 427.332031 40.019531 C 426.597656 39.839844 426.089844 39.683594 425.808594 39.550781 C 425.535156 39.421875 425.324219 39.238281 425.183594 39.003906 C 425.035156 38.769531 424.96875 38.511719 424.96875 38.222656 C 424.96875 37.964844 425.027344 37.726562 425.144531 37.5 C 425.261719 37.28125 425.421875 37.089844 425.632812 36.933594 C 425.789062 36.832031 425.992188 36.738281 426.257812 36.660156 C 426.53125 36.582031 426.8125 36.542969 427.117188 36.542969 C 427.570312 36.542969 427.964844 36.609375 428.308594 36.738281 C 428.660156 36.871094 428.917969 37.046875 429.089844 37.265625 C 429.253906 37.492188 429.371094 37.789062 429.441406 38.164062 L 428.464844 38.300781 C 428.425781 38.003906 428.292969 37.769531 428.074219 37.597656 C 427.863281 37.429688 427.570312 37.34375 427.195312 37.34375 C 426.734375 37.34375 426.414062 37.421875 426.21875 37.578125 C 426.023438 37.726562 425.925781 37.898438 425.925781 38.105469 C 425.925781 38.238281 425.964844 38.351562 426.042969 38.4375 C 426.121094 38.554688 426.246094 38.648438 426.433594 38.710938 C 426.519531 38.75 426.808594 38.835938 427.292969 38.964844 C 427.996094 39.148438 428.484375 39.296875 428.757812 39.414062 C 429.039062 39.53125 429.265625 39.707031 429.421875 39.941406 C 429.578125 40.164062 429.65625 40.445312 429.65625 40.78125 C 429.65625 41.125 429.558594 41.4375 429.363281 41.71875 C 429.167969 42.007812 428.882812 42.234375 428.523438 42.402344 C 428.171875 42.558594 427.761719 42.636719 427.292969 42.636719 C 426.535156 42.636719 425.953125 42.480469 425.554688 42.167969 C 425.164062 41.84375 424.914062 41.375 424.8125 40.761719 Z M 424.8125 40.761719 "/>
<path style=" stroke:none;fill-rule:nonzero;fill:rgb(0%,0%,0%);fill-opacity:1;" d="M 436.042969 38.984375 L 430.710938 41.25 L 430.710938 40.273438 L 434.929688 38.515625 L 430.710938 36.777344 L 430.710938 35.800781 L 436.042969 38.046875 Z M 436.042969 38.984375 "/>
<path style="fill:none;stroke-width:1;stroke-linecap:round;stroke-linejoin:round;stroke:rgb(0%,0%,0%);stroke-opacity:1;stroke-miterlimit:10;" d="M 771.4 592 L 771.425 580.19375 " transform="matrix(1.25,0,0,1.25,-705,-670)"/>
<path style="fill:none;stroke-width:1;stroke-linecap:butt;stroke-linejoin:miter;stroke:rgb(0%,0%,0%);stroke-opacity:1;stroke-miterlimit:10;" d="M 771.4375 576.19375 L 771.425 580.19375 M 769.925 580.190625 L 771.4375 576.19375 L 772.925 580.2 " transform="matrix(1.25,0,0,1.25,-705,-670)"/>
<path style="fill:none;stroke-width:1;stroke-linecap:round;stroke-linejoin:round;stroke:rgb(0%,0%,0%);stroke-opacity:1;stroke-miterlimit:10;" d="M 814.359375 592 L 814.33125 580.19375 " transform="matrix(1.25,0,0,1.25,-705,-670)"/>
<path style="fill:none;stroke-width:1;stroke-linecap:butt;stroke-linejoin:miter;stroke:rgb(0%,0%,0%);stroke-opacity:1;stroke-miterlimit:10;" d="M 814.31875 576.19375 L 814.33125 580.19375 M 812.83125 580.2 L 814.31875 576.19375 L 815.83125 580.190625 " transform="matrix(1.25,0,0,1.25,-705,-670)"/>
<path style="fill:none;stroke-width:1;stroke-linecap:round;stroke-linejoin:round;stroke:rgb(0%,0%,0%);stroke-opacity:1;stroke-miterlimit:10;" d="M 857.78125 592 L 857.75 580.19375 " transform="matrix(1.25,0,0,1.25,-705,-670)"/>
<path style="fill:none;stroke-width:1;stroke-linecap:butt;stroke-linejoin:miter;stroke:rgb(0%,0%,0%);stroke-opacity:1;stroke-miterlimit:10;" d="M 857.7375 576.19375 L 857.75 580.19375 M 856.25 580.2 L 857.7375 576.19375 L 859.25 580.190625 " transform="matrix(1.25,0,0,1.25,-705,-670)"/>
<path style="fill:none;stroke-width:1;stroke-linecap:round;stroke-linejoin:round;stroke:rgb(0%,0%,0%);stroke-opacity:1;stroke-miterlimit:10;" d="M 900.69375 592 L 900.75 580.19375 " transform="matrix(1.25,0,0,1.25,-705,-670)"/>
<path style="fill:none;stroke-width:1;stroke-linecap:butt;stroke-linejoin:miter;stroke:rgb(0%,0%,0%);stroke-opacity:1;stroke-miterlimit:10;" d="M 900.76875 576.19375 L 900.75 580.19375 M 899.25 580.1875 L 900.76875 576.19375 L 902.25 580.203125 " transform="matrix(1.25,0,0,1.25,-705,-670)"/>
<path style="fill:none;stroke-width:1;stroke-linecap:round;stroke-linejoin:round;stroke:rgb(0%,0%,0%);stroke-opacity:1;stroke-miterlimit:10;" d="M 783.378125 601 L 796.48125 601 " transform="matrix(1.25,0,0,1.25,-705,-670)"/>
<path style="fill:none;stroke-width:1;stroke-linecap:butt;stroke-linejoin:miter;stroke:rgb(0%,0%,0%);stroke-opacity:1;stroke-miterlimit:10;" d="M 800.48125 601 L 796.48125 601 M 796.48125 599.5 L 800.48125 601 L 796.48125 602.5 " transform="matrix(1.25,0,0,1.25,-705,-670)"/>
<path style="fill:none;stroke-width:1;stroke-linecap:round;stroke-linejoin:round;stroke:rgb(0%,0%,0%);stroke-opacity:1;stroke-miterlimit:10;" d="M 826.378125 601 L 839.90625 601 " transform="matrix(1.25,0,0,1.25,-705,-670)"/>
<path style="fill:none;stroke-width:1;stroke-linecap:butt;stroke-linejoin:miter;stroke:rgb(0%,0%,0%);stroke-opacity:1;stroke-miterlimit:10;" d="M 843.90625 601 L 839.90625 601 M 839.90625 599.5 L 843.90625 601 L 839.90625 602.5 " transform="matrix(1.25,0,0,1.25,-705,-670)"/>
<path style="fill:none;stroke-width:1;stroke-linecap:round;stroke-linejoin:round;stroke:rgb(0%,0%,0%);stroke-opacity:1;stroke-miterlimit:10;" d="M 869.80625 601 L 882.75 601 " transform="matrix(1.25,0,0,1.25,-705,-670)"/>
<path style="fill:none;stroke-width:1;stroke-linecap:butt;stroke-linejoin:miter;stroke:rgb(0%,0%,0%);stroke-opacity:1;stroke-miterlimit:10;" d="M 886.75 601 L 882.75 601 M 882.75 599.5 L 886.75 601 L 882.75 602.5 " transform="matrix(1.25,0,0,1.25,-705,-670)"/>
<path style=" stroke:none;fill-rule:nonzero;fill:rgb(0%,0%,0%);fill-opacity:1;" d="M 92.296875 16.25 L 92.296875 8.203125 L 98.117188 8.203125 L 98.117188 9.140625 L 93.351562 9.140625 L 93.351562 11.621094 L 97.804688 11.621094 L 97.804688 12.558594 L 93.351562 12.558594 L 93.351562 15.292969 L 98.292969 15.292969 L 98.292969 16.25 Z M 92.296875 16.25 "/>
<path style=" stroke:none;fill-rule:nonzero;fill:rgb(0%,0%,0%);fill-opacity:1;" d="M 99.644531 16.25 L 99.644531 10.410156 L 100.542969 10.410156 L 100.542969 11.25 C 100.957031 10.617188 101.578125 10.292969 102.398438 10.292969 C 102.75 10.292969 103.066406 10.359375 103.355469 10.488281 C 103.652344 10.605469 103.871094 10.773438 104.019531 10.976562 C 104.160156 11.171875 104.261719 11.414062 104.332031 11.699219 C 104.371094 11.882812 104.390625 12.203125 104.390625 12.65625 L 104.390625 16.25 L 103.394531 16.25 L 103.394531 12.695312 C 103.394531 12.296875 103.355469 11.992188 103.277344 11.796875 C 103.199219 11.601562 103.0625 11.445312 102.867188 11.328125 C 102.671875 11.203125 102.441406 11.132812 102.183594 11.132812 C 101.761719 11.132812 101.402344 11.269531 101.089844 11.542969 C 100.785156 11.804688 100.640625 12.3125 100.640625 13.066406 L 100.640625 16.25 Z M 99.644531 16.25 "/>
<path style=" stroke:none;fill-rule:nonzero;fill:rgb(0%,0%,0%);fill-opacity:1;" d="M 109.710938 14.121094 L 110.6875 14.238281 C 110.578125 14.917969 110.304688 15.445312 109.867188 15.820312 C 109.421875 16.203125 108.878906 16.386719 108.246094 16.386719 C 107.449219 16.386719 106.808594 16.128906 106.332031 15.605469 C 105.847656 15.085938 105.609375 14.335938 105.609375 13.359375 C 105.609375 12.726562 105.710938 12.167969 105.921875 11.699219 C 106.125 11.230469 106.4375 10.878906 106.859375 10.644531 C 107.289062 10.410156 107.757812 10.292969 108.265625 10.292969 C 108.890625 10.292969 109.402344 10.460938 109.808594 10.78125 C 110.207031 11.09375 110.472656 11.542969 110.589844 12.128906 L 109.632812 12.285156 C 109.539062 11.894531 109.378906 11.601562 109.144531 11.40625 C 108.910156 11.203125 108.625 11.09375 108.304688 11.09375 C 107.796875 11.09375 107.386719 11.28125 107.074219 11.640625 C 106.769531 11.992188 106.625 12.554688 106.625 13.320312 C 106.625 14.117188 106.769531 14.6875 107.074219 15.039062 C 107.371094 15.390625 107.761719 15.566406 108.246094 15.566406 C 108.636719 15.566406 108.957031 15.449219 109.222656 15.214844 C 109.480469 14.980469 109.640625 14.617188 109.710938 14.121094 Z M 109.710938 14.121094 "/>
<path style=" stroke:none;fill-rule:nonzero;fill:rgb(0%,0%,0%);fill-opacity:1;" d="M 111.15625 13.339844 C 111.15625 12.261719 111.453125 11.460938 112.054688 10.9375 C 112.5625 10.507812 113.171875 10.292969 113.890625 10.292969 C 114.695312 10.292969 115.355469 10.554688 115.863281 11.074219 C 116.371094 11.597656 116.625 12.320312 116.625 13.242188 C 116.625 14 116.507812 14.589844 116.273438 15.019531 C 116.046875 15.449219 115.726562 15.789062 115.296875 16.035156 C 114.867188 16.269531 114.398438 16.386719 113.890625 16.386719 C 113.070312 16.386719 112.40625 16.128906 111.898438 15.605469 C 111.398438 15.074219 111.15625 14.316406 111.15625 13.339844 Z M 112.171875 13.339844 C 112.171875 14.082031 112.332031 14.644531 112.660156 15.019531 C 112.980469 15.386719 113.390625 15.566406 113.890625 15.566406 C 114.382812 15.566406 114.792969 15.386719 115.121094 15.019531 C 115.441406 14.644531 115.609375 14.070312 115.609375 13.300781 C 115.609375 12.585938 115.441406 12.039062 115.121094 11.660156 C 114.792969 11.285156 114.382812 11.09375 113.890625 11.09375 C 113.390625 11.09375 112.980469 11.285156 112.660156 11.660156 C 112.332031 12.027344 112.171875 12.585938 112.171875 13.339844 Z M 112.171875 13.339844 "/>
<path style=" stroke:none;fill-rule:nonzero;fill:rgb(0%,0%,0%);fill-opacity:1;" d="M 121.574219 16.25 L 121.574219 15.507812 C 121.191406 16.09375 120.644531 16.386719 119.933594 16.386719 C 119.472656 16.386719 119.054688 16.253906 118.664062 15.996094 C 118.273438 15.738281 117.964844 15.382812 117.746094 14.921875 C 117.535156 14.46875 117.433594 13.941406 117.433594 13.339844 C 117.433594 12.753906 117.53125 12.226562 117.726562 11.757812 C 117.921875 11.28125 118.203125 10.914062 118.585938 10.664062 C 118.976562 10.421875 119.410156 10.292969 119.894531 10.292969 C 120.246094 10.292969 120.558594 10.367188 120.832031 10.507812 C 121.105469 10.65625 121.324219 10.851562 121.496094 11.09375 L 121.496094 8.203125 L 122.492188 8.203125 L 122.492188 16.25 Z M 118.449219 13.339844 C 118.449219 14.082031 118.605469 14.644531 118.917969 15.019531 C 119.230469 15.386719 119.601562 15.566406 120.03125 15.566406 C 120.460938 15.566406 120.820312 15.390625 121.125 15.039062 C 121.4375 14.6875 121.59375 14.148438 121.59375 13.417969 C 121.59375 12.625 121.4375 12.039062 121.125 11.660156 C 120.8125 11.285156 120.429688 11.09375 119.992188 11.09375 C 119.546875 11.09375 119.175781 11.28125 118.878906 11.640625 C 118.589844 12.007812 118.449219 12.574219 118.449219 13.339844 Z M 118.449219 13.339844 "/>
<path style=" stroke:none;fill-rule:nonzero;fill:rgb(0%,0%,0%);fill-opacity:1;" d="M 128.023438 14.375 L 129.058594 14.492188 C 128.890625 15.09375 128.582031 15.5625 128.140625 15.898438 C 127.710938 16.226562 127.15625 16.386719 126.480469 16.386719 C 125.632812 16.386719 124.957031 16.128906 124.449219 15.605469 C 123.953125 15.074219 123.707031 14.332031 123.707031 13.378906 C 123.707031 12.402344 123.960938 11.648438 124.46875 11.113281 C 124.976562 10.566406 125.632812 10.292969 126.441406 10.292969 C 127.222656 10.292969 127.855469 10.5625 128.335938 11.09375 C 128.832031 11.617188 129.078125 12.359375 129.078125 13.320312 C 129.078125 13.390625 129.078125 13.476562 129.078125 13.59375 L 124.722656 13.59375 C 124.761719 14.234375 124.945312 14.722656 125.269531 15.058594 C 125.59375 15.398438 126.003906 15.566406 126.5 15.566406 C 126.863281 15.566406 127.171875 15.476562 127.417969 15.292969 C 127.679688 15.097656 127.878906 14.796875 128.023438 14.375 Z M 124.78125 12.773438 L 128.042969 12.773438 C 128.003906 12.28125 127.878906 11.910156 127.671875 11.660156 C 127.359375 11.285156 126.949219 11.09375 126.441406 11.09375 C 125.984375 11.09375 125.601562 11.25 125.289062 11.5625 C 124.988281 11.867188 124.820312 12.265625 124.78125 12.773438 Z M 124.78125 12.773438 "/>
<path style=" stroke:none;fill-rule:nonzero;fill:rgb(0%,0%,0%);fill-opacity:1;" d="M 130.277344 16.25 L 130.277344 10.410156 L 131.175781 10.410156 L 131.175781 11.308594 C 131.398438 10.894531 131.605469 10.621094 131.800781 10.488281 C 131.996094 10.359375 132.210938 10.292969 132.445312 10.292969 C 132.769531 10.292969 133.109375 10.398438 133.460938 10.605469 L 133.109375 11.523438 C 132.875 11.382812 132.632812 11.308594 132.386719 11.308594 C 132.179688 11.308594 131.984375 11.375 131.800781 11.503906 C 131.632812 11.636719 131.507812 11.816406 131.429688 12.050781 C 131.324219 12.402344 131.273438 12.789062 131.273438 13.203125 L 131.273438 16.25 Z M 130.277344 16.25 "/>
<path style=" stroke:none;fill-rule:nonzero;fill:rgb(0%,0%,0%);fill-opacity:1;" d="M 316.945312 16.25 L 316.945312 8.203125 L 319.71875 8.203125 C 320.355469 8.203125 320.839844 8.242188 321.164062 8.320312 C 321.621094 8.429688 322.011719 8.613281 322.335938 8.886719 C 322.765625 9.253906 323.085938 9.71875 323.292969 10.273438 C 323.5 10.820312 323.605469 11.460938 323.605469 12.1875 C 323.605469 12.804688 323.535156 13.339844 323.390625 13.808594 C 323.246094 14.277344 323.066406 14.667969 322.84375 14.980469 C 322.621094 15.292969 322.375 15.542969 322.101562 15.722656 C 321.839844 15.894531 321.523438 16.023438 321.144531 16.113281 C 320.78125 16.207031 320.351562 16.25 319.855469 16.25 Z M 318.019531 15.292969 L 319.738281 15.292969 C 320.273438 15.292969 320.6875 15.25 320.988281 15.15625 C 321.289062 15.054688 321.527344 14.914062 321.710938 14.726562 C 321.957031 14.484375 322.152344 14.140625 322.296875 13.710938 C 322.441406 13.28125 322.511719 12.769531 322.511719 12.167969 C 322.511719 11.324219 322.375 10.679688 322.101562 10.234375 C 321.828125 9.78125 321.488281 9.472656 321.085938 9.316406 C 320.800781 9.199219 320.34375 9.140625 319.71875 9.140625 L 318.019531 9.140625 Z M 318.019531 15.292969 "/>
<path style=" stroke:none;fill-rule:nonzero;fill:rgb(0%,0%,0%);fill-opacity:1;" d="M 328.9375 14.375 L 329.972656 14.492188 C 329.804688 15.09375 329.496094 15.5625 329.054688 15.898438 C 328.625 16.226562 328.070312 16.386719 327.394531 16.386719 C 326.546875 16.386719 325.871094 16.128906 325.363281 15.605469 C 324.867188 15.074219 324.621094 14.332031 324.621094 13.378906 C 324.621094 12.402344 324.875 11.648438 325.382812 11.113281 C 325.890625 10.566406 326.546875 10.292969 327.355469 10.292969 C 328.136719 10.292969 328.769531 10.5625 329.25 11.09375 C 329.746094 11.617188 329.992188 12.359375 329.992188 13.320312 C 329.992188 13.390625 329.992188 13.476562 329.992188 13.59375 L 325.636719 13.59375 C 325.675781 14.234375 325.859375 14.722656 326.183594 15.058594 C 326.507812 15.398438 326.917969 15.566406 327.414062 15.566406 C 327.777344 15.566406 328.085938 15.476562 328.332031 15.292969 C 328.59375 15.097656 328.792969 14.796875 328.9375 14.375 Z M 325.695312 12.773438 L 328.957031 12.773438 C 328.917969 12.28125 328.792969 11.910156 328.585938 11.660156 C 328.273438 11.285156 327.863281 11.09375 327.355469 11.09375 C 326.898438 11.09375 326.515625 11.25 326.203125 11.5625 C 325.902344 11.867188 325.734375 12.265625 325.695312 12.773438 Z M 325.695312 12.773438 "/>
<path style=" stroke:none;fill-rule:nonzero;fill:rgb(0%,0%,0%);fill-opacity:1;" d="M 335.019531 14.121094 L 335.996094 14.238281 C 335.890625 14.917969 335.617188 15.445312 335.175781 15.820312 C 334.730469 16.203125 334.191406 16.386719 333.554688 16.386719 C 332.757812 16.386719 332.121094 16.128906 331.640625 15.605469 C 331.15625 15.085938 330.917969 14.335938 330.917969 13.359375 C 330.917969 12.726562 331.019531 12.167969 331.230469 11.699219 C 331.4375 11.230469 331.75 10.878906 332.167969 10.644531 C 332.597656 10.410156 333.066406 10.292969 333.574219 10.292969 C 334.199219 10.292969 334.710938 10.460938 335.117188 10.78125 C 335.519531 11.09375 335.78125 11.542969 335.898438 12.128906 L 334.941406 12.285156 C 334.847656 11.894531 334.6875 11.601562 334.453125 11.40625 C 334.21875 11.203125 333.9375 11.09375 333.613281 11.09375 C 333.105469 11.09375 332.695312 11.28125 332.382812 11.640625 C 332.082031 11.992188 331.933594 12.554688 331.933594 13.320312 C 331.933594 14.117188 332.082031 14.6875 332.382812 15.039062 C 332.679688 15.390625 333.070312 15.566406 333.554688 15.566406 C 333.945312 15.566406 334.269531 15.449219 334.53125 15.214844 C 334.789062 14.980469 334.953125 14.617188 335.019531 14.121094 Z M 335.019531 14.121094 "/>
<path style=" stroke:none;fill-rule:nonzero;fill:rgb(0%,0%,0%);fill-opacity:1;" d="M 336.464844 13.339844 C 336.464844 12.261719 336.761719 11.460938 337.363281 10.9375 C 337.871094 10.507812 338.480469 10.292969 339.199219 10.292969 C 340.003906 10.292969 340.664062 10.554688 341.171875 11.074219 C 341.679688 11.597656 341.933594 12.320312 341.933594 13.242188 C 341.933594 14 341.816406 14.589844 341.582031 15.019531 C 341.359375 15.449219 341.035156 15.789062 340.605469 16.035156 C 340.175781 16.269531 339.707031 16.386719 339.199219 16.386719 C 338.378906 16.386719 337.714844 16.128906 337.207031 15.605469 C 336.710938 15.074219 336.464844 14.316406 336.464844 13.339844 Z M 337.480469 13.339844 C 337.480469 14.082031 337.640625 14.644531 337.96875 15.019531 C 338.292969 15.386719 338.703125 15.566406 339.199219 15.566406 C 339.691406 15.566406 340.101562 15.386719 340.429688 15.019531 C 340.753906 14.644531 340.917969 14.070312 340.917969 13.300781 C 340.917969 12.585938 340.753906 12.039062 340.429688 11.660156 C 340.101562 11.285156 339.691406 11.09375 339.199219 11.09375 C 338.703125 11.09375 338.292969 11.285156 337.96875 11.660156 C 337.640625 12.027344 337.480469 12.585938 337.480469 13.339844 Z M 337.480469 13.339844 "/>
<path style=" stroke:none;fill-rule:nonzero;fill:rgb(0%,0%,0%);fill-opacity:1;" d="M 346.882812 16.25 L 346.882812 15.507812 C 346.503906 16.09375 345.957031 16.386719 345.242188 16.386719 C 344.785156 16.386719 344.363281 16.253906 343.972656 15.996094 C 343.582031 15.738281 343.273438 15.382812 343.054688 14.921875 C 342.84375 14.46875 342.742188 13.941406 342.742188 13.339844 C 342.742188 12.753906 342.839844 12.226562 343.035156 11.757812 C 343.230469 11.28125 343.515625 10.914062 343.894531 10.664062 C 344.285156 10.421875 344.71875 10.292969 345.203125 10.292969 C 345.554688 10.292969 345.867188 10.367188 346.140625 10.507812 C 346.414062 10.65625 346.632812 10.851562 346.804688 11.09375 L 346.804688 8.203125 L 347.800781 8.203125 L 347.800781 16.25 Z M 343.757812 13.339844 C 343.757812 14.082031 343.914062 14.644531 344.226562 15.019531 C 344.539062 15.386719 344.910156 15.566406 345.339844 15.566406 C 345.769531 15.566406 346.132812 15.390625 346.433594 15.039062 C 346.746094 14.6875 346.902344 14.148438 346.902344 13.417969 C 346.902344 12.625 346.746094 12.039062 346.433594 11.660156 C 346.121094 11.285156 345.742188 11.09375 345.300781 11.09375 C 344.855469 11.09375 344.484375 11.28125 344.1875 11.640625 C 343.898438 12.007812 343.757812 12.574219 343.757812 13.339844 Z M 343.757812 13.339844 "/>
<path style=" stroke:none;fill-rule:nonzero;fill:rgb(0%,0%,0%);fill-opacity:1;" d="M 353.335938 14.375 L 354.371094 14.492188 C 354.199219 15.09375 353.890625 15.5625 353.453125 15.898438 C 353.023438 16.226562 352.464844 16.386719 351.792969 16.386719 C 350.941406 16.386719 350.269531 16.128906 349.761719 15.605469 C 349.261719 15.074219 349.019531 14.332031 349.019531 13.378906 C 349.019531 12.402344 349.273438 11.648438 349.78125 11.113281 C 350.289062 10.566406 350.941406 10.292969 351.753906 10.292969 C 352.535156 10.292969 353.164062 10.5625 353.648438 11.09375 C 354.140625 11.617188 354.390625 12.359375 354.390625 13.320312 C 354.390625 13.390625 354.390625 13.476562 354.390625 13.59375 L 350.035156 13.59375 C 350.074219 14.234375 350.253906 14.722656 350.582031 15.058594 C 350.902344 15.398438 351.3125 15.566406 351.8125 15.566406 C 352.171875 15.566406 352.480469 15.476562 352.730469 15.292969 C 352.988281 15.097656 353.1875 14.796875 353.335938 14.375 Z M 350.09375 12.773438 L 353.355469 12.773438 C 353.316406 12.28125 353.1875 11.910156 352.984375 11.660156 C 352.671875 11.285156 352.261719 11.09375 351.753906 11.09375 C 351.292969 11.09375 350.914062 11.25 350.601562 11.5625 C 350.296875 11.867188 350.132812 12.265625 350.09375 12.773438 Z M 350.09375 12.773438 "/>
<path style=" stroke:none;fill-rule:nonzero;fill:rgb(0%,0%,0%);fill-opacity:1;" d="M 355.589844 16.25 L 355.589844 10.410156 L 356.488281 10.410156 L 356.488281 11.308594 C 356.707031 10.894531 356.917969 10.621094 357.113281 10.488281 C 357.308594 10.359375 357.523438 10.292969 357.757812 10.292969 C 358.078125 10.292969 358.421875 10.398438 358.773438 10.605469 L 358.421875 11.523438 C 358.1875 11.382812 357.941406 11.308594 357.699219 11.308594 C 357.488281 11.308594 357.292969 11.375 357.113281 11.503906 C 356.941406 11.636719 356.820312 11.816406 356.742188 12.050781 C 356.632812 12.402344 356.585938 12.789062 356.585938 13.203125 L 356.585938 16.25 Z M 355.589844 16.25 "/>
<path style=" stroke:none;fill-rule:nonzero;fill:rgb(0%,0%,0%);fill-opacity:1;" d="M 239.511719 130.019531 L 239.511719 129.082031 L 244.84375 126.835938 L 244.84375 127.8125 L 240.605469 129.550781 L 244.84375 131.308594 L 244.84375 132.285156 Z M 239.511719 130.019531 "/>
<path style=" stroke:none;fill-rule:nonzero;fill:rgb(0%,0%,0%);fill-opacity:1;" d="M 247.117188 133.535156 L 246.199219 133.535156 L 246.199219 125.488281 L 247.175781 125.488281 L 247.175781 128.359375 C 247.589844 127.84375 248.121094 127.578125 248.777344 127.578125 C 249.136719 127.578125 249.480469 127.652344 249.792969 127.792969 C 250.113281 127.941406 250.382812 128.140625 250.59375 128.398438 C 250.796875 128.664062 250.964844 128.980469 251.082031 129.355469 C 251.199219 129.722656 251.257812 130.113281 251.257812 130.527344 C 251.257812 131.535156 251.007812 132.304688 250.515625 132.851562 C 250.015625 133.398438 249.425781 133.671875 248.738281 133.671875 C 248.042969 133.671875 247.507812 133.390625 247.117188 132.8125 Z M 247.097656 130.566406 C 247.097656 131.269531 247.195312 131.777344 247.390625 132.089844 C 247.703125 132.597656 248.117188 132.851562 248.640625 132.851562 C 249.078125 132.851562 249.460938 132.667969 249.773438 132.285156 C 250.085938 131.910156 250.242188 131.347656 250.242188 130.605469 C 250.242188 129.855469 250.089844 129.292969 249.792969 128.925781 C 249.488281 128.566406 249.128906 128.378906 248.699219 128.378906 C 248.253906 128.378906 247.878906 128.570312 247.566406 128.945312 C 247.253906 129.328125 247.097656 129.863281 247.097656 130.566406 Z M 247.097656 130.566406 "/>
<path style=" stroke:none;fill-rule:nonzero;fill:rgb(0%,0%,0%);fill-opacity:1;" d="M 252.085938 130.625 C 252.085938 129.546875 252.382812 128.746094 252.984375 128.222656 C 253.492188 127.792969 254.101562 127.578125 254.820312 127.578125 C 255.625 127.578125 256.285156 127.84375 256.792969 128.359375 C 257.300781 128.882812 257.554688 129.605469 257.554688 130.527344 C 257.554688 131.285156 257.4375 131.875 257.203125 132.304688 C 256.976562 132.734375 256.65625 133.078125 256.226562 133.320312 C 255.796875 133.554688 255.328125 133.671875 254.820312 133.671875 C 254 133.671875 253.335938 133.414062 252.828125 132.890625 C 252.328125 132.359375 252.085938 131.601562 252.085938 130.625 Z M 253.101562 130.625 C 253.101562 131.367188 253.261719 131.929688 253.589844 132.304688 C 253.910156 132.671875 254.320312 132.851562 254.820312 132.851562 C 255.3125 132.851562 255.722656 132.671875 256.050781 132.304688 C 256.371094 131.929688 256.539062 131.359375 256.539062 130.585938 C 256.539062 129.875 256.371094 129.328125 256.050781 128.945312 C 255.722656 128.570312 255.3125 128.378906 254.820312 128.378906 C 254.320312 128.378906 253.910156 128.570312 253.589844 128.945312 C 253.261719 129.3125 253.101562 129.875 253.101562 130.625 Z M 253.101562 130.625 "/>
<path style=" stroke:none;fill-rule:nonzero;fill:rgb(0%,0%,0%);fill-opacity:1;" d="M 258.320312 131.796875 L 259.296875 131.640625 C 259.347656 132.03125 259.5 132.335938 259.746094 132.539062 C 260.007812 132.75 260.359375 132.851562 260.800781 132.851562 C 261.257812 132.851562 261.59375 132.765625 261.816406 132.578125 C 262.039062 132.398438 262.148438 132.183594 262.148438 131.933594 C 262.148438 131.699219 262.050781 131.523438 261.855469 131.40625 C 261.710938 131.320312 261.375 131.203125 260.839844 131.054688 C 260.109375 130.875 259.601562 130.71875 259.316406 130.585938 C 259.042969 130.460938 258.835938 130.273438 258.691406 130.039062 C 258.546875 129.804688 258.476562 129.546875 258.476562 129.257812 C 258.476562 129 258.535156 128.761719 258.652344 128.535156 C 258.769531 128.316406 258.933594 128.125 259.140625 127.96875 C 259.296875 127.867188 259.503906 127.773438 259.765625 127.695312 C 260.039062 127.617188 260.324219 127.578125 260.625 127.578125 C 261.082031 127.578125 261.476562 127.648438 261.816406 127.773438 C 262.167969 127.90625 262.429688 128.082031 262.597656 128.300781 C 262.765625 128.527344 262.882812 128.824219 262.949219 129.199219 L 261.972656 129.335938 C 261.933594 129.039062 261.804688 128.804688 261.582031 128.632812 C 261.375 128.46875 261.082031 128.378906 260.703125 128.378906 C 260.246094 128.378906 259.921875 128.457031 259.726562 128.613281 C 259.53125 128.761719 259.433594 128.9375 259.433594 129.140625 C 259.433594 129.273438 259.472656 129.386719 259.550781 129.472656 C 259.628906 129.589844 259.757812 129.683594 259.941406 129.746094 C 260.03125 129.785156 260.320312 129.875 260.800781 130 C 261.503906 130.1875 261.992188 130.332031 262.265625 130.449219 C 262.550781 130.566406 262.773438 130.742188 262.929688 130.976562 C 263.085938 131.203125 263.164062 131.480469 263.164062 131.816406 C 263.164062 132.160156 263.066406 132.472656 262.871094 132.753906 C 262.675781 133.042969 262.394531 133.273438 262.03125 133.4375 C 261.679688 133.59375 261.269531 133.671875 260.800781 133.671875 C 260.046875 133.671875 259.464844 133.515625 259.0625 133.203125 C 258.671875 132.882812 258.425781 132.414062 258.320312 131.796875 Z M 258.320312 131.796875 "/>
<path style=" stroke:none;fill-rule:nonzero;fill:rgb(0%,0%,0%);fill-opacity:1;" d="M 269.550781 130.019531 L 264.21875 132.285156 L 264.21875 131.308594 L 268.4375 129.550781 L 264.21875 127.8125 L 264.21875 126.835938 L 269.550781 129.082031 Z M 269.550781 130.019531 "/>
<path style="fill:none;stroke-width:1;stroke-linecap:round;stroke-linejoin:round;stroke:rgb(0%,0%,0%);stroke-opacity:1;stroke-miterlimit:10;" d="M 766.925 624.340625 L 813.371875 624.08125 C 816.671875 624.065625 819.340625 621.38125 819.340625 618.08125 L 819.340625 615.95 " transform="matrix(1.25,0,0,1.25,-705,-670)"/>
<path style="fill:none;stroke-width:1;stroke-linecap:butt;stroke-linejoin:miter;stroke:rgb(0%,0%,0%);stroke-opacity:1;stroke-miterlimit:10;" d="M 819.340625 611.95 L 819.340625 615.95 M 817.840625 615.95 L 819.340625 611.95 L 820.840625 615.95 " transform="matrix(1.25,0,0,1.25,-705,-670)"/>
<path style="fill:none;stroke-width:1;stroke-linecap:round;stroke-linejoin:round;stroke:rgb(0%,0%,0%);stroke-opacity:1;stroke-miterlimit:10;" d="M 800.690625 624.140625 L 856.70625 623.909375 C 860.0125 623.9 862.684375 621.215625 862.684375 617.909375 L 862.684375 615.784375 " transform="matrix(1.25,0,0,1.25,-705,-670)"/>
<path style="fill:none;stroke-width:1;stroke-linecap:butt;stroke-linejoin:miter;stroke:rgb(0%,0%,0%);stroke-opacity:1;stroke-miterlimit:10;" d="M 862.684375 611.784375 L 862.684375 615.784375 M 861.184375 615.784375 L 862.684375 611.784375 L 864.184375 615.784375 " transform="matrix(1.25,0,0,1.25,-705,-670)"/>
<path style="fill:none;stroke-width:1;stroke-linecap:round;stroke-linejoin:round;stroke:rgb(0%,0%,0%);stroke-opacity:1;stroke-miterlimit:10;" d="M 843.171875 623.93125 L 899.1875 623.7 C 902.49375 623.6875 905.1625 621.003125 905.1625 617.7 L 905.1625 615.575 " transform="matrix(1.25,0,0,1.25,-705,-670)"/>
<path style="fill:none;stroke-width:1;stroke-linecap:butt;stroke-linejoin:miter;stroke:rgb(0%,0%,0%);stroke-opacity:1;stroke-miterlimit:10;" d="M 905.1625 611.575 L 905.1625 615.575 M 903.6625 615.575 L 905.1625 611.575 L 906.6625 615.575 " transform="matrix(1.25,0,0,1.25,-705,-670)"/>
<path style=" stroke:none;fill-rule:nonzero;fill:rgb(0%,0%,0%);fill-opacity:1;" d="M 303.167969 133.535156 L 303.167969 125.488281 L 304.222656 125.488281 L 304.222656 133.535156 Z M 303.167969 133.535156 "/>
<path style=" stroke:none;fill-rule:nonzero;fill:rgb(0%,0%,0%);fill-opacity:1;" d="M 305.960938 133.535156 L 305.960938 125.488281 L 306.9375 125.488281 L 306.9375 133.535156 Z M 305.960938 133.535156 "/>
<path style=" stroke:none;fill-rule:nonzero;fill:rgb(0%,0%,0%);fill-opacity:1;" d="M 308.085938 131.796875 L 309.0625 131.640625 C 309.113281 132.03125 309.261719 132.335938 309.511719 132.539062 C 309.769531 132.75 310.121094 132.851562 310.566406 132.851562 C 311.019531 132.851562 311.359375 132.765625 311.582031 132.578125 C 311.800781 132.398438 311.914062 132.183594 311.914062 131.933594 C 311.914062 131.699219 311.816406 131.523438 311.621094 131.40625 C 311.476562 131.320312 311.136719 131.203125 310.605469 131.054688 C 309.875 130.875 309.367188 130.71875 309.082031 130.585938 C 308.808594 130.460938 308.597656 130.273438 308.457031 130.039062 C 308.3125 129.804688 308.242188 129.546875 308.242188 129.257812 C 308.242188 129 308.300781 128.761719 308.417969 128.535156 C 308.535156 128.316406 308.695312 128.125 308.90625 127.96875 C 309.0625 127.867188 309.269531 127.773438 309.53125 127.695312 C 309.804688 127.617188 310.089844 127.578125 310.390625 127.578125 C 310.84375 127.578125 311.242188 127.648438 311.582031 127.773438 C 311.933594 127.90625 312.191406 128.082031 312.363281 128.300781 C 312.53125 128.527344 312.648438 128.824219 312.714844 129.199219 L 311.738281 129.335938 C 311.699219 129.039062 311.566406 128.804688 311.347656 128.632812 C 311.136719 128.46875 310.84375 128.378906 310.46875 128.378906 C 310.011719 128.378906 309.6875 128.457031 309.492188 128.613281 C 309.296875 128.761719 309.199219 128.9375 309.199219 129.140625 C 309.199219 129.273438 309.238281 129.386719 309.316406 129.472656 C 309.394531 129.589844 309.523438 129.683594 309.707031 129.746094 C 309.796875 129.785156 310.082031 129.875 310.566406 130 C 311.269531 130.1875 311.757812 130.332031 312.03125 130.449219 C 312.316406 130.566406 312.539062 130.742188 312.695312 130.976562 C 312.851562 131.203125 312.929688 131.480469 312.929688 131.816406 C 312.929688 132.160156 312.832031 132.472656 312.636719 132.753906 C 312.441406 133.042969 312.160156 133.273438 311.796875 133.4375 C 311.445312 133.59375 311.035156 133.671875 310.566406 133.671875 C 309.808594 133.671875 309.230469 133.515625 308.828125 133.203125 C 308.4375 132.882812 308.1875 132.414062 308.085938 131.796875 Z M 308.085938 131.796875 "/>
<path style=" stroke:none;fill-rule:nonzero;fill:rgb(0%,0%,0%);fill-opacity:1;" d="M 336.347656 133.535156 L 336.347656 127.695312 L 337.246094 127.695312 L 337.246094 128.59375 C 337.464844 128.179688 337.675781 127.90625 337.871094 127.773438 C 338.066406 127.648438 338.28125 127.578125 338.515625 127.578125 C 338.835938 127.578125 339.179688 127.6875 339.53125 127.890625 L 339.179688 128.808594 C 338.945312 128.667969 338.703125 128.59375 338.457031 128.59375 C 338.246094 128.59375 338.050781 128.664062 337.871094 128.789062 C 337.699219 128.921875 337.578125 129.101562 337.5 129.335938 C 337.390625 129.6875 337.34375 130.074219 337.34375 130.488281 L 337.34375 133.535156 Z M 336.347656 133.535156 "/>
<path style=" stroke:none;fill-rule:nonzero;fill:rgb(0%,0%,0%);fill-opacity:1;" d="M 344.097656 131.660156 L 345.132812 131.777344 C 344.960938 132.378906 344.65625 132.847656 344.214844 133.183594 C 343.785156 133.511719 343.230469 133.671875 342.554688 133.671875 C 341.707031 133.671875 341.03125 133.414062 340.523438 132.890625 C 340.027344 132.359375 339.78125 131.617188 339.78125 130.664062 C 339.78125 129.6875 340.035156 128.9375 340.542969 128.398438 C 341.050781 127.851562 341.707031 127.578125 342.515625 127.578125 C 343.296875 127.578125 343.925781 127.847656 344.410156 128.378906 C 344.902344 128.902344 345.152344 129.644531 345.152344 130.605469 C 345.152344 130.675781 345.152344 130.761719 345.152344 130.878906 L 340.796875 130.878906 C 340.835938 131.519531 341.015625 132.007812 341.34375 132.34375 C 341.667969 132.6875 342.078125 132.851562 342.574219 132.851562 C 342.9375 132.851562 343.242188 132.765625 343.492188 132.578125 C 343.75 132.382812 343.953125 132.082031 344.097656 131.660156 Z M 340.855469 130.058594 L 344.117188 130.058594 C 344.078125 129.566406 343.953125 129.195312 343.746094 128.945312 C 343.433594 128.570312 343.023438 128.378906 342.515625 128.378906 C 342.058594 128.378906 341.675781 128.535156 341.363281 128.847656 C 341.0625 129.152344 340.894531 129.550781 340.855469 130.058594 Z M 340.855469 130.058594 "/>
<path style=" stroke:none;fill-rule:nonzero;fill:rgb(0%,0%,0%);fill-opacity:1;" d="M 346.195312 134.023438 L 347.152344 134.160156 C 347.191406 134.460938 347.296875 134.675781 347.484375 134.804688 C 347.726562 134.988281 348.070312 135.078125 348.5 135.078125 C 348.953125 135.078125 349.304688 134.988281 349.554688 134.804688 C 349.796875 134.621094 349.96875 134.367188 350.0625 134.042969 C 350.109375 133.835938 350.128906 133.414062 350.121094 132.773438 C 349.691406 133.28125 349.152344 133.535156 348.519531 133.535156 C 347.707031 133.535156 347.082031 133.253906 346.644531 132.675781 C 346.214844 132.089844 346 131.398438 346 130.585938 C 346 130.03125 346.097656 129.511719 346.292969 129.042969 C 346.496094 128.574219 346.789062 128.21875 347.171875 127.96875 C 347.546875 127.710938 347.996094 127.578125 348.519531 127.578125 C 349.207031 127.578125 349.773438 127.851562 350.21875 128.398438 L 350.21875 127.695312 L 351.136719 127.695312 L 351.136719 132.734375 C 351.136719 133.644531 351.039062 134.289062 350.84375 134.667969 C 350.65625 135.046875 350.363281 135.34375 349.964844 135.566406 C 349.574219 135.789062 349.085938 135.898438 348.5 135.898438 C 347.796875 135.898438 347.230469 135.742188 346.800781 135.429688 C 346.378906 135.117188 346.179688 134.648438 346.195312 134.023438 Z M 347.015625 130.507812 C 347.015625 131.28125 347.160156 131.835938 347.464844 132.1875 C 347.761719 132.539062 348.136719 132.714844 348.597656 132.714844 C 349.050781 132.714844 349.4375 132.539062 349.75 132.1875 C 350.0625 131.835938 350.21875 131.289062 350.21875 130.546875 C 350.21875 129.835938 350.050781 129.292969 349.730469 128.925781 C 349.417969 128.566406 349.035156 128.378906 348.597656 128.378906 C 348.152344 128.378906 347.777344 128.566406 347.464844 128.925781 C 347.160156 129.277344 347.015625 129.804688 347.015625 130.507812 Z M 347.015625 130.507812 "/>
<path style=" stroke:none;fill-rule:nonzero;fill:rgb(0%,0%,0%);fill-opacity:1;" d="M 356.4375 132.8125 C 356.070312 133.125 355.71875 133.351562 355.382812 133.476562 C 355.039062 133.605469 354.679688 133.671875 354.289062 133.671875 C 353.648438 133.671875 353.15625 133.515625 352.804688 133.203125 C 352.460938 132.890625 352.296875 132.492188 352.296875 131.992188 C 352.296875 131.710938 352.359375 131.445312 352.492188 131.210938 C 352.617188 130.976562 352.789062 130.792969 353 130.644531 C 353.203125 130.503906 353.4375 130.390625 353.703125 130.3125 C 353.898438 130.273438 354.191406 130.230469 354.582031 130.175781 C 355.386719 130.089844 355.976562 129.972656 356.359375 129.824219 C 356.359375 129.699219 356.359375 129.609375 356.359375 129.570312 C 356.359375 129.171875 356.265625 128.886719 356.085938 128.730469 C 355.820312 128.496094 355.445312 128.378906 354.953125 128.378906 C 354.484375 128.378906 354.136719 128.46875 353.917969 128.632812 C 353.691406 128.789062 353.53125 129.078125 353.429688 129.492188 L 352.472656 129.375 C 352.550781 128.960938 352.6875 128.628906 352.882812 128.378906 C 353.085938 128.121094 353.378906 127.925781 353.761719 127.792969 C 354.152344 127.652344 354.589844 127.578125 355.089844 127.578125 C 355.597656 127.578125 355.996094 127.636719 356.300781 127.753906 C 356.613281 127.871094 356.835938 128.023438 356.984375 128.203125 C 357.140625 128.375 357.242188 128.59375 357.296875 128.867188 C 357.335938 129.039062 357.355469 129.335938 357.355469 129.765625 L 357.355469 131.09375 C 357.355469 132.007812 357.375 132.589844 357.414062 132.832031 C 357.453125 133.082031 357.535156 133.316406 357.667969 133.535156 L 356.632812 133.535156 C 356.523438 133.332031 356.460938 133.085938 356.4375 132.8125 Z M 356.359375 130.605469 C 355.992188 130.753906 355.449219 130.875 354.738281 130.976562 C 354.332031 131.046875 354.042969 131.113281 353.878906 131.191406 C 353.707031 131.261719 353.574219 131.363281 353.488281 131.503906 C 353.394531 131.652344 353.351562 131.808594 353.351562 131.972656 C 353.351562 132.238281 353.449219 132.457031 353.644531 132.636719 C 353.839844 132.808594 354.132812 132.890625 354.523438 132.890625 C 354.898438 132.890625 355.234375 132.808594 355.539062 132.636719 C 355.835938 132.472656 356.054688 132.242188 356.203125 131.953125 C 356.304688 131.734375 356.359375 131.40625 356.359375 130.976562 Z M 356.359375 130.605469 "/>
<path style=" stroke:none;fill-rule:nonzero;fill:rgb(0%,0%,0%);fill-opacity:1;" d="M 358.867188 133.535156 L 358.867188 127.695312 L 359.765625 127.695312 L 359.765625 128.59375 C 359.984375 128.179688 360.195312 127.90625 360.390625 127.773438 C 360.585938 127.648438 360.800781 127.578125 361.035156 127.578125 C 361.355469 127.578125 361.699219 127.6875 362.050781 127.890625 L 361.699219 128.808594 C 361.464844 128.667969 361.21875 128.59375 360.976562 128.59375 C 360.765625 128.59375 360.570312 128.664062 360.390625 128.789062 C 360.21875 128.921875 360.097656 129.101562 360.019531 129.335938 C 359.910156 129.6875 359.863281 130.074219 359.863281 130.488281 L 359.863281 133.535156 Z M 358.867188 133.535156 "/>
<path style=" stroke:none;fill-rule:nonzero;fill:rgb(0%,0%,0%);fill-opacity:1;" d="M 366.421875 133.535156 L 366.421875 132.792969 C 366.039062 133.378906 365.492188 133.671875 364.78125 133.671875 C 364.320312 133.671875 363.902344 133.542969 363.511719 133.28125 C 363.121094 133.023438 362.8125 132.667969 362.59375 132.207031 C 362.382812 131.753906 362.28125 131.226562 362.28125 130.625 C 362.28125 130.039062 362.378906 129.511719 362.574219 129.042969 C 362.769531 128.566406 363.050781 128.199219 363.433594 127.949219 C 363.824219 127.707031 364.257812 127.578125 364.742188 127.578125 C 365.09375 127.578125 365.40625 127.652344 365.679688 127.792969 C 365.953125 127.941406 366.171875 128.136719 366.34375 128.378906 L 366.34375 125.488281 L 367.339844 125.488281 L 367.339844 133.535156 Z M 363.296875 130.625 C 363.296875 131.367188 363.453125 131.929688 363.765625 132.304688 C 364.078125 132.671875 364.449219 132.851562 364.878906 132.851562 C 365.308594 132.851562 365.667969 132.675781 365.972656 132.324219 C 366.285156 131.972656 366.441406 131.4375 366.441406 130.703125 C 366.441406 129.914062 366.285156 129.328125 365.972656 128.945312 C 365.660156 128.570312 365.277344 128.378906 364.839844 128.378906 C 364.394531 128.378906 364.023438 128.566406 363.726562 128.925781 C 363.4375 129.292969 363.296875 129.859375 363.296875 130.625 Z M 363.296875 130.625 "/>
<path style=" stroke:none;fill-rule:nonzero;fill:rgb(0%,0%,0%);fill-opacity:1;" d="M 372.875 131.660156 L 373.910156 131.777344 C 373.738281 132.378906 373.429688 132.847656 372.992188 133.183594 C 372.5625 133.511719 372.003906 133.671875 371.332031 133.671875 C 370.480469 133.671875 369.808594 133.414062 369.300781 132.890625 C 368.800781 132.359375 368.558594 131.617188 368.558594 130.664062 C 368.558594 129.6875 368.8125 128.9375 369.320312 128.398438 C 369.828125 127.851562 370.480469 127.578125 371.292969 127.578125 C 372.074219 127.578125 372.703125 127.847656 373.1875 128.378906 C 373.679688 128.902344 373.929688 129.644531 373.929688 130.605469 C 373.929688 130.675781 373.929688 130.761719 373.929688 130.878906 L 369.574219 130.878906 C 369.613281 131.519531 369.792969 132.007812 370.121094 132.34375 C 370.441406 132.6875 370.851562 132.851562 371.351562 132.851562 C 371.710938 132.851562 372.019531 132.765625 372.269531 132.578125 C 372.527344 132.382812 372.726562 132.082031 372.875 131.660156 Z M 369.632812 130.058594 L 372.894531 130.058594 C 372.855469 129.566406 372.726562 129.195312 372.523438 128.945312 C 372.210938 128.570312 371.800781 128.378906 371.292969 128.378906 C 370.832031 128.378906 370.453125 128.535156 370.140625 128.847656 C 369.835938 129.152344 369.671875 129.550781 369.632812 130.058594 Z M 369.632812 130.058594 "/>
<path style=" stroke:none;fill-rule:nonzero;fill:rgb(0%,0%,0%);fill-opacity:1;" d="M 375.144531 133.535156 L 375.144531 127.695312 L 376.042969 127.695312 L 376.042969 128.535156 C 376.460938 127.902344 377.078125 127.578125 377.898438 127.578125 C 378.25 127.578125 378.570312 127.648438 378.855469 127.773438 C 379.15625 127.890625 379.375 128.058594 379.519531 128.261719 C 379.664062 128.457031 379.765625 128.703125 379.832031 128.984375 C 379.871094 129.171875 379.890625 129.488281 379.890625 129.941406 L 379.890625 133.535156 L 378.894531 133.535156 L 378.894531 129.980469 C 378.894531 129.582031 378.855469 129.277344 378.777344 129.082031 C 378.699219 128.886719 378.5625 128.730469 378.367188 128.613281 C 378.171875 128.488281 377.945312 128.417969 377.683594 128.417969 C 377.265625 128.417969 376.902344 128.554688 376.589844 128.828125 C 376.289062 129.09375 376.140625 129.601562 376.140625 130.351562 L 376.140625 133.535156 Z M 375.144531 133.535156 "/>
<path style=" stroke:none;fill-rule:nonzero;fill:rgb(0%,0%,0%);fill-opacity:1;" d="M 383.570312 132.65625 L 383.707031 133.515625 C 383.417969 133.582031 383.171875 133.613281 382.964844 133.613281 C 382.597656 133.613281 382.320312 133.554688 382.125 133.4375 C 381.929688 133.320312 381.785156 133.175781 381.695312 132.988281 C 381.617188 132.808594 381.578125 132.421875 381.578125 131.835938 L 381.578125 128.476562 L 380.855469 128.476562 L 380.855469 127.695312 L 381.578125 127.695312 L 381.578125 126.25 L 382.574219 125.664062 L 382.574219 127.695312 L 383.570312 127.695312 L 383.570312 128.476562 L 382.574219 128.476562 L 382.574219 131.875 C 382.574219 132.164062 382.585938 132.34375 382.613281 132.421875 C 382.652344 132.5 382.710938 132.570312 382.789062 132.617188 C 382.867188 132.671875 382.976562 132.695312 383.121094 132.695312 C 383.238281 132.695312 383.386719 132.6875 383.570312 132.65625 Z M 383.570312 132.65625 "/>
<path style=" stroke:none;fill-rule:nonzero;fill:rgb(0%,0%,0%);fill-opacity:1;" d="M 413.082031 133.535156 L 413.082031 132.402344 L 414.214844 132.402344 L 414.214844 133.535156 Z M 413.082031 133.535156 "/>
</g>
</svg>
