<?xml version="1.0" encoding="UTF-8"?>
<svg xmlns="http://www.w3.org/2000/svg" xmlns:xlink="http://www.w3.org/1999/xlink" width="474pt" height="145pt" viewBox="0 0 474 145" version="1.1">
<g id="surface1">
<path style="fill-rule:nonzero;fill:rgb(40%,74.901961%,100%);fill-opacity:1;stroke-width:1;stroke-linecap:round;stroke-linejoin:round;stroke:rgb(0%,0%,0%);stroke-opacity:1;stroke-miterlimit:10;" d="M -215.753125 -192.45 L -132.715625 -192.45 L -132.715625 -173.55 L -215.753125 -173.55 Z M -215.753125 -192.45 " transform="matrix(1.25,0,0,1.25,271.25,301.25)"/>
<path style=" stroke:none;fill-rule:nonzero;fill:rgb(0%,0%,0%);fill-opacity:1;" d="M 33.539062 68.222656 C 33.285156 68.515625 32.972656 68.789062 32.582031 69.042969 C 32.191406 69.257812 31.820312 69.414062 31.449219 69.53125 L 31.449219 70.449219 C 32.210938 70.214844 32.835938 69.863281 33.34375 69.335938 L 33.34375 76.25 L 34.261719 76.25 L 34.261719 68.222656 Z M 33.539062 68.222656 "/>
<path style=" stroke:none;fill-rule:nonzero;fill:rgb(0%,0%,0%);fill-opacity:1;" d="M 35.785156 70.429688 L 37.835938 73.164062 L 35.53125 76.25 L 36.605469 76.25 L 38.34375 73.828125 L 40.082031 76.25 L 41.136719 76.25 L 38.832031 73.164062 L 40.902344 70.429688 L 39.828125 70.429688 L 38.34375 72.5 L 36.839844 70.429688 Z M 35.785156 70.429688 "/>
<path style=" stroke:none;fill-rule:nonzero;fill:rgb(0%,0%,0%);fill-opacity:1;" d="M 43.777344 68.222656 C 43.523438 68.515625 43.210938 68.789062 42.820312 69.042969 C 42.429688 69.257812 42.058594 69.414062 41.6875 69.53125 L 41.6875 70.449219 C 42.449219 70.214844 43.074219 69.863281 43.582031 69.335938 L 43.582031 76.25 L 44.5 76.25 L 44.5 68.222656 Z M 43.777344 68.222656 "/>
<path style=" stroke:none;fill-rule:nonzero;fill:rgb(0%,0%,0%);fill-opacity:1;" d="M 53.734375 68.066406 C 52.503906 68.066406 51.527344 68.476562 50.84375 69.335938 C 50.238281 70.097656 49.925781 71.074219 49.925781 72.265625 C 49.925781 73.457031 50.21875 74.433594 50.824219 75.175781 C 51.488281 75.996094 52.445312 76.40625 53.695312 76.40625 C 54.554688 76.40625 55.296875 76.152344 55.921875 75.683594 C 56.585938 75.15625 56.996094 74.433594 57.171875 73.496094 L 56.292969 73.496094 C 56.136719 74.199219 55.804688 74.726562 55.335938 75.078125 C 54.886719 75.410156 54.339844 75.585938 53.695312 75.585938 C 52.757812 75.585938 52.035156 75.273438 51.546875 74.648438 C 51.078125 74.0625 50.84375 73.261719 50.84375 72.265625 C 50.84375 71.269531 51.097656 70.46875 51.566406 69.863281 C 52.074219 69.199219 52.777344 68.886719 53.714844 68.886719 C 54.359375 68.886719 54.886719 69.023438 55.316406 69.335938 C 55.765625 69.648438 56.058594 70.097656 56.175781 70.683594 L 57.054688 70.683594 C 56.957031 69.882812 56.585938 69.238281 55.980469 68.769531 C 55.375 68.300781 54.613281 68.066406 53.734375 68.066406 Z M 53.734375 68.066406 "/>
<path style=" stroke:none;fill-rule:nonzero;fill:rgb(0%,0%,0%);fill-opacity:1;" d="M 60.945312 70.273438 C 60.066406 70.273438 59.382812 70.566406 58.855469 71.171875 C 58.367188 71.757812 58.113281 72.460938 58.113281 73.339844 C 58.113281 74.21875 58.367188 74.941406 58.855469 75.488281 C 59.382812 76.113281 60.066406 76.40625 60.945312 76.40625 C 61.804688 76.40625 62.507812 76.113281 63.035156 75.488281 C 63.523438 74.941406 63.757812 74.21875 63.757812 73.339844 C 63.757812 72.460938 63.523438 71.757812 63.015625 71.171875 C 62.507812 70.566406 61.804688 70.273438 60.945312 70.273438 Z M 60.945312 71.035156 C 61.550781 71.035156 62.039062 71.269531 62.390625 71.738281 C 62.703125 72.167969 62.859375 72.695312 62.859375 73.339844 C 62.859375 73.984375 62.703125 74.511719 62.390625 74.941406 C 62.039062 75.410156 61.550781 75.644531 60.945312 75.644531 C 60.320312 75.644531 59.832031 75.410156 59.5 74.941406 C 59.1875 74.511719 59.03125 73.984375 59.03125 73.339844 C 59.03125 72.695312 59.1875 72.167969 59.5 71.738281 C 59.832031 71.269531 60.320312 71.035156 60.945312 71.035156 Z M 60.945312 71.035156 "/>
<path style=" stroke:none;fill-rule:nonzero;fill:rgb(0%,0%,0%);fill-opacity:1;" d="M 67.65625 70.273438 C 67.285156 70.273438 66.933594 70.371094 66.621094 70.546875 C 66.289062 70.722656 66.035156 70.957031 65.839844 71.289062 L 65.839844 70.429688 L 64.941406 70.429688 L 64.941406 76.25 L 65.839844 76.25 L 65.839844 72.734375 C 65.878906 72.207031 66.035156 71.796875 66.347656 71.484375 C 66.640625 71.191406 66.992188 71.035156 67.402344 71.035156 C 68.417969 71.035156 68.925781 71.601562 68.925781 72.734375 L 68.925781 76.25 L 69.824219 76.25 L 69.824219 72.675781 C 69.824219 71.074219 69.101562 70.273438 67.65625 70.273438 Z M 67.65625 70.273438 "/>
<path style=" stroke:none;fill-rule:nonzero;fill:rgb(0%,0%,0%);fill-opacity:1;" d="M 70.585938 70.429688 L 72.773438 76.25 L 73.691406 76.25 L 75.898438 70.429688 L 74.902344 70.429688 L 73.242188 75.117188 L 71.582031 70.429688 Z M 70.585938 70.429688 "/>
<path style="fill:none;stroke-width:1;stroke-linecap:round;stroke-linejoin:round;stroke:rgb(0%,0%,0%);stroke-opacity:1;stroke-miterlimit:10;" d="M -122.64375 -176.45 L -39.60625 -176.45 L -39.60625 -157.55 L -122.64375 -157.55 Z M -122.64375 -176.45 " transform="matrix(1.25,0,0,1.25,271.25,301.25)"/>
<path style=" stroke:none;fill-rule:nonzero;fill:rgb(0%,0%,0%);fill-opacity:1;" d="M 149.929688 88.222656 C 149.675781 88.515625 149.363281 88.789062 148.972656 89.042969 C 148.582031 89.257812 148.210938 89.414062 147.839844 89.53125 L 147.839844 90.449219 C 148.601562 90.214844 149.226562 89.863281 149.734375 89.335938 L 149.734375 96.25 L 150.652344 96.25 L 150.652344 88.222656 Z M 149.929688 88.222656 "/>
<path style=" stroke:none;fill-rule:nonzero;fill:rgb(0%,0%,0%);fill-opacity:1;" d="M 152.171875 90.429688 L 154.222656 93.164062 L 151.917969 96.25 L 152.992188 96.25 L 154.730469 93.828125 L 156.46875 96.25 L 157.523438 96.25 L 155.21875 93.164062 L 157.289062 90.429688 L 156.214844 90.429688 L 154.730469 92.5 L 153.226562 90.429688 Z M 152.171875 90.429688 "/>
<path style=" stroke:none;fill-rule:nonzero;fill:rgb(0%,0%,0%);fill-opacity:1;" d="M 160.164062 88.222656 C 159.910156 88.515625 159.597656 88.789062 159.207031 89.042969 C 158.816406 89.257812 158.445312 89.414062 158.074219 89.53125 L 158.074219 90.449219 C 158.835938 90.214844 159.460938 89.863281 159.96875 89.335938 L 159.96875 96.25 L 160.886719 96.25 L 160.886719 88.222656 Z M 160.164062 88.222656 "/>
<path style=" stroke:none;fill-rule:nonzero;fill:rgb(0%,0%,0%);fill-opacity:1;" d="M 170.121094 88.066406 C 168.890625 88.066406 167.914062 88.476562 167.230469 89.335938 C 166.625 90.097656 166.3125 91.074219 166.3125 92.265625 C 166.3125 93.457031 166.605469 94.433594 167.210938 95.175781 C 167.875 95.996094 168.832031 96.40625 170.082031 96.40625 C 170.941406 96.40625 171.683594 96.152344 172.308594 95.683594 C 172.972656 95.15625 173.382812 94.433594 173.558594 93.496094 L 172.679688 93.496094 C 172.523438 94.199219 172.191406 94.726562 171.722656 95.078125 C 171.273438 95.410156 170.726562 95.585938 170.082031 95.585938 C 169.144531 95.585938 168.421875 95.273438 167.933594 94.648438 C 167.464844 94.0625 167.230469 93.261719 167.230469 92.265625 C 167.230469 91.269531 167.484375 90.46875 167.953125 89.863281 C 168.460938 89.199219 169.164062 88.886719 170.101562 88.886719 C 170.746094 88.886719 171.273438 89.023438 171.703125 89.335938 C 172.152344 89.648438 172.445312 90.097656 172.5625 90.683594 L 173.441406 90.683594 C 173.34375 89.882812 172.972656 89.238281 172.367188 88.769531 C 171.761719 88.300781 171 88.066406 170.121094 88.066406 Z M 170.121094 88.066406 "/>
<path style=" stroke:none;fill-rule:nonzero;fill:rgb(0%,0%,0%);fill-opacity:1;" d="M 177.335938 90.273438 C 176.457031 90.273438 175.773438 90.566406 175.246094 91.171875 C 174.757812 91.757812 174.503906 92.460938 174.503906 93.339844 C 174.503906 94.21875 174.757812 94.941406 175.246094 95.488281 C 175.773438 96.113281 176.457031 96.40625 177.335938 96.40625 C 178.195312 96.40625 178.898438 96.113281 179.425781 95.488281 C 179.914062 94.941406 180.148438 94.21875 180.148438 93.339844 C 180.148438 92.460938 179.914062 91.757812 179.40625 91.171875 C 178.898438 90.566406 178.195312 90.273438 177.335938 90.273438 Z M 177.335938 91.035156 C 177.941406 91.035156 178.429688 91.269531 178.78125 91.738281 C 179.09375 92.167969 179.25 92.695312 179.25 93.339844 C 179.25 93.984375 179.09375 94.511719 178.78125 94.941406 C 178.429688 95.410156 177.941406 95.644531 177.335938 95.644531 C 176.710938 95.644531 176.222656 95.410156 175.890625 94.941406 C 175.578125 94.511719 175.421875 93.984375 175.421875 93.339844 C 175.421875 92.695312 175.578125 92.167969 175.890625 91.738281 C 176.222656 91.269531 176.710938 91.035156 177.335938 91.035156 Z M 177.335938 91.035156 "/>
<path style=" stroke:none;fill-rule:nonzero;fill:rgb(0%,0%,0%);fill-opacity:1;" d="M 184.046875 90.273438 C 183.675781 90.273438 183.324219 90.371094 183.011719 90.546875 C 182.679688 90.722656 182.425781 90.957031 182.230469 91.289062 L 182.230469 90.429688 L 181.332031 90.429688 L 181.332031 96.25 L 182.230469 96.25 L 182.230469 92.734375 C 182.269531 92.207031 182.425781 91.796875 182.738281 91.484375 C 183.03125 91.191406 183.382812 91.035156 183.792969 91.035156 C 184.808594 91.035156 185.316406 91.601562 185.316406 92.734375 L 185.316406 96.25 L 186.214844 96.25 L 186.214844 92.675781 C 186.214844 91.074219 185.492188 90.273438 184.046875 90.273438 Z M 184.046875 90.273438 "/>
<path style=" stroke:none;fill-rule:nonzero;fill:rgb(0%,0%,0%);fill-opacity:1;" d="M 186.976562 90.429688 L 189.164062 96.25 L 190.082031 96.25 L 192.289062 90.429688 L 191.292969 90.429688 L 189.632812 95.117188 L 187.972656 90.429688 Z M 186.976562 90.429688 "/>
<path style="fill-rule:nonzero;fill:rgb(40%,74.901961%,100%);fill-opacity:1;stroke-width:1;stroke-linecap:round;stroke-linejoin:round;stroke:rgb(0%,0%,0%);stroke-opacity:1;stroke-miterlimit:10;" d="M -122.64375 -208.45 L -39.60625 -208.45 L -39.60625 -189.55 L -122.64375 -189.55 Z M -122.64375 -208.45 " transform="matrix(1.25,0,0,1.25,271.25,301.25)"/>
<path style=" stroke:none;fill-rule:nonzero;fill:rgb(0%,0%,0%);fill-opacity:1;" d="M 131.34375 48.066406 C 130.582031 48.066406 129.957031 48.28125 129.488281 48.710938 C 128.980469 49.160156 128.6875 49.765625 128.628906 50.527344 L 129.546875 50.527344 C 129.605469 50 129.78125 49.570312 130.09375 49.277344 C 130.386719 48.984375 130.816406 48.867188 131.34375 48.867188 C 131.871094 48.867188 132.28125 48.984375 132.574219 49.257812 C 132.847656 49.492188 133.003906 49.84375 133.003906 50.292969 C 133.003906 50.742188 132.847656 51.09375 132.574219 51.347656 C 132.28125 51.582031 131.871094 51.699219 131.34375 51.699219 L 130.71875 51.699219 L 130.71875 52.421875 L 131.382812 52.421875 C 131.929688 52.421875 132.359375 52.539062 132.671875 52.8125 C 133.003906 53.085938 133.160156 53.457031 133.160156 53.945312 C 133.160156 54.414062 132.984375 54.804688 132.671875 55.117188 C 132.320312 55.449219 131.851562 55.625 131.285156 55.625 C 130.777344 55.625 130.367188 55.46875 130.015625 55.195312 C 129.625 54.882812 129.410156 54.394531 129.390625 53.769531 L 128.453125 53.769531 C 128.53125 54.667969 128.84375 55.351562 129.410156 55.820312 C 129.898438 56.210938 130.523438 56.40625 131.285156 56.40625 C 132.125 56.40625 132.789062 56.171875 133.316406 55.703125 C 133.824219 55.234375 134.078125 54.648438 134.078125 53.90625 C 134.078125 53.4375 133.941406 53.046875 133.667969 52.734375 C 133.414062 52.421875 133.0625 52.1875 132.59375 52.050781 C 133.472656 51.757812 133.902344 51.132812 133.902344 50.234375 C 133.902344 49.570312 133.667969 49.042969 133.199219 48.652344 C 132.730469 48.242188 132.105469 48.066406 131.34375 48.066406 Z M 131.34375 48.066406 "/>
<path style=" stroke:none;fill-rule:nonzero;fill:rgb(0%,0%,0%);fill-opacity:1;" d="M 134.949219 50.429688 L 137 53.164062 L 134.695312 56.25 L 135.769531 56.25 L 137.507812 53.828125 L 139.246094 56.25 L 140.300781 56.25 L 137.996094 53.164062 L 140.066406 50.429688 L 138.992188 50.429688 L 137.507812 52.5 L 136.003906 50.429688 Z M 134.949219 50.429688 "/>
<path style=" stroke:none;fill-rule:nonzero;fill:rgb(0%,0%,0%);fill-opacity:1;" d="M 143.820312 48.066406 C 143.058594 48.066406 142.433594 48.28125 141.964844 48.710938 C 141.457031 49.160156 141.164062 49.765625 141.105469 50.527344 L 142.023438 50.527344 C 142.082031 50 142.257812 49.570312 142.570312 49.277344 C 142.863281 48.984375 143.292969 48.867188 143.820312 48.867188 C 144.347656 48.867188 144.757812 48.984375 145.050781 49.257812 C 145.324219 49.492188 145.480469 49.84375 145.480469 50.292969 C 145.480469 50.742188 145.324219 51.09375 145.050781 51.347656 C 144.757812 51.582031 144.347656 51.699219 143.820312 51.699219 L 143.195312 51.699219 L 143.195312 52.421875 L 143.859375 52.421875 C 144.40625 52.421875 144.835938 52.539062 145.148438 52.8125 C 145.480469 53.085938 145.636719 53.457031 145.636719 53.945312 C 145.636719 54.414062 145.460938 54.804688 145.148438 55.117188 C 144.796875 55.449219 144.328125 55.625 143.761719 55.625 C 143.253906 55.625 142.84375 55.46875 142.492188 55.195312 C 142.101562 54.882812 141.886719 54.394531 141.867188 53.769531 L 140.929688 53.769531 C 141.007812 54.667969 141.320312 55.351562 141.886719 55.820312 C 142.375 56.210938 143 56.40625 143.761719 56.40625 C 144.601562 56.40625 145.265625 56.171875 145.792969 55.703125 C 146.300781 55.234375 146.554688 54.648438 146.554688 53.90625 C 146.554688 53.4375 146.417969 53.046875 146.144531 52.734375 C 145.890625 52.421875 145.539062 52.1875 145.070312 52.050781 C 145.949219 51.757812 146.378906 51.132812 146.378906 50.234375 C 146.378906 49.570312 146.144531 49.042969 145.675781 48.652344 C 145.207031 48.242188 144.582031 48.066406 143.820312 48.066406 Z M 143.820312 48.066406 "/>
<path style=" stroke:none;fill-rule:nonzero;fill:rgb(0%,0%,0%);fill-opacity:1;" d="M 155.136719 48.066406 C 153.90625 48.066406 152.929688 48.476562 152.246094 49.335938 C 151.640625 50.097656 151.328125 51.074219 151.328125 52.265625 C 151.328125 53.457031 151.621094 54.433594 152.226562 55.175781 C 152.890625 55.996094 153.847656 56.40625 155.097656 56.40625 C 155.957031 56.40625 156.699219 56.152344 157.324219 55.683594 C 157.988281 55.15625 158.398438 54.433594 158.574219 53.496094 L 157.695312 53.496094 C 157.539062 54.199219 157.207031 54.726562 156.738281 55.078125 C 156.289062 55.410156 155.742188 55.585938 155.097656 55.585938 C 154.160156 55.585938 153.4375 55.273438 152.949219 54.648438 C 152.480469 54.0625 152.246094 53.261719 152.246094 52.265625 C 152.246094 51.269531 152.5 50.46875 152.96875 49.863281 C 153.476562 49.199219 154.179688 48.886719 155.117188 48.886719 C 155.761719 48.886719 156.289062 49.023438 156.71875 49.335938 C 157.167969 49.648438 157.460938 50.097656 157.578125 50.683594 L 158.457031 50.683594 C 158.359375 49.882812 157.988281 49.238281 157.382812 48.769531 C 156.777344 48.300781 156.015625 48.066406 155.136719 48.066406 Z M 155.136719 48.066406 "/>
<path style=" stroke:none;fill-rule:nonzero;fill:rgb(0%,0%,0%);fill-opacity:1;" d="M 162.351562 50.273438 C 161.472656 50.273438 160.789062 50.566406 160.261719 51.171875 C 159.773438 51.757812 159.519531 52.460938 159.519531 53.339844 C 159.519531 54.21875 159.773438 54.941406 160.261719 55.488281 C 160.789062 56.113281 161.472656 56.40625 162.351562 56.40625 C 163.210938 56.40625 163.914062 56.113281 164.441406 55.488281 C 164.929688 54.941406 165.164062 54.21875 165.164062 53.339844 C 165.164062 52.460938 164.929688 51.757812 164.421875 51.171875 C 163.914062 50.566406 163.210938 50.273438 162.351562 50.273438 Z M 162.351562 51.035156 C 162.957031 51.035156 163.445312 51.269531 163.796875 51.738281 C 164.109375 52.167969 164.265625 52.695312 164.265625 53.339844 C 164.265625 53.984375 164.109375 54.511719 163.796875 54.941406 C 163.445312 55.410156 162.957031 55.644531 162.351562 55.644531 C 161.726562 55.644531 161.238281 55.410156 160.90625 54.941406 C 160.59375 54.511719 160.4375 53.984375 160.4375 53.339844 C 160.4375 52.695312 160.59375 52.167969 160.90625 51.738281 C 161.238281 51.269531 161.726562 51.035156 162.351562 51.035156 Z M 162.351562 51.035156 "/>
<path style=" stroke:none;fill-rule:nonzero;fill:rgb(0%,0%,0%);fill-opacity:1;" d="M 169.058594 50.273438 C 168.6875 50.273438 168.335938 50.371094 168.023438 50.546875 C 167.691406 50.722656 167.4375 50.957031 167.242188 51.289062 L 167.242188 50.429688 L 166.34375 50.429688 L 166.34375 56.25 L 167.242188 56.25 L 167.242188 52.734375 C 167.28125 52.207031 167.4375 51.796875 167.75 51.484375 C 168.042969 51.191406 168.394531 51.035156 168.804688 51.035156 C 169.820312 51.035156 170.328125 51.601562 170.328125 52.734375 L 170.328125 56.25 L 171.226562 56.25 L 171.226562 52.675781 C 171.226562 51.074219 170.503906 50.273438 169.058594 50.273438 Z M 169.058594 50.273438 "/>
<path style=" stroke:none;fill-rule:nonzero;fill:rgb(0%,0%,0%);fill-opacity:1;" d="M 171.988281 50.429688 L 174.175781 56.25 L 175.09375 56.25 L 177.300781 50.429688 L 176.304688 50.429688 L 174.644531 55.117188 L 172.984375 50.429688 Z M 171.988281 50.429688 "/>
<path style=" stroke:none;fill-rule:nonzero;fill:rgb(0%,0%,0%);fill-opacity:1;" d="M 178.839844 54.902344 C 178.625 54.902344 178.449219 54.960938 178.332031 55.097656 C 178.175781 55.234375 178.117188 55.390625 178.117188 55.605469 C 178.117188 55.800781 178.175781 55.976562 178.3125 56.113281 C 178.449219 56.230469 178.605469 56.308594 178.800781 56.308594 C 178.898438 56.308594 178.996094 56.289062 179.035156 56.269531 C 179.035156 56.523438 178.957031 56.777344 178.800781 57.011719 C 178.625 57.246094 178.371094 57.402344 178.078125 57.519531 L 178.078125 58.066406 C 178.566406 57.929688 178.957031 57.695312 179.25 57.324219 C 179.542969 56.953125 179.679688 56.503906 179.679688 56.015625 C 179.679688 55.683594 179.601562 55.429688 179.464844 55.234375 C 179.308594 55.019531 179.09375 54.902344 178.839844 54.902344 Z M 178.839844 54.902344 "/>
<path style=" stroke:none;fill-rule:nonzero;fill:rgb(0%,0%,0%);fill-opacity:1;" d="M 187.546875 50.273438 C 186.667969 50.273438 186.023438 50.644531 185.613281 51.386719 L 185.613281 50.429688 L 184.773438 50.429688 L 184.773438 58.476562 L 185.671875 58.476562 L 185.671875 55.195312 C 186.121094 55.996094 186.765625 56.40625 187.585938 56.40625 C 188.425781 56.40625 189.070312 56.09375 189.539062 55.488281 C 189.96875 54.921875 190.183594 54.21875 190.183594 53.359375 C 190.183594 52.480469 189.96875 51.777344 189.519531 51.210938 C 189.050781 50.585938 188.386719 50.273438 187.546875 50.273438 Z M 187.429688 51.015625 C 188.054688 51.015625 188.523438 51.25 188.855469 51.71875 C 189.128906 52.128906 189.265625 52.675781 189.265625 53.359375 C 189.265625 54.0625 189.128906 54.609375 188.835938 55.019531 C 188.503906 55.449219 188.035156 55.664062 187.390625 55.664062 C 186.863281 55.664062 186.453125 55.449219 186.121094 55.039062 C 185.789062 54.628906 185.632812 54.082031 185.632812 53.417969 L 185.632812 53.300781 C 185.632812 52.65625 185.789062 52.109375 186.082031 51.699219 C 186.394531 51.25 186.84375 51.015625 187.429688 51.015625 Z M 187.429688 51.015625 "/>
<path style=" stroke:none;fill-rule:nonzero;fill:rgb(0%,0%,0%);fill-opacity:1;" d="M 193.886719 50.273438 C 193.203125 50.273438 192.636719 50.410156 192.207031 50.683594 C 191.738281 50.976562 191.445312 51.425781 191.308594 52.050781 L 192.207031 52.109375 C 192.304688 51.738281 192.480469 51.464844 192.792969 51.269531 C 193.066406 51.09375 193.417969 51.015625 193.828125 51.015625 C 194.84375 51.015625 195.351562 51.503906 195.351562 52.480469 L 195.351562 52.792969 L 193.964844 52.8125 C 193.085938 52.8125 192.402344 52.988281 191.933594 53.300781 C 191.386719 53.632812 191.132812 54.140625 191.132812 54.804688 C 191.132812 55.273438 191.308594 55.664062 191.679688 55.976562 C 192.03125 56.269531 192.480469 56.40625 193.066406 56.40625 C 193.613281 56.40625 194.101562 56.289062 194.53125 56.054688 C 194.882812 55.839844 195.195312 55.585938 195.410156 55.273438 L 195.410156 56.25 L 196.25 56.25 L 196.25 52.519531 C 196.25 51.835938 196.074219 51.308594 195.742188 50.9375 C 195.332031 50.488281 194.726562 50.273438 193.886719 50.273438 Z M 195.351562 53.457031 L 195.351562 53.945312 C 195.351562 54.414062 195.136719 54.804688 194.726562 55.15625 C 194.296875 55.527344 193.808594 55.703125 193.261719 55.703125 C 192.910156 55.703125 192.617188 55.605469 192.382812 55.449219 C 192.167969 55.253906 192.050781 55.039062 192.050781 54.785156 C 192.050781 53.925781 192.714844 53.496094 194.023438 53.476562 Z M 195.351562 53.457031 "/>
<path style=" stroke:none;fill-rule:nonzero;fill:rgb(0%,0%,0%);fill-opacity:1;" d="M 201.953125 48.066406 L 201.953125 51.503906 C 201.503906 50.683594 200.859375 50.273438 200.019531 50.273438 C 199.199219 50.273438 198.554688 50.585938 198.085938 51.210938 C 197.636719 51.777344 197.421875 52.460938 197.421875 53.320312 C 197.421875 54.199219 197.636719 54.921875 198.085938 55.488281 C 198.554688 56.09375 199.21875 56.40625 200.078125 56.40625 C 200.9375 56.40625 201.601562 56.035156 202.011719 55.292969 L 202.011719 56.25 L 202.851562 56.25 L 202.851562 48.066406 Z M 200.214844 51.015625 C 200.742188 51.015625 201.152344 51.230469 201.484375 51.640625 C 201.796875 52.070312 201.972656 52.617188 201.972656 53.300781 L 201.972656 53.398438 C 201.972656 54.0625 201.816406 54.589844 201.542969 54.980469 C 201.210938 55.449219 200.761719 55.664062 200.175781 55.664062 C 199.550781 55.664062 199.082031 55.429688 198.769531 54.980469 C 198.476562 54.570312 198.339844 54.023438 198.339844 53.320312 C 198.339844 52.636719 198.476562 52.089844 198.769531 51.699219 C 199.082031 51.25 199.570312 51.015625 200.214844 51.015625 Z M 200.214844 51.015625 "/>
<path style=" stroke:none;fill-rule:nonzero;fill:rgb(0%,0%,0%);fill-opacity:1;" d="M 209.867188 48.222656 C 209.613281 48.515625 209.300781 48.789062 208.910156 49.042969 C 208.519531 49.257812 208.148438 49.414062 207.777344 49.53125 L 207.777344 50.449219 C 208.539062 50.214844 209.164062 49.863281 209.671875 49.335938 L 209.671875 56.25 L 210.589844 56.25 L 210.589844 48.222656 Z M 209.867188 48.222656 "/>
<path style="fill:none;stroke-width:1;stroke-linecap:round;stroke-linejoin:round;stroke:rgb(0%,0%,0%);stroke-opacity:1;stroke-miterlimit:10;" d="M -81.125 -176.45 L -81.125 -183.65 " transform="matrix(1.25,0,0,1.25,271.25,301.25)"/>
<path style="fill:none;stroke-width:1;stroke-linecap:butt;stroke-linejoin:miter;stroke:rgb(0%,0%,0%);stroke-opacity:1;stroke-miterlimit:10;" d="M -81.125 -187.65 L -81.125 -183.65 M -82.625 -183.65 L -81.125 -187.65 L -79.625 -183.65 " transform="matrix(1.25,0,0,1.25,271.25,301.25)"/>
<path style="fill-rule:nonzero;fill:rgb(100%,100%,100%);fill-opacity:1;stroke-width:1;stroke-linecap:round;stroke-linejoin:round;stroke:rgb(0%,0%,0%);stroke-opacity:1;stroke-miterlimit:10;" d="M -27.621875 -176.45 L 55.41875 -176.45 L 55.41875 -157.55 L -27.621875 -157.55 Z M -27.621875 -176.45 " transform="matrix(1.25,0,0,1.25,271.25,301.25)"/>
<path style=" stroke:none;fill-rule:nonzero;fill:rgb(0%,0%,0%);fill-opacity:1;" d="M 268.707031 88.222656 C 268.453125 88.515625 268.140625 88.789062 267.75 89.042969 C 267.359375 89.257812 266.988281 89.414062 266.617188 89.53125 L 266.617188 90.449219 C 267.378906 90.214844 268.003906 89.863281 268.511719 89.335938 L 268.511719 96.25 L 269.429688 96.25 L 269.429688 88.222656 Z M 268.707031 88.222656 "/>
<path style=" stroke:none;fill-rule:nonzero;fill:rgb(0%,0%,0%);fill-opacity:1;" d="M 270.953125 90.429688 L 273.003906 93.164062 L 270.699219 96.25 L 271.773438 96.25 L 273.511719 93.828125 L 275.25 96.25 L 276.304688 96.25 L 274 93.164062 L 276.070312 90.429688 L 274.996094 90.429688 L 273.511719 92.5 L 272.007812 90.429688 Z M 270.953125 90.429688 "/>
<path style=" stroke:none;fill-rule:nonzero;fill:rgb(0%,0%,0%);fill-opacity:1;" d="M 278.945312 88.222656 C 278.691406 88.515625 278.378906 88.789062 277.988281 89.042969 C 277.597656 89.257812 277.226562 89.414062 276.855469 89.53125 L 276.855469 90.449219 C 277.617188 90.214844 278.242188 89.863281 278.75 89.335938 L 278.75 96.25 L 279.667969 96.25 L 279.667969 88.222656 Z M 278.945312 88.222656 "/>
<path style=" stroke:none;fill-rule:nonzero;fill:rgb(0%,0%,0%);fill-opacity:1;" d="M 288.902344 88.066406 C 287.671875 88.066406 286.695312 88.476562 286.011719 89.335938 C 285.40625 90.097656 285.09375 91.074219 285.09375 92.265625 C 285.09375 93.457031 285.386719 94.433594 285.992188 95.175781 C 286.65625 95.996094 287.613281 96.40625 288.863281 96.40625 C 289.722656 96.40625 290.464844 96.152344 291.089844 95.683594 C 291.753906 95.15625 292.164062 94.433594 292.339844 93.496094 L 291.460938 93.496094 C 291.304688 94.199219 290.972656 94.726562 290.503906 95.078125 C 290.054688 95.410156 289.507812 95.585938 288.863281 95.585938 C 287.925781 95.585938 287.203125 95.273438 286.714844 94.648438 C 286.246094 94.0625 286.011719 93.261719 286.011719 92.265625 C 286.011719 91.269531 286.265625 90.46875 286.734375 89.863281 C 287.242188 89.199219 287.945312 88.886719 288.882812 88.886719 C 289.527344 88.886719 290.054688 89.023438 290.484375 89.335938 C 290.933594 89.648438 291.226562 90.097656 291.34375 90.683594 L 292.222656 90.683594 C 292.125 89.882812 291.753906 89.238281 291.148438 88.769531 C 290.542969 88.300781 289.78125 88.066406 288.902344 88.066406 Z M 288.902344 88.066406 "/>
<path style=" stroke:none;fill-rule:nonzero;fill:rgb(0%,0%,0%);fill-opacity:1;" d="M 296.113281 90.273438 C 295.234375 90.273438 294.550781 90.566406 294.023438 91.171875 C 293.535156 91.757812 293.28125 92.460938 293.28125 93.339844 C 293.28125 94.21875 293.535156 94.941406 294.023438 95.488281 C 294.550781 96.113281 295.234375 96.40625 296.113281 96.40625 C 296.972656 96.40625 297.675781 96.113281 298.203125 95.488281 C 298.691406 94.941406 298.925781 94.21875 298.925781 93.339844 C 298.925781 92.460938 298.691406 91.757812 298.183594 91.171875 C 297.675781 90.566406 296.972656 90.273438 296.113281 90.273438 Z M 296.113281 91.035156 C 296.71875 91.035156 297.207031 91.269531 297.558594 91.738281 C 297.871094 92.167969 298.027344 92.695312 298.027344 93.339844 C 298.027344 93.984375 297.871094 94.511719 297.558594 94.941406 C 297.207031 95.410156 296.71875 95.644531 296.113281 95.644531 C 295.488281 95.644531 295 95.410156 294.667969 94.941406 C 294.355469 94.511719 294.199219 93.984375 294.199219 93.339844 C 294.199219 92.695312 294.355469 92.167969 294.667969 91.738281 C 295 91.269531 295.488281 91.035156 296.113281 91.035156 Z M 296.113281 91.035156 "/>
<path style=" stroke:none;fill-rule:nonzero;fill:rgb(0%,0%,0%);fill-opacity:1;" d="M 302.824219 90.273438 C 302.453125 90.273438 302.101562 90.371094 301.789062 90.546875 C 301.457031 90.722656 301.203125 90.957031 301.007812 91.289062 L 301.007812 90.429688 L 300.109375 90.429688 L 300.109375 96.25 L 301.007812 96.25 L 301.007812 92.734375 C 301.046875 92.207031 301.203125 91.796875 301.515625 91.484375 C 301.808594 91.191406 302.160156 91.035156 302.570312 91.035156 C 303.585938 91.035156 304.09375 91.601562 304.09375 92.734375 L 304.09375 96.25 L 304.992188 96.25 L 304.992188 92.675781 C 304.992188 91.074219 304.269531 90.273438 302.824219 90.273438 Z M 302.824219 90.273438 "/>
<path style=" stroke:none;fill-rule:nonzero;fill:rgb(0%,0%,0%);fill-opacity:1;" d="M 305.753906 90.429688 L 307.941406 96.25 L 308.859375 96.25 L 311.066406 90.429688 L 310.070312 90.429688 L 308.410156 95.117188 L 306.75 90.429688 Z M 305.753906 90.429688 "/>
<path style="fill-rule:nonzero;fill:rgb(40%,74.901961%,100%);fill-opacity:1;stroke-width:1;stroke-linecap:round;stroke-linejoin:round;stroke:rgb(0%,0%,0%);stroke-opacity:1;stroke-miterlimit:10;" d="M -27.621875 -208.45 L 55.41875 -208.45 L 55.41875 -189.55 L -27.621875 -189.55 Z M -27.621875 -208.45 " transform="matrix(1.25,0,0,1.25,271.25,301.25)"/>
<path style=" stroke:none;fill-rule:nonzero;fill:rgb(0%,0%,0%);fill-opacity:1;" d="M 246.71875 48.222656 L 246.308594 52.65625 L 247.1875 52.65625 C 247.34375 52.34375 247.578125 52.089844 247.890625 51.933594 C 248.203125 51.757812 248.535156 51.679688 248.925781 51.679688 C 249.511719 51.679688 249.960938 51.855469 250.292969 52.207031 C 250.625 52.558594 250.820312 53.046875 250.820312 53.691406 C 250.820312 54.257812 250.625 54.726562 250.253906 55.078125 C 249.882812 55.449219 249.433594 55.625 248.867188 55.625 C 248.378906 55.625 247.949219 55.488281 247.636719 55.253906 C 247.285156 54.980469 247.070312 54.589844 247.03125 54.082031 L 246.113281 54.082031 C 246.171875 54.824219 246.484375 55.410156 247.050781 55.839844 C 247.539062 56.210938 248.144531 56.40625 248.847656 56.40625 C 249.648438 56.40625 250.3125 56.152344 250.859375 55.683594 C 251.425781 55.15625 251.71875 54.492188 251.71875 53.691406 C 251.71875 52.8125 251.484375 52.148438 250.996094 51.640625 C 250.527344 51.171875 249.902344 50.9375 249.140625 50.9375 C 248.769531 50.9375 248.4375 50.976562 248.125 51.113281 C 247.773438 51.25 247.480469 51.464844 247.265625 51.71875 L 247.207031 51.71875 L 247.480469 49.042969 L 251.40625 49.042969 L 251.40625 48.222656 Z M 246.71875 48.222656 "/>
<path style=" stroke:none;fill-rule:nonzero;fill:rgb(0%,0%,0%);fill-opacity:1;" d="M 252.609375 50.429688 L 254.660156 53.164062 L 252.355469 56.25 L 253.429688 56.25 L 255.167969 53.828125 L 256.90625 56.25 L 257.960938 56.25 L 255.65625 53.164062 L 257.726562 50.429688 L 256.652344 50.429688 L 255.167969 52.5 L 253.664062 50.429688 Z M 252.609375 50.429688 "/>
<path style=" stroke:none;fill-rule:nonzero;fill:rgb(0%,0%,0%);fill-opacity:1;" d="M 259.195312 48.222656 L 258.785156 52.65625 L 259.664062 52.65625 C 259.820312 52.34375 260.054688 52.089844 260.367188 51.933594 C 260.679688 51.757812 261.011719 51.679688 261.402344 51.679688 C 261.988281 51.679688 262.4375 51.855469 262.769531 52.207031 C 263.101562 52.558594 263.296875 53.046875 263.296875 53.691406 C 263.296875 54.257812 263.101562 54.726562 262.730469 55.078125 C 262.359375 55.449219 261.910156 55.625 261.34375 55.625 C 260.855469 55.625 260.425781 55.488281 260.113281 55.253906 C 259.761719 54.980469 259.546875 54.589844 259.507812 54.082031 L 258.589844 54.082031 C 258.648438 54.824219 258.960938 55.410156 259.527344 55.839844 C 260.015625 56.210938 260.621094 56.40625 261.324219 56.40625 C 262.125 56.40625 262.789062 56.152344 263.335938 55.683594 C 263.902344 55.15625 264.195312 54.492188 264.195312 53.691406 C 264.195312 52.8125 263.960938 52.148438 263.472656 51.640625 C 263.003906 51.171875 262.378906 50.9375 261.617188 50.9375 C 261.246094 50.9375 260.914062 50.976562 260.601562 51.113281 C 260.25 51.25 259.957031 51.464844 259.742188 51.71875 L 259.683594 51.71875 L 259.957031 49.042969 L 263.882812 49.042969 L 263.882812 48.222656 Z M 259.195312 48.222656 "/>
<path style=" stroke:none;fill-rule:nonzero;fill:rgb(0%,0%,0%);fill-opacity:1;" d="M 272.796875 48.066406 C 271.566406 48.066406 270.589844 48.476562 269.90625 49.335938 C 269.300781 50.097656 268.988281 51.074219 268.988281 52.265625 C 268.988281 53.457031 269.28125 54.433594 269.886719 55.175781 C 270.550781 55.996094 271.507812 56.40625 272.757812 56.40625 C 273.617188 56.40625 274.359375 56.152344 274.984375 55.683594 C 275.648438 55.15625 276.058594 54.433594 276.234375 53.496094 L 275.355469 53.496094 C 275.199219 54.199219 274.867188 54.726562 274.398438 55.078125 C 273.949219 55.410156 273.402344 55.585938 272.757812 55.585938 C 271.820312 55.585938 271.097656 55.273438 270.609375 54.648438 C 270.140625 54.0625 269.90625 53.261719 269.90625 52.265625 C 269.90625 51.269531 270.160156 50.46875 270.628906 49.863281 C 271.136719 49.199219 271.839844 48.886719 272.777344 48.886719 C 273.421875 48.886719 273.949219 49.023438 274.378906 49.335938 C 274.828125 49.648438 275.121094 50.097656 275.238281 50.683594 L 276.117188 50.683594 C 276.019531 49.882812 275.648438 49.238281 275.042969 48.769531 C 274.4375 48.300781 273.675781 48.066406 272.796875 48.066406 Z M 272.796875 48.066406 "/>
<path style=" stroke:none;fill-rule:nonzero;fill:rgb(0%,0%,0%);fill-opacity:1;" d="M 280.011719 50.273438 C 279.132812 50.273438 278.449219 50.566406 277.921875 51.171875 C 277.433594 51.757812 277.179688 52.460938 277.179688 53.339844 C 277.179688 54.21875 277.433594 54.941406 277.921875 55.488281 C 278.449219 56.113281 279.132812 56.40625 280.011719 56.40625 C 280.871094 56.40625 281.574219 56.113281 282.101562 55.488281 C 282.589844 54.941406 282.824219 54.21875 282.824219 53.339844 C 282.824219 52.460938 282.589844 51.757812 282.082031 51.171875 C 281.574219 50.566406 280.871094 50.273438 280.011719 50.273438 Z M 280.011719 51.035156 C 280.617188 51.035156 281.105469 51.269531 281.457031 51.738281 C 281.769531 52.167969 281.925781 52.695312 281.925781 53.339844 C 281.925781 53.984375 281.769531 54.511719 281.457031 54.941406 C 281.105469 55.410156 280.617188 55.644531 280.011719 55.644531 C 279.386719 55.644531 278.898438 55.410156 278.566406 54.941406 C 278.253906 54.511719 278.097656 53.984375 278.097656 53.339844 C 278.097656 52.695312 278.253906 52.167969 278.566406 51.738281 C 278.898438 51.269531 279.386719 51.035156 280.011719 51.035156 Z M 280.011719 51.035156 "/>
<path style=" stroke:none;fill-rule:nonzero;fill:rgb(0%,0%,0%);fill-opacity:1;" d="M 286.71875 50.273438 C 286.347656 50.273438 285.996094 50.371094 285.683594 50.546875 C 285.351562 50.722656 285.097656 50.957031 284.902344 51.289062 L 284.902344 50.429688 L 284.003906 50.429688 L 284.003906 56.25 L 284.902344 56.25 L 284.902344 52.734375 C 284.941406 52.207031 285.097656 51.796875 285.410156 51.484375 C 285.703125 51.191406 286.054688 51.035156 286.464844 51.035156 C 287.480469 51.035156 287.988281 51.601562 287.988281 52.734375 L 287.988281 56.25 L 288.886719 56.25 L 288.886719 52.675781 C 288.886719 51.074219 288.164062 50.273438 286.71875 50.273438 Z M 286.71875 50.273438 "/>
<path style=" stroke:none;fill-rule:nonzero;fill:rgb(0%,0%,0%);fill-opacity:1;" d="M 289.648438 50.429688 L 291.835938 56.25 L 292.753906 56.25 L 294.960938 50.429688 L 293.964844 50.429688 L 292.304688 55.117188 L 290.644531 50.429688 Z M 289.648438 50.429688 "/>
<path style=" stroke:none;fill-rule:nonzero;fill:rgb(0%,0%,0%);fill-opacity:1;" d="M 296.496094 54.902344 C 296.28125 54.902344 296.105469 54.960938 295.988281 55.097656 C 295.832031 55.234375 295.773438 55.390625 295.773438 55.605469 C 295.773438 55.800781 295.832031 55.976562 295.96875 56.113281 C 296.105469 56.230469 296.261719 56.308594 296.457031 56.308594 C 296.554688 56.308594 296.652344 56.289062 296.691406 56.269531 C 296.691406 56.523438 296.613281 56.777344 296.457031 57.011719 C 296.28125 57.246094 296.027344 57.402344 295.734375 57.519531 L 295.734375 58.066406 C 296.222656 57.929688 296.613281 57.695312 296.90625 57.324219 C 297.199219 56.953125 297.335938 56.503906 297.335938 56.015625 C 297.335938 55.683594 297.257812 55.429688 297.121094 55.234375 C 296.964844 55.019531 296.75 54.902344 296.496094 54.902344 Z M 296.496094 54.902344 "/>
<path style=" stroke:none;fill-rule:nonzero;fill:rgb(0%,0%,0%);fill-opacity:1;" d="M 305.207031 50.273438 C 304.328125 50.273438 303.683594 50.644531 303.273438 51.386719 L 303.273438 50.429688 L 302.433594 50.429688 L 302.433594 58.476562 L 303.332031 58.476562 L 303.332031 55.195312 C 303.78125 55.996094 304.425781 56.40625 305.246094 56.40625 C 306.085938 56.40625 306.730469 56.09375 307.199219 55.488281 C 307.628906 54.921875 307.84375 54.21875 307.84375 53.359375 C 307.84375 52.480469 307.628906 51.777344 307.179688 51.210938 C 306.710938 50.585938 306.046875 50.273438 305.207031 50.273438 Z M 305.089844 51.015625 C 305.714844 51.015625 306.183594 51.25 306.515625 51.71875 C 306.789062 52.128906 306.925781 52.675781 306.925781 53.359375 C 306.925781 54.0625 306.789062 54.609375 306.496094 55.019531 C 306.164062 55.449219 305.695312 55.664062 305.050781 55.664062 C 304.523438 55.664062 304.113281 55.449219 303.78125 55.039062 C 303.449219 54.628906 303.292969 54.082031 303.292969 53.417969 L 303.292969 53.300781 C 303.292969 52.65625 303.449219 52.109375 303.742188 51.699219 C 304.054688 51.25 304.503906 51.015625 305.089844 51.015625 Z M 305.089844 51.015625 "/>
<path style=" stroke:none;fill-rule:nonzero;fill:rgb(0%,0%,0%);fill-opacity:1;" d="M 311.542969 50.273438 C 310.859375 50.273438 310.292969 50.410156 309.863281 50.683594 C 309.394531 50.976562 309.101562 51.425781 308.964844 52.050781 L 309.863281 52.109375 C 309.960938 51.738281 310.136719 51.464844 310.449219 51.269531 C 310.722656 51.09375 311.074219 51.015625 311.484375 51.015625 C 312.5 51.015625 313.007812 51.503906 313.007812 52.480469 L 313.007812 52.792969 L 311.621094 52.8125 C 310.742188 52.8125 310.058594 52.988281 309.589844 53.300781 C 309.042969 53.632812 308.789062 54.140625 308.789062 54.804688 C 308.789062 55.273438 308.964844 55.664062 309.335938 55.976562 C 309.6875 56.269531 310.136719 56.40625 310.722656 56.40625 C 311.269531 56.40625 311.757812 56.289062 312.1875 56.054688 C 312.539062 55.839844 312.851562 55.585938 313.066406 55.273438 L 313.066406 56.25 L 313.90625 56.25 L 313.90625 52.519531 C 313.90625 51.835938 313.730469 51.308594 313.398438 50.9375 C 312.988281 50.488281 312.382812 50.273438 311.542969 50.273438 Z M 313.007812 53.457031 L 313.007812 53.945312 C 313.007812 54.414062 312.792969 54.804688 312.382812 55.15625 C 311.953125 55.527344 311.464844 55.703125 310.917969 55.703125 C 310.566406 55.703125 310.273438 55.605469 310.039062 55.449219 C 309.824219 55.253906 309.707031 55.039062 309.707031 54.785156 C 309.707031 53.925781 310.371094 53.496094 311.679688 53.476562 Z M 313.007812 53.457031 "/>
<path style=" stroke:none;fill-rule:nonzero;fill:rgb(0%,0%,0%);fill-opacity:1;" d="M 319.609375 48.066406 L 319.609375 51.503906 C 319.160156 50.683594 318.515625 50.273438 317.675781 50.273438 C 316.855469 50.273438 316.210938 50.585938 315.742188 51.210938 C 315.292969 51.777344 315.078125 52.460938 315.078125 53.320312 C 315.078125 54.199219 315.292969 54.921875 315.742188 55.488281 C 316.210938 56.09375 316.875 56.40625 317.734375 56.40625 C 318.59375 56.40625 319.257812 56.035156 319.667969 55.292969 L 319.667969 56.25 L 320.507812 56.25 L 320.507812 48.066406 Z M 317.871094 51.015625 C 318.398438 51.015625 318.808594 51.230469 319.140625 51.640625 C 319.453125 52.070312 319.628906 52.617188 319.628906 53.300781 L 319.628906 53.398438 C 319.628906 54.0625 319.472656 54.589844 319.199219 54.980469 C 318.867188 55.449219 318.417969 55.664062 317.832031 55.664062 C 317.207031 55.664062 316.738281 55.429688 316.425781 54.980469 C 316.132812 54.570312 315.996094 54.023438 315.996094 53.320312 C 315.996094 52.636719 316.132812 52.089844 316.425781 51.699219 C 316.738281 51.25 317.226562 51.015625 317.871094 51.015625 Z M 317.871094 51.015625 "/>
<path style=" stroke:none;fill-rule:nonzero;fill:rgb(0%,0%,0%);fill-opacity:1;" d="M 328.445312 48.066406 C 327.625 48.066406 326.960938 48.320312 326.472656 48.867188 C 325.964844 49.394531 325.710938 50.117188 325.710938 51.015625 L 326.628906 51.015625 C 326.648438 50.3125 326.824219 49.765625 327.136719 49.414062 C 327.429688 49.023438 327.859375 48.847656 328.40625 48.847656 C 328.914062 48.847656 329.34375 48.984375 329.636719 49.257812 C 329.929688 49.53125 330.066406 49.902344 330.066406 50.390625 C 330.066406 50.898438 329.851562 51.386719 329.441406 51.835938 C 329.226562 52.050781 328.816406 52.382812 328.191406 52.832031 C 327.332031 53.417969 326.765625 53.90625 326.453125 54.257812 C 325.90625 54.863281 325.652344 55.527344 325.652344 56.25 L 331.003906 56.25 L 331.003906 55.429688 L 326.785156 55.429688 C 326.921875 54.882812 327.507812 54.277344 328.542969 53.574219 C 329.363281 53.027344 329.929688 52.578125 330.203125 52.285156 C 330.710938 51.71875 330.984375 51.09375 330.984375 50.390625 C 330.984375 49.707031 330.75 49.121094 330.261719 48.710938 C 329.792969 48.28125 329.1875 48.066406 328.445312 48.066406 Z M 328.445312 48.066406 "/>
<path style="fill:none;stroke-width:1;stroke-linecap:round;stroke-linejoin:round;stroke:rgb(0%,0%,0%);stroke-opacity:1;stroke-miterlimit:10;" d="M 13.9 -176.45 L 13.9 -183.65 " transform="matrix(1.25,0,0,1.25,271.25,301.25)"/>
<path style="fill:none;stroke-width:1;stroke-linecap:butt;stroke-linejoin:miter;stroke:rgb(0%,0%,0%);stroke-opacity:1;stroke-miterlimit:10;" d="M 13.9 -187.65 L 13.9 -183.65 M 12.4 -183.65 L 13.9 -187.65 L 15.4 -183.65 " transform="matrix(1.25,0,0,1.25,271.25,301.25)"/>
<path style="fill-rule:nonzero;fill:rgb(40%,74.901961%,100%);fill-opacity:1;stroke-width:1;stroke-linecap:round;stroke-linejoin:round;stroke:rgb(0%,0%,0%);stroke-opacity:1;stroke-miterlimit:10;" d="M 67.903125 -177.45 L 160.753125 -177.45 L 160.753125 -158.55 L 67.903125 -158.55 Z M 67.903125 -177.45 " transform="matrix(1.25,0,0,1.25,271.25,301.25)"/>
<path style=" stroke:none;fill-rule:nonzero;fill:rgb(0%,0%,0%);fill-opacity:1;" d="M 366.414062 86.816406 C 365.652344 86.816406 365.027344 87.03125 364.558594 87.460938 C 364.050781 87.910156 363.757812 88.515625 363.699219 89.277344 L 364.617188 89.277344 C 364.675781 88.75 364.851562 88.320312 365.164062 88.027344 C 365.457031 87.734375 365.886719 87.617188 366.414062 87.617188 C 366.941406 87.617188 367.351562 87.734375 367.644531 88.007812 C 367.917969 88.242188 368.074219 88.59375 368.074219 89.042969 C 368.074219 89.492188 367.917969 89.84375 367.644531 90.097656 C 367.351562 90.332031 366.941406 90.449219 366.414062 90.449219 L 365.789062 90.449219 L 365.789062 91.171875 L 366.453125 91.171875 C 367 91.171875 367.429688 91.289062 367.742188 91.5625 C 368.074219 91.835938 368.230469 92.207031 368.230469 92.695312 C 368.230469 93.164062 368.054688 93.554688 367.742188 93.867188 C 367.390625 94.199219 366.921875 94.375 366.355469 94.375 C 365.847656 94.375 365.4375 94.21875 365.085938 93.945312 C 364.695312 93.632812 364.480469 93.144531 364.460938 92.519531 L 363.523438 92.519531 C 363.601562 93.417969 363.914062 94.101562 364.480469 94.570312 C 364.96875 94.960938 365.59375 95.15625 366.355469 95.15625 C 367.195312 95.15625 367.859375 94.921875 368.386719 94.453125 C 368.894531 93.984375 369.148438 93.398438 369.148438 92.65625 C 369.148438 92.1875 369.011719 91.796875 368.738281 91.484375 C 368.484375 91.171875 368.132812 90.9375 367.664062 90.800781 C 368.542969 90.507812 368.972656 89.882812 368.972656 88.984375 C 368.972656 88.320312 368.738281 87.792969 368.269531 87.402344 C 367.800781 86.992188 367.175781 86.816406 366.414062 86.816406 Z M 366.414062 86.816406 "/>
<path style=" stroke:none;fill-rule:nonzero;fill:rgb(0%,0%,0%);fill-opacity:1;" d="M 370.019531 89.179688 L 372.070312 91.914062 L 369.765625 95 L 370.839844 95 L 372.578125 92.578125 L 374.316406 95 L 375.371094 95 L 373.066406 91.914062 L 375.136719 89.179688 L 374.0625 89.179688 L 372.578125 91.25 L 371.074219 89.179688 Z M 370.019531 89.179688 "/>
<path style=" stroke:none;fill-rule:nonzero;fill:rgb(0%,0%,0%);fill-opacity:1;" d="M 378.890625 86.816406 C 378.128906 86.816406 377.503906 87.03125 377.035156 87.460938 C 376.527344 87.910156 376.234375 88.515625 376.175781 89.277344 L 377.09375 89.277344 C 377.152344 88.75 377.328125 88.320312 377.640625 88.027344 C 377.933594 87.734375 378.363281 87.617188 378.890625 87.617188 C 379.417969 87.617188 379.828125 87.734375 380.121094 88.007812 C 380.394531 88.242188 380.550781 88.59375 380.550781 89.042969 C 380.550781 89.492188 380.394531 89.84375 380.121094 90.097656 C 379.828125 90.332031 379.417969 90.449219 378.890625 90.449219 L 378.265625 90.449219 L 378.265625 91.171875 L 378.929688 91.171875 C 379.476562 91.171875 379.90625 91.289062 380.21875 91.5625 C 380.550781 91.835938 380.707031 92.207031 380.707031 92.695312 C 380.707031 93.164062 380.53125 93.554688 380.21875 93.867188 C 379.867188 94.199219 379.398438 94.375 378.832031 94.375 C 378.324219 94.375 377.914062 94.21875 377.5625 93.945312 C 377.171875 93.632812 376.957031 93.144531 376.9375 92.519531 L 376 92.519531 C 376.078125 93.417969 376.390625 94.101562 376.957031 94.570312 C 377.445312 94.960938 378.070312 95.15625 378.832031 95.15625 C 379.671875 95.15625 380.335938 94.921875 380.863281 94.453125 C 381.371094 93.984375 381.625 93.398438 381.625 92.65625 C 381.625 92.1875 381.488281 91.796875 381.214844 91.484375 C 380.960938 91.171875 380.609375 90.9375 380.140625 90.800781 C 381.019531 90.507812 381.449219 89.882812 381.449219 88.984375 C 381.449219 88.320312 381.214844 87.792969 380.746094 87.402344 C 380.277344 86.992188 379.652344 86.816406 378.890625 86.816406 Z M 378.890625 86.816406 "/>
<path style=" stroke:none;fill-rule:nonzero;fill:rgb(0%,0%,0%);fill-opacity:1;" d="M 386.730469 86.972656 L 386.730469 95 L 387.667969 95 L 387.667969 88.613281 L 387.6875 88.613281 L 390.480469 95 L 391.300781 95 L 394.09375 88.613281 L 394.113281 88.613281 L 394.113281 95 L 395.050781 95 L 395.050781 86.972656 L 393.898438 86.972656 L 390.910156 93.828125 L 390.871094 93.828125 L 387.882812 86.972656 Z M 386.730469 86.972656 "/>
<path style=" stroke:none;fill-rule:nonzero;fill:rgb(0%,0%,0%);fill-opacity:1;" d="M 399.074219 89.023438 C 398.390625 89.023438 397.824219 89.160156 397.394531 89.433594 C 396.925781 89.726562 396.632812 90.175781 396.496094 90.800781 L 397.394531 90.859375 C 397.492188 90.488281 397.667969 90.214844 397.980469 90.019531 C 398.253906 89.84375 398.605469 89.765625 399.015625 89.765625 C 400.03125 89.765625 400.539062 90.253906 400.539062 91.230469 L 400.539062 91.542969 L 399.152344 91.5625 C 398.273438 91.5625 397.589844 91.738281 397.121094 92.050781 C 396.574219 92.382812 396.320312 92.890625 396.320312 93.554688 C 396.320312 94.023438 396.496094 94.414062 396.867188 94.726562 C 397.21875 95.019531 397.667969 95.15625 398.253906 95.15625 C 398.800781 95.15625 399.289062 95.039062 399.71875 94.804688 C 400.070312 94.589844 400.382812 94.335938 400.597656 94.023438 L 400.597656 95 L 401.4375 95 L 401.4375 91.269531 C 401.4375 90.585938 401.261719 90.058594 400.929688 89.6875 C 400.519531 89.238281 399.914062 89.023438 399.074219 89.023438 Z M 400.539062 92.207031 L 400.539062 92.695312 C 400.539062 93.164062 400.324219 93.554688 399.914062 93.90625 C 399.484375 94.277344 398.996094 94.453125 398.449219 94.453125 C 398.097656 94.453125 397.804688 94.355469 397.570312 94.199219 C 397.355469 94.003906 397.238281 93.789062 397.238281 93.535156 C 397.238281 92.675781 397.902344 92.246094 399.210938 92.226562 Z M 400.539062 92.207031 "/>
<path style=" stroke:none;fill-rule:nonzero;fill:rgb(0%,0%,0%);fill-opacity:1;" d="M 402.453125 89.179688 L 404.503906 91.914062 L 402.199219 95 L 403.273438 95 L 405.011719 92.578125 L 406.75 95 L 407.804688 95 L 405.5 91.914062 L 407.570312 89.179688 L 406.496094 89.179688 L 405.011719 91.25 L 403.507812 89.179688 Z M 402.453125 89.179688 "/>
<path style=" stroke:none;fill-rule:nonzero;fill:rgb(0%,0%,0%);fill-opacity:1;" d="M 408.667969 86.972656 L 408.667969 95 L 409.605469 95 L 409.605469 91.71875 L 411.949219 91.71875 C 413.804688 91.71875 414.722656 90.917969 414.722656 89.335938 C 414.722656 87.753906 413.804688 86.972656 411.96875 86.972656 Z M 409.605469 87.773438 L 411.910156 87.773438 C 412.554688 87.773438 413.023438 87.890625 413.335938 88.164062 C 413.648438 88.398438 413.804688 88.789062 413.804688 89.335938 C 413.804688 89.863281 413.648438 90.273438 413.355469 90.527344 C 413.023438 90.78125 412.554688 90.917969 411.910156 90.917969 L 409.605469 90.917969 Z M 409.605469 87.773438 "/>
<path style=" stroke:none;fill-rule:nonzero;fill:rgb(0%,0%,0%);fill-opacity:1;" d="M 418.390625 89.023438 C 417.511719 89.023438 416.828125 89.316406 416.300781 89.921875 C 415.8125 90.507812 415.558594 91.210938 415.558594 92.089844 C 415.558594 92.96875 415.8125 93.691406 416.300781 94.238281 C 416.828125 94.863281 417.511719 95.15625 418.390625 95.15625 C 419.25 95.15625 419.953125 94.863281 420.480469 94.238281 C 420.96875 93.691406 421.203125 92.96875 421.203125 92.089844 C 421.203125 91.210938 420.96875 90.507812 420.460938 89.921875 C 419.953125 89.316406 419.25 89.023438 418.390625 89.023438 Z M 418.390625 89.785156 C 418.996094 89.785156 419.484375 90.019531 419.835938 90.488281 C 420.148438 90.917969 420.304688 91.445312 420.304688 92.089844 C 420.304688 92.734375 420.148438 93.261719 419.835938 93.691406 C 419.484375 94.160156 418.996094 94.394531 418.390625 94.394531 C 417.765625 94.394531 417.277344 94.160156 416.945312 93.691406 C 416.632812 93.261719 416.476562 92.734375 416.476562 92.089844 C 416.476562 91.445312 416.632812 90.917969 416.945312 90.488281 C 417.277344 90.019531 417.765625 89.785156 418.390625 89.785156 Z M 418.390625 89.785156 "/>
<path style=" stroke:none;fill-rule:nonzero;fill:rgb(0%,0%,0%);fill-opacity:1;" d="M 424.984375 89.023438 C 424.105469 89.023438 423.421875 89.316406 422.894531 89.921875 C 422.40625 90.507812 422.152344 91.210938 422.152344 92.089844 C 422.152344 92.96875 422.40625 93.691406 422.894531 94.238281 C 423.421875 94.863281 424.105469 95.15625 424.984375 95.15625 C 425.84375 95.15625 426.546875 94.863281 427.074219 94.238281 C 427.5625 93.691406 427.796875 92.96875 427.796875 92.089844 C 427.796875 91.210938 427.5625 90.507812 427.054688 89.921875 C 426.546875 89.316406 425.84375 89.023438 424.984375 89.023438 Z M 424.984375 89.785156 C 425.589844 89.785156 426.078125 90.019531 426.429688 90.488281 C 426.742188 90.917969 426.898438 91.445312 426.898438 92.089844 C 426.898438 92.734375 426.742188 93.261719 426.429688 93.691406 C 426.078125 94.160156 425.589844 94.394531 424.984375 94.394531 C 424.359375 94.394531 423.871094 94.160156 423.539062 93.691406 C 423.226562 93.261719 423.070312 92.734375 423.070312 92.089844 C 423.070312 91.445312 423.226562 90.917969 423.539062 90.488281 C 423.871094 90.019531 424.359375 89.785156 424.984375 89.785156 Z M 424.984375 89.785156 "/>
<path style=" stroke:none;fill-rule:nonzero;fill:rgb(0%,0%,0%);fill-opacity:1;" d="M 429.152344 86.816406 L 429.152344 95 L 430.03125 95 L 430.03125 86.816406 Z M 429.152344 86.816406 "/>
<path style=" stroke:none;fill-rule:nonzero;fill:rgb(0%,0%,0%);fill-opacity:1;" d="M 432.402344 93.652344 C 432.1875 93.652344 432.011719 93.710938 431.894531 93.847656 C 431.738281 93.984375 431.679688 94.140625 431.679688 94.355469 C 431.679688 94.550781 431.738281 94.726562 431.875 94.863281 C 432.011719 94.980469 432.167969 95.058594 432.363281 95.058594 C 432.460938 95.058594 432.558594 95.039062 432.597656 95.019531 C 432.597656 95.273438 432.519531 95.527344 432.363281 95.761719 C 432.1875 95.996094 431.933594 96.152344 431.640625 96.269531 L 431.640625 96.816406 C 432.128906 96.679688 432.519531 96.445312 432.8125 96.074219 C 433.105469 95.703125 433.242188 95.253906 433.242188 94.765625 C 433.242188 94.433594 433.164062 94.179688 433.027344 93.984375 C 432.871094 93.769531 432.65625 93.652344 432.402344 93.652344 Z M 432.402344 93.652344 "/>
<path style=" stroke:none;fill-rule:nonzero;fill:rgb(0%,0%,0%);fill-opacity:1;" d="M 441.109375 89.023438 C 440.230469 89.023438 439.585938 89.394531 439.175781 90.136719 L 439.175781 89.179688 L 438.335938 89.179688 L 438.335938 97.226562 L 439.234375 97.226562 L 439.234375 93.945312 C 439.683594 94.746094 440.328125 95.15625 441.148438 95.15625 C 441.988281 95.15625 442.632812 94.84375 443.101562 94.238281 C 443.53125 93.671875 443.746094 92.96875 443.746094 92.109375 C 443.746094 91.230469 443.53125 90.527344 443.082031 89.960938 C 442.613281 89.335938 441.949219 89.023438 441.109375 89.023438 Z M 440.992188 89.765625 C 441.617188 89.765625 442.085938 90 442.417969 90.46875 C 442.691406 90.878906 442.828125 91.425781 442.828125 92.109375 C 442.828125 92.8125 442.691406 93.359375 442.398438 93.769531 C 442.066406 94.199219 441.597656 94.414062 440.953125 94.414062 C 440.425781 94.414062 440.015625 94.199219 439.683594 93.789062 C 439.351562 93.378906 439.195312 92.832031 439.195312 92.167969 L 439.195312 92.050781 C 439.195312 91.40625 439.351562 90.859375 439.644531 90.449219 C 439.957031 90 440.40625 89.765625 440.992188 89.765625 Z M 440.992188 89.765625 "/>
<path style=" stroke:none;fill-rule:nonzero;fill:rgb(0%,0%,0%);fill-opacity:1;" d="M 447.449219 89.023438 C 446.765625 89.023438 446.199219 89.160156 445.769531 89.433594 C 445.300781 89.726562 445.007812 90.175781 444.871094 90.800781 L 445.769531 90.859375 C 445.867188 90.488281 446.042969 90.214844 446.355469 90.019531 C 446.628906 89.84375 446.980469 89.765625 447.390625 89.765625 C 448.40625 89.765625 448.914062 90.253906 448.914062 91.230469 L 448.914062 91.542969 L 447.527344 91.5625 C 446.648438 91.5625 445.964844 91.738281 445.496094 92.050781 C 444.949219 92.382812 444.695312 92.890625 444.695312 93.554688 C 444.695312 94.023438 444.871094 94.414062 445.242188 94.726562 C 445.59375 95.019531 446.042969 95.15625 446.628906 95.15625 C 447.175781 95.15625 447.664062 95.039062 448.09375 94.804688 C 448.445312 94.589844 448.757812 94.335938 448.972656 94.023438 L 448.972656 95 L 449.8125 95 L 449.8125 91.269531 C 449.8125 90.585938 449.636719 90.058594 449.304688 89.6875 C 448.894531 89.238281 448.289062 89.023438 447.449219 89.023438 Z M 448.914062 92.207031 L 448.914062 92.695312 C 448.914062 93.164062 448.699219 93.554688 448.289062 93.90625 C 447.859375 94.277344 447.371094 94.453125 446.824219 94.453125 C 446.472656 94.453125 446.179688 94.355469 445.945312 94.199219 C 445.730469 94.003906 445.613281 93.789062 445.613281 93.535156 C 445.613281 92.675781 446.277344 92.246094 447.585938 92.226562 Z M 448.914062 92.207031 "/>
<path style=" stroke:none;fill-rule:nonzero;fill:rgb(0%,0%,0%);fill-opacity:1;" d="M 455.515625 86.816406 L 455.515625 90.253906 C 455.066406 89.433594 454.421875 89.023438 453.582031 89.023438 C 452.761719 89.023438 452.117188 89.335938 451.648438 89.960938 C 451.199219 90.527344 450.984375 91.210938 450.984375 92.070312 C 450.984375 92.949219 451.199219 93.671875 451.648438 94.238281 C 452.117188 94.84375 452.78125 95.15625 453.640625 95.15625 C 454.5 95.15625 455.164062 94.785156 455.574219 94.042969 L 455.574219 95 L 456.414062 95 L 456.414062 86.816406 Z M 453.777344 89.765625 C 454.304688 89.765625 454.714844 89.980469 455.046875 90.390625 C 455.359375 90.820312 455.535156 91.367188 455.535156 92.050781 L 455.535156 92.148438 C 455.535156 92.8125 455.378906 93.339844 455.105469 93.730469 C 454.773438 94.199219 454.324219 94.414062 453.738281 94.414062 C 453.113281 94.414062 452.644531 94.179688 452.332031 93.730469 C 452.039062 93.320312 451.902344 92.773438 451.902344 92.070312 C 451.902344 91.386719 452.039062 90.839844 452.332031 90.449219 C 452.644531 90 453.132812 89.765625 453.777344 89.765625 Z M 453.777344 89.765625 "/>
<path style=" stroke:none;fill-rule:nonzero;fill:rgb(0%,0%,0%);fill-opacity:1;" d="M 463.433594 86.972656 C 463.179688 87.265625 462.867188 87.539062 462.476562 87.792969 C 462.085938 88.007812 461.714844 88.164062 461.34375 88.28125 L 461.34375 89.199219 C 462.105469 88.964844 462.730469 88.613281 463.238281 88.085938 L 463.238281 95 L 464.15625 95 L 464.15625 86.972656 Z M 463.433594 86.972656 "/>
<path style="fill-rule:nonzero;fill:rgb(100%,100%,100%);fill-opacity:1;stroke-width:1;stroke-linecap:round;stroke-linejoin:round;stroke:rgb(0%,0%,0%);stroke-opacity:1;stroke-miterlimit:10;" d="M 67.903125 -209.45 L 160.753125 -209.45 L 160.753125 -190.55 L 67.903125 -190.55 Z M 67.903125 -209.45 " transform="matrix(1.25,0,0,1.25,271.25,301.25)"/>
<path style=" stroke:none;fill-rule:nonzero;fill:rgb(0%,0%,0%);fill-opacity:1;" d="M 394.246094 46.972656 C 393.992188 47.265625 393.679688 47.539062 393.289062 47.792969 C 392.898438 48.007812 392.527344 48.164062 392.15625 48.28125 L 392.15625 49.199219 C 392.917969 48.964844 393.542969 48.613281 394.050781 48.085938 L 394.050781 55 L 394.96875 55 L 394.96875 46.972656 Z M 394.246094 46.972656 "/>
<path style=" stroke:none;fill-rule:nonzero;fill:rgb(0%,0%,0%);fill-opacity:1;" d="M 396.492188 49.179688 L 398.542969 51.914062 L 396.238281 55 L 397.3125 55 L 399.050781 52.578125 L 400.789062 55 L 401.84375 55 L 399.539062 51.914062 L 401.609375 49.179688 L 400.535156 49.179688 L 399.050781 51.25 L 397.546875 49.179688 Z M 396.492188 49.179688 "/>
<path style=" stroke:none;fill-rule:nonzero;fill:rgb(0%,0%,0%);fill-opacity:1;" d="M 404.484375 46.972656 C 404.230469 47.265625 403.917969 47.539062 403.527344 47.792969 C 403.136719 48.007812 402.765625 48.164062 402.394531 48.28125 L 402.394531 49.199219 C 403.15625 48.964844 403.78125 48.613281 404.289062 48.085938 L 404.289062 55 L 405.207031 55 L 405.207031 46.972656 Z M 404.484375 46.972656 "/>
<path style=" stroke:none;fill-rule:nonzero;fill:rgb(0%,0%,0%);fill-opacity:1;" d="M 414.4375 46.816406 C 413.207031 46.816406 412.230469 47.226562 411.546875 48.085938 C 410.941406 48.847656 410.628906 49.824219 410.628906 51.015625 C 410.628906 52.207031 410.921875 53.183594 411.527344 53.925781 C 412.191406 54.746094 413.148438 55.15625 414.398438 55.15625 C 415.257812 55.15625 416 54.902344 416.625 54.433594 C 417.289062 53.90625 417.699219 53.183594 417.875 52.246094 L 416.996094 52.246094 C 416.839844 52.949219 416.507812 53.476562 416.039062 53.828125 C 415.589844 54.160156 415.042969 54.335938 414.398438 54.335938 C 413.460938 54.335938 412.738281 54.023438 412.25 53.398438 C 411.78125 52.8125 411.546875 52.011719 411.546875 51.015625 C 411.546875 50.019531 411.800781 49.21875 412.269531 48.613281 C 412.777344 47.949219 413.480469 47.636719 414.417969 47.636719 C 415.0625 47.636719 415.589844 47.773438 416.019531 48.085938 C 416.46875 48.398438 416.761719 48.847656 416.878906 49.433594 L 417.757812 49.433594 C 417.660156 48.632812 417.289062 47.988281 416.683594 47.519531 C 416.078125 47.050781 415.316406 46.816406 414.4375 46.816406 Z M 414.4375 46.816406 "/>
<path style=" stroke:none;fill-rule:nonzero;fill:rgb(0%,0%,0%);fill-opacity:1;" d="M 421.652344 49.023438 C 420.773438 49.023438 420.089844 49.316406 419.5625 49.921875 C 419.074219 50.507812 418.820312 51.210938 418.820312 52.089844 C 418.820312 52.96875 419.074219 53.691406 419.5625 54.238281 C 420.089844 54.863281 420.773438 55.15625 421.652344 55.15625 C 422.511719 55.15625 423.214844 54.863281 423.742188 54.238281 C 424.230469 53.691406 424.464844 52.96875 424.464844 52.089844 C 424.464844 51.210938 424.230469 50.507812 423.722656 49.921875 C 423.214844 49.316406 422.511719 49.023438 421.652344 49.023438 Z M 421.652344 49.785156 C 422.257812 49.785156 422.746094 50.019531 423.097656 50.488281 C 423.410156 50.917969 423.566406 51.445312 423.566406 52.089844 C 423.566406 52.734375 423.410156 53.261719 423.097656 53.691406 C 422.746094 54.160156 422.257812 54.394531 421.652344 54.394531 C 421.027344 54.394531 420.539062 54.160156 420.207031 53.691406 C 419.894531 53.261719 419.738281 52.734375 419.738281 52.089844 C 419.738281 51.445312 419.894531 50.917969 420.207031 50.488281 C 420.539062 50.019531 421.027344 49.785156 421.652344 49.785156 Z M 421.652344 49.785156 "/>
<path style=" stroke:none;fill-rule:nonzero;fill:rgb(0%,0%,0%);fill-opacity:1;" d="M 428.363281 49.023438 C 427.992188 49.023438 427.640625 49.121094 427.328125 49.296875 C 426.996094 49.472656 426.742188 49.707031 426.546875 50.039062 L 426.546875 49.179688 L 425.648438 49.179688 L 425.648438 55 L 426.546875 55 L 426.546875 51.484375 C 426.585938 50.957031 426.742188 50.546875 427.054688 50.234375 C 427.347656 49.941406 427.699219 49.785156 428.109375 49.785156 C 429.125 49.785156 429.632812 50.351562 429.632812 51.484375 L 429.632812 55 L 430.53125 55 L 430.53125 51.425781 C 430.53125 49.824219 429.808594 49.023438 428.363281 49.023438 Z M 428.363281 49.023438 "/>
<path style=" stroke:none;fill-rule:nonzero;fill:rgb(0%,0%,0%);fill-opacity:1;" d="M 431.292969 49.179688 L 433.480469 55 L 434.398438 55 L 436.605469 49.179688 L 435.609375 49.179688 L 433.949219 53.867188 L 432.289062 49.179688 Z M 431.292969 49.179688 "/>
<path style="fill:none;stroke-width:1;stroke-linecap:round;stroke-linejoin:round;stroke:rgb(0%,0%,0%);stroke-opacity:1;stroke-miterlimit:10;" d="M 114.328125 -177.45 L 114.328125 -184.65 " transform="matrix(1.25,0,0,1.25,271.25,301.25)"/>
<path style="fill:none;stroke-width:1;stroke-linecap:butt;stroke-linejoin:miter;stroke:rgb(0%,0%,0%);stroke-opacity:1;stroke-miterlimit:10;" d="M 114.328125 -188.65 L 114.328125 -184.65 M 112.828125 -184.65 L 114.328125 -188.65 L 115.828125 -184.65 " transform="matrix(1.25,0,0,1.25,271.25,301.25)"/>
<path style="fill-rule:nonzero;fill:rgb(69.803922%,85.098039%,100%);fill-opacity:1;stroke-width:1;stroke-linecap:round;stroke-linejoin:round;stroke:rgb(0%,0%,0%);stroke-opacity:1;stroke-miterlimit:10;" d="M -72.03125 -144.45 L 4.096875 -144.45 L 4.096875 -125.55 L -72.03125 -125.55 Z M -72.03125 -144.45 " transform="matrix(1.25,0,0,1.25,271.25,301.25)"/>
<path style=" stroke:none;fill-rule:nonzero;fill:rgb(0%,0%,0%);fill-opacity:1;" d="M 216.75 128.222656 L 216.75 136.25 L 217.667969 136.25 L 217.667969 128.222656 Z M 216.75 128.222656 "/>
<path style=" stroke:none;fill-rule:nonzero;fill:rgb(0%,0%,0%);fill-opacity:1;" d="M 221.957031 130.273438 C 221.585938 130.273438 221.234375 130.371094 220.921875 130.546875 C 220.589844 130.722656 220.335938 130.957031 220.140625 131.289062 L 220.140625 130.429688 L 219.242188 130.429688 L 219.242188 136.25 L 220.140625 136.25 L 220.140625 132.734375 C 220.179688 132.207031 220.335938 131.796875 220.648438 131.484375 C 220.941406 131.191406 221.292969 131.035156 221.703125 131.035156 C 222.71875 131.035156 223.226562 131.601562 223.226562 132.734375 L 223.226562 136.25 L 224.125 136.25 L 224.125 132.675781 C 224.125 131.074219 223.402344 130.273438 221.957031 130.273438 Z M 221.957031 130.273438 "/>
<path style=" stroke:none;fill-rule:nonzero;fill:rgb(0%,0%,0%);fill-opacity:1;" d="M 228.304688 130.273438 C 227.425781 130.273438 226.78125 130.644531 226.371094 131.386719 L 226.371094 130.429688 L 225.53125 130.429688 L 225.53125 138.476562 L 226.429688 138.476562 L 226.429688 135.195312 C 226.878906 135.996094 227.523438 136.40625 228.34375 136.40625 C 229.183594 136.40625 229.828125 136.09375 230.296875 135.488281 C 230.726562 134.921875 230.941406 134.21875 230.941406 133.359375 C 230.941406 132.480469 230.726562 131.777344 230.277344 131.210938 C 229.808594 130.585938 229.144531 130.273438 228.304688 130.273438 Z M 228.1875 131.015625 C 228.8125 131.015625 229.28125 131.25 229.613281 131.71875 C 229.886719 132.128906 230.023438 132.675781 230.023438 133.359375 C 230.023438 134.0625 229.886719 134.609375 229.59375 135.019531 C 229.261719 135.449219 228.792969 135.664062 228.148438 135.664062 C 227.621094 135.664062 227.210938 135.449219 226.878906 135.039062 C 226.546875 134.628906 226.390625 134.082031 226.390625 133.417969 L 226.390625 133.300781 C 226.390625 132.65625 226.546875 132.109375 226.839844 131.699219 C 227.152344 131.25 227.601562 131.015625 228.1875 131.015625 Z M 228.1875 131.015625 "/>
<path style=" stroke:none;fill-rule:nonzero;fill:rgb(0%,0%,0%);fill-opacity:1;" d="M 232.125 130.429688 L 232.125 134.042969 C 232.125 135.605469 232.808594 136.40625 234.234375 136.40625 C 235.015625 136.40625 235.660156 136.054688 236.128906 135.351562 L 236.128906 136.25 L 237.027344 136.25 L 237.027344 130.429688 L 236.128906 130.429688 L 236.128906 133.984375 C 236.050781 134.472656 235.875 134.882812 235.542969 135.195312 C 235.25 135.488281 234.898438 135.644531 234.507812 135.644531 C 233.980469 135.644531 233.609375 135.488281 233.375 135.234375 C 233.140625 134.960938 233.023438 134.53125 233.023438 133.984375 L 233.023438 130.429688 Z M 232.125 130.429688 "/>
<path style=" stroke:none;fill-rule:nonzero;fill:rgb(0%,0%,0%);fill-opacity:1;" d="M 239.964844 128.554688 L 239.085938 128.925781 L 239.085938 130.429688 L 237.914062 130.429688 L 237.914062 131.191406 L 239.085938 131.191406 L 239.085938 134.882812 C 239.085938 135.332031 239.164062 135.644531 239.359375 135.878906 C 239.554688 136.132812 239.90625 136.25 240.394531 136.25 L 241.253906 136.25 L 241.253906 135.488281 L 240.511719 135.488281 C 240.316406 135.488281 240.179688 135.449219 240.101562 135.351562 C 240.003906 135.253906 239.964844 135.097656 239.964844 134.882812 L 239.964844 131.191406 L 241.410156 131.191406 L 241.410156 130.429688 L 239.964844 130.429688 Z M 239.964844 128.554688 "/>
<path style="fill-rule:nonzero;fill:rgb(69.803922%,85.098039%,100%);fill-opacity:1;stroke-width:1;stroke-linecap:round;stroke-linejoin:round;stroke:rgb(0%,0%,0%);stroke-opacity:1;stroke-miterlimit:10;" d="M -72.03125 -240.45 L 4.096875 -240.45 L 4.096875 -221.55 L -72.03125 -221.55 Z M -72.03125 -240.45 " transform="matrix(1.25,0,0,1.25,271.25,301.25)"/>
<path style=" stroke:none;fill-rule:nonzero;fill:rgb(0%,0%,0%);fill-opacity:1;" d="M 195.027344 8.066406 C 193.796875 8.066406 192.820312 8.476562 192.136719 9.335938 C 191.53125 10.097656 191.21875 11.074219 191.21875 12.265625 C 191.21875 13.457031 191.511719 14.433594 192.117188 15.175781 C 192.78125 15.996094 193.738281 16.40625 194.988281 16.40625 C 195.847656 16.40625 196.589844 16.152344 197.214844 15.683594 C 197.878906 15.15625 198.289062 14.433594 198.464844 13.496094 L 197.585938 13.496094 C 197.429688 14.199219 197.097656 14.726562 196.628906 15.078125 C 196.179688 15.410156 195.632812 15.585938 194.988281 15.585938 C 194.050781 15.585938 193.328125 15.273438 192.839844 14.648438 C 192.371094 14.0625 192.136719 13.261719 192.136719 12.265625 C 192.136719 11.269531 192.390625 10.46875 192.859375 9.863281 C 193.367188 9.199219 194.070312 8.886719 195.007812 8.886719 C 195.652344 8.886719 196.179688 9.023438 196.609375 9.335938 C 197.058594 9.648438 197.351562 10.097656 197.46875 10.683594 L 198.347656 10.683594 C 198.25 9.882812 197.878906 9.238281 197.273438 8.769531 C 196.667969 8.300781 195.90625 8.066406 195.027344 8.066406 Z M 195.027344 8.066406 "/>
<path style=" stroke:none;fill-rule:nonzero;fill:rgb(0%,0%,0%);fill-opacity:1;" d="M 202.242188 10.273438 C 201.363281 10.273438 200.679688 10.566406 200.152344 11.171875 C 199.664062 11.757812 199.410156 12.460938 199.410156 13.339844 C 199.410156 14.21875 199.664062 14.941406 200.152344 15.488281 C 200.679688 16.113281 201.363281 16.40625 202.242188 16.40625 C 203.101562 16.40625 203.804688 16.113281 204.332031 15.488281 C 204.820312 14.941406 205.054688 14.21875 205.054688 13.339844 C 205.054688 12.460938 204.820312 11.757812 204.3125 11.171875 C 203.804688 10.566406 203.101562 10.273438 202.242188 10.273438 Z M 202.242188 11.035156 C 202.847656 11.035156 203.335938 11.269531 203.6875 11.738281 C 204 12.167969 204.15625 12.695312 204.15625 13.339844 C 204.15625 13.984375 204 14.511719 203.6875 14.941406 C 203.335938 15.410156 202.847656 15.644531 202.242188 15.644531 C 201.617188 15.644531 201.128906 15.410156 200.796875 14.941406 C 200.484375 14.511719 200.328125 13.984375 200.328125 13.339844 C 200.328125 12.695312 200.484375 12.167969 200.796875 11.738281 C 201.128906 11.269531 201.617188 11.035156 202.242188 11.035156 Z M 202.242188 11.035156 "/>
<path style=" stroke:none;fill-rule:nonzero;fill:rgb(0%,0%,0%);fill-opacity:1;" d="M 208.953125 10.273438 C 208.582031 10.273438 208.230469 10.371094 207.917969 10.546875 C 207.585938 10.722656 207.332031 10.957031 207.136719 11.289062 L 207.136719 10.429688 L 206.238281 10.429688 L 206.238281 16.25 L 207.136719 16.25 L 207.136719 12.734375 C 207.175781 12.207031 207.332031 11.796875 207.644531 11.484375 C 207.9375 11.191406 208.289062 11.035156 208.699219 11.035156 C 209.714844 11.035156 210.222656 11.601562 210.222656 12.734375 L 210.222656 16.25 L 211.121094 16.25 L 211.121094 12.675781 C 211.121094 11.074219 210.398438 10.273438 208.953125 10.273438 Z M 208.953125 10.273438 "/>
<path style=" stroke:none;fill-rule:nonzero;fill:rgb(0%,0%,0%);fill-opacity:1;" d="M 215.027344 10.273438 C 214.167969 10.273438 213.484375 10.585938 212.976562 11.191406 C 212.527344 11.757812 212.292969 12.480469 212.292969 13.378906 C 212.292969 14.257812 212.527344 14.980469 212.976562 15.527344 C 213.464844 16.113281 214.148438 16.40625 215.027344 16.40625 C 215.730469 16.40625 216.316406 16.210938 216.746094 15.839844 C 217.195312 15.46875 217.488281 14.882812 217.625 14.140625 L 216.726562 14.140625 C 216.589844 15.15625 216.003906 15.644531 215.027344 15.644531 C 214.441406 15.644531 213.992188 15.449219 213.679688 15.039062 C 213.367188 14.628906 213.210938 14.0625 213.210938 13.359375 C 213.210938 12.65625 213.367188 12.089844 213.699219 11.679688 C 214.011719 11.25 214.460938 11.035156 215.027344 11.035156 C 215.496094 11.035156 215.867188 11.132812 216.160156 11.347656 C 216.433594 11.582031 216.609375 11.914062 216.6875 12.363281 L 217.585938 12.363281 C 217.488281 11.660156 217.214844 11.132812 216.765625 10.78125 C 216.316406 10.449219 215.75 10.273438 215.027344 10.273438 Z M 215.027344 10.273438 "/>
<path style=" stroke:none;fill-rule:nonzero;fill:rgb(0%,0%,0%);fill-opacity:1;" d="M 221.199219 10.273438 C 220.515625 10.273438 219.949219 10.410156 219.519531 10.683594 C 219.050781 10.976562 218.757812 11.425781 218.621094 12.050781 L 219.519531 12.109375 C 219.617188 11.738281 219.792969 11.464844 220.105469 11.269531 C 220.378906 11.09375 220.730469 11.015625 221.140625 11.015625 C 222.15625 11.015625 222.664062 11.503906 222.664062 12.480469 L 222.664062 12.792969 L 221.277344 12.8125 C 220.398438 12.8125 219.714844 12.988281 219.246094 13.300781 C 218.699219 13.632812 218.445312 14.140625 218.445312 14.804688 C 218.445312 15.273438 218.621094 15.664062 218.992188 15.976562 C 219.34375 16.269531 219.792969 16.40625 220.378906 16.40625 C 220.925781 16.40625 221.414062 16.289062 221.84375 16.054688 C 222.195312 15.839844 222.507812 15.585938 222.722656 15.273438 L 222.722656 16.25 L 223.5625 16.25 L 223.5625 12.519531 C 223.5625 11.835938 223.386719 11.308594 223.054688 10.9375 C 222.644531 10.488281 222.039062 10.273438 221.199219 10.273438 Z M 222.664062 13.457031 L 222.664062 13.945312 C 222.664062 14.414062 222.449219 14.804688 222.039062 15.15625 C 221.609375 15.527344 221.121094 15.703125 220.574219 15.703125 C 220.222656 15.703125 219.929688 15.605469 219.695312 15.449219 C 219.480469 15.253906 219.363281 15.039062 219.363281 14.785156 C 219.363281 13.925781 220.027344 13.496094 221.335938 13.476562 Z M 222.664062 13.457031 "/>
<path style=" stroke:none;fill-rule:nonzero;fill:rgb(0%,0%,0%);fill-opacity:1;" d="M 226.511719 8.554688 L 225.632812 8.925781 L 225.632812 10.429688 L 224.460938 10.429688 L 224.460938 11.191406 L 225.632812 11.191406 L 225.632812 14.882812 C 225.632812 15.332031 225.710938 15.644531 225.90625 15.878906 C 226.101562 16.132812 226.453125 16.25 226.941406 16.25 L 227.800781 16.25 L 227.800781 15.488281 L 227.058594 15.488281 C 226.863281 15.488281 226.726562 15.449219 226.648438 15.351562 C 226.550781 15.253906 226.511719 15.097656 226.511719 14.882812 L 226.511719 11.191406 L 227.957031 11.191406 L 227.957031 10.429688 L 226.511719 10.429688 Z M 226.511719 8.554688 "/>
<path style=" stroke:none;fill-rule:nonzero;fill:rgb(0%,0%,0%);fill-opacity:1;" d="M 231.34375 10.273438 C 230.503906 10.273438 229.839844 10.585938 229.351562 11.191406 C 228.863281 11.757812 228.609375 12.480469 228.609375 13.339844 C 228.609375 14.277344 228.863281 15.019531 229.390625 15.585938 C 229.878906 16.132812 230.5625 16.40625 231.382812 16.40625 C 232.144531 16.40625 232.75 16.191406 233.238281 15.761719 C 233.628906 15.390625 233.902344 14.941406 234.019531 14.375 L 233.121094 14.375 C 232.984375 14.785156 232.789062 15.097656 232.535156 15.292969 C 232.242188 15.527344 231.851562 15.644531 231.382812 15.644531 C 230.835938 15.644531 230.386719 15.46875 230.074219 15.117188 C 229.761719 14.746094 229.605469 14.238281 229.546875 13.59375 L 234.136719 13.59375 C 234.117188 12.578125 233.902344 11.777344 233.472656 11.230469 C 232.984375 10.585938 232.28125 10.273438 231.34375 10.273438 Z M 231.382812 11.035156 C 232.476562 11.035156 233.101562 11.640625 233.199219 12.890625 L 229.566406 12.890625 C 229.625 12.324219 229.800781 11.875 230.132812 11.542969 C 230.445312 11.191406 230.855469 11.035156 231.382812 11.035156 Z M 231.382812 11.035156 "/>
<path style=" stroke:none;fill-rule:nonzero;fill:rgb(0%,0%,0%);fill-opacity:1;" d="M 237.921875 10.273438 C 237.550781 10.273438 237.199219 10.371094 236.886719 10.546875 C 236.554688 10.722656 236.300781 10.957031 236.105469 11.289062 L 236.105469 10.429688 L 235.207031 10.429688 L 235.207031 16.25 L 236.105469 16.25 L 236.105469 12.734375 C 236.144531 12.207031 236.300781 11.796875 236.613281 11.484375 C 236.90625 11.191406 237.257812 11.035156 237.667969 11.035156 C 238.683594 11.035156 239.191406 11.601562 239.191406 12.734375 L 239.191406 16.25 L 240.089844 16.25 L 240.089844 12.675781 C 240.089844 11.074219 239.367188 10.273438 237.921875 10.273438 Z M 237.921875 10.273438 "/>
<path style=" stroke:none;fill-rule:nonzero;fill:rgb(0%,0%,0%);fill-opacity:1;" d="M 244.015625 10.273438 C 243.332031 10.273438 242.765625 10.410156 242.335938 10.683594 C 241.867188 10.976562 241.574219 11.425781 241.4375 12.050781 L 242.335938 12.109375 C 242.433594 11.738281 242.609375 11.464844 242.921875 11.269531 C 243.195312 11.09375 243.546875 11.015625 243.957031 11.015625 C 244.972656 11.015625 245.480469 11.503906 245.480469 12.480469 L 245.480469 12.792969 L 244.09375 12.8125 C 243.214844 12.8125 242.53125 12.988281 242.0625 13.300781 C 241.515625 13.632812 241.261719 14.140625 241.261719 14.804688 C 241.261719 15.273438 241.4375 15.664062 241.808594 15.976562 C 242.160156 16.269531 242.609375 16.40625 243.195312 16.40625 C 243.742188 16.40625 244.230469 16.289062 244.660156 16.054688 C 245.011719 15.839844 245.324219 15.585938 245.539062 15.273438 L 245.539062 16.25 L 246.378906 16.25 L 246.378906 12.519531 C 246.378906 11.835938 246.203125 11.308594 245.871094 10.9375 C 245.460938 10.488281 244.855469 10.273438 244.015625 10.273438 Z M 245.480469 13.457031 L 245.480469 13.945312 C 245.480469 14.414062 245.265625 14.804688 244.855469 15.15625 C 244.425781 15.527344 243.9375 15.703125 243.390625 15.703125 C 243.039062 15.703125 242.746094 15.605469 242.511719 15.449219 C 242.296875 15.253906 242.179688 15.039062 242.179688 14.785156 C 242.179688 13.925781 242.84375 13.496094 244.152344 13.476562 Z M 245.480469 13.457031 "/>
<path style=" stroke:none;fill-rule:nonzero;fill:rgb(0%,0%,0%);fill-opacity:1;" d="M 249.324219 8.554688 L 248.445312 8.925781 L 248.445312 10.429688 L 247.273438 10.429688 L 247.273438 11.191406 L 248.445312 11.191406 L 248.445312 14.882812 C 248.445312 15.332031 248.523438 15.644531 248.71875 15.878906 C 248.914062 16.132812 249.265625 16.25 249.753906 16.25 L 250.613281 16.25 L 250.613281 15.488281 L 249.871094 15.488281 C 249.675781 15.488281 249.539062 15.449219 249.460938 15.351562 C 249.363281 15.253906 249.324219 15.097656 249.324219 14.882812 L 249.324219 11.191406 L 250.769531 11.191406 L 250.769531 10.429688 L 249.324219 10.429688 Z M 249.324219 8.554688 "/>
<path style=" stroke:none;fill-rule:nonzero;fill:rgb(0%,0%,0%);fill-opacity:1;" d="M 252.519531 8.242188 C 252.324219 8.242188 252.167969 8.300781 252.03125 8.4375 C 251.894531 8.535156 251.835938 8.710938 251.835938 8.90625 C 251.835938 9.101562 251.894531 9.257812 252.03125 9.394531 C 252.167969 9.511719 252.324219 9.570312 252.519531 9.570312 C 252.714844 9.570312 252.871094 9.511719 252.988281 9.394531 C 253.125 9.257812 253.203125 9.101562 253.203125 8.90625 C 253.203125 8.710938 253.125 8.535156 252.988281 8.4375 C 252.871094 8.300781 252.714844 8.242188 252.519531 8.242188 Z M 252.070312 10.429688 L 252.070312 16.25 L 252.96875 16.25 L 252.96875 10.429688 Z M 252.070312 10.429688 "/>
<path style=" stroke:none;fill-rule:nonzero;fill:rgb(0%,0%,0%);fill-opacity:1;" d="M 257.253906 10.273438 C 256.375 10.273438 255.691406 10.566406 255.164062 11.171875 C 254.675781 11.757812 254.421875 12.460938 254.421875 13.339844 C 254.421875 14.21875 254.675781 14.941406 255.164062 15.488281 C 255.691406 16.113281 256.375 16.40625 257.253906 16.40625 C 258.113281 16.40625 258.816406 16.113281 259.34375 15.488281 C 259.832031 14.941406 260.066406 14.21875 260.066406 13.339844 C 260.066406 12.460938 259.832031 11.757812 259.324219 11.171875 C 258.816406 10.566406 258.113281 10.273438 257.253906 10.273438 Z M 257.253906 11.035156 C 257.859375 11.035156 258.347656 11.269531 258.699219 11.738281 C 259.011719 12.167969 259.167969 12.695312 259.167969 13.339844 C 259.167969 13.984375 259.011719 14.511719 258.699219 14.941406 C 258.347656 15.410156 257.859375 15.644531 257.253906 15.644531 C 256.628906 15.644531 256.140625 15.410156 255.808594 14.941406 C 255.496094 14.511719 255.339844 13.984375 255.339844 13.339844 C 255.339844 12.695312 255.496094 12.167969 255.808594 11.738281 C 256.140625 11.269531 256.628906 11.035156 257.253906 11.035156 Z M 257.253906 11.035156 "/>
<path style=" stroke:none;fill-rule:nonzero;fill:rgb(0%,0%,0%);fill-opacity:1;" d="M 263.964844 10.273438 C 263.59375 10.273438 263.242188 10.371094 262.929688 10.546875 C 262.597656 10.722656 262.34375 10.957031 262.148438 11.289062 L 262.148438 10.429688 L 261.25 10.429688 L 261.25 16.25 L 262.148438 16.25 L 262.148438 12.734375 C 262.1875 12.207031 262.34375 11.796875 262.65625 11.484375 C 262.949219 11.191406 263.300781 11.035156 263.710938 11.035156 C 264.726562 11.035156 265.234375 11.601562 265.234375 12.734375 L 265.234375 16.25 L 266.132812 16.25 L 266.132812 12.675781 C 266.132812 11.074219 265.410156 10.273438 263.964844 10.273438 Z M 263.964844 10.273438 "/>
<path style="fill:none;stroke-width:1;stroke-linecap:round;stroke-linejoin:miter;stroke:rgb(0%,0%,0%);stroke-opacity:1;stroke-miterlimit:10;" d="M -19.83125 -144.45 L -5.140625 -154.26875 " transform="matrix(1.25,0,0,1.25,271.25,301.25)"/>
<path style="fill:none;stroke-width:1;stroke-linecap:butt;stroke-linejoin:miter;stroke:rgb(0%,0%,0%);stroke-opacity:1;stroke-miterlimit:10;" d="M -1.815625 -156.49375 L -5.140625 -154.26875 M -5.975 -155.51875 L -1.815625 -156.49375 L -4.309375 -153.025 " transform="matrix(1.25,0,0,1.25,271.25,301.25)"/>
<path style="fill:none;stroke-width:1;stroke-linecap:round;stroke-linejoin:miter;stroke:rgb(0%,0%,0%);stroke-opacity:1;stroke-miterlimit:10;" d="M -47.890625 -144.45 L -62.315625 -154.2375 " transform="matrix(1.25,0,0,1.25,271.25,301.25)"/>
<path style="fill:none;stroke-width:1;stroke-linecap:butt;stroke-linejoin:miter;stroke:rgb(0%,0%,0%);stroke-opacity:1;stroke-miterlimit:10;" d="M -65.625 -156.484375 L -62.315625 -154.2375 M -63.15625 -152.996875 L -65.625 -156.484375 L -61.471875 -155.475 " transform="matrix(1.25,0,0,1.25,271.25,301.25)"/>
<path style="fill:none;stroke-width:1;stroke-linecap:round;stroke-linejoin:miter;stroke:rgb(0%,0%,0%);stroke-opacity:1;stroke-miterlimit:10;" d="M -67.2 -208.45 L -52.775 -218.2375 " transform="matrix(1.25,0,0,1.25,271.25,301.25)"/>
<path style="fill:none;stroke-width:1;stroke-linecap:butt;stroke-linejoin:miter;stroke:rgb(0%,0%,0%);stroke-opacity:1;stroke-miterlimit:10;" d="M -49.465625 -220.484375 L -52.775 -218.2375 M -53.61875 -219.475 L -49.465625 -220.484375 L -51.934375 -216.996875 " transform="matrix(1.25,0,0,1.25,271.25,301.25)"/>
<path style="fill:none;stroke-width:1;stroke-linecap:round;stroke-linejoin:miter;stroke:rgb(0%,0%,0%);stroke-opacity:1;stroke-miterlimit:10;" d="M -0.2375 -208.45 L -14.925 -218.26875 " transform="matrix(1.25,0,0,1.25,271.25,301.25)"/>
<path style="fill:none;stroke-width:1;stroke-linecap:butt;stroke-linejoin:miter;stroke:rgb(0%,0%,0%);stroke-opacity:1;stroke-miterlimit:10;" d="M -18.25 -220.49375 L -14.925 -218.26875 M -15.75625 -217.025 L -18.25 -220.49375 L -14.09375 -219.51875 " transform="matrix(1.25,0,0,1.25,271.25,301.25)"/>
<path style="fill:none;stroke-width:1;stroke-linecap:round;stroke-linejoin:miter;stroke:rgb(0%,0%,0%);stroke-opacity:1;stroke-miterlimit:10;" d="M 4.096875 -133.684375 L 109.328125 -133.684375 C 112.090625 -133.684375 114.328125 -135.921875 114.328125 -138.684375 L 114.328125 -152.65 " transform="matrix(1.25,0,0,1.25,271.25,301.25)"/>
<path style="fill:none;stroke-width:1;stroke-linecap:butt;stroke-linejoin:miter;stroke:rgb(0%,0%,0%);stroke-opacity:1;stroke-miterlimit:10;" d="M 114.328125 -156.65 L 114.328125 -152.65 M 112.828125 -152.65 L 114.328125 -156.65 L 115.828125 -152.65 " transform="matrix(1.25,0,0,1.25,271.25,301.25)"/>
<path style="fill:none;stroke-width:1;stroke-linecap:round;stroke-linejoin:miter;stroke:rgb(0%,0%,0%);stroke-opacity:1;stroke-miterlimit:10;" d="M -72.03125 -133.909375 L -169.234375 -133.909375 C -171.996875 -133.909375 -174.234375 -136.15 -174.234375 -138.909375 L -174.234375 -167.65 " transform="matrix(1.25,0,0,1.25,271.25,301.25)"/>
<path style="fill:none;stroke-width:1;stroke-linecap:butt;stroke-linejoin:miter;stroke:rgb(0%,0%,0%);stroke-opacity:1;stroke-miterlimit:10;" d="M -174.234375 -171.65 L -174.234375 -167.65 M -175.734375 -167.65 L -174.234375 -171.65 L -172.734375 -167.65 " transform="matrix(1.25,0,0,1.25,271.25,301.25)"/>
<path style="fill:none;stroke-width:1;stroke-linecap:round;stroke-linejoin:miter;stroke:rgb(0%,0%,0%);stroke-opacity:1;stroke-miterlimit:10;" d="M -174.234375 -192.45 L -174.234375 -225.50625 C -174.234375 -228.26875 -171.996875 -230.50625 -169.234375 -230.50625 L -77.93125 -230.50625 " transform="matrix(1.25,0,0,1.25,271.25,301.25)"/>
<path style="fill:none;stroke-width:1;stroke-linecap:butt;stroke-linejoin:miter;stroke:rgb(0%,0%,0%);stroke-opacity:1;stroke-miterlimit:10;" d="M -73.93125 -230.50625 L -77.93125 -230.50625 M -77.93125 -232.00625 L -73.93125 -230.50625 L -77.93125 -229.00625 " transform="matrix(1.25,0,0,1.25,271.25,301.25)"/>
<path style="fill:none;stroke-width:1;stroke-linecap:round;stroke-linejoin:miter;stroke:rgb(0%,0%,0%);stroke-opacity:1;stroke-miterlimit:10;" d="M 114.328125 -209.45 L 114.328125 -224.20625 C 114.328125 -226.965625 112.090625 -229.20625 109.328125 -229.20625 L 10 -229.20625 " transform="matrix(1.25,0,0,1.25,271.25,301.25)"/>
<path style="fill:none;stroke-width:1;stroke-linecap:butt;stroke-linejoin:miter;stroke:rgb(0%,0%,0%);stroke-opacity:1;stroke-miterlimit:10;" d="M 6 -229.20625 L 10 -229.20625 M 10 -227.70625 L 6 -229.20625 L 10 -230.70625 " transform="matrix(1.25,0,0,1.25,271.25,301.25)"/>
</g>
</svg>
