<?xml version="1.0" encoding="UTF-8"?>
<svg xmlns="http://www.w3.org/2000/svg" xmlns:xlink="http://www.w3.org/1999/xlink" width="327pt" height="226pt" viewBox="0 0 327 226" version="1.1">
<defs>
<clipPath id="clip1">
  <path d="M 62.679688 9 L 64 9 L 64 178.875 L 62.679688 178.875 Z M 62.679688 9 "/>
</clipPath>
<clipPath id="clip2">
  <path d="M 143 9 L 145 9 L 145 178.875 L 143 178.875 Z M 143 9 "/>
</clipPath>
<clipPath id="clip3">
  <path d="M 224 9 L 227 9 L 227 178.875 L 224 178.875 Z M 224 9 "/>
</clipPath>
<clipPath id="clip4">
  <path d="M 306 9 L 306.804688 9 L 306.804688 178.875 L 306 178.875 Z M 306 9 "/>
</clipPath>
<clipPath id="clip5">
  <path d="M 62.679688 174 L 306.804688 174 L 306.804688 176 L 62.679688 176 Z M 62.679688 174 "/>
</clipPath>
<clipPath id="clip6">
  <path d="M 62.679688 140 L 306.804688 140 L 306.804688 142 L 62.679688 142 Z M 62.679688 140 "/>
</clipPath>
<clipPath id="clip7">
  <path d="M 62.679688 106 L 306.804688 106 L 306.804688 108 L 62.679688 108 Z M 62.679688 106 "/>
</clipPath>
<clipPath id="clip8">
  <path d="M 62.679688 72 L 306.804688 72 L 306.804688 75 L 62.679688 75 Z M 62.679688 72 "/>
</clipPath>
<clipPath id="clip9">
  <path d="M 62.679688 38 L 306.804688 38 L 306.804688 41 L 62.679688 41 Z M 62.679688 38 "/>
</clipPath>
<clipPath id="clip10">
  <path d="M 62.679688 43 L 155 43 L 155 172 L 62.679688 172 Z M 62.679688 43 "/>
</clipPath>
<filter id="alpha" filterUnits="objectBoundingBox" x="0%" y="0%" width="100%" height="100%">
  <feColorMatrix type="matrix" in="SourceGraphic" values="0 0 0 0 1 0 0 0 0 1 0 0 0 0 1 0 0 0 1 0"/>
</filter>
<mask id="mask0">
  <g filter="url(#alpha)">
<rect x="0" y="0" width="327" height="226" style="fill:rgb(0%,0%,0%);fill-opacity:0.8;stroke:none;"/>
  </g>
</mask>
<clipPath id="clip11">
  <rect width="327" height="226"/>
</clipPath>
<g id="surface6" clip-path="url(#clip11)">
<path style="fill-rule:nonzero;fill:rgb(100%,100%,100%);fill-opacity:1;stroke-width:1;stroke-linecap:butt;stroke-linejoin:miter;stroke:rgb(80%,80%,80%);stroke-opacity:1;stroke-miterlimit:4;" d="M 128.175 106.00625 L 238.44375 106.00625 C 239.778125 106.00625 240.44375 105.340625 240.44375 104.00625 L 240.44375 46.29375 C 240.44375 44.959375 239.778125 44.29375 238.44375 44.29375 L 128.175 44.29375 C 126.84375 44.29375 126.175 44.959375 126.175 46.29375 L 126.175 104.00625 C 126.175 105.340625 126.84375 106.00625 128.175 106.00625 Z M 128.175 106.00625 " transform="matrix(1.25,0,0,1.25,0,0)"/>
</g>
</defs>
<g id="surface1">
<path style=" stroke:none;fill-rule:nonzero;fill:rgb(100%,100%,100%);fill-opacity:1;" d="M 62.679688 178.875 L 306.804688 178.875 L 306.804688 9 L 62.679688 9 Z M 62.679688 178.875 "/>
<g clip-path="url(#clip1)" clip-rule="nonzero">
<path style="fill:none;stroke-width:0.8;stroke-linecap:square;stroke-linejoin:round;stroke:rgb(69.019608%,69.019608%,69.019608%);stroke-opacity:1;stroke-miterlimit:4;" d="M 50.14375 143.1 L 50.14375 7.2 " transform="matrix(1.25,0,0,1.25,0,0)"/>
</g>
<path style="fill:none;stroke-width:0.8;stroke-linecap:butt;stroke-linejoin:round;stroke:rgb(0%,0%,0%);stroke-opacity:1;stroke-miterlimit:4;" d="M 0 0 L 0 3.5 " transform="matrix(1.25,0,0,1.25,62.679688,178.875)"/>
<path style=" stroke:none;fill-rule:nonzero;fill:rgb(0%,0%,0%);fill-opacity:1;" d="M 49.542969 195.992188 L 51.554688 195.992188 L 51.554688 189.039062 L 49.367188 189.476562 L 49.367188 188.355469 L 51.546875 187.914062 L 52.777344 187.914062 L 52.777344 195.992188 L 54.789062 195.992188 L 54.789062 197.027344 L 49.542969 197.027344 Z M 49.542969 195.992188 "/>
<path style=" stroke:none;fill-rule:nonzero;fill:rgb(0%,0%,0%);fill-opacity:1;" d="M 59.917969 188.726562 C 59.285156 188.726562 58.804688 189.039062 58.484375 189.664062 C 58.167969 190.289062 58.007812 191.226562 58.007812 192.480469 C 58.007812 193.730469 58.167969 194.667969 58.484375 195.292969 C 58.804688 195.917969 59.285156 196.230469 59.917969 196.230469 C 60.558594 196.230469 61.035156 195.917969 61.355469 195.292969 C 61.675781 194.667969 61.835938 193.730469 61.835938 192.480469 C 61.835938 191.226562 61.675781 190.289062 61.355469 189.664062 C 61.035156 189.039062 60.558594 188.726562 59.917969 188.726562 Z M 59.917969 187.75 C 60.941406 187.75 61.71875 188.15625 62.257812 188.964844 C 62.796875 189.769531 63.066406 190.941406 63.066406 192.480469 C 63.066406 194.015625 62.796875 195.1875 62.257812 195.996094 C 61.71875 196.800781 60.941406 197.207031 59.917969 197.207031 C 58.898438 197.207031 58.117188 196.800781 57.578125 195.996094 C 57.039062 195.1875 56.769531 194.015625 56.769531 192.480469 C 56.769531 190.941406 57.039062 189.769531 57.578125 188.964844 C 58.117188 188.15625 58.898438 187.75 59.917969 187.75 Z M 59.917969 187.75 "/>
<path style=" stroke:none;fill-rule:nonzero;fill:rgb(0%,0%,0%);fill-opacity:1;" d="M 64.945312 189.136719 L 70.421875 189.136719 L 70.421875 189.863281 L 64.945312 189.863281 Z M 64.945312 189.136719 "/>
<path style=" stroke:none;fill-rule:nonzero;fill:rgb(0%,0%,0%);fill-opacity:1;" d="M 73.027344 191.515625 L 76.039062 191.515625 L 76.039062 192.242188 L 71.992188 192.242188 L 71.992188 191.515625 C 72.316406 191.175781 72.765625 190.722656 73.328125 190.152344 C 73.894531 189.582031 74.25 189.210938 74.394531 189.046875 C 74.671875 188.734375 74.863281 188.472656 74.972656 188.257812 C 75.082031 188.042969 75.140625 187.832031 75.140625 187.625 C 75.140625 187.285156 75.019531 187.007812 74.78125 186.796875 C 74.542969 186.582031 74.234375 186.472656 73.851562 186.472656 C 73.582031 186.472656 73.296875 186.519531 72.996094 186.613281 C 72.695312 186.707031 72.375 186.851562 72.03125 187.042969 L 72.03125 186.171875 C 72.378906 186.03125 72.703125 185.925781 73.007812 185.855469 C 73.308594 185.785156 73.585938 185.75 73.835938 185.75 C 74.496094 185.75 75.023438 185.914062 75.417969 186.246094 C 75.808594 186.574219 76.003906 187.015625 76.003906 187.566406 C 76.003906 187.832031 75.957031 188.078125 75.859375 188.3125 C 75.761719 188.546875 75.582031 188.824219 75.320312 189.144531 C 75.25 189.226562 75.023438 189.464844 74.644531 189.859375 C 74.261719 190.253906 73.722656 190.808594 73.027344 191.515625 Z M 73.027344 191.515625 "/>
<g clip-path="url(#clip2)" clip-rule="nonzero">
<path style="fill:none;stroke-width:0.8;stroke-linecap:square;stroke-linejoin:round;stroke:rgb(69.019608%,69.019608%,69.019608%);stroke-opacity:1;stroke-miterlimit:4;" d="M 115.24375 143.1 L 115.24375 7.2 " transform="matrix(1.25,0,0,1.25,0,0)"/>
</g>
<path style="fill:none;stroke-width:0.8;stroke-linecap:butt;stroke-linejoin:round;stroke:rgb(0%,0%,0%);stroke-opacity:1;stroke-miterlimit:4;" d="M 0 0 L 0 3.5 " transform="matrix(1.25,0,0,1.25,144.054688,178.875)"/>
<path style=" stroke:none;fill-rule:nonzero;fill:rgb(0%,0%,0%);fill-opacity:1;" d="M 130.917969 196 L 132.929688 196 L 132.929688 189.046875 L 130.742188 189.488281 L 130.742188 188.363281 L 132.921875 187.925781 L 134.152344 187.925781 L 134.152344 196 L 136.164062 196 L 136.164062 197.039062 L 130.917969 197.039062 Z M 130.917969 196 "/>
<path style=" stroke:none;fill-rule:nonzero;fill:rgb(0%,0%,0%);fill-opacity:1;" d="M 141.292969 188.738281 C 140.660156 188.738281 140.179688 189.050781 139.859375 189.675781 C 139.542969 190.296875 139.382812 191.238281 139.382812 192.492188 C 139.382812 193.738281 139.542969 194.675781 139.859375 195.300781 C 140.179688 195.925781 140.660156 196.238281 141.292969 196.238281 C 141.933594 196.238281 142.410156 195.925781 142.730469 195.300781 C 143.050781 194.675781 143.210938 193.738281 143.210938 192.492188 C 143.210938 191.238281 143.050781 190.296875 142.730469 189.675781 C 142.410156 189.050781 141.933594 188.738281 141.292969 188.738281 Z M 141.292969 187.761719 C 142.316406 187.761719 143.09375 188.164062 143.632812 188.972656 C 144.171875 189.78125 144.441406 190.953125 144.441406 192.492188 C 144.441406 194.023438 144.171875 195.195312 143.632812 196.003906 C 143.09375 196.8125 142.316406 197.214844 141.292969 197.214844 C 140.273438 197.214844 139.492188 196.8125 138.953125 196.003906 C 138.414062 195.195312 138.144531 194.023438 138.144531 192.492188 C 138.144531 190.953125 138.414062 189.78125 138.953125 188.972656 C 139.492188 188.164062 140.273438 187.761719 141.292969 187.761719 Z M 141.292969 187.761719 "/>
<path style=" stroke:none;fill-rule:nonzero;fill:rgb(0%,0%,0%);fill-opacity:1;" d="M 146.320312 189.144531 L 151.796875 189.144531 L 151.796875 189.871094 L 146.320312 189.871094 Z M 146.320312 189.144531 "/>
<path style=" stroke:none;fill-rule:nonzero;fill:rgb(0%,0%,0%);fill-opacity:1;" d="M 153.808594 191.527344 L 155.21875 191.527344 L 155.21875 186.660156 L 153.683594 186.96875 L 153.683594 186.179688 L 155.210938 185.875 L 156.074219 185.875 L 156.074219 191.527344 L 157.484375 191.527344 L 157.484375 192.253906 L 153.808594 192.253906 Z M 153.808594 191.527344 "/>
<g clip-path="url(#clip3)" clip-rule="nonzero">
<path style="fill:none;stroke-width:0.8;stroke-linecap:square;stroke-linejoin:round;stroke:rgb(69.019608%,69.019608%,69.019608%);stroke-opacity:1;stroke-miterlimit:4;" d="M 180.34375 143.1 L 180.34375 7.2 " transform="matrix(1.25,0,0,1.25,0,0)"/>
</g>
<path style="fill:none;stroke-width:0.8;stroke-linecap:butt;stroke-linejoin:round;stroke:rgb(0%,0%,0%);stroke-opacity:1;stroke-miterlimit:4;" d="M 0 0 L 0 3.5 " transform="matrix(1.25,0,0,1.25,225.429688,178.875)"/>
<path style=" stroke:none;fill-rule:nonzero;fill:rgb(0%,0%,0%);fill-opacity:1;" d="M 215.980469 195.992188 L 217.992188 195.992188 L 217.992188 189.039062 L 215.804688 189.476562 L 215.804688 188.355469 L 217.984375 187.914062 L 219.214844 187.914062 L 219.214844 195.992188 L 221.226562 195.992188 L 221.226562 197.027344 L 215.980469 197.027344 Z M 215.980469 195.992188 "/>
<path style=" stroke:none;fill-rule:nonzero;fill:rgb(0%,0%,0%);fill-opacity:1;" d="M 226.355469 188.726562 C 225.722656 188.726562 225.242188 189.039062 224.921875 189.664062 C 224.605469 190.289062 224.445312 191.226562 224.445312 192.480469 C 224.445312 193.730469 224.605469 194.667969 224.921875 195.292969 C 225.242188 195.917969 225.722656 196.230469 226.355469 196.230469 C 226.996094 196.230469 227.472656 195.917969 227.792969 195.292969 C 228.113281 194.667969 228.273438 193.730469 228.273438 192.480469 C 228.273438 191.226562 228.113281 190.289062 227.792969 189.664062 C 227.472656 189.039062 226.996094 188.726562 226.355469 188.726562 Z M 226.355469 187.75 C 227.378906 187.75 228.15625 188.15625 228.695312 188.964844 C 229.234375 189.769531 229.503906 190.941406 229.503906 192.480469 C 229.503906 194.015625 229.234375 195.1875 228.695312 195.996094 C 228.15625 196.800781 227.378906 197.207031 226.355469 197.207031 C 225.335938 197.207031 224.554688 196.800781 224.015625 195.996094 C 223.476562 195.1875 223.207031 194.015625 223.207031 192.480469 C 223.207031 190.941406 223.476562 189.769531 224.015625 188.964844 C 224.554688 188.15625 225.335938 187.75 226.355469 187.75 Z M 226.355469 187.75 "/>
<path style=" stroke:none;fill-rule:nonzero;fill:rgb(0%,0%,0%);fill-opacity:1;" d="M 233.234375 186.433594 C 232.792969 186.433594 232.457031 186.652344 232.234375 187.089844 C 232.011719 187.523438 231.898438 188.183594 231.898438 189.058594 C 231.898438 189.933594 232.011719 190.589844 232.234375 191.027344 C 232.457031 191.464844 232.792969 191.683594 233.234375 191.683594 C 233.683594 191.683594 234.019531 191.464844 234.242188 191.027344 C 234.464844 190.589844 234.578125 189.933594 234.578125 189.058594 C 234.578125 188.183594 234.464844 187.523438 234.242188 187.089844 C 234.019531 186.652344 233.683594 186.433594 233.234375 186.433594 Z M 233.234375 185.75 C 233.953125 185.75 234.496094 186.03125 234.875 186.597656 C 235.253906 187.164062 235.441406 187.984375 235.441406 189.058594 C 235.441406 190.132812 235.253906 190.953125 234.875 191.519531 C 234.496094 192.085938 233.953125 192.367188 233.234375 192.367188 C 232.519531 192.367188 231.976562 192.085938 231.597656 191.519531 C 231.21875 190.953125 231.03125 190.132812 231.03125 189.058594 C 231.03125 187.984375 231.21875 187.164062 231.597656 186.597656 C 231.976562 186.03125 232.519531 185.75 233.234375 185.75 Z M 233.234375 185.75 "/>
<g clip-path="url(#clip4)" clip-rule="nonzero">
<path style="fill:none;stroke-width:0.8;stroke-linecap:square;stroke-linejoin:round;stroke:rgb(69.019608%,69.019608%,69.019608%);stroke-opacity:1;stroke-miterlimit:4;" d="M 245.44375 143.1 L 245.44375 7.2 " transform="matrix(1.25,0,0,1.25,0,0)"/>
</g>
<path style="fill:none;stroke-width:0.8;stroke-linecap:butt;stroke-linejoin:round;stroke:rgb(0%,0%,0%);stroke-opacity:1;stroke-miterlimit:4;" d="M 0 0 L 0 3.5 " transform="matrix(1.25,0,0,1.25,306.804688,178.875)"/>
<path style=" stroke:none;fill-rule:nonzero;fill:rgb(0%,0%,0%);fill-opacity:1;" d="M 297.355469 196 L 299.367188 196 L 299.367188 189.046875 L 297.179688 189.488281 L 297.179688 188.363281 L 299.359375 187.925781 L 300.589844 187.925781 L 300.589844 196 L 302.601562 196 L 302.601562 197.039062 L 297.355469 197.039062 Z M 297.355469 196 "/>
<path style=" stroke:none;fill-rule:nonzero;fill:rgb(0%,0%,0%);fill-opacity:1;" d="M 307.730469 188.738281 C 307.097656 188.738281 306.617188 189.050781 306.296875 189.675781 C 305.980469 190.296875 305.820312 191.238281 305.820312 192.492188 C 305.820312 193.738281 305.980469 194.675781 306.296875 195.300781 C 306.617188 195.925781 307.097656 196.238281 307.730469 196.238281 C 308.371094 196.238281 308.847656 195.925781 309.167969 195.300781 C 309.488281 194.675781 309.648438 193.738281 309.648438 192.492188 C 309.648438 191.238281 309.488281 190.296875 309.167969 189.675781 C 308.847656 189.050781 308.371094 188.738281 307.730469 188.738281 Z M 307.730469 187.761719 C 308.753906 187.761719 309.53125 188.164062 310.070312 188.972656 C 310.609375 189.78125 310.878906 190.953125 310.878906 192.492188 C 310.878906 194.023438 310.609375 195.195312 310.070312 196.003906 C 309.53125 196.8125 308.753906 197.214844 307.730469 197.214844 C 306.710938 197.214844 305.929688 196.8125 305.390625 196.003906 C 304.851562 195.195312 304.582031 194.023438 304.582031 192.492188 C 304.582031 190.953125 304.851562 189.78125 305.390625 188.972656 C 305.929688 188.164062 306.710938 187.761719 307.730469 187.761719 Z M 307.730469 187.761719 "/>
<path style=" stroke:none;fill-rule:nonzero;fill:rgb(0%,0%,0%);fill-opacity:1;" d="M 312.914062 191.527344 L 314.324219 191.527344 L 314.324219 186.660156 L 312.792969 186.96875 L 312.792969 186.179688 L 314.316406 185.875 L 315.179688 185.875 L 315.179688 191.527344 L 316.589844 191.527344 L 316.589844 192.253906 L 312.914062 192.253906 Z M 312.914062 191.527344 "/>
<path style="fill:none;stroke-width:0.6;stroke-linecap:butt;stroke-linejoin:round;stroke:rgb(0%,0%,0%);stroke-opacity:1;stroke-miterlimit:4;" d="M -0.000178 0 L -0.000178 2 " transform="matrix(1.25,0,0,1.25,87.176004,178.875)"/>
<path style="fill:none;stroke-width:0.6;stroke-linecap:butt;stroke-linejoin:round;stroke:rgb(0%,0%,0%);stroke-opacity:1;stroke-miterlimit:4;" d="M -0.001219 0 L -0.001219 2 " transform="matrix(1.25,0,0,1.25,101.50543,178.875)"/>
<path style="fill:none;stroke-width:0.6;stroke-linecap:butt;stroke-linejoin:round;stroke:rgb(0%,0%,0%);stroke-opacity:1;stroke-miterlimit:4;" d="M -0.000355 0 L -0.000355 2 " transform="matrix(1.25,0,0,1.25,111.672319,178.875)"/>
<path style="fill:none;stroke-width:0.6;stroke-linecap:butt;stroke-linejoin:round;stroke:rgb(0%,0%,0%);stroke-opacity:1;stroke-miterlimit:4;" d="M 0.000178 0 L 0.000178 2 " transform="matrix(1.25,0,0,1.25,119.558371,178.875)"/>
<path style="fill:none;stroke-width:0.6;stroke-linecap:butt;stroke-linejoin:round;stroke:rgb(0%,0%,0%);stroke-opacity:1;stroke-miterlimit:4;" d="M -0.001396 0 L -0.001396 2 " transform="matrix(1.25,0,0,1.25,126.001745,178.875)"/>
<path style="fill:none;stroke-width:0.6;stroke-linecap:butt;stroke-linejoin:round;stroke:rgb(0%,0%,0%);stroke-opacity:1;stroke-miterlimit:4;" d="M -0.000257 0 L -0.000257 2 " transform="matrix(1.25,0,0,1.25,131.44954,178.875)"/>
<path style="fill:none;stroke-width:0.6;stroke-linecap:butt;stroke-linejoin:round;stroke:rgb(0%,0%,0%);stroke-opacity:1;stroke-miterlimit:4;" d="M -0.000533 0 L -0.000533 2 " transform="matrix(1.25,0,0,1.25,136.168635,178.875)"/>
<path style="fill:none;stroke-width:0.6;stroke-linecap:butt;stroke-linejoin:round;stroke:rgb(0%,0%,0%);stroke-opacity:1;stroke-miterlimit:4;" d="M 0.000688 0 L 0.000688 2 " transform="matrix(1.25,0,0,1.25,140.331171,178.875)"/>
<path style="fill:none;stroke-width:0.6;stroke-linecap:butt;stroke-linejoin:round;stroke:rgb(0%,0%,0%);stroke-opacity:1;stroke-miterlimit:4;" d="M -0.000178 0 L -0.000178 2 " transform="matrix(1.25,0,0,1.25,168.551004,178.875)"/>
<path style="fill:none;stroke-width:0.6;stroke-linecap:butt;stroke-linejoin:round;stroke:rgb(0%,0%,0%);stroke-opacity:1;stroke-miterlimit:4;" d="M -0.001219 0 L -0.001219 2 " transform="matrix(1.25,0,0,1.25,182.88043,178.875)"/>
<path style="fill:none;stroke-width:0.6;stroke-linecap:butt;stroke-linejoin:round;stroke:rgb(0%,0%,0%);stroke-opacity:1;stroke-miterlimit:4;" d="M -0.000355 0 L -0.000355 2 " transform="matrix(1.25,0,0,1.25,193.047319,178.875)"/>
<path style="fill:none;stroke-width:0.6;stroke-linecap:butt;stroke-linejoin:round;stroke:rgb(0%,0%,0%);stroke-opacity:1;stroke-miterlimit:4;" d="M 0.000178 0 L 0.000178 2 " transform="matrix(1.25,0,0,1.25,200.933371,178.875)"/>
<path style="fill:none;stroke-width:0.6;stroke-linecap:butt;stroke-linejoin:round;stroke:rgb(0%,0%,0%);stroke-opacity:1;stroke-miterlimit:4;" d="M -0.001396 0 L -0.001396 2 " transform="matrix(1.25,0,0,1.25,207.376745,178.875)"/>
<path style="fill:none;stroke-width:0.6;stroke-linecap:butt;stroke-linejoin:round;stroke:rgb(0%,0%,0%);stroke-opacity:1;stroke-miterlimit:4;" d="M -0.000257 0 L -0.000257 2 " transform="matrix(1.25,0,0,1.25,212.82454,178.875)"/>
<path style="fill:none;stroke-width:0.6;stroke-linecap:butt;stroke-linejoin:round;stroke:rgb(0%,0%,0%);stroke-opacity:1;stroke-miterlimit:4;" d="M -0.000533 0 L -0.000533 2 " transform="matrix(1.25,0,0,1.25,217.543635,178.875)"/>
<path style="fill:none;stroke-width:0.6;stroke-linecap:butt;stroke-linejoin:round;stroke:rgb(0%,0%,0%);stroke-opacity:1;stroke-miterlimit:4;" d="M 0.000688 0 L 0.000688 2 " transform="matrix(1.25,0,0,1.25,221.706171,178.875)"/>
<path style="fill:none;stroke-width:0.6;stroke-linecap:butt;stroke-linejoin:round;stroke:rgb(0%,0%,0%);stroke-opacity:1;stroke-miterlimit:4;" d="M -0.000178 0 L -0.000178 2 " transform="matrix(1.25,0,0,1.25,249.926004,178.875)"/>
<path style="fill:none;stroke-width:0.6;stroke-linecap:butt;stroke-linejoin:round;stroke:rgb(0%,0%,0%);stroke-opacity:1;stroke-miterlimit:4;" d="M -0.001219 0 L -0.001219 2 " transform="matrix(1.25,0,0,1.25,264.25543,178.875)"/>
<path style="fill:none;stroke-width:0.6;stroke-linecap:butt;stroke-linejoin:round;stroke:rgb(0%,0%,0%);stroke-opacity:1;stroke-miterlimit:4;" d="M -0.000355 0 L -0.000355 2 " transform="matrix(1.25,0,0,1.25,274.422319,178.875)"/>
<path style="fill:none;stroke-width:0.6;stroke-linecap:butt;stroke-linejoin:round;stroke:rgb(0%,0%,0%);stroke-opacity:1;stroke-miterlimit:4;" d="M 0.000178 0 L 0.000178 2 " transform="matrix(1.25,0,0,1.25,282.308371,178.875)"/>
<path style="fill:none;stroke-width:0.6;stroke-linecap:butt;stroke-linejoin:round;stroke:rgb(0%,0%,0%);stroke-opacity:1;stroke-miterlimit:4;" d="M -0.001396 0 L -0.001396 2 " transform="matrix(1.25,0,0,1.25,288.751745,178.875)"/>
<path style="fill:none;stroke-width:0.6;stroke-linecap:butt;stroke-linejoin:round;stroke:rgb(0%,0%,0%);stroke-opacity:1;stroke-miterlimit:4;" d="M -0.000257 0 L -0.000257 2 " transform="matrix(1.25,0,0,1.25,294.19954,178.875)"/>
<path style="fill:none;stroke-width:0.6;stroke-linecap:butt;stroke-linejoin:round;stroke:rgb(0%,0%,0%);stroke-opacity:1;stroke-miterlimit:4;" d="M -0.000533 0 L -0.000533 2 " transform="matrix(1.25,0,0,1.25,298.918635,178.875)"/>
<path style="fill:none;stroke-width:0.6;stroke-linecap:butt;stroke-linejoin:round;stroke:rgb(0%,0%,0%);stroke-opacity:1;stroke-miterlimit:4;" d="M 0.000688 0 L 0.000688 2 " transform="matrix(1.25,0,0,1.25,303.081171,178.875)"/>
<path style=" stroke:none;fill-rule:nonzero;fill:rgb(0%,0%,0%);fill-opacity:1;" d="M 155.507812 205.445312 L 155.507812 207.386719 L 157.820312 207.386719 L 157.820312 208.257812 L 155.507812 208.257812 L 155.507812 211.96875 C 155.507812 212.527344 155.585938 212.882812 155.738281 213.042969 C 155.890625 213.203125 156.199219 213.28125 156.667969 213.28125 L 157.820312 213.28125 L 157.820312 214.222656 L 156.667969 214.222656 C 155.800781 214.222656 155.203125 214.058594 154.875 213.738281 C 154.546875 213.414062 154.378906 212.824219 154.378906 211.96875 L 154.378906 208.257812 L 153.554688 208.257812 L 153.554688 207.386719 L 154.378906 207.386719 L 154.378906 205.445312 Z M 155.507812 205.445312 "/>
<path style=" stroke:none;fill-rule:nonzero;fill:rgb(0%,0%,0%);fill-opacity:1;" d="M 159.300781 207.386719 L 160.421875 207.386719 L 160.421875 214.222656 L 159.300781 214.222656 Z M 159.300781 204.722656 L 160.421875 204.722656 L 160.421875 206.148438 L 159.300781 206.148438 Z M 159.300781 204.722656 "/>
<path style=" stroke:none;fill-rule:nonzero;fill:rgb(0%,0%,0%);fill-opacity:1;" d="M 168.09375 208.699219 C 168.375 208.191406 168.710938 207.820312 169.101562 207.582031 C 169.492188 207.339844 169.953125 207.222656 170.480469 207.222656 C 171.195312 207.222656 171.742188 207.46875 172.128906 207.96875 C 172.515625 208.464844 172.710938 209.175781 172.710938 210.09375 L 172.710938 214.222656 L 171.582031 214.222656 L 171.582031 210.132812 C 171.582031 209.476562 171.464844 208.992188 171.230469 208.675781 C 171 208.355469 170.644531 208.199219 170.171875 208.199219 C 169.589844 208.199219 169.128906 208.390625 168.789062 208.777344 C 168.453125 209.164062 168.285156 209.691406 168.285156 210.359375 L 168.285156 214.222656 L 167.15625 214.222656 L 167.15625 210.132812 C 167.15625 209.472656 167.039062 208.984375 166.808594 208.671875 C 166.574219 208.355469 166.21875 208.199219 165.734375 208.199219 C 165.160156 208.199219 164.703125 208.390625 164.363281 208.78125 C 164.027344 209.167969 163.859375 209.695312 163.859375 210.359375 L 163.859375 214.222656 L 162.730469 214.222656 L 162.730469 207.386719 L 163.859375 207.386719 L 163.859375 208.449219 C 164.113281 208.027344 164.421875 207.71875 164.78125 207.519531 C 165.136719 207.320312 165.5625 207.222656 166.054688 207.222656 C 166.554688 207.222656 166.976562 207.347656 167.324219 207.601562 C 167.671875 207.851562 167.929688 208.21875 168.09375 208.699219 Z M 168.09375 208.699219 "/>
<path style=" stroke:none;fill-rule:nonzero;fill:rgb(0%,0%,0%);fill-opacity:1;" d="M 180.796875 210.523438 L 180.796875 211.070312 L 175.632812 211.070312 C 175.683594 211.84375 175.914062 212.433594 176.332031 212.839844 C 176.75 213.242188 177.328125 213.445312 178.074219 213.445312 C 178.503906 213.445312 178.921875 213.394531 179.328125 213.289062 C 179.734375 213.183594 180.136719 213.023438 180.535156 212.8125 L 180.535156 213.875 C 180.132812 214.042969 179.71875 214.175781 179.292969 214.265625 C 178.871094 214.355469 178.441406 214.398438 178.007812 214.398438 C 176.917969 214.398438 176.050781 214.082031 175.414062 213.449219 C 174.777344 212.8125 174.460938 211.953125 174.460938 210.871094 C 174.460938 209.75 174.761719 208.863281 175.367188 208.207031 C 175.972656 207.550781 176.785156 207.222656 177.8125 207.222656 C 178.730469 207.222656 179.457031 207.515625 179.992188 208.109375 C 180.527344 208.699219 180.796875 209.503906 180.796875 210.523438 Z M 179.671875 210.191406 C 179.664062 209.578125 179.492188 209.089844 179.15625 208.722656 C 178.820312 208.355469 178.378906 208.171875 177.824219 208.171875 C 177.199219 208.171875 176.695312 208.347656 176.320312 208.703125 C 175.945312 209.058594 175.726562 209.554688 175.667969 210.199219 Z M 179.671875 210.191406 "/>
<path style=" stroke:none;fill-rule:nonzero;fill:rgb(0%,0%,0%);fill-opacity:1;" d="M 189.308594 204.738281 C 188.765625 205.671875 188.359375 206.597656 188.09375 207.515625 C 187.832031 208.429688 187.699219 209.355469 187.699219 210.296875 C 187.699219 211.234375 187.832031 212.167969 188.097656 213.089844 C 188.367188 214.011719 188.769531 214.9375 189.308594 215.871094 L 188.332031 215.871094 C 187.722656 214.914062 187.269531 213.972656 186.964844 213.050781 C 186.660156 212.125 186.507812 211.207031 186.507812 210.296875 C 186.507812 209.390625 186.660156 208.476562 186.960938 207.558594 C 187.261719 206.636719 187.71875 205.695312 188.332031 204.738281 Z M 189.308594 204.738281 "/>
<path style=" stroke:none;fill-rule:nonzero;fill:rgb(0%,0%,0%);fill-opacity:1;" d="M 195.847656 207.585938 L 195.847656 208.648438 C 195.53125 208.484375 195.199219 208.363281 194.859375 208.285156 C 194.515625 208.203125 194.164062 208.160156 193.796875 208.160156 C 193.238281 208.160156 192.820312 208.246094 192.542969 208.417969 C 192.261719 208.585938 192.125 208.84375 192.125 209.1875 C 192.125 209.445312 192.222656 209.652344 192.421875 209.800781 C 192.621094 209.949219 193.023438 210.089844 193.625 210.222656 L 194.011719 210.308594 C 194.808594 210.480469 195.375 210.71875 195.710938 211.03125 C 196.046875 211.34375 196.214844 211.777344 196.214844 212.335938 C 196.214844 212.96875 195.960938 213.472656 195.460938 213.84375 C 194.957031 214.214844 194.265625 214.398438 193.386719 214.398438 C 193.023438 214.398438 192.640625 214.363281 192.242188 214.292969 C 191.847656 214.21875 191.429688 214.113281 190.988281 213.972656 L 190.988281 212.8125 C 191.40625 213.027344 191.8125 213.1875 192.214844 213.296875 C 192.617188 213.402344 193.015625 213.457031 193.414062 213.457031 C 193.941406 213.457031 194.347656 213.367188 194.632812 213.1875 C 194.917969 213.003906 195.058594 212.75 195.058594 212.421875 C 195.058594 212.117188 194.957031 211.882812 194.75 211.71875 C 194.546875 211.554688 194.097656 211.398438 193.398438 211.25 L 193.007812 211.15625 C 192.3125 211.011719 191.8125 210.785156 191.5 210.484375 C 191.191406 210.179688 191.039062 209.761719 191.039062 209.234375 C 191.039062 208.589844 191.265625 208.09375 191.722656 207.746094 C 192.175781 207.394531 192.824219 207.222656 193.664062 207.222656 C 194.078125 207.222656 194.46875 207.25 194.832031 207.3125 C 195.199219 207.371094 195.539062 207.464844 195.847656 207.585938 Z M 195.847656 207.585938 "/>
<path style=" stroke:none;fill-rule:nonzero;fill:rgb(0%,0%,0%);fill-opacity:1;" d="M 203.847656 210.523438 L 203.847656 211.070312 L 198.683594 211.070312 C 198.734375 211.84375 198.96875 212.433594 199.382812 212.839844 C 199.800781 213.242188 200.382812 213.445312 201.125 213.445312 C 201.558594 213.445312 201.976562 213.394531 202.378906 213.289062 C 202.785156 213.183594 203.1875 213.023438 203.585938 212.8125 L 203.585938 213.875 C 203.183594 214.042969 202.769531 214.175781 202.347656 214.265625 C 201.925781 214.355469 201.496094 214.398438 201.058594 214.398438 C 199.96875 214.398438 199.105469 214.082031 198.46875 213.449219 C 197.832031 212.8125 197.511719 211.953125 197.511719 210.871094 C 197.511719 209.75 197.816406 208.863281 198.417969 208.207031 C 199.023438 207.550781 199.839844 207.222656 200.863281 207.222656 C 201.785156 207.222656 202.511719 207.515625 203.046875 208.109375 C 203.582031 208.699219 203.847656 209.503906 203.847656 210.523438 Z M 202.726562 210.191406 C 202.71875 209.578125 202.546875 209.089844 202.210938 208.722656 C 201.875 208.355469 201.429688 208.171875 200.875 208.171875 C 200.25 208.171875 199.75 208.347656 199.371094 208.703125 C 198.996094 209.058594 198.78125 209.554688 198.722656 210.199219 Z M 202.726562 210.191406 "/>
<path style=" stroke:none;fill-rule:nonzero;fill:rgb(0%,0%,0%);fill-opacity:1;" d="M 210.613281 207.648438 L 210.613281 208.699219 C 210.292969 208.523438 209.976562 208.390625 209.65625 208.304688 C 209.339844 208.214844 209.015625 208.171875 208.691406 208.171875 C 207.960938 208.171875 207.394531 208.402344 206.992188 208.867188 C 206.589844 209.328125 206.386719 209.972656 206.386719 210.808594 C 206.386719 211.644531 206.589844 212.292969 206.992188 212.753906 C 207.394531 213.214844 207.960938 213.445312 208.691406 213.445312 C 209.015625 213.445312 209.339844 213.402344 209.65625 213.316406 C 209.976562 213.226562 210.292969 213.097656 210.613281 212.921875 L 210.613281 213.960938 C 210.296875 214.105469 209.972656 214.214844 209.636719 214.289062 C 209.304688 214.363281 208.945312 214.398438 208.566406 214.398438 C 207.539062 214.398438 206.71875 214.074219 206.113281 213.429688 C 205.507812 212.78125 205.203125 211.90625 205.203125 210.808594 C 205.203125 209.695312 205.511719 208.816406 206.121094 208.179688 C 206.734375 207.539062 207.574219 207.222656 208.640625 207.222656 C 208.988281 207.222656 209.324219 207.257812 209.652344 207.328125 C 209.984375 207.398438 210.300781 207.503906 210.613281 207.648438 Z M 210.613281 207.648438 "/>
<path style=" stroke:none;fill-rule:nonzero;fill:rgb(0%,0%,0%);fill-opacity:1;" d="M 212.390625 204.738281 L 213.367188 204.738281 C 213.976562 205.695312 214.429688 206.636719 214.734375 207.558594 C 215.039062 208.476562 215.191406 209.390625 215.191406 210.296875 C 215.191406 211.207031 215.039062 212.125 214.734375 213.050781 C 214.429688 213.972656 213.976562 214.914062 213.367188 215.871094 L 212.390625 215.871094 C 212.929688 214.9375 213.332031 214.011719 213.601562 213.089844 C 213.867188 212.167969 214 211.234375 214 210.296875 C 214 209.355469 213.867188 208.429688 213.601562 207.515625 C 213.332031 206.597656 212.929688 205.671875 212.390625 204.738281 Z M 212.390625 204.738281 "/>
<g clip-path="url(#clip5)" clip-rule="nonzero">
<path style="fill:none;stroke-width:0.8;stroke-linecap:square;stroke-linejoin:round;stroke:rgb(69.019608%,69.019608%,69.019608%);stroke-opacity:1;stroke-miterlimit:4;" d="M 50.14375 140.025 L 245.44375 140.025 " transform="matrix(1.25,0,0,1.25,0,0)"/>
</g>
<path style="fill:none;stroke-width:0.8;stroke-linecap:butt;stroke-linejoin:round;stroke:rgb(0%,0%,0%);stroke-opacity:1;stroke-miterlimit:4;" d="M 0 0.001276 L -3.5 0.001276 " transform="matrix(1.25,0,0,1.25,62.679688,175.029655)"/>
<path style=" stroke:none;fill-rule:nonzero;fill:rgb(0%,0%,0%);fill-opacity:1;" d="M 30.070312 171.476562 C 29.4375 171.476562 28.960938 171.789062 28.640625 172.414062 C 28.320312 173.039062 28.160156 173.976562 28.160156 175.230469 C 28.160156 176.480469 28.320312 177.417969 28.640625 178.042969 C 28.960938 178.667969 29.4375 178.980469 30.070312 178.980469 C 30.710938 178.980469 31.1875 178.667969 31.507812 178.042969 C 31.828125 177.417969 31.988281 176.480469 31.988281 175.230469 C 31.988281 173.976562 31.828125 173.039062 31.507812 172.414062 C 31.1875 171.789062 30.710938 171.476562 30.070312 171.476562 Z M 30.070312 170.5 C 31.09375 170.5 31.875 170.90625 32.414062 171.714844 C 32.953125 172.523438 33.21875 173.695312 33.21875 175.230469 C 33.21875 176.765625 32.953125 177.9375 32.414062 178.746094 C 31.875 179.554688 31.09375 179.957031 30.070312 179.957031 C 29.050781 179.957031 28.269531 179.554688 27.730469 178.746094 C 27.191406 177.9375 26.921875 176.765625 26.921875 175.230469 C 26.921875 173.695312 27.191406 172.523438 27.730469 171.714844 C 28.269531 170.90625 29.050781 170.5 30.070312 170.5 Z M 30.070312 170.5 "/>
<path style=" stroke:none;fill-rule:nonzero;fill:rgb(0%,0%,0%);fill-opacity:1;" d="M 35.386719 178.226562 L 36.675781 178.226562 L 36.675781 179.777344 L 35.386719 179.777344 Z M 35.386719 178.226562 "/>
<path style=" stroke:none;fill-rule:nonzero;fill:rgb(0%,0%,0%);fill-opacity:1;" d="M 40.421875 178.742188 L 44.726562 178.742188 L 44.726562 179.777344 L 38.941406 179.777344 L 38.941406 178.742188 C 39.40625 178.257812 40.042969 177.609375 40.851562 176.792969 C 41.660156 175.976562 42.167969 175.449219 42.375 175.210938 C 42.769531 174.769531 43.046875 174.394531 43.203125 174.085938 C 43.359375 173.78125 43.4375 173.476562 43.4375 173.179688 C 43.4375 172.695312 43.269531 172.300781 42.929688 171.996094 C 42.589844 171.691406 42.144531 171.539062 41.601562 171.539062 C 41.214844 171.539062 40.804688 171.605469 40.375 171.738281 C 39.945312 171.875 39.488281 172.078125 39 172.351562 L 39 171.105469 C 39.496094 170.90625 39.960938 170.753906 40.390625 170.652344 C 40.824219 170.550781 41.21875 170.5 41.578125 170.5 C 42.519531 170.5 43.273438 170.738281 43.835938 171.210938 C 44.394531 171.683594 44.675781 172.3125 44.675781 173.101562 C 44.675781 173.476562 44.605469 173.832031 44.464844 174.167969 C 44.324219 174.503906 44.070312 174.898438 43.699219 175.351562 C 43.597656 175.472656 43.273438 175.8125 42.730469 176.375 C 42.183594 176.941406 41.414062 177.730469 40.421875 178.742188 Z M 40.421875 178.742188 "/>
<path style=" stroke:none;fill-rule:nonzero;fill:rgb(0%,0%,0%);fill-opacity:1;" d="M 50.703125 171.738281 L 47.589844 176.605469 L 50.703125 176.605469 Z M 50.378906 170.664062 L 51.929688 170.664062 L 51.929688 176.605469 L 53.230469 176.605469 L 53.230469 177.628906 L 51.929688 177.628906 L 51.929688 179.777344 L 50.703125 179.777344 L 50.703125 177.628906 L 46.589844 177.628906 L 46.589844 176.441406 Z M 50.378906 170.664062 "/>
<g clip-path="url(#clip6)" clip-rule="nonzero">
<path style="fill:none;stroke-width:0.8;stroke-linecap:square;stroke-linejoin:round;stroke:rgb(69.019608%,69.019608%,69.019608%);stroke-opacity:1;stroke-miterlimit:4;" d="M 50.14375 112.915625 L 245.44375 112.915625 " transform="matrix(1.25,0,0,1.25,0,0)"/>
</g>
<path style="fill:none;stroke-width:0.8;stroke-linecap:butt;stroke-linejoin:round;stroke:rgb(0%,0%,0%);stroke-opacity:1;stroke-miterlimit:4;" d="M 0 0.00007 L -3.5 0.00007 " transform="matrix(1.25,0,0,1.25,62.679688,141.144444)"/>
<path style=" stroke:none;fill-rule:nonzero;fill:rgb(0%,0%,0%);fill-opacity:1;" d="M 30.070312 137.59375 C 29.4375 137.59375 28.960938 137.90625 28.640625 138.53125 C 28.320312 139.152344 28.160156 140.09375 28.160156 141.347656 C 28.160156 142.59375 28.320312 143.53125 28.640625 144.15625 C 28.960938 144.78125 29.4375 145.09375 30.070312 145.09375 C 30.710938 145.09375 31.1875 144.78125 31.507812 144.15625 C 31.828125 143.53125 31.988281 142.59375 31.988281 141.347656 C 31.988281 140.09375 31.828125 139.152344 31.507812 138.53125 C 31.1875 137.90625 30.710938 137.59375 30.070312 137.59375 Z M 30.070312 136.617188 C 31.09375 136.617188 31.875 137.019531 32.414062 137.828125 C 32.953125 138.636719 33.21875 139.808594 33.21875 141.347656 C 33.21875 142.878906 32.953125 144.050781 32.414062 144.859375 C 31.875 145.667969 31.09375 146.070312 30.070312 146.070312 C 29.050781 146.070312 28.269531 145.667969 27.730469 144.859375 C 27.191406 144.050781 26.921875 142.878906 26.921875 141.347656 C 26.921875 139.808594 27.191406 138.636719 27.730469 137.828125 C 28.269531 137.019531 29.050781 136.617188 30.070312 136.617188 Z M 30.070312 136.617188 "/>
<path style=" stroke:none;fill-rule:nonzero;fill:rgb(0%,0%,0%);fill-opacity:1;" d="M 35.386719 144.34375 L 36.675781 144.34375 L 36.675781 145.894531 L 35.386719 145.894531 Z M 35.386719 144.34375 "/>
<path style=" stroke:none;fill-rule:nonzero;fill:rgb(0%,0%,0%);fill-opacity:1;" d="M 40.421875 144.855469 L 44.726562 144.855469 L 44.726562 145.894531 L 38.941406 145.894531 L 38.941406 144.855469 C 39.40625 144.371094 40.042969 143.722656 40.851562 142.90625 C 41.660156 142.089844 42.167969 141.5625 42.375 141.328125 C 42.769531 140.882812 43.046875 140.507812 43.203125 140.203125 C 43.359375 139.894531 43.4375 139.59375 43.4375 139.296875 C 43.4375 138.8125 43.269531 138.417969 42.929688 138.113281 C 42.589844 137.804688 42.144531 137.652344 41.601562 137.652344 C 41.214844 137.652344 40.804688 137.71875 40.375 137.855469 C 39.945312 137.988281 39.488281 138.191406 39 138.464844 L 39 137.21875 C 39.496094 137.019531 39.960938 136.871094 40.390625 136.769531 C 40.824219 136.667969 41.21875 136.617188 41.578125 136.617188 C 42.519531 136.617188 43.273438 136.851562 43.835938 137.324219 C 44.394531 137.796875 44.675781 138.425781 44.675781 139.214844 C 44.675781 139.589844 44.605469 139.945312 44.464844 140.28125 C 44.324219 140.617188 44.070312 141.011719 43.699219 141.46875 C 43.597656 141.585938 43.273438 141.925781 42.730469 142.492188 C 42.183594 143.054688 41.414062 143.84375 40.421875 144.855469 Z M 40.421875 144.855469 "/>
<path style=" stroke:none;fill-rule:nonzero;fill:rgb(0%,0%,0%);fill-opacity:1;" d="M 50.105469 140.847656 C 49.550781 140.847656 49.113281 141.035156 48.789062 141.414062 C 48.464844 141.792969 48.304688 142.3125 48.304688 142.96875 C 48.304688 143.625 48.464844 144.144531 48.789062 144.523438 C 49.113281 144.90625 49.550781 145.09375 50.105469 145.09375 C 50.65625 145.09375 51.09375 144.90625 51.417969 144.523438 C 51.742188 144.144531 51.902344 143.625 51.902344 142.96875 C 51.902344 142.3125 51.742188 141.792969 51.417969 141.414062 C 51.09375 141.035156 50.65625 140.847656 50.105469 140.847656 Z M 52.550781 136.980469 L 52.550781 138.105469 C 52.242188 137.957031 51.929688 137.847656 51.613281 137.769531 C 51.296875 137.691406 50.984375 137.652344 50.675781 137.652344 C 49.863281 137.652344 49.242188 137.929688 48.8125 138.476562 C 48.382812 139.027344 48.136719 139.855469 48.078125 140.96875 C 48.316406 140.613281 48.617188 140.34375 48.980469 140.152344 C 49.34375 139.964844 49.742188 139.871094 50.175781 139.871094 C 51.089844 139.871094 51.816406 140.148438 52.347656 140.703125 C 52.878906 141.257812 53.144531 142.015625 53.144531 142.96875 C 53.144531 143.90625 52.867188 144.65625 52.3125 145.222656 C 51.757812 145.789062 51.023438 146.070312 50.105469 146.070312 C 49.050781 146.070312 48.242188 145.667969 47.6875 144.859375 C 47.128906 144.050781 46.851562 142.878906 46.851562 141.347656 C 46.851562 139.90625 47.191406 138.757812 47.875 137.902344 C 48.558594 137.042969 49.476562 136.617188 50.628906 136.617188 C 50.9375 136.617188 51.25 136.648438 51.566406 136.707031 C 51.878906 136.769531 52.207031 136.859375 52.550781 136.980469 Z M 52.550781 136.980469 "/>
<g clip-path="url(#clip7)" clip-rule="nonzero">
<path style="fill:none;stroke-width:0.8;stroke-linecap:square;stroke-linejoin:round;stroke:rgb(69.019608%,69.019608%,69.019608%);stroke-opacity:1;stroke-miterlimit:4;" d="M 50.14375 85.80625 L 245.44375 85.80625 " transform="matrix(1.25,0,0,1.25,0,0)"/>
</g>
<path style="fill:none;stroke-width:0.8;stroke-linecap:butt;stroke-linejoin:round;stroke:rgb(0%,0%,0%);stroke-opacity:1;stroke-miterlimit:4;" d="M 0 -0.001136 L -3.5 -0.001136 " transform="matrix(1.25,0,0,1.25,62.679688,107.259232)"/>
<path style=" stroke:none;fill-rule:nonzero;fill:rgb(0%,0%,0%);fill-opacity:1;" d="M 30.070312 103.707031 C 29.4375 103.707031 28.960938 104.019531 28.640625 104.644531 C 28.320312 105.269531 28.160156 106.207031 28.160156 107.460938 C 28.160156 108.710938 28.320312 109.648438 28.640625 110.273438 C 28.960938 110.898438 29.4375 111.210938 30.070312 111.210938 C 30.710938 111.210938 31.1875 110.898438 31.507812 110.273438 C 31.828125 109.648438 31.988281 108.710938 31.988281 107.460938 C 31.988281 106.207031 31.828125 105.269531 31.507812 104.644531 C 31.1875 104.019531 30.710938 103.707031 30.070312 103.707031 Z M 30.070312 102.730469 C 31.09375 102.730469 31.875 103.136719 32.414062 103.945312 C 32.953125 104.75 33.21875 105.921875 33.21875 107.460938 C 33.21875 108.996094 32.953125 110.167969 32.414062 110.976562 C 31.875 111.78125 31.09375 112.1875 30.070312 112.1875 C 29.050781 112.1875 28.269531 111.78125 27.730469 110.976562 C 27.191406 110.167969 26.921875 108.996094 26.921875 107.460938 C 26.921875 105.921875 27.191406 104.75 27.730469 103.945312 C 28.269531 103.136719 29.050781 102.730469 30.070312 102.730469 Z M 30.070312 102.730469 "/>
<path style=" stroke:none;fill-rule:nonzero;fill:rgb(0%,0%,0%);fill-opacity:1;" d="M 35.386719 110.457031 L 36.675781 110.457031 L 36.675781 112.007812 L 35.386719 112.007812 Z M 35.386719 110.457031 "/>
<path style=" stroke:none;fill-rule:nonzero;fill:rgb(0%,0%,0%);fill-opacity:1;" d="M 40.421875 110.972656 L 44.726562 110.972656 L 44.726562 112.007812 L 38.941406 112.007812 L 38.941406 110.972656 C 39.40625 110.488281 40.042969 109.835938 40.851562 109.023438 C 41.660156 108.207031 42.167969 107.679688 42.375 107.441406 C 42.769531 107 43.046875 106.625 43.203125 106.316406 C 43.359375 106.007812 43.4375 105.707031 43.4375 105.410156 C 43.4375 104.925781 43.269531 104.53125 42.929688 104.226562 C 42.589844 103.921875 42.144531 103.769531 41.601562 103.769531 C 41.214844 103.769531 40.804688 103.835938 40.375 103.96875 C 39.945312 104.101562 39.488281 104.308594 39 104.582031 L 39 103.335938 C 39.496094 103.136719 39.960938 102.984375 40.390625 102.882812 C 40.824219 102.78125 41.21875 102.730469 41.578125 102.730469 C 42.519531 102.730469 43.273438 102.96875 43.835938 103.441406 C 44.394531 103.910156 44.675781 104.542969 44.675781 105.332031 C 44.675781 105.707031 44.605469 106.0625 44.464844 106.398438 C 44.324219 106.730469 44.070312 107.125 43.699219 107.582031 C 43.597656 107.699219 43.273438 108.042969 42.730469 108.605469 C 42.183594 109.167969 41.414062 109.957031 40.421875 110.972656 Z M 40.421875 110.972656 "/>
<path style=" stroke:none;fill-rule:nonzero;fill:rgb(0%,0%,0%);fill-opacity:1;" d="M 49.949219 107.679688 C 49.363281 107.679688 48.902344 107.835938 48.566406 108.152344 C 48.230469 108.464844 48.066406 108.894531 48.066406 109.445312 C 48.066406 109.992188 48.230469 110.425781 48.566406 110.738281 C 48.902344 111.050781 49.363281 111.210938 49.949219 111.210938 C 50.535156 111.210938 50.996094 111.050781 51.335938 110.738281 C 51.671875 110.421875 51.84375 109.988281 51.84375 109.445312 C 51.84375 108.894531 51.675781 108.464844 51.339844 108.152344 C 51.003906 107.835938 50.539062 107.679688 49.949219 107.679688 Z M 48.71875 107.15625 C 48.1875 107.027344 47.777344 106.78125 47.480469 106.417969 C 47.1875 106.054688 47.039062 105.613281 47.039062 105.09375 C 47.039062 104.363281 47.296875 103.789062 47.816406 103.367188 C 48.335938 102.941406 49.046875 102.730469 49.949219 102.730469 C 50.855469 102.730469 51.570312 102.941406 52.085938 103.367188 C 52.601562 103.789062 52.863281 104.363281 52.863281 105.09375 C 52.863281 105.613281 52.714844 106.054688 52.417969 106.417969 C 52.125 106.78125 51.714844 107.027344 51.191406 107.15625 C 51.785156 107.292969 52.246094 107.566406 52.578125 107.96875 C 52.910156 108.371094 53.074219 108.863281 53.074219 109.445312 C 53.074219 110.328125 52.804688 111.007812 52.265625 111.480469 C 51.726562 111.949219 50.953125 112.1875 49.949219 112.1875 C 48.945312 112.1875 48.171875 111.949219 47.632812 111.480469 C 47.09375 111.007812 46.824219 110.328125 46.824219 109.445312 C 46.824219 108.863281 46.992188 108.371094 47.324219 107.96875 C 47.660156 107.566406 48.125 107.292969 48.71875 107.15625 Z M 48.265625 105.210938 C 48.265625 105.679688 48.414062 106.046875 48.707031 106.3125 C 49.003906 106.578125 49.417969 106.710938 49.949219 106.710938 C 50.480469 106.710938 50.894531 106.578125 51.191406 106.3125 C 51.492188 106.046875 51.640625 105.679688 51.640625 105.210938 C 51.640625 104.738281 51.492188 104.367188 51.191406 104.105469 C 50.894531 103.839844 50.480469 103.707031 49.949219 103.707031 C 49.417969 103.707031 49.003906 103.839844 48.707031 104.105469 C 48.414062 104.367188 48.265625 104.738281 48.265625 105.210938 Z M 48.265625 105.210938 "/>
<g clip-path="url(#clip8)" clip-rule="nonzero">
<path style="fill:none;stroke-width:0.8;stroke-linecap:square;stroke-linejoin:round;stroke:rgb(69.019608%,69.019608%,69.019608%);stroke-opacity:1;stroke-miterlimit:4;" d="M 50.14375 58.7 L 245.44375 58.7 " transform="matrix(1.25,0,0,1.25,0,0)"/>
</g>
<path style="fill:none;stroke-width:0.8;stroke-linecap:butt;stroke-linejoin:round;stroke:rgb(0%,0%,0%);stroke-opacity:1;stroke-miterlimit:4;" d="M 0 0.000783 L -3.5 0.000783 " transform="matrix(1.25,0,0,1.25,62.679688,73.374021)"/>
<path style=" stroke:none;fill-rule:nonzero;fill:rgb(0%,0%,0%);fill-opacity:1;" d="M 30.070312 69.820312 C 29.4375 69.820312 28.960938 70.132812 28.640625 70.757812 C 28.320312 71.382812 28.160156 72.320312 28.160156 73.574219 C 28.160156 74.824219 28.320312 75.761719 28.640625 76.386719 C 28.960938 77.011719 29.4375 77.324219 30.070312 77.324219 C 30.710938 77.324219 31.1875 77.011719 31.507812 76.386719 C 31.828125 75.761719 31.988281 74.824219 31.988281 73.574219 C 31.988281 72.320312 31.828125 71.382812 31.507812 70.757812 C 31.1875 70.132812 30.710938 69.820312 30.070312 69.820312 Z M 30.070312 68.84375 C 31.09375 68.84375 31.875 69.25 32.414062 70.058594 C 32.953125 70.867188 33.21875 72.039062 33.21875 73.574219 C 33.21875 75.109375 32.953125 76.28125 32.414062 77.089844 C 31.875 77.898438 31.09375 78.300781 30.070312 78.300781 C 29.050781 78.300781 28.269531 77.898438 27.730469 77.089844 C 27.191406 76.28125 26.921875 75.109375 26.921875 73.574219 C 26.921875 72.039062 27.191406 70.867188 27.730469 70.058594 C 28.269531 69.25 29.050781 68.84375 30.070312 68.84375 Z M 30.070312 68.84375 "/>
<path style=" stroke:none;fill-rule:nonzero;fill:rgb(0%,0%,0%);fill-opacity:1;" d="M 35.386719 76.570312 L 36.675781 76.570312 L 36.675781 78.121094 L 35.386719 78.121094 Z M 35.386719 76.570312 "/>
<path style=" stroke:none;fill-rule:nonzero;fill:rgb(0%,0%,0%);fill-opacity:1;" d="M 43.097656 73.207031 C 43.6875 73.335938 44.144531 73.597656 44.476562 73.996094 C 44.808594 74.394531 44.976562 74.886719 44.976562 75.472656 C 44.976562 76.371094 44.664062 77.070312 44.046875 77.5625 C 43.429688 78.054688 42.550781 78.300781 41.410156 78.300781 C 41.027344 78.300781 40.636719 78.261719 40.230469 78.1875 C 39.824219 78.113281 39.40625 78 38.976562 77.847656 L 38.976562 76.65625 C 39.316406 76.855469 39.691406 77.007812 40.097656 77.109375 C 40.503906 77.210938 40.929688 77.261719 41.375 77.261719 C 42.148438 77.261719 42.734375 77.109375 43.140625 76.804688 C 43.546875 76.5 43.75 76.054688 43.75 75.472656 C 43.75 74.9375 43.558594 74.515625 43.183594 74.214844 C 42.808594 73.910156 42.285156 73.757812 41.613281 73.757812 L 40.550781 73.757812 L 40.550781 72.746094 L 41.664062 72.746094 C 42.269531 72.746094 42.730469 72.625 43.054688 72.382812 C 43.375 72.140625 43.535156 71.792969 43.535156 71.335938 C 43.535156 70.867188 43.371094 70.507812 43.039062 70.257812 C 42.707031 70.007812 42.230469 69.882812 41.613281 69.882812 C 41.273438 69.882812 40.914062 69.917969 40.527344 69.992188 C 40.140625 70.066406 39.714844 70.179688 39.25 70.332031 L 39.25 69.234375 C 39.71875 69.105469 40.15625 69.007812 40.566406 68.941406 C 40.976562 68.878906 41.359375 68.84375 41.722656 68.84375 C 42.660156 68.84375 43.398438 69.058594 43.945312 69.484375 C 44.488281 69.910156 44.761719 70.484375 44.761719 71.207031 C 44.761719 71.710938 44.617188 72.136719 44.328125 72.484375 C 44.039062 72.832031 43.628906 73.074219 43.097656 73.207031 Z M 43.097656 73.207031 "/>
<path style=" stroke:none;fill-rule:nonzero;fill:rgb(0%,0%,0%);fill-opacity:1;" d="M 49.949219 69.820312 C 49.316406 69.820312 48.839844 70.132812 48.519531 70.757812 C 48.199219 71.382812 48.039062 72.320312 48.039062 73.574219 C 48.039062 74.824219 48.199219 75.761719 48.519531 76.386719 C 48.839844 77.011719 49.316406 77.324219 49.949219 77.324219 C 50.589844 77.324219 51.066406 77.011719 51.386719 76.386719 C 51.707031 75.761719 51.867188 74.824219 51.867188 73.574219 C 51.867188 72.320312 51.707031 71.382812 51.386719 70.757812 C 51.066406 70.132812 50.589844 69.820312 49.949219 69.820312 Z M 49.949219 68.84375 C 50.972656 68.84375 51.753906 69.25 52.292969 70.058594 C 52.832031 70.867188 53.101562 72.039062 53.101562 73.574219 C 53.101562 75.109375 52.832031 76.28125 52.292969 77.089844 C 51.753906 77.898438 50.972656 78.300781 49.949219 78.300781 C 48.929688 78.300781 48.148438 77.898438 47.609375 77.089844 C 47.070312 76.28125 46.800781 75.109375 46.800781 73.574219 C 46.800781 72.039062 47.070312 70.867188 47.609375 70.058594 C 48.148438 69.25 48.929688 68.84375 49.949219 68.84375 Z M 49.949219 68.84375 "/>
<g clip-path="url(#clip9)" clip-rule="nonzero">
<path style="fill:none;stroke-width:0.8;stroke-linecap:square;stroke-linejoin:round;stroke:rgb(69.019608%,69.019608%,69.019608%);stroke-opacity:1;stroke-miterlimit:4;" d="M 50.14375 31.590625 L 245.44375 31.590625 " transform="matrix(1.25,0,0,1.25,0,0)"/>
</g>
<path style="fill:none;stroke-width:0.8;stroke-linecap:butt;stroke-linejoin:round;stroke:rgb(0%,0%,0%);stroke-opacity:1;stroke-miterlimit:4;" d="M 0 -0.000424 L -3.5 -0.000424 " transform="matrix(1.25,0,0,1.25,62.679688,39.488811)"/>
<path style=" stroke:none;fill-rule:nonzero;fill:rgb(0%,0%,0%);fill-opacity:1;" d="M 30.070312 35.9375 C 29.4375 35.9375 28.960938 36.25 28.640625 36.875 C 28.320312 37.5 28.160156 38.4375 28.160156 39.691406 C 28.160156 40.941406 28.320312 41.875 28.640625 42.5 C 28.960938 43.125 29.4375 43.4375 30.070312 43.4375 C 30.710938 43.4375 31.1875 43.125 31.507812 42.5 C 31.828125 41.875 31.988281 40.941406 31.988281 39.691406 C 31.988281 38.4375 31.828125 37.5 31.507812 36.875 C 31.1875 36.25 30.710938 35.9375 30.070312 35.9375 Z M 30.070312 34.960938 C 31.09375 34.960938 31.875 35.363281 32.414062 36.171875 C 32.953125 36.980469 33.21875 38.152344 33.21875 39.691406 C 33.21875 41.226562 32.953125 42.394531 32.414062 43.203125 C 31.875 44.011719 31.09375 44.414062 30.070312 44.414062 C 29.050781 44.414062 28.269531 44.011719 27.730469 43.203125 C 27.191406 42.394531 26.921875 41.226562 26.921875 39.691406 C 26.921875 38.152344 27.191406 36.980469 27.730469 36.171875 C 28.269531 35.363281 29.050781 34.960938 30.070312 34.960938 Z M 30.070312 34.960938 "/>
<path style=" stroke:none;fill-rule:nonzero;fill:rgb(0%,0%,0%);fill-opacity:1;" d="M 35.386719 42.6875 L 36.675781 42.6875 L 36.675781 44.238281 L 35.386719 44.238281 Z M 35.386719 42.6875 "/>
<path style=" stroke:none;fill-rule:nonzero;fill:rgb(0%,0%,0%);fill-opacity:1;" d="M 43.097656 39.324219 C 43.6875 39.449219 44.144531 39.714844 44.476562 40.113281 C 44.808594 40.511719 44.976562 41.003906 44.976562 41.589844 C 44.976562 42.488281 44.664062 43.183594 44.046875 43.675781 C 43.429688 44.167969 42.550781 44.414062 41.410156 44.414062 C 41.027344 44.414062 40.636719 44.378906 40.230469 44.300781 C 39.824219 44.226562 39.40625 44.113281 38.976562 43.960938 L 38.976562 42.773438 C 39.316406 42.972656 39.691406 43.121094 40.097656 43.222656 C 40.503906 43.324219 40.929688 43.375 41.375 43.375 C 42.148438 43.375 42.734375 43.222656 43.140625 42.917969 C 43.546875 42.613281 43.75 42.171875 43.75 41.589844 C 43.75 41.050781 43.558594 40.632812 43.183594 40.328125 C 42.808594 40.027344 42.285156 39.875 41.613281 39.875 L 40.550781 39.875 L 40.550781 38.859375 L 41.664062 38.859375 C 42.269531 38.859375 42.730469 38.738281 43.054688 38.496094 C 43.375 38.253906 43.535156 37.90625 43.535156 37.449219 C 43.535156 36.984375 43.371094 36.625 43.039062 36.375 C 42.707031 36.125 42.230469 35.996094 41.613281 35.996094 C 41.273438 35.996094 40.914062 36.035156 40.527344 36.109375 C 40.140625 36.183594 39.714844 36.296875 39.25 36.449219 L 39.25 35.351562 C 39.71875 35.222656 40.15625 35.125 40.566406 35.058594 C 40.976562 34.992188 41.359375 34.960938 41.722656 34.960938 C 42.660156 34.960938 43.398438 35.171875 43.945312 35.597656 C 44.488281 36.023438 44.761719 36.597656 44.761719 37.320312 C 44.761719 37.828125 44.617188 38.253906 44.328125 38.601562 C 44.039062 38.949219 43.628906 39.191406 43.097656 39.324219 Z M 43.097656 39.324219 "/>
<path style=" stroke:none;fill-rule:nonzero;fill:rgb(0%,0%,0%);fill-opacity:1;" d="M 48.375 43.199219 L 52.679688 43.199219 L 52.679688 44.238281 L 46.894531 44.238281 L 46.894531 43.199219 C 47.359375 42.714844 47.996094 42.066406 48.804688 41.25 C 49.613281 40.433594 50.121094 39.910156 50.328125 39.671875 C 50.722656 39.230469 51 38.855469 51.15625 38.546875 C 51.3125 38.238281 51.390625 37.9375 51.390625 37.640625 C 51.390625 37.15625 51.222656 36.761719 50.882812 36.457031 C 50.542969 36.152344 50.097656 35.996094 49.554688 35.996094 C 49.167969 35.996094 48.757812 36.066406 48.328125 36.199219 C 47.898438 36.332031 47.441406 36.535156 46.953125 36.808594 L 46.953125 35.5625 C 47.449219 35.363281 47.914062 35.214844 48.34375 35.113281 C 48.777344 35.011719 49.171875 34.960938 49.53125 34.960938 C 50.472656 34.960938 51.226562 35.195312 51.789062 35.667969 C 52.347656 36.140625 52.628906 36.769531 52.628906 37.558594 C 52.628906 37.933594 52.558594 38.289062 52.417969 38.625 C 52.277344 38.960938 52.023438 39.355469 51.652344 39.8125 C 51.550781 39.929688 51.226562 40.273438 50.683594 40.835938 C 50.136719 41.398438 49.367188 42.1875 48.375 43.199219 Z M 48.375 43.199219 "/>
<path style=" stroke:none;fill-rule:nonzero;fill:rgb(0%,0%,0%);fill-opacity:1;" d="M 9 104.832031 L 9 103.707031 L 18.496094 103.707031 L 18.496094 104.832031 Z M 9 104.832031 "/>
<path style=" stroke:none;fill-rule:nonzero;fill:rgb(0%,0%,0%);fill-opacity:1;" d="M 12.449219 98.710938 C 12.449219 99.3125 12.683594 99.789062 13.152344 100.136719 C 13.625 100.488281 14.269531 100.664062 15.085938 100.664062 C 15.902344 100.664062 16.546875 100.488281 17.015625 100.140625 C 17.488281 99.792969 17.722656 99.316406 17.722656 98.710938 C 17.722656 98.113281 17.488281 97.636719 17.015625 97.289062 C 16.542969 96.9375 15.898438 96.761719 15.085938 96.761719 C 14.277344 96.761719 13.632812 96.9375 13.160156 97.289062 C 12.6875 97.636719 12.449219 98.113281 12.449219 98.710938 Z M 11.496094 98.710938 C 11.496094 97.734375 11.816406 96.96875 12.449219 96.410156 C 13.085938 95.851562 13.964844 95.570312 15.085938 95.570312 C 16.203125 95.570312 17.082031 95.851562 17.71875 96.410156 C 18.355469 96.96875 18.675781 97.734375 18.675781 98.710938 C 18.675781 99.691406 18.355469 100.460938 17.71875 101.015625 C 17.082031 101.570312 16.203125 101.847656 15.085938 101.847656 C 13.964844 101.847656 13.085938 101.570312 12.449219 101.015625 C 11.816406 100.460938 11.496094 99.691406 11.496094 98.710938 Z M 11.496094 98.710938 "/>
<path style=" stroke:none;fill-rule:nonzero;fill:rgb(0%,0%,0%);fill-opacity:1;" d="M 11.863281 89.355469 L 12.925781 89.355469 C 12.761719 89.671875 12.640625 90 12.558594 90.34375 C 12.476562 90.683594 12.4375 91.039062 12.4375 91.40625 C 12.4375 91.960938 12.523438 92.378906 12.691406 92.660156 C 12.863281 92.9375 13.121094 93.078125 13.460938 93.078125 C 13.722656 93.078125 13.925781 92.976562 14.074219 92.777344 C 14.222656 92.578125 14.367188 92.175781 14.5 91.574219 L 14.585938 91.191406 C 14.757812 90.394531 14.996094 89.828125 15.308594 89.492188 C 15.621094 89.15625 16.054688 88.988281 16.609375 88.988281 C 17.246094 88.988281 17.75 89.238281 18.121094 89.742188 C 18.492188 90.242188 18.675781 90.933594 18.675781 91.8125 C 18.675781 92.179688 18.640625 92.558594 18.566406 92.957031 C 18.496094 93.355469 18.390625 93.773438 18.246094 94.210938 L 17.085938 94.210938 C 17.304688 93.796875 17.464844 93.386719 17.574219 92.984375 C 17.679688 92.582031 17.734375 92.183594 17.734375 91.789062 C 17.734375 91.257812 17.644531 90.851562 17.460938 90.570312 C 17.28125 90.285156 17.027344 90.140625 16.695312 90.140625 C 16.390625 90.140625 16.160156 90.242188 15.996094 90.449219 C 15.832031 90.652344 15.675781 91.105469 15.523438 91.800781 L 15.433594 92.191406 C 15.289062 92.886719 15.0625 93.390625 14.757812 93.699219 C 14.457031 94.007812 14.039062 94.164062 13.511719 94.164062 C 12.867188 94.164062 12.371094 93.933594 12.023438 93.480469 C 11.671875 93.023438 11.496094 92.375 11.496094 91.539062 C 11.496094 91.125 11.527344 90.734375 11.589844 90.367188 C 11.648438 90 11.742188 89.664062 11.863281 89.355469 Z M 11.863281 89.355469 "/>
<path style=" stroke:none;fill-rule:nonzero;fill:rgb(0%,0%,0%);fill-opacity:1;" d="M 11.863281 82.839844 L 12.925781 82.839844 C 12.761719 83.15625 12.640625 83.488281 12.558594 83.828125 C 12.476562 84.171875 12.4375 84.523438 12.4375 84.890625 C 12.4375 85.449219 12.523438 85.867188 12.691406 86.144531 C 12.863281 86.425781 13.121094 86.5625 13.460938 86.5625 C 13.722656 86.5625 13.925781 86.464844 14.074219 86.265625 C 14.222656 86.066406 14.367188 85.664062 14.5 85.0625 L 14.585938 84.675781 C 14.757812 83.878906 14.996094 83.3125 15.308594 82.976562 C 15.621094 82.640625 16.054688 82.472656 16.609375 82.472656 C 17.246094 82.472656 17.75 82.726562 18.121094 83.226562 C 18.492188 83.730469 18.675781 84.421875 18.675781 85.300781 C 18.675781 85.667969 18.640625 86.046875 18.566406 86.445312 C 18.496094 86.84375 18.390625 87.261719 18.246094 87.699219 L 17.085938 87.699219 C 17.304688 87.285156 17.464844 86.875 17.574219 86.472656 C 17.679688 86.070312 17.734375 85.671875 17.734375 85.273438 C 17.734375 84.746094 17.644531 84.339844 17.460938 84.054688 C 17.28125 83.769531 17.027344 83.628906 16.695312 83.628906 C 16.390625 83.628906 16.160156 83.730469 15.996094 83.9375 C 15.832031 84.140625 15.675781 84.59375 15.523438 85.289062 L 15.433594 85.679688 C 15.289062 86.375 15.0625 86.878906 14.757812 87.1875 C 14.457031 87.496094 14.039062 87.648438 13.511719 87.648438 C 12.867188 87.648438 12.371094 87.421875 12.023438 86.964844 C 11.671875 86.511719 11.496094 85.863281 11.496094 85.023438 C 11.496094 84.609375 11.527344 84.222656 11.589844 83.855469 C 11.648438 83.488281 11.742188 83.148438 11.863281 82.839844 Z M 11.863281 82.839844 "/>
<path style="fill:none;stroke-width:1.5;stroke-linecap:square;stroke-linejoin:round;stroke:rgb(12.156863%,46.666667%,70.588235%);stroke-opacity:1;stroke-miterlimit:4;" d="M 113.721875 124.390625 L 129.384375 129.71875 L 138.753125 128.809375 L 145.475 125.984375 L 151.14375 121.20625 " transform="matrix(1.25,0,0,1.25,0,0)"/>
<path style="fill:none;stroke-width:1.5;stroke-linecap:butt;stroke-linejoin:round;stroke:rgb(74.901961%,0%,74.901961%);stroke-opacity:1;stroke-dasharray:5.55,2.4;stroke-miterlimit:4;" d="M 148.89375 28.496875 L 172.84375 116.259375 L 182.7875 129.775 L 190.115625 129.64375 L 195.915625 131.4375 L 200.728125 134.3625 L 204.865625 133.38125 L 208.453125 131.14375 L 212.084375 134.334375 L 215.321875 126.53125 L 218.209375 134.8625 L 220.5125 135.79375 L 223.159375 134.790625 L 225.690625 129.821875 L 228.00625 133.421875 " transform="matrix(1.25,0,0,1.25,0,0)"/>
<g clip-path="url(#clip10)" clip-rule="nonzero">
<path style="fill:none;stroke-width:1.5;stroke-linecap:butt;stroke-linejoin:round;stroke:rgb(0%,50.196078%,0%);stroke-opacity:1;stroke-dasharray:9.6,2.4,1.5,2.4;stroke-miterlimit:4;" d="M 47.121875 35.6125 L 67.953125 95.74375 L 77.66875 124.4875 L 86.203125 128.503125 L 92.65625 133.05625 L 97.971875 133.69375 L 102.3875 135.8875 L 106.253125 132.459375 L 109.590625 132.990625 L 112.18125 134.83125 L 114.825 136.246875 L 116.95 134.2875 L 118.925 130.140625 L 120.85625 124.646875 L 122.6 134.675 " transform="matrix(1.25,0,0,1.25,0,0)"/>
</g>
<path style="fill:none;stroke-width:1.5;stroke-linecap:butt;stroke-linejoin:round;stroke:rgb(100%,0%,0%);stroke-opacity:1;stroke-dasharray:1.5,2.475;stroke-miterlimit:4;" d="M 87.284375 13.378125 L 107.05 97.371875 L 118.596875 124.46875 L 126.746875 127.759375 L 133.08125 133.73125 L 138.234375 131.015625 L 142.590625 134.48125 L 146.38125 135.415625 L 149.70625 130.734375 L 153.10625 131.021875 L 156.125 130.98125 L 158.859375 119.10625 L 161.3625 134.15 L 163.646875 136.921875 L 165.778125 129.075 " transform="matrix(1.25,0,0,1.25,0,0)"/>
<path style="fill:none;stroke-width:0.8;stroke-linecap:square;stroke-linejoin:miter;stroke:rgb(0%,0%,0%);stroke-opacity:1;stroke-miterlimit:4;" d="M 50.14375 143.1 L 50.14375 7.2 " transform="matrix(1.25,0,0,1.25,0,0)"/>
<path style="fill:none;stroke-width:0.8;stroke-linecap:square;stroke-linejoin:miter;stroke:rgb(0%,0%,0%);stroke-opacity:1;stroke-miterlimit:4;" d="M 245.44375 143.1 L 245.44375 7.2 " transform="matrix(1.25,0,0,1.25,0,0)"/>
<path style="fill:none;stroke-width:0.8;stroke-linecap:square;stroke-linejoin:miter;stroke:rgb(0%,0%,0%);stroke-opacity:1;stroke-miterlimit:4;" d="M 50.14375 143.1 L 245.44375 143.1 " transform="matrix(1.25,0,0,1.25,0,0)"/>
<path style="fill:none;stroke-width:0.8;stroke-linecap:square;stroke-linejoin:miter;stroke:rgb(0%,0%,0%);stroke-opacity:1;stroke-miterlimit:4;" d="M 50.14375 7.2 L 245.44375 7.2 " transform="matrix(1.25,0,0,1.25,0,0)"/>
<use xlink:href="#surface6" mask="url(#mask0)"/>
<path style="fill:none;stroke-width:1.5;stroke-linecap:square;stroke-linejoin:round;stroke:rgb(12.156863%,46.666667%,70.588235%);stroke-opacity:1;stroke-miterlimit:4;" d="M 130.175 52.390625 L 150.175 52.390625 " transform="matrix(1.25,0,0,1.25,0,0)"/>
<path style=" stroke:none;fill-rule:nonzero;fill:rgb(0%,0%,0%);fill-opacity:1;" d="M 203.394531 66.367188 C 203.394531 65.554688 203.226562 64.921875 202.890625 64.476562 C 202.558594 64.027344 202.085938 63.804688 201.480469 63.804688 C 200.878906 63.804688 200.410156 64.027344 200.074219 64.476562 C 199.738281 64.921875 199.570312 65.554688 199.570312 66.367188 C 199.570312 67.175781 199.738281 67.804688 200.074219 68.253906 C 200.410156 68.703125 200.878906 68.925781 201.480469 68.925781 C 202.085938 68.925781 202.558594 68.703125 202.890625 68.253906 C 203.226562 67.804688 203.394531 67.175781 203.394531 66.367188 Z M 204.519531 69.015625 C 204.519531 70.179688 204.261719 71.046875 203.742188 71.613281 C 203.226562 72.179688 202.4375 72.464844 201.371094 72.464844 C 200.976562 72.464844 200.605469 72.433594 200.253906 72.375 C 199.902344 72.316406 199.5625 72.226562 199.234375 72.105469 L 199.234375 71.011719 C 199.5625 71.191406 199.890625 71.324219 200.210938 71.40625 C 200.53125 71.492188 200.859375 71.535156 201.191406 71.535156 C 201.929688 71.535156 202.480469 71.34375 202.847656 70.960938 C 203.214844 70.578125 203.394531 69.996094 203.394531 69.21875 L 203.394531 68.660156 C 203.164062 69.066406 202.867188 69.367188 202.503906 69.566406 C 202.144531 69.765625 201.710938 69.863281 201.203125 69.863281 C 200.367188 69.863281 199.691406 69.546875 199.179688 68.90625 C 198.667969 68.269531 198.410156 67.421875 198.410156 66.367188 C 198.410156 65.308594 198.667969 64.460938 199.179688 63.824219 C 199.691406 63.183594 200.367188 62.863281 201.203125 62.863281 C 201.710938 62.863281 202.144531 62.964844 202.503906 63.164062 C 202.867188 63.363281 203.164062 63.664062 203.394531 64.066406 L 203.394531 63.027344 L 204.519531 63.027344 Z M 204.519531 69.015625 "/>
<path style=" stroke:none;fill-rule:nonzero;fill:rgb(0%,0%,0%);fill-opacity:1;" d="M 211.332031 64.066406 L 211.332031 60.367188 L 212.453125 60.367188 L 212.453125 69.863281 L 211.332031 69.863281 L 211.332031 68.839844 C 211.09375 69.246094 210.796875 69.546875 210.4375 69.746094 C 210.078125 69.945312 209.644531 70.042969 209.140625 70.042969 C 208.3125 70.042969 207.640625 69.714844 207.121094 69.054688 C 206.605469 68.394531 206.34375 67.527344 206.34375 66.453125 C 206.34375 65.378906 206.605469 64.511719 207.121094 63.851562 C 207.640625 63.195312 208.3125 62.863281 209.140625 62.863281 C 209.644531 62.863281 210.078125 62.964844 210.4375 63.160156 C 210.796875 63.359375 211.09375 63.660156 211.332031 64.066406 Z M 207.503906 66.453125 C 207.503906 67.277344 207.675781 67.925781 208.015625 68.394531 C 208.355469 68.867188 208.820312 69.101562 209.414062 69.101562 C 210.007812 69.101562 210.476562 68.867188 210.816406 68.394531 C 211.160156 67.925781 211.332031 67.277344 211.332031 66.453125 C 211.332031 65.628906 211.160156 64.980469 210.816406 64.507812 C 210.476562 64.039062 210.007812 63.804688 209.414062 63.804688 C 208.820312 63.804688 208.355469 64.039062 208.015625 64.507812 C 207.675781 64.980469 207.503906 65.628906 207.503906 66.453125 Z M 207.503906 66.453125 "/>
<path style="fill:none;stroke-width:1.5;stroke-linecap:butt;stroke-linejoin:round;stroke:rgb(74.901961%,0%,74.901961%);stroke-opacity:1;stroke-dasharray:5.55,2.4;stroke-miterlimit:4;" d="M 130.175 67.06875 L 150.175 67.06875 " transform="matrix(1.25,0,0,1.25,0,0)"/>
<path style=" stroke:none;fill-rule:nonzero;fill:rgb(0%,0%,0%);fill-opacity:1;" d="M 203.253906 81.578125 L 203.253906 82.640625 C 202.9375 82.476562 202.609375 82.355469 202.265625 82.273438 C 201.925781 82.191406 201.570312 82.152344 201.203125 82.152344 C 200.648438 82.152344 200.230469 82.238281 199.949219 82.40625 C 199.671875 82.578125 199.53125 82.835938 199.53125 83.175781 C 199.53125 83.4375 199.632812 83.640625 199.832031 83.789062 C 200.03125 83.9375 200.433594 84.082031 201.035156 84.214844 L 201.417969 84.300781 C 202.214844 84.472656 202.78125 84.710938 203.117188 85.023438 C 203.453125 85.335938 203.621094 85.769531 203.621094 86.324219 C 203.621094 86.960938 203.371094 87.464844 202.867188 87.835938 C 202.367188 88.207031 201.675781 88.390625 200.796875 88.390625 C 200.429688 88.390625 200.050781 88.355469 199.652344 88.28125 C 199.253906 88.210938 198.835938 88.105469 198.398438 87.960938 L 198.398438 86.800781 C 198.8125 87.019531 199.222656 87.179688 199.625 87.289062 C 200.027344 87.394531 200.425781 87.449219 200.820312 87.449219 C 201.351562 87.449219 201.757812 87.359375 202.039062 87.175781 C 202.324219 86.996094 202.46875 86.742188 202.46875 86.410156 C 202.46875 86.105469 202.367188 85.875 202.160156 85.710938 C 201.957031 85.546875 201.503906 85.390625 200.808594 85.238281 L 200.417969 85.148438 C 199.722656 85.003906 199.21875 84.777344 198.910156 84.472656 C 198.601562 84.171875 198.445312 83.753906 198.445312 83.226562 C 198.445312 82.582031 198.675781 82.085938 199.128906 81.738281 C 199.585938 81.386719 200.234375 81.210938 201.070312 81.210938 C 201.484375 81.210938 201.875 81.242188 202.242188 81.304688 C 202.609375 81.363281 202.945312 81.457031 203.253906 81.578125 Z M 203.253906 81.578125 "/>
<path style=" stroke:none;fill-rule:nonzero;fill:rgb(0%,0%,0%);fill-opacity:1;" d="M 209.910156 84.714844 C 209.910156 83.902344 209.742188 83.269531 209.40625 82.824219 C 209.070312 82.375 208.601562 82.152344 207.992188 82.152344 C 207.390625 82.152344 206.921875 82.375 206.585938 82.824219 C 206.25 83.269531 206.082031 83.902344 206.082031 84.714844 C 206.082031 85.523438 206.25 86.152344 206.585938 86.601562 C 206.921875 87.050781 207.390625 87.273438 207.992188 87.273438 C 208.601562 87.273438 209.070312 87.050781 209.40625 86.601562 C 209.742188 86.152344 209.910156 85.523438 209.910156 84.714844 Z M 211.03125 87.363281 C 211.03125 88.527344 210.773438 89.394531 210.257812 89.960938 C 209.742188 90.527344 208.949219 90.8125 207.882812 90.8125 C 207.488281 90.8125 207.117188 90.78125 206.765625 90.722656 C 206.417969 90.664062 206.078125 90.574219 205.746094 90.453125 L 205.746094 89.359375 C 206.078125 89.539062 206.402344 89.671875 206.722656 89.753906 C 207.046875 89.839844 207.371094 89.882812 207.707031 89.882812 C 208.441406 89.882812 208.996094 89.691406 209.359375 89.308594 C 209.726562 88.925781 209.910156 88.34375 209.910156 87.566406 L 209.910156 87.007812 C 209.675781 87.414062 209.378906 87.714844 209.019531 87.914062 C 208.65625 88.113281 208.222656 88.210938 207.71875 88.210938 C 206.878906 88.210938 206.207031 87.894531 205.691406 87.253906 C 205.179688 86.617188 204.921875 85.769531 204.921875 84.714844 C 204.921875 83.65625 205.179688 82.808594 205.691406 82.171875 C 206.207031 81.53125 206.878906 81.210938 207.71875 81.210938 C 208.222656 81.210938 208.65625 81.3125 209.019531 81.511719 C 209.378906 81.710938 209.675781 82.011719 209.910156 82.414062 L 209.910156 81.375 L 211.03125 81.375 Z M 211.03125 87.363281 "/>
<path style=" stroke:none;fill-rule:nonzero;fill:rgb(0%,0%,0%);fill-opacity:1;" d="M 217.84375 82.414062 L 217.84375 78.714844 L 218.964844 78.714844 L 218.964844 88.210938 L 217.84375 88.210938 L 217.84375 87.1875 C 217.609375 87.59375 217.308594 87.894531 216.949219 88.09375 C 216.589844 88.292969 216.15625 88.390625 215.652344 88.390625 C 214.828125 88.390625 214.152344 88.0625 213.632812 87.402344 C 213.117188 86.742188 212.855469 85.875 212.855469 84.800781 C 212.855469 83.726562 213.117188 82.859375 213.632812 82.199219 C 214.152344 81.542969 214.828125 81.210938 215.652344 81.210938 C 216.15625 81.210938 216.589844 81.3125 216.949219 81.507812 C 217.308594 81.707031 217.609375 82.007812 217.84375 82.414062 Z M 214.015625 84.800781 C 214.015625 85.625 214.1875 86.273438 214.527344 86.742188 C 214.867188 87.214844 215.332031 87.449219 215.925781 87.449219 C 216.519531 87.449219 216.988281 87.214844 217.328125 86.742188 C 217.671875 86.273438 217.84375 85.625 217.84375 84.800781 C 217.84375 83.976562 217.671875 83.328125 217.328125 82.855469 C 216.988281 82.386719 216.519531 82.152344 215.925781 82.152344 C 215.332031 82.152344 214.867188 82.386719 214.527344 82.855469 C 214.1875 83.328125 214.015625 83.976562 214.015625 84.800781 Z M 214.015625 84.800781 "/>
<path style="fill:none;stroke-width:1.5;stroke-linecap:butt;stroke-linejoin:round;stroke:rgb(0%,50.196078%,0%);stroke-opacity:1;stroke-dasharray:9.6,2.4,1.5,2.4;stroke-miterlimit:4;" d="M 130.175 81.746875 L 150.175 81.746875 " transform="matrix(1.25,0,0,1.25,0,0)"/>
<path style=" stroke:none;fill-rule:nonzero;fill:rgb(0%,0%,0%);fill-opacity:1;" d="M 203.804688 103.148438 C 203.804688 102.324219 203.636719 101.675781 203.296875 101.203125 C 202.957031 100.734375 202.488281 100.5 201.894531 100.5 C 201.300781 100.5 200.832031 100.734375 200.492188 101.203125 C 200.152344 101.675781 199.984375 102.324219 199.984375 103.148438 C 199.984375 103.972656 200.152344 104.621094 200.492188 105.089844 C 200.832031 105.5625 201.300781 105.796875 201.894531 105.796875 C 202.488281 105.796875 202.957031 105.5625 203.296875 105.089844 C 203.636719 104.621094 203.804688 103.972656 203.804688 103.148438 Z M 199.984375 100.761719 C 200.222656 100.355469 200.519531 100.054688 200.878906 99.855469 C 201.238281 99.660156 201.667969 99.558594 202.167969 99.558594 C 203 99.558594 203.675781 99.890625 204.191406 100.546875 C 204.710938 101.207031 204.972656 102.074219 204.972656 103.148438 C 204.972656 104.222656 204.710938 105.089844 204.191406 105.75 C 203.675781 106.410156 203 106.738281 202.167969 106.738281 C 201.667969 106.738281 201.238281 106.640625 200.878906 106.441406 C 200.519531 106.242188 200.222656 105.941406 199.984375 105.535156 L 199.984375 106.558594 L 198.855469 106.558594 L 198.855469 97.0625 L 199.984375 97.0625 Z M 199.984375 100.761719 "/>
<path style=" stroke:none;fill-rule:nonzero;fill:rgb(0%,0%,0%);fill-opacity:1;" d="M 209.941406 103.125 C 209.03125 103.125 208.402344 103.226562 208.054688 103.433594 C 207.703125 103.640625 207.527344 103.996094 207.527344 104.496094 C 207.527344 104.894531 207.660156 105.210938 207.921875 105.445312 C 208.1875 105.679688 208.542969 105.796875 208.992188 105.796875 C 209.617188 105.796875 210.117188 105.574219 210.492188 105.132812 C 210.871094 104.691406 211.058594 104.105469 211.058594 103.375 L 211.058594 103.125 Z M 212.179688 102.660156 L 212.179688 106.558594 L 211.058594 106.558594 L 211.058594 105.523438 C 210.800781 105.9375 210.480469 106.242188 210.097656 106.441406 C 209.714844 106.640625 209.246094 106.738281 208.695312 106.738281 C 207.996094 106.738281 207.4375 106.542969 207.023438 106.148438 C 206.613281 105.753906 206.40625 105.230469 206.40625 104.570312 C 206.40625 103.800781 206.664062 103.222656 207.175781 102.832031 C 207.691406 102.441406 208.460938 102.246094 209.480469 102.246094 L 211.058594 102.246094 L 211.058594 102.132812 C 211.058594 101.617188 210.886719 101.21875 210.546875 100.933594 C 210.207031 100.652344 209.730469 100.511719 209.117188 100.511719 C 208.726562 100.511719 208.34375 100.558594 207.972656 100.652344 C 207.605469 100.746094 207.25 100.886719 206.90625 101.074219 L 206.90625 100.035156 C 207.316406 99.875 207.714844 99.757812 208.101562 99.679688 C 208.488281 99.601562 208.867188 99.558594 209.230469 99.558594 C 210.222656 99.558594 210.960938 99.816406 211.449219 100.328125 C 211.9375 100.839844 212.179688 101.617188 212.179688 102.660156 Z M 212.179688 102.660156 "/>
<path style=" stroke:none;fill-rule:nonzero;fill:rgb(0%,0%,0%);fill-opacity:1;" d="M 215.605469 97.78125 L 215.605469 99.722656 L 217.917969 99.722656 L 217.917969 100.597656 L 215.605469 100.597656 L 215.605469 104.308594 C 215.605469 104.867188 215.679688 105.222656 215.832031 105.382812 C 215.984375 105.542969 216.296875 105.621094 216.765625 105.621094 L 217.917969 105.621094 L 217.917969 106.558594 L 216.765625 106.558594 C 215.898438 106.558594 215.300781 106.398438 214.96875 106.074219 C 214.640625 105.75 214.476562 105.164062 214.476562 104.308594 L 214.476562 100.597656 L 213.652344 100.597656 L 213.652344 99.722656 L 214.476562 99.722656 L 214.476562 97.78125 Z M 215.605469 97.78125 "/>
<path style=" stroke:none;fill-rule:nonzero;fill:rgb(0%,0%,0%);fill-opacity:1;" d="M 224.3125 99.984375 L 224.3125 101.035156 C 223.996094 100.859375 223.679688 100.730469 223.359375 100.640625 C 223.039062 100.554688 222.71875 100.511719 222.390625 100.511719 C 221.664062 100.511719 221.097656 100.742188 220.691406 101.203125 C 220.289062 101.664062 220.089844 102.3125 220.089844 103.148438 C 220.089844 103.984375 220.289062 104.632812 220.691406 105.09375 C 221.097656 105.554688 221.664062 105.785156 222.390625 105.785156 C 222.71875 105.785156 223.039062 105.742188 223.359375 105.652344 C 223.679688 105.566406 223.996094 105.433594 224.3125 105.257812 L 224.3125 106.296875 C 224 106.445312 223.675781 106.554688 223.339844 106.625 C 223.003906 106.699219 222.648438 106.738281 222.269531 106.738281 C 221.238281 106.738281 220.421875 106.414062 219.8125 105.765625 C 219.207031 105.121094 218.90625 104.246094 218.90625 103.148438 C 218.90625 102.035156 219.210938 101.15625 219.824219 100.519531 C 220.4375 99.878906 221.277344 99.558594 222.34375 99.558594 C 222.6875 99.558594 223.027344 99.597656 223.355469 99.667969 C 223.683594 99.738281 224.003906 99.84375 224.3125 99.984375 Z M 224.3125 99.984375 "/>
<path style=" stroke:none;fill-rule:nonzero;fill:rgb(0%,0%,0%);fill-opacity:1;" d="M 231.949219 102.433594 L 231.949219 106.558594 L 230.828125 106.558594 L 230.828125 102.46875 C 230.828125 101.824219 230.699219 101.339844 230.449219 101.019531 C 230.195312 100.699219 229.816406 100.535156 229.3125 100.535156 C 228.707031 100.535156 228.226562 100.730469 227.878906 101.117188 C 227.527344 101.503906 227.351562 102.027344 227.351562 102.695312 L 227.351562 106.558594 L 226.222656 106.558594 L 226.222656 97.0625 L 227.351562 97.0625 L 227.351562 100.785156 C 227.621094 100.375 227.9375 100.066406 228.300781 99.863281 C 228.667969 99.660156 229.085938 99.558594 229.5625 99.558594 C 230.347656 99.558594 230.941406 99.804688 231.34375 100.289062 C 231.75 100.773438 231.949219 101.488281 231.949219 102.433594 Z M 231.949219 102.433594 "/>
<path style=" stroke:none;fill-rule:nonzero;fill:rgb(0%,0%,0%);fill-opacity:1;" d="M 242.519531 99.925781 L 242.519531 100.988281 C 242.203125 100.824219 241.875 100.703125 241.53125 100.621094 C 241.191406 100.539062 240.835938 100.5 240.46875 100.5 C 239.910156 100.5 239.492188 100.585938 239.214844 100.753906 C 238.9375 100.925781 238.796875 101.183594 238.796875 101.523438 C 238.796875 101.785156 238.898438 101.988281 239.097656 102.136719 C 239.296875 102.285156 239.695312 102.429688 240.300781 102.5625 L 240.683594 102.648438 C 241.480469 102.820312 242.046875 103.058594 242.382812 103.371094 C 242.71875 103.683594 242.886719 104.117188 242.886719 104.671875 C 242.886719 105.308594 242.636719 105.8125 242.132812 106.183594 C 241.628906 106.554688 240.941406 106.738281 240.0625 106.738281 C 239.695312 106.738281 239.3125 106.703125 238.917969 106.628906 C 238.519531 106.558594 238.101562 106.453125 237.664062 106.308594 L 237.664062 105.148438 C 238.078125 105.367188 238.488281 105.527344 238.890625 105.636719 C 239.292969 105.742188 239.691406 105.796875 240.085938 105.796875 C 240.613281 105.796875 241.019531 105.707031 241.304688 105.523438 C 241.589844 105.34375 241.734375 105.089844 241.734375 104.757812 C 241.734375 104.453125 241.628906 104.222656 241.425781 104.058594 C 241.21875 103.894531 240.769531 103.738281 240.074219 103.585938 L 239.683594 103.496094 C 238.988281 103.351562 238.484375 103.125 238.175781 102.820312 C 237.867188 102.519531 237.710938 102.101562 237.710938 101.574219 C 237.710938 100.929688 237.9375 100.433594 238.394531 100.085938 C 238.851562 99.734375 239.496094 99.558594 240.335938 99.558594 C 240.75 99.558594 241.140625 99.589844 241.507812 99.652344 C 241.875 99.710938 242.210938 99.804688 242.519531 99.925781 Z M 242.519531 99.925781 "/>
<path style=" stroke:none;fill-rule:nonzero;fill:rgb(0%,0%,0%);fill-opacity:1;" d="M 244.675781 99.722656 L 245.796875 99.722656 L 245.796875 106.558594 L 244.675781 106.558594 Z M 244.675781 97.0625 L 245.796875 97.0625 L 245.796875 98.484375 L 244.675781 98.484375 Z M 244.675781 97.0625 "/>
<path style=" stroke:none;fill-rule:nonzero;fill:rgb(0%,0%,0%);fill-opacity:1;" d="M 247.660156 99.722656 L 252.992188 99.722656 L 252.992188 100.75 L 248.769531 105.664062 L 252.992188 105.664062 L 252.992188 106.558594 L 247.507812 106.558594 L 247.507812 105.535156 L 251.730469 100.621094 L 247.660156 100.621094 Z M 247.660156 99.722656 "/>
<path style=" stroke:none;fill-rule:nonzero;fill:rgb(0%,0%,0%);fill-opacity:1;" d="M 260.554688 102.859375 L 260.554688 103.410156 L 255.390625 103.410156 C 255.441406 104.183594 255.675781 104.773438 256.089844 105.175781 C 256.507812 105.582031 257.089844 105.785156 257.832031 105.785156 C 258.265625 105.785156 258.683594 105.730469 259.085938 105.625 C 259.492188 105.519531 259.894531 105.363281 260.292969 105.148438 L 260.292969 106.210938 C 259.890625 106.382812 259.476562 106.511719 259.054688 106.601562 C 258.632812 106.691406 258.203125 106.738281 257.765625 106.738281 C 256.675781 106.738281 255.8125 106.421875 255.175781 105.785156 C 254.539062 105.152344 254.21875 104.292969 254.21875 103.207031 C 254.21875 102.089844 254.523438 101.203125 255.125 100.546875 C 255.730469 99.890625 256.546875 99.558594 257.570312 99.558594 C 258.492188 99.558594 259.21875 99.855469 259.753906 100.449219 C 260.289062 101.039062 260.554688 101.84375 260.554688 102.859375 Z M 259.433594 102.53125 C 259.425781 101.917969 259.253906 101.429688 258.917969 101.0625 C 258.582031 100.695312 258.136719 100.511719 257.582031 100.511719 C 256.957031 100.511719 256.457031 100.6875 256.078125 101.042969 C 255.703125 101.398438 255.488281 101.894531 255.429688 102.539062 Z M 259.433594 102.53125 "/>
<path style=" stroke:none;fill-rule:nonzero;fill:rgb(0%,0%,0%);fill-opacity:1;" d="M 262.546875 100.882812 L 270.371094 100.882812 L 270.371094 101.910156 L 262.546875 101.910156 Z M 262.546875 103.375 L 270.371094 103.375 L 270.371094 104.410156 L 262.546875 104.410156 Z M 262.546875 103.375 "/>
<path style=" stroke:none;fill-rule:nonzero;fill:rgb(0%,0%,0%);fill-opacity:1;" d="M 273.246094 105.523438 L 275.257812 105.523438 L 275.257812 98.570312 L 273.066406 99.007812 L 273.066406 97.886719 L 275.246094 97.445312 L 276.480469 97.445312 L 276.480469 105.523438 L 278.492188 105.523438 L 278.492188 106.558594 L 273.246094 106.558594 Z M 273.246094 105.523438 "/>
<path style=" stroke:none;fill-rule:nonzero;fill:rgb(0%,0%,0%);fill-opacity:1;" d="M 283.621094 98.257812 C 282.988281 98.257812 282.507812 98.570312 282.1875 99.195312 C 281.871094 99.820312 281.710938 100.757812 281.710938 102.011719 C 281.710938 103.261719 281.871094 104.199219 282.1875 104.824219 C 282.507812 105.449219 282.988281 105.761719 283.621094 105.761719 C 284.261719 105.761719 284.738281 105.449219 285.058594 104.824219 C 285.378906 104.199219 285.539062 103.261719 285.539062 102.011719 C 285.539062 100.757812 285.378906 99.820312 285.058594 99.195312 C 284.738281 98.570312 284.261719 98.257812 283.621094 98.257812 Z M 283.621094 97.28125 C 284.644531 97.28125 285.421875 97.6875 285.960938 98.496094 C 286.5 99.304688 286.769531 100.476562 286.769531 102.011719 C 286.769531 103.546875 286.5 104.71875 285.960938 105.527344 C 285.421875 106.335938 284.644531 106.738281 283.621094 106.738281 C 282.601562 106.738281 281.820312 106.335938 281.28125 105.527344 C 280.742188 104.71875 280.472656 103.546875 280.472656 102.011719 C 280.472656 100.476562 280.742188 99.304688 281.28125 98.496094 C 281.820312 97.6875 282.601562 97.28125 283.621094 97.28125 Z M 283.621094 97.28125 "/>
<path style=" stroke:none;fill-rule:nonzero;fill:rgb(0%,0%,0%);fill-opacity:1;" d="M 291.574219 98.257812 C 290.941406 98.257812 290.460938 98.570312 290.140625 99.195312 C 289.824219 99.820312 289.664062 100.757812 289.664062 102.011719 C 289.664062 103.261719 289.824219 104.199219 290.140625 104.824219 C 290.460938 105.449219 290.941406 105.761719 291.574219 105.761719 C 292.214844 105.761719 292.691406 105.449219 293.011719 104.824219 C 293.332031 104.199219 293.492188 103.261719 293.492188 102.011719 C 293.492188 100.757812 293.332031 99.820312 293.011719 99.195312 C 292.691406 98.570312 292.214844 98.257812 291.574219 98.257812 Z M 291.574219 97.28125 C 292.597656 97.28125 293.375 97.6875 293.914062 98.496094 C 294.453125 99.304688 294.722656 100.476562 294.722656 102.011719 C 294.722656 103.546875 294.453125 104.71875 293.914062 105.527344 C 293.375 106.335938 292.597656 106.738281 291.574219 106.738281 C 290.554688 106.738281 289.773438 106.335938 289.234375 105.527344 C 288.695312 104.71875 288.425781 103.546875 288.425781 102.011719 C 288.425781 100.476562 288.695312 99.304688 289.234375 98.496094 C 289.773438 97.6875 290.554688 97.28125 291.574219 97.28125 Z M 291.574219 97.28125 "/>
<path style="fill:none;stroke-width:1.5;stroke-linecap:butt;stroke-linejoin:round;stroke:rgb(100%,0%,0%);stroke-opacity:1;stroke-dasharray:1.5,2.475;stroke-miterlimit:4;" d="M 130.175 96.425 L 150.175 96.425 " transform="matrix(1.25,0,0,1.25,0,0)"/>
<path style=" stroke:none;fill-rule:nonzero;fill:rgb(0%,0%,0%);fill-opacity:1;" d="M 203.804688 121.496094 C 203.804688 120.671875 203.636719 120.023438 203.296875 119.550781 C 202.957031 119.082031 202.488281 118.847656 201.894531 118.847656 C 201.300781 118.847656 200.832031 119.082031 200.492188 119.550781 C 200.152344 120.023438 199.984375 120.671875 199.984375 121.496094 C 199.984375 122.320312 200.152344 122.96875 200.492188 123.4375 C 200.832031 123.910156 201.300781 124.144531 201.894531 124.144531 C 202.488281 124.144531 202.957031 123.910156 203.296875 123.4375 C 203.636719 122.96875 203.804688 122.320312 203.804688 121.496094 Z M 199.984375 119.109375 C 200.222656 118.703125 200.519531 118.402344 200.878906 118.203125 C 201.238281 118.007812 201.667969 117.90625 202.167969 117.90625 C 203 117.90625 203.675781 118.238281 204.191406 118.894531 C 204.710938 119.554688 204.972656 120.421875 204.972656 121.496094 C 204.972656 122.570312 204.710938 123.4375 204.191406 124.097656 C 203.675781 124.757812 203 125.085938 202.167969 125.085938 C 201.667969 125.085938 201.238281 124.988281 200.878906 124.789062 C 200.519531 124.589844 200.222656 124.289062 199.984375 123.882812 L 199.984375 124.90625 L 198.855469 124.90625 L 198.855469 115.410156 L 199.984375 115.410156 Z M 199.984375 119.109375 "/>
<path style=" stroke:none;fill-rule:nonzero;fill:rgb(0%,0%,0%);fill-opacity:1;" d="M 209.941406 121.472656 C 209.03125 121.472656 208.402344 121.574219 208.054688 121.78125 C 207.703125 121.988281 207.527344 122.34375 207.527344 122.84375 C 207.527344 123.242188 207.660156 123.558594 207.921875 123.792969 C 208.1875 124.027344 208.542969 124.144531 208.992188 124.144531 C 209.617188 124.144531 210.117188 123.921875 210.492188 123.480469 C 210.871094 123.039062 211.058594 122.453125 211.058594 121.722656 L 211.058594 121.472656 Z M 212.179688 121.007812 L 212.179688 124.90625 L 211.058594 124.90625 L 211.058594 123.871094 C 210.800781 124.285156 210.480469 124.589844 210.097656 124.789062 C 209.714844 124.988281 209.246094 125.085938 208.695312 125.085938 C 207.996094 125.085938 207.4375 124.890625 207.023438 124.496094 C 206.613281 124.101562 206.40625 123.578125 206.40625 122.917969 C 206.40625 122.148438 206.664062 121.570312 207.175781 121.179688 C 207.691406 120.789062 208.460938 120.59375 209.480469 120.59375 L 211.058594 120.59375 L 211.058594 120.480469 C 211.058594 119.964844 210.886719 119.566406 210.546875 119.28125 C 210.207031 119 209.730469 118.859375 209.117188 118.859375 C 208.726562 118.859375 208.34375 118.90625 207.972656 119 C 207.605469 119.09375 207.25 119.234375 206.90625 119.421875 L 206.90625 118.382812 C 207.316406 118.222656 207.714844 118.105469 208.101562 118.027344 C 208.488281 117.949219 208.867188 117.90625 209.230469 117.90625 C 210.222656 117.90625 210.960938 118.164062 211.449219 118.675781 C 211.9375 119.1875 212.179688 119.964844 212.179688 121.007812 Z M 212.179688 121.007812 "/>
<path style=" stroke:none;fill-rule:nonzero;fill:rgb(0%,0%,0%);fill-opacity:1;" d="M 215.605469 116.128906 L 215.605469 118.070312 L 217.917969 118.070312 L 217.917969 118.945312 L 215.605469 118.945312 L 215.605469 122.65625 C 215.605469 123.214844 215.679688 123.570312 215.832031 123.730469 C 215.984375 123.890625 216.296875 123.96875 216.765625 123.96875 L 217.917969 123.96875 L 217.917969 124.90625 L 216.765625 124.90625 C 215.898438 124.90625 215.300781 124.746094 214.96875 124.421875 C 214.640625 124.097656 214.476562 123.511719 214.476562 122.65625 L 214.476562 118.945312 L 213.652344 118.945312 L 213.652344 118.070312 L 214.476562 118.070312 L 214.476562 116.128906 Z M 215.605469 116.128906 "/>
<path style=" stroke:none;fill-rule:nonzero;fill:rgb(0%,0%,0%);fill-opacity:1;" d="M 224.3125 118.332031 L 224.3125 119.382812 C 223.996094 119.207031 223.679688 119.078125 223.359375 118.988281 C 223.039062 118.902344 222.71875 118.859375 222.390625 118.859375 C 221.664062 118.859375 221.097656 119.089844 220.691406 119.550781 C 220.289062 120.011719 220.089844 120.660156 220.089844 121.496094 C 220.089844 122.332031 220.289062 122.980469 220.691406 123.441406 C 221.097656 123.902344 221.664062 124.132812 222.390625 124.132812 C 222.71875 124.132812 223.039062 124.089844 223.359375 124 C 223.679688 123.914062 223.996094 123.78125 224.3125 123.605469 L 224.3125 124.644531 C 224 124.792969 223.675781 124.902344 223.339844 124.972656 C 223.003906 125.046875 222.648438 125.085938 222.269531 125.085938 C 221.238281 125.085938 220.421875 124.761719 219.8125 124.113281 C 219.207031 123.46875 218.90625 122.59375 218.90625 121.496094 C 218.90625 120.382812 219.210938 119.503906 219.824219 118.867188 C 220.4375 118.226562 221.277344 117.90625 222.34375 117.90625 C 222.6875 117.90625 223.027344 117.945312 223.355469 118.015625 C 223.683594 118.085938 224.003906 118.191406 224.3125 118.332031 Z M 224.3125 118.332031 "/>
<path style=" stroke:none;fill-rule:nonzero;fill:rgb(0%,0%,0%);fill-opacity:1;" d="M 231.949219 120.78125 L 231.949219 124.90625 L 230.828125 124.90625 L 230.828125 120.816406 C 230.828125 120.171875 230.699219 119.6875 230.449219 119.367188 C 230.195312 119.046875 229.816406 118.882812 229.3125 118.882812 C 228.707031 118.882812 228.226562 119.078125 227.878906 119.464844 C 227.527344 119.851562 227.351562 120.375 227.351562 121.042969 L 227.351562 124.90625 L 226.222656 124.90625 L 226.222656 115.410156 L 227.351562 115.410156 L 227.351562 119.132812 C 227.621094 118.722656 227.9375 118.414062 228.300781 118.210938 C 228.667969 118.007812 229.085938 117.90625 229.5625 117.90625 C 230.347656 117.90625 230.941406 118.152344 231.34375 118.636719 C 231.75 119.121094 231.949219 119.835938 231.949219 120.78125 Z M 231.949219 120.78125 "/>
<path style=" stroke:none;fill-rule:nonzero;fill:rgb(0%,0%,0%);fill-opacity:1;" d="M 242.519531 118.273438 L 242.519531 119.335938 C 242.203125 119.171875 241.875 119.050781 241.53125 118.96875 C 241.191406 118.886719 240.835938 118.847656 240.46875 118.847656 C 239.910156 118.847656 239.492188 118.933594 239.214844 119.101562 C 238.9375 119.273438 238.796875 119.53125 238.796875 119.871094 C 238.796875 120.132812 238.898438 120.335938 239.097656 120.484375 C 239.296875 120.632812 239.695312 120.777344 240.300781 120.910156 L 240.683594 120.996094 C 241.480469 121.167969 242.046875 121.40625 242.382812 121.71875 C 242.71875 122.03125 242.886719 122.464844 242.886719 123.019531 C 242.886719 123.65625 242.636719 124.160156 242.132812 124.53125 C 241.628906 124.902344 240.941406 125.085938 240.0625 125.085938 C 239.695312 125.085938 239.3125 125.050781 238.917969 124.976562 C 238.519531 124.90625 238.101562 124.800781 237.664062 124.65625 L 237.664062 123.496094 C 238.078125 123.714844 238.488281 123.875 238.890625 123.984375 C 239.292969 124.089844 239.691406 124.144531 240.085938 124.144531 C 240.613281 124.144531 241.019531 124.054688 241.304688 123.871094 C 241.589844 123.691406 241.734375 123.4375 241.734375 123.105469 C 241.734375 122.800781 241.628906 122.570312 241.425781 122.40625 C 241.21875 122.242188 240.769531 122.085938 240.074219 121.933594 L 239.683594 121.84375 C 238.988281 121.699219 238.484375 121.472656 238.175781 121.167969 C 237.867188 120.867188 237.710938 120.449219 237.710938 119.921875 C 237.710938 119.277344 237.9375 118.78125 238.394531 118.433594 C 238.851562 118.082031 239.496094 117.90625 240.335938 117.90625 C 240.75 117.90625 241.140625 117.9375 241.507812 118 C 241.875 118.058594 242.210938 118.152344 242.519531 118.273438 Z M 242.519531 118.273438 "/>
<path style=" stroke:none;fill-rule:nonzero;fill:rgb(0%,0%,0%);fill-opacity:1;" d="M 244.675781 118.070312 L 245.796875 118.070312 L 245.796875 124.90625 L 244.675781 124.90625 Z M 244.675781 115.410156 L 245.796875 115.410156 L 245.796875 116.832031 L 244.675781 116.832031 Z M 244.675781 115.410156 "/>
<path style=" stroke:none;fill-rule:nonzero;fill:rgb(0%,0%,0%);fill-opacity:1;" d="M 247.660156 118.070312 L 252.992188 118.070312 L 252.992188 119.097656 L 248.769531 124.011719 L 252.992188 124.011719 L 252.992188 124.90625 L 247.507812 124.90625 L 247.507812 123.882812 L 251.730469 118.96875 L 247.660156 118.96875 Z M 247.660156 118.070312 "/>
<path style=" stroke:none;fill-rule:nonzero;fill:rgb(0%,0%,0%);fill-opacity:1;" d="M 260.554688 121.207031 L 260.554688 121.757812 L 255.390625 121.757812 C 255.441406 122.53125 255.675781 123.121094 256.089844 123.523438 C 256.507812 123.929688 257.089844 124.132812 257.832031 124.132812 C 258.265625 124.132812 258.683594 124.078125 259.085938 123.972656 C 259.492188 123.867188 259.894531 123.710938 260.292969 123.496094 L 260.292969 124.558594 C 259.890625 124.730469 259.476562 124.859375 259.054688 124.949219 C 258.632812 125.039062 258.203125 125.085938 257.765625 125.085938 C 256.675781 125.085938 255.8125 124.769531 255.175781 124.132812 C 254.539062 123.5 254.21875 122.640625 254.21875 121.554688 C 254.21875 120.4375 254.523438 119.550781 255.125 118.894531 C 255.730469 118.238281 256.546875 117.90625 257.570312 117.90625 C 258.492188 117.90625 259.21875 118.203125 259.753906 118.796875 C 260.289062 119.386719 260.554688 120.191406 260.554688 121.207031 Z M 259.433594 120.878906 C 259.425781 120.265625 259.253906 119.777344 258.917969 119.410156 C 258.582031 119.042969 258.136719 118.859375 257.582031 118.859375 C 256.957031 118.859375 256.457031 119.035156 256.078125 119.390625 C 255.703125 119.746094 255.488281 120.242188 255.429688 120.886719 Z M 259.433594 120.878906 "/>
<path style=" stroke:none;fill-rule:nonzero;fill:rgb(0%,0%,0%);fill-opacity:1;" d="M 262.546875 119.230469 L 270.371094 119.230469 L 270.371094 120.257812 L 262.546875 120.257812 Z M 262.546875 121.722656 L 270.371094 121.722656 L 270.371094 122.757812 L 262.546875 122.757812 Z M 262.546875 121.722656 "/>
<path style=" stroke:none;fill-rule:nonzero;fill:rgb(0%,0%,0%);fill-opacity:1;" d="M 273.246094 123.871094 L 275.257812 123.871094 L 275.257812 116.917969 L 273.066406 117.355469 L 273.066406 116.234375 L 275.246094 115.792969 L 276.480469 115.792969 L 276.480469 123.871094 L 278.492188 123.871094 L 278.492188 124.90625 L 273.246094 124.90625 Z M 273.246094 123.871094 "/>
<path style=" stroke:none;fill-rule:nonzero;fill:rgb(0%,0%,0%);fill-opacity:1;" d="M 283.621094 116.605469 C 282.988281 116.605469 282.507812 116.917969 282.1875 117.542969 C 281.871094 118.167969 281.710938 119.105469 281.710938 120.359375 C 281.710938 121.609375 281.871094 122.546875 282.1875 123.171875 C 282.507812 123.796875 282.988281 124.109375 283.621094 124.109375 C 284.261719 124.109375 284.738281 123.796875 285.058594 123.171875 C 285.378906 122.546875 285.539062 121.609375 285.539062 120.359375 C 285.539062 119.105469 285.378906 118.167969 285.058594 117.542969 C 284.738281 116.917969 284.261719 116.605469 283.621094 116.605469 Z M 283.621094 115.628906 C 284.644531 115.628906 285.421875 116.035156 285.960938 116.84375 C 286.5 117.652344 286.769531 118.824219 286.769531 120.359375 C 286.769531 121.894531 286.5 123.066406 285.960938 123.875 C 285.421875 124.683594 284.644531 125.085938 283.621094 125.085938 C 282.601562 125.085938 281.820312 124.683594 281.28125 123.875 C 280.742188 123.066406 280.472656 121.894531 280.472656 120.359375 C 280.472656 118.824219 280.742188 117.652344 281.28125 116.84375 C 281.820312 116.035156 282.601562 115.628906 283.621094 115.628906 Z M 283.621094 115.628906 "/>
</g>
</svg>
